<svg enable-background="new -106.403 -201.859 629.266 880.536" height="880.536px" id="district_41" viewBox="-106.403 -201.859 629.266 880.536" width="629.266px" x="0px" xml:space="preserve" xmlns="http://www.w3.org/2000/svg" y="0px"><polygon points="-37.128,-167.349 -36.804,-167.699 -36.477,-168.054 -36.152,-168.404 -35.826,-168.755    -35.499,-169.107 -34.847,-169.456 -34.847,-169.811 -34.195,-169.811 -33.87,-169.811 -33.545,-169.811 -33.545,-170.161    -33.219,-170.514 -33.219,-170.864 -33.219,-171.218 -33.219,-171.92 -33.219,-172.622 -33.219,-173.324 -33.545,-173.324    -33.87,-173.324 -34.195,-173.324 -34.523,-173.324 -34.847,-173.324 -34.523,-173.677 -34.195,-174.031 -34.195,-174.732    -34.195,-175.082 -34.523,-175.435 -34.847,-175.786 -34.847,-176.138 -34.523,-176.138 -34.195,-176.491 -33.87,-176.491    -33.545,-176.842 -33.87,-177.192 -34.195,-177.543 -34.523,-177.543 -34.847,-177.543 -35.174,-177.543 -35.499,-177.898    -36.152,-177.898 -36.477,-178.246 -36.477,-178.599 -36.477,-178.952 -36.477,-179.301 -36.152,-179.655 -35.826,-179.655    -35.174,-180.003 -35.174,-179.301 -35.174,-178.952 -35.174,-178.599 -34.847,-178.599 -34.523,-178.599 -34.195,-178.599    -33.87,-178.599 -33.219,-178.599 -32.893,-178.952 -32.565,-178.952 -31.915,-178.952 -31.59,-178.952 -31.262,-179.301    -30.611,-179.655 -30.284,-179.655 -30.611,-179.301 -30.611,-178.952 -30.936,-178.599 -31.262,-178.599 -31.59,-178.246    -31.59,-177.898 -31.59,-177.543 -31.262,-177.543 -30.936,-177.543 -30.611,-177.543 -30.284,-177.543 -30.284,-176.842    -30.611,-176.138 -30.936,-175.786 -30.936,-175.435 -30.936,-175.082 -30.284,-175.082 -29.961,-175.082 -29.633,-175.082    -29.307,-175.082 -28.982,-175.082 -28.657,-175.082 -27.678,-174.732 -27.353,-174.732 -27.026,-174.379 -26.7,-174.031    -26.375,-174.031 -25.721,-174.031 -25.397,-174.031 -25.721,-174.379 -25.721,-175.082 -25.721,-175.435 -25.721,-175.786    -25.721,-176.491 -26.048,-176.842 -25.721,-177.192 -25.397,-177.192 -25.071,-177.192 -24.744,-177.192 -24.419,-177.192    -24.094,-177.192 -23.439,-177.192 -23.115,-177.192 -22.464,-177.192 -22.136,-177.192 -22.136,-176.842 -21.81,-176.842    -21.81,-176.491 -21.81,-176.138 -21.81,-175.435 -21.81,-175.082 -21.485,-174.732 -21.485,-174.379 -21.485,-173.677    -21.158,-172.975 -21.485,-172.622 -21.81,-172.271 -21.81,-171.92 -21.485,-171.92 -21.485,-171.568 -21.158,-171.568    -20.833,-171.568 -20.507,-171.218 -20.181,-171.218 -19.856,-170.864 -19.529,-170.864 -19.204,-170.864 -18.876,-170.864    -18.552,-170.864 -18.224,-170.864 -18.224,-170.514 -18.224,-170.161 -18.224,-169.811 -18.552,-169.811 -18.876,-169.456    -18.552,-169.107 -18.224,-169.107 -17.9,-169.107 -17.574,-169.107 -17.247,-169.107 -16.922,-169.107 -16.595,-168.755    -16.595,-168.404 -16.271,-168.054 -15.942,-168.054 -15.618,-167.699 -15.293,-167.699 -14.967,-168.054 -14.641,-168.054    -14.313,-168.054 -13.989,-168.404 -13.661,-168.755 -13.661,-168.404 -13.338,-168.404 -13.01,-168.054 -13.01,-167.699    -13.338,-167.349 -13.01,-166.998 -13.338,-166.998 -13.661,-166.998 -13.989,-166.998 -14.313,-166.998 -14.641,-166.998    -14.967,-166.645 -15.293,-166.645 -15.293,-166.294 -14.967,-165.942 -14.641,-165.942 -14.313,-165.942 -13.661,-165.942    -13.01,-165.942 -13.01,-165.588 -13.338,-165.588 -13.338,-165.237 -13.01,-165.237 -13.01,-164.887 -12.685,-164.887    -12.359,-164.887 -12.032,-164.887 -11.379,-165.237 -11.055,-164.887 -11.379,-164.535 -12.032,-164.535 -12.685,-164.184    -13.01,-164.184 -13.661,-164.184 -13.989,-163.833 -13.661,-163.48 -13.338,-163.48 -13.338,-163.13 -13.01,-162.775    -13.01,-162.427 -13.01,-162.075 -12.685,-161.722 -12.359,-161.371 -12.032,-161.371 -12.359,-161.02 -12.359,-160.667    -12.032,-160.314 -11.709,-160.314 -11.709,-159.966 -11.709,-159.612 -12.032,-159.261 -12.032,-158.91 -12.032,-158.559    -11.709,-158.209 -11.055,-158.209 -11.055,-157.854 -11.055,-157.503 -11.055,-157.153 -10.73,-156.802 -10.403,-156.802    -10.077,-157.153 -10.077,-157.503 -9.75,-157.854 -9.75,-158.559 -9.425,-158.559 -9.098,-158.559 -8.774,-158.559    -7.796,-158.559 -7.469,-158.209 -7.144,-157.854 -6.816,-157.503 -6.816,-157.153 -6.492,-156.448 -6.492,-156.099    -6.166,-155.746 -6.166,-155.392 -6.492,-155.392 -6.816,-155.392 -7.144,-155.392 -7.469,-155.392 -8.121,-155.392    -8.446,-155.392 -9.098,-155.392 -9.425,-155.043 -10.077,-155.043 -10.403,-154.689 -10.73,-154.339 -11.379,-153.988    -11.709,-154.339 -12.032,-154.339 -12.032,-154.689 -12.032,-155.043 -12.032,-155.392 -12.032,-155.746 -12.359,-155.746    -12.359,-155.392 -12.685,-155.392 -13.01,-155.392 -13.661,-155.746 -13.661,-156.099 -14.313,-156.448 -14.641,-156.099    -15.293,-156.099 -15.618,-156.099 -15.942,-156.099 -16.271,-156.448 -16.595,-156.448 -17.247,-156.802 -17.574,-157.153    -17.9,-156.802 -18.224,-156.802 -18.224,-156.448 -18.552,-156.099 -18.876,-156.099 -19.529,-156.099 -19.856,-156.099    -20.507,-155.392 -20.833,-155.043 -21.485,-154.339 -21.81,-153.988 -22.136,-153.988 -22.464,-153.635 -23.115,-153.635    -23.767,-153.635 -24.094,-153.635 -24.744,-153.988 -25.071,-153.988 -25.071,-154.339 -25.397,-154.689 -25.721,-154.689    -26.048,-154.689 -26.375,-154.339 -26.7,-153.988 -27.026,-153.988 -27.353,-153.635 -27.678,-153.988 -27.678,-154.339    -27.353,-154.689 -27.026,-155.043 -27.026,-155.392 -27.353,-155.392 -27.678,-155.392 -28.33,-155.392 -28.657,-155.392    -28.982,-155.746 -29.307,-155.746 -29.633,-155.392 -29.961,-155.392 -29.961,-155.043 -30.611,-155.392 -30.936,-155.392    -30.936,-155.746 -31.262,-156.099 -31.59,-156.099 -31.915,-156.448 -32.241,-156.448 -32.565,-156.448 -33.219,-156.802    -32.893,-156.802 -32.893,-157.153 -32.565,-157.153 -32.565,-157.854 -32.241,-157.854 -32.241,-158.209 -32.241,-158.91    -32.565,-158.91 -32.565,-159.261 -32.893,-158.91 -33.219,-158.91 -33.545,-158.91 -33.87,-158.91 -33.87,-159.261    -33.87,-159.612 -33.87,-159.966 -33.87,-160.314 -34.195,-160.314 -34.195,-159.966 -34.523,-159.966 -34.523,-159.612    -34.847,-159.612 -35.174,-159.612 -35.499,-159.612 -36.152,-159.612 -35.826,-159.966 -35.826,-160.314 -35.499,-160.314    -35.499,-160.667 -35.174,-160.667 -35.499,-161.02 -35.826,-161.371 -36.152,-161.02 -36.477,-161.02 -36.477,-161.371    -36.477,-161.722 -36.152,-161.722 -35.826,-161.722 -35.499,-161.722 -35.499,-162.075 -35.499,-162.427 -35.174,-162.775    -35.174,-163.13 -35.499,-163.13 -35.499,-162.775 -35.826,-162.775 -35.826,-162.427 -36.477,-162.427 -36.477,-162.775    -36.477,-163.13 -36.804,-163.48 -36.477,-163.48 -36.477,-163.833 -36.477,-164.184 -36.152,-164.535 -35.826,-164.887    -35.826,-165.237 -36.152,-165.237 -36.477,-165.237 -36.477,-164.887 -36.804,-164.887 -37.128,-165.237 -37.128,-165.588    -37.456,-165.942 -37.781,-166.294 -37.781,-166.645 -37.456,-166.645 -37.128,-166.645 -37.128,-166.998   " id="upazila_382" area="upazlia" name="panchagarhsadar" bengali="পঞ্চগড়" parent="panchagarh"></polygon><polygon points="-40.388,-159.261 -40.062,-159.261 -40.062,-159.613 -39.737,-159.613 -39.737,-159.966    -40.062,-160.316 -40.062,-160.667 -39.737,-160.667 -39.412,-160.667 -39.085,-160.667 -38.759,-160.667 -38.433,-160.667    -38.108,-161.02 -37.781,-161.02 -37.456,-161.02 -37.456,-160.667 -37.781,-160.316 -37.781,-159.613 -38.108,-159.261    -37.781,-158.91 -37.781,-159.261 -37.456,-159.261 -37.13,-159.261 -37.13,-159.613 -36.804,-159.613 -36.477,-159.613    -36.152,-159.613 -35.499,-159.613 -35.174,-159.613 -34.848,-159.613 -34.523,-159.613 -34.523,-159.966 -34.195,-159.966    -34.195,-160.316 -33.87,-160.316 -33.87,-159.966 -33.87,-159.613 -33.87,-159.261 -33.87,-158.91 -33.545,-158.91    -33.219,-158.91 -32.893,-158.91 -32.566,-159.261 -32.566,-158.91 -32.241,-158.91 -32.241,-158.207 -32.241,-157.856    -32.566,-157.856 -32.566,-157.151 -32.893,-157.151 -32.893,-156.8 -33.219,-156.8 -32.566,-156.448 -32.241,-156.448    -31.915,-156.448 -31.59,-156.097 -31.262,-156.097 -30.936,-155.744 -30.936,-155.393 -30.611,-155.393 -29.961,-155.043    -29.961,-155.393 -29.633,-155.393 -29.307,-155.744 -28.982,-155.744 -28.657,-155.393 -28.33,-155.393 -27.677,-155.393    -27.353,-155.393 -27.026,-155.393 -27.026,-155.043 -27.353,-154.69 -27.677,-154.339 -27.677,-153.988 -27.353,-153.635    -27.026,-153.988 -26.698,-153.988 -26.375,-154.339 -26.048,-154.69 -25.722,-154.69 -25.397,-154.69 -25.069,-154.339    -25.069,-153.988 -24.744,-153.988 -24.093,-153.635 -23.767,-153.635 -23.114,-153.635 -22.464,-153.635 -22.136,-153.988    -21.81,-153.988 -21.485,-154.339 -20.833,-155.043 -20.507,-155.393 -19.856,-156.097 -19.529,-156.097 -18.878,-156.097    -18.552,-156.097 -18.225,-156.448 -18.225,-156.8 -17.9,-156.8 -17.574,-157.151 -17.247,-156.8 -16.596,-156.448    -16.271,-156.448 -15.943,-156.097 -15.618,-156.097 -15.293,-156.097 -14.641,-156.097 -14.314,-156.448 -13.663,-156.097    -13.663,-155.744 -13.01,-155.393 -12.684,-155.393 -12.359,-155.393 -12.359,-155.744 -12.031,-155.744 -12.031,-155.393    -12.031,-155.043 -12.031,-154.69 -12.031,-154.339 -11.707,-154.339 -11.381,-153.988 -10.728,-154.339 -10.403,-154.69    -10.077,-155.043 -9.425,-155.043 -9.099,-155.393 -8.446,-155.393 -8.121,-155.393 -7.47,-155.393 -7.144,-155.393    -6.817,-155.393 -6.492,-155.393 -6.166,-155.393 -6.166,-155.744 -6.492,-156.097 -6.492,-156.448 -6.817,-157.151    -6.817,-157.502 -7.144,-157.856 -7.47,-158.207 -7.796,-158.557 -7.796,-158.91 -7.144,-159.261 -6.817,-159.613    -6.817,-159.966 -6.492,-159.966 -5.841,-159.966 -5.513,-159.966 -5.188,-159.966 -4.862,-159.966 -4.862,-159.613    -4.537,-159.261 -4.537,-158.91 -4.212,-158.557 -4.212,-158.207 -4.212,-157.856 -4.212,-157.502 -3.885,-157.502    -3.558,-157.502 -3.233,-157.151 -3.233,-156.8 -3.233,-156.448 -3.558,-155.744 -3.558,-155.393 -3.885,-155.043    -3.558,-154.339 -3.558,-153.988 -3.558,-153.635 -3.558,-153.285 -3.558,-152.933 -3.233,-152.229 -3.233,-151.878    -3.233,-151.175 -4.537,-150.823 -4.862,-150.472 -5.188,-150.472 -5.188,-150.122 -5.188,-149.767 -4.862,-149.417    -4.537,-149.417 -4.537,-149.065 -3.885,-148.715 -3.885,-148.362 -3.885,-148.011 -4.212,-148.011 -4.537,-147.66    -4.537,-147.306 -4.537,-146.604 -4.862,-146.253 -5.188,-146.253 -5.513,-146.253 -5.841,-146.956 -5.841,-147.306    -5.841,-147.66 -6.492,-147.66 -6.817,-146.956 -7.144,-146.956 -7.144,-146.604 -7.47,-146.604 -7.47,-146.956 -7.796,-147.306    -8.121,-147.306 -8.121,-146.956 -8.446,-146.956 -8.446,-146.253 -8.774,-145.9 -9.099,-145.549 -9.752,-144.845    -9.425,-144.144 -9.425,-143.792 -9.099,-143.086 -9.099,-142.736 -8.774,-142.385 -9.099,-142.034 -9.099,-141.68    -9.099,-141.329 -9.425,-140.627 -9.099,-140.627 -9.099,-140.275 -9.099,-139.923 -8.774,-139.571 -9.099,-138.868    -9.099,-138.518 -8.774,-138.518 -8.774,-138.167 -8.774,-137.813 -8.774,-137.462 -8.774,-137.111 -8.446,-136.758    -8.121,-136.758 -8.121,-137.111 -7.796,-137.111 -7.47,-136.758 -7.796,-136.408 -7.796,-136.056 -7.796,-135.704    -7.796,-135.353 -7.47,-135.001 -7.47,-134.65 -7.796,-134.65 -8.121,-135.001 -8.446,-135.001 -9.099,-135.353 -9.425,-135.353    -9.425,-135.001 -9.099,-135.001 -9.099,-134.65 -9.099,-134.299 -9.099,-133.946 -9.425,-133.946 -9.425,-134.299    -9.752,-134.299 -9.752,-134.65 -10.077,-134.65 -10.403,-134.65 -10.728,-134.65 -11.055,-135.001 -11.055,-135.353    -11.055,-135.704 -11.055,-136.056 -10.728,-136.056 -10.403,-136.056 -10.403,-136.408 -10.403,-136.758 -10.077,-136.758    -10.077,-137.111 -10.403,-137.462 -10.403,-137.813 -10.077,-137.813 -10.077,-138.167 -10.403,-138.518 -10.403,-138.868    -10.728,-138.868 -11.381,-139.219 -11.707,-139.219 -12.359,-139.219 -12.684,-139.219 -13.01,-138.868 -13.338,-138.868    -13.338,-138.518 -13.338,-137.813 -13.663,-137.462 -13.989,-137.462 -14.314,-137.111 -14.641,-137.111 -14.967,-136.758    -15.293,-136.408 -15.293,-136.056 -15.618,-135.704 -15.943,-135.704 -16.271,-135.353 -16.596,-135.353 -16.922,-135.353    -16.922,-135.001 -16.922,-134.65 -16.922,-134.299 -16.922,-133.946 -17.247,-133.596 -16.922,-133.244 -16.922,-132.891    -16.596,-132.54 -16.596,-132.19 -16.922,-131.837 -17.247,-131.485 -17.574,-131.134 -17.9,-130.783 -17.574,-130.431    -17.247,-130.079 -16.922,-130.079 -16.922,-129.726 -16.922,-129.375 -17.247,-129.023 -17.9,-129.023 -17.9,-129.375    -18.552,-129.023 -18.878,-128.673 -18.552,-127.968 -18.225,-127.617 -17.9,-127.617 -17.574,-127.267 -17.574,-126.914    -17.9,-126.562 -17.9,-125.858 -17.9,-125.508 -17.574,-125.156 -17.574,-124.806 -17.247,-124.453 -17.574,-124.102    -17.574,-123.397 -17.9,-123.046 -17.9,-122.695 -18.225,-122.343 -18.552,-122.343 -18.552,-121.64 -18.552,-121.289    -18.552,-120.936 -18.878,-120.586 -19.204,-120.586 -19.529,-120.936 -19.529,-121.64 -19.529,-121.991 -19.529,-122.343    -19.856,-123.046 -20.181,-123.397 -20.507,-123.75 -20.833,-124.102 -20.833,-124.453 -21.16,-125.156 -21.485,-125.508    -21.81,-126.211 -22.136,-126.562 -22.789,-127.267 -23.44,-127.968 -24.419,-128.32 -24.744,-128.673 -25.397,-129.023    -26.048,-129.023 -26.698,-129.023 -27.026,-129.023 -27.353,-129.375 -27.677,-129.726 -28.004,-129.726 -28.004,-130.079    -28.33,-130.079 -28.657,-130.079 -28.657,-130.431 -28.982,-130.783 -29.307,-130.783 -29.307,-131.134 -29.633,-131.134    -29.633,-131.485 -29.633,-131.837 -29.961,-132.19 -30.286,-132.54 -30.286,-132.891 -29.961,-133.244 -29.961,-133.596    -30.286,-133.596 -30.611,-133.596 -30.936,-133.946 -30.936,-134.299 -31.262,-134.299 -30.936,-135.001 -30.611,-135.704    -30.611,-136.056 -30.936,-136.056 -31.262,-136.408 -31.262,-136.758 -31.59,-137.111 -31.59,-137.462 -31.915,-137.813    -31.915,-138.167 -32.241,-138.167 -32.241,-138.518 -31.915,-138.518 -31.915,-138.868 -31.915,-139.219 -31.59,-139.571    -31.59,-139.923 -31.59,-140.275 -31.59,-140.978 -31.59,-141.329 -31.262,-141.68 -31.262,-142.034 -31.59,-142.034    -31.915,-142.034 -32.241,-142.385 -32.241,-142.736 -32.241,-143.086 -32.566,-143.44 -32.893,-143.44 -33.219,-143.44    -33.545,-143.44 -33.87,-143.086 -34.523,-142.736 -35.174,-142.736 -35.826,-142.736 -35.826,-142.385 -36.477,-142.385    -37.13,-142.736 -37.456,-143.086 -37.781,-143.086 -38.433,-143.44 -38.759,-143.44 -39.412,-143.792 -40.062,-143.792    -40.388,-143.792 -41.042,-143.792 -41.692,-143.792 -42.019,-144.144 -42.345,-144.495 -42.345,-144.845 -42.345,-145.198    -42.671,-145.549 -42.671,-146.604 -42.671,-146.956 -42.671,-147.306 -42.345,-147.66 -42.019,-148.362 -41.692,-148.715    -41.367,-149.065 -41.042,-149.417 -40.716,-149.767 -40.716,-150.472 -40.388,-150.823 -40.388,-151.175 -40.388,-151.526    -40.388,-151.878 -40.388,-152.229 -40.388,-152.582 -40.388,-153.285 -40.716,-153.635 -41.367,-153.635 -41.692,-153.635    -42.019,-153.988 -42.019,-154.69 -42.019,-155.043 -42.019,-155.393 -42.996,-155.393 -43.323,-155.393 -43.649,-155.393    -44.3,-155.043 -44.952,-155.043 -45.278,-155.043 -45.605,-155.043 -45.93,-155.043 -46.256,-155.393 -46.582,-155.393    -46.582,-155.744 -46.256,-156.097 -46.256,-156.448 -45.93,-156.8 -45.605,-157.151 -45.278,-157.502 -44.952,-157.856    -44.952,-158.207 -44.627,-158.91 -44.3,-159.261 -43.974,-159.261 -43.649,-159.261 -43.323,-158.91 -42.996,-158.91    -42.671,-158.91 -42.345,-158.557 -42.019,-158.557 -41.367,-158.557 -41.042,-158.91   " id="upazila_380" area="upazlia" name="boda" bengali="বোদা" parent="panchagarh"></polygon><polygon points="-8.774,-142.385 -9.098,-142.736 -9.098,-143.086 -9.427,-143.791 -9.427,-144.142    -9.75,-144.845 -9.098,-145.549 -8.774,-145.9 -8.446,-146.252 -8.446,-146.956 -8.123,-146.956 -8.123,-147.306 -7.796,-147.306    -7.469,-146.956 -7.469,-146.603 -7.144,-146.603 -7.144,-146.956 -6.816,-146.956 -6.492,-147.658 -5.841,-147.658    -5.841,-147.306 -5.841,-146.956 -5.513,-146.252 -5.187,-146.252 -4.862,-146.252 -4.535,-146.603 -4.535,-147.306    -4.535,-147.658 -4.212,-148.009 -3.884,-148.009 -3.884,-148.362 -3.884,-148.713 -4.535,-149.063 -4.535,-149.417    -4.862,-149.417 -5.187,-149.767 -5.187,-150.12 -5.187,-150.47 -4.862,-150.47 -4.535,-150.823 -3.233,-151.175 -2.906,-150.823    -2.581,-150.47 -2.581,-149.767 -2.581,-149.417 -2.581,-149.063 -2.581,-148.362 -2.581,-147.658 -2.906,-147.306    -3.233,-146.603 -3.558,-146.252 -3.233,-145.549 -3.233,-145.197 -3.233,-144.845 -3.233,-144.495 -3.233,-143.086    -2.906,-142.385 -2.581,-142.385 -2.253,-142.736 -1.929,-142.736 -1.602,-143.086 -1.277,-142.736 -0.951,-142.736    -0.301,-142.385 0.028,-142.034 0.352,-141.68 0.68,-141.329 1.005,-140.976 1.331,-140.625 1.331,-140.275 1.331,-139.923    1.656,-139.57 1.656,-139.219 1.656,-138.868 1.656,-138.515 1.005,-138.868 1.005,-138.515 1.005,-138.165 1.331,-138.165    1.656,-138.165 1.656,-137.813 1.656,-137.462 1.656,-137.11 1.331,-136.758 1.331,-136.408 1.331,-136.056 1.005,-135.353    0.352,-135.001 0.028,-134.648 -0.301,-134.648 -0.951,-134.648 -0.951,-134.298 -0.624,-133.946 -0.301,-133.946    -0.624,-133.592 -0.624,-133.243 -0.624,-132.54 -0.624,-132.188 -0.624,-131.835 0.028,-130.781 0.028,-130.431 0.028,-129.726    0.352,-129.375 0.028,-129.023 0.028,-128.673 0.028,-127.617 0.352,-127.266 0.68,-126.914 0.68,-126.562 0.68,-126.21    0.68,-125.858 0.028,-125.508 -0.301,-124.805 -0.624,-124.453 -0.951,-123.749 -1.277,-123.399 -1.277,-123.046 -1.277,-122.693    -1.929,-122.343 -2.253,-121.287 -2.581,-120.936 -2.906,-120.586 -3.233,-120.586 -3.558,-120.936 -3.884,-120.586    -3.558,-120.233 -3.233,-120.233 -2.906,-119.53 -2.581,-119.179 -2.253,-118.826 -0.624,-117.421 -0.951,-116.718    -1.277,-116.366 -1.602,-116.014 -1.929,-115.664 -2.581,-114.959 -2.581,-114.609 -2.906,-113.903 -2.906,-113.554    -2.906,-113.202 -3.233,-113.202 -3.233,-113.554 -3.558,-113.554 -3.558,-113.202 -3.558,-112.849 -3.558,-112.499    -3.233,-111.796 -3.558,-111.442 -3.884,-111.442 -4.212,-111.796 -4.535,-111.796 -4.862,-111.796 -5.187,-111.442    -5.841,-110.741 -6.164,-110.741 -6.492,-110.741 -6.816,-110.741 -7.469,-111.092 -7.469,-110.741 -7.796,-110.39    -8.123,-110.037 -8.446,-109.686 -8.774,-109.333 -9.427,-109.333 -10.077,-108.981 -10.405,-108.981 -10.728,-108.981    -11.055,-109.333 -11.379,-109.686 -11.379,-110.037 -12.032,-110.39 -12.685,-110.39 -13.338,-110.39 -13.661,-110.39    -14.313,-110.037 -14.641,-110.037 -15.292,-110.39 -15.942,-110.39 -16.271,-110.741 -16.595,-111.092 -16.922,-111.796    -17.247,-112.146 -17.572,-112.849 -18.224,-113.554 -18.552,-113.903 -18.876,-114.609 -19.204,-114.609 -19.854,-114.959    -20.181,-115.311 -20.505,-115.311 -20.833,-116.014 -21.485,-116.718 -21.485,-117.069 -21.158,-117.069 -20.833,-117.771    -20.833,-118.123 -20.505,-118.826 -20.181,-119.53 -19.854,-120.586 -19.531,-120.936 -19.204,-120.586 -18.876,-120.586    -18.552,-120.936 -18.552,-121.287 -18.552,-121.64 -18.552,-122.343 -18.224,-122.343 -17.9,-122.693 -17.9,-123.046    -17.572,-123.399 -17.572,-124.102 -17.247,-124.453 -17.572,-124.805 -17.572,-125.156 -17.9,-125.508 -17.9,-125.858    -17.9,-126.562 -17.572,-126.914 -17.572,-127.266 -17.9,-127.617 -18.224,-127.617 -18.552,-127.968 -18.876,-128.673    -18.552,-129.023 -17.9,-129.375 -17.9,-129.023 -17.247,-129.023 -16.922,-129.375 -16.922,-129.726 -16.922,-130.079    -17.247,-130.079 -17.572,-130.431 -17.9,-130.781 -17.572,-131.134 -17.247,-131.485 -16.922,-131.835 -16.595,-132.188    -16.595,-132.54 -16.922,-132.891 -16.922,-133.243 -17.247,-133.592 -16.922,-133.946 -16.922,-134.298 -16.922,-134.648    -16.922,-135.001 -16.922,-135.353 -16.595,-135.353 -16.271,-135.353 -15.942,-135.703 -15.618,-135.703 -15.292,-136.056    -15.292,-136.408 -14.967,-136.758 -14.641,-137.11 -14.313,-137.11 -13.989,-137.462 -13.661,-137.462 -13.338,-137.813    -13.338,-138.515 -13.338,-138.868 -13.01,-138.868 -12.685,-139.219 -12.359,-139.219 -11.709,-139.219 -11.379,-139.219    -10.728,-138.868 -10.405,-138.868 -10.405,-138.515 -10.077,-138.165 -10.077,-137.813 -10.405,-137.813 -10.405,-137.462    -10.077,-137.11 -10.077,-136.758 -10.405,-136.758 -10.405,-136.408 -10.405,-136.056 -10.728,-136.056 -11.055,-136.056    -11.055,-135.703 -11.055,-135.353 -11.055,-135.001 -10.728,-134.648 -10.405,-134.648 -10.077,-134.648 -9.75,-134.648    -9.75,-134.298 -9.427,-134.298 -9.427,-133.946 -9.098,-133.946 -9.098,-134.298 -9.098,-134.648 -9.098,-135.001    -9.427,-135.001 -9.427,-135.353 -9.098,-135.353 -8.446,-135.001 -8.123,-135.001 -7.796,-134.648 -7.469,-134.648    -7.469,-135.001 -7.796,-135.353 -7.796,-135.703 -7.796,-136.056 -7.796,-136.408 -7.469,-136.758 -7.796,-137.11    -8.123,-137.11 -8.123,-136.758 -8.446,-136.758 -8.774,-137.11 -8.774,-137.462 -8.774,-137.813 -8.774,-138.165    -8.774,-138.515 -9.098,-138.515 -9.098,-138.868 -8.774,-139.57 -9.098,-139.923 -9.098,-140.275 -9.098,-140.625    -9.427,-140.625 -9.098,-141.329 -9.098,-141.68 -9.098,-142.034   " id="upazila_381" area="upazlia" name="debiganj" bengali="দেবীগঞ্জ" parent="panchagarh"></polygon><polygon points="-62.877,-137.813 -62.553,-137.813 -62.225,-137.813 -62.225,-138.167 -62.225,-138.515    -61.901,-138.868 -61.901,-139.219 -61.573,-138.868 -61.248,-139.219 -61.248,-139.57 -60.923,-139.57 -60.596,-139.57    -60.272,-139.923 -59.943,-139.923 -59.619,-139.923 -59.293,-140.275 -58.968,-140.275 -58.642,-140.275 -58.642,-140.627    -58.642,-140.978 -58.314,-140.978 -58.314,-141.329 -58.642,-141.329 -58.642,-141.68 -58.314,-141.68 -57.99,-142.034    -57.99,-142.385 -57.99,-142.736 -57.662,-143.086 -57.662,-143.44 -57.662,-143.791 -57.99,-143.791 -58.314,-143.791    -58.968,-143.791 -58.642,-144.142 -58.314,-144.142 -58.314,-144.495 -58.642,-144.495 -58.968,-144.495 -58.968,-144.845    -58.968,-145.197 -58.968,-145.549 -58.968,-145.9 -58.968,-146.252 -58.642,-146.252 -58.642,-146.603 -58.968,-146.603    -58.642,-146.956 -58.642,-147.306 -58.968,-147.306 -58.968,-147.658 -58.968,-148.009 -58.968,-148.362 -58.968,-148.713    -58.968,-149.063 -58.642,-149.063 -58.968,-149.063 -58.968,-149.417 -58.642,-149.417 -58.642,-149.767 -58.314,-150.12    -57.99,-150.12 -57.662,-150.12 -57.662,-150.47 -57.339,-150.823 -57.01,-150.823 -57.01,-151.175 -57.01,-151.524    -57.01,-151.878 -56.685,-151.878 -56.36,-151.878 -56.36,-152.229 -56.36,-152.58 -56.033,-152.58 -56.033,-152.229    -55.71,-152.229 -55.71,-152.58 -55.71,-152.933 -55.056,-152.58 -55.056,-152.933 -54.729,-153.285 -54.406,-153.285    -54.079,-153.285 -54.079,-153.635 -54.079,-153.988 -53.751,-153.988 -53.427,-153.988 -53.099,-153.988 -52.775,-153.988    -52.447,-153.988 -52.447,-154.339 -52.124,-154.339 -52.124,-154.69 -51.797,-154.339 -51.47,-154.339 -50.817,-154.339    -50.493,-154.339 -50.167,-154.339 -49.843,-154.69 -50.167,-155.043 -50.167,-155.393 -50.493,-155.393 -50.817,-155.393    -51.146,-155.744 -51.47,-156.097 -51.47,-156.448 -51.146,-156.8 -50.817,-156.8 -50.493,-157.151 -50.167,-157.502    -49.843,-157.502 -49.843,-157.151 -49.516,-157.151 -49.188,-157.151 -48.863,-157.151 -47.883,-157.151 -47.559,-157.151    -47.234,-157.502 -47.234,-157.856 -46.907,-158.207 -46.907,-158.557 -46.582,-158.91 -46.582,-159.261 -46.582,-159.966    -46.254,-160.316 -46.254,-161.018 -45.93,-161.371 -45.603,-161.371 -45.278,-161.722 -44.952,-162.074 -44.952,-162.425    -44.3,-162.777 -43.973,-162.777 -43.973,-162.425 -43.973,-162.074 -43.973,-161.722 -43.973,-161.018 -43.973,-160.667    -43.649,-160.667 -43.321,-160.667 -42.996,-160.667 -42.996,-160.316 -42.344,-160.316 -42.019,-160.316 -41.691,-160.316    -41.367,-159.966 -41.041,-159.612 -41.041,-159.261 -40.388,-159.261 -41.041,-158.91 -41.367,-158.557 -42.019,-158.557    -42.344,-158.557 -42.671,-158.91 -42.996,-158.91 -43.321,-158.91 -43.649,-159.261 -43.973,-159.261 -44.3,-159.261    -44.625,-158.91 -44.952,-158.207 -44.952,-157.856 -45.278,-157.502 -45.603,-157.151 -45.93,-156.8 -46.254,-156.448    -46.254,-156.097 -46.582,-155.744 -46.582,-155.393 -46.254,-155.393 -45.93,-155.043 -45.603,-155.043 -45.278,-155.043    -44.952,-155.043 -44.3,-155.043 -43.649,-155.393 -43.321,-155.393 -42.996,-155.393 -42.019,-155.393 -42.019,-155.043    -42.019,-154.69 -42.019,-153.988 -41.691,-153.635 -41.367,-153.635 -40.716,-153.635 -40.388,-153.285 -40.388,-152.58    -40.388,-152.229 -40.388,-151.878 -40.388,-151.524 -40.388,-151.175 -40.388,-150.823 -40.716,-150.47 -40.716,-149.767    -41.041,-149.417 -41.367,-149.063 -41.691,-148.713 -42.019,-148.362 -42.344,-147.658 -42.671,-147.306 -42.671,-146.956    -42.671,-146.603 -42.671,-145.549 -42.344,-145.197 -42.344,-144.845 -42.344,-144.495 -42.019,-144.142 -41.691,-143.791    -41.041,-143.791 -40.388,-143.791 -40.062,-143.791 -39.41,-143.791 -38.759,-143.44 -38.433,-143.44 -37.781,-143.086    -37.458,-143.086 -37.128,-142.736 -36.477,-142.385 -35.826,-142.385 -35.826,-142.736 -35.174,-142.736 -34.523,-142.736    -33.87,-143.086 -33.544,-143.44 -33.219,-143.44 -32.893,-143.44 -32.565,-143.44 -32.241,-143.086 -32.241,-142.736    -32.241,-142.385 -31.913,-142.034 -31.59,-142.034 -31.261,-142.034 -31.261,-141.68 -31.59,-141.329 -31.59,-140.978    -31.59,-140.275 -31.59,-139.923 -31.59,-139.57 -31.913,-139.219 -31.913,-138.868 -31.913,-138.515 -32.241,-138.515    -32.241,-138.167 -31.913,-138.167 -31.913,-137.813 -31.59,-137.462 -31.59,-137.11 -31.261,-136.758 -31.261,-136.408    -30.936,-136.056 -30.611,-136.056 -30.611,-135.703 -30.936,-135.001 -31.261,-134.298 -31.59,-134.298 -31.59,-135.001    -31.59,-135.353 -31.913,-135.353 -32.565,-135.353 -32.893,-135.001 -33.219,-134.648 -33.544,-134.298 -34.194,-133.946    -34.523,-133.946 -34.847,-133.946 -35.499,-134.298 -35.174,-135.001 -35.174,-135.703 -35.174,-136.056 -35.499,-136.758    -35.499,-137.11 -35.499,-137.462 -35.499,-137.813 -35.174,-138.167 -35.174,-138.515 -35.499,-138.515 -35.826,-138.515    -36.152,-138.868 -36.804,-138.868 -37.128,-139.219 -37.458,-139.219 -38.106,-139.219 -38.433,-139.57 -38.759,-139.57    -39.087,-139.219 -39.087,-138.868 -39.41,-138.515 -39.738,-138.167 -40.062,-137.813 -40.388,-137.813 -40.716,-137.813    -41.041,-137.813 -41.367,-137.813 -41.691,-137.813 -42.019,-137.462 -42.344,-137.462 -42.344,-137.11 -42.671,-136.758    -42.996,-137.11 -42.996,-136.758 -42.671,-136.408 -43.321,-136.056 -43.649,-136.056 -44.3,-136.056 -44.625,-136.408    -45.278,-136.408 -45.603,-136.758 -45.93,-136.758 -46.254,-136.408 -46.582,-136.408 -46.907,-136.758 -46.907,-137.11    -47.234,-137.462 -48.213,-137.462 -48.863,-137.11 -49.516,-137.11 -49.843,-137.11 -50.167,-137.11 -50.493,-137.11    -50.817,-137.11 -51.146,-136.758 -50.817,-136.408 -51.146,-136.408 -52.124,-136.056 -52.447,-136.056 -52.447,-136.758    -52.775,-137.11 -52.775,-137.462 -53.427,-137.462 -53.751,-137.462 -54.079,-137.462 -54.406,-137.462 -54.729,-137.462    -55.056,-137.11 -55.38,-137.462 -55.71,-137.462 -55.71,-137.11 -56.033,-137.11 -56.033,-136.758 -56.36,-136.056    -56.685,-135.703 -57.01,-135.703 -57.339,-135.703 -57.662,-135.703 -57.662,-136.056 -57.662,-136.408 -57.99,-136.758    -58.314,-136.758 -58.314,-136.408 -58.968,-136.056 -59.293,-136.056 -59.619,-136.056 -59.943,-136.056 -60.272,-136.056    -60.923,-136.056 -61.248,-136.056 -61.573,-136.056 -62.225,-136.056 -62.553,-136.408 -62.553,-136.758   " id="upazila_379" area="upazlia" name="atwari" bengali="আটোয়ারী" parent="panchagarh"></polygon><polygon points="-35.174,-180.006 -35.826,-179.655 -36.152,-179.655 -36.477,-179.301 -36.477,-178.95    -36.477,-178.599 -36.477,-178.246 -36.152,-177.896 -35.499,-177.896 -35.174,-177.544 -34.848,-177.544 -34.523,-177.544    -34.195,-177.544 -33.87,-177.192 -33.545,-176.84 -33.87,-176.489 -34.195,-176.489 -34.523,-176.138 -34.848,-176.138    -34.848,-175.788 -34.523,-175.434 -34.195,-175.083 -34.195,-174.732 -34.195,-174.029 -34.523,-173.677 -34.848,-173.325    -34.523,-173.325 -34.195,-173.325 -33.87,-173.325 -33.545,-173.325 -33.219,-173.325 -33.219,-172.622 -33.219,-171.919    -33.219,-171.217 -33.219,-170.865 -33.219,-170.512 -33.545,-170.161 -33.545,-169.811 -33.87,-169.811 -34.195,-169.811    -34.848,-169.811 -34.848,-169.458 -35.499,-169.106 -35.826,-168.755 -36.152,-168.404 -36.477,-168.051 -36.804,-167.7    -37.13,-167.349 -37.13,-167.7 -37.456,-167.7 -37.456,-167.349 -37.781,-167.349 -37.781,-166.998 -38.108,-166.998    -38.108,-167.349 -38.433,-167.7 -38.759,-167.7 -39.085,-168.051 -39.085,-168.404 -38.759,-168.404 -38.433,-168.404    -38.433,-168.755 -38.433,-169.106 -38.759,-169.106 -39.085,-169.106 -39.412,-169.106 -39.412,-169.458 -39.412,-169.811    -39.085,-170.161 -39.085,-170.512 -39.085,-170.865 -39.412,-170.865 -39.737,-170.865 -39.737,-171.217 -39.085,-171.217    -39.085,-171.567 -39.085,-171.919 -39.085,-172.271 -39.412,-172.271 -39.737,-172.622 -39.737,-172.974 -40.062,-172.974    -40.388,-173.325 -40.388,-173.677 -40.388,-174.029 -40.716,-174.029 -41.041,-174.029 -41.366,-174.38 -41.366,-174.732    -41.041,-175.083 -40.716,-175.434 -41.041,-175.788 -41.366,-175.788 -41.692,-175.788 -42.019,-175.788 -42.344,-175.788    -42.671,-176.138 -42.996,-176.138 -43.648,-176.138 -43.974,-176.138 -44.625,-176.489 -45.278,-176.489 -45.603,-176.489    -45.928,-176.489 -46.582,-176.489 -46.907,-176.489 -47.234,-176.489 -47.234,-176.84 -47.559,-177.192 -47.885,-177.192    -48.211,-177.192 -48.538,-177.192 -48.863,-177.192 -49.189,-176.84 -49.189,-176.489 -49.189,-176.138 -49.516,-176.489    -49.842,-176.489 -50.167,-176.84 -50.493,-177.192 -50.493,-177.544 -50.818,-177.896 -51.145,-178.246 -51.145,-178.599    -51.471,-178.599 -51.471,-178.95 -51.797,-179.301 -52.122,-178.95 -52.447,-178.599 -52.775,-178.599 -53.1,-178.246    -53.426,-178.246 -53.751,-178.246 -53.751,-178.599 -54.079,-178.599 -54.404,-178.95 -54.729,-178.95 -55.056,-178.95    -55.382,-179.301 -55.708,-179.301 -55.708,-179.655 -56.033,-179.655 -56.685,-179.655 -57.01,-179.301 -57.339,-178.95    -57.339,-178.599 -57.339,-178.246 -57.339,-177.896 -57.01,-177.544 -57.01,-177.192 -57.01,-176.84 -57.01,-176.489    -57.339,-176.138 -57.339,-175.788 -57.339,-175.434 -57.339,-175.083 -57.339,-174.732 -57.664,-174.38 -57.989,-174.029    -58.314,-173.677 -58.314,-173.325 -58.314,-173.677 -58.642,-174.029 -58.642,-174.38 -58.642,-174.732 -58.968,-175.083    -58.968,-175.434 -59.293,-175.788 -59.293,-176.138 -59.293,-176.489 -59.944,-176.84 -60.271,-176.84 -60.271,-177.192    -60.271,-177.544 -60.271,-177.896 -60.271,-178.246 -60.596,-178.246 -60.923,-177.896 -61.248,-178.246 -61.248,-178.599    -61.248,-178.95 -61.575,-179.655 -61.248,-180.006 -61.248,-180.357 -60.923,-180.709 -60.923,-181.061 -60.596,-181.412    -60.271,-181.412 -60.271,-181.764 -59.944,-182.116 -59.618,-182.466 -59.293,-182.466 -59.293,-182.819 -58.968,-182.819    -58.642,-183.169 -58.642,-183.521 -58.642,-183.875 -58.968,-183.875 -58.968,-184.226 -58.968,-184.577 -58.642,-184.927    -58.642,-185.281 -58.314,-185.281 -57.989,-185.631 -57.989,-185.983 -57.989,-186.333 -57.989,-186.687 -57.989,-187.039    -57.989,-187.388 -57.989,-187.743 -57.664,-188.093 -57.664,-188.444 -57.339,-188.797 -57.01,-189.147 -56.685,-189.5    -56.36,-189.851 -56.033,-189.851 -56.033,-190.203 -56.033,-190.554 -56.033,-190.906 -56.033,-191.256 -56.033,-191.609    -56.36,-191.96 -56.36,-192.311 -56.36,-192.663 -56.033,-192.663 -55.708,-193.014 -55.708,-193.365 -55.708,-193.718    -55.708,-194.069 -55.382,-194.069 -55.382,-194.421 -55.382,-195.124 -55.056,-195.124 -55.056,-195.477 -54.729,-195.477    -54.404,-195.477 -54.079,-195.828 -54.079,-196.18 -53.751,-196.531 -53.426,-196.531 -53.1,-196.531 -52.775,-196.18    -52.447,-196.18 -52.447,-196.531 -52.775,-196.882 -53.1,-196.882 -53.426,-197.234 -53.751,-197.234 -53.751,-197.587    -53.751,-197.938 -53.426,-197.938 -53.1,-198.291 -52.775,-198.291 -52.775,-198.641 -52.447,-198.991 -52.447,-199.343    -52.447,-199.696 -52.122,-200.047 -51.797,-200.398 -51.471,-200.398 -51.145,-200.75 -50.818,-200.75 -50.818,-201.102    -50.493,-201.102 -50.167,-201.102 -50.167,-200.75 -49.842,-200.75 -49.842,-200.398 -50.167,-200.047 -50.167,-199.696    -49.842,-199.343 -49.842,-198.991 -49.842,-198.641 -49.842,-198.291 -49.842,-197.587 -49.842,-197.234 -49.516,-196.882    -49.516,-196.531 -49.516,-196.18 -49.516,-195.828 -49.516,-195.477 -49.516,-195.124 -49.516,-194.772 -49.189,-194.421    -49.189,-193.718 -48.863,-193.365 -48.863,-193.014 -49.189,-192.311 -49.189,-191.609 -48.863,-191.256 -48.863,-190.906    -48.538,-190.203 -48.211,-189.851 -47.885,-188.797 -47.885,-188.444 -47.559,-188.093 -47.234,-188.093 -46.907,-188.093    -46.582,-188.093 -46.256,-187.743 -46.256,-187.388 -45.928,-187.039 -45.928,-186.687 -45.603,-186.687 -45.278,-186.687    -44.95,-186.687 -44.625,-186.687 -44.625,-187.039 -44.625,-187.388 -44.3,-187.743 -44.3,-188.093 -43.974,-188.444    -43.648,-188.093 -43.321,-187.743 -42.996,-187.743 -42.671,-188.093 -42.344,-188.093 -42.019,-188.093 -41.692,-188.093    -41.366,-188.093 -41.366,-187.743 -41.041,-187.388 -40.716,-187.388 -40.388,-187.388 -40.388,-187.039 -40.716,-187.039    -40.716,-186.687 -40.716,-186.333 -40.716,-185.983 -40.388,-185.983 -40.062,-185.983 -40.062,-186.333 -40.062,-185.983    -40.062,-185.631 -40.388,-185.281 -40.062,-185.281 -39.737,-184.927 -39.737,-184.577 -39.737,-184.226 -39.737,-183.875    -39.737,-183.521 -39.412,-183.521 -39.412,-183.169 -39.085,-183.169 -38.759,-182.819 -38.433,-182.819 -38.433,-183.169    -38.108,-183.169 -37.781,-183.521 -37.456,-183.169 -37.13,-183.169 -37.13,-182.819 -36.804,-182.819 -36.804,-182.466    -36.477,-182.466 -36.152,-182.466 -36.152,-182.819 -35.826,-182.466 -35.499,-182.466 -35.499,-182.116 -35.174,-182.116    -35.499,-181.764 -35.499,-181.412 -35.826,-181.061 -35.499,-181.061 -35.499,-180.709 -35.174,-180.357   " id="upazila_383" area="upazlia" name="tetulia" bengali="তেতুলিয়া" parent="panchagarh"></polygon></svg>