<svg enable-background="new -106.403 -201.859 629.266 880.536" height="880.536px" id="district_41" viewBox="-106.403 -201.859 629.266 880.536" width="629.266px" x="0px" xml:space="preserve" xmlns="http://www.w3.org/2000/svg" y="0px"><polygon points="118.342,213.786 118.665,213.786 120.296,213.786 121.6,213.786 122.905,213.436 123.882,213.786    124.532,214.138 124.532,214.49 124.858,215.193 125.187,215.545 125.511,215.896 126.162,216.6 126.162,216.952 126.49,217.656    126.49,218.006 126.49,218.712 126.815,219.06 127.14,219.764 127.14,220.117 127.14,220.82 126.815,221.171 126.49,221.523    126.49,221.874 127.14,222.225 127.14,222.578 127.468,222.928 127.468,223.28 127.468,224.334 127.793,224.334 128.119,225.04    128.119,225.39 128.119,225.741 128.119,226.444 128.119,226.797 128.119,227.147 128.445,227.5 128.772,227.852 129.097,228.554    128.772,228.907 129.097,229.257 129.75,229.609 130.401,229.961 130.726,230.312 131.054,230.664 131.379,230.664    131.379,231.369 131.702,231.718 132.031,232.421 132.031,232.774 132.684,233.125 132.684,233.477 132.684,233.828    132.355,234.534 132.031,234.534 131.702,234.534 131.054,234.179 130.726,234.534 130.073,234.534 129.75,233.828    129.75,233.477 129.75,233.125 129.42,232.774 128.772,232.774 128.445,233.125 128.119,233.477 127.793,233.477 128.119,233.828    128.445,234.534 128.772,234.882 128.772,235.235 129.097,236.994 129.097,237.695 129.097,238.4 128.772,239.103    128.445,239.454 128.445,239.805 128.772,240.512 128.772,240.859 128.772,241.563 129.097,241.563 129.75,241.917    130.073,242.267 130.401,242.619 131.054,243.323 132.031,243.674 132.031,244.024 132.031,244.727 131.702,245.08    131.054,245.431 130.726,245.782 130.401,245.782 130.401,246.135 130.401,246.487 130.073,246.837 129.75,246.837    129.097,246.837 128.445,246.837 127.793,246.487 127.468,246.135 127.468,245.782 127.468,245.431 127.14,244.727    126.815,244.727 126.49,244.727 126.49,245.08 126.162,245.782 125.511,245.782 125.187,246.135 124.858,245.782 124.532,245.431    124.208,245.782 123.882,245.782 123.229,246.135 122.578,246.487 121.928,246.487 121.275,246.487 120.948,246.135    121.275,245.431 121.275,244.727 121.275,244.376 121.275,244.024 120.948,243.674 120.624,242.619 120.296,241.211    120.296,240.859 119.646,240.859 119.319,240.157 118.665,240.157 118.342,239.454 118.015,239.103 117.689,238.751    117.689,238.4 118.015,238.4 118.342,238.4 118.342,238.047 118.342,237.695 118.342,237.343 118.015,237.343 117.689,236.994    117.365,237.343 117.036,237.695 116.713,237.695 116.385,237.343 116.061,236.994 116.061,236.641 115.733,236.641    115.082,236.641 114.754,236.641 114.103,236.29 113.779,236.29 113.452,235.936 112.802,235.587 112.802,235.235    112.802,234.882 113.127,234.534 113.127,234.179 113.452,234.179 113.779,233.828 113.452,233.477 113.452,233.125    113.127,232.774 112.802,232.421 112.15,232.421 111.822,232.421 111.822,232.069 111.822,231.015 111.822,230.664    112.15,230.312 112.472,229.961 112.802,229.609 112.472,229.257 112.15,229.257 111.822,229.257 111.498,228.907    111.168,228.907 110.52,227.852 110.193,227.5 110.193,227.147 110.193,226.797 110.52,226.444 110.52,226.091 110.52,225.39    110.52,225.04 110.193,224.687 110.193,223.984 110.52,223.984 110.52,223.633 110.52,222.928 110.845,222.578 110.845,222.225    110.52,221.874 110.52,221.523 110.52,221.171 110.52,220.82 110.52,220.466 110.52,219.764 110.845,219.413 111.498,218.358    111.498,218.006 111.498,217.656 110.845,216.952 110.52,216.249 110.52,215.896 110.845,215.193 111.498,214.845    111.822,214.845 111.822,214.138 112.802,214.49 113.127,214.138 113.779,214.138 114.103,213.436 115.082,213.436    115.733,213.786 117.365,213.786   " id="upazila_211" area="upazlia" name="rajbari" bengali="রাজবাড়ী সদর" parent="rajbari"></polygon><polygon points="96.179,210.624 95.2,212.027 94.22,213.436 95.526,213.436 94.55,215.193 93.246,214.138    90.636,213.784 89.332,213.784 89.332,214.138 89.332,215.193 89.332,216.249 89.008,217.656 88.682,219.764 87.378,219.764    86.725,220.821 87.703,221.523 89.66,221.874 90.311,222.928 90.636,225.037 90.636,226.094 89.66,227.147 88.682,226.797    88.029,228.201 88.029,229.61 87.378,229.61 85.747,229.61 84.444,228.201 83.14,229.257 81.186,229.257 79.881,229.61    79.229,231.016 79.556,232.774 80.207,233.477 82.161,234.179 81.836,234.179 81.186,234.882 80.858,235.233 79.881,235.233    79.229,234.882 78.577,234.534 77.927,234.179 77.274,234.534 77.274,234.179 77.274,233.477 76.948,232.774 76.295,232.422    75.645,231.716 74.992,231.368 74.014,230.311 73.688,229.61 73.364,228.907 73.364,228.554 73.035,228.201 72.384,227.852    72.06,227.147 71.732,226.444 71.732,226.094 71.732,225.743 71.406,225.389 71.08,225.037 69.777,224.688 70.102,223.983    70.756,223.983 71.406,223.28 72.71,222.578 72.71,222.225 72.384,221.874 72.71,221.523 73.364,220.466 73.364,220.115    73.035,220.115 72.06,219.764 72.06,219.062 72.71,218.709 73.364,218.709 73.688,218.709 74.341,218.358 74.664,217.656    74.341,217.302 74.014,216.601 74.014,216.249 74.014,215.545 74.992,213.784 75.645,212.732 75.645,212.027 75.645,211.327    75.968,210.975 75.968,210.27 76.295,209.92 76.948,209.566 77.274,209.218 77.599,208.865 77.274,208.162 77.599,207.105    77.599,206.756 77.927,206.404 78.252,205.701 79.229,204.999 79.229,204.645 78.904,204.295 78.577,203.942 78.904,203.593    78.577,203.239 78.252,202.886 78.252,202.184 78.577,201.834 78.252,201.132 78.577,200.779 78.904,201.132 78.904,201.834    79.229,201.834 79.556,201.482 79.556,200.779 79.229,200.077 79.556,199.373 80.858,199.019 81.836,198.67 81.836,199.019    82.161,199.019 82.815,199.373 83.465,200.426 84.118,201.834 84.771,202.537 85.421,202.886 86.725,203.593 88.682,204.999    89.008,205.701 90.311,206.756 91.941,207.809 93.57,209.218 95.2,209.92 95.852,210.27   " id="upazila_210" area="upazlia" name="pangsa" bengali="পাংশা" parent="rajbari"></polygon><polygon points="89.332,236.994 89.658,236.641 89.658,236.29 90.636,235.235 90.961,234.534 91.615,234.179    91.941,233.831 92.265,233.831 92.594,233.477 93.244,233.477 93.57,233.125 93.57,232.774 93.57,232.421 93.57,232.069    93.897,231.718 94.22,231.368 94.875,231.015 95.2,231.015 95.526,230.664 95.851,229.958 96.504,229.958 96.829,229.609    97.155,229.609 97.808,229.257 98.133,228.907 98.459,228.556 98.784,228.556 99.112,228.2 99.437,228.2 100.088,227.852    100.088,227.5 100.413,227.147 100.088,226.444 99.763,226.094 99.763,225.741 99.763,225.037 99.437,224.688 99.763,223.984    100.413,223.984 100.741,223.633 101.067,223.984 101.717,223.984 102.044,223.984 102.696,223.633 103.021,223.633    103.348,223.28 103.674,222.928 103.999,222.928 104.326,223.28 104.652,223.28 104.652,222.928 104.977,223.28 105.303,223.28    105.63,223.28 105.955,222.928 106.281,222.928 106.934,223.28 107.259,223.28 107.91,222.928 108.238,222.928 108.888,222.578    109.539,222.578 109.866,222.226 110.518,222.928 110.518,223.633 110.518,223.984 110.193,223.984 110.193,224.688    110.518,225.037 110.518,225.39 110.518,226.094 110.518,226.444 110.193,226.797 110.193,227.147 110.193,227.5 110.518,227.852    111.168,228.907 111.496,228.907 111.822,229.257 112.149,229.257 112.472,229.257 112.802,229.609 112.472,229.958    112.149,230.312 111.822,230.664 111.822,231.015 111.822,232.069 111.822,232.421 112.149,232.421 112.802,232.421    113.127,232.774 113.452,233.125 113.452,233.477 113.778,233.831 113.452,234.179 113.127,234.179 113.127,234.534    112.802,234.881 112.802,235.235 112.802,235.587 113.452,235.936 113.778,236.29 114.103,236.29 114.754,236.641    115.081,236.641 115.733,236.641 116.06,236.641 116.06,236.994 116.386,237.343 116.711,237.698 117.036,237.698    117.364,237.343 117.69,236.994 118.015,237.343 118.34,237.343 118.34,237.698 118.34,238.045 118.34,238.4 118.015,238.4    117.69,238.4 117.69,238.751 118.015,239.103 118.34,239.454 118.665,240.157 119.319,240.157 119.644,240.859 120.296,240.859    120.296,241.211 120.622,242.619 119.971,242.619 119.644,242.619 119.319,242.619 118.993,242.619 118.665,243.323    118.665,243.674 118.34,244.376 118.015,244.727 117.69,245.08 117.036,244.727 116.711,244.727 116.386,245.08 116.386,245.431    116.386,245.782 116.06,245.431 115.733,245.431 115.406,245.08 115.081,245.08 114.103,245.08 113.778,245.08 113.452,244.727    113.127,244.024 112.472,243.323 111.822,242.969 111.496,242.619 110.845,242.267 110.518,242.267 110.518,242.619    110.518,243.323 110.845,243.674 110.845,244.376 110.518,244.376 109.866,244.376 109.214,244.024 108.888,244.024    108.238,243.674 107.584,243.674 106.934,243.674 106.606,244.024 106.606,244.376 106.934,244.727 106.281,245.08    105.955,245.08 105.303,245.431 104.652,245.782 103.999,246.135 103.999,246.841 105.303,247.191 105.303,247.539    105.303,248.243 104.977,248.595 104.652,248.945 104.326,248.945 103.674,248.595 103.021,248.243 102.696,247.889    101.717,247.539 101.067,246.841 100.741,246.487 100.413,246.135 99.763,245.782 99.437,246.135 98.784,246.487 97.808,247.889    96.829,246.841 96.504,246.487 95.851,245.782 95.526,245.431 94.875,245.431 94.547,245.431 93.897,245.08 93.57,244.727    93.897,244.376 93.897,244.024 94.547,243.674 95.2,243.323 95.851,242.619 96.179,241.917 96.179,241.563 96.179,240.859    95.851,240.512 95.526,240.157 95.2,239.805 94.547,239.805 94.22,239.454 93.244,239.454 92.594,239.103 90.961,238.751    90.311,238.751 89.658,238.751 89.332,238.4 89.008,238.045 89.008,237.343   " id="upazila_208" area="upazlia" name="baliakandi" bengali="বালিয়াকান্দি" parent="rajbari"></polygon><polygon points="82.161,234.179 80.206,233.477 79.556,232.774 79.229,231.015 79.881,229.609 81.185,229.257    83.14,229.257 84.444,228.2 85.747,229.609 87.376,229.609 88.029,229.609 88.029,228.2 88.68,226.795 89.658,227.149    90.636,226.094 90.636,225.037 90.311,222.928 89.658,221.874 87.703,221.523 86.725,220.821 87.376,219.764 88.68,219.764    89.008,217.656 89.332,216.249 89.332,215.191 89.332,214.138 89.332,213.786 90.636,213.786 93.244,214.138 94.547,215.191    95.526,213.436 94.22,213.436 95.2,212.029 96.179,210.624 96.829,210.975 97.157,211.326 97.808,211.678 98.133,212.029    98.784,212.732 99.437,213.083 100.088,213.436 100.741,213.083 101.392,213.083 102.044,213.083 102.696,213.436    103.021,213.436 103.674,213.436 104.652,213.436 104.977,213.436 104.652,214.138 104.977,214.49 105.303,214.845    106.281,214.845 107.259,214.845 107.91,214.845 108.888,214.49 109.214,213.786 109.866,213.786 110.518,213.786    111.822,214.138 111.822,214.845 111.496,214.845 110.845,215.191 110.518,215.896 110.518,216.249 110.845,216.954    111.496,217.656 111.496,218.006 111.496,218.358 110.845,219.413 110.518,219.764 110.518,220.466 110.518,220.821    110.518,221.171 110.518,221.523 110.518,221.874 110.845,222.226 110.845,222.578 110.518,222.928 109.866,222.226    109.539,222.578 108.888,222.578 108.238,222.928 107.91,222.928 107.259,223.28 106.934,223.28 106.281,222.928 105.955,222.928    105.63,223.28 105.303,223.28 104.977,223.28 104.652,222.928 104.652,223.28 104.326,223.28 103.999,222.928 103.674,222.928    103.348,223.28 103.021,223.633 102.696,223.633 102.044,223.984 101.717,223.984 101.067,223.984 100.741,223.633    100.413,223.984 99.763,223.984 99.437,224.688 99.763,225.037 99.763,225.741 99.763,226.094 100.088,226.444 100.413,227.149    100.088,227.5 100.088,227.852 99.437,228.2 99.112,228.2 98.784,228.556 98.459,228.556 98.133,228.907 97.808,229.257    97.157,229.609 96.829,229.609 96.504,229.958 95.851,229.958 95.526,230.664 95.2,231.015 94.875,231.015 94.22,231.368    93.897,231.718 93.57,232.069 93.57,232.422 93.57,232.774 93.57,233.125 93.244,233.477 92.594,233.477 92.265,233.831    91.941,233.831 91.615,234.179 90.961,234.534 90.636,235.235 89.658,236.291 89.658,236.641 89.332,236.994 89.332,236.641    88.68,236.291 88.029,235.587 87.051,234.882 86.4,234.534 86.073,233.831 85.747,233.477 85.421,233.125 84.444,232.774    83.79,233.125 83.465,233.477 82.489,233.831   " id="upazila_477" area="upazlia" name="kalukhali" bengali="কালুখালী" parent="rajbari"></polygon><polygon points="122.904,213.436 123.557,213.083 124.859,213.436 125.186,213.083 125.511,212.732    126.162,212.029 126.815,210.975 127.141,210.975 128.447,210.624 128.77,210.271 129.097,209.92 129.748,209.92 130.399,209.92    131.702,210.271 132.683,210.271 133.659,210.271 133.987,210.271 134.312,210.624 134.312,210.975 134.312,211.326    134.312,212.029 134.963,212.029 134.963,213.083 135.288,213.786 135.288,214.49 135.942,214.845 136.267,215.896    136.267,216.249 136.267,216.6 136.594,216.952 136.919,216.952 137.571,216.952 137.896,217.656 138.223,218.358 138.874,219.06    139.852,219.764 140.83,220.821 141.809,221.873 142.785,222.578 144.089,223.28 145.393,224.334 146.043,225.037    147.022,225.741 147.347,226.444 146.697,227.149 146.043,227.149 145.393,227.149 144.741,227.5 144.741,227.852 144.741,228.2    144.741,228.907 144.741,228.556 144.089,228.2 143.763,228.2 143.439,228.2 143.113,227.852 142.785,227.852 142.134,227.5    141.481,227.5 141.156,227.149 141.156,226.795 140.505,226.444 140.178,226.094 139.852,226.444 139.201,226.795    138.874,226.795 138.549,227.149 137.896,227.852 137.571,228.2 137.571,228.556 137.571,229.257 137.571,230.312    137.571,230.664 137.896,231.368 137.571,231.368 137.245,231.368 137.245,231.716 136.919,232.069 136.594,232.422    135.942,232.422 135.288,232.422 134.638,232.422 134.312,232.422 133.659,232.422 133.006,232.774 132.355,232.774    132.032,232.774 132.032,232.422 131.702,231.716 131.379,231.368 131.379,230.664 131.052,230.664 130.726,230.312    130.399,229.958 129.748,229.61 129.097,229.257 128.77,228.907 129.097,228.556 128.77,227.852 128.447,227.5 128.118,227.149    128.118,226.795 128.118,226.444 128.118,225.741 128.118,225.39 128.118,225.037 127.793,224.334 127.466,224.334    127.466,223.28 127.466,222.928 127.141,222.578 127.141,222.226 126.49,221.873 126.49,221.523 126.815,221.171 127.141,220.821    127.141,220.115 127.141,219.764 126.815,219.06 126.49,218.709 126.49,218.009 126.49,217.656 126.162,216.952 126.162,216.6    125.511,215.896 125.186,215.548 124.859,215.191 124.532,214.49 124.532,214.139 123.882,213.786   " id="upazila_209" area="upazlia" name="goalanda" bengali="গোয়ালন্দ" parent="rajbari"></polygon></svg>