<svg enable-background="new -106.403 -201.859 629.266 880.536" height="880.536px" id="district_41" viewBox="-106.403 -201.859 629.266 880.536" width="629.266px" x="0px" xml:space="preserve" xmlns="http://www.w3.org/2000/svg" y="0px"><polygon points="306.732,94.595 306.406,95.299 306.406,95.649 306.08,96.353 306.406,96.353 307.057,96.353    308.031,96.353 308.689,96.002 309.014,96.002 309.663,96.002 310.315,96.002 310.643,96.353 311.294,96.706 311.947,97.057    312.275,97.406 312.92,97.406 313.251,97.406 313.251,98.112 313.574,98.112 314.226,98.462 314.554,98.462 314.883,98.112    315.206,98.462 315.855,98.462 315.855,98.112 315.855,97.759 315.855,97.406 315.531,97.057 316.183,97.057 316.509,97.057    316.837,97.406 317.484,97.406 317.815,97.057 318.466,97.057 318.786,96.353 319.444,96.002 319.769,95.299 319.769,94.946    319.117,94.595 318.786,94.242 318.786,93.538 319.117,92.485 319.444,92.485 319.769,92.485 320.094,92.837 320.746,92.837    321.398,92.837 322.049,92.837 322.377,93.189 323.03,93.538 323.352,93.538 324.009,93.538 324.332,93.189 324.656,92.837    324.981,92.485 325.309,92.485 325.963,92.485 326.283,92.837 327.912,93.538 328.24,94.595 327.912,94.946 327.592,94.946    327.266,94.595 326.613,94.242 326.613,93.892 326.283,93.538 325.635,93.538 325.309,93.538 325.635,94.242 325.635,94.595    325.963,94.946 325.635,94.946 325.309,95.299 325.635,95.649 325.963,96.002 326.613,96.353 327.266,96.353 327.592,96.353    328.57,96.706 328.895,97.057 328.57,97.057 328.57,97.759 328.895,98.112 328.895,98.462 329.22,98.814 328.895,99.166    328.57,99.518 328.24,99.87 328.895,99.87 329.22,100.22 329.22,100.923 329.546,101.275 329.872,101.275 330.2,101.275    330.524,101.275 330.846,101.625 331.177,101.979 331.503,101.979 331.826,101.979 332.153,101.625 332.478,101.625    332.809,101.979 333.135,102.33 333.135,102.682 333.135,103.034 332.809,103.034 332.478,103.384 332.153,104.087    332.153,104.44 331.826,104.791 331.826,105.142 331.503,106.199 331.177,106.901 330.846,107.252 330.524,108.658    330.524,109.011 329.872,109.714 329.546,110.067 328.57,111.12 327.912,111.823 327.592,112.527 326.941,113.229    326.283,113.934 325.963,114.284 325.635,114.284 325.635,113.581 325.635,112.878 325.309,112.176 324.656,112.176    324.009,112.527 323.68,113.229 323.352,113.581 322.7,113.934 321.723,114.989 321.723,115.691 322.049,116.395 321.073,116.746    320.746,116.746 320.42,116.746 319.769,116.395 319.117,116.044 318.786,115.691 318.466,115.337 317.815,114.989    317.157,114.989 316.509,114.635 315.855,114.635 315.206,114.635 314.554,114.284 313.901,114.284 313.574,114.284    312.597,114.635 312.275,114.635 310.643,113.934 310.315,113.934 309.99,114.284 309.34,114.635 309.014,114.635    308.358,114.635 308.358,114.989 308.358,115.337 308.358,115.691 308.689,116.044 309.014,116.044 309.34,116.044    309.663,116.395 310.315,116.395 310.643,116.746 310.315,117.096 309.663,117.45 309.34,117.801 309.34,118.151 309.34,118.855    309.014,119.207 308.358,119.207 308.031,118.855 307.706,118.151 307.383,118.151 307.057,118.504 306.732,119.207    306.08,119.559 305.428,119.912 305.1,119.912 305.1,119.559 305.1,119.207 305.428,118.855 305.754,118.504 305.428,118.151    305.1,117.45 305.1,117.096 304.775,117.096 304.448,117.45 304.123,117.45 303.471,118.151 302.494,118.151 302.163,117.801    302.163,117.45 302.163,117.096 302.163,116.746 301.843,116.746 301.517,117.096 301.192,117.45 300.864,117.45 300.537,117.45    300.214,117.45 299.888,117.45 299.56,117.45 298.906,117.096 298.906,116.746 298.58,116.395 298.58,116.044 298.257,115.337    297.934,114.989 297.934,114.635 297.281,114.284 297.281,113.934 296.952,113.934 296.627,113.934 295.974,113.934    295.649,114.284 294.998,114.284 294.67,113.581 294.67,113.229 294.67,112.527 294.67,112.176 294.998,111.823 294.998,111.471    294.67,111.12 294.345,110.769 294.02,110.415 294.02,110.067 294.02,109.714 294.345,109.362 294.67,109.011 295.323,109.011    294.998,108.308 295.323,107.955 295.974,107.955 296.627,108.308 296.952,108.308 297.281,107.955 297.603,107.605    297.934,107.252 298.257,107.252 297.934,106.901 297.934,106.548 297.603,106.199 297.281,105.846 297.281,105.493    296.952,105.142 296.952,104.791 296.627,104.791 296.299,104.791 295.974,104.791 295.649,104.791 295.323,104.44    294.998,104.087 294.67,103.737 294.67,103.384 294.67,103.034 294.998,102.682 294.67,101.979 294.67,101.625 294.345,101.275    294.02,101.275 293.695,101.275 293.369,100.923 293.369,100.573 293.695,99.87 293.695,99.518 293.695,98.814 293.369,98.112    293.695,97.759 294.345,98.112 294.67,98.112 294.998,97.759 294.998,97.406 295.649,97.406 295.649,97.057 295.974,97.057    296.299,97.057 296.627,97.406 296.952,97.759 297.281,98.462 297.934,98.814 298.257,98.462 298.58,98.112 299.232,98.112    299.56,98.112 299.888,98.462 300.214,98.462 300.864,98.112 301.192,97.759 301.517,97.759 301.843,98.112 302.163,97.759    302.821,97.406 303.146,97.406 303.471,97.759 304.123,97.759 304.448,97.406 304.448,97.057 304.123,96.002 304.448,95.649    304.775,95.299 305.1,94.946 305.754,94.595 306.08,94.242 306.08,94.595   " id="upazila_154" area="upazlia" name="itna" bengali="ইটনা" parent="kishoreganj"></polygon><polygon points="289.781,96.703 290.434,96.353 290.762,96.353 291.087,96.353 291.409,96.353 291.74,96.353    292.066,96.703 292.066,97.055 292.066,97.759 292.388,98.112 292.713,98.112 293.369,98.112 293.695,98.815 293.695,99.516    293.695,99.867 293.369,100.573 293.369,100.921 293.695,101.275 294.02,101.275 294.345,101.275 294.67,101.625 294.67,101.978    294.998,102.682 294.67,103.034 294.67,103.383 294.67,103.734 294.998,104.087 295.323,104.439 295.649,104.79 295.974,104.79    296.302,104.79 296.627,104.79 296.952,104.79 296.952,105.142 297.281,105.495 297.281,105.845 297.603,106.197 297.934,106.548    297.934,106.901 298.257,107.25 297.934,107.25 297.603,107.603 297.281,107.957 296.952,108.307 296.627,108.307    295.974,107.957 295.323,107.957 294.998,108.307 295.323,109.01 294.67,109.01 294.345,109.362 294.02,109.712 294.02,110.064    294.02,110.417 294.345,110.769 294.67,111.117 294.998,111.47 294.998,111.823 294.67,112.174 294.67,112.526 294.67,113.229    293.041,113.581 292.713,113.581 292.388,113.932 291.74,114.284 291.409,114.284 291.087,114.284 290.434,114.284    290.106,114.284 289.133,114.284 288.477,114.284 287.826,114.284 287.826,113.932 288.155,113.581 288.477,113.229    288.155,112.878 287.826,112.878 287.501,113.229 286.523,113.229 286.198,112.878 285.872,112.526 285.872,111.823    285.544,111.823 285.544,111.47 285.219,111.117 285.219,110.769 285.544,110.417 285.544,110.064 285.219,109.712    285.219,109.362 284.569,109.01 284.24,109.01 284.24,108.658 283.912,108.307 283.59,107.957 282.94,108.307 282.615,108.658    281.958,109.01 281.633,109.01 281.308,109.01 280.655,109.01 280.332,109.01 280.007,109.362 279.679,109.712 279.351,109.712    279.351,109.362 279.351,109.01 279.351,108.658 279.026,108.658 278.7,109.01 278.7,109.362 278.7,109.712 278.7,110.064    279.026,110.064 278.7,110.769 278.7,111.117 278.375,111.47 278.375,111.823 278.05,112.174 278.05,112.526 277.719,112.526    277.072,112.526 276.746,112.174 276.746,111.823 276.418,111.117 276.093,110.769 276.093,110.417 276.093,110.064    275.768,109.712 275.443,109.712 275.115,109.712 274.786,109.362 274.139,108.658 274.464,108.307 274.464,107.957    274.139,107.25 274.464,106.901 274.786,106.548 275.115,107.25 275.115,106.901 275.443,106.548 275.443,106.197    275.443,105.845 275.443,105.495 275.443,104.79 276.093,104.439 276.093,104.087 275.768,103.734 275.443,103.734    275.443,103.383 276.093,102.682 276.418,102.329 276.746,101.978 276.746,101.625 276.746,101.275 277.072,100.921    276.418,100.573 277.072,100.22 277.719,100.921 278.05,100.921 278.375,100.921 279.026,101.275 279.351,101.275    279.679,100.921 280.007,100.573 280.332,100.573 280.332,100.22 280.655,99.867 280.98,99.867 280.655,99.516 280.655,99.164    281.308,98.815 281.633,98.815 282.286,98.815 282.615,99.164 282.615,99.516 283.59,99.516 284.24,99.516 284.569,99.516    284.894,99.164 285.219,98.815 285.544,98.46 286.198,98.46 286.848,98.815 287.176,98.815 287.501,98.815 287.826,98.815    288.155,99.164 288.477,99.516 288.805,99.516 288.805,99.164 289.133,98.815 289.455,98.46 289.781,98.112 289.781,97.759    289.781,97.406 289.455,97.055   " id="upazila_162" area="upazlia" name="tarail" bengali="তাড়াইল" parent="kishoreganj"></polygon><polygon points="277.072,112.527 277.719,112.527 278.05,112.527 278.05,112.174 278.375,111.824 278.375,111.471    278.7,111.12 278.7,110.77 279.026,110.067 278.7,110.067 278.7,109.712 278.7,109.363 278.7,109.011 279.026,108.658    279.351,108.658 279.351,109.011 279.351,109.363 279.351,109.712 279.679,109.712 280.004,109.363 280.332,109.011    280.655,109.011 281.308,109.011 281.633,109.011 281.958,109.011 282.615,108.658 282.94,108.308 283.59,107.957    283.915,108.308 284.24,108.658 284.24,109.011 284.566,109.011 285.219,109.363 285.219,109.712 285.544,110.067    285.544,110.415 285.219,110.77 285.219,111.12 285.544,111.471 285.544,111.824 285.872,111.824 285.872,112.527    286.198,112.878 286.523,113.23 287.501,113.23 287.826,112.878 288.152,112.878 288.48,113.23 288.152,113.581 287.826,113.934    287.826,114.284 288.48,114.284 289.133,114.284 290.106,114.284 290.434,114.284 291.087,114.284 291.412,114.284    291.74,114.284 292.388,113.934 292.713,113.581 293.041,113.581 294.673,113.23 294.673,113.581 294.998,114.284    295.649,114.284 295.974,113.934 296.627,113.934 296.952,113.934 297.281,113.934 297.281,114.284 297.931,114.637    297.931,114.989 298.257,115.337 298.58,116.044 298.58,116.395 298.906,116.746 298.906,117.096 299.56,117.45 299.888,117.45    300.214,117.45 300.537,117.45 300.865,117.45 301.189,117.45 301.517,117.096 301.843,116.746 302.166,116.746 302.166,117.096    302.166,117.45 302.166,117.799 302.491,118.151 301.843,118.504 301.517,118.504 301.517,118.855 301.189,118.855    301.189,119.207 300.865,119.207 300.865,119.557 300.537,119.912 300.537,120.261 300.865,120.614 300.537,120.965    300.214,120.965 299.888,120.965 299.56,120.965 299.235,120.965 298.906,120.614 298.58,120.965 298.58,121.315 298.58,122.018    298.906,122.372 298.58,122.722 298.257,123.073 297.606,123.073 297.281,123.073 297.281,123.427 297.606,123.78    297.606,124.129 297.281,124.482 296.952,124.129 296.627,124.129 296.302,124.482 296.302,124.833 296.627,125.184    296.627,125.886 296.302,125.886 296.302,126.239 295.974,126.239 295.649,126.59 294.998,126.59 294.673,126.59 293.695,126.939    293.695,127.292 294.02,127.646 294.345,127.646 294.998,127.646 295.321,127.646 295.321,127.996 294.998,128.349 294.998,128.7    294.673,128.7 294.345,128.7 293.695,128.7 293.695,128.349 293.695,127.996 293.369,127.996 293.041,127.646 292.388,127.646    291.74,127.646 291.412,127.996 291.087,127.996 290.759,128.7 290.106,129.053 289.781,129.053 289.133,129.403 288.48,129.756    287.826,130.81 287.501,130.459 287.176,130.459 286.848,130.459 286.198,130.81 285.872,130.81 285.544,131.16 284.566,131.16    284.566,130.81 283.915,130.81 283.59,130.81 283.265,130.81 282.94,130.81 282.615,130.459 282.615,130.106 282.286,129.756    281.958,129.403 281.308,129.403 280.98,129.403 280.655,129.756 280.004,129.756 280.004,130.106 279.679,129.756    280.004,129.756 280.332,129.403 280.655,129.403 280.655,129.053 280.98,128.349 281.308,127.646 281.308,127.292    281.633,126.939 281.633,126.239 281.633,125.536 281.958,125.184 281.633,124.833 281.308,124.482 281.308,123.78    281.633,123.427 281.633,123.073 281.308,122.722 280.98,122.722 280.98,122.018 280.332,122.372 279.679,122.372    279.026,122.722 278.7,122.722 278.05,122.722 277.719,122.722 277.397,122.722 277.072,122.372 276.746,122.018 277.397,121.668    277.719,121.315 277.719,120.965 277.719,120.614 277.397,120.261 277.072,119.912 276.746,119.912 276.093,119.912    276.093,120.261 276.093,120.614 276.093,120.965 276.093,121.315 276.093,121.668 276.093,122.018 275.443,122.018    275.115,121.668 275.115,121.315 275.443,120.965 275.443,120.614 275.443,120.261 275.443,119.912 275.768,119.557    275.768,119.207 275.443,118.855 275.443,118.151 275.115,117.799 274.786,117.45 274.786,117.096 274.786,116.395    274.786,116.044 274.464,115.691 274.786,114.989 274.786,114.637 275.115,114.284 275.443,113.934 275.443,113.581    275.768,113.581 276.093,113.581 276.418,113.581 276.746,113.23 276.746,112.878 277.072,112.878   " id="upazila_155" area="upazlia" name="karimgonj" bengali="করিমগঞ্জ" parent="kishoreganj"></polygon><polygon points="274.139,108.658 274.786,109.362 275.115,109.714 275.443,109.714 275.768,109.714    276.093,110.067 276.093,110.415 276.093,110.77 276.418,111.12 276.746,111.823 276.746,112.176 277.072,112.527    277.072,112.878 276.746,112.878 276.746,113.229 276.418,113.581 276.093,113.581 275.768,113.581 275.443,113.581    275.443,113.934 275.115,114.284 274.786,114.637 274.786,114.989 274.464,115.691 274.786,116.044 274.786,116.395    274.786,117.096 274.786,117.45 275.115,117.801 275.443,118.151 275.443,118.855 275.768,119.207 275.768,119.559    275.443,119.912 275.443,120.262 275.443,120.614 275.443,120.964 275.115,121.315 275.115,121.668 275.443,122.019    276.093,122.019 276.093,121.668 276.093,121.315 276.093,120.964 276.093,120.614 276.093,120.262 276.093,119.912    276.746,119.912 277.072,119.912 277.4,120.262 277.719,120.614 277.719,120.964 277.719,121.315 277.4,121.668 276.746,122.019    277.072,122.372 277.4,122.723 277.719,122.723 278.047,122.723 278.7,122.723 279.026,122.723 279.679,122.372 280.332,122.372    280.98,122.019 280.98,122.723 281.308,122.723 281.633,123.073 281.633,123.425 281.308,123.78 281.308,124.482 281.633,124.833    281.961,125.185 281.633,125.536 281.633,126.239 281.633,126.941 281.308,127.292 281.308,127.647 280.98,128.349    280.655,129.053 280.655,129.403 280.332,129.403 280.007,129.756 279.679,129.756 280.007,130.108 280.007,129.756    280.655,129.756 280.98,129.403 281.308,129.403 281.961,129.403 282.286,129.756 282.612,130.108 282.612,130.459 282.94,130.81    283.265,130.81 283.59,130.81 283.912,130.81 284.569,130.81 284.569,131.16 284.24,131.514 283.912,131.514 283.265,131.866    282.94,132.216 282.286,132.216 281.961,132.567 281.308,132.567 280.98,132.567 280.655,132.567 280.332,132.92 280.007,133.271    279.679,133.623 279.351,133.976 279.026,134.326 278.7,134.326 278.7,134.678 278.375,134.326 278.375,133.976 278.047,133.976    277.4,133.623 277.4,133.271 277.4,132.92 277.072,132.567 276.746,132.567 276.418,132.567 276.093,132.567 275.443,132.92    275.115,132.92 274.786,132.92 274.464,132.92 274.139,132.92 273.486,133.271 273.157,133.271 273.157,132.92 273.157,132.216    273.157,131.866 272.835,131.514 272.507,131.514 272.182,131.16 271.854,131.514 271.531,131.866 271.531,132.567    271.206,132.92 270.878,132.92 270.878,133.271 270.553,133.623 270.553,133.976 270.878,134.326 270.878,134.678    270.553,134.678 269.249,134.678 268.921,134.678 268.271,135.027 267.946,135.027 267.62,134.678 267.292,134.326    266.967,134.326 266.642,133.976 266.642,133.623 266.642,132.92 266.317,132.92 265.989,132.92 265.663,132.567 265.663,132.216    265.989,132.216 266.317,131.866 266.317,131.514 266.317,130.81 266.317,130.108 265.989,129.756 265.338,129.403    265.013,129.053 264.688,129.403 264.357,129.403 263.706,129.756 263.053,130.108 262.406,130.108 262.406,129.756    262.728,129.403 262.728,129.053 262.728,128.7 263.053,128.349 263.381,128.349 263.381,127.647 263.381,127.292    263.053,126.941 262.728,126.59 262.728,125.886 262.728,125.536 263.381,125.185 263.381,124.833 264.031,124.482    264.688,123.425 264.031,123.073 264.031,122.723 264.031,122.372 263.706,122.019 263.381,121.315 263.381,120.964    263.381,120.614 263.381,120.262 263.053,120.262 262.406,120.262 262.406,119.912 262.728,119.912 263.053,119.559    263.381,119.912 263.706,119.912 264.031,119.912 264.357,119.559 264.357,119.207 264.357,118.855 264.031,118.504    263.706,118.151 263.381,117.801 263.381,117.45 263.381,116.746 263.706,116.746 264.031,116.746 264.357,116.395    264.688,116.044 265.013,115.338 265.338,115.338 265.663,114.989 265.989,114.637 265.989,113.934 266.317,113.229    266.642,111.823 266.642,111.471 266.642,111.823 266.967,112.176 267.292,112.527 267.946,112.527 268.271,112.176    267.946,111.823 268.271,111.471 268.596,111.12 268.921,111.471 269.249,111.471 269.574,111.471 270.225,111.823    270.878,111.823 271.206,111.471 271.854,111.471 272.507,111.471 273.157,111.823 273.157,111.471 273.157,111.12    273.157,110.77 273.157,110.415 273.486,110.067 273.814,110.067 273.814,109.714 273.814,109.362 273.814,109.011   " id="upazila_157" area="upazlia" name="kishoreganjsadar" bengali="কিশোরগঞ্জ সদর" parent="kishoreganj"></polygon><polygon points="243.825,115.337 244.476,114.989 244.804,114.284 245.129,113.934 245.454,113.581    245.782,113.229 246.105,112.878 246.758,112.878 246.758,113.229 247.411,112.878 247.737,112.878 248.062,112.878    248.387,113.229 248.715,113.229 249.365,113.229 249.365,113.934 249.694,113.934 250.344,114.284 250.669,114.635    250.997,115.337 251.32,115.691 251.648,115.691 252.301,115.337 252.626,115.691 252.301,116.044 252.301,116.395    252.626,116.044 252.954,116.044 253.605,116.044 253.93,116.395 254.58,116.395 255.231,117.096 255.559,117.45 256.212,117.45    256.537,117.45 256.537,118.151 256.865,118.151 257.841,117.45 258.166,117.096 258.166,116.395 257.513,115.691    257.841,115.337 258.166,115.337 258.491,114.989 258.491,114.635 258.491,114.284 258.166,113.934 258.166,113.581    258.491,113.229 258.166,113.229 257.841,112.878 258.166,112.878 258.491,112.527 258.82,112.527 259.148,111.823    259.47,111.823 259.795,111.823 260.12,111.471 260.448,111.12 260.774,111.12 261.099,111.12 261.427,111.12 261.427,111.471    261.427,112.176 261.099,112.878 261.099,113.229 261.427,113.229 261.752,113.229 261.752,113.581 262.08,113.934    262.406,113.934 262.731,114.284 262.731,114.635 262.731,115.337 262.731,115.691 263.053,116.395 263.381,116.746    263.381,117.45 263.381,117.801 263.709,118.151 264.031,118.503 264.357,118.855 264.357,119.207 264.357,119.559    264.031,119.912 263.709,119.912 263.381,119.912 263.053,119.559 262.731,119.912 262.406,119.912 262.406,120.262    263.053,120.262 263.381,120.262 263.381,120.614 263.381,120.964 263.381,121.315 263.709,122.019 264.031,122.371    264.031,122.723 264.031,123.073 264.685,123.425 264.031,124.482 263.381,124.832 263.381,125.185 262.731,125.536    262.731,125.886 262.731,126.59 263.053,126.941 263.381,127.292 263.381,127.646 263.381,128.349 263.053,128.349    262.731,128.699 262.08,129.053 261.752,129.053 261.099,128.699 260.448,128.699 259.795,128.349 259.148,127.996    258.491,127.996 257.841,127.996 257.513,127.996 257.188,128.349 256.537,128.349 256.212,128.699 255.884,128.349    255.559,127.996 254.906,128.349 254.58,128.349 253.93,128.699 253.605,128.699 253.28,128.349 252.626,127.996 252.954,126.941    252.954,126.237 253.28,125.536 253.28,124.832 252.954,124.482 252.954,124.129 252.626,123.777 251.973,122.723    251.648,122.371 251.32,122.019 250.669,121.668 250.344,121.668 249.694,121.668 249.037,121.315 248.062,121.315    247.411,120.964 246.105,120.614 245.454,119.912 244.804,119.207 244.476,118.503 244.154,117.801 243.825,117.096    243.5,116.395   " id="upazila_153" area="upazlia" name="hossainpur" bengali="হোসেনপুর" parent="kishoreganj"></polygon><polygon points="252.626,127.996 253.28,128.349 253.605,128.7 253.93,128.7 254.58,128.349 254.906,128.349    255.559,127.996 255.887,128.349 256.212,128.7 256.537,128.349 257.188,128.349 257.513,127.996 257.841,127.996    258.491,127.996 259.145,127.996 259.795,128.349 260.448,128.7 261.099,128.7 261.755,129.053 262.08,129.053 262.728,128.7    262.728,129.053 262.728,129.403 262.406,129.756 262.406,130.106 263.053,130.106 263.706,129.756 264.357,129.403    264.688,129.403 265.013,129.053 265.338,129.403 265.989,129.756 266.314,130.106 266.314,130.81 266.314,131.514    266.314,131.866 265.989,132.216 265.663,132.216 265.663,132.566 265.989,132.92 266.314,132.92 266.642,132.92 266.642,133.623    266.642,133.976 266.967,134.326 267.292,134.326 267.62,134.678 267.946,135.026 268.271,135.026 268.921,134.678    269.249,134.678 269.249,135.733 269.249,136.083 269.249,136.787 269.249,137.488 269.249,138.193 268.921,138.896    269.249,139.601 269.249,140.303 269.249,140.654 269.249,141.357 268.921,141.709 268.921,142.411 268.921,142.762    268.921,143.116 268.921,143.467 268.271,143.818 267.946,144.169 267.62,144.524 267.292,144.524 266.967,144.524    266.642,144.169 266.314,143.818 265.989,143.818 265.663,144.169 265.663,144.524 265.663,144.871 265.013,145.226    264.688,145.578 264.688,145.929 264.357,145.578 264.031,145.578 263.706,145.929 263.706,146.279 263.706,146.983    264.031,147.336 264.031,147.688 264.357,148.038 264.357,148.391 264.031,148.742 263.381,150.499 263.053,150.499    262.728,150.852 262.08,150.852 261.755,150.499 261.424,150.499 260.774,150.148 260.448,150.148 259.795,150.148    259.145,149.795 258.82,149.795 258.166,149.795 257.841,149.446 257.188,149.446 256.863,149.092 256.212,149.092    255.559,148.742 255.231,148.391 254.906,148.391 254.58,148.038 254.255,147.688 254.255,146.983 253.93,146.279    253.605,145.226 253.28,144.524 252.951,144.169 252.951,143.467 252.951,142.762 252.951,142.063 252.951,141.357    252.951,141.005 253.28,140.303 252.951,139.95 252.626,139.95 252.301,139.601 251.973,139.248 251.648,138.544 251.323,138.193    251,137.488 250.669,137.139 250.019,136.436 249.694,135.733 249.694,135.381 250.019,135.026 250.344,134.678 250.669,133.623    251,133.271 251.323,132.92 251.648,132.216 251.648,131.866 251.648,131.16 251.973,130.459 252.301,130.106 252.626,129.403    252.301,129.053   " id="upazila_161" area="upazlia" name="pakundia" bengali="পাকুন্দিয়া" parent="kishoreganj"></polygon><polygon points="284.566,131.16 285.544,131.16 285.872,130.81 286.198,130.81 286.848,130.458 287.173,130.458    287.498,130.458 287.829,130.81 287.829,131.866 288.155,131.866 288.155,132.216 288.805,132.216 289.133,132.567    289.133,133.271 289.455,133.623 289.781,133.974 290.434,134.678 290.434,135.027 290.762,135.027 290.434,135.733    290.106,136.785 290.106,137.139 290.434,137.841 290.434,138.544 290.434,138.896 289.781,139.247 289.455,139.247    289.133,139.601 288.805,139.951 288.805,140.303 288.477,140.303 287.498,140.653 287.173,140.653 286.523,140.653    286.523,141.005 286.198,141.005 286.523,141.357 286.848,141.357 287.173,141.357 287.173,141.708 286.848,142.061    286.848,142.412 287.173,143.114 287.173,143.467 287.173,143.818 287.173,144.169 287.498,144.521 287.173,144.521    286.848,144.169 286.523,143.818 286.198,143.818 285.872,143.818 285.544,144.169 285.544,144.521 285.544,144.873    285.544,145.226 285.544,145.576 285.219,145.576 284.894,145.226 284.894,144.873 284.24,145.226 283.912,145.576    283.59,145.576 283.59,145.928 283.912,146.279 283.912,146.981 283.912,147.335 284.24,147.688 284.24,148.038 283.59,148.038    283.265,148.39 283.59,148.742 283.265,149.092 282.94,149.092 282.612,149.092 281.636,148.742 281.308,148.39 280.98,148.39    280.655,148.39 280.004,148.742 279.679,148.742 279.351,149.092 278.7,149.092 278.7,149.445 278.375,149.795 278.05,150.148    277.719,150.499 277.719,150.849 277.719,151.202 277.719,151.555 277.719,152.256 278.05,152.959 278.375,153.312    279.026,153.312 279.679,154.367 279.679,155.07 280.004,155.422 280.004,155.772 280.332,156.125 280.332,156.828    280.004,157.18 279.679,157.18 279.026,157.18 278.375,157.18 278.05,157.883 277.719,157.883 278.05,158.585 278.05,159.29    277.4,160.694 276.746,160.344 276.746,159.64 276.746,159.29 276.746,158.937 276.093,158.937 275.768,158.585 275.44,158.234    275.115,157.883 274.786,157.53 274.139,157.53 272.835,156.828 272.507,156.477 272.507,155.772 272.507,155.422    272.835,154.716 272.835,153.663 272.835,153.312 272.835,152.959 272.507,152.61 272.182,151.905 271.854,151.555    271.854,151.202 271.854,150.148 271.531,149.795 271.206,149.445 270.878,149.092 270.553,149.092 269.903,148.742    269.246,148.742 268.921,148.742 268.596,148.742 268.271,148.742 267.946,148.742 267.292,149.092 266.642,149.445    266.314,149.795 265.663,150.148 265.338,150.148 265.013,150.148 263.381,150.499 264.031,148.742 264.357,148.39    264.357,148.038 264.031,147.688 264.031,147.335 263.709,146.981 263.709,146.279 263.709,145.928 264.031,145.576    264.357,145.576 264.685,145.928 264.685,145.576 265.013,145.226 265.663,144.873 265.663,144.521 265.663,144.169    265.989,143.818 266.314,143.818 266.642,144.169 266.967,144.521 267.292,144.521 267.62,144.521 267.946,144.169    268.271,143.818 268.921,143.467 268.921,143.114 268.921,142.762 268.921,142.412 268.921,141.708 269.246,141.357    269.246,140.653 269.246,140.303 269.246,139.601 268.921,138.896 269.246,138.192 269.246,137.49 269.246,136.785    269.246,136.083 269.246,135.733 269.246,134.678 270.553,134.678 270.878,134.678 270.878,134.324 270.553,133.974    270.553,133.623 270.878,133.271 270.878,132.917 271.206,132.917 271.531,132.567 271.531,131.866 271.854,131.513    272.182,131.16 272.507,131.513 272.835,131.513 273.157,131.866 273.157,132.216 273.157,132.917 273.157,133.271    273.486,133.271 274.139,132.917 274.464,132.917 274.786,132.917 275.115,132.917 275.44,132.917 276.093,132.567    276.418,132.567 276.746,132.567 277.074,132.567 277.4,132.917 277.4,133.271 277.4,133.623 278.05,133.974 278.375,133.974    278.375,134.324 278.7,134.678 278.7,134.324 279.026,134.324 279.351,133.974 279.679,133.623 280.004,133.271 280.332,132.917    280.655,132.567 280.98,132.567 281.308,132.567 281.961,132.567 282.286,132.216 282.94,132.216 283.265,131.866    283.912,131.513 284.24,131.513   " id="upazila_156" area="upazlia" name="katiadi" bengali="কটিয়াদী" parent="kishoreganj"></polygon><polygon points="277.4,160.694 278.05,159.29 278.05,158.585 277.719,157.883 278.05,157.883 278.375,157.18    279.026,157.18 279.679,157.18 280.004,157.18 280.329,156.828 280.329,156.125 280.004,155.772 280.004,155.422 279.679,155.07    279.679,154.367 279.026,153.312 280.004,153.665 280.655,154.367 280.98,154.716 281.308,155.07 281.308,155.422    281.633,156.125 281.961,156.477 282.286,156.477 282.612,156.477 283.265,156.477 283.59,156.477 283.915,156.477    284.24,156.477 284.894,156.125 285.219,156.125 285.544,156.477 285.219,157.18 285.544,157.18 285.872,157.532 286.198,157.532    286.848,157.532 287.501,157.18 287.826,156.828 287.826,156.477 288.155,156.477 288.477,156.477 288.805,157.18 289.133,157.18    289.133,157.532 289.455,157.532 289.455,157.18 289.781,156.828 290.106,157.18 290.106,157.532 290.434,157.532    290.759,157.883 290.759,158.234 290.434,158.234 290.434,158.939 290.434,159.29 290.759,159.64 291.087,159.64 291.412,159.64    291.74,159.64 292.388,159.992 292.716,159.992 292.716,159.64 293.041,159.29 293.366,159.29 293.695,158.939 294.02,158.585    294.345,158.939 294.02,159.29 294.345,159.64 294.67,159.64 294.998,159.992 294.998,160.694 295.321,160.694 295.649,161.046    295.649,161.398 295.649,161.75 295.649,162.453 294.67,162.453 294.345,162.103 294.02,162.103 293.695,162.103 293.041,162.453    292.716,162.806 293.041,163.157 292.716,163.51 292.716,163.858 292.388,164.562 292.066,164.562 291.74,164.915    292.066,165.618 292.388,166.321 292.716,167.024 293.366,167.727 293.366,168.431 293.695,168.781 293.695,169.134    293.366,169.487 293.041,169.487 292.716,169.837 292.388,169.837 292.388,169.134 292.066,169.134 291.74,169.487    291.412,169.837 291.412,170.188 291.087,170.541 291.087,170.891 290.759,170.891 290.434,171.244 290.106,171.244    289.455,170.891 289.133,170.891 289.133,171.244 288.477,171.244 286.523,171.244 286.198,170.891 285.544,170.891    285.219,170.541 284.566,170.188 283.59,170.188 283.265,169.837 282.612,169.837 281.961,169.487 281.633,169.487    280.98,169.134 280.655,168.781 280.655,168.431 280.655,168.08 280.655,167.727 280.98,167.727 281.308,167.377 282.286,167.377    282.612,167.024 283.265,167.024 283.59,166.674 283.915,166.321 283.915,165.618 283.915,164.915 283.915,164.562    283.265,164.213 282.94,164.213 282.286,164.562 281.633,164.562 280.655,164.213 280.329,164.213 280.329,163.858    280.004,163.51 279.679,163.157 279.026,162.806 278.7,162.453 278.05,162.103 277.719,161.398   " id="upazila_158" area="upazlia" name="kuliarchar" bengali="কুলিয়ারচর" parent="kishoreganj"></polygon><polygon points="295.649,162.453 296.627,162.103 296.952,161.749 296.952,161.048 296.952,160.694    296.952,159.64 297.603,159.992 297.603,160.342 297.934,161.048 298.257,161.397 298.906,161.749 298.906,162.453    298.906,162.805 299.232,163.511 299.888,163.858 299.888,164.211 300.537,164.562 301.192,165.617 301.843,165.972    302.494,166.321 303.146,166.672 303.471,166.672 304.123,167.023 304.775,167.023 305.428,167.377 305.754,167.727    306.406,168.079 307.057,168.781 307.383,169.135 308.031,169.837 308.689,170.539 308.689,171.244 308.689,171.945    308.689,172.648 308.358,173.001 308.031,173.705 308.031,174.058 307.383,174.757 306.732,175.111 306.08,175.814    305.428,176.166 304.775,176.517 304.123,176.868 303.471,177.219 302.821,177.572 301.843,177.924 301.192,178.275    300.214,178.979 299.56,179.329 298.58,179.329 297.934,179.329 297.281,179.681 296.627,179.681 295.974,179.329    295.649,179.329 295.323,178.979 295.649,178.979 295.974,178.625 296.299,178.275 296.299,177.924 296.299,177.572    296.627,176.868 296.299,176.517 296.299,176.166 295.974,175.814 295.649,175.814 295.323,175.462 294.998,175.462    294.67,175.111 294.02,174.058 294.02,173.705 293.695,173.354 293.369,173.354 293.041,173.354 292.716,173.354 292.388,173.705    291.74,173.705 291.409,174.058 291.087,174.058 290.762,174.058 290.437,173.705 290.106,173.705 289.455,173.705    288.805,173.354 288.477,173.001 288.155,172.648 287.826,172.299 286.523,171.244 288.477,171.244 289.133,171.244    289.133,170.891 289.455,170.891 290.106,171.244 290.437,171.244 290.762,170.891 291.087,170.891 291.087,170.539    291.409,170.188 291.409,169.837 291.74,169.484 292.066,169.135 292.388,169.135 292.388,169.837 292.716,169.837    293.041,169.484 293.369,169.484 293.695,169.135 293.695,168.781 293.369,168.433 293.369,167.727 292.716,167.023    292.388,166.321 292.066,165.617 291.74,164.915 292.066,164.562 292.388,164.562 292.716,163.858 292.716,163.511    293.041,163.157 292.716,162.805 293.041,162.453 293.695,162.103 294.02,162.103 294.345,162.103 294.67,162.453   " id="upazila_152" area="upazlia" name="bhairab" bengali="ভৈরব" parent="kishoreganj"></polygon><polygon points="283.912,146.279 284.569,146.983 285.219,147.336 285.872,147.336 286.523,147.336    287.176,147.336 287.826,147.688 288.152,147.688 288.48,147.688 288.152,148.038 287.826,148.742 287.826,149.092    288.152,149.092 288.805,148.742 289.455,148.038 289.781,147.336 290.434,146.983 290.762,146.632 291.087,146.279    291.409,145.929 291.74,145.929 291.74,146.279 291.74,146.632 291.409,146.983 291.409,147.336 291.74,147.688 292.066,147.336    292.713,147.688 293.041,148.038 293.695,148.038 294.345,148.038 294.998,147.688 295.323,147.688 295.649,148.038    295.974,148.391 296.627,148.391 296.952,148.391 297.281,148.391 297.606,148.391 297.934,148.391 298.257,148.391    298.58,148.038 298.906,147.336 299.56,147.336 299.888,147.336 300.214,147.336 300.865,147.336 301.189,146.983    301.517,146.983 301.843,146.279 302.166,145.929 301.843,145.576 301.517,145.226 301.189,145.226 301.189,144.873    300.865,144.873 300.865,144.524 301.189,144.169 301.517,144.169 301.517,143.818 302.166,143.467 302.491,143.467    302.821,143.818 303.146,143.818 303.471,143.467 303.146,143.116 303.146,142.762 303.797,142.762 304.448,143.467    304.775,143.467 304.775,143.116 304.775,142.762 305.428,142.762 305.754,142.762 306.406,143.116 306.406,143.467    306.406,143.818 306.732,144.524 307.057,144.524 307.057,144.873 307.057,145.226 307.057,145.576 307.057,145.929    307.383,146.279 307.383,146.632 307.706,146.983 308.031,147.688 308.361,148.038 308.689,148.391 308.689,149.092    308.689,149.797 308.361,150.499 308.031,150.849 307.706,151.905 307.383,152.61 307.057,153.312 306.732,154.016    306.406,155.07 306.077,155.422 305.754,156.125 305.428,156.477 305.428,156.828 305.1,157.532 304.775,157.883 304.448,158.234    304.123,158.585 303.471,158.939 302.821,159.64 302.491,159.64 302.166,159.993 301.517,160.344 300.865,160.694    300.537,160.694 299.888,161.046 299.888,161.398 298.906,161.75 298.257,161.398 297.934,161.046 297.606,160.344    297.606,159.993 296.952,159.64 296.952,160.694 296.952,161.046 296.952,161.75 296.627,162.103 295.649,162.454 295.649,161.75    295.649,161.398 295.649,161.046 295.323,160.694 294.998,160.694 294.998,159.993 294.673,159.64 294.345,159.64 294.02,159.29    294.345,158.939 294.02,158.585 293.695,158.939 293.369,159.29 293.041,159.29 292.713,159.64 292.713,159.993 292.388,159.993    291.74,159.64 291.409,159.64 291.087,159.64 290.762,159.64 290.434,159.29 290.434,158.939 290.434,158.234 290.762,158.234    290.762,157.883 290.434,157.532 290.106,157.532 290.106,157.18 289.781,156.828 289.455,157.18 289.455,157.532    289.133,157.532 289.133,157.18 288.805,157.18 288.48,156.477 288.152,156.477 287.826,156.477 287.826,156.828 287.501,157.18    286.845,157.532 286.198,157.532 285.872,157.532 285.544,157.18 285.219,157.18 285.544,156.477 285.219,156.125    284.894,156.125 284.24,156.477 283.912,156.477 283.59,156.477 283.265,156.477 282.615,156.477 282.286,156.477    281.958,156.477 281.633,156.125 281.308,155.422 281.308,155.07 280.98,154.716 280.655,154.367 280.007,153.665    279.026,153.312 278.375,153.312 278.05,152.959 277.719,152.258 277.719,151.555 277.719,151.202 277.719,150.849    277.719,150.499 278.05,150.148 278.375,149.797 278.7,149.445 278.7,149.092 279.351,149.092 279.679,148.742 280.007,148.742    280.655,148.391 280.98,148.391 281.308,148.391 281.633,148.742 282.615,149.092 282.94,149.092 283.265,149.092 283.59,148.742    283.265,148.391 283.59,148.038 284.24,148.038 284.24,147.688 283.912,147.336 283.912,146.983   " id="upazila_151" area="upazlia" name="bajitpur" bengali="বাজিতপুর" parent="kishoreganj"></polygon><polygon points="287.826,130.81 288.48,129.756 289.133,129.403 289.781,129.053 290.106,129.053 290.759,128.699    291.087,127.996 291.412,127.996 291.74,127.647 292.388,127.647 293.041,127.647 293.369,127.996 293.695,127.996    293.695,128.349 293.695,128.699 294.345,128.699 294.673,128.699 294.998,128.699 294.998,128.349 295.321,127.996    295.321,127.647 294.998,127.647 294.345,127.647 294.02,127.647 293.695,127.292 293.695,126.941 294.673,126.59 294.998,126.59    295.649,126.59 295.974,126.239 296.302,126.239 296.302,125.886 296.627,125.886 296.627,125.185 296.302,124.832    296.302,124.482 296.627,124.129 296.952,124.129 297.281,124.482 297.606,124.129 297.606,123.78 297.281,123.425    297.281,123.073 297.606,123.073 298.257,123.073 298.58,122.723 298.906,122.372 298.58,122.019 298.58,121.315 298.58,120.964    298.906,120.614 299.235,120.964 299.56,120.964 299.888,120.964 300.214,120.964 300.537,120.964 300.865,120.614    300.537,120.262 301.189,120.614 301.189,120.964 301.517,121.315 301.517,122.019 301.517,122.723 301.843,123.425    302.166,123.78 302.821,124.482 303.146,124.832 303.471,124.832 303.797,124.832 305.1,126.941 305.428,127.292 305.1,127.647    305.1,128.349 305.428,128.699 305.754,129.053 306.077,128.699 306.404,129.053 306.732,129.403 307.057,130.106 307.706,131.16    307.706,131.866 307.057,131.866 306.732,132.216 306.077,132.216 306.077,132.567 305.428,132.92 305.428,133.271    305.428,133.974 304.775,134.326 304.448,134.326 303.797,134.326 303.471,133.974 303.146,133.623 302.821,132.92    302.491,132.92 302.166,132.92 301.843,132.92 301.517,133.271 301.189,133.974 300.865,134.326 300.865,134.678 300.865,135.027    300.865,135.381 300.865,135.733 301.189,136.083 301.517,136.436 301.843,136.436 302.166,136.436 302.491,136.787    302.491,137.139 302.491,137.49 302.821,137.841 303.471,138.193 303.471,138.544 303.471,138.896 303.471,139.248    303.146,139.601 302.821,139.951 302.491,139.951 302.491,140.654 303.146,141.005 303.471,141.357 303.797,141.709    303.797,142.063 303.471,142.063 303.146,142.762 303.146,143.116 303.471,143.467 303.146,143.818 302.821,143.818    302.491,143.467 302.166,143.467 301.517,143.818 301.517,144.169 301.189,144.169 300.865,144.524 300.865,144.873    301.189,144.873 301.189,145.226 301.517,145.226 301.843,145.578 302.166,145.929 301.843,146.279 301.517,146.983    301.189,146.983 300.865,147.336 300.214,147.336 299.888,147.336 299.56,147.336 298.906,147.336 298.58,148.038    298.257,148.391 297.931,148.391 297.606,148.391 297.281,148.391 296.952,148.391 296.627,148.391 295.974,148.391    295.649,148.038 295.321,147.688 294.998,147.688 294.345,148.038 293.695,148.038 293.041,148.038 292.713,147.688    292.066,147.336 291.74,147.688 291.412,147.336 291.412,146.983 291.74,146.632 291.74,146.279 291.74,145.929 291.412,145.929    291.087,146.279 290.759,146.632 290.434,146.983 289.781,147.336 289.455,148.038 288.805,148.742 288.152,149.092    287.826,149.092 287.826,148.742 288.152,148.038 288.48,147.688 288.152,147.688 287.826,147.688 287.176,147.336    286.523,147.336 285.872,147.336 285.219,147.336 284.566,146.983 283.915,146.279 283.59,145.929 283.59,145.578    283.915,145.578 284.24,145.226 284.894,144.873 284.894,145.226 285.219,145.578 285.544,145.578 285.544,145.226    285.544,144.873 285.544,144.524 285.544,144.169 285.872,143.818 286.198,143.818 286.523,143.818 286.845,144.169    287.176,144.524 287.501,144.524 287.176,144.169 287.176,143.818 287.176,143.467 287.176,143.116 286.845,142.412    286.845,142.063 287.176,141.709 287.176,141.357 286.845,141.357 286.523,141.357 286.198,141.005 286.523,141.005    286.523,140.654 287.176,140.654 287.501,140.654 288.48,140.303 288.805,140.303 288.805,139.951 289.133,139.601    289.455,139.248 289.781,139.248 290.434,138.896 290.434,138.544 290.434,137.841 290.106,137.139 290.106,136.787    290.434,135.733 290.759,135.027 290.434,135.027 290.434,134.678 289.781,133.974 289.455,133.623 289.133,133.271    289.133,132.567 288.805,132.216 288.152,132.216 288.152,131.866 287.826,131.866   " id="upazila_160" area="upazlia" name="nikli" bengali="নিকলী" parent="kishoreganj"></polygon><polygon points="330.849,122.722 331.177,123.073 331.177,124.129 330.849,124.833 331.503,125.184    332.156,125.536 332.478,125.536 332.809,125.184 333.135,125.184 333.455,125.184 333.781,125.886 334.11,126.237    334.435,126.59 334.435,126.939 334.435,127.294 334.76,127.646 335.412,128.349 335.74,129.053 336.067,129.401 335.74,129.401    334.76,129.756 334.11,130.106 332.809,131.514 332.478,131.16 331.826,131.16 330.849,131.16 331.177,131.514 330.524,132.216    331.503,133.271 332.156,134.324 332.809,135.026 333.135,136.083 333.455,136.785 333.781,137.488 333.781,138.193    333.455,138.542 333.455,138.896 333.135,139.247 332.156,139.247 331.503,138.896 330.524,138.896 329.872,138.542    328.895,138.193 328.24,138.193 326.941,138.193 326.286,138.193 325.635,138.193 324.981,138.193 324.656,138.542    324.656,138.896 324.006,139.95 323.355,141.357 323.355,142.063 323.03,142.762 323.03,143.466 323.03,143.818 323.355,144.169    323.68,143.818 324.981,143.466 325.635,143.116 326.286,142.762 326.941,142.411 327.915,142.411 328.24,142.762 328.24,143.466    327.915,143.818 327.592,144.524 327.266,145.226 326.613,145.578 326.286,145.929 325.635,146.279 325.309,146.279    325.309,146.631 324.656,147.688 324.006,147.688 323.355,148.038 323.03,148.391 322.7,148.742 321.723,149.091 321.723,149.446    321.398,149.795 320.746,150.148 320.42,150.148 320.094,150.148 319.769,150.499 319.115,150.499 318.786,150.499    318.14,150.499 317.16,150.852 315.855,150.852 315.206,150.852 314.554,150.499 314.226,150.148 313.574,150.148    313.246,150.148 312.6,150.499 312.272,150.499 312.272,150.852 312.6,150.852 312.923,151.202 312.6,151.553 312.6,152.256    312.6,152.61 312.272,152.958 311.947,152.958 311.947,153.314 312.272,153.665 312.6,153.665 312.6,154.013 312.923,154.013    313.246,154.367 313.574,154.367 313.904,154.367 313.904,154.716 314.226,155.07 313.904,155.07 313.904,155.42 313.574,155.42    313.246,155.42 312.6,155.42 312.272,155.07 312.272,154.716 311.947,154.716 311.294,154.716 310.969,154.716 310.315,154.716    309.663,154.716 307.706,154.716 306.406,155.07 306.732,154.013 307.057,153.314 307.383,152.61 307.706,151.907    308.034,150.852 308.361,150.499 308.686,149.795 308.686,149.091 308.686,148.391 308.361,148.038 308.034,147.688    307.706,146.983 307.383,146.631 307.383,146.279 307.057,145.929 307.057,145.578 307.057,145.226 307.057,144.871    307.057,144.524 306.732,144.524 306.406,143.818 306.406,143.466 306.406,143.116 305.754,142.762 305.428,142.762    304.775,142.762 304.775,143.116 304.775,143.466 304.448,143.466 303.797,142.762 303.146,142.762 303.471,142.063    303.797,142.063 303.797,141.708 303.471,141.357 303.146,141.005 302.491,140.654 302.491,139.95 302.821,139.95    303.146,139.601 303.471,139.247 303.471,138.896 303.471,138.542 303.471,138.193 302.821,137.842 302.491,137.488    302.491,137.139 302.491,136.785 302.166,136.437 301.843,136.437 301.514,136.437 301.189,136.083 300.865,135.733    300.865,135.381 300.865,135.026 300.865,134.678 300.865,134.324 301.189,133.976 301.514,133.271 301.843,132.92    302.166,132.92 302.491,132.92 302.821,132.92 303.146,133.621 303.471,133.976 303.797,134.324 304.448,134.324 304.775,134.324    305.428,133.976 305.428,133.271 305.428,132.92 306.077,132.567 306.077,132.216 306.732,132.216 307.057,131.863    307.706,131.863 307.706,131.16 308.034,130.81 308.361,130.459 308.686,130.81 309.34,131.16 309.663,131.514 309.99,131.863    310.315,132.567 310.969,132.92 311.294,132.92 311.947,132.92 312.272,132.567 312.6,131.863 312.6,131.16 312.6,130.81    312.923,130.81 313.246,130.459 313.574,130.459 313.904,130.459 313.904,130.81 313.904,131.16 313.904,131.514 314.226,132.216    314.554,132.567 314.88,132.92 315.206,132.92 315.855,132.92 316.832,132.92 317.16,132.92 317.815,132.216 317.815,131.863    317.815,131.514 317.487,131.16 317.487,130.459 317.487,130.106 317.487,129.756 318.14,129.756 318.469,129.756    318.786,130.106 318.786,129.756 319.115,129.401 319.441,129.401 319.769,129.401 320.42,129.401 320.746,129.401    321.073,129.756 321.073,130.106 321.073,130.81 321.073,131.16 321.398,131.16 321.723,131.16 321.723,130.81 321.723,130.459    321.723,129.756 322.377,129.401 322.377,128.699 323.355,127.996 323.68,127.646 324.329,127.294 324.656,126.939    325.309,126.59 325.635,126.237 325.963,125.886 326.286,125.536 326.286,125.184 326.286,124.833 326.613,124.479    326.941,124.129 327.266,123.777 327.592,123.427 327.592,123.073 327.592,122.722 328.24,122.372 328.57,122.372    328.895,122.372 329.22,122.372 329.22,122.722 329.872,122.722   " id="upazila_150" area="upazlia" name="austagram" bengali="অষ্টগ্রাম" parent="kishoreganj"></polygon><polygon points="322.049,116.395 322.7,116.044 323.03,115.691 323.68,115.337 324.332,114.989 324.656,114.989    325.309,115.337 325.635,115.337 326.283,115.691 326.613,115.691 327.266,115.691 327.912,116.044 327.592,116.395    326.941,116.395 326.283,116.746 325.963,117.45 325.963,117.799 326.283,118.504 326.283,118.855 326.613,118.855    326.941,118.504 327.266,118.151 327.592,118.151 327.912,117.799 328.24,117.45 328.24,117.096 328.57,116.395 328.895,115.691    329.22,115.691 329.546,115.691 329.872,116.395 330.2,116.395 330.524,116.746 331.177,116.746 331.503,116.395 331.503,116.044    330.846,116.044 330.524,115.691 330.2,114.989 330.2,114.635 330.524,114.635 330.846,114.635 331.177,114.635 331.503,114.635    331.826,114.635 332.153,114.989 332.478,115.337 332.809,115.691 332.809,116.395 333.135,116.746 333.455,117.45    333.455,117.799 333.781,118.151 334.107,119.207 334.107,120.261 334.107,120.614 334.107,120.965 334.107,121.668    333.781,122.018 333.781,122.722 333.455,122.722 333.135,122.722 332.809,122.722 332.478,122.722 332.153,122.722    331.826,122.722 331.503,122.372 330.846,122.722 329.872,122.722 329.22,122.722 329.22,122.372 328.895,122.372 328.57,122.372    328.24,122.372 327.592,122.722 327.592,123.073 327.592,123.425 327.266,123.78 326.941,124.129 326.613,124.482    326.283,124.833 326.283,125.184 326.283,125.536 325.963,125.886 325.635,126.239 325.309,126.59 324.656,126.939    324.332,127.292 323.68,127.646 323.352,127.996 322.377,128.7 322.377,129.401 321.723,129.756 321.723,130.459 321.723,130.81    321.723,131.16 321.398,131.16 321.073,131.16 321.073,130.81 321.073,130.106 321.073,129.756 320.746,129.401 320.42,129.401    319.769,129.401 319.444,129.401 319.117,129.401 318.786,129.756 318.786,130.106 318.466,129.756 318.14,129.756    317.484,129.756 317.484,130.106 317.484,130.459 317.484,131.16 317.815,131.514 317.815,131.863 317.815,132.216    317.157,132.92 316.837,132.92 315.855,132.92 315.206,132.92 314.883,132.92 314.554,132.567 314.226,132.216 313.901,131.514    313.901,131.16 313.901,130.81 313.901,130.459 313.574,130.459 313.251,130.459 312.92,130.81 312.597,130.81 312.597,131.16    312.597,131.863 312.275,132.567 311.947,132.92 311.294,132.92 310.969,132.92 310.315,132.567 309.99,131.863 309.663,131.514    309.34,131.16 308.689,130.81 308.358,130.459 308.031,130.81 307.706,131.16 307.057,130.106 306.732,129.401 306.406,129.053    306.08,128.7 305.754,129.053 305.428,128.7 305.1,128.349 305.1,127.646 305.428,127.292 305.1,126.939 303.797,124.833    303.471,124.833 303.146,124.833 302.821,124.482 302.163,123.78 301.843,123.425 301.517,122.722 301.517,122.018    301.517,121.315 301.192,120.965 301.192,120.614 300.537,120.261 300.537,119.912 300.864,119.557 300.864,119.207    301.192,119.207 301.192,118.855 301.517,118.855 301.517,118.504 301.843,118.504 302.494,118.151 303.471,118.151    304.123,117.45 304.448,117.45 304.775,117.096 305.1,117.096 305.1,117.45 305.428,118.151 305.754,118.504 305.428,118.855    305.1,119.207 305.1,119.557 305.1,119.912 305.428,119.912 306.08,119.557 306.732,119.207 307.057,118.504 307.383,118.151    307.706,118.151 308.031,118.855 308.358,119.207 309.014,119.207 309.34,118.855 309.34,118.151 309.34,117.799 309.663,117.45    310.315,117.096 310.643,116.746 310.315,116.395 309.663,116.395 309.34,116.044 309.014,116.044 308.689,116.044    308.358,115.691 308.358,115.337 308.358,114.989 308.358,114.635 309.014,114.635 309.34,114.635 309.99,114.284    310.315,113.934 310.643,113.934 312.275,114.635 312.597,114.635 313.574,114.284 313.901,114.284 314.554,114.284    315.206,114.635 315.855,114.635 316.509,114.635 317.157,114.989 317.815,114.989 318.466,115.337 318.786,115.691    319.117,116.044 319.769,116.395 320.42,116.746 320.746,116.746 321.073,116.746   " id="upazila_159" area="upazlia" name="mithamoin" bengali="মিঠামইন" parent="kishoreganj"></polygon></svg>