<svg enable-background="new -106.403 -201.859 629.266 880.536" height="880.536px" id="district_41" viewBox="-106.403 -201.859 629.266 880.536" width="629.266px" x="0px" xml:space="preserve" xmlns="http://www.w3.org/2000/svg" y="0px"><polygon points="134.638,-24.598 134.963,-24.598 135.616,-24.598 136.267,-24.248 136.919,-24.248    137.245,-23.894 137.898,-23.545 138.223,-23.192 138.876,-22.84 139.527,-22.488 140.18,-22.137 140.505,-22.137    141.156,-22.137 141.482,-22.137 142.134,-22.137 141.809,-21.787 142.134,-21.435 142.134,-21.083 142.134,-20.729    142.134,-20.38 142.134,-19.675 141.809,-19.327 141.809,-18.972 141.482,-18.621 141.156,-18.269 141.156,-17.918    141.156,-17.567 141.156,-16.863 141.156,-16.512 141.156,-15.458 141.482,-15.108 141.156,-14.75 141.156,-14.403    141.156,-14.048 141.156,-13.7 141.482,-13.345 141.482,-12.996 141.482,-12.643 141.809,-12.292 142.134,-11.941 142.46,-11.588    143.113,-10.534 143.113,-10.181 142.785,-9.479 142.785,-9.126 142.785,-8.777 142.785,-8.424 143.113,-8.073 143.438,-7.722    144.089,-7.722 144.414,-7.37 144.414,-7.018 144.414,-6.666 144.089,-6.316 143.764,-6.316 143.438,-5.963 143.438,-5.613    143.113,-5.26 142.785,-4.908 141.482,-4.559 141.156,-4.559 140.505,-4.559 140.18,-4.908 139.527,-5.26 139.201,-5.26    138.876,-5.26 138.223,-5.26 137.898,-5.26 137.245,-4.908 136.919,-4.205 136.594,-3.503 136.594,-2.799 136.594,-2.098    136.919,-1.039 137.245,-0.691 137.898,0.014 139.201,1.066 139.527,1.769 139.852,2.126 139.852,2.475 139.527,2.826    138.876,2.826 137.898,3.179 137.245,3.529 136.594,3.883 136.267,3.883 135.942,4.231 135.616,4.586 135.29,5.641 134.963,7.046    134.638,7.046 134.638,6.693 134.313,6.344 133.987,6.344 133.987,5.99 134.313,5.641 134.313,5.289 134.313,4.937 133.987,4.586    133.334,4.937 133.008,4.937 132.683,4.937 132.355,5.289 132.031,5.99 132.031,6.693 132.031,7.398 132.355,8.102 132.683,8.806    133.008,9.155 133.334,9.508 133.334,9.858 133.659,9.858 133.659,10.21 133.987,10.562 133.008,10.562 132.683,10.562    132.355,11.266 132.355,11.616 132.355,11.969 132.031,12.319 131.704,12.672 131.379,13.023 130.401,13.023 129.748,13.373    129.097,13.373 128.447,13.373 128.119,13.373 127.466,13.727 127.141,14.076 126.49,14.076 126.162,14.781 125.837,14.781    125.186,15.133 124.533,15.133 124.207,15.484 123.882,15.834 123.557,16.188 122.904,16.892 122.578,17.241 121.926,17.241    121.6,17.241 120.949,17.241 120.622,17.593 120.296,17.593 119.971,17.946 119.644,17.946 119.319,17.946 119.319,18.296    118.34,18.296 118.34,17.946 118.34,17.593 118.993,16.892 119.319,16.539 119.971,15.484 120.296,15.133 120.622,14.781    120.949,14.429 121.275,14.076 121.275,13.727 121.6,13.023 121.6,12.672 121.6,12.319 121.275,11.969 121.275,11.616    121.6,11.266 121.926,10.562 122.253,10.21 122.578,9.508 122.904,9.508 122.904,9.155 123.23,8.806 123.882,8.102 123.882,7.398    124.207,6.693 124.207,6.344 124.533,5.641 124.859,5.289 125.511,4.937 125.837,4.586 126.816,4.586 127.466,4.586    128.447,4.586 129.422,4.937 130.073,4.937 130.401,4.937 130.727,4.586 131.052,4.231 131.379,3.883 131.379,3.529    132.031,3.179 132.031,2.826 132.031,2.475 131.704,2.126 131.704,1.421 131.379,0.718 131.379,0.362 131.379,0.014    131.704,-0.691 132.031,-1.394 132.031,-1.743 132.355,-2.446 132.355,-2.799 132.355,-3.151 132.031,-3.503 131.704,-3.855    131.379,-4.205 131.052,-4.559 130.727,-4.908 130.727,-5.613 130.727,-6.316 130.727,-7.018 130.401,-7.37 130.073,-8.073    130.073,-8.424 129.748,-9.126 129.748,-9.479 129.748,-9.831 129.422,-10.181 129.097,-10.883 129.097,-11.238 129.097,-11.588    128.77,-11.941 128.447,-12.292 128.447,-12.643 128.119,-12.996 128.119,-13.345 127.793,-13.7 128.119,-13.7 128.447,-14.048    128.77,-14.048 129.422,-14.403 129.748,-14.75 130.073,-15.458 130.401,-15.458 130.727,-15.808 130.727,-16.161    131.052,-16.863 131.379,-17.214 131.704,-17.214 132.355,-17.214 133.008,-17.214 133.334,-17.214 135.29,-17.567    135.616,-17.918 135.942,-18.269 135.942,-18.972 135.942,-19.327 136.267,-20.028 136.267,-20.729 136.267,-21.083    136.267,-21.435 136.267,-21.787 135.942,-21.787 135.616,-21.787 135.616,-22.137 135.29,-22.137 134.963,-22.137    134.963,-22.488 135.29,-22.84 135.29,-23.192 134.963,-23.545 134.963,-23.894 134.638,-23.894 134.313,-24.248 134.313,-24.598      " id="upazila_144" area="upazlia" name="dewangonj" bengali="দেওয়ানগঞ্জ" parent="jamalpur"></polygon><polygon points="142.785,-4.908 143.764,-4.205 144.414,-4.205 145.068,-4.205 145.393,-3.853 145.718,-3.853    146.371,-3.503 146.697,-3.503 147.349,-3.853 148,-3.503 148.328,-3.503 148.979,-3.503 149.956,-3.503 150.282,-3.853    150.936,-4.558 151.913,-5.963 152.565,-6.315 153.217,-6.666 153.54,-6.666 154.194,-6.315 154.521,-6.315 154.846,-6.315    155.171,-5.963 155.824,-5.615 156.15,-5.615 156.803,-5.615 157.128,-5.615 157.453,-5.615 158.105,-5.963 158.105,-5.615    158.105,-5.26 158.432,-4.908 157.779,-4.205 157.128,-3.853 156.475,-2.799 156.15,-2.096 155.824,-1.393 155.824,-1.039    155.499,-0.336 155.171,0.014 154.521,0.364 154.194,0.364 153.54,0.364 153.217,0.364 152.565,1.069 151.913,3.883    151.913,4.938 151.586,5.641 150.936,7.046 150.608,8.452 150.282,9.156 149.956,9.858 149.956,10.562 149.956,11.265    149.956,11.617 150.608,11.969 151.261,11.969 151.586,11.617 151.913,11.969 152.24,12.319 152.889,12.673 153.217,13.023    152.889,13.374 152.565,13.726 152.24,14.079 151.913,15.133 151.586,16.186 151.586,16.54 151.913,16.892 151.913,17.241    151.913,17.946 151.586,18.297 151.586,18.649 151.261,19 150.936,19.353 151.261,19.353 151.261,20.053 151.261,20.758    151.261,21.461 150.936,21.815 150.936,22.163 150.936,22.518 150.282,22.868 149.956,22.518 149.632,22.163 149.304,22.163    148.979,22.163 148.328,22.518 148.653,22.868 148.653,23.221 148.328,23.572 147.675,23.572 147.349,22.868 147.349,22.518    147.675,22.163 148,22.163 148,21.815 148,21.461 147.675,21.11 147.349,21.11 147.024,21.11 146.697,21.11 146.371,20.758    146.045,20.053 146.045,19.704 146.371,19.704 146.371,19.353 146.371,19 146.045,18.649 146.045,18.297 145.718,18.649    145.393,18.649 145.068,18.297 144.742,17.946 144.742,17.593 144.414,16.892 144.414,16.54 144.089,16.186 143.764,15.836    143.439,15.836 143.113,16.186 143.113,16.54 143.439,17.241 142.785,17.241 142.46,17.241 142.134,17.593 141.809,17.946    141.482,17.946 140.83,17.593 140.18,17.593 139.853,17.241 139.527,17.241 139.201,17.593 138.876,17.946 139.201,18.297    139.527,19 139.527,19.704 139.201,20.053 138.876,19.704 138.549,19.704 138.223,20.053 138.223,20.407 137.898,20.407    137.573,20.407 137.245,20.407 137.245,20.758 137.573,21.11 137.573,21.461 136.919,21.815 136.269,21.815 135.942,21.461    135.616,21.815 135.29,21.815 134.963,22.163 134.963,22.868 134.638,23.221 134.313,23.221 134.313,22.868 133.988,22.868    134.638,21.815 134.638,21.461 134.638,21.11 133.988,20.758 133.008,20.758 132.684,20.758 132.355,20.407 132.031,20.407    132.031,19.704 132.031,19.353 131.704,19 131.052,18.649 131.052,18.297 130.727,17.946 130.401,17.946 130.401,17.593    130.073,17.241 129.748,17.241 129.097,17.241 128.77,17.241 128.77,16.54 128.447,16.54 128.119,16.54 127.793,16.54    127.466,16.892 127.141,16.892 126.816,16.54 127.141,15.836 127.466,15.484 127.141,15.484 126.816,15.133 126.49,15.133    126.162,15.484 126.162,15.836 126.162,16.186 125.837,16.54 125.512,16.54 124.859,16.892 124.533,16.892 124.207,16.892    123.882,16.892 123.557,16.186 123.882,15.836 124.207,15.484 124.533,15.133 125.186,15.133 125.837,14.781 126.162,14.781    126.49,14.079 127.141,14.079 127.466,13.726 128.119,13.374 128.447,13.374 129.097,13.374 129.748,13.374 130.401,13.023    131.379,13.023 131.704,12.673 132.031,12.319 132.355,11.969 132.355,11.617 132.355,11.265 132.684,10.562 133.008,10.562    133.988,10.562 133.659,10.21 133.659,9.858 133.334,9.858 133.334,9.508 133.008,9.156 132.684,8.806 132.355,8.102    132.031,7.398 132.031,6.696 132.031,5.99 132.355,5.289 132.684,4.938 133.008,4.938 133.334,4.938 133.988,4.584 134.313,4.938    134.313,5.289 134.313,5.641 133.988,5.99 133.988,6.344 134.313,6.344 134.638,6.696 134.638,7.046 134.963,7.046 135.29,5.641    135.616,4.584 135.942,4.232 136.269,3.883 136.594,3.883 137.245,3.529 137.898,3.178 138.876,2.828 139.527,2.828    139.853,2.475 139.853,2.123 139.527,1.771 139.201,1.069 137.898,0.014 137.245,-0.691 136.919,-1.039 136.594,-2.096    136.594,-2.799 136.594,-3.503 136.919,-4.205 137.245,-4.908 137.898,-5.26 138.223,-5.26 138.876,-5.26 139.201,-5.26    139.527,-5.26 140.18,-4.908 140.505,-4.558 141.156,-4.558 141.482,-4.558   " id="upazila_143" area="upazlia" name="bokshiganj" bengali="বকশীগঞ্জ" parent="jamalpur"></polygon><polygon points="118.342,18.297 119.319,18.297 119.319,17.946 119.646,17.946 119.969,17.946 120.296,17.595    120.624,17.595 120.948,17.241 121.6,17.241 121.928,17.241 122.578,17.241 122.905,16.892 123.557,16.186 123.882,16.892    124.208,16.892 124.532,16.892 124.858,16.892 125.511,16.54 125.837,16.54 126.162,16.186 126.162,15.836 126.162,15.484    126.49,15.133 126.815,15.133 127.14,15.484 127.468,15.484 127.14,15.836 126.815,16.54 127.14,16.892 127.468,16.892    127.793,16.54 128.119,16.54 128.445,16.54 128.772,16.54 128.772,17.241 129.097,17.241 129.75,17.241 130.073,17.241    130.401,17.595 130.401,17.946 130.726,17.946 131.054,18.297 131.054,18.649 131.702,19.003 132.031,19.353 132.031,19.703    132.031,20.407 132.355,20.407 132.684,20.758 133.006,20.758 133.987,20.758 134.638,21.11 134.638,21.461 134.638,21.815    133.987,22.87 134.313,22.87 134.313,23.221 134.638,23.221 134.965,22.87 134.965,22.163 135.288,21.815 135.616,21.815    135.942,21.461 136.267,21.815 136.919,21.815 137.571,21.461 137.571,21.11 137.247,20.758 137.247,20.407 137.571,20.407    137.898,20.407 138.223,20.407 138.223,20.053 138.549,19.703 138.876,19.703 139.199,20.053 139.528,19.703 139.528,19.003    139.199,18.297 138.876,17.946 139.199,17.595 139.528,17.241 139.852,17.241 140.18,17.595 140.831,17.595 141.481,17.946    141.81,17.946 142.134,17.595 142.46,17.241 142.784,17.241 143.439,17.241 143.113,16.54 143.113,16.186 143.439,15.836    143.763,15.836 144.091,16.186 144.414,16.54 144.414,16.892 144.742,17.595 144.742,17.946 145.067,18.297 145.395,18.649    145.718,18.649 146.043,18.297 146.043,18.649 146.371,19.003 146.371,19.353 146.371,19.703 146.043,19.703 146.043,20.053    146.371,20.758 146.697,21.11 147.024,21.11 147.347,21.11 147.677,21.11 148,21.461 148,21.815 148,22.163 147.677,22.163    147.347,22.518 147.347,22.87 147.677,23.572 148.327,23.572 148.653,23.221 148.653,22.87 148.327,22.518 148.979,22.163    149.306,22.163 149.631,22.163 149.954,22.518 150.282,22.87 150.936,22.518 150.936,22.163 150.936,21.815 151.26,21.461    151.911,21.815 151.911,22.518 152.24,23.221 152.565,24.275 153.217,24.625 153.539,25.33 153.87,25.682 153.87,26.384    154.193,26.738 154.193,27.439 153.87,27.791 153.87,28.495 154.521,28.844 154.844,29.197 153.87,30.251 153.539,30.604    152.889,30.955 152.565,31.658 152.24,32.361 152.565,32.715 152.24,33.065 151.588,33.065 150.607,33.065 149.954,33.065    149.306,33.416 149.306,34.118 148.979,34.47 148.979,35.173 149.631,35.525 150.282,35.525 150.607,35.525 150.936,35.879    150.607,36.228 150.282,36.581 150.282,37.285 150.607,37.635 150.607,38.339 150.607,39.042 150.607,39.392 149.954,40.095    149.954,40.8 149.954,41.504 149.954,41.853 149.631,42.208 148.979,41.853 148.327,41.853 148,41.853 147.677,41.853    147.347,41.504 147.024,40.8 146.697,40.449 146.043,40.449 145.395,40.095 144.742,39.747 144.091,39.042 143.763,38.339    143.763,37.635 143.763,37.285 144.091,36.581 143.763,36.581 144.091,36.228 144.091,35.879 143.439,35.173 143.113,34.822    142.784,34.47 142.46,34.118 142.134,33.065 142.134,32.008 142.134,31.306 142.134,30.955 142.134,30.251 141.81,29.899    141.481,29.197 141.481,28.844 140.831,28.495 140.18,28.142 139.852,27.791 139.528,27.791 139.199,27.087 139.199,26.738    138.549,26.384 138.223,26.738 137.898,27.439 137.898,27.791 137.247,28.142 135.616,29.548 135.288,29.899 135.288,30.604    134.965,31.658 134.965,32.361 134.638,32.715 134.638,33.065 134.313,33.416 133.987,33.768 133.659,34.118 133.659,34.47    133.659,35.173 133.006,35.173 132.684,35.173 132.355,35.525 132.031,35.879 131.702,35.879 131.054,36.228 130.073,36.581    130.073,36.93 130.073,37.285 129.75,37.635 129.097,37.635 128.119,37.635 127.468,37.986 126.49,38.339 125.837,39.042    125.511,39.392 125.187,39.747 124.532,40.095 124.208,40.449 124.532,41.152 124.208,41.152 123.882,41.152 123.557,41.152    123.229,41.152 122.905,41.152 122.578,41.152 122.251,40.8 121.6,40.8 121.275,41.152 120.948,41.152 120.624,41.504    120.624,41.853 120.296,41.504 119.969,40.8 119.646,40.095 119.646,39.392 119.319,38.692 119.646,37.986 119.319,37.635    119.319,36.93 118.995,36.581 118.665,35.879 118.665,35.173 118.342,34.47 118.342,33.768 118.342,33.065 118.015,32.715    118.015,32.361 118.342,32.008 118.665,32.008 118.995,31.658 118.995,31.306 118.995,30.604 118.995,30.251 118.995,29.899    118.665,29.197 118.665,28.844 118.665,28.495 118.665,28.142 118.665,27.791 118.665,27.439 118.342,27.439 118.015,27.791    117.689,27.439 117.365,27.087 117.036,26.384 116.713,26.033 116.713,25.682 117.036,25.33 117.365,24.625 117.365,24.275    117.689,23.921 118.015,23.572 118.342,22.87 118.342,22.518 118.015,21.11 118.015,20.758 118.015,20.407 118.015,19.703    118.015,19.353 118.015,18.649 118.015,18.297   " id="upazila_145" area="upazlia" name="islampur" bengali="ইসলামপুর" parent="jamalpur"></polygon><polygon points="120.624,41.854 120.624,41.504 120.948,41.15 121.276,41.15 121.6,40.8 122.251,40.8    122.578,41.15 122.905,41.15 123.229,41.15 123.555,41.15 123.882,41.15 124.207,41.15 124.532,41.15 125.837,41.15    126.162,41.15 126.815,41.504 126.815,42.206 127.14,42.206 127.468,41.854 127.468,41.15 128.118,40.8 128.77,41.15    129.42,41.15 129.75,41.15 130.073,41.504 130.073,41.854 130.073,42.206 130.401,42.206 130.726,41.854 131.379,41.854    131.702,41.504 132.355,41.854 132.684,41.854 133.006,42.206 133.006,42.56 133.334,43.262 133.334,43.611 133.659,43.965    133.987,44.316 134.313,44.316 134.313,44.667 134.313,45.019 134.313,45.372 134.638,45.722 135.288,46.073 135.942,46.073    136.267,46.427 136.267,46.777 136.594,47.129 136.594,47.479 137.247,47.479 137.571,47.479 137.571,47.831 137.896,48.183    137.896,48.535 137.896,49.238 137.247,48.535 136.919,48.535 136.594,48.886 136.594,49.238 136.594,49.59 136.919,49.94    136.919,50.644 136.594,50.995 136.267,51.7 135.942,52.05 135.942,52.752 135.942,53.105 136.267,53.457 136.267,53.807    135.942,54.513 135.615,54.864 135.288,55.214 134.965,55.568 134.965,56.271 134.965,56.974 135.288,56.974 135.942,56.974    136.267,56.974 136.594,57.325 137.247,57.325 137.896,57.675 138.549,58.028 138.549,58.381 138.876,58.731 138.876,59.081    139.201,59.437 139.852,59.437 139.852,59.786 140.178,60.138 140.505,60.489 141.156,60.138 141.481,60.138 141.81,60.842    142.134,61.543 142.459,61.895 142.459,62.249 142.459,62.599 142.785,62.951 143.113,62.599 143.439,62.599 143.439,62.951    144.091,62.951 144.414,62.951 144.741,63.302 145.067,64.004 144.414,64.356 143.763,64.709 143.439,64.709 143.113,64.709    142.785,64.709 142.785,65.061 143.113,65.412 143.439,65.763 143.113,65.763 142.459,65.763 141.81,66.116 141.481,66.466    141.156,67.17 140.505,67.17 139.852,67.17 139.528,66.818 139.201,67.17 138.876,67.521 138.549,67.872 138.223,68.224    137.896,67.872 137.571,67.521 137.247,67.17 136.594,67.17 135.288,67.17 134.965,66.818 134.965,66.466 134.638,66.466    134.313,66.466 133.987,66.116 133.659,65.763 133.334,65.763 133.006,65.412 132.684,65.061 132.355,65.061 132.355,65.412    132.355,65.763 132.032,65.763 132.032,66.116 131.702,66.116 131.379,66.116 131.379,66.466 131.379,66.818 131.702,67.17    131.702,67.521 131.702,67.872 132.032,68.224 132.032,68.576 132.355,68.927 132.684,68.927 133.006,69.279 133.334,69.982    134.313,70.684 134.638,71.039 134.638,71.389 134.313,71.389 133.987,71.389 133.334,71.741 133.006,72.091 132.684,72.794    132.355,72.446 132.032,72.091 131.702,71.389 131.379,71.389 130.726,71.039 130.401,71.389 130.073,71.741 130.073,72.091    129.75,72.446 129.75,72.794 129.42,72.446 129.097,72.091 128.77,71.389 128.445,71.389 128.118,71.389 127.793,71.039    127.468,71.039 127.14,70.334 127.793,69.982 127.793,69.631 128.118,68.927 128.445,68.576 128.77,68.224 129.42,68.224    130.073,68.224 130.401,68.224 131.052,68.224 131.379,67.872 131.052,67.521 130.726,67.17 129.75,67.521 129.097,67.521    128.445,67.17 127.468,66.466 126.49,66.116 125.511,65.412 124.859,65.061 124.207,64.709 123.882,64.004 123.555,63.654    123.229,63.302 122.578,62.599 122.251,61.895 122.251,61.193 121.926,60.489 121.6,59.786 120.948,59.081 120.624,58.028    120.296,57.675 120.296,56.622 120.296,55.917 119.644,55.214 119.644,54.864 119.319,53.807 119.969,53.807 120.624,53.807    120.624,53.457 120.948,52.752 121.926,52.402 122.251,52.402 122.578,52.402 122.905,52.05 122.578,51.347 122.578,50.644    122.251,50.644 121.6,49.94 121.276,49.59 120.948,48.886 121.276,47.831 121.276,47.129 121.6,46.777 121.926,46.073    121.926,45.372 121.926,44.667 121.6,43.965 121.276,42.91 120.624,42.206   " id="upazila_147" area="upazlia" name="madarganj" bengali="মাদারগঞ্জ" parent="jamalpur"></polygon><polygon points="134.638,71.389 134.638,71.039 134.313,70.684 133.334,69.982 133.008,69.279 132.683,68.927    132.355,68.927 132.031,68.576 132.031,68.225 131.704,67.872 131.704,67.521 131.704,67.17 131.379,66.818 131.379,66.466    131.379,66.116 131.704,66.116 132.031,66.116 132.031,65.763 132.355,65.763 132.355,65.412 132.355,65.061 132.683,65.061    133.008,65.412 133.334,65.763 133.659,65.763 133.987,66.116 134.313,66.466 134.638,66.466 134.963,66.466 134.963,66.818    135.29,67.17 136.594,67.17 137.245,67.17 137.571,67.521 137.898,67.872 138.223,68.225 138.549,67.872 138.876,67.521    139.201,67.17 139.527,66.818 139.852,67.17 140.505,67.17 141.156,67.17 141.482,66.466 141.809,66.116 142.46,65.763    143.113,65.763 143.438,65.763 143.113,65.412 142.785,65.061 142.785,64.709 143.113,64.709 143.438,64.709 143.764,64.709    144.414,64.358 145.068,64.004 145.068,64.358 145.718,64.358 146.371,64.004 147.022,64.004 147.349,64.004 147.349,64.358    147.675,64.358 148.327,64.004 148.653,63.654 148.979,63.302 149.304,63.654 149.631,64.004 149.631,64.358 150.282,64.709    150.607,64.709 150.936,64.709 150.607,65.061 149.956,65.412 149.631,65.763 149.956,66.116 150.282,66.116 150.936,66.116    150.936,66.818 151.261,67.521 151.911,67.872 152.24,68.225 152.889,68.576 153.217,68.927 153.868,69.631 154.193,69.982    154.846,71.741 155.171,72.446 155.497,73.148 155.824,73.499 155.497,73.499 155.171,73.85 155.497,74.553 154.846,74.203    154.521,74.203 154.521,74.553 154.846,74.905 155.171,75.257 154.846,75.607 154.521,75.96 154.193,75.96 153.54,75.96    153.217,76.662 153.217,77.014 152.889,77.368 152.565,77.014 152.24,76.313 151.911,76.313 151.911,76.662 151.911,77.014    151.911,77.368 151.586,77.368 150.936,77.014 150.607,76.662 150.282,76.313 149.956,76.313 149.631,76.313 148.979,77.014    148.653,77.368 148.653,78.42 148.979,79.475 148.979,79.829 148.979,80.882 149.304,81.234 149.304,81.586 149.631,82.288    150.282,82.288 150.607,82.641 150.936,82.993 151.261,83.694 151.586,84.398 151.586,84.75 151.586,85.452 151.261,86.156    150.607,86.508 150.282,86.508 149.631,86.508 149.304,86.156 148.979,86.156 148.653,86.156 148,86.859 147.349,87.915    147.022,88.616 147.022,89.321 147.349,89.671 147.349,90.025 147.022,90.728 146.371,90.728 145.068,90.728 144.089,90.728    144.089,91.078 144.089,91.43 144.414,91.782 144.414,92.135 144.089,92.485 143.764,92.485 144.089,93.189 144.414,93.538    144.741,94.242 145.068,94.242 144.741,94.595 144.414,94.242 144.089,93.892 143.764,93.892 143.438,94.595 143.438,94.946    143.113,95.296 142.785,95.296 142.785,96.002 142.46,96.002 142.134,96.002 141.809,96.002 141.809,96.353 142.46,96.353    142.785,96.706 142.785,97.057 142.134,97.057 141.156,97.759 141.156,98.112 141.156,98.462 141.482,98.462 141.809,98.814    141.482,99.164 140.83,99.164 140.505,99.518 140.505,99.87 140.18,99.87 139.852,99.87 139.527,99.518 139.201,99.87    139.527,100.22 139.527,100.923 139.527,101.275 139.527,101.625 139.201,101.979 138.876,102.33 138.549,102.33 137.898,102.682    137.245,102.33 136.919,102.33 136.594,102.33 136.267,101.625 135.942,101.275 135.942,100.573 135.942,99.87 135.942,99.518    135.616,99.164 135.616,98.814 135.29,98.112 135.29,97.406 134.963,97.057 134.963,96.706 134.638,96.706 134.313,96.353    133.987,95.649 133.659,94.946 133.987,93.892 134.313,93.538 134.638,93.538 134.963,93.189 135.616,93.189 136.267,93.189    136.267,92.837 136.594,92.837 136.919,92.135 136.594,91.782 136.594,89.671 136.594,88.969 136.919,88.265 136.594,87.563    136.594,86.859 136.919,86.508 137.245,86.156 137.571,86.156 137.898,85.804 138.223,85.804 138.549,85.452 138.876,85.102    138.549,84.398 138.223,84.048 137.898,84.048 137.571,83.343 137.571,82.993 137.571,82.288 137.571,81.938 137.571,81.586    137.245,81.234 136.919,81.234 136.594,81.234 136.267,80.882 135.942,80.18 135.616,79.829 135.616,79.475 135.29,78.773    135.29,78.42 135.616,78.07 136.594,78.07 136.919,77.717 137.245,77.014 137.245,76.662 136.919,76.313 136.594,75.96    136.267,75.96 135.942,75.607 135.942,74.905 136.267,74.203 136.267,73.85 135.942,73.148 135.942,72.446 135.29,71.741    134.963,71.389   " id="upazila_149" area="upazlia" name="sarishabari" bengali="সরিষাবাড়ী" parent="jamalpur"></polygon><polygon points="151.911,43.965 152.565,44.669 152.889,44.669 153.217,44.314 153.539,44.314 153.87,43.965    154.193,43.611 154.844,43.611 155.171,43.611 155.823,43.611 156.475,43.965 156.803,43.965 157.453,44.669 157.453,45.019    157.78,45.722 157.78,46.776 157.78,47.479 158.104,47.831 158.757,48.535 159.083,48.535 159.407,48.887 159.734,48.887    160.386,49.237 161.037,49.237 161.365,49.237 161.365,49.59 161.69,49.94 162.015,49.94 162.666,49.94 163.647,49.237    163.97,49.237 164.625,49.237 164.948,49.237 165.276,49.59 165.601,50.294 166.579,50.294 166.906,50.294 167.883,50.644    168.209,50.644 168.533,50.644 168.862,50.644 169.188,50.294 169.513,49.59 169.838,49.59 170.163,49.59 170.163,49.94    169.838,50.644 169.838,50.995 170.163,50.644 170.817,50.644 171.469,50.294 171.792,50.294 172.122,50.644 172.773,50.644    173.098,50.995 173.751,50.995 174.403,50.995 175.055,51.348 175.706,50.995 176.031,51.348 176.685,51.348 177.335,51.348    177.988,51.348 178.314,51.348 178.966,50.995 179.617,50.995 180.593,50.995 181.572,51.348 181.899,51.348 182.222,51.348    182.55,51.348 182.875,51.697 183.2,52.05 183.853,51.697 184.181,52.05 184.504,52.402 184.832,52.05 185.156,51.348    185.81,51.348 186.461,51.348 186.461,51.697 186.135,52.402 186.461,52.754 186.785,52.754 187.765,53.105 188.415,53.455    189.069,53.809 189.721,54.161 190.046,54.513 190.698,54.513 191.026,54.513 191.676,54.513 192.003,54.513 192.326,54.161    192.655,54.161 193.308,54.513 193.632,54.513 194.282,54.862 195.589,55.568 194.937,55.568 194.609,55.568 194.282,55.568    193.308,55.568 192.979,56.271 192.655,56.622 192.655,56.974 192.326,57.324 192.003,57.678 191.676,57.678 191.35,58.028    191.35,58.379 191.676,58.379 192.326,58.379 192.979,58.028 193.308,58.379 192.979,58.731 192.655,59.437 192.326,59.784    192.003,59.784 191.676,60.14 192.003,60.842 191.676,61.193 191.35,61.543 191.026,61.543 191.026,61.896 191.026,62.599    191.35,62.952 191.35,63.3 191.676,63.3 192.003,63.654 191.676,64.004 191.026,64.004 190.698,63.654 190.046,63.654    189.394,64.004 189.069,64.004 188.743,64.358 188.415,65.061 188.09,65.763 188.09,66.465 188.09,66.819 187.765,67.521    187.765,67.874 188.09,68.224 187.765,68.576 187.439,68.926 186.785,68.926 186.135,68.926 185.81,69.28 185.482,69.629    185.482,70.334 185.156,70.686 184.832,70.686 184.181,69.982 183.853,69.629 183.2,69.28 182.55,69.28 181.899,69.28    181.572,69.28 181.572,69.982 181.248,69.982 180.593,69.982 179.942,69.982 179.617,69.629 179.289,69.28 178.966,68.926    178.638,68.926 177.988,68.926 177.66,68.926 177.335,69.28 176.031,69.629 175.38,69.982 175.38,70.334 174.727,70.686    173.751,71.039 173.098,71.387 171.792,71.387 171.141,71.387 170.491,71.387 169.838,71.387 169.188,71.741 168.862,72.446    168.862,73.149 168.862,73.499 168.862,73.849 168.533,74.203 168.209,74.203 167.558,74.553 167.558,74.905 167.231,75.257    166.579,75.607 165.93,76.311 165.276,76.662 164.948,77.014 164.625,77.368 164.625,77.716 164.295,78.423 163.647,78.771    162.994,79.125 162.666,79.125 162.015,79.474 161.365,79.474 160.712,79.125 160.386,78.771 160.062,78.07 160.062,77.716    159.734,77.014 159.734,76.662 159.734,76.311 159.083,76.311 158.432,76.311 157.78,76.311 157.453,75.96 157.453,75.257    157.126,74.905 156.803,74.553 156.475,74.203 156.151,74.203 155.499,74.553 155.171,73.849 155.499,73.499 155.823,73.499    155.499,73.149 155.171,72.446 154.844,71.741 154.193,69.982 153.87,69.629 153.217,68.926 152.889,68.576 152.24,68.224    151.911,67.874 151.26,67.521 150.936,66.819 150.936,66.116 150.282,66.116 149.954,66.116 149.631,65.763 149.954,65.413    150.607,65.061 150.936,64.708 150.607,64.708 150.282,64.708 149.631,64.358 149.631,64.004 149.306,63.654 148.979,63.3    148.653,63.654 148.327,64.004 147.675,64.358 147.347,64.358 147.347,64.004 147.024,64.004 146.371,64.004 145.718,64.358    145.067,64.358 145.067,64.004 144.742,63.3 144.414,62.952 144.091,62.952 143.439,62.952 143.439,62.599 143.113,62.599    142.784,62.952 142.46,62.599 142.46,62.247 142.46,61.896 142.134,61.543 141.81,60.842 141.481,60.14 141.81,59.437    141.81,59.081 142.134,58.379 142.784,58.028 143.439,57.678 144.091,57.678 144.414,58.028 145.067,58.379 145.718,58.731    146.371,58.731 147.347,59.081 147.675,59.081 148.979,58.731 149.954,58.379 150.282,58.028 150.607,57.678 150.936,56.974    150.936,56.271 150.607,55.915 150.607,55.568 150.936,55.216 150.936,54.513 150.936,53.809 150.607,53.105 150.607,52.402    150.607,51.697 150.936,51.348 151.26,50.644 151.26,49.94 150.936,49.237 150.936,48.887 150.936,48.183 151.588,47.831    151.911,47.831 152.24,47.479 151.911,47.129 151.588,46.776 151.588,46.427 151.588,46.073 151.588,45.372 151.26,45.019    150.936,44.314 150.607,43.611 150.607,42.91 151.26,42.557 151.588,42.557 151.911,42.91   " id="upazila_146" area="upazlia" name="jamalpursadar" bengali="জামালপুর-সদর" parent="jamalpur"></polygon><polygon points="124.532,41.15 124.208,40.447 124.532,40.095 125.187,39.747 125.512,39.393 125.837,39.042    126.49,38.339 127.466,37.986 128.119,37.635 129.097,37.635 129.748,37.635 130.075,37.284 130.075,36.93 130.075,36.582    131.052,36.226 131.704,35.879 132.031,35.879 132.356,35.525 132.684,35.173 133.008,35.173 133.659,35.173 133.659,34.47    133.659,34.12 133.988,33.766 134.313,33.416 134.638,33.063 134.638,32.715 134.965,32.361 134.965,31.659 135.29,30.603    135.29,29.898 135.616,29.548 137.247,28.141 137.898,27.792 137.898,27.438 138.221,26.738 138.551,26.384 139.201,26.738    139.201,27.087 139.527,27.792 139.853,27.792 140.18,28.141 140.831,28.495 141.482,28.845 141.482,29.198 141.809,29.898    142.135,30.253 142.135,30.955 142.135,31.305 142.135,32.008 142.135,33.063 142.46,34.12 142.784,34.47 143.114,34.82    143.439,35.173 144.089,35.879 144.089,36.226 143.764,36.582 144.089,36.582 143.764,37.284 143.764,37.635 143.764,38.339    144.089,39.042 144.742,39.747 145.393,40.095 146.045,40.447 146.698,40.447 147.024,40.802 147.347,41.504 147.675,41.854    148,41.854 148.328,41.854 148.979,41.854 149.632,42.206 149.956,41.854 149.956,41.504 149.956,40.802 149.956,40.095    150.608,39.393 151.588,39.747 152.24,39.747 152.24,40.447 152.24,41.15 152.24,41.854 152.24,42.557 152.24,43.263    151.913,43.965 151.913,42.908 151.588,42.557 151.261,42.557 150.608,42.908 150.608,43.611 150.936,44.314 151.261,45.019    151.588,45.369 151.588,46.073 151.588,46.427 151.588,46.776 151.913,47.129 152.24,47.479 151.913,47.83 151.588,47.83    150.936,48.183 150.936,48.887 150.936,49.237 151.261,49.94 151.261,50.644 150.936,51.348 150.608,51.697 150.608,52.402    150.608,53.105 150.936,53.809 150.936,54.513 150.936,55.214 150.608,55.568 150.608,55.915 150.936,56.272 150.936,56.974    150.608,57.675 150.281,58.028 149.956,58.379 148.979,58.733 147.675,59.081 147.347,59.081 146.371,58.733 145.718,58.733    145.067,58.379 144.416,58.028 144.089,57.675 143.439,57.675 142.784,58.028 142.135,58.379 141.809,59.081 141.809,59.437    141.482,60.138 141.156,60.138 140.503,60.489 140.18,60.138 139.853,59.784 139.853,59.437 139.201,59.437 138.876,59.081    138.876,58.733 138.551,58.379 138.551,58.028 137.898,57.675 137.247,57.324 136.594,57.324 136.269,56.974 135.941,56.974    135.29,56.974 134.965,56.974 134.965,56.272 134.965,55.568 135.29,55.214 135.616,54.864 135.941,54.513 136.269,53.809    136.269,53.457 135.941,53.105 135.941,52.752 135.941,52.049 136.269,51.697 136.594,50.995 136.919,50.644 136.919,49.94    136.594,49.591 136.594,49.237 136.594,48.887 136.919,48.535 137.247,48.535 137.898,49.237 137.898,48.535 137.898,48.183    137.573,47.83 137.573,47.479 137.247,47.479 136.594,47.479 136.594,47.129 136.269,46.776 136.269,46.427 135.941,46.073    135.29,46.073 134.638,45.724 134.313,45.369 134.313,45.019 134.313,44.669 134.313,44.314 133.988,44.314 133.659,43.965    133.334,43.611 133.334,43.263 133.008,42.557 133.008,42.206 132.684,41.854 132.356,41.854 131.704,41.504 131.379,41.854    130.727,41.854 130.401,42.206 130.075,42.206 130.075,41.854 130.075,41.504 129.748,41.15 129.422,41.15 128.772,41.15    128.119,40.802 127.466,41.15 127.466,41.854 127.141,42.206 126.815,42.206 126.815,41.504 126.162,41.15 125.837,41.15   " id="upazila_148" area="upazlia" name="melandah" bengali="মেলান্দহ" parent="jamalpur"></polygon></svg>