<svg enable-background="new -106.403 -201.859 629.266 880.536" height="880.536px" id="district_41" viewBox="-106.403 -201.859 629.266 880.536" width="629.266px" x="0px" xml:space="preserve" xmlns="http://www.w3.org/2000/svg" y="0px"><path d="M45.656,518.275h-0.978l-0.979-0.352l-0.978-1.059l-0.652-1.057l-0.65-1.053l-0.327-1.053L40.442,513    l-1.63-2.461l-1.305-0.705l-1.631-0.701l-0.65-1.406l0.328-2.812l0.649-1.406l0.322-2.111l0.328-1.756l0.325-2.111l-0.325-1.76    l-1.63-1.404l-0.979-2.111l0.649-2.107l0.979-1.406l0.649-0.354h0.653l0.651,0.354v1.758v1.756l0.979,2.463l0.978,1.053    l0.979,1.762l0.324,1.758l-0.324,2.111l-0.325,1.756l0.649,2.111l0.327,1.402l0.978,1.057l1.631,0.703l1.629,0.705l0.979,0.352    l0.979,1.406L49.239,513l0.325,1.41l-0.651,0.705l-0.65,0.695l-0.325,0.709l-0.652,1.758h-0.649h-0.979V518.275z M55.112,420.174    v0.353l0.65,0.705v0.705v1.056v0.698l0.326,0.356h0.979l1.954-0.356h0.325H60l0.65,0.356l0.325,0.7l0.651,0.351l0.65,0.708    l0.325,0.698l0.652,0.354l0.325,0.354h-0.325v0.702v1.058l0.649,0.698l0.653,1.056l0.649,0.704l0.652,0.708l0.65,0.697v0.705    v0.705l0.326,1.056l0.325,0.354l0.325,0.697l0.652,0.353l0.324,0.353h0.326l0.651-0.353l0.979-0.353h0.978l0.325,0.353v0.706    l-0.651,0.702l-1.304,1.056l-1.305,1.057v0.701l0.653,0.707l0.649,0.701l0.652,0.701l0.978,0.709l-0.326,1.053l-0.323,0.701    l-0.326,0.35l-0.326,1.059l0.326,0.352l0.326,0.705l0.977,1.053v1.057l-0.977,1.758l-1.63,1.406l-0.979,1.406l-1.305,1.402    l-0.979,1.762l-0.326,1.406v1.76l-0.978,1.055l-0.653,0.701l-1.304-0.701l-0.65,0.35l-0.979,0.352L60,463.085h-0.652l-1.954-2.812    l0.324,1.057l0.325,1.053l0.652,1.41l1.305,1.4l0.65,1.057l0.979,1.406l0.326,1.402v1.061h0.649l-1.629,1.402l-0.65,1.408    L60,474.333l-1.629,0.703l-0.653,1.408h-0.649l-1.306-1.059l-0.65-1.055l-0.652-1.055l-1.63,0.354h-0.649l-1.633-2.109    l0.653-0.355l0.979-1.051l0.649-0.705l0.325-1.406l-1.305-1.404l-0.979-0.707l-0.649-0.701l-1.631-1.406l-0.651-0.352    l-0.979-1.406l-0.324-1.057v-1.053l0.979-0.354l0.978-0.352l0.651-0.354l-0.651-1.053l-0.651-1.055l-0.979-1.057l-0.979-1.055    l-1.302-0.35l-0.979-1.057l-0.65-0.705l-0.979-0.701l-0.979-1.057l-0.324-1.057l-0.325-0.701h-0.652l0.326,1.055l0.651,1.057    l0.65,0.703l0.979,1.053l0.652,0.705l0.978,0.705l0.979,1.053l0.977,0.352l0.653,0.705l0.649,0.701l0.652,1.061l0.325,0.697    l-0.325,0.354H46.31h-0.328l-0.324,0.352v1.057l0.324,0.705l0.328,1.053l0.324,0.701l0.65,0.354l0.327,0.354l0.65,0.701    l0.979,1.053l0.324,0.705l1.305,0.703l0.651,0.354l0.652,0.701v0.705l-0.652,0.703l-0.651,0.354l-0.649,0.701l-0.326,0.354v2.461    l0.649,1.053l0.326,1.055v1.408l-0.649,1.758l-0.653,1.057l-0.65,0.703l-0.651,1.053l-0.649,1.055l-0.328,0.707l0.328,1.049v1.41    v1.402l0.324,0.709l0.979,0.701l0.65,1.055h0.653h1.303h1.631h1.304l1.956,0.703l0.326,0.705l-0.651,1.055l-0.326,1.057    l-0.326,0.697l-0.651,1.41l-0.651,0.705l0.326,2.105v1.41v0.699l-0.649,1.059l-0.652,1.057l-0.651,1.402v1.406l-0.652,1.406    l-0.649,0.705l-0.327,0.35h-0.649l-1.306-0.35h-0.651l-0.649-0.354l-0.653-0.352l-0.979-0.705H44.69l-1.305-0.699l-0.979-0.705    v-1.057l0.325-2.107l0.327-2.109l-0.327-1.777l-0.325-1.406l-0.65-1.402l-0.979-1.406l-0.651-1.057v-2.463l0.327-2.109    l0.649-1.053l0.325-1.057l0.327-0.354l0.325,0.354l0.65,0.354l1.629-0.354l0.979-0.354v-0.701l-0.325-0.701l-0.325-0.354v-0.705    v-0.352l-0.327-0.705l0.979-0.703l0.325-1.053l0.325-0.705l0.652-0.701l0.324-1.057v-1.055v-1.055l-1.304-2.461v-0.705    l0.324-1.406l0.328-0.35l0.325-0.705l-0.653,0.354l-0.324,0.701l-0.325,0.701v0.705v1.057l0.325,0.703l0.324,0.354l0.328,0.701    l0.325,0.705v1.053v0.703l-0.653,1.057l-0.324,0.701l-0.65,0.352l-0.325,1.406l-0.327,0.352h-0.324v0.705v0.703l0.324,0.705    l0.327,0.701v0.703l-0.651,0.352l-0.651,0.354h-0.324l-0.652-0.354h-0.325v-0.701v-1.053l0.325-1.762l0.325-1.758v-1.76v-1.758    l-0.65-1.76l-1.629-2.459l-0.979-1.057l-0.651-1.053l-0.651-1.76l-0.651-1.758l-0.326-1.408v-1.053l0.326-1.758l0.651-0.703    l0.651-1.057l1.304-1.053l0.651-0.705v-0.352l0.652-0.354l0.325-0.352h0.325l0.325-0.352h0.325v-0.352l0.327-0.355h0.324v-0.701    v-0.707l-0.651-0.348l-0.65-0.352l-0.979,0.352l-0.979,0.348l-0.651-0.697l-0.324-0.705l-0.327-0.354v-0.705l0.327-1.053    l0.324-0.701v-0.707v-0.701V449l-0.324-0.354l-0.651-1.053l-0.979-0.705l-0.65-1.055l-0.652-1.055l-0.979-1.057l-0.325-1.057    l-0.324-1.402l-0.326-1.055v-0.705l-0.652-0.351H32.95l-0.978,1.052l-0.652-0.351l0.652-0.354l0.652-0.698l-0.328-0.707    l-0.324-0.352l-0.652-0.352l-0.979-0.708l-0.976-0.699l-0.328-0.352v-0.705l1.304-0.701l0.653,0.352l0.979,0.351h0.652    l0.323-0.351v-0.352l-1.305-2.11l-0.978-1.057v-0.354l0.65-0.352v-0.351l0.325-0.353l0.651-0.353h0.328v-0.701l0.322-0.354    l0.328-0.353h0.324h0.327v0.353l0.325,0.354h0.326h0.323l0.326-0.354h0.651h0.326l0.323-0.353h0.653l0.325,0.353h0.652v0.354    l0.325,0.352v0.351h0.325l0.327-0.351v-0.352v-0.354h-0.327l-0.65-0.353v-0.353l-0.327-0.352v-0.354l-0.325-0.698h0.325v-0.353    l0.327-0.705l0.325-0.352v-0.354v-0.352l0.652-0.354l-0.327-0.351l-0.325,0.351h-0.325v-0.351v-0.352l0.325-0.351v-0.354v-0.352    h-0.325v-0.354v-0.35v-0.354V420.5v-0.354h0.65h0.327h0.324l0.325,0.354h0.325l0.327-0.354h0.325h0.324v0.354l0.328,0.351h0.324    h0.325V420.5l0.325-0.354v-0.348v-0.354v-0.351h0.326v0.351v0.354l0.326,0.348v0.354l0.325,0.351l0.324,0.354l0.326,0.35    l0.325,0.354l0.326,0.706v0.351l0.326,0.352l0.324,0.703l0.325,0.352h0.653h0.324l0.649,0.354h0.328l0.325-0.354h0.324    l0.327-0.352v-0.703l0.324-0.352v-0.351v-0.706l0.326-0.703l0.325-0.354l0.327-0.351h0.325l0.649,0.351h0.327l0.325-0.351    l0.324-0.701l-0.649-0.354h1.304h0.325l0.979,0.354l0.323,0.348h0.326h0.653v0.019h0.021V420.174z M69.451,504.914l-0.325-0.705    l-0.652-1.053l-0.979-1.059l-0.326-0.703v-0.703l0.979-0.352h0.65v-0.354h-1.304l-0.326-0.348l-0.324-1.406v-1.059l-0.327-1.051    l0.327-1.41l0.65-0.703l0.651-1.404l0.325-0.703v-1.406l-1.305-1.053l-0.979-0.355l-0.65,0.355h-0.979l-1.305-1.059l-0.652-0.703    l-0.325-1.053l-0.324-0.705l-0.979-0.35h-1.305l-1.302-0.709l-0.328-0.701l0.328-0.699L60,482.404l0.65-0.352l1.305-1.055    l0.324-0.699l0.325-0.707l-0.325-1.053l-0.65-0.707l-0.979-0.352l-0.979-0.348l-0.325-0.352l0.325-1.059L60,475.019l0.978-1.402    l0.327-0.355l0.324-0.701l0.65-0.703l0.325-0.705l0.327-0.701v-1.41l-0.652-1.402l-0.324-0.705l-0.65-1.057l-0.652-0.703v-0.701    l0.325-1.057h0.327h0.324h0.65l0.979,1.057v0.352l0.65,1.055h0.652h0.979l0.978-0.352l0.979-0.705h0.651l0.65,0.354l0.327,0.352    v1.057l-0.652,0.703v0.352h-0.325l-0.324,0.352l-0.653,1.057l0.326,1.406v0.35l0.327,0.352l0.649,0.705l0.325,0.354l0.327,0.705    l0.325,0.705v0.35v0.701l0.65,0.705l0.327,0.352v0.354v0.703v0.352l0.325,0.701l1.305,1.762l0.651,0.703l0.65,1.055l0.652,0.703    l0.324,0.35l0.323,0.705l0.33,0.354l0.649,1.053l0.322,0.705l0.33,0.701v0.354v0.354l0.323,0.697v0.705l0.326,0.354l0.325,0.352    v0.705v0.354v0.699h-0.325v0.703l-0.649,0.707l-0.33,0.352l-1.304,0.703l-1.302,1.408l-0.328,0.35l-0.65,1.053l-0.651,1.057    l-0.65,0.705l-0.324,1.053l-0.325,0.703v0.703v0.354l-0.327,1.057v0.35v0.705v0.705l-0.326,1.053L69.451,504.914z M60,528.47    h-0.979h-2.28h-0.326l-0.325-0.705l-0.652-0.35l-0.324-0.352l-0.327-0.354v-0.705l0.327-0.701l0.324-0.705l0.326-1.057    l0.651-0.699l0.326-0.709l0.326-0.697l0.649-0.707l0.653-0.701v-0.355l0.324-0.703v-0.352v-0.701v-0.705l-0.324-0.352    l-0.328-0.352l-0.325-0.354v-0.352l-0.324-0.703v-0.352v-0.701v-0.709l-0.325-1.049l-0.326-0.705l-0.651-0.705l-0.652-1.055    l-0.325-0.355l-0.326-1.049v-0.355l-0.325-2.461l-0.326-0.701l-0.323-0.703l-0.328-0.355v-0.35l0.328-0.352l0.649-0.701    l0.325-1.059l0.651-1.053l0.326-2.111v-1.758v-1.406l0.651-1.758l0.652-1.055l0.649-0.701l0.653-1.057l-0.328-0.705l-0.649-1.055    l-0.979-0.352h-1.631H53.48l-0.978,0.352h-1.305l-1.304-0.703l-0.979-0.703l-0.651-1.758v-1.057v-1.053l0.651-0.701l0.326-1.059    l0.979-0.705l0.649-0.697l0.979-2.113v-1.055v-1.055l-0.325-1.762h0.325l0.327-0.348l0.325,0.348h0.978h0.651l0.65,0.703    l0.327,0.355l0.65,0.703l0.652,1.057l0.979,0.348l1.304,0.352l0.978,0.354l0.979,0.354l0.979,0.35l0.326,1.412h-0.65l-0.979,0.348    l-0.979,1.057l-0.977,1.057l-1.305,1.051v1.762l0.977,0.701l0.652,0.354l1.305,0.701h1.305l0.65,0.705l0.649,1.055l0.652,0.701    l0.979,0.354h0.651h1.629h0.651l0.652,1.406l-0.327,0.701L66.51,493.3l-0.65,0.701l-0.325,1.055v1.408l0.325,1.406v1.406v1.758    v1.41l0.979,2.461l0.325,1.754l0.979,2.465l0.325,2.107l0.324,0.352l-0.324,0.352v1.057l-0.65,0.35l0.325,0.705l-0.325,0.703    l-0.327,1.055l-0.325,0.705l-0.325,1.057v1.051v0.352H65.54l-0.651,0.354l-0.651-0.354l-0.326-1.049l-0.325,1.049l0.325,0.705    l0.652,0.354h0.979l0.978,0.352h1.307l0.324,0.352l0.325,0.352v0.705v1.055l0.324,0.699l0.328,0.709l-0.328,1.053l-0.649,0.352    l-0.324-0.352l-0.653-0.35h-0.979h-1.304l-0.651-0.352v0.352l0.326,0.35l0.325,0.352l0.324,0.354l-0.324,0.705l-0.325,0.699    l-0.979,0.355l-0.65,0.354l-0.651,0.352h-1.305H60V528.47z" id="upazila_290" area="upazlia" name="shyamnagar" bengali="শ্যামনগর" parent="satkhira"></path><polygon points="26.429,402.596 26.755,402.596 27.08,402.245 28.059,402.245 28.059,401.895 28.384,401.895    28.709,401.543 29.034,401.543 29.688,401.543 29.688,402.245 30.013,402.596 30.665,402.245 31.317,401.895 31.642,401.543    32.294,401.543 32.946,401.543 33.598,401.895 33.926,401.895 34.251,401.895 34.251,401.543 33.926,401.19 33.598,400.487    33.926,400.137 33.926,399.787 34.251,399.082 34.251,398.728 33.926,398.376 33.598,398.026 33.598,397.672 33.926,397.325    34.251,397.325 34.902,397.325 35.556,396.975 36.531,396.619 36.859,396.975 37.184,396.619 37.51,396.619 37.835,396.619    38.162,396.975 38.489,397.325 38.814,397.325 38.814,396.975 39.141,396.619 39.141,396.269 39.466,396.269 39.791,396.269    40.117,396.269 40.117,395.564 40.117,394.861 40.77,394.861 41.095,394.508 41.095,394.158 40.77,394.158 40.445,393.807    39.141,394.158 38.814,393.807 38.489,393.106 38.814,392.05 38.162,391.699 37.51,391.699 36.859,392.4 36.531,392.4    36.206,392.05 35.88,392.05 35.88,391.342 36.206,390.995 36.531,390.644 36.859,390.292 36.859,389.938 37.184,389.588    37.51,389.238 38.162,389.238 38.814,389.588 39.466,389.938 40.117,390.292 41.095,391.342 41.42,391.699 42.399,392.4    43.052,392.4 43.377,392.4 43.702,392.75 43.702,392.4 43.702,391.699 44.029,391.342 44.354,390.995 44.354,390.644    44.681,390.644 45.332,391.699 46.311,392.4 46.636,393.106 45.983,393.456 46.311,394.861 46.636,395.564 46.636,396.269    46.961,397.325 47.615,397.325 47.94,396.975 48.592,396.619 48.917,396.269 49.243,396.619 49.569,397.672 50.222,397.672    50.546,397.672 51.525,397.672 52.178,397.672 52.828,397.325 53.48,397.672 54.132,397.672 54.783,397.325 55.436,398.026    55.436,398.728 55.436,399.433 55.112,400.137 54.783,400.839 54.783,401.543 55.762,401.895 55.436,402.596 55.112,403.655    55.436,404.353 55.112,405.058 55.112,406.467 55.436,407.166 55.436,408.222 55.762,409.277 56.089,409.981 57.718,411.388    57.718,412.09 57.718,413.146 56.74,413.496 56.414,414.197 56.414,414.902 56.414,415.257 56.414,415.607 56.414,415.958    56.74,416.312 57.068,416.659 57.718,417.011 58.371,417.364 58.371,418.069 57.393,419.125 56.089,419.826 55.436,420.177    55.112,420.177 54.458,420.177 54.132,420.177 53.808,419.826 52.828,419.476 52.503,419.476 51.199,419.476 51.85,419.826    51.525,420.526 51.199,420.879 50.872,420.879 50.222,420.526 49.896,420.526 49.569,420.879 49.243,421.232 48.917,421.935    48.917,422.64 48.917,422.993 48.592,423.341 48.592,424.045 48.265,424.396 47.94,424.396 47.615,424.747 47.286,424.747    46.636,424.396 46.311,424.396 45.657,424.396 45.332,424.045 45.006,423.341 44.681,422.993 44.681,422.64 44.354,421.935    44.029,421.583 43.702,421.232 43.377,420.879 43.052,420.526 43.052,420.177 42.725,419.826 42.725,419.476 42.725,419.125    42.399,419.125 42.399,419.476 42.399,419.826 42.399,420.177 42.073,420.526 42.073,420.879 41.748,420.879 41.42,420.879    41.095,420.526 41.095,420.177 40.77,420.177 40.445,420.177 40.117,420.526 39.791,420.526 39.466,420.177 39.141,420.177    38.814,420.177 38.162,420.177 38.162,420.526 38.162,420.879 38.162,421.232 38.162,421.583 38.162,421.935 38.489,421.935    38.489,422.285 38.489,422.64 38.162,422.993 38.162,423.341 38.162,423.691 38.489,423.691 38.814,423.341 39.141,423.691    38.489,424.045 38.489,424.396 38.489,424.747 38.162,425.098 37.835,425.806 37.835,426.156 37.51,426.156 37.835,426.858    37.835,427.209 38.162,427.56 38.162,427.914 38.814,428.265 39.141,428.265 39.141,428.615 39.141,428.97 38.814,429.32    38.489,429.32 38.489,428.97 38.162,428.615 38.162,428.265 37.51,428.265 37.184,427.914 36.531,427.914 36.206,428.265    35.88,428.265 35.228,428.265 34.902,428.615 34.577,428.615 34.251,428.615 33.926,428.265 33.926,427.914 33.598,427.914    33.274,427.914 32.946,428.265 32.622,428.615 32.622,429.32 32.294,429.32 31.642,429.668 31.317,430.021 31.317,430.372    30.665,430.727 30.665,431.077 30.665,430.727 29.688,430.372 28.709,430.021 28.384,430.372 27.731,429.32 28.059,427.914    28.384,427.209 28.059,425.452 28.384,425.098 28.384,424.396 28.709,424.045 27.731,423.691 27.406,423.341 27.731,422.64    28.059,422.285 28.384,421.935 28.709,421.583 29.034,420.879 28.709,420.526 27.731,419.476 27.08,419.125 26.429,418.42    26.102,418.069 26.429,417.715 26.755,417.364 27.406,417.364 27.406,417.011 28.059,416.312 28.384,415.958 29.034,415.958    29.363,415.607 29.688,415.607 29.688,414.552 29.363,413.847 28.709,413.146 29.034,413.146 29.034,412.795 29.363,412.09    29.034,411.739 29.034,411.388 29.034,411.037 29.034,410.684 29.034,410.329 29.034,409.981 29.688,409.631 30.013,408.926    30.338,409.277 30.991,409.981 31.317,410.329 31.969,410.329 32.294,410.684 32.946,410.684 32.622,410.684 31.969,410.329    31.642,409.981 30.991,409.631 30.665,408.926 30.013,408.575 29.688,408.926 29.363,408.575 28.709,408.222 27.731,407.517    27.08,406.467 26.755,405.058 26.429,404.002 26.429,402.95   " id="upazila_288" area="upazlia" name="kaliganj" bengali="কালিগঞ্জ" parent="satkhira"></polygon><polygon points="23.166,387.481 23.166,386.774 22.843,386.421 23.496,386.07 23.496,385.72 23.496,385.369    24.147,385.369 24.147,384.667 24.472,384.667 25.125,385.369 25.45,385.72 25.777,386.07 26.101,386.421 26.754,386.421    26.754,386.07 27.08,385.72 27.08,385.019 27.406,384.667 27.73,383.962 28.059,383.962 28.383,383.962 28.709,382.906    28.709,382.552 28.709,382.202 28.709,381.854 28.383,381.504 28.059,381.504 28.383,381.15 28.709,381.504 29.363,381.15    29.688,381.504 30.013,381.504 30.338,381.504 30.663,381.504 31.316,381.504 31.642,381.504 31.969,381.504 31.969,381.854    31.969,382.202 31.642,382.552 31.316,382.906 31.316,383.261 31.642,383.261 32.622,383.261 33.274,383.261 33.926,383.612    34.251,383.612 34.251,383.962 34.902,383.962 34.902,383.612 35.227,382.906 35.556,382.202 35.556,381.854 35.878,381.504    35.878,381.15 36.531,380.798 37.509,381.504 37.835,381.504 38.16,381.15 38.489,381.15 39.141,380.448 39.466,380.448    40.119,380.448 40.119,380.798 40.119,381.15 40.443,381.504 41.093,381.854 41.421,382.202 41.093,382.552 40.443,382.552    39.789,382.906 39.789,383.261 39.789,383.612 39.789,383.962 40.119,383.962 40.77,383.962 41.093,383.612 41.748,383.612    42.072,383.962 42.072,384.316 42.399,384.667 42.399,385.019 41.421,385.72 41.421,386.07 41.421,386.421 41.421,386.774    41.748,386.774 42.724,386.774 42.724,387.481 43.052,388.182 41.748,388.532 41.748,389.234 42.072,389.588 42.072,389.942    42.724,389.588 43.703,390.292 44.353,390.644 44.353,390.995 44.029,391.342 43.703,391.699 43.703,392.4 43.703,392.75    43.375,392.4 43.052,392.4 42.399,392.4 41.421,391.699 41.093,391.342 40.119,390.292 39.466,389.942 38.814,389.588    38.16,389.234 37.509,389.234 37.184,389.588 36.859,389.942 36.859,390.292 36.531,390.644 36.206,390.995 35.878,391.342    35.878,392.05 36.206,392.05 36.531,392.4 36.859,392.4 37.509,391.699 38.16,391.699 38.814,392.05 38.489,393.106    38.814,393.807 39.141,394.158 40.443,393.807 40.77,394.158 41.093,394.158 41.093,394.508 40.77,394.861 40.119,394.861    40.119,395.564 40.119,396.272 39.789,396.272 39.466,396.272 39.141,396.272 39.141,396.619 38.814,396.971 38.814,397.325    38.489,397.325 38.16,396.971 37.835,396.619 37.509,396.619 37.184,396.619 36.859,396.971 36.531,396.619 35.556,396.971    34.902,397.325 34.251,397.325 33.926,397.325 33.596,397.672 33.596,398.026 33.926,398.376 34.251,398.728 34.251,399.082    33.926,399.787 33.926,400.137 33.596,400.487 33.926,401.193 34.251,401.543 34.251,401.895 33.926,401.895 33.596,401.895    32.946,401.543 32.294,401.543 31.642,401.543 31.316,401.895 30.663,402.245 30.013,402.596 29.688,402.245 29.688,401.543    29.033,401.543 28.709,401.543 28.383,401.895 28.059,401.895 28.059,402.245 27.08,402.245 26.754,402.596 26.429,402.596    26.429,402.245 26.429,401.543 26.101,400.839 26.101,400.487 25.777,399.787 25.45,399.082 25.125,398.376 24.8,397.672    24.147,396.971 23.496,396.971 22.843,396.619 22.518,395.915 22.518,395.213 22.843,394.508 22.518,393.456 21.865,392.75    21.537,392.05 21.865,391.342 22.843,390.644 23.82,390.292 24.147,389.234 24.472,388.532 24.472,388.182 23.82,387.481   " id="upazila_286" area="upazlia" name="debhata" bengali="দেবহাটা" parent="satkhira"></polygon><polygon points="40.117,380.445 40.77,380.097 41.42,380.097 41.746,380.097 42.073,380.445 42.399,380.798    42.724,380.798 43.05,380.445 43.05,380.097 43.377,380.097 43.702,380.445 44.028,380.445 44.028,380.798 44.028,381.5    44.354,381.852 44.681,381.852 45.006,382.202 45.657,382.202 45.657,382.556 45.657,382.906 45.657,383.261 45.657,383.608    45.983,384.316 45.983,385.019 45.983,385.366 46.31,385.72 46.31,386.07 46.635,386.424 46.635,386.774 46.961,386.424    46.961,386.07 47.286,386.07 47.614,386.07 47.94,386.424 47.94,386.07 48.265,385.72 48.265,385.366 48.915,385.019    49.243,384.667 49.569,383.962 50.221,383.608 50.546,383.608 51.198,383.962 51.85,383.962 52.176,383.962 52.828,383.608    53.479,383.261 54.132,382.906 54.458,382.906 55.109,383.261 55.436,383.261 55.762,383.608 56.087,383.962 56.414,384.316    56.74,384.316 57.066,384.667 57.391,384.667 57.391,385.019 57.718,385.366 57.718,385.72 58.369,385.72 58.369,386.07    59.022,386.07 59.347,386.424 59.347,386.774 59.672,386.774 60,386.774 60.325,386.424 60.651,386.07 60.976,386.07    61.304,385.366 61.629,385.019 61.629,384.667 61.954,384.667 62.281,384.316 63.258,384.316 63.258,384.667 62.933,385.366    63.584,385.72 64.237,386.07 64.888,386.774 65.213,387.481 64.888,387.828 64.562,388.182 64.237,388.182 62.933,388.528    62.933,389.238 63.584,389.238 63.909,389.238 64.562,389.238 65.213,389.588 65.538,390.644 65.866,391.345 65.538,392.4    65.538,392.75 65.538,393.456 65.213,394.161 64.888,394.861 64.562,394.861 63.584,395.21 63.258,395.21 62.606,395.564    62.606,396.269 62.281,396.619 61.629,397.325 61.954,398.026 62.606,398.728 62.933,399.433 63.584,399.787 63.584,401.19    63.909,403.301 64.237,405.058 64.888,406.113 65.213,406.817 65.538,407.166 66.517,407.517 67.495,407.871 68.146,408.575    68.146,408.926 68.146,409.277 67.495,409.631 67.169,409.631 66.517,409.981 66.192,409.981 65.538,409.981 64.888,410.329    64.237,410.684 64.562,411.385 64.888,412.09 64.562,412.443 63.909,412.795 63.584,412.795 63.258,412.795 62.933,413.146    62.606,413.146 62.606,413.496 62.281,413.847 62.281,414.197 62.281,415.257 62.281,416.309 62.933,417.364 63.909,418.066    64.237,419.125 64.237,419.826 64.237,420.526 63.909,421.232 63.584,421.232 63.584,421.583 63.258,421.935 62.933,421.935    62.281,422.643 61.954,422.99 61.954,423.341 62.281,423.341 62.606,423.691 63.258,423.341 63.909,423.341 64.562,422.99    65.213,422.99 65.866,423.691 65.866,424.396 66.517,425.101 66.517,426.504 66.517,427.91 66.517,428.265 65.866,428.265    65.213,427.91 64.562,427.91 64.237,427.562 63.909,427.562 63.909,427.209 63.584,427.209 63.258,426.858 62.606,426.504    62.281,425.806 61.629,425.101 60.976,424.747 60.651,424.045 60,423.691 59.347,423.691 59.022,423.691 57.066,424.045    56.087,424.045 55.762,423.691 55.762,422.99 55.762,421.935 55.762,421.232 55.109,420.526 55.109,420.177 55.436,420.177    56.087,419.826 57.391,419.125 58.369,418.066 58.369,417.364 57.718,417.011 57.066,416.659 56.74,416.309 56.414,415.958    56.414,415.607 56.414,415.257 56.414,414.902 56.414,414.197 56.74,413.496 57.718,413.146 57.718,412.09 57.718,411.385    56.087,409.981 55.762,409.277 55.436,408.222 55.436,407.166 55.109,406.464 55.109,405.058 55.436,404.353 55.109,403.655    55.436,402.596 55.762,401.895 54.782,401.541 54.782,400.839 55.109,400.137 55.436,399.433 55.436,398.728 55.436,398.026    54.782,397.325 54.132,397.672 53.479,397.672 52.828,397.325 52.176,397.672 51.525,397.672 50.546,397.672 50.221,397.672    49.569,397.672 49.243,396.619 48.915,396.269 48.59,396.619 47.94,396.975 47.614,397.325 46.961,397.325 46.635,396.269    46.635,395.564 46.31,394.861 45.983,393.456 46.635,393.106 46.31,392.4 45.331,391.699 44.681,390.644 44.354,390.644    43.702,390.292 42.724,389.588 42.073,389.938 42.073,389.588 41.746,389.238 41.746,388.528 43.05,388.182 42.724,387.481    42.724,386.774 41.746,386.774 41.42,386.774 41.42,386.424 41.42,386.07 41.42,385.72 42.399,385.019 42.399,384.667    42.073,384.316 42.073,383.962 41.746,383.608 41.095,383.608 40.77,383.962 40.117,383.962 39.791,383.962 39.791,383.608    39.791,383.261 39.791,382.906 40.443,382.556 41.095,382.556 41.42,382.202 41.095,381.852 40.443,381.5 40.117,381.15    40.117,380.798   " id="upazila_285" area="upazlia" name="assasuni" bengali="আশাশুনি" parent="satkhira"></polygon><polygon points="43.052,357.943 43.375,357.593 43.703,357.241 44.029,357.593 44.353,357.241 45.006,357.241    45.332,357.241 45.983,357.593 46.635,357.593 46.961,357.943 47.286,357.943 47.615,357.943 47.939,357.943 48.265,357.593    48.592,357.241 48.592,357.593 49.243,357.593 49.896,357.593 49.896,356.887 50.221,356.887 50.546,357.241 50.874,357.593    51.198,357.593 51.525,357.943 51.525,358.998 51.198,358.998 50.874,359.7 50.546,360.054 49.896,360.405 48.915,360.755    49.243,361.461 49.568,361.461 49.568,361.812 49.568,362.513 50.221,362.513 51.525,361.812 51.198,361.461 51.848,361.106    52.178,360.054 52.501,359.7 52.828,359.7 52.828,359.35 53.155,358.998 53.479,358.998 53.808,358.998 53.808,359.35    54.13,359.7 54.782,359.35 55.112,359.35 55.436,359.35 55.764,359.7 56.089,359.7 56.74,359.7 57.066,359.7 57.393,359.7    57.393,359.35 58.041,358.998 58.695,358.998 58.695,358.651 59.022,358.651 59.347,358.297 59.675,358.297 60.325,358.297    60.652,357.943 60.976,357.943 61.304,357.593 61.304,357.241 61.629,357.241 61.629,356.887 61.955,356.537 62.281,356.537    62.605,356.537 63.258,356.183 63.908,356.183 64.238,356.183 64.563,356.537 64.563,357.241 64.238,357.943 63.908,358.297    63.908,358.651 63.584,358.651 63.258,358.998 63.258,359.7 63.584,359.7 63.584,360.054 64.888,360.054 64.888,359.7    65.215,359.35 65.538,359.35 65.866,359.35 65.866,360.054 66.191,360.405 66.191,361.106 66.191,361.461 66.191,361.812    66.191,362.166 66.191,362.513 67.169,362.863 67.821,362.863 68.148,362.863 68.801,362.513 69.451,362.863 69.451,363.218    69.777,363.569 71.08,363.923 71.08,364.624 71.406,365.332 70.43,366.027 70.755,366.381 71.406,366.735 72.712,367.085    72.712,368.142 71.732,369.195 72.06,369.899 72.384,369.899 72.712,370.253 74.341,370.6 74.663,370.951 74.663,371.66    74.016,372.007 74.341,372.708 74.341,373.062 74.341,373.417 74.016,373.764 73.364,374.118 72.712,373.764 72.384,373.764    71.732,374.118 71.406,374.469 71.406,374.822 71.406,375.174 71.732,375.875 72.06,375.875 72.06,376.226 71.732,376.58    71.732,377.282 71.732,377.986 71.08,378.688 70.755,378.688 70.102,378.688 70.102,378.337 69.777,378.337 69.451,377.632    69.126,376.933 68.801,376.933 68.471,376.226 67.821,376.58 67.169,376.58 66.844,376.58 66.519,376.58 66.191,376.226    65.866,375.525 65.866,374.822 65.538,374.118 65.538,373.764 65.215,373.764 65.215,374.469 65.215,374.822 65.215,375.174    65.215,375.525 65.215,375.875 65.538,376.58 65.538,377.282 65.866,377.986 65.866,378.688 65.866,379.039 65.866,379.39    65.866,380.097 65.866,380.445 65.866,380.798 66.519,381.15 67.169,381.5 67.495,381.5 68.148,381.854 68.801,381.854    69.126,382.202 69.451,382.202 70.102,382.552 70.43,382.906 70.755,383.962 70.43,384.313 69.777,384.313 69.451,384.667    69.126,384.667 68.801,385.019 68.148,385.366 67.495,385.72 67.169,386.074 67.495,386.424 68.148,386.424 68.471,386.424    69.126,386.774 69.126,387.126 68.148,387.481 67.821,387.481 67.169,387.126 66.519,387.126 66.191,386.774 65.538,386.424    65.215,386.074 65.215,385.72 66.191,385.366 66.191,384.667 66.519,383.962 65.866,383.612 65.538,383.612 65.215,382.906    64.888,382.552 64.238,382.552 64.238,382.202 63.908,382.552 63.908,383.261 63.584,383.962 63.258,384.313 62.281,384.313    61.955,384.667 61.629,384.667 61.629,385.019 61.304,385.366 60.976,386.074 60.652,386.074 60.325,386.424 60,386.774    59.675,386.774 59.347,386.774 59.347,386.424 59.022,386.074 58.371,386.074 58.371,385.72 57.718,385.72 57.718,385.366    57.393,385.019 57.393,384.667 57.066,384.667 56.74,384.313 56.412,384.313 56.089,383.962 55.764,383.612 55.436,383.261    55.112,383.261 54.458,382.906 54.13,382.906 53.479,383.261 52.828,383.612 52.828,382.906 53.155,382.552 53.155,381.854    53.155,381.15 53.155,380.798 53.155,380.097 52.828,379.743 52.501,379.743 52.178,379.743 51.848,379.39 51.848,379.039    51.525,378.688 51.198,378.337 51.525,377.986 51.525,377.632 51.525,376.933 51.525,376.58 51.525,376.226 50.546,375.875    50.221,375.525 49.896,375.525 49.568,375.174 49.568,374.822 49.568,374.469 49.896,373.417 49.896,373.062 49.896,372.708    49.896,372.357 49.568,372.357 48.915,372.357 48.592,372.357 48.592,372.708 48.592,373.062 47.939,373.417 47.286,373.417    46.961,373.062 46.635,372.708 46.635,372.357 46.311,371.66 45.656,372.007 45.332,372.007 44.681,372.007 44.353,372.007    43.703,372.007 43.703,371.306 44.353,371.306 45.332,370.951 45.656,370.951 45.983,370.951 46.311,370.951 45.983,370.253    46.311,369.899 46.311,369.545 45.983,369.195 45.983,368.843 45.332,368.496 45.006,368.142 44.681,367.788 43.703,367.438    43.703,367.085 43.703,366.735 43.375,366.381 43.052,366.027 43.052,365.677 43.052,364.975 43.052,364.624 43.052,363.923    42.724,363.569 42.399,363.569 42.399,362.863 42.724,362.513 43.052,362.166 42.724,361.106 41.748,360.755 41.421,360.405    41.093,360.054 41.093,359.35 41.421,359.35 41.748,359.35 42.072,359.35 42.072,359.7 42.399,360.054 42.724,360.405    43.052,360.755 43.375,360.755 43.703,360.405 43.703,360.054 43.375,359.7 43.052,358.998 43.052,358.651   " id="upazila_291" area="upazlia" name="tala" bengali="তালা" parent="satkhira"></polygon><polygon points="24.472,360.755 24.472,360.054 25.125,359.7 25.45,359.7 25.776,359.35 26.429,358.648    27.079,358.297 27.731,358.648 28.058,358.648 28.383,358.648 29.034,358.648 29.362,358.648 29.688,358.648 30.013,358.297    29.688,358.297 29.362,357.946 29.362,357.593 30.013,357.593 30.338,357.593 30.663,357.593 31.317,357.593 31.642,357.593    32.294,357.593 32.622,357.593 33.273,357.593 33.598,357.593 33.598,357.946 34.249,357.593 34.576,357.593 34.902,357.593    35.228,357.593 36.206,357.241 36.531,357.241 36.857,357.593 37.184,357.946 37.184,358.297 37.184,358.648 37.834,358.648    38.16,358.648 38.489,358.297 38.814,357.946 39.139,357.946 39.791,357.946 40.117,358.297 39.791,358.648 40.117,358.998    40.443,358.998 40.443,358.648 40.77,358.648 40.77,358.297 41.095,357.946 41.42,357.946 41.746,357.946 42.073,357.946    42.399,357.946 43.05,357.946 43.05,358.648 43.05,358.998 43.377,359.7 43.702,360.054 43.702,360.405 43.377,360.755    43.05,360.755 42.724,360.405 42.399,360.054 42.073,359.7 42.073,359.35 41.746,359.35 41.42,359.35 41.095,359.35    41.095,360.054 41.42,360.405 41.746,360.755 42.724,361.106 43.05,362.166 42.724,362.513 42.399,362.863 42.399,363.569    42.724,363.569 43.05,363.923 43.05,364.624 43.05,364.975 43.05,365.677 43.05,366.027 43.377,366.381 43.702,366.735    43.702,367.085 43.702,367.438 44.681,367.788 45.006,368.142 45.331,368.496 45.983,368.843 45.983,369.195 46.31,369.549    46.31,369.899 45.983,370.25 46.31,370.951 45.983,370.951 45.657,370.951 45.331,370.951 44.354,371.306 43.702,371.306    43.702,372.007 44.354,372.007 44.681,372.007 45.331,372.007 45.657,372.007 46.31,371.656 46.635,372.357 46.635,372.711    46.961,373.062 47.286,373.417 47.94,373.417 48.59,373.062 48.59,372.711 48.59,372.357 48.915,372.357 49.569,372.357    49.894,372.357 49.894,372.711 49.894,373.062 49.894,373.417 49.569,374.472 49.569,374.822 49.569,375.171 49.894,375.525    50.221,375.525 50.546,375.875 51.525,376.226 51.525,376.576 51.525,376.93 51.525,377.635 51.525,377.986 51.198,378.337    51.525,378.688 51.85,379.039 51.85,379.393 52.176,379.743 52.501,379.743 52.828,379.743 53.155,380.097 53.155,380.795    53.155,381.15 53.155,381.852 53.155,382.556 52.828,382.906 52.828,383.612 52.176,383.962 51.85,383.962 51.198,383.962    50.546,383.612 50.221,383.612 49.569,383.962 49.243,384.667 48.915,385.019 48.265,385.366 48.265,385.72 47.94,386.074    47.94,386.424 47.614,386.074 47.286,386.074 46.961,386.074 46.961,386.424 46.635,386.774 46.635,386.424 46.31,386.074    46.31,385.72 45.983,385.366 45.983,385.019 45.983,384.316 45.657,383.612 45.657,383.261 45.657,382.906 45.657,382.556    45.657,382.202 45.006,382.202 44.681,381.852 44.354,381.852 44.028,381.5 44.028,380.795 44.028,380.445 43.702,380.445    43.377,380.097 43.05,380.097 43.05,380.445 42.724,380.795 42.399,380.795 42.073,380.445 41.746,380.097 41.42,380.097    40.77,380.097 40.117,380.445 39.464,380.445 39.139,380.445 38.489,381.15 38.16,381.15 37.834,381.5 37.51,381.5    36.531,380.795 35.88,381.15 35.88,381.5 35.555,381.852 35.555,382.202 35.228,382.906 34.902,383.612 34.902,383.962    34.249,383.962 34.249,383.612 33.926,383.612 33.273,383.261 32.622,383.261 31.642,383.261 31.317,383.261 31.317,382.906    31.642,382.556 31.967,382.202 31.967,381.852 31.967,381.5 31.642,381.5 31.317,381.5 30.663,381.5 30.338,381.5 30.013,381.5    29.688,381.5 29.362,381.15 28.709,381.5 28.383,381.15 28.058,381.5 28.383,381.5 28.709,381.852 28.709,382.202 28.709,382.556    28.709,382.906 28.383,383.962 28.058,383.962 27.731,383.962 27.406,384.667 27.079,385.019 27.079,385.72 26.754,386.074    26.754,386.424 26.101,386.424 25.776,386.074 25.45,385.72 25.125,385.366 24.472,384.667 24.147,384.667 24.147,385.366    23.494,385.366 23.494,385.72 23.494,386.074 22.841,386.424 23.166,386.774 23.166,387.481 22.841,387.481 21.865,387.126    21.212,386.074 20.887,385.72 20.887,385.019 20.561,384.316 20.561,383.962 20.234,383.261 20.887,382.906 20.887,382.556    21.212,382.202 21.537,382.202 21.865,382.202 22.191,381.5 22.516,381.15 22.516,380.445 22.841,379.743 22.841,379.039    23.166,378.688 23.494,378.337 23.82,378.337 24.472,378.337 24.797,377.635 24.797,377.282 24.472,376.576 23.82,375.525    22.841,374.822 21.865,374.118 20.561,373.417 20.234,373.062 19.908,372.357 19.257,371.306 18.605,370.951 18.279,370.25    18.605,369.549 18.932,368.843 18.932,368.496 18.605,368.142 18.279,367.438 17.953,367.085 17.953,366.735 17.953,366.381    18.279,365.677 18.605,365.677 19.257,365.33 19.908,365.33 19.582,364.975 19.582,364.273 19.908,364.273 20.234,363.923    20.561,363.923 20.887,363.569 21.212,363.569 21.212,362.863 21.537,362.513 22.516,362.166 22.841,361.812 23.494,361.812    24.147,361.812 24.147,361.461 24.147,361.106   " id="upazila_289" area="upazlia" name="satkhirasadar" bengali="সাতক্ষীরা সদর" parent="satkhira"></polygon><polygon points="28.709,339.661 29.688,339.661 30.013,339.312 30.338,339.312 30.663,339.312 30.991,339.312    31.317,339.312 31.969,340.008 32.294,340.362 32.946,340.716 33.274,341.066 33.598,341.066 34.249,341.418 34.577,341.772    35.555,340.362 35.88,340.008 35.88,340.716 35.555,341.418 35.88,341.772 36.531,341.772 37.184,341.418 37.51,341.066    37.834,341.066 38.489,341.418 39.139,341.418 39.466,341.418 39.791,341.066 40.117,340.716 40.445,340.716 40.77,341.418    41.42,342.123 41.748,342.123 42.399,342.477 42.724,342.477 43.377,342.477 43.702,342.477 44.029,342.123 44.029,341.772    44.029,341.418 43.702,341.066 43.377,340.716 43.052,340.716 43.052,340.362 43.702,340.362 44.029,340.008 44.354,339.661    44.681,339.661 45.006,339.661 45.332,339.661 45.006,340.008 44.681,340.362 44.354,340.716 44.354,341.066 44.681,341.418    45.006,341.772 45.332,341.772 45.983,341.772 46.311,342.123 46.636,342.477 46.961,342.824 47.286,343.174 47.286,343.526    47.94,344.935 48.265,345.641 48.59,346.338 48.59,346.692 48.59,347.397 48.265,347.397 47.615,347.397 46.961,346.692    46.636,346.338 45.983,345.991 45.657,345.641 45.332,345.641 45.006,346.338 44.354,347.397 44.354,347.749 44.681,348.099    45.332,348.8 45.983,349.154 46.636,349.856 46.961,350.561 46.961,350.911 46.636,351.613 46.636,351.967 46.311,353.019    45.983,353.371 46.311,354.078 46.636,354.78 46.961,355.485 47.615,356.183 48.265,356.887 48.59,357.241 48.265,357.593    47.94,357.943 47.615,357.943 47.286,357.943 46.961,357.943 46.636,357.593 45.983,357.593 45.332,357.241 45.006,357.241    44.354,357.241 44.029,357.593 43.702,357.241 43.377,357.593 43.052,357.943 42.399,357.943 42.073,357.943 41.748,357.943    41.42,357.943 41.095,357.943 40.77,358.294 40.77,358.651 40.445,358.651 40.445,358.998 40.117,358.998 39.791,358.651    40.117,358.294 39.791,357.943 39.139,357.943 38.814,357.943 38.489,358.294 38.162,358.651 37.834,358.651 37.184,358.651    37.184,358.294 37.184,357.943 36.859,357.593 36.531,357.241 36.206,357.241 35.228,357.593 34.902,357.593 34.577,357.593    34.249,357.593 33.598,357.943 33.598,357.593 33.274,357.593 32.622,357.593 32.294,357.593 31.642,357.593 31.317,357.593    30.663,357.593 30.338,357.593 30.013,357.593 29.363,357.593 29.363,357.943 29.688,358.294 30.013,358.294 29.688,358.651    29.363,358.651 29.034,358.651 28.384,358.651 28.058,358.651 27.731,358.651 27.079,358.294 26.429,358.651 25.776,359.35    25.45,359.7 25.125,359.7 24.472,360.051 24.472,360.755 24.147,359.35 23.822,358.651 24.147,357.593 24.472,357.241    24.472,356.887 24.797,355.835 24.797,355.13 25.125,354.429 25.45,353.728 25.125,353.019 24.797,352.672 24.797,352.321    24.147,351.613 23.822,350.561 23.168,349.856 23.168,349.505 22.843,348.449 22.516,348.449 22.516,348.099 22.191,348.099    21.865,348.099 21.539,348.449 21.212,348.449 20.887,348.8 20.562,349.154 20.234,349.154 19.908,349.154 19.258,348.449    19.258,348.099 18.932,348.449 18.605,348.449 18.28,348.449 17.303,347.749 16.976,346.338 16.976,345.991 16.65,345.991    15.999,344.581 16.65,344.233 16.324,343.876 15.999,343.174 16.324,343.174 16.65,342.824 16.65,342.477 16.976,342.477    17.303,342.477 17.303,342.824 17.628,342.477 17.954,342.123 18.28,342.123 18.605,342.123 18.605,342.477 18.605,342.824    18.28,342.824 18.605,343.526 18.932,343.526 19.258,343.526 19.583,342.824 19.908,342.824 20.234,342.824 20.562,343.174    20.887,343.526 20.887,343.876 21.539,343.526 21.865,343.526 22.191,343.526 22.191,343.174 22.516,342.824 22.843,342.824    23.168,342.824 23.494,343.174 23.822,343.876 24.147,343.876 24.472,343.876 24.797,343.526 24.797,343.174 25.125,342.824    25.45,342.824 25.776,343.174 26.101,343.526 26.429,343.174 26.754,342.824 27.079,342.824 27.731,343.174 28.058,343.526    28.384,343.526 28.384,343.174 28.384,342.477 28.058,342.123 28.384,341.772 28.384,341.418 28.058,340.716 27.731,340.008    27.731,339.661   " id="upazila_287" area="upazlia" name="কলারোয়া" bengali="kalaroa" parent="satkhira"></polygon></svg>