<svg enable-background="new -106.403 -201.859 629.266 880.536" height="880.536px" id="district_41" viewBox="-106.403 -201.859 629.266 880.536" width="629.266px" x="0px" xml:space="preserve" xmlns="http://www.w3.org/2000/svg" y="0px"><polygon points="40.77,161.397 40.77,161.048 41.421,161.048 41.421,161.397 41.748,161.75 42.073,161.75    42.399,161.75 42.724,161.048 43.052,160.693 43.702,160.693 44.681,160.693 45.332,160.693 46.311,160.693 46.961,160.693    47.615,160.693 48.592,160.693 49.569,160.693 50.546,160.342 51.199,159.64 51.525,159.29 51.848,159.64 52.178,160.342    52.501,161.048 52.501,161.75 52.828,162.454 52.828,163.156 52.828,163.511 53.155,163.858 53.48,164.916 53.48,165.267    53.808,165.267 54.132,164.916 54.132,164.56 54.132,164.213 54.458,164.213 54.458,164.56 54.458,164.916 54.458,165.617    54.132,165.97 54.132,166.321 53.808,166.674 53.48,167.023 53.808,167.378 54.132,167.727 54.132,168.079 54.132,168.781    54.132,169.484 55.112,169.484 55.762,169.484 56.089,169.484 56.089,170.188 56.089,170.539 56.089,171.244 56.089,171.597    55.762,171.945 54.782,172.299 54.132,172.299 54.132,172.648 53.48,172.648 53.155,173.001 53.155,173.354 52.828,173.702    52.178,174.058 51.525,174.058 50.872,174.058 50.546,174.058 49.896,174.058 49.569,174.058 49.569,174.406 49.243,174.76    49.243,175.111 49.243,175.462 49.243,176.518 49.243,176.868 49.569,177.571 49.569,177.924 49.569,178.275 49.569,178.625    49.569,179.329 49.896,179.682 49.896,180.388 49.896,181.088 49.896,182.143 49.896,182.847 49.896,183.199 49.896,183.549    49.896,184.253 49.896,185.306 49.896,185.659 49.896,186.713 49.896,187.768 50.221,188.47 50.546,189.174 50.546,189.528    50.872,190.231 50.872,190.58 50.872,191.286 50.872,191.634 50.872,192.689 49.569,192.337 48.917,192.337 47.615,191.634    47.285,191.286 46.636,190.933 45.983,190.933 45.007,190.933 44.354,190.933 43.702,190.933 43.375,190.933 42.724,190.933    42.399,190.58 42.399,189.174 41.748,189.174 41.093,188.823 40.117,188.823 39.141,188.47 38.489,188.12 37.835,187.768    37.51,186.713 37.184,185.659 36.531,184.253 36.206,183.199 35.878,181.792 35.878,181.088 35.556,180.032 35.228,178.979    34.902,178.275 34.251,177.222 33.926,176.163 33.596,174.058 32.948,172.299 31.969,170.539 31.642,169.135 31.316,168.431    30.665,167.727 30.338,167.727 30.665,167.378 30.991,166.674 30.991,166.321 30.991,165.617 30.991,165.267 30.665,164.56    30.338,164.56 30.338,164.213 30.013,164.213 29.688,163.858 29.363,163.511 30.013,163.511 30.665,163.858 30.991,163.858    30.991,163.511 31.316,163.511 31.316,163.156 30.991,163.156 30.665,162.805 30.013,162.805 29.688,162.805 29.363,162.805    29.363,162.454 29.363,162.101 30.013,162.101 30.338,161.75 30.991,161.397 31.642,161.397 31.969,161.397 32.294,161.048    32.622,160.693 32.948,160.342 33.274,160.342 33.596,160.693 33.596,161.048 33.926,161.75 33.926,162.454 34.251,163.156    34.251,163.511 34.902,164.213 35.228,164.213 35.878,164.56 36.206,164.56 36.206,164.213 36.531,163.858 36.531,163.511    36.859,163.156 37.184,163.156 38.489,163.156 39.141,163.156 39.791,163.156 40.445,162.805 40.77,162.454 40.77,162.101    40.77,161.75   " id="upazila_375" area="upazlia" name="ishurdi" bengali="ঈশ্বরদী" parent="pabna"></polygon><polygon points="51.525,159.29 51.525,158.939 51.848,158.234 52.178,157.532 52.501,156.828 52.828,156.477    53.48,156.125 53.808,156.125 54.132,156.125 54.782,155.772 55.112,155.772 55.436,156.125 55.762,156.125 56.089,155.772    56.414,155.422 57.066,156.477 57.393,156.828 57.718,157.18 57.718,157.532 57.718,158.585 57.718,159.29 58.043,159.993    58.371,159.993 58.697,159.993 59.022,159.993 59.345,160.344 59.675,161.046 59.675,161.75 59.675,162.103 60,162.453    60.325,162.453 60.652,162.103 60.652,161.75 60.977,161.75 61.304,161.75 61.304,161.398 60.977,160.694 60.652,160.694    60.652,160.344 60.977,160.344 61.304,159.993 61.955,160.344 62.933,161.046 63.259,161.75 63.259,162.453 62.933,162.806    62.933,163.51 62.933,163.86 63.259,163.86 63.584,164.213 63.908,163.86 64.563,163.51 64.888,162.806 65.213,162.806    65.866,162.453 66.191,162.806 66.517,163.157 66.517,163.86 66.844,164.562 66.844,165.268 67.169,165.97 67.823,166.321    68.148,167.024 68.471,167.024 68.799,167.727 68.799,168.08 68.799,168.431 69.126,168.431 69.777,168.431 70.103,168.781    70.756,168.781 71.08,168.781 71.406,168.781 72.06,168.781 72.384,168.08 72.384,167.727 72.712,167.377 73.034,167.377    73.364,167.377 73.689,167.377 74.341,167.727 74.341,168.08 74.341,168.431 74.341,168.781 74.341,169.135 74.994,169.135    75.317,169.135 75.645,169.487 75.968,169.487 76.296,169.487 76.621,169.135 76.621,168.781 76.948,168.781 76.948,169.135    77.274,169.135 77.599,169.135 78.25,169.135 78.25,168.781 78.578,168.431 78.578,168.08 78.904,167.727 78.904,167.377    79.229,167.024 79.556,166.674 80.207,166.674 80.531,166.674 80.858,167.024 80.858,167.377 81.186,167.727 81.511,167.727    81.511,167.377 81.836,167.024 82.163,167.024 82.49,167.377 82.814,167.377 83.14,167.377 83.467,167.727 83.792,168.08    84.118,168.431 84.444,168.781 84.771,168.781 85.094,168.781 85.094,168.431 85.421,167.727 85.421,167.377 85.749,167.377    86.074,167.727 86.4,168.431 86.4,168.781 86.723,168.781 86.723,169.487 86.723,170.188 86.074,170.541 85.749,170.541    85.749,170.891 86.074,171.244 86.4,171.594 86.074,172.299 86.4,172.648 86.723,173.002 87.053,173.354 87.376,173.705    87.053,174.408 87.376,174.76 87.376,175.111 87.376,175.462 87.376,175.814 87.053,176.166 86.723,176.517 86.723,176.869    86.723,177.222 86.4,177.572 86.4,177.924 85.094,178.626 84.771,178.275 84.444,177.924 84.118,177.924 83.792,177.924    83.467,177.572 83.467,177.222 83.467,176.869 83.14,176.517 82.814,176.517 82.49,176.869 82.49,178.275 82.163,178.626    81.836,178.626 81.511,178.626 81.511,178.275 81.836,177.924 81.836,177.572 81.511,176.869 81.186,176.869 80.858,176.869    80.531,176.869 80.207,177.222 79.882,177.222 79.229,177.572 78.904,177.222 78.578,176.869 78.25,176.517 77.927,176.517    77.599,176.517 76.948,176.166 76.948,175.814 76.621,175.462 76.296,175.111 76.296,174.76 75.968,174.408 75.317,174.408    74.994,174.76 74.664,175.111 74.341,175.462 74.341,175.814 74.016,176.166 73.689,176.166 73.034,176.517 72.712,176.869    72.384,176.517 72.384,176.166 72.384,175.814 72.06,175.462 71.732,175.462 71.08,175.111 70.756,175.111 70.43,175.111    70.103,175.111 69.451,175.111 69.126,174.76 69.126,174.408 68.799,174.408 68.471,174.408 68.148,174.056 68.148,173.705    68.148,173.354 67.823,173.354 67.495,173.354 66.517,173.002 65.866,173.002 65.54,173.002 64.563,172.648 64.238,173.002    63.584,173.002 62.933,173.002 61.955,173.002 61.304,173.002 61.304,172.648 60.652,172.648 60.325,172.648 60,172.648    60,172.299 59.675,172.299 59.345,172.299 59.022,172.299 58.697,172.299 58.371,171.947 58.043,171.947 57.718,171.947    57.066,171.947 55.762,171.947 56.089,171.594 56.089,171.244 56.089,170.541 56.089,170.188 56.089,169.487 55.762,169.487    55.112,169.487 54.132,169.487 54.132,168.781 54.132,168.08 54.132,167.727 53.808,167.377 53.48,167.024 53.808,166.674    54.132,166.321 54.132,165.97 54.458,165.618 54.458,164.915 54.458,164.562 54.458,164.213 54.132,164.213 54.132,164.562    54.132,164.915 53.808,165.268 53.48,165.268 53.48,164.915 53.155,163.86 52.828,163.51 52.828,163.157 52.828,162.453    52.501,161.75 52.501,161.046 52.178,160.344 51.848,159.64   " id="upazila_370" area="upazlia" name="atghoria" bengali="আটঘরিয়া" parent="pabna"></polygon><polygon points="73.034,132.917 74.016,132.917 74.341,132.917 74.664,132.917 74.664,132.567 74.994,132.567    75.317,132.567 75.645,132.567 76.296,132.917 76.621,132.917 76.948,132.567 77.274,132.917 77.6,132.917 77.927,132.917    78.25,132.567 78.578,132.215 78.904,132.215 79.229,132.215 79.556,132.567 79.882,132.567 80.207,132.917 80.531,133.271    81.186,133.976 81.186,135.38 81.186,135.733 81.186,136.437 81.186,136.785 81.511,137.139 81.511,137.841 81.511,138.193    81.836,138.897 81.836,139.601 81.836,140.303 81.836,141.004 81.836,141.708 82.163,142.063 82.163,142.762 82.49,143.116    82.163,143.466 81.836,143.818 81.836,144.524 81.836,144.871 81.836,145.578 81.511,145.578 81.186,145.928 80.531,145.928    79.882,145.928 79.556,146.632 79.229,146.983 78.904,146.983 78.578,146.983 78.25,146.983 77.927,146.983 77.274,146.983    76.948,147.335 76.621,147.335 76.296,146.983 75.968,146.632 75.645,146.983 75.968,147.685 75.968,148.038 75.968,148.742    75.968,149.446 75.968,150.147 76.296,150.499 76.948,150.499 77.6,150.499 78.25,150.849 78.578,150.849 78.578,151.202    78.578,151.553 78.578,152.256 78.578,152.958 78.578,153.312 78.578,154.013 78.25,154.368 78.25,154.716 78.578,155.42    78.578,155.772 78.904,156.125 78.904,156.474 78.904,156.829 78.578,157.18 78.25,157.18 78.25,157.532 78.25,157.882    78.578,158.234 78.904,158.234 79.229,158.586 79.556,158.937 79.556,159.29 79.882,159.992 80.531,160.342 80.531,161.048    80.531,161.397 80.207,161.397 79.882,161.75 79.882,162.103 79.882,162.454 79.556,162.805 79.556,163.156 79.556,163.511    79.882,163.858 80.207,164.213 80.207,164.916 79.882,165.267 79.556,166.674 79.229,167.023 78.904,167.378 78.904,167.727    78.578,168.079 78.578,168.431 78.25,168.781 78.25,169.135 77.6,169.135 77.274,169.135 76.948,169.135 76.948,168.781    76.621,168.781 76.621,169.135 76.296,169.484 75.968,169.484 75.645,169.484 75.317,169.135 74.994,169.135 74.341,169.135    74.341,168.781 74.341,168.431 74.341,168.079 74.341,167.727 73.689,167.378 73.364,167.378 73.034,167.378 72.712,167.378    72.384,167.727 72.384,168.079 72.06,168.781 71.406,168.781 71.08,168.781 70.756,168.781 70.103,168.781 69.777,168.431    69.126,168.431 68.799,168.431 68.799,168.079 68.799,167.727 68.471,167.023 68.148,167.023 67.823,166.321 67.169,165.972    66.844,165.267 66.844,164.562 66.519,163.858 66.519,163.156 66.191,162.805 65.866,162.454 65.213,162.805 64.888,162.805    64.563,163.511 63.908,163.858 63.584,164.213 63.259,163.858 62.933,163.858 62.933,163.511 62.933,162.805 63.259,162.454    63.259,161.75 62.933,161.048 61.955,160.342 61.304,159.992 60.977,160.342 60.652,160.342 60.652,160.694 60.977,160.694    61.304,161.397 61.304,161.75 60.977,161.75 60.652,161.75 60.652,162.103 60.325,162.454 60,162.454 59.675,162.103    59.675,161.75 59.675,161.048 59.345,160.342 59.022,159.992 58.697,159.992 58.371,159.992 58.043,159.992 57.718,159.29    57.718,158.586 57.718,157.532 57.718,157.18 57.393,156.829 57.066,156.474 56.414,155.42 57.066,155.068 57.718,154.716    58.043,154.716 58.697,154.368 59.345,154.013 59.675,153.312 59.675,152.958 60,152.256 60,151.907 60,151.553 59.675,151.202    59.675,150.849 59.675,150.499 60.325,150.849 60.652,150.499 60.977,150.499 60.977,150.147 61.304,149.446 61.955,149.446    62.281,149.091 62.606,148.39 62.606,148.038 62.606,147.685 62.281,147.685 61.955,147.335 61.304,147.335 61.304,146.983    61.304,146.632 61.304,146.279 61.627,145.928 62.281,145.928 62.281,145.578 62.606,145.224 62.933,145.224 63.584,145.224    63.908,145.224 64.238,144.871 64.888,144.169 65.213,143.466 65.54,143.116 65.866,142.411 65.866,142.063 66.519,141.359    66.844,141.359 66.844,141.004 67.169,140.654 67.823,140.654 68.148,140.654 68.471,140.654 68.799,140.303 68.799,139.601    68.471,139.247 68.471,138.542 68.799,137.49 68.799,137.139 69.126,136.785 69.451,136.437 70.103,136.437 70.43,136.082    70.756,135.733 71.08,135.733 71.732,135.733 72.06,135.733 72.384,135.733 72.712,135.027 72.712,134.678 73.034,133.976    73.034,133.623 73.034,133.271   " id="upazila_373" area="upazlia" name="chatmohar" bengali="চাটমোহর" parent="pabna"></polygon><polygon points="81.186,133.974 81.51,133.974 82.161,134.324 82.814,134.324 83.14,134.324 83.79,134.324    84.118,134.678 83.79,135.38 83.79,136.083 84.118,136.785 84.444,137.136 85.094,136.785 85.749,136.785 86.073,136.436    86.4,136.436 86.725,137.136 87.053,137.49 87.053,137.841 87.376,138.192 87.701,138.544 87.701,138.896 87.376,138.896    87.053,139.247 86.725,139.599 86.725,140.303 86.725,140.653 86.725,141.004 87.053,141.357 87.053,141.708 87.053,142.061    87.053,142.412 87.053,142.762 87.376,143.114 87.701,143.466 87.701,143.818 88.03,144.169 88.354,144.873 88.03,145.576    87.701,145.928 87.376,146.279 87.376,146.981 87.701,147.335 88.03,147.335 88.03,147.688 88.354,147.688 88.354,147.335    88.682,146.981 89.007,146.981 89.333,146.981 89.658,146.632 89.658,145.928 89.983,145.576 90.636,145.576 90.636,144.873    90.962,144.873 91.286,144.521 91.615,144.873 91.615,145.226 91.941,145.576 92.265,145.576 92.265,146.279 92.265,146.632    92.265,146.981 92.265,147.688 91.941,147.688 91.941,148.038 91.941,148.39 91.941,148.741 91.615,148.741 91.615,149.092    91.615,149.445 91.286,149.795 90.962,149.795 90.636,149.795 90.312,149.795 90.312,150.148 90.312,150.499 90.636,150.499    90.636,150.849 90.636,151.555 90.636,151.905 90.636,152.256 90.312,152.256 89.658,152.256 89.007,152.256 88.682,152.256    88.354,152.607 88.03,152.607 87.376,152.256 87.376,152.607 87.053,152.607 86.725,152.959 86.725,153.663 86.4,154.016    86.073,154.716 86.073,155.068 85.749,155.422 85.749,155.772 85.749,156.125 85.749,156.474 85.421,156.828 84.771,157.53    84.444,157.883 84.444,158.234 84.444,158.937 84.118,159.29 84.118,159.64 84.444,159.64 84.444,159.992 84.771,160.342    84.444,160.342 84.118,160.342 83.79,160.342 83.79,160.694 83.79,161.397 83.79,161.75 83.467,161.75 83.467,161.397    82.814,161.397 82.49,161.397 82.161,161.046 81.838,160.694 81.51,160.694 81.51,160.342 80.531,160.342 79.881,159.992    79.557,159.29 79.557,158.937 79.228,158.585 78.904,158.234 78.577,158.234 78.252,157.883 78.252,157.53 78.252,157.18    78.577,157.18 78.904,156.828 78.904,156.474 78.904,156.125 78.577,155.772 78.577,155.422 78.252,154.716 78.252,154.367    78.577,154.016 78.577,153.312 78.577,152.959 78.577,152.256 78.577,151.555 78.577,151.202 78.577,150.849 78.252,150.849    77.599,150.499 76.947,150.499 76.295,150.499 75.968,150.148 75.968,149.445 75.968,148.741 75.968,148.038 75.968,147.688    75.645,146.981 75.968,146.632 76.295,146.981 76.621,147.335 76.947,147.335 77.275,146.981 77.927,146.981 78.252,146.981    78.577,146.981 78.904,146.981 79.228,146.981 79.557,146.632 79.881,145.928 80.531,145.928 81.186,145.928 81.51,145.576    81.838,145.576 81.838,144.873 81.838,144.521 81.838,143.818 82.161,143.466 82.49,143.114 82.161,142.762 82.161,142.061    81.838,141.708 81.838,141.004 81.838,140.303 81.838,139.599 81.838,138.896 81.51,138.192 81.51,137.841 81.51,137.136    81.186,136.785 81.186,136.436 81.186,135.731 81.186,135.38   " id="upazila_372" area="upazlia" name="bhangura" bengali="ভাঙ্গুড়া" parent="pabna"></polygon><polygon points="55.762,171.947 57.066,171.947 57.718,171.947 58.043,171.947 58.369,171.947 58.695,172.299    59.022,172.299 59.347,172.299 59.672,172.299 60,172.299 60,172.648 60.325,172.648 60.651,172.648 61.304,172.648    61.304,173.002 61.954,173.002 62.933,173.002 63.584,173.002 64.237,173.002 64.562,172.648 65.538,173.002 65.866,173.002    66.517,173.002 67.495,173.354 67.821,173.354 68.146,173.354 68.146,173.705 68.146,174.058 68.473,174.408 68.799,174.408    69.124,174.408 69.124,174.76 69.451,175.109 70.102,175.109 70.428,175.109 70.756,175.109 71.08,175.109 71.731,175.463    72.06,175.463 72.384,175.814 72.384,176.166 72.384,176.518 72.71,176.869 73.035,176.518 73.688,176.166 74.014,176.166    74.341,175.814 74.341,175.463 74.664,175.109 74.992,174.76 75.317,174.408 75.968,174.408 76.295,174.76 76.295,175.109    76.621,175.463 76.948,175.814 76.948,176.166 77.599,176.518 77.927,176.518 78.252,176.518 78.577,176.869 78.903,177.222    79.229,177.571 79.881,177.222 80.206,177.222 80.532,176.869 80.858,176.869 81.185,176.869 81.511,176.869 81.836,177.571    81.836,177.925 81.511,178.275 81.511,178.626 81.836,178.626 82.161,178.626 82.489,178.275 82.489,176.869 82.815,176.518    83.14,176.518 83.465,176.869 83.465,177.222 83.465,177.571 83.79,177.925 84.118,177.925 84.444,177.925 84.769,178.275    85.096,178.626 85.421,179.331 85.421,180.032 85.747,180.386 86.073,180.737 86.4,181.091 86.725,181.439 86.725,182.143    86.725,182.494 86.725,183.199 86.4,183.55 86.4,183.902 85.747,184.253 85.421,184.253 85.421,185.306 85.096,185.659    84.769,186.363 85.096,186.713 85.421,187.416 85.421,188.12 85.747,188.823 85.747,189.176 85.747,189.528 85.747,189.877    85.747,190.231 85.747,190.936 86.073,191.286 85.747,191.636 84.118,193.747 83.14,194.8 82.815,195.502 82.489,196.208    82.161,197.265 82.161,199.02 81.836,199.02 81.836,198.67 80.858,199.02 79.556,199.373 78.903,199.02 78.252,198.67    77.599,197.964 76.948,197.265 76.621,196.558 75.968,195.855 75.317,195.855 74.664,195.502 74.014,195.502 73.364,194.8    73.035,194.097 72.71,193.395 72.06,192.337 71.731,191.989 71.08,191.636 70.428,191.636 70.102,191.286 69.124,190.936    68.473,190.936 67.495,190.579 66.517,190.231 65.538,189.877 64.888,189.528 64.237,189.176 63.584,188.823 63.258,188.823    62.933,189.176 62.28,190.579 61.954,191.636 61.629,192.691 61.304,193.395 61.304,193.747 60.976,194.449 60.651,194.449    59.672,194.8 59.347,195.153 58.695,195.855 58.369,196.208 57.718,196.208 57.391,196.208 56.74,195.502 56.74,194.8    56.414,194.449 56.087,194.097 56.087,193.041 55.762,191.636 55.436,190.936 55.109,190.231 54.782,189.877 54.458,189.877    54.132,190.579 53.479,191.286 53.155,191.989 52.501,192.691 51.525,192.691 50.872,192.691 50.872,191.636 50.872,191.286    50.872,190.579 50.872,190.231 50.546,189.528 50.546,189.176 50.221,188.472 49.894,187.769 49.894,186.713 49.894,185.659    49.894,185.306 49.894,184.253 49.894,183.55 49.894,183.199 49.894,182.847 49.894,182.143 49.894,181.091 49.894,180.386    49.894,179.682 49.569,179.331 49.569,178.626 49.569,178.275 49.569,177.925 49.569,177.571 49.243,176.869 49.243,176.518    49.243,175.463 49.243,175.109 49.243,174.76 49.569,174.408 49.569,174.058 49.894,174.058 50.546,174.058 50.872,174.058    51.525,174.058 52.176,174.058 52.828,173.705 53.155,173.354 53.155,173.002 53.479,172.648 54.132,172.648 54.132,172.299    54.782,172.299   " id="upazila_376" area="upazlia" name="pabnasadar" bengali="পাবনা-সদর" parent="pabna"></polygon><polygon points="85.421,185.306 85.747,186.011 86.074,186.011 86.4,186.363 87.051,186.363 87.378,186.363    87.703,186.011 87.703,185.306 88.029,184.957 88.682,184.957 89.008,184.957 89.332,185.306 89.658,185.306 89.658,185.659    89.984,186.011 90.311,186.011 90.962,186.713 91.941,187.769 91.941,188.12 91.941,188.47 91.615,188.823 91.615,189.176    91.941,189.176 92.266,189.526 92.916,189.526 93.244,189.526 93.57,189.176 93.897,189.176 94.22,189.526 94.55,189.879    94.55,189.526 94.875,189.526 95.2,189.176 95.2,188.823 95.526,188.47 95.852,188.12 96.504,188.12 96.829,188.47    97.156,188.823 97.481,189.176 97.481,189.526 97.808,189.526 98.459,189.879 98.784,189.879 99.763,189.526 100.413,189.176    100.741,188.823 101.067,189.176 101.392,189.176 101.392,189.879 101.067,190.231 101.392,190.58 101.719,190.58 102.044,190.58    102.696,190.231 103.023,189.879 103.348,189.879 104.001,189.526 104.652,189.176 105.305,189.176 105.955,189.176    107.259,189.176 107.91,189.526 108.889,189.526 109.214,189.526 109.866,189.526 110.518,189.879 111.498,189.526    111.822,189.879 112.474,190.231 111.822,190.933 111.498,191.286 111.17,191.286 110.195,191.636 109.866,191.988    109.866,192.337 109.866,192.691 110.518,192.691 110.845,192.691 111.17,192.691 111.498,193.043 112.149,193.043    112.474,193.746 112.802,194.097 113.127,194.8 113.779,195.153 113.779,195.503 114.103,196.206 113.779,196.558    113.452,196.911 113.127,196.911 112.802,196.558 112.474,196.558 112.149,196.206 111.822,196.206 111.498,196.206    111.17,196.558 110.845,196.558 110.518,196.558 110.195,196.558 109.866,196.558 109.539,196.911 109.866,197.262    110.195,197.613 110.845,197.967 111.498,198.315 111.822,198.315 112.149,199.02 111.822,199.373 111.822,199.722    112.474,199.722 112.802,199.722 113.127,199.722 113.452,199.373 113.779,199.373 114.431,199.373 114.431,200.075    114.431,200.427 114.756,200.779 114.756,201.131 114.431,202.184 114.431,202.888 114.431,203.239 114.431,203.942    114.756,204.295 115.082,204.645 114.756,205.348 114.756,205.701 114.431,206.402 114.431,206.756 114.431,207.108    114.756,207.458 115.082,208.162 115.082,208.865 115.406,209.215 116.711,210.975 117.365,212.029 118.015,212.732    118.34,213.786 117.365,213.786 115.733,213.786 115.082,213.436 114.103,213.436 113.779,214.138 113.127,214.138    112.802,214.49 111.822,214.138 110.518,213.786 109.866,213.786 109.214,213.786 108.889,214.49 107.91,214.845 107.259,214.845    106.281,214.845 105.305,214.845 104.977,214.49 104.652,214.138 104.977,213.436 104.652,213.436 103.674,213.436    103.023,213.436 102.696,213.436 102.044,213.083 101.392,213.083 100.741,213.083 100.088,213.436 99.438,213.083    98.784,212.732 98.134,212.029 97.808,211.677 97.156,211.326 96.829,210.975 96.179,210.624 95.852,210.27 95.2,209.92    93.57,209.215 91.941,207.809 90.311,206.756 89.008,205.701 88.682,204.998 86.725,203.591 85.421,202.888 84.769,202.536    84.118,201.834 83.465,200.427 82.815,199.373 82.161,199.02 82.161,197.262 82.49,196.206 82.815,195.503 83.14,194.8    84.118,193.746 85.747,191.636 86.074,191.286 85.747,190.933 85.747,190.231 85.747,189.879 85.747,189.526 85.747,189.176    85.747,188.823 85.421,188.12 85.421,187.418 85.096,186.713 84.769,186.363 85.096,185.659   " id="upazila_378" area="upazlia" name="sujanagar" bengali="সুজানগর" parent="pabna"></polygon><polygon points="112.149,169.484 113.127,169.837 113.452,169.837 113.778,169.837 113.778,170.541    114.103,170.541 114.431,170.891 114.431,171.244 115.081,171.244 115.406,171.597 115.733,171.597 116.06,171.597    116.386,171.947 117.036,171.947 117.69,171.947 118.015,172.299 118.665,172.299 119.319,172.647 119.644,173.002    120.948,174.058 121.275,174.408 121.926,174.76 122.251,175.109 122.251,175.463 122.904,176.166 122.904,177.571    122.904,178.275 122.904,178.979 123.229,179.331 123.229,179.682 123.557,179.331 123.882,178.979 124.207,178.626    124.532,178.626 124.859,178.979 125.186,178.979 125.186,179.331 125.186,179.682 125.511,180.032 125.511,180.386    125.511,180.737 125.511,181.091 126.162,181.439 126.49,181.792 127.466,181.792 127.793,182.143 128.77,182.847    128.118,183.199 127.466,183.55 126.815,184.253 125.837,184.605 125.186,185.306 124.859,186.012 124.532,186.012    124.532,188.12 124.207,190.231 124.207,190.936 124.207,191.636 124.207,192.691 123.882,193.395 123.557,193.747    123.557,194.097 123.557,194.8 123.557,195.153 123.229,195.502 123.557,195.855 123.882,196.208 124.532,195.855    125.186,196.208 125.186,196.911 125.186,197.261 125.186,197.964 125.511,199.02 125.511,199.721 125.511,200.077    125.511,200.426 125.186,200.779 125.186,201.131 125.186,201.834 125.186,202.181 124.859,202.537 124.859,203.239    124.532,203.591 124.532,203.943 124.532,204.295 124.859,204.645 125.186,203.239 125.511,202.886 125.837,202.886    125.837,203.239 125.837,203.591 126.162,204.295 126.49,204.645 126.49,204.998 126.815,205.348 127.141,206.052    127.466,206.404 128.118,207.105 128.77,207.809 129.097,208.512 129.422,208.867 129.748,209.568 129.748,209.92 129.097,209.92    128.77,210.27 128.447,210.624 127.141,210.975 126.815,210.975 126.162,212.029 125.511,212.732 125.186,213.083    124.859,213.436 123.557,213.083 122.904,213.436 121.6,213.786 120.296,213.786 118.665,213.786 118.34,213.786 118.015,212.732    117.364,212.029 116.711,210.975 115.406,209.218 115.081,208.867 115.081,208.162 114.754,207.458 114.431,207.105    114.431,206.756 114.431,206.404 114.754,205.701 114.754,205.348 115.081,204.645 114.754,204.295 114.431,203.943    114.431,203.239 114.431,202.886 114.431,202.181 114.754,201.131 114.754,200.779 114.431,200.426 114.431,200.077    114.431,199.373 113.778,199.373 113.452,199.373 113.127,199.721 112.802,199.721 112.472,199.721 111.822,199.721    111.822,199.373 112.149,199.02 111.822,198.315 111.496,198.315 110.845,197.964 110.193,197.614 109.866,197.261    109.539,196.911 109.866,196.558 110.193,196.558 110.518,196.558 110.845,196.558 111.168,196.558 111.496,196.208    111.822,196.208 112.149,196.208 112.472,196.558 112.802,196.558 113.127,196.911 113.452,196.911 113.778,196.558    114.103,196.208 113.778,195.502 113.778,195.153 113.127,194.8 112.802,194.097 112.472,193.747 112.149,193.041    111.496,193.041 111.168,192.691 110.845,192.691 110.518,192.691 109.866,192.691 109.866,192.337 109.866,191.988    110.193,191.636 111.168,191.286 111.496,191.286 111.822,190.936 112.472,190.231 112.802,189.528 113.452,188.823    113.452,188.472 113.452,188.12 113.452,187.769 113.778,187.769 114.431,187.769 114.754,187.769 114.754,187.416    114.754,187.067 114.431,187.067 114.103,187.067 114.431,186.713 114.431,186.363 114.431,185.659 114.103,184.956    114.103,184.253 113.778,183.199 113.452,182.847 113.452,182.494 113.452,182.143 113.127,181.792 112.802,181.792    112.802,181.439 113.127,181.091 113.127,180.737 112.802,180.386 112.802,180.032 112.802,179.682 112.472,179.331    112.149,178.626 111.496,178.275 111.496,177.925 111.496,177.222 111.822,176.869 112.149,176.517 112.472,176.517    112.472,176.166 112.802,175.463 112.472,175.109 112.472,174.408 112.472,174.058 112.472,173.705 112.802,173.705    113.127,173.354 112.802,173.002 112.802,172.299 112.802,171.947 112.802,171.597 113.127,171.244 113.127,170.891    113.127,170.541   " id="upazila_371" area="upazlia" name="bera" bengali="বেড়া" parent="pabna"></polygon><polygon points="101.719,164.915 102.044,165.267 102.372,164.915 102.372,164.562 102.696,164.562    102.696,164.915 103.023,164.915 103.346,165.267 103.346,164.915 103.676,164.915 104.001,164.915 104.001,165.267    104.001,165.97 104.326,165.97 104.652,165.618 104.652,165.267 104.652,164.915 105.628,165.618 106.281,165.618 106.281,165.97    106.281,166.321 106.281,166.672 105.628,166.672 105.305,167.024 105.628,167.377 105.956,167.727 106.281,168.079    106.607,168.079 106.934,167.727 107.259,167.377 107.909,167.727 108.238,167.727 108.564,168.079 108.889,168.079    109.539,168.431 109.867,168.431 110.193,168.431 110.518,168.781 110.518,169.134 111.17,169.487 111.498,169.487    112.15,169.487 113.125,170.539 113.125,170.891 113.125,171.244 112.802,171.594 112.802,171.945 112.802,172.299    112.802,173.001 113.125,173.354 112.802,173.705 112.472,173.705 112.472,174.056 112.472,174.406 112.472,175.111    112.802,175.462 112.472,176.166 112.472,176.517 112.15,176.517 111.821,176.868 111.498,177.222 111.498,177.924    111.498,178.274 112.15,178.626 112.472,179.329 112.802,179.681 112.802,180.033 112.802,180.386 113.125,180.735    113.125,181.091 112.802,181.439 112.802,181.792 113.125,181.792 113.453,182.142 113.453,182.496 113.453,182.847    113.779,183.199 114.101,184.253 114.101,184.957 114.432,185.659 114.432,186.363 114.432,186.713 114.101,187.066    114.432,187.066 114.754,187.066 114.754,187.416 114.754,187.769 114.432,187.769 113.779,187.769 113.453,187.769    113.453,188.12 113.453,188.47 113.453,188.823 112.802,189.526 112.472,190.231 111.821,189.877 111.498,189.526    110.518,189.877 109.867,189.526 109.214,189.526 108.889,189.526 107.909,189.526 107.259,189.176 105.956,189.176    105.305,189.176 104.652,189.176 104.001,189.526 103.346,189.877 103.023,189.877 102.696,190.231 102.044,190.58    101.719,190.58 101.394,190.58 101.066,190.231 101.394,189.877 101.394,189.176 101.066,189.176 100.741,188.823    100.413,189.176 99.763,189.526 98.784,189.877 98.459,189.877 97.809,189.526 97.48,189.526 97.48,189.176 97.156,188.823    96.83,188.47 96.504,188.12 95.851,188.12 95.527,188.47 95.201,188.823 95.201,189.176 94.875,189.526 94.55,189.526    94.55,189.877 94.22,189.526 93.897,189.176 93.569,189.176 93.246,189.526 92.916,189.526 92.266,189.526 91.941,189.176    91.615,189.176 91.615,188.823 91.941,188.47 91.941,188.12 91.941,187.769 90.962,186.713 90.312,186.011 89.984,186.011    89.658,185.659 89.658,185.306 89.333,185.306 89.007,184.957 88.682,184.957 88.03,184.957 87.703,185.306 87.703,186.011    87.376,186.363 87.053,186.363 86.4,186.363 86.073,186.011 85.749,186.011 85.421,185.306 85.421,184.253 85.749,184.253    86.4,183.902 86.4,183.549 86.723,183.199 86.723,182.496 86.723,182.142 86.723,181.439 86.4,181.091 86.073,180.735    85.749,180.386 85.421,180.033 85.421,179.329 85.094,178.626 86.4,177.924 86.4,177.572 86.723,177.222 86.723,176.868    86.723,176.517 87.053,176.166 87.376,175.813 87.376,175.462 87.376,175.111 87.376,174.76 87.053,174.406 87.376,173.705    87.053,173.354 86.723,173.001 86.4,172.648 86.073,172.299 86.4,171.594 86.073,171.244 85.749,170.891 85.749,170.539    86.073,170.539 86.723,170.188 86.723,170.891 87.053,170.891 87.053,171.244 87.376,171.244 87.703,171.244 88.03,171.244    88.354,170.891 88.682,170.891 89.007,171.244 89.333,171.244 89.984,171.244 90.312,170.891 90.637,170.539 90.637,170.188    90.962,169.837 90.962,169.134 90.962,168.431 90.637,168.079 90.312,167.727 89.984,167.377 90.312,166.672 90.962,166.672    90.962,166.321 91.286,165.618 91.286,164.915 91.615,164.562 91.941,164.915 92.266,165.267 92.266,165.618 92.593,165.618    92.916,165.618 93.246,164.915 93.569,164.915 94.55,165.267 94.875,165.618 95.527,165.97 95.851,165.618 96.179,165.267    96.179,164.915 96.504,164.562 96.83,164.211 97.156,163.858 97.48,163.858 98.133,163.858 98.459,164.211 98.459,164.915    98.784,164.915 99.113,165.267 99.438,164.915 99.438,164.562 99.763,164.562 100.09,164.915 100.741,164.915   " id="upazila_377" area="upazlia" name="santhia" bengali="সাঁথিয়া" parent="pabna"></polygon><polygon points="90.636,150.499 91.287,150.499 91.615,150.499 92.265,150.499 92.594,150.499 92.916,150.148    93.246,150.148 93.569,150.148 94.22,149.795 94.547,150.148 94.547,150.499 94.547,151.202 94.547,151.555 94.22,151.555    93.897,151.555 93.246,151.555 92.916,151.555 92.916,151.905 93.246,152.256 93.246,152.61 93.246,153.312 93.569,153.663    93.897,153.663 94.22,154.016 94.547,154.016 95.2,154.367 95.527,154.367 95.851,154.367 95.851,154.016 95.851,153.663    95.851,153.312 95.851,152.61 95.851,152.256 96.179,152.256 96.504,152.256 96.829,152.256 97.156,152.61 97.481,152.959    97.809,153.312 98.133,153.312 98.133,152.959 98.458,152.959 98.784,152.959 98.784,153.312 99.112,153.663 99.438,154.367    99.763,154.716 100.413,155.07 100.74,155.422 101.067,155.422 101.392,155.772 101.067,156.125 100.74,156.477 100.413,156.828    100.413,157.18 100.413,157.53 100.413,157.883 100.74,158.234 101.067,158.234 101.392,158.585 101.719,158.937 102.042,158.937    102.372,159.29 102.372,159.64 102.042,159.64 101.719,159.64 101.392,159.992 101.067,159.992 101.067,160.344 101.392,160.694    101.719,160.694 101.719,161.046 101.719,161.397 101.392,161.75 101.067,162.103 101.067,162.805 101.392,163.157    101.392,163.858 101.719,164.915 100.74,164.915 100.09,164.915 99.763,164.562 99.438,164.562 99.438,164.915 99.112,165.267    98.784,164.915 98.458,164.915 98.458,164.213 98.133,163.858 97.481,163.858 97.156,163.858 96.829,164.213 96.504,164.562    96.179,164.915 96.179,165.267 95.851,165.618 95.527,165.97 94.875,165.618 94.547,165.267 93.569,164.915 93.246,164.915    92.916,165.618 92.594,165.618 92.265,165.618 92.265,165.267 91.941,164.915 91.615,164.562 91.287,164.915 91.287,165.618    90.962,166.321 90.962,166.672 90.312,166.672 89.983,167.377 90.312,167.727 90.636,168.08 90.962,168.431 90.962,169.134    90.962,169.837 90.636,170.188 90.636,170.539 90.312,170.891 89.983,171.244 89.332,171.244 89.008,171.244 88.68,170.891    88.354,170.891 88.03,171.244 87.703,171.244 87.376,171.244 87.051,171.244 87.051,170.891 86.725,170.891 86.725,170.188    86.725,169.487 86.725,168.781 86.398,168.781 86.398,168.431 86.073,167.727 85.749,167.377 85.421,167.377 85.421,167.727    85.094,168.431 85.094,168.781 84.769,168.781 84.444,168.781 84.12,168.431 83.79,168.08 83.467,167.727 83.14,167.377    82.814,167.377 82.489,167.377 82.161,167.024 81.838,167.024 81.51,167.377 81.51,167.727 81.186,167.727 80.858,167.377    80.858,167.024 80.531,166.672 80.206,166.672 79.556,166.672 79.881,165.267 80.206,164.915 80.206,164.213 79.881,163.858    79.556,163.51 79.556,163.157 79.556,162.805 79.881,162.453 79.881,162.103 79.881,161.75 80.206,161.397 80.531,161.397    80.531,161.046 80.531,160.344 81.51,160.344 81.51,160.694 81.838,160.694 82.161,161.046 82.489,161.397 82.814,161.397    83.467,161.397 83.467,161.75 83.79,161.75 83.79,161.397 83.79,160.694 83.79,160.344 84.12,160.344 84.444,160.344    84.769,160.344 84.444,159.992 84.444,159.64 84.12,159.64 84.12,159.29 84.444,158.937 84.444,158.234 84.444,157.883    84.769,157.53 85.421,156.828 85.749,156.477 85.749,156.125 85.749,155.772 85.749,155.422 86.073,155.07 86.073,154.716    86.398,154.016 86.725,153.663 86.725,152.959 87.051,152.61 87.376,152.61 87.376,152.256 88.03,152.61 88.354,152.61    88.68,152.256 89.008,152.256 89.658,152.256 90.312,152.256 90.636,152.256 90.636,151.905 90.636,151.555 90.636,150.849   " id="upazila_374" area="upazlia" name="faridpur" bengali="ফরিদপুর" parent="pabna"></polygon></svg>