<svg enable-background="new -106.403 -201.859 629.266 880.536" height="880.536px" id="district_41" viewBox="-106.403 -201.859 629.266 880.536" width="629.266px" x="0px" xml:space="preserve" xmlns="http://www.w3.org/2000/svg" y="0px"><polygon points="267.62,270.746 267.292,271.801 266.967,272.857 267.62,273.912 268.274,273.912 267.946,275.319    267.946,276.722 266.314,276.371 265.338,276.722 264.685,278.132 265.989,279.184 264.685,280.24 264.031,280.24 263.706,280.24    264.031,279.886 263.706,278.482 262.406,277.427 261.427,278.482 261.427,279.886 261.099,280.593 260.448,280.593    258.82,280.944 257.513,280.593 255.884,281.645 257.513,283.403 258.491,284.108 258.491,285.864 258.166,285.864    257.841,286.216 257.513,285.864 257.188,285.514 256.865,285.163 256.537,284.812 255.884,284.458 255.559,283.756    255.234,283.403 254.906,283.403 254.255,283.756 253.93,283.756 253.605,284.108 253.28,284.458 252.951,285.163    252.626,285.864 252.301,285.864 251.973,286.216 251.973,286.566 251.32,286.566 250.997,286.566 250.669,286.216    250.344,285.864 250.019,284.812 249.694,284.812 249.365,284.458 249.04,284.108 248.387,284.108 248.065,283.756    247.737,283.756 246.433,283.403 245.782,283.403 245.454,283.403 244.804,283.403 244.154,283.756 244.154,283.052    243.175,282.698 242.519,282.347 242.197,282.002 241.218,281.645 240.893,280.944 240.24,280.593 239.911,279.886    239.589,279.184 239.589,278.836 239.264,277.777 239.264,277.427 238.939,277.427 238.611,277.076 238.611,276.722    238.611,276.021 238.611,275.673 238.611,275.319 238.939,274.264 239.264,273.558 239.589,272.506 240.24,271.801    240.893,270.746 241.218,270.042 241.871,269.342 241.871,268.638 242.519,268.287 242.847,267.932 242.847,267.231    243.175,266.526 243.5,266.176 243.825,265.474 244.154,264.419 244.154,264.067 244.479,263.36 244.479,262.661 244.804,261.956    245.129,261.255 245.454,260.901 245.782,260.547 246.433,260.547 247.086,260.197 247.737,260.197 248.065,259.848    248.387,260.197 249.04,260.197 249.694,260.197 250.344,259.848 250.669,259.498 250.997,258.793 251.648,258.439    251.973,258.439 252.951,258.088 253.605,258.439 253.93,258.793 254.255,258.793 254.906,259.147 255.234,259.498    255.884,259.848 256.537,260.197 257.513,260.197 257.841,260.197 258.491,260.197 259.145,260.197 259.47,260.901    259.795,261.606 259.47,261.956 259.47,263.012 259.795,263.36 260.774,263.36 261.427,264.419 261.427,264.77 261.099,265.12    261.099,265.824 261.099,266.176 261.427,266.526 262.077,267.231 262.077,267.932 262.406,268.638 262.406,268.992    263.053,269.342 263.706,270.042 264.357,269.689 264.685,270.042 265.013,270.746 265.338,271.096 265.013,271.801    265.338,271.801 265.989,271.45 265.989,271.096 265.989,270.396 265.663,270.396 265.338,270.746 265.013,270.396    265.013,270.042 265.338,269.342 265.663,269.689 266.639,270.042 266.967,270.396 267.292,270.746 267.62,270.396   " id="upazila_56" area="upazlia" name="matlabnorth" bengali="মতলব-উত্তর" parent="chandpur"></polygon><polygon points="258.166,285.864 258.491,285.864 258.491,284.108 257.513,283.403 255.884,281.649    257.513,280.59 258.82,280.941 260.448,280.59 261.099,280.59 261.427,279.886 261.427,278.482 262.406,277.427 263.709,278.482    264.031,279.886 263.709,280.243 264.031,280.243 264.685,280.243 265.989,279.184 264.685,278.132 265.338,276.722    266.314,276.371 267.946,276.722 267.946,275.319 268.271,273.912 267.62,273.912 266.967,272.857 267.292,271.801    267.62,270.746 267.946,270.746 267.946,271.096 268.271,270.746 268.599,270.396 268.921,270.746 269.246,270.396    269.574,270.043 269.574,269.689 269.903,269.339 269.574,268.638 269.903,267.932 269.903,267.582 269.903,267.231    269.903,266.877 270.553,266.877 270.878,266.877 271.206,267.231 271.854,267.582 272.182,267.582 272.182,268.287    272.507,268.638 273.157,268.638 273.157,269.689 273.157,270.396 273.486,270.746 273.486,271.45 273.486,271.801    273.811,272.506 274.139,272.857 274.139,273.558 274.139,273.912 274.139,274.264 274.464,274.968 274.464,275.319    274.464,276.018 274.786,276.371 274.786,277.076 274.786,277.78 275.115,278.132 275.115,278.482 275.44,279.184 275.44,279.534    275.44,279.886 275.768,280.59 276.093,280.941 276.093,281.295 276.418,281.649 276.418,281.999 275.768,281.999 275.44,281.999    275.115,282.347 275.115,282.701 275.44,283.403 275.768,283.756 275.44,284.108 274.464,284.812 274.139,284.812    273.811,284.812 273.157,285.163 272.835,285.163 272.507,284.812 271.854,284.812 271.531,284.461 270.878,284.461    270.878,284.108 270.225,284.108 269.903,284.108 269.246,283.756 268.599,283.756 268.271,283.756 267.946,284.108    267.292,284.108 266.967,284.108 266.967,284.812 267.292,284.812 267.292,285.163 267.292,285.514 267.62,285.864    267.946,286.216 267.946,286.569 267.946,286.92 267.62,287.271 266.967,287.271 266.967,287.625 266.967,287.977    266.642,287.625 266.642,287.271 266.314,287.271 265.989,287.625 266.314,287.977 266.314,288.331 266.314,288.681    265.989,289.028 265.989,289.382 266.314,289.732 266.314,290.084 266.642,290.438 266.967,290.084 267.62,290.084    267.946,290.438 268.271,290.438 268.599,290.789 268.599,291.14 268.599,291.49 268.921,291.844 268.921,292.192    268.921,292.546 268.921,293.25 268.921,293.601 268.921,293.953 268.921,294.657 268.599,294.657 268.271,294.657    267.62,294.657 266.967,293.953 266.642,293.601 266.314,293.25 265.989,292.896 265.663,292.546 265.013,292.192    264.685,292.192 264.357,292.192 264.031,291.844 263.709,291.49 263.053,291.49 262.731,291.14 262.406,291.14 262.08,290.789    262.08,290.438 261.752,290.438 261.099,290.438 260.774,289.732 261.099,289.732 260.774,289.382 260.448,289.382    259.795,289.382 259.47,289.382 259.148,289.028 259.148,288.681 259.148,287.977 258.82,287.625 258.82,286.92 258.82,286.569    258.82,286.216 258.491,285.864   " id="upazila_453" area="upazlia" name="matlabsouth" bengali="মতলব-দক্ষিণ" parent="chandpur"></polygon><polygon points="273.157,268.638 273.814,268.287 273.814,267.582 274.139,266.88 274.464,266.526    274.786,266.526 275.115,266.526 275.768,266.88 276.093,266.526 276.418,266.526 276.746,266.176 276.746,265.477    276.746,265.12 276.746,264.419 277.072,264.067 277.719,264.067 278.375,264.067 278.7,263.713 279.026,263.36 280.007,263.012    280.332,263.012 280.655,263.012 280.98,263.36 280.98,263.713 281.308,264.067 281.308,264.419 281.633,264.77 281.958,264.77    282.286,264.77 282.615,265.12 282.615,265.477 282.94,265.477 283.265,265.477 283.59,265.477 284.24,265.477 284.569,265.477    284.894,266.176 285.219,266.526 285.544,266.88 285.544,267.582 285.544,267.932 285.544,268.287 285.544,268.638    285.872,269.342 285.872,269.689 286.198,270.396 286.198,270.746 286.198,271.45 286.523,271.801 286.848,272.156    286.848,272.506 287.176,272.506 287.501,272.506 287.501,272.854 287.501,273.208 287.501,273.558 287.826,273.912    287.826,274.264 288.155,274.264 288.477,274.264 289.133,274.264 289.455,274.614 289.781,274.965 290.106,275.319    290.762,275.669 291.087,276.021 291.409,276.371 291.74,277.079 292.066,277.079 292.066,277.777 292.066,278.129    292.388,278.482 292.066,278.836 292.066,279.534 292.388,279.886 292.388,280.243 292.388,280.59 292.388,280.944    293.041,281.295 293.369,281.649 294.02,281.649 294.345,281.999 294.998,281.295 295.649,281.295 295.649,281.999    295.649,282.347 295.974,283.052 295.974,283.756 296.302,284.108 296.627,284.458 296.952,284.809 297.281,284.809    297.934,285.167 297.934,285.864 298.257,286.569 298.257,287.271 298.257,287.625 298.257,287.977 298.906,288.331    298.906,288.681 299.232,289.028 299.232,289.378 298.906,290.087 299.232,290.087 299.56,290.087 299.888,290.087    300.214,289.729 300.537,289.729 300.865,289.729 301.189,290.438 301.517,290.789 301.517,291.493 301.843,292.192    302.163,292.546 302.494,292.546 302.821,292.896 303.146,293.25 303.146,293.601 303.146,293.953 303.146,294.303    303.471,295.011 303.8,295.358 303.146,295.709 302.821,295.709 302.163,296.061 301.843,296.061 301.517,295.709    301.189,295.358 300.865,295.011 300.537,294.654 299.888,295.011 299.56,294.654 299.232,294.303 298.906,294.303    298.906,293.953 298.58,293.601 297.934,293.25 297.603,293.25 297.281,293.25 296.952,293.25 296.302,293.25 295.974,292.896    295.649,292.546 295.323,292.546 294.998,292.192 294.345,291.493 293.695,291.493 293.369,291.14 293.041,291.493    292.713,291.14 292.388,291.493 292.066,291.493 291.409,291.493 291.087,291.14 290.762,290.789 290.434,290.438    290.106,290.087 289.781,290.087 289.133,289.729 288.805,289.729 288.477,289.729 288.155,289.729 287.501,290.087    287.176,290.087 287.176,289.729 286.848,289.729 286.523,289.378 286.198,289.028 286.198,288.681 285.872,287.977    285.544,287.977 285.219,287.977 284.894,287.977 284.569,287.977 284.24,288.331 283.59,288.331 283.912,287.977    283.912,287.625 283.265,287.271 283.265,286.92 282.94,286.569 282.286,286.569 281.958,286.569 281.308,286.569    280.655,286.216 280.332,286.569 280.007,286.569 279.351,286.216 278.7,285.864 278.375,285.167 278.05,284.809 277.719,284.108    277.397,284.108 276.746,284.458 276.746,284.108 276.418,283.756 276.093,283.756 275.768,283.756 275.443,283.403    275.115,282.698 275.115,282.347 275.443,281.999 275.768,281.999 276.418,281.999 276.418,281.649 276.093,281.295    276.093,280.944 275.768,280.59 275.443,279.886 275.443,279.534 275.443,279.184 275.115,278.482 275.115,278.129    274.786,277.777 274.786,277.079 274.786,276.371 274.464,276.021 274.464,275.319 274.464,274.965 274.139,274.264    274.139,273.912 274.139,273.558 274.139,272.854 273.814,272.506 273.483,271.801 273.483,271.45 273.483,270.746    273.157,270.396 273.157,269.689   " id="upazila_55" area="upazlia" name="kachua" bengali="কচুয়া" parent="chandpur"></polygon><polygon points="275.768,283.756 276.093,283.756 276.418,283.756 276.746,284.108 276.746,284.458    277.397,284.108 277.719,284.108 278.05,284.812 278.375,285.163 278.7,285.864 279.351,286.216 280.004,286.566 280.332,286.566    280.655,286.216 281.308,286.566 281.958,286.566 282.286,286.566 282.94,286.566 283.265,286.92 283.265,287.271    283.915,287.625 283.915,287.977 283.59,288.331 284.24,288.331 284.566,287.977 284.894,287.977 285.219,287.977    285.544,287.977 285.872,287.977 286.198,288.681 286.198,289.028 286.523,289.378 286.848,289.732 287.176,289.732    287.176,290.084 287.501,290.084 288.152,289.732 288.48,289.732 288.805,289.732 289.133,289.732 289.781,290.084    289.455,290.789 289.455,291.14 289.133,291.49 289.133,291.847 289.455,291.847 289.455,292.195 289.133,292.546    288.805,293.248 289.133,293.601 289.133,293.953 289.133,294.303 289.133,294.654 288.48,294.654 288.152,295.011    287.826,295.011 287.501,295.011 287.501,295.358 287.501,295.709 287.176,296.061 286.848,296.414 286.523,296.414    285.872,296.765 285.544,296.765 285.219,297.116 284.566,297.469 284.566,297.82 284.894,297.82 285.219,297.82 285.872,298.175    286.198,298.175 286.198,298.522 286.198,299.227 285.544,299.227 285.219,299.227 284.894,299.227 284.566,299.577    284.566,299.932 284.566,300.633 284.566,300.984 284.566,301.686 284.566,302.04 284.24,302.39 283.915,302.39 283.59,302.39    282.94,302.741 282.615,302.741 282.615,303.095 282.615,303.445 282.286,303.445 281.958,303.445 281.308,303.797    280.655,304.151 280.004,303.797 280.004,303.095 279.679,302.741 279.679,302.39 279.351,302.39 279.351,301.686    279.351,301.338 279.026,300.984 278.7,301.338 278.05,301.686 277.719,301.686 277.719,300.984 277.072,300.282 276.746,299.932    276.418,299.932 276.093,299.932 276.093,300.282 275.443,300.282 274.786,299.932 274.464,300.282 274.464,300.633    274.139,300.984 273.811,301.338 273.486,301.338 273.16,301.338 272.832,300.633 272.832,300.282 272.832,299.932    272.832,299.227 273.16,298.873 273.486,298.522 273.486,298.175 273.486,297.82 272.832,297.469 272.507,297.469    271.854,297.116 271.531,297.116 271.203,296.765 270.878,296.414 271.203,296.061 271.203,295.709 271.203,295.358    270.553,295.011 269.9,295.011 269.574,295.011 268.921,294.654 268.921,293.953 268.921,293.601 268.921,293.248    268.921,292.546 268.921,292.195 268.921,291.847 268.599,291.49 268.599,291.14 268.599,290.789 268.271,290.438    267.946,290.438 267.62,290.084 266.967,290.084 266.639,290.438 266.314,290.084 266.314,289.732 265.989,289.378    265.989,289.028 266.314,288.681 266.314,288.331 266.314,287.977 265.989,287.625 266.314,287.271 266.639,287.271    266.639,287.625 266.967,287.977 266.967,287.625 266.967,287.271 267.62,287.271 267.946,286.92 267.946,286.566    267.946,286.216 267.62,285.864 267.292,285.514 267.292,285.163 267.292,284.812 266.967,284.812 266.967,284.108    267.292,284.108 267.946,284.108 268.271,283.756 268.599,283.756 269.249,283.756 269.9,284.108 270.225,284.108    270.878,284.108 270.878,284.458 271.531,284.458 271.854,284.812 272.507,284.812 272.832,285.163 273.16,285.163    273.811,284.812 274.139,284.812 274.464,284.812 275.443,284.108   " id="upazila_54" area="upazlia" name="hajiganj" bengali="হাজীগঞ্জ" parent="chandpur"></polygon><polygon points="289.781,290.084 290.106,290.084 290.434,290.438 290.762,290.789 291.087,291.14 291.409,291.49    292.066,291.49 292.388,291.49 292.713,291.14 293.041,291.49 293.369,291.14 293.695,291.49 294.345,291.49 294.998,292.195    295.323,292.546 295.649,292.546 295.974,292.896 296.302,293.248 296.952,293.248 297.281,293.248 297.603,293.248    297.934,293.248 298.58,293.601 298.906,293.953 298.906,294.303 299.232,294.303 299.56,294.654 299.888,295.011    300.537,294.654 300.865,295.011 301.189,295.358 301.517,295.709 301.843,296.061 302.163,296.061 302.821,295.709    303.146,295.709 303.797,295.358 304.123,295.709 304.448,295.709 305.1,296.414 305.1,296.768 305.1,297.116 304.775,297.469    305.1,298.175 305.428,298.522 305.428,298.873 305.428,299.577 305.1,300.282 304.775,300.633 304.448,300.633 303.797,300.984    303.471,301.686 303.146,302.04 303.146,302.39 303.471,302.741 303.797,303.445 303.797,303.797 303.471,303.797    302.821,304.151 302.494,304.501 302.821,304.852 302.494,305.203 302.163,305.553 301.843,305.905 302.163,306.259    302.494,306.612 302.494,306.963 301.843,308.016 301.843,308.367 302.163,308.717 302.494,309.071 303.146,309.776    303.146,310.127 303.146,310.478 303.146,310.829 302.821,311.533 302.494,311.885 302.163,311.885 301.517,311.533    300.865,311.885 300.214,311.885 299.888,312.235 299.232,312.235 298.906,312.585 298.58,312.585 298.257,312.585    297.934,312.585 297.603,312.939 297.281,312.939 296.627,312.939 296.627,312.585 296.302,312.585 296.302,312.235    296.302,311.885 295.974,311.533 295.974,311.179 295.649,311.179 295.323,311.179 294.998,311.179 294.67,311.179    294.345,311.179 294.02,311.179 293.695,311.179 293.041,311.179 292.713,311.179 292.388,310.829 291.74,311.179 291.74,310.829    291.087,310.829 291.087,310.478 290.762,310.478 290.434,310.478 290.434,310.829 290.106,310.829 290.106,310.478    290.106,310.127 290.106,309.776 289.781,309.776 289.455,309.776 289.133,310.127 288.805,310.127 288.477,310.127    288.477,309.776 288.155,309.776 288.155,309.421 287.826,309.071 287.826,308.717 287.501,308.367 287.176,308.367    286.848,308.016 286.523,308.016 286.198,308.016 285.872,308.016 285.544,307.665 285.219,307.665 284.569,307.665    284.24,306.963 283.912,306.612 283.912,306.259 283.912,305.905 283.59,305.203 283.265,305.553 282.94,305.553 282.615,305.203    282.286,304.852 281.633,304.852 280.98,304.501 280.655,304.151 281.308,303.797 281.958,303.445 282.286,303.445    282.615,303.445 282.615,303.095 282.615,302.741 282.94,302.741 283.59,302.39 283.912,302.39 284.24,302.39 284.569,302.04    284.569,301.686 284.569,300.984 284.569,300.633 284.569,299.932 284.569,299.577 284.894,299.227 285.219,299.227    285.544,299.227 286.198,299.227 286.198,298.522 286.198,298.175 285.872,298.175 285.219,297.82 284.894,297.82 284.569,297.82    284.569,297.469 285.219,297.116 285.544,296.768 285.872,296.768 286.523,296.414 286.848,296.414 287.176,296.061    287.501,295.709 287.501,295.358 287.501,295.011 287.826,295.011 288.155,295.011 288.477,294.654 289.133,294.654    289.133,294.303 289.133,293.953 289.133,293.601 288.805,293.248 289.133,292.546 289.455,292.195 289.455,291.847    289.133,291.847 289.133,291.49 289.455,291.14 289.455,290.789   " id="upazila_57" area="upazlia" name="shahrasti" bengali="শাহরাস্তি" parent="chandpur"></polygon><polygon points="272.835,300.633 273.157,301.338 273.486,301.338 273.811,301.338 274.139,300.984    274.464,300.633 274.464,300.282 274.786,299.932 275.443,300.282 276.093,300.282 276.093,299.932 276.418,299.932    276.746,299.932 277.074,300.282 277.719,300.984 277.719,301.686 278.047,301.686 278.7,301.338 279.026,300.984    279.351,301.338 279.351,301.686 279.351,302.39 279.679,302.39 279.679,302.741 280.007,303.095 280.007,303.797    280.655,304.151 280.98,304.501 281.633,304.849 282.286,304.849 282.612,305.203 282.937,305.553 283.265,305.553    283.59,305.203 283.912,305.905 283.912,306.259 283.912,306.612 284.24,306.963 284.569,307.665 284.24,307.665 283.912,307.665    283.59,307.665 283.265,307.665 282.937,307.665 282.937,308.016 282.612,308.016 282.612,308.367 282.286,308.367    281.961,308.717 281.633,308.717 281.633,308.367 281.308,308.717 280.98,308.717 280.98,309.071 280.98,309.421 280.98,309.776    281.308,309.776 281.308,310.127 281.308,310.478 280.98,310.829 280.655,311.179 280.332,311.179 280.007,311.179    280.007,311.533 279.679,311.885 279.679,312.235 279.351,312.939 279.026,312.939 278.7,312.939 277.719,313.29 277.4,313.29    277.074,313.642 277.074,313.996 276.746,313.996 276.418,313.996 276.093,314.346 275.443,314.697 275.115,314.697    274.786,314.697 274.464,314.697 274.139,315.047 274.139,315.401 274.139,315.753 274.139,316.103 273.811,316.103    273.811,316.457 273.811,316.808 273.486,317.159 273.486,317.507 273.486,318.214 273.486,318.565 273.486,318.916    273.486,319.266 273.486,319.62 273.486,319.972 273.486,320.322 273.486,320.673 273.157,320.673 272.835,321.023    272.507,321.023 272.182,321.023 271.854,321.023 271.531,321.023 270.878,321.023 270.553,321.377 270.225,321.377    269.903,321.729 269.574,321.729 269.246,322.08 268.921,322.08 268.271,322.43 268.271,322.784 268.596,323.134 268.271,323.134    268.271,323.488 267.946,323.488 267.62,323.84 267.292,323.84 266.967,324.188 266.642,324.188 266.317,324.542 265.989,324.892    265.663,324.892 265.663,325.242 265.663,325.598 265.338,325.598 264.685,325.598 264.357,325.598 264.031,325.598    263.706,325.242 263.053,324.892 263.053,324.542 262.731,324.188 262.406,324.188 262.08,323.84 261.755,323.488 261.427,323.84    261.099,323.488 260.774,323.134 260.448,323.134 260.12,323.134 259.795,323.134 259.795,322.784 259.47,322.784 259.47,322.08    259.47,321.729 259.148,321.023 258.82,321.023 258.82,320.673 258.82,320.322 259.148,319.62 258.82,319.62 258.491,319.266    258.491,318.916 258.491,318.565 257.841,318.565 257.841,318.214 257.841,317.861 257.841,317.507 257.841,317.159    258.166,317.159 258.491,317.159 258.491,316.808 258.491,316.457 258.491,316.103 258.491,315.753 258.166,315.401    258.491,314.697 258.82,314.346 259.148,313.996 259.148,313.642 258.82,313.29 259.148,312.585 259.47,312.235 259.795,311.533    260.448,310.478 261.099,310.127 261.099,309.421 260.774,309.071 261.099,308.717 261.099,308.016 261.099,307.313    260.774,306.963 260.448,307.313 260.12,307.313 260.12,306.963 260.448,306.612 260.448,306.259 260.774,305.905    261.099,305.553 261.099,305.203 260.774,305.203 260.774,304.849 260.774,304.501 261.427,303.797 261.755,303.797    262.08,303.797 262.08,303.445 262.406,303.095 262.731,302.741 263.053,302.39 263.381,302.741 263.381,303.095 263.706,303.445    264.031,303.095 264.357,303.095 264.357,302.741 264.031,302.39 264.031,302.04 264.357,301.686 264.031,301.338    264.357,300.633 264.031,300.633 263.706,300.633 264.031,300.282 263.706,299.577 264.031,299.227 264.357,298.873    265.013,298.522 265.663,298.522 265.338,298.873 265.663,299.227 265.663,299.932 266.317,299.577 266.317,299.932    266.642,300.282 266.967,300.282 267.292,300.282 267.292,299.932 267.946,299.577 268.271,299.227 268.271,298.873    268.596,298.522 268.596,298.175 268.921,298.873 269.246,298.873 268.921,299.577 268.271,299.577 268.271,299.932    268.596,300.282 268.921,300.282 269.246,300.282 269.574,299.932 269.903,300.282 270.225,300.282 270.553,299.932    270.878,299.932 271.531,300.633 271.531,300.282   " id="upazila_52" area="upazlia" name="faridgonj" bengali="ফরিদগঞ্জ" parent="chandpur"></polygon><polygon points="242.847,310.478 242.847,310.127 243.825,309.421 244.154,308.717 244.804,308.016    245.132,307.665 245.132,307.313 245.78,306.612 246.433,307.313 246.758,307.313 247.086,308.016 247.411,308.367    247.737,309.071 248.39,309.776 249.037,310.478 249.365,310.478 249.365,311.179 249.365,311.881 249.365,312.235    249.694,312.939 250.019,313.29 250.344,313.642 250.997,313.642 251.648,313.996 251.973,314.346 252.626,314.697    253.28,314.697 253.93,314.697 254.58,314.697 255.231,314.697 255.887,314.346 256.537,313.996 257.188,313.642 257.841,312.939    258.491,312.939 258.82,313.29 259.145,313.642 259.145,313.996 258.82,314.346 258.491,314.697 258.166,315.401 258.491,315.753    258.491,316.103 258.491,316.457 258.491,316.808 258.491,317.159 258.166,317.159 257.841,317.159 257.841,317.509    257.841,317.861 257.841,318.211 257.841,318.562 258.491,318.562 258.491,318.916 258.491,319.266 258.82,319.62 259.145,319.62    258.82,320.325 258.82,320.676 258.82,321.023 259.145,321.023 259.47,321.729 259.47,322.08 259.47,322.784 259.145,322.784    258.82,323.134 258.166,323.488 257.841,323.488 257.513,323.84 257.513,324.19 257.188,324.19 256.865,324.19 256.537,324.19    256.212,324.542 255.887,324.892 256.212,325.598 256.212,325.951 256.537,326.302 256.537,326.652 256.537,327.003    256.537,327.354 256.212,327.354 256.212,327.706 255.887,327.706 255.887,328.056 255.887,328.41 256.212,328.76 256.537,328.76    256.865,328.76 257.188,328.76 257.188,329.111 257.188,329.465 256.865,329.465 256.537,329.465 256.212,329.465    256.212,329.816 256.212,330.17 256.212,330.518 256.212,330.868 255.887,331.574 255.231,331.928 254.906,332.278    254.58,332.629 254.255,332.629 253.93,332.979 253.605,333.333 252.951,334.032 252.301,333.333 251.973,332.979    251.648,332.278 250.997,331.928 250.669,331.574 250.019,331.574 249.037,331.574 248.715,331.574 248.39,331.222    247.737,330.518 247.411,329.816 247.086,329.465 247.086,329.111 246.105,328.41 245.454,327.354 245.132,327.003    244.476,326.652 244.154,326.302 243.172,325.598 242.522,324.892 241.871,324.19 241.543,323.488 240.568,322.784    239.911,322.43 239.586,322.08 239.264,321.729 239.264,321.377 239.264,320.676 239.264,320.325 238.939,319.266    239.264,318.562 239.264,317.861 239.264,317.509 239.586,316.457 239.911,315.401 240.24,314.697 240.893,313.996    241.218,313.29 241.543,312.589 242.197,311.881 242.522,310.829   " id="upazila_53" area="upazlia" name="haimchar" bengali="হাইমচর" parent="chandpur"></polygon><polygon points="244.154,283.756 244.804,283.403 245.454,283.403 245.78,283.403 246.433,283.403    247.737,283.756 248.062,283.756 248.39,284.108 249.037,284.108 249.365,284.458 249.694,284.812 250.019,284.812    250.344,285.864 250.669,286.216 250.997,286.566 251.323,286.566 251.973,286.566 251.973,286.216 252.301,285.864    252.626,285.864 252.951,285.163 253.28,284.458 253.605,284.108 253.93,283.756 254.255,283.756 254.906,283.403    255.231,283.403 255.559,283.756 255.887,284.458 256.537,284.812 256.865,285.163 257.188,285.514 257.513,285.864    257.841,286.216 258.166,285.864 258.491,285.864 258.82,286.216 258.82,286.566 258.82,286.92 258.82,287.625 259.145,287.977    259.145,288.681 259.145,289.028 259.47,289.378 259.795,289.378 260.448,289.378 260.774,289.378 261.099,289.732    260.774,289.732 261.099,290.438 261.755,290.438 262.08,290.438 262.08,290.789 262.406,291.14 262.728,291.14 263.053,291.49    263.706,291.49 264.031,291.847 264.357,292.195 264.685,292.195 265.013,292.195 265.663,292.546 265.989,292.896    266.317,293.248 266.642,293.601 266.967,293.953 267.62,294.654 268.271,294.654 268.596,294.654 268.921,294.654    269.574,295.011 269.903,295.011 270.553,295.011 271.206,295.358 271.206,295.709 271.206,296.061 270.878,296.414    271.206,296.765 271.531,297.116 271.854,297.116 272.507,297.469 272.835,297.469 273.486,297.82 273.486,298.175    273.486,298.522 273.157,298.873 272.835,299.227 272.835,299.932 272.835,300.282 272.835,300.633 271.531,300.282    271.531,300.633 270.878,299.932 270.553,299.932 270.225,300.282 269.903,300.282 269.574,299.932 269.246,300.282    268.921,300.282 268.596,300.282 268.271,299.932 268.271,299.577 268.921,299.577 269.246,298.873 268.921,298.873    268.596,298.175 268.596,298.522 268.271,298.873 268.271,299.227 267.946,299.577 267.292,299.932 267.292,300.282    266.967,300.282 266.642,300.282 266.317,299.932 266.317,299.577 265.663,299.932 265.663,299.227 265.338,298.873    265.663,298.522 265.013,298.522 264.357,298.873 264.031,299.227 263.706,299.577 264.031,300.282 263.706,300.633    264.031,300.633 264.357,300.633 264.031,301.338 264.357,301.686 264.031,302.04 264.031,302.39 264.357,302.741    264.357,303.095 264.031,303.095 263.706,303.445 263.381,303.095 263.381,302.741 263.053,302.39 262.728,302.741    262.406,303.095 262.08,303.445 262.08,303.797 261.755,303.797 261.427,303.797 260.774,304.501 260.774,304.849    260.774,305.203 261.099,305.203 261.099,305.553 260.774,305.905 260.448,306.255 260.448,306.612 260.12,306.963    260.12,307.313 260.448,307.313 260.774,306.963 261.099,307.313 261.099,308.016 261.099,308.717 260.774,309.071    261.099,309.421 261.099,310.127 260.448,310.478 259.795,311.533 259.47,312.235 259.145,312.585 258.82,313.29 258.491,312.939    257.841,312.939 257.188,313.642 256.537,313.996 255.887,314.346 255.231,314.697 254.58,314.697 253.93,314.697 253.28,314.697    252.626,314.697 251.973,314.346 251.648,313.996 250.997,313.642 250.344,313.642 250.019,313.29 249.694,312.939    249.365,312.235 249.365,311.885 249.365,311.179 249.365,310.478 249.037,310.478 248.39,309.776 247.737,309.071    247.411,308.367 247.086,308.016 246.758,307.313 246.433,307.313 245.78,306.612 246.105,305.905 246.433,305.905    247.086,304.849 247.411,304.501 247.411,304.151 247.411,303.445 247.411,302.741 247.411,302.04 247.411,301.686    247.737,301.338 248.39,300.984 248.715,300.633 248.715,299.932 248.715,299.227 248.39,298.175 248.062,297.469    247.411,296.061 247.086,295.011 246.758,294.303 246.433,293.953 246.105,293.248 245.78,292.546 245.454,291.847    244.804,290.789 244.476,290.084 244.154,289.028 243.825,288.681 243.825,288.331 243.5,287.625 243.172,287.271 243.172,286.92    243.172,285.864 243.5,285.514 243.825,284.812 243.825,284.458 243.825,284.108   " id="upazila_51" area="upazlia" name="chandpur" bengali="চাঁদপুর" parent="chandpur"></polygon></svg>