<svg enable-background="new -106.403 -201.859 629.266 880.536" height="880.536px" id="district_41" viewBox="-106.403 -201.859 629.266 880.536" width="629.266px" x="0px" xml:space="preserve" xmlns="http://www.w3.org/2000/svg" y="0px"><path d="M119.646,489.794h-1.305l-1.955-1.408l-0.979-1.754l-0.976-2.115l-1.63-0.701h-1.633h-1.629l-1.305-0.703    l-0.979-0.703l-0.979-0.705v-1.057l0.652-0.697l0.978-1.057l1.631-0.705l1.306-1.053l0.976-2.109l-0.976-1.055l-1.957-1.059    l-1.63-1.053l-0.325-1.057l0.65-1.406l0.651-1.758l0.978-2.109l0.652-2.107l0.65-2.111l0.651-1.758l-0.323-0.705l-0.651-1.758    l-0.979-1.055l-0.649-1.408l-0.979-1.406l-0.979-1.404l-0.649-1.055l-0.65-1.055V448.3l0.65-0.701l0.649-1.057l0.652-0.354    l2.281-1.754l0.978-0.703l0.328-1.406l-0.328-2.112l-0.323-1.403l0.323-1.405l0.328-0.708l0.651-1.051l0.65-0.355l0.651-0.702    l0.325-0.351l0.325-1.059l0.325-0.697l0.324-0.707v-0.352l1.304-2.107v-0.704l0.654-0.354h0.649h0.326l0.326-0.35h0.652h0.977    l1.304,0.35l1.306,0.354l0.651,0.704l0.324,0.348l0.326,0.704l0.652,1.057l0.65,0.705l0.651,1.052l0.326,0.705v0.703v1.057    l-0.326,1.051l0.326,0.708l0.649,0.351h0.652l0.649,0.352h1.307l0.325,0.35l-0.652,1.057l-0.652,1.406l-0.649,1.057l-0.979,1.404    l-0.978,1.41l-0.979,0.701l-0.651,1.76v0.354v1.404l0.326,0.352h0.325l1.306-0.352l0.649,0.352v0.35l-1.305,0.355l-0.325,0.703    l-0.325,1.406v0.701l0.325,1.76l0.652,1.758l0.326,1.762v2.812l0.324,2.461l-0.324,1.4l-0.326,1.41l-0.979,1.057l-0.979,0.352    l-0.978,0.703l-0.326,1.053l0.326,1.758l0.978,0.705l0.979,1.41l-0.325,1.049l-0.651,0.707l-0.978,1.762l-0.652,1.756v1.055    l0.326,1.402l0.326,1.41l-0.326,1.057l-0.326,1.402l-0.65,2.111l-0.652,2.109L119.646,489.794z M133.988,465.531l-0.325,0.354    l-0.327,0.703l-0.649,0.705l-0.328,0.352l-0.324,0.705l-0.326,0.35l-0.324,0.352v0.352l-0.325,0.354l-0.327,0.705l-0.326,0.35    l-0.324,0.352v0.705v0.35l0.324,0.355h0.326l0.652,0.35l0.324,0.705v0.354v0.348h-0.324v0.354l-0.325,0.352l-0.327,0.354v0.701    v0.354l0.327,0.705v0.348v0.35l-0.327,0.357l-0.326,0.352l-0.324,0.35l-0.327,0.352l-0.326,0.355v0.354l0.326,0.352v0.699v0.705    l0.327,0.352l0.324,0.705l0.653,0.354h0.649l0.979,0.701l0.323,0.352h0.326l-0.326,0.703h-0.323h-0.652h-0.65l-0.325,0.355h-0.327    l-0.65,0.35h-0.653l-1.303,0.352l-0.325,0.354l-0.327,0.355l-0.325-1.059l-0.649-1.76l0.649-1.053l0.652-0.705l0.979-0.352    l0.326-0.35l0.324-1.762v-1.053l0.325-1.059l0.327-0.697v-1.059l0.324-1.053l0.326-0.701l-0.326-0.705v0.352l-0.324,0.701    l-0.652,0.705l0.325,0.703l-0.325,1.057v0.352l-0.324,0.701l-0.326,0.354l-0.324,0.705l0.65,0.699v0.709l-0.326,0.348v0.354    l-0.324,0.354v0.352h-0.652v0.35l-0.979,0.352l-0.653,0.709l-0.649,0.352l0.324,1.049l0.325,0.707l0.653,1.758v0.701l-0.325,0.705    l-0.328,0.354l-0.649,0.705l-0.652,1.053l0.652,1.404l1.305,0.354l0.324,0.707l0.325,0.352v0.699l0.327,0.705l0.325,0.705    l0.651,0.703l0.326,0.352l0.323,0.701v1.057l0.326,1.41l0.979,0.346l0.327,0.705l-0.327,0.355v0.35l-0.65,0.354h-0.327    l-0.649-0.354h-0.326l-0.979,0.354h-0.652l-0.979-0.354h-0.649l-1.305-0.35l-0.325-1.061v-0.695h-0.652l-0.978-0.355l-2.606-1.057    l-0.651-0.35v-1.053l-0.326-0.705l-0.324-1.406l-0.979-1.053l0.325-0.709l0.651-0.699l0.979-0.352l0.977-0.707l0.652-1.053    l0.325-1.059l0.325-1.053l0.651-1.406l0.325-1.76l0.326-0.705l-0.326-1.049l-0.325-1.057v-1.408v-1.406l0.651-1.406l0.651-1.406    l0.325-0.354l0.65-1.053l0.324-1.406l-0.324-1.406l-0.978-0.705l-0.979-0.701l-0.325-1.057l0.651-0.705l0.978-0.35l0.979-0.701    l0.652-1.057l0.324-1.057v-1.758v-1.406v-2.111l0.325-0.699l0.328-0.355l0.649-0.354l1.631-0.352h0.978l0.979,1.408l0.979,1.057    l0.326,1.055l0.652,1.408l0.324,1.055L133.988,465.531z M106.281,395.213l0.979-0.704l0.325,0.354v0.35l0.651,0.351v0.708h0.326    l0.649,0.351h0.327l0.325-0.351l0.327,0.351l0.323,0.35l0.651,0.702v0.354l0.328,0.702l0.65,0.704l0.324,0.705h0.652l0.325,0.354    h0.979h0.323h0.326l0.651,0.347h0.65l0.325-0.347l0.326,0.347h0.651l0.327,0.354v0.705v0.351l0.324,0.351l0.324,0.354h0.326    l0.652-0.354l0.324-0.351V401.9h0.652h0.325h0.65h0.651l0.325,0.351l0.651,0.351l0.326,0.354l0.65,0.35v0.354v0.352v0.354    l0.65,0.354h0.652l0.324,0.351v0.35h0.653v0.705l0.325,0.705v0.347l0.324,0.708l0.324,0.351l-0.324,0.351h-0.649h-0.328h-0.325    l-0.324-0.351h-0.325l-0.327-0.351h-0.325H124.2v0.702h0.649l0.328,0.354l-0.328,0.354h-0.325v0.7v0.351l0.325,0.351l0.328-0.351    l0.324-0.351l0.325-0.351l0.324-0.35h0.328l0.325,0.35v0.701v0.351l0.324,0.354v0.353v0.352v0.351l-0.324,0.354h-0.325    l-0.328,0.354h-0.324l-0.325,0.697v0.704l0.649,0.354l0.328,0.351l0.325,0.704l0.324,0.354h0.653l0.324,0.351l0.327,0.352v0.351    l-0.651,0.351h-0.328h-0.325h-0.324l-0.325,0.353l-0.328,0.354v0.351h0.328v0.705l0.649,0.351h0.653h0.324l0.651-0.351    l0.326,0.704l0.325,0.347l0.324,0.354l-0.324,0.351v0.354v0.352l0.651,0.703l0.325-0.703l0.325-0.352l0.327-0.354l0.325-0.351    l0.977,0.351v0.354v0.352l0.328,0.353h0.324h0.325l0.327,0.705l0.326,0.352l0.649,1.053l0.326,0.704v0.352l-0.326,0.354    l-0.325-0.354l0.325-0.352l-0.325-0.352l-0.324,0.702l-0.979,0.354l-0.652,0.354v0.352l0.328,1.754v0.708v1.402v1.762v1.053    l0.649,1.057v0.7l-0.325,0.354l-0.324,0.351l-0.328,0.354l-0.324,0.7v0.701v1.057v1.057v0.351h0.324l0.328-0.351l0.324,0.351    v0.354v0.35l-0.324,0.354v0.35l-0.328,0.354l-0.324,0.703v0.701v0.703l-0.326-0.35l-0.649,1.057v1.754l-0.327,1.41h-0.65    l-1.305-0.354l-0.324,0.354l-0.327,0.354l-0.324,0.352l0.324,1.053l0.651,1.76l0.326,2.463v2.107l-0.326,2.461l-0.979,0.701    h-0.979l-0.325-0.346l-0.328-0.355l-0.977-1.406l-0.325-1.758l-0.652-1.76v-1.758l0.652-0.701h0.325l0.649-0.354l0.325-0.354    l-0.325-1.053h-0.977h-0.652h-0.65v-0.354v-0.701l0.65-0.705l0.652-0.705l0.65-0.703l0.979-1.404l0.325-1.41l0.979-1.049    l1.305-2.465l0.324-1.053l-0.324-0.701h-0.65h-0.652H126.8h-0.653l-0.325-1.06v-1.402v-1.057l-0.649-0.704l-0.652-0.701    l-0.65-1.057l-0.651-1.405l-0.651-0.702l-0.649-0.704l-0.979-0.704l-0.651-0.351h-1.305l-0.65-0.354l-0.651,0.354l-0.651,0.351    l-0.651-0.351v-0.705v-0.354v-0.698v-0.707v0.707l-0.649,1.051l-0.329-0.702v-0.351l-0.649-2.465v-1.403l-0.324-1.057v-1.403    l-0.652-1.406l-0.65-1.059l-0.979-1.049l-0.65-1.761l-0.328-1.404l-0.324-1.058l-0.327-1.054v-1.406l-0.323-0.705l-0.327-1.055    v-1.403l-0.652-2.462l-0.325-2.111l-0.65-1.757l-0.326-1.406l-0.65-2.109l-0.652-0.356L106.281,395.213z M107.585,518.976    l-2.935-0.701l-1.304-1.059l-0.325-1.053v-0.354l0.652-1.049H104v-0.354l0.325-0.705l0.65-1.057h0.327v-0.701l-0.327-0.352    l-0.326-0.35l-0.977-0.707l-0.652-1.055l-0.325-1.053v-0.354h-0.979l-0.651-1.057l-0.65-1.758l-0.325-0.35l-0.326-1.408v-1.055    l0.326-1.406l0.325-0.705l0.65-1.402h0.327h1.629l0.652,0.703l0.65,1.055l0.324,0.352l0.653,0.352l1.302,0.705l0.979,0.701    l0.979,0.705l0.979,1.057l0.652,1.053l0.323,0.705v1.053l-0.323,1.406l-0.326,1.057l-0.653,0.701l-0.978,1.055v1.055v1.057    l0.978,0.703l0.979,0.705l1.305,1.053l0.65,1.053l-0.328,1.059l-0.65,0.352h-1.303h-0.979L107.585,518.976z M107.585,484.871    h-0.979l-0.649-0.703l-0.65-0.699l-0.979-1.762l-0.325-1.754l0.325-1.76l0.324-1.408l0.326-0.703l0.651-1.057l0.326-1.053    l0.324-1.057l0.325-0.352l0.327-0.354l0.325,0.354l0.979,0.705l1.305,0.352l0.652,0.699l0.65,1.057l-0.327,1.057l-0.649,0.705    l-0.979,1.053l-1.63,1.053l-1.63,1.059v1.404l0.65,0.703l0.979,0.352l0.65,0.705l0.326,1.051L107.585,484.871z M117.689,497.175    h-0.651l-0.978-0.35l-0.979-1.059l-0.327-1.402l0.649-0.705h0.979h0.325l0.652,1.055l0.651,1.057v1.053L117.689,497.175z     M102.044,496.125l-0.324-0.355v-0.699v-1.41v-1.053l0.324-1.762l0.326-1.754v-2.111v-1.758v-1.057l0.326-1.406l0.325-0.35    l0.325,0.703l0.652,1.402l0.649,1.762v1.055l-0.324,1.76l-0.65,1.754l-0.652,2.113l-0.325,2.809L102.044,496.125z     M117.365,512.646l-0.653-0.348l-0.324-0.354l-0.325-0.352h-1.629h-1.63l-1.633-0.705v-1.756l0.328-1.408v-1.404v-1.057    l-0.651-1.057l-0.979-0.703l-1.305-1.406l-0.326-0.703v-1.055l-0.651,0.354h-0.979l-0.978-1.053l-0.979-1.406l-0.324-2.111v-2.461    l0.324-1.406l0.653-1.408l0.65-1.756l0.324-1.057l0.325-0.703l0.652-1.404l0.979-0.705h0.326l1.305-0.705h1.631l1.304,0.354    l0.978,1.055l0.979,1.408l0.979,1.406l0.651,1.057l-0.325,1.051l-0.653,0.354l-0.65,1.055l-0.323,1.408l-0.653,1.76v1.053    l1.305,2.111l1.305,1.402l1.304,1.406l0.652,1.41l1.304,1.053l1.629,1.406l1.305,1.406l1.305,1.057l0.978,1.406v0.352    l-0.325,0.352l-0.65,0.703l-0.652,0.705l-0.978,0.352l-1.304,0.352l-1.305,0.355L117.365,512.646z" id="upazila_239" area="upazlia" name="mongla" bengali="মোংলা" parent="bagerhat"></path><polygon points="108.238,381.15 108.238,381.854 108.238,382.202 108.563,382.906 108.563,383.261    108.889,383.612 109.539,383.612 109.866,383.962 110.195,383.612 111.168,383.612 111.822,383.261 112.149,383.261    113.127,382.906 113.779,382.906 113.779,382.552 114.103,382.202 114.103,381.5 114.431,381.15 114.431,380.445 114.431,380.097    114.431,379.743 114.754,379.039 115.082,379.39 115.406,379.39 116.06,379.39 116.711,379.39 117.036,379.039 117.365,379.039    117.69,379.039 118.015,379.039 118.667,378.688 119.319,378.688 119.644,378.688 119.319,379.039 119.319,380.097    119.319,380.798 119.644,381.15 119.971,381.5 119.971,382.202 119.971,382.552 119.644,382.906 119.971,383.261 120.296,383.261    120.296,382.906 120.622,382.906 120.949,382.906 121.6,382.552 121.926,382.552 122.253,382.552 122.578,382.552    122.904,382.906 123.229,383.261 123.882,383.962 124.533,384.313 125.186,384.667 125.837,384.667 126.162,384.667    126.816,384.667 127.141,384.667 127.466,384.667 128.447,385.019 129.097,385.019 129.748,385.366 130.401,385.72    131.379,385.72 131.704,385.72 132.355,385.72 132.683,386.074 132.683,386.774 133.008,387.126 133.659,387.126 133.987,387.126    134.313,387.126 134.638,387.828 134.963,387.481 135.29,387.126 135.616,387.126 135.942,387.126 135.942,387.481    136.594,387.481 136.594,387.126 137.245,387.126 137.571,387.126 138.223,387.126 138.549,387.126 138.549,387.481    138.223,387.828 137.898,388.182 137.245,388.884 137.245,389.588 137.245,390.292 137.245,390.998 137.245,391.699    136.919,392.4 136.919,392.75 136.594,393.106 136.594,393.456 135.942,393.807 135.942,394.508 136.267,394.861 135.942,395.213    135.616,395.564 134.963,396.272 134.638,396.971 134.313,397.675 134.313,398.026 134.313,398.376 134.313,399.433    134.313,399.787 133.987,399.787 133.334,399.787 133.008,400.137 132.683,400.839 133.008,400.839 132.683,400.839    132.355,401.543 131.704,402.245 131.052,402.599 130.073,403.301 129.748,403.651 129.422,404.353 128.77,404.707    128.119,404.707 127.466,404.707 126.49,405.409 125.837,405.409 125.837,405.058 125.511,404.707 124.859,404.707    124.207,404.353 124.207,404.002 124.207,403.651 124.207,403.301 123.557,402.95 123.229,402.599 122.578,402.245    122.253,401.895 121.6,401.895 120.949,401.895 120.622,401.895 119.971,401.895 119.971,402.245 119.644,402.599 118.993,402.95    118.667,402.95 118.34,402.599 118.015,402.245 118.015,401.895 118.015,401.193 117.69,400.839 117.036,400.839 116.711,400.487    116.386,400.839 115.733,400.839 115.082,400.487 114.754,400.487 114.431,400.487 113.452,400.487 113.127,400.137    112.474,400.137 112.149,399.433 111.498,398.728 111.168,398.026 111.168,397.675 110.518,396.971 110.195,396.619    109.866,396.272 109.539,396.619 109.214,396.619 108.563,396.272 108.238,396.272 108.238,395.564 107.584,395.213    107.584,394.861 107.259,394.508 106.281,395.213 105.955,394.508 105.305,393.456 104.326,392.4 103.674,390.998    103.023,390.644 103.023,389.942 103.023,389.588 103.023,389.234 103.023,388.532 103.023,387.828 103.023,387.481    103.348,386.424 103.674,386.074 103.999,386.074 104.652,385.366 104.977,385.019 105.305,384.667 104.977,384.667    104.977,383.962 104.977,383.261 104.652,382.202 104.652,381.5 104.652,381.15 104.977,380.798 105.305,380.445 105.305,380.097    105.305,379.39 105.63,379.39 105.955,379.39 106.281,379.743 106.607,380.097 106.934,380.798 107.259,380.798 107.584,381.15    " id="upazila_241" area="upazlia" name="rampal" bengali="রামপাল" parent="bagerhat"></polygon><polygon points="121.928,358.648 122.578,358.648 123.229,358.648 123.557,358.297 124.208,358.297    124.532,358.297 125.187,357.943 125.511,357.593 126.162,357.943 126.49,358.297 126.49,358.648 126.49,358.998 126.49,359.35    126.815,359.7 127.14,359.7 127.468,359.7 127.793,360.051 128.119,360.405 128.772,360.759 129.75,360.759 130.073,361.109    130.726,361.109 131.054,361.461 131.702,361.812 132.031,361.812 132.355,361.461 132.355,361.109 132.031,360.759    132.031,360.405 132.031,360.051 132.355,359.7 133.006,360.051 133.006,359.7 133.006,359.35 133.334,358.998 133.987,358.648    133.987,358.998 134.313,359.7 134.638,359.7 134.965,359.35 135.288,359.35 135.616,359.7 135.616,360.405 135.616,360.759    135.616,361.109 135.288,361.109 135.288,361.461 135.288,361.812 135.616,362.166 135.616,362.513 135.616,362.863    135.942,363.218 135.942,363.569 135.942,363.923 135.616,364.273 135.288,364.273 134.965,364.273 134.638,364.273    134.313,364.273 134.313,363.923 134.313,363.569 134.313,363.218 133.987,362.863 133.987,362.513 133.334,362.166    133.006,361.812 132.684,362.166 132.355,362.513 132.031,362.863 131.702,363.569 131.379,363.923 131.054,364.273    131.054,364.624 130.726,364.624 130.726,365.33 130.726,366.031 130.401,366.731 130.401,367.085 130.073,367.788    130.401,368.142 130.726,368.843 130.401,369.195 130.073,369.545 130.073,369.899 130.073,370.25 130.073,370.6 130.073,370.954    129.75,371.306 129.75,371.656 129.097,371.656 128.772,371.656 128.445,372.007 127.793,372.007 127.468,372.007 127.14,372.007    126.815,372.007 126.49,372.357 126.162,372.711 126.162,373.062 125.511,373.062 125.187,373.417 124.858,373.417    124.532,373.417 124.208,373.417 123.882,373.417 123.557,373.062 123.229,373.062 122.578,372.711 122.251,372.711    121.928,373.062 121.6,373.062 121.275,373.062 120.948,373.062 120.624,373.062 119.969,373.062 119.646,373.062    118.995,373.417 118.665,373.417 118.342,373.417 118.015,373.764 117.689,374.118 117.365,374.469 117.365,375.171    117.365,376.226 117.365,376.93 117.365,377.635 117.365,377.986 117.365,378.337 117.036,379.039 116.713,379.39 116.061,379.39    115.406,379.39 115.082,379.39 114.754,379.039 114.432,379.74 114.432,380.097 114.432,380.448 114.432,381.15 114.103,381.5    114.103,382.202 113.779,382.556 113.779,382.906 113.127,382.906 112.15,383.261 111.822,383.261 111.168,383.608    110.193,383.608 109.867,383.962 109.539,383.608 108.888,383.608 108.564,383.261 108.564,382.906 108.238,382.202    108.238,381.852 108.238,381.15 108.238,380.798 108.564,380.448 108.238,380.448 108.238,379.74 107.909,379.039    108.564,378.337 108.238,377.986 107.585,377.282 107.585,376.93 107.259,376.93 107.909,376.576 108.888,376.576 109.214,376.93    109.867,376.93 110.517,376.226 110.845,375.875 111.168,375.525 111.168,374.822 110.845,374.822 110.517,374.469    110.193,374.469 109.867,374.118 109.867,373.417 109.539,373.062 109.214,372.711 109.539,372.357 109.867,372.357    110.193,372.357 110.517,372.711 110.517,373.062 110.517,373.417 110.845,373.417 111.168,373.417 111.498,373.417    111.498,372.711 111.168,372.711 110.845,372.007 110.845,370.954 111.168,370.6 111.822,370.25 112.15,368.496 112.472,367.438    112.8,366.381 112.8,366.031 113.127,364.975 113.779,364.975 114.432,365.33 115.082,365.677 115.733,366.031 116.061,366.031    116.385,365.677 117.036,364.975 117.365,364.975 117.365,365.33 117.365,366.381 117.365,367.085 117.365,367.438    118.015,367.788 118.342,367.788 118.665,367.788 118.995,367.438 118.995,367.085 118.995,366.381 118.665,366.031    118.665,364.975 118.995,364.624 119.319,364.273 119.646,363.569 119.969,363.218 119.969,362.513 120.296,362.166    120.624,361.812 120.948,361.812 121.6,361.812 121.6,361.461 121.6,360.759 121.6,360.051 121.6,359.35 121.928,358.998   " id="upazila_236" area="upazlia" name="fakirhat" bengali="ফকিরহাট" parent="bagerhat"></polygon><polygon points="132.355,336.497 132.683,336.844 133.008,337.198 133.334,337.553 133.659,337.198    133.659,336.844 133.987,336.146 134.313,335.442 134.638,335.09 135.288,335.09 135.616,334.737 135.942,334.737    136.267,334.737 136.594,334.386 136.919,334.737 136.919,335.09 136.919,335.442 136.594,335.796 136.594,336.146    136.594,336.497 136.919,336.497 137.245,336.497 137.898,336.146 138.223,336.146 138.874,336.497 139.201,336.497    139.852,336.844 140.178,337.198 140.178,337.553 140.178,337.9 139.852,337.9 139.201,339.309 139.201,339.661 138.874,340.362    138.874,340.716 138.549,341.066 138.874,341.418 139.201,341.418 139.852,341.418 140.178,341.418 140.83,341.418    141.482,341.772 142.134,341.772 142.785,342.123 143.113,342.477 143.438,342.824 143.438,343.174 143.763,343.529    144.089,343.879 144.089,344.23 144.414,344.935 145.068,345.641 145.393,345.641 145.718,345.987 146.371,346.338    146.697,346.692 147.347,347.042 147.347,347.397 147.347,347.749 146.371,347.749 145.718,347.397 145.068,347.397    145.068,348.099 145.393,348.449 145.718,349.154 145.068,349.502 144.741,349.502 144.414,349.154 143.763,349.154    143.438,349.502 142.134,349.502 141.809,349.502 141.809,350.207 142.134,350.561 141.809,350.911 141.482,350.561    140.83,350.207 140.505,350.561 140.505,350.911 140.83,351.265 141.482,351.967 141.809,352.672 142.134,353.019    142.785,353.371 143.438,353.724 143.763,354.078 143.763,354.426 144.414,354.78 144.741,355.13 145.393,354.78 145.068,355.13    145.068,355.485 144.414,355.485 144.089,355.485 144.089,355.835 143.763,355.835 143.763,356.183 143.438,356.183    143.438,356.537 143.113,356.537 142.785,356.887 142.459,356.887 142.134,357.241 142.134,357.589 141.482,357.946    141.156,357.946 140.83,358.297 140.505,357.946 140.178,357.946 139.852,357.946 139.201,357.946 138.874,357.946    138.549,357.589 137.898,357.589 137.571,357.589 137.245,357.589 136.919,357.946 136.594,357.589 136.267,357.589    135.942,357.589 135.616,357.589 135.616,357.946 134.963,357.946 134.638,357.946 134.313,357.946 133.987,357.946    133.987,358.648 133.334,358.998 133.008,359.35 133.008,359.7 133.008,360.051 132.355,359.7 132.032,360.051 132.032,360.405    132.032,360.755 132.355,361.109 132.355,361.461 132.032,361.812 131.702,361.812 131.052,361.461 130.727,361.109    130.073,361.109 129.748,360.755 128.77,360.755 128.118,360.405 127.793,360.051 127.466,359.7 127.141,359.7 126.815,359.7    126.49,359.35 126.49,358.998 126.49,358.648 126.49,358.297 126.162,357.946 125.511,357.589 125.186,357.946 124.532,358.297    124.207,358.297 123.557,358.297 123.229,358.648 122.578,358.648 121.926,358.648 121.926,357.946 121.926,356.537    121.926,356.183 121.926,355.13 122.251,354.078 121.926,353.371 120.948,352.672 120.622,352.321 119.971,351.617    119.971,351.265 119.971,350.561 120.296,350.207 120.622,349.856 120.622,349.502 121.275,349.502 121.6,349.502    122.251,349.502 122.578,349.502 122.904,349.856 123.229,349.856 123.557,349.154 123.557,348.449 123.882,348.449    124.207,349.154 124.532,349.502 124.859,350.207 125.186,350.207 125.511,349.856 125.837,349.502 125.837,348.803    126.49,349.154 127.141,348.803 128.118,348.449 127.466,348.099 126.815,348.099 126.49,347.749 126.815,347.397    127.141,347.397 127.793,347.397 128.118,347.042 128.77,347.397 129.097,347.042 129.422,346.692 129.422,346.338    129.097,345.987 128.77,345.987 128.118,346.338 127.793,346.338 127.466,346.338 127.793,345.641 128.118,345.641    128.77,345.641 129.097,345.285 129.422,344.935 129.422,344.23 129.748,344.23 130.073,343.529 130.073,343.174 129.748,343.174    129.422,343.529 129.097,343.529 128.77,343.529 129.097,343.174 129.097,342.477 129.422,341.772 130.073,341.418    130.727,341.066 130.727,340.716 131.379,340.716 131.702,340.362 131.379,340.011 131.702,339.661 131.702,339.309    132.032,338.959 132.355,338.254 132.355,337.9 132.355,337.553   " id="upazila_238" area="upazlia" name="mollahat" bengali="মোল্লাহাট" parent="bagerhat"></polygon><polygon points="133.987,358.648 133.987,357.943 134.313,357.943 134.638,357.943 134.965,357.943    135.616,357.943 135.616,357.593 135.942,357.593 136.269,357.593 136.594,357.593 136.917,357.943 137.247,357.593    137.571,357.593 137.898,357.593 138.549,357.593 138.876,357.943 139.199,357.943 139.852,357.943 140.18,357.943    140.503,357.943 140.831,358.297 141.156,357.943 141.481,357.943 142.134,357.593 142.134,357.241 142.46,356.887    142.784,356.887 143.114,356.537 143.439,356.537 143.439,356.183 143.763,356.183 143.763,355.835 144.091,355.835    144.091,355.485 144.414,355.485 145.067,355.485 145.067,355.13 145.395,354.78 147.024,354.429 147.674,354.429 148,354.429    148.653,354.429 148.978,354.78 150.282,355.835 151.588,355.835 153.539,355.835 154.193,355.835 154.521,355.485    155.171,354.78 155.171,355.13 155.823,356.183 156.151,356.887 156.151,357.593 156.803,358.297 156.803,358.648    156.475,358.998 156.151,359.35 156.151,359.7 155.823,359.7 155.499,360.051 154.844,360.759 154.521,361.109 154.521,361.461    154.193,361.812 153.87,361.812 154.521,362.166 155.499,362.166 156.151,362.166 156.475,362.166 156.803,362.513    156.803,363.218 157.126,363.218 157.453,364.273 157.453,364.624 157.126,364.624 156.803,364.975 156.475,365.33    155.823,365.33 155.499,365.33 154.844,365.33 153.539,365.677 153.217,365.33 152.889,365.33 152.565,365.33 152.24,365.33    152.565,365.677 153.217,366.381 153.539,366.381 153.539,366.731 153.539,367.085 153.539,367.788 153.217,368.142    153.539,368.843 153.87,368.843 154.193,368.843 154.521,368.843 154.844,368.496 155.171,368.496 155.499,368.843    156.151,368.496 156.151,369.545 156.151,370.25 156.475,370.25 156.151,370.954 156.151,371.306 156.151,371.656    156.151,372.007 155.823,372.711 155.171,373.062 154.521,372.711 154.193,373.062 153.87,372.711 153.539,372.007    153.87,371.306 153.87,370.954 153.217,370.6 152.889,370.6 152.24,370.6 151.911,370.25 151.911,369.899 151.911,369.545    151.911,368.843 151.588,368.496 150.936,368.496 150.282,368.496 149.631,368.496 148.978,368.496 148.327,368.843 148,368.843    147.674,369.195 147.347,369.545 147.024,369.545 146.371,369.545 146.043,369.545 145.395,369.545 144.742,369.545    144.091,369.195 143.763,369.195 143.763,368.496 143.114,367.788 142.784,367.788 142.46,368.142 142.134,368.496    141.81,368.496 141.481,368.142 141.156,367.788 140.831,367.438 140.503,367.085 140.18,366.731 139.528,366.381    138.876,366.031 138.549,365.677 137.898,365.33 137.571,364.975 137.247,364.273 137.247,363.569 136.594,363.569    135.942,363.218 135.616,362.863 135.616,362.513 135.616,362.166 135.288,361.812 135.288,361.461 135.288,361.109    135.616,361.109 135.616,360.759 135.616,360.405 135.616,359.7 135.288,359.35 134.965,359.35 134.638,359.7 134.313,359.7    133.987,358.998   " id="upazila_235" area="upazlia" name="chitalmari" bengali="চিতলমারী" parent="bagerhat"></polygon><polygon points="135.942,363.218 136.594,363.569 137.245,363.569 137.245,364.273 137.571,364.975    137.898,365.33 138.549,365.677 138.874,366.027 139.527,366.381 140.18,366.735 140.505,367.085 140.83,367.438 141.156,367.788    141.482,368.142 141.809,368.496 142.134,368.496 142.459,368.142 142.785,367.788 143.113,367.788 143.764,368.496    143.764,369.195 144.089,369.195 144.089,370.25 144.089,370.951 144.414,371.306 144.414,371.656 144.741,372.357    144.741,373.062 144.414,373.764 145.068,374.118 144.741,374.822 144.741,375.521 144.741,375.875 144.741,376.226    145.068,376.226 145.393,376.226 145.718,376.226 145.718,376.93 145.393,377.282 145.718,377.635 146.045,377.986    146.371,377.986 146.697,378.337 147.022,378.337 147.022,378.688 146.697,379.393 147.022,379.743 146.697,380.097    146.371,380.795 146.045,381.15 145.718,381.5 145.718,381.852 146.045,381.852 146.045,382.556 146.045,382.906 145.393,383.261    145.068,383.261 144.414,383.261 144.089,383.261 143.764,383.261 143.764,383.612 143.438,384.316 143.438,385.019    143.438,385.366 143.113,385.366 143.113,385.72 142.785,386.424 142.459,387.126 142.459,387.828 142.134,388.182    142.134,388.532 141.809,389.238 142.134,389.238 142.134,389.942 142.459,389.942 142.785,390.292 142.134,391.345    141.482,391.345 140.83,391.699 140.83,392.047 140.83,392.75 140.18,393.106 139.852,393.456 139.527,393.456 139.201,393.456    138.874,393.807 137.898,393.456 137.571,393.106 136.919,392.75 136.919,392.4 137.245,391.699 137.245,390.995 137.245,390.292    137.245,389.588 137.245,388.884 137.898,388.182 138.223,387.828 138.549,387.481 138.549,387.126 138.223,387.126    137.571,387.126 137.245,387.126 136.594,387.126 136.594,387.481 135.942,387.481 135.942,387.126 135.616,387.126    135.288,387.126 134.963,387.481 134.638,387.828 134.313,387.126 133.987,387.126 133.659,387.126 133.008,387.126    132.683,386.774 132.683,386.074 132.355,385.72 131.704,385.72 131.379,385.72 130.399,385.72 129.748,385.366 129.097,385.019    128.447,385.019 127.466,384.667 127.141,384.667 126.815,384.667 126.162,384.667 125.837,384.667 125.186,384.667    124.533,384.316 123.882,383.962 123.229,383.261 122.904,382.906 122.578,382.556 122.253,382.556 121.926,382.556    121.6,382.556 120.949,382.906 120.622,382.906 120.296,382.906 120.296,383.261 119.971,383.261 119.644,382.906    119.971,382.556 119.971,382.202 119.971,381.5 119.644,381.15 119.319,380.795 119.319,380.097 119.319,379.039 119.644,378.688    119.319,378.688 118.667,378.688 118.015,379.039 117.69,379.039 117.365,379.039 117.036,379.039 117.365,378.337    117.365,377.986 117.365,377.635 117.365,376.93 117.365,376.226 117.365,375.171 117.365,374.472 117.69,374.118    118.015,373.764 118.34,373.417 118.667,373.417 118.993,373.417 119.644,373.062 119.971,373.062 120.622,373.062    120.949,373.062 121.275,373.062 121.6,373.062 121.926,373.062 122.253,372.708 122.578,372.708 123.229,373.062    123.557,373.062 123.882,373.417 124.207,373.417 124.533,373.417 124.859,373.417 125.186,373.417 125.511,373.062    126.162,373.062 126.162,372.708 126.49,372.357 126.815,372.007 127.141,372.007 127.466,372.007 127.793,372.007    128.447,372.007 128.77,371.656 129.097,371.656 129.748,371.656 129.748,371.306 130.073,370.951 130.073,370.6 130.073,370.25    130.073,369.899 130.073,369.549 130.399,369.195 130.727,368.843 130.399,368.142 130.073,367.788 130.399,367.085    130.399,366.735 130.727,366.027 130.727,365.33 130.727,364.624 131.052,364.624 131.052,364.273 131.379,363.923    131.704,363.569 132.031,362.863 132.355,362.513 132.683,362.166 133.008,361.812 133.334,362.166 133.987,362.513    133.987,362.863 134.313,363.218 134.313,363.569 134.313,363.923 134.313,364.273 134.638,364.273 134.963,364.273    135.288,364.273 135.616,364.273 135.942,363.923 135.942,363.569   " id="upazila_234" area="upazlia" name="bagerhat_sadar" bengali="বাগেরহাট সদর" parent="bagerhat"></polygon><polygon points="136.919,392.75 137.573,393.106 137.898,393.456 138.876,393.807 139.201,393.456    139.527,393.456 139.852,393.456 140.18,393.106 140.83,392.75 140.83,392.047 140.83,391.699 141.482,391.345 142.134,391.345    143.113,391.345 143.438,391.699 143.438,392.047 143.438,392.4 143.113,392.75 143.113,393.106 143.113,393.456 142.785,394.158    143.438,394.508 143.764,394.508 144.089,394.861 144.414,395.213 144.742,395.564 145.068,395.915 145.718,395.915    146.045,395.915 146.371,395.915 147.022,395.915 147.675,395.564 148.653,394.861 148.979,394.508 149.956,394.508    150.282,394.508 150.607,394.158 150.936,393.807 150.936,393.106 150.607,392.75 150.282,392.047 150.282,391.699    150.282,390.998 150.607,390.292 150.936,389.588 151.261,389.234 151.586,388.532 151.911,388.182 152.24,388.182    152.565,388.182 153.217,388.182 153.868,388.182 154.194,388.532 154.521,388.884 154.521,389.234 154.846,390.292    156.475,390.644 158.757,390.998 159.734,391.345 160.061,391.699 160.387,392.047 160.387,392.75 160.061,394.158    160.061,395.213 159.734,395.915 159.734,396.272 159.408,396.272 159.408,396.971 159.408,397.321 158.757,398.376    158.105,399.433 157.128,400.837 156.803,401.193 155.824,402.599 155.171,403.301 154.846,403.301 154.846,403.651    155.171,403.651 154.846,404.002 155.171,404.002 157.779,404.353 158.105,404.707 159.083,404.707 159.408,404.707    159.734,404.353 160.061,404.353 161.037,405.058 160.712,405.409 160.712,406.113 160.387,406.113 159.734,406.113    158.432,405.763 156.475,405.409 155.497,405.058 154.846,404.707 154.194,404.707 153.868,404.353 152.565,404.707    151.911,404.353 150.936,404.353 150.936,404.707 150.282,404.707 149.632,405.058 149.304,406.113 149.304,406.817    149.632,407.517 149.632,408.222 150.282,408.923 150.936,409.28 151.586,409.28 151.911,409.631 152.565,409.631    153.217,409.631 153.54,409.631 154.194,409.28 155.171,408.923 155.824,408.923 156.475,408.923 156.803,409.28 157.128,409.631    157.453,409.631 157.779,410.329 157.779,410.684 156.803,412.443 155.171,413.146 153.54,413.146 151.911,413.847    150.936,414.552 149.956,415.253 149.304,415.961 149.304,415.607 149.304,414.902 149.304,414.201 148.327,413.847    148.653,414.201 148.327,415.253 148.327,416.309 148,416.309 147.675,417.715 147.675,418.42 148,419.476 148.653,420.174    149.632,421.232 150.936,422.99 150.936,424.396 150.607,425.452 149.632,427.562 149.304,427.91 149.304,427.209    148.979,426.854 148.979,426.156 148.653,425.806 148.327,425.452 148,425.806 147.675,426.156 147.349,426.156 146.371,425.806    145.718,425.452 145.068,425.452 144.742,425.806 144.414,425.806 144.414,425.452 144.414,425.098 144.742,424.747    145.068,424.396 144.414,424.045 143.438,424.396 142.785,424.045 142.134,424.045 141.482,423.691 141.156,423.341    141.156,422.643 140.83,422.288 140.505,421.935 139.852,422.288 139.527,422.643 138.876,422.643 138.549,422.643    137.898,422.643 137.573,422.99 137.245,423.341 136.919,423.691 135.616,423.691 134.638,424.045 133.988,422.99    133.659,422.643 133.334,421.935 133.008,421.935 132.683,421.935 132.355,421.583 132.355,421.232 132.355,420.882    131.379,420.526 131.052,420.882 130.727,421.232 130.401,421.583 130.073,422.288 129.422,421.583 129.422,421.232    129.422,420.882 129.748,420.526 129.422,420.174 129.097,419.826 128.77,419.125 128.119,419.476 127.793,419.476    127.141,419.476 126.49,419.125 126.49,418.42 126.162,418.42 126.162,418.069 126.49,417.715 126.816,417.364 127.141,417.364    127.466,417.364 127.793,417.364 128.447,417.011 128.447,416.659 128.119,416.309 127.793,415.961 127.141,415.961    126.816,415.607 126.49,414.902 126.162,414.552 125.512,414.201 125.512,413.493 125.837,412.795 126.162,412.795    126.49,412.443 126.816,412.443 127.141,412.09 127.141,411.739 127.141,411.385 127.141,411.037 126.816,410.684    126.816,410.329 126.816,409.631 126.49,409.28 126.162,409.28 125.837,409.631 125.512,409.981 125.186,410.329 124.859,410.684    124.533,410.329 124.533,409.981 124.533,409.28 124.859,409.28 125.186,408.923 124.859,408.572 124.207,408.572    124.207,407.874 124.533,407.874 124.859,407.874 125.186,408.222 125.512,408.222 125.837,408.572 126.162,408.572    126.49,408.572 127.141,408.572 127.466,408.222 127.141,407.874 126.816,407.166 126.816,406.817 126.49,406.113 126.49,405.409    127.466,404.707 128.119,404.707 128.77,404.707 129.422,404.353 129.748,403.651 130.073,403.301 131.052,402.599    131.704,402.245 132.355,401.543 132.683,400.837 133.008,400.837 132.683,400.837 133.008,400.137 133.334,399.787    133.988,399.787 134.313,399.787 134.313,399.433 134.313,398.376 134.313,398.026 134.313,397.675 134.638,396.971    134.963,396.272 135.616,395.564 135.942,395.213 136.267,394.861 135.942,394.508 135.942,393.807 136.594,393.456    136.594,393.106   " id="upazila_240" area="upazlia" name="morrelganj" bengali="মোড়েলগঞ্জ" parent="bagerhat"></polygon><path d="M134.313,425.098l0.325,0.354l0.324-0.354v-0.351l-0.324-0.704l0.979-0.354h1.303l0.326-0.352l0.324-0.348    l0.327-0.354h0.649h0.326h0.651l0.325-0.353l0.652-0.351l0.325,0.351l0.324,0.353v0.702l0.326,0.352l0.651,0.354h0.65l0.652,0.354    l0.978-0.354l0.652,0.354l-0.326,0.351l-0.326,0.351v0.354v0.354h0.326l0.326-0.354h0.649l0.652,0.354l0.979,0.352h0.324    l0.326-0.352l0.326-0.354l0.325,0.354l0.326,0.352v0.701l0.324,0.351v0.708l-0.65,0.351L148,429.323l-0.65,1.402l-0.651,1.41    l-0.651,1.403l-0.979,2.111l-0.652,1.405l-0.325,1.407l-0.324,1.403v1.409l-0.326,1.758v1.055l0.65,1.055l0.325,0.705l1.957,1.762    l0.649,0.699l0.327,1.406l0.324,1.758v2.111l-0.324,1.402v0.705v1.76v2.107v2.111l-0.327,1.057l-0.649,1.057l-1.63,1.402    l-1.305,2.111l-1.305,0.352l-0.979,0.703l-2.28-0.703l-0.326-0.701l0.653-1.057l0.324-0.352l0.653-0.707l0.649-1.404l0.65-1.76    l0.327-1.402l-0.653-1.057l-1.304-1.053v-1.059l0.328-0.703l0.649-0.705l0.324-0.703l0.326-1.758v-1.406l-0.326-1.402    l-0.649-1.412l-0.652-1.402l-0.325-0.354l-0.324-1.406l-0.327-1.053v-1.057l-0.65-2.463l0.324-1.054v-2.459l-0.324-0.354    L136.917,436l-1.956-2.111l-1.304-0.701l-0.325-1.053v-0.704v-1.056v-0.705v-1.054l-0.65-1.761v-0.352v-0.35l0.65-0.352    L134.313,425.098z M132.031,443.384v-0.705v-0.703l0.324-0.701l0.328-0.352v-0.354l0.324-0.354v-0.351v-0.352l-0.324-0.354    l-0.328,0.354h-0.324v-0.354v-1.052v-1.058v-0.705l0.324-0.701l0.328-0.354l0.324-0.351l0.326-0.352v-0.707l1.305,1.409    l1.629,1.053l0.979,1.058l0.651,1.056v1.053l-0.327,1.053v1.761l0.327,2.109l0.65,1.408v1.76l0.325,0.701l0.651,0.701l0.653,1.41    l0.324,1.404v1.758v1.404l-0.652,0.705l-0.325,0.352v2.461l0.979,1.057l0.325,1.41l-0.649,1.402l-0.979,1.053l-0.979,2.115    l-0.652,1.758l-0.65-0.352l-1.303-0.707l-1.305-1.756l-0.328-0.352l-0.324-0.352l-0.325-0.705l-0.326-1.059l-0.324-0.699    l-0.328-0.701l-0.649-1.059l-0.325-0.352v-0.354l-0.651-1.051l-0.652-1.059v-0.352l-0.325-1.055v-0.352l0.325-1.053l-0.325-0.705    v-2.107v-0.354l-0.326-0.705L129.102,449v-1.053l0.65,0.352h0.325h0.652l0.651-0.701v-1.057l0.325-0.352v-0.707l0.326-1.758v-0.34    H132.031z M144.414,495.419l-0.978-0.705v-1.402v-1.057l-0.979-1.057l-1.306-1.055l-1.304-0.703l-1.304-1.057l0.325-1.406    l0.651-1.055l0.979-0.703l1.305-1.057l0.978-1.053l-0.978-1.41l-0.979-1.053l-1.956-1.406l0.326-0.701l0.65-1.055l1.304-0.35    l0.979-0.707v-1.053l-0.651-1.408l-0.326-1.406l-0.649-1.408l0.325-0.699l1.304,0.352l0.978,1.055l0.327,0.703l0.978,1.758    l0.327,1.758l0.65,1.406l0.324,2.461l0.327,1.404l0.326,1.76l0.324,2.111l0.325,1.756l0.327,1.406l0.324,1.404l0.326,1.057v1.057    l-0.326,1.057l-0.651,0.701l-0.978,1.053L144.414,495.419z M127.466,486.63l0.327-0.354l0.326-0.354l1.303-0.35h0.65l0.653-0.354    h0.324l0.327-0.354h0.65h0.652h0.324l0.326-0.701h-0.326l-0.324-0.355l-0.979-0.699h-0.652l-0.652-0.352l-0.325-0.705    l-0.324-0.354v-0.705V480.3l-0.325-0.354v-0.355l0.325-0.35l0.324-0.352l0.325-0.352l0.328-0.354l0.324-0.354v-0.352v-0.348    l-0.324-0.707v-0.352v-0.703l0.324-0.355l0.327-0.35v-0.352h0.325v-0.352v-0.352l-0.325-0.705l-0.651-0.354h-0.328l-0.325-0.35    v-0.355v-0.703l0.325-0.348l0.328-0.352l0.324-0.707l0.327-0.352v-0.35l0.325-0.355l0.325-0.354l0.324-0.701l0.328-0.352    l0.65-0.703l0.324-0.705l0.327-0.352l1.303,1.76l1.306,1.053l1.305,0.35l1.304,1.059l0.65,0.705l0.327,1.049v1.059l0.65,1.057    l0.65,1.049v1.762l-0.978,0.35l-0.979,0.357l-1.629,0.699l-0.327,1.055l0.651,1.057l0.979,0.701l2.607,1.762l0.324,0.699    l-0.324,0.355l-0.325,0.699l-0.979,0.705l-0.652,0.352l-0.979,0.705l-0.65,0.703l-0.324,1.402l0.324,1.059l0.979,0.703    l1.629,1.051l1.631,1.061l0.324,1.406l-0.65,0.701v1.055l-0.649,0.701l-0.328,0.709l-0.324,1.049v0.355l-0.65,0.352l-0.652,0.354    l-0.979,0.703l-0.325,0.352l-1.63,0.352l-0.651,0.705l-0.652,0.703l-1.303,0.705h-0.979l-0.324-0.705l0.324-1.406l0.326-1.406    l0.651-1.41l0.326-0.697l0.324-1.057l-0.324,0.352l-0.653,1.053l-1.304,0.352l-0.978,0.354l-0.979,0.352l-0.649-1.053v-0.705    v-0.352l-0.979-0.701v-0.355l-0.323-0.352l-0.327-1.402l-0.652-1.057l-0.65-0.354l-0.651-0.352v-0.703v-0.352l0.651-0.705    l0.979-1.055v-0.354v-1.053L127.466,486.63z" id="upazila_242" area="upazlia" name="sarankhola" bengali="শরণখোলা" parent="bagerhat"></path></svg>