<svg enable-background="new -106.403 -201.859 629.266 880.536" height="880.536px" id="district_41" viewBox="-106.403 -201.859 629.266 880.536" width="629.266px" x="0px" xml:space="preserve" xmlns="http://www.w3.org/2000/svg" y="0px"><polygon points="454.38,423.341 455.031,422.993 455.683,422.993 456.337,422.993 456.984,422.993 457.64,422.643    457.966,422.643 459.266,422.993 459.266,423.691 459.266,424.396 458.944,425.098 458.944,425.452 458.944,426.156    460.243,426.504 460.573,426.504 461.549,426.504 461.877,426.504 462.527,426.156 463.506,426.156 464.156,426.156    464.809,426.156 466.113,425.452 466.763,425.098 467.74,424.747 468.392,424.747 468.72,424.747 469.698,424.396    470.027,424.396 470.677,424.396 471.653,424.396 471.978,424.396 472.955,424.396 472.632,425.806 472.303,426.504    472.303,426.858 471.978,427.209 471.653,428.265 471.326,429.32 471.326,430.372 470.998,430.727 470.998,431.428    470.998,432.486 470.998,432.834 470.677,433.186 470.349,433.536 470.349,433.89 470.349,434.241 470.349,434.595    470.349,434.945 470.677,435.296 470.998,435.296 471.326,435.296 471.653,435.65 471.978,435.65 472.303,435.998    472.632,436.348 472.632,436.699 472.632,437.407 472.632,437.758 472.303,438.109 471.978,438.461 471.978,438.812    471.326,438.812 471.326,439.513 471.326,439.866 471.326,440.217 471.653,440.571 471.978,440.921 472.632,441.273    472.955,441.273 473.283,441.626 473.932,442.328 474.26,442.679 474.589,443.029 474.909,443.734 475.236,444.437    475.567,444.791 475.567,445.492 475.567,446.197 475.236,446.898 474.909,447.251 474.589,447.603 473.932,447.953    473.283,448.304 472.632,448.656 471.978,448.656 471.653,448.656 471.326,448.656 470.998,447.953 470.677,447.603    470.349,447.251 470.027,446.546 469.698,445.843 469.698,445.492 469.369,444.791 468.72,444.791 468.392,444.437    468.067,444.437 467.74,444.437 467.415,444.791 466.763,444.791 466.438,444.791 465.783,445.14 465.46,445.14 465.135,445.492    464.809,445.492 464.484,445.843 464.156,446.546 464.156,446.898 464.484,447.953 464.156,448.304 463.829,448.656    462.852,449.361 462.527,449.361 462.852,450.062 462.852,450.419 463.177,451.117 463.506,451.818 463.829,452.523    464.809,453.933 465.135,455.687 465.783,456.392 466.113,457.798 466.763,458.5 467.092,459.556 467.415,460.261    468.067,461.316 468.72,462.718 469.369,464.128 470.027,465.535 470.349,466.589 470.677,467.642 470.998,468.699    471.326,469.753 471.978,470.81 472.632,471.511 472.955,472.212 472.632,472.917 472.632,473.271 472.632,473.623    473.283,475.378 473.61,476.435 473.932,476.785 474.26,477.136 474.26,477.488 474.26,477.837 474.26,478.542 474.26,478.894    474.26,479.244 473.932,479.244 473.61,480.302 473.283,480.65 472.955,480.65 472.632,481.001 472.632,481.355 472.303,481.707    471.978,482.056 471.978,482.412 471.326,482.412 470.998,482.761 470.349,483.117 470.027,483.117 469.698,483.117    468.72,483.466 468.067,483.466 468.067,483.814 467.74,483.814 467.415,483.466 467.092,483.117 466.438,482.412    466.113,481.707 466.113,480.65 466.113,479.953 466.438,479.244 466.438,478.894 466.763,478.193 466.763,477.837    466.763,477.488 466.438,477.136 466.438,476.435 466.113,476.435 465.783,476.435 464.809,476.082 464.484,476.082    464.156,476.082 463.177,476.082 462.2,476.435 461.877,475.378 461.877,475.029 461.877,474.675 461.223,474.675 460.898,474.32    460.898,473.972 460.898,473.623 461.223,473.271 461.223,472.566 461.877,472.212 462.2,471.861 462.527,471.861    462.527,471.511 462.2,471.511 461.877,471.511 461.549,471.511 460.898,471.158 460.898,470.81 461.223,470.455 461.223,470.107    460.898,469.753 460.243,470.107 459.92,469.4 459.594,469.048 458.944,469.048 458.289,469.048 457.64,469.048 457.309,468.347    456.984,467.994 456.657,467.994 456.657,467.292 456.657,466.941 456.657,466.589 456.009,466.589 456.009,466.236    456.337,466.236 456.337,465.886 456.657,465.535 456.984,464.828 457.309,464.128 457.309,463.427 456.984,463.072    456.337,463.072 456.009,463.072 456.009,462.718 455.683,462.718 455.358,462.718 455.031,462.718 454.703,462.718    454.703,462.369 454.703,462.017 455.031,462.017 455.358,461.316 455.683,461.316 456.009,460.615 455.683,460.261    455.358,460.261 455.031,460.261 454.38,460.261 454.052,459.906 453.726,459.906 453.401,459.906 453.726,459.205    453.726,458.851 454.052,458.851 454.703,459.205 455.031,459.205 455.031,458.851 455.358,458.851 455.683,458.152    456.009,457.798 456.337,457.798 456.657,457.798 456.984,457.447 456.984,457.097 457.309,456.039 456.984,456.039    456.337,455.687 456.009,454.982 455.683,454.634 456.337,453.933 456.657,453.58 456.984,452.875 456.984,452.523    456.984,451.818 456.337,451.818 456.009,450.767 456.009,450.419 456.009,449.71 455.683,449.71 455.358,449.71 455.031,449.71    455.358,449.009 455.683,448.304 456.337,447.953 456.337,447.603 456.337,447.251 456.337,446.898 456.337,446.546    456.009,446.546 455.683,446.546 455.358,445.492 455.031,445.14 454.703,444.437 454.38,443.734 454.052,443.38 453.726,443.029    453.726,442.328 453.726,441.978 453.726,441.273 453.401,440.571 453.074,440.571 452.751,439.866 452.751,439.165    453.074,438.812 453.074,438.461 453.401,437.758 453.726,437.407 453.726,436.699 453.726,436.348 453.726,435.65    453.074,435.296 453.074,434.945 453.401,434.241 453.401,433.89 453.401,433.186 453.401,432.486 453.401,432.133    453.401,431.778 453.726,431.778 454.052,431.778 454.38,431.778 454.703,431.428 455.031,430.021 455.031,429.668    455.358,429.668 455.358,429.32 455.358,428.97 455.358,428.615 455.358,427.91 455.031,427.562 455.031,427.209 455.358,426.858    455.031,426.156 455.031,425.806 455.031,425.452 454.703,425.452 454.38,425.452 454.38,425.098 454.703,424.747    454.703,424.396 454.703,424.042 454.703,423.691 454.703,423.341   " id="upazila_39" area="upazlia" name="sadar" bengali="বান্দরবান-সদর" parent="bandarban"></polygon><polygon points="472.96,424.396 474.586,424.747 475.892,425.101 476.865,425.452 477.844,425.806    478.823,425.806 479.475,426.153 480.452,426.504 481.104,426.504 481.758,426.858 482.086,426.858 483.061,427.209    483.715,427.209 484.365,427.56 485.018,427.56 485.664,427.914 486.322,428.615 486.972,428.97 487.626,429.668 487.949,430.021    488.279,430.727 488.927,431.074 489.905,432.483 490.23,433.186 490.886,433.89 491.859,434.945 492.841,435.65 493.49,436.702    494.144,437.407 494.144,437.758 494.469,438.109 495.118,438.812 495.448,439.161 496.098,439.516 496.424,439.866    496.752,440.217 496.752,440.921 496.752,441.626 497.075,442.679 497.075,443.029 497.075,443.384 497.727,444.791    498.052,445.492 498.052,446.546 497.402,447.251 497.075,447.603 496.424,447.953 495.773,448.304 495.448,448.656    495.118,448.656 494.79,449.005 494.469,449.361 494.469,449.71 493.819,450.062 493.49,450.416 493.164,450.767 492.841,450.767    492.512,451.121 492.187,451.121 491.532,451.47 490.558,451.818 490.23,452.173 489.578,452.173 488.279,452.523    486.972,452.875 485.99,453.582 485.344,453.929 484.693,454.285 483.715,454.634 483.061,454.986 482.409,455.335    482.086,455.687 481.429,456.392 480.781,457.097 480.452,457.447 479.475,457.8 479.15,457.8 478.498,458.152 477.844,458.851    477.521,459.205 477.521,459.906 477.196,460.615 477.196,460.964 477.196,461.316 477.196,461.664 477.521,462.017    477.844,462.369 478.172,462.722 478.172,463.072 478.172,463.775 478.172,464.478 478.172,465.183 478.172,465.886    478.172,466.589 478.172,466.941 477.844,467.994 477.521,468.347 477.521,468.695 477.196,469.048 477.196,469.404    476.865,469.404 476.541,470.103 476.218,470.458 475.892,470.81 475.236,471.511 475.236,471.861 474.909,471.861    474.586,472.212 474.26,472.566 473.932,473.271 473.61,474.324 473.281,475.378 472.635,473.623 472.635,473.271    472.635,472.917 472.96,472.212 472.635,471.511 471.978,470.81 471.326,469.753 470.998,468.695 470.675,467.642    470.349,466.589 470.027,465.535 469.369,464.128 468.72,462.722 468.067,461.316 467.415,460.261 467.092,459.556 466.766,458.5    466.11,457.8 465.783,456.392 465.135,455.687 464.809,453.929 463.829,452.523 463.506,451.818 463.177,451.121 462.852,450.416    462.852,450.062 462.527,449.361 462.852,449.361 463.829,448.656 464.156,448.304 464.484,447.953 464.156,446.898    464.156,446.546 464.484,445.843 464.809,445.492 465.135,445.492 465.46,445.14 465.783,445.14 466.441,444.791 466.766,444.791    467.415,444.791 467.74,444.437 468.067,444.437 468.392,444.437 468.72,444.791 469.369,444.791 469.698,445.492    469.698,445.843 470.027,446.546 470.349,447.251 470.675,447.603 470.998,447.953 471.326,448.656 471.653,448.656    471.978,448.656 472.635,448.656 473.281,448.304 473.932,447.953 474.586,447.603 474.909,447.251 475.236,446.898    475.567,446.197 475.567,445.492 475.567,444.791 475.236,444.437 474.909,443.734 474.586,443.029 474.26,442.679    473.932,442.328 473.281,441.626 472.96,441.273 472.635,441.273 471.978,440.921 471.653,440.571 471.326,440.217    471.326,439.866 471.326,439.516 471.326,438.812 471.978,438.812 471.978,438.461 472.303,438.109 472.635,437.758    472.635,437.407 472.635,436.702 472.635,436.348 472.303,435.998 471.978,435.65 471.653,435.65 471.326,435.296    470.998,435.296 470.675,435.296 470.349,434.945 470.349,434.595 470.349,434.241 470.349,433.89 470.349,433.536    470.675,433.186 470.998,432.834 470.998,432.483 470.998,431.428 470.998,430.727 471.326,430.372 471.326,429.32    471.653,428.265 471.978,427.209 472.303,426.858 472.303,426.504 472.635,425.806   " id="upazila_42" area="upazlia" name="rowangchhari" bengali="রোয়াংছড়ি" parent="bandarban"></polygon><polygon points="473.281,475.378 473.61,474.32 473.935,473.271 474.26,472.566 474.586,472.212 474.909,471.861    475.239,471.861 475.239,471.511 475.892,470.806 476.218,470.455 476.541,470.107 476.866,469.4 477.193,469.4 477.193,469.048    477.521,468.699 477.521,468.347 477.844,467.994 478.172,466.941 478.172,466.589 478.172,465.886 478.172,465.183    478.172,464.478 478.172,463.777 478.172,463.072 478.172,462.718 477.844,462.369 477.521,462.017 477.193,461.666    477.193,461.316 477.193,460.964 477.193,460.615 477.521,459.91 477.521,459.205 477.844,458.851 478.495,458.152    479.15,457.798 479.475,457.798 480.452,457.447 480.779,457.097 481.432,456.392 482.081,455.687 482.409,455.339    483.058,454.986 483.715,454.634 484.693,454.285 485.344,453.929 485.992,453.582 486.972,452.875 488.279,452.523    489.578,452.173 490.23,452.173 490.558,451.822 491.531,451.468 492.187,451.117 492.512,451.117 492.838,450.767    493.164,450.767 493.49,450.419 493.819,450.062 494.469,449.71 494.469,449.361 494.795,449.009 495.118,448.658    495.448,448.658 495.773,448.304 496.424,447.953 497.075,447.603 497.402,447.251 498.052,446.546 498.381,447.603    498.381,447.953 498.381,449.361 498.381,449.71 498.704,450.419 498.704,451.117 499.031,451.468 499.031,452.173    499.359,452.875 499.359,453.582 499.684,454.634 499.684,454.986 499.684,455.339 500.012,456.039 500.335,456.392    500.335,457.097 500.658,457.447 500.658,458.152 500.658,458.503 500.658,459.556 501.313,460.615 501.641,460.964    501.967,462.017 502.287,462.718 502.287,463.072 502.615,463.427 502.945,464.478 503.267,464.478 503.593,465.531    503.593,465.886 503.921,466.236 503.921,466.941 504.244,467.642 504.573,467.994 505.224,469.753 505.878,471.511    506.528,472.917 507.178,473.972 507.83,475.378 508.81,476.785 509.135,477.837 509.461,478.894 509.784,479.953 510.114,480.65    510.767,481.707 511.093,482.765 511.741,484.167 510.767,484.519 510.439,485.224 508.156,486.279 506.853,486.98    505.552,487.685 503.921,488.037 501.967,489.091 500.985,489.794 500.012,490.144 499.359,490.496 498.381,490.845    497.402,491.201 496.752,491.201 496.098,491.554 495.773,491.904 495.448,492.255 494.795,492.255 494.469,492.255    494.469,491.904 494.144,491.201 493.819,490.845 493.49,490.144 492.838,489.443 492.187,488.738 492.187,488.037    491.531,487.685 491.212,486.63 491.212,486.279 490.886,485.574 490.558,485.574 490.23,485.224 490.23,484.871 489.905,484.167    489.578,483.814 488.598,482.765 487.626,483.117 487.298,483.466 486.972,483.466 485.992,484.167 485.018,484.871    483.715,485.925 482.733,486.98 481.758,487.685 480.779,488.388 480.129,488.738 479.475,489.443 478.495,490.144    477.844,490.845 477.521,491.201 477.193,491.201 476.866,491.554 476.541,491.904 476.541,491.554 476.541,491.201    476.541,490.845 476.541,490.496 476.218,490.496 476.218,489.794 476.218,489.443 476.218,489.091 476.218,488.388    476.218,488.037 475.892,487.332 475.892,486.279 475.567,485.224 475.239,484.871 475.239,484.519 475.239,484.167    474.909,483.814 474.586,482.765 474.586,482.056 474.26,481.707 474.26,481.001 473.935,480.65 473.61,480.302 473.935,479.244    474.26,479.244 474.26,478.894 474.26,478.542 474.26,477.837 474.26,477.488 474.26,477.136 473.935,476.785 473.61,476.435    " id="upazila_43" area="upazlia" name="ruma" bengali="রুমা" parent="bandarban"></polygon><polygon points="511.741,484.167 512.068,484.167 512.396,484.873 513.047,485.925 513.698,487.332    514.676,488.388 515.004,488.738 515.004,489.091 515.327,489.443 515.654,489.443 515.654,489.794 516.633,490.144    515.979,491.904 515.654,491.904 515.327,491.904 515.004,491.904 514.676,492.607 514.025,492.96 514.025,493.66    514.025,494.013 514.025,494.363 514.35,495.068 514.35,495.419 514.676,495.769 515.004,496.125 515.004,496.826    514.676,497.175 514.35,497.175 513.698,497.527 513.698,497.882 513.37,499.638 513.37,500.693 513.37,502.099 513.047,503.857    513.37,505.617 513.37,506.32 513.37,506.669 513.698,507.371 513.698,507.726 514.025,508.431 514.025,508.781 513.698,509.482    513.698,509.833 513.37,510.892 513.047,511.593 513.047,512.646 512.719,513.351 512.719,514.052 513.047,515.111    513.047,515.81 513.37,517.22 513.047,518.275 512.719,519.328 512.719,520.382 512.719,521.087 512.719,521.789 513.047,522.845    513.37,523.546 513.698,524.601 513.698,524.957 513.698,525.658 513.698,526.359 513.698,527.062 513.37,528.47 513.37,529.523    513.047,530.228 513.047,530.931 513.37,531.283 513.37,531.984 513.698,532.689 514.025,533.041 513.37,533.041 513.047,533.041    513.047,533.39 513.37,533.742 513.698,534.449 513.698,534.8 514.025,535.853 514.35,537.259 515.004,540.777 515.327,542.179    515.327,543.941 515.654,545.347 515.654,547.458 515.654,548.509 515.979,549.566 516.633,550.972 517.281,552.025    517.281,552.728 517.281,553.789 517.611,555.191 517.933,556.248 518.587,557.298 518.261,558.003 518.587,558.708    518.261,559.41 518.261,560.115 518.261,560.466 518.587,561.167 518.587,561.519 519.568,563.628 519.893,565.39    520.219,566.443 520.544,567.498 520.867,568.552 521.519,569.609 522.173,569.958 522.173,570.31 522.496,571.011    522.496,571.363 522.173,571.716 522.173,572.068 521.847,572.421 520.867,572.771 520.219,573.126 519.568,573.126    518.587,573.474 518.261,573.824 517.611,574.179 516.956,574.179 515.979,574.88 515.654,575.585 515.004,575.935 514.35,576.64    514.35,577.341 514.35,577.693 513.698,577.693 512.719,577.693 512.068,578.046 511.741,578.396 511.093,578.046    510.767,577.341 510.767,576.992 510.767,576.287 511.093,575.935 511.093,575.236 511.093,574.88 510.767,574.529    510.767,574.179 510.767,573.474 510.439,572.421 510.439,572.068 510.114,571.716 509.784,571.363 509.784,571.011    509.461,570.662 509.135,569.958 509.135,569.609 509.135,569.257 509.135,568.904 509.135,568.203 508.81,567.849    508.81,567.498 508.81,567.144 508.485,566.796 508.156,566.796 508.156,566.091 508.156,565.74 507.83,565.39 507.83,564.681    507.83,564.332 507.83,563.628 507.83,563.279 507.83,562.578 507.507,562.222 507.178,561.519 507.178,561.167 507.178,560.816    506.853,560.466 507.178,560.115 507.178,559.761 507.178,559.06 507.178,558.708 507.178,558.003 507.178,557.654    506.853,556.951 506.528,556.248 506.201,555.542 506.201,554.486 505.878,553.789 505.878,552.728 505.552,552.378    505.552,552.025 505.224,551.673 505.224,550.972 504.899,550.271 504.899,549.916 504.899,549.214 504.899,548.509    504.573,547.458 504.244,546.05 504.244,545.347 503.921,544.294 503.267,542.884 503.267,541.126 502.615,539.017    501.967,537.964 501.967,537.615 501.967,537.259 501.641,536.908 501.313,536.558 501.313,536.203 501.313,535.503    500.985,535.503 500.985,535.146 500.335,534.099 500.335,533.742 500.335,533.39 500.658,533.041 500.658,532.335    500.985,531.636 500.985,530.931 501.313,529.171 501.313,528.47 500.985,527.416 500.658,526.712 500.335,526.007    500.012,525.658 499.684,524.957 499.684,524.251 499.359,523.9 499.031,523.9 498.704,523.195 498.052,521.789 496.424,519.328    496.424,518.974 495.773,518.275 495.773,517.923 494.144,514.757 493.819,514.052 493.164,513.351 493.164,512.998    492.838,512.998 492.512,511.945 492.512,511.593 492.187,510.892 491.862,509.833 491.531,509.833 491.531,509.482    491.212,508.781 490.886,507.726 490.558,507.726 490.23,506.669 489.905,505.968 489.578,505.617 489.255,504.914    488.927,504.208 488.601,503.507 488.276,502.804 487.949,502.451 487.298,501.396 485.664,499.638 485.344,498.937    485.018,498.583 484.365,497.175 483.715,496.125 483.386,495.068 483.058,494.363 482.733,493.66 482.733,493.312    481.758,491.554 481.104,490.496 480.452,489.091 480.129,488.738 480.779,488.388 481.758,487.683 482.733,486.98    483.715,485.925 485.018,484.873 485.992,484.167 486.969,483.466 487.298,483.466 487.626,483.117 488.601,482.761    489.578,483.814 489.905,484.167 490.23,484.873 490.23,485.224 490.558,485.574 490.886,485.574 491.212,486.279 491.212,486.63    491.531,487.683 492.187,488.037 492.187,488.738 492.838,489.443 493.49,490.144 493.819,490.845 494.144,491.197    494.469,491.904 494.469,492.255 494.795,492.255 495.448,492.255 495.773,491.904 496.098,491.554 496.752,491.197    497.402,491.197 498.381,490.845 499.359,490.496 500.012,490.144 500.985,489.794 501.967,489.091 503.921,488.037    505.552,487.683 506.853,486.98 508.156,486.279 510.439,485.224 510.767,484.519   " id="upazila_44" area="upazlia" name="thanchi" bengali="থানচি" parent="bandarban"></polygon><polygon points="474.26,534.449 474.909,529.876 475.892,524.957 478.172,518.275 480.452,514.404    483.386,511.244 486.322,507.726 488.598,503.507 488.927,504.208 489.255,504.914 489.578,505.617 489.905,505.968    490.23,506.669 490.558,507.726 490.886,507.726 491.212,508.781 491.531,509.482 491.531,509.833 491.862,509.833    492.187,510.888 492.512,511.593 492.512,511.945 492.838,513 493.164,513 493.164,513.351 493.819,514.052 494.144,514.757    495.773,517.923 495.773,518.275 496.424,518.974 496.424,519.324 498.052,521.789 498.704,523.195 499.031,523.9 499.356,523.9    499.684,524.251 499.684,524.957 500.012,525.654 500.335,526.007 500.658,526.712 500.985,527.416 501.316,528.47    501.316,529.169 500.985,530.931 500.985,531.636 500.658,532.335 500.658,533.041 500.335,533.39 500.335,533.746    500.335,534.099 500.985,535.146 500.985,535.503 501.316,535.503 501.316,536.203 501.316,536.558 501.641,536.908    501.967,537.259 501.967,537.615 501.967,537.964 502.618,539.019 503.267,541.126 503.267,542.888 503.921,544.294    504.244,545.347 504.244,546.05 504.573,547.458 504.899,548.509 504.899,549.214 504.899,549.916 504.899,550.271    505.224,550.972 505.224,551.673 505.552,552.025 505.552,552.378 505.878,552.728 505.878,553.789 506.201,554.49    506.201,555.544 506.528,556.248 506.853,556.951 507.178,557.654 507.178,558.003 507.178,558.708 507.178,559.06    507.178,559.763 506.853,559.41 506.528,559.41 506.201,559.06 505.878,558.708 505.552,558.708 505.224,558.708 504.573,559.06    503.921,559.41 503.595,559.763 502.945,560.466 502.287,560.466 501.641,560.466 500.985,560.115 500.658,560.466    500.658,560.816 500.335,561.167 500.658,561.873 500.335,562.226 500.658,562.578 500.335,563.279 499.684,563.279    499.356,563.628 498.704,563.628 498.052,563.978 497.402,563.978 497.075,563.978 496.424,563.628 495.773,563.628    495.448,563.279 494.79,563.279 494.469,562.927 493.819,562.578 493.164,562.578 492.838,562.578 492.512,562.927    491.862,562.927 491.531,562.927 491.212,562.578 490.886,562.226 490.558,561.873 490.558,561.519 490.23,561.519    490.23,561.167 490.23,560.466 490.23,559.763 490.558,559.41 490.558,558.708 490.558,558.003 490.558,557.298 490.23,556.951    490.23,556.597 490.23,556.248 489.905,555.544 489.905,555.191 489.578,554.839 489.578,554.49 489.255,554.136 488.927,554.136    488.598,553.789 488.279,553.433 487.949,553.433 487.626,553.433 487.298,553.433 486.647,553.083 486.322,552.728    486.322,552.378 485.992,552.025 485.664,551.673 485.664,551.324 485.344,551.324 485.018,550.972 484.693,550.972    484.693,550.625 484.365,550.271 484.365,549.566 484.035,549.214 483.715,548.509 483.715,547.808 483.386,546.753    483.058,546.05 482.733,544.642 482.081,542.888 481.758,542.535 481.104,541.83 480.779,541.83 480.129,541.126 479.475,540.425    478.823,539.72 477.844,538.666 476.866,537.259 476.218,536.203 475.239,535.503 474.909,534.8   " id="upazila_38" area="upazlia" name="alikadam" bengali="আলীকদম" parent="bandarban"></polygon><polygon points="453.074,531.636 453.398,530.578 453.398,530.228 453.398,529.876 453.074,529.523    452.751,529.523 452.751,529.169 452.423,529.169 452.094,528.822 451.447,528.474 451.117,528.474 450.789,528.474    450.466,527.765 450.143,527.416 449.49,527.416 449.163,527.416 449.163,527.062 448.84,527.062 448.84,526.712 448.511,526.712    448.186,526.359 447.531,526.007 447.531,525.658 448.186,525.658 448.186,525.304 448.511,525.304 449.163,524.603    452.423,524.603 454.38,524.603 456.009,524.603 456.657,524.603 457.312,524.603 457.966,524.251 458.289,524.251 458.944,523.9    459.266,523.9 460.243,523.9 460.573,523.9 461.223,523.9 461.877,523.546 462.527,523.546 462.852,523.546 463.506,523.546    463.829,523.546 463.506,523.9 463.506,524.251 463.506,524.603 463.177,525.304 462.852,525.658 462.852,526.359 462.2,527.062    461.877,527.765 461.549,528.119 461.549,528.822 461.223,529.169 460.898,529.876 461.223,530.228 461.223,530.578    461.549,530.578 461.877,530.578 462.527,530.578 462.852,530.228 463.506,529.876 464.156,529.523 464.809,529.523    465.786,529.523 466.438,529.523 467.74,529.523 468.392,529.523 469.046,529.523 469.698,529.169 470.024,529.523    470.349,530.228 470.998,531.287 471.326,531.287 471.978,531.984 472.303,532.689 473.61,533.746 474.26,534.449 474.909,534.8    475.239,535.503 476.218,536.207 476.866,537.259 477.844,538.666 478.823,539.72 479.478,540.425 480.129,541.126    480.779,541.83 481.104,541.83 481.758,542.535 482.081,542.888 482.733,544.642 483.058,546.05 483.386,546.753 483.715,547.808    483.715,548.509 484.038,549.214 484.365,549.566 484.365,550.271 484.038,550.271 483.715,549.916 483.715,550.271    483.386,550.271 483.058,550.621 482.733,550.621 482.409,550.271 482.081,550.271 482.081,550.621 481.758,550.972    481.432,551.324 481.432,551.677 481.104,551.677 480.779,552.025 480.452,552.378 480.129,552.378 479.801,552.378    479.15,552.378 478.823,552.378 478.823,552.728 478.495,552.728 478.495,553.083 478.495,553.433 478.172,554.49    478.172,554.839 477.844,555.191 477.844,555.542 477.844,555.896 477.521,556.248 477.193,556.597 476.866,556.597    476.541,556.951 476.218,556.951 476.541,557.298 476.541,558.003 476.541,558.353 476.218,558.705 475.892,558.705    475.567,558.353 475.239,558.353 474.909,558.353 474.909,558.705 474.586,558.705 474.26,558.705 473.932,558.353    473.61,558.003 473.281,558.003 473.281,557.654 472.96,558.003 472.96,558.353 472.632,558.003 472.303,558.003 472.303,557.654    472.303,557.298 471.978,556.951 471.653,556.951 471.326,556.951 470.677,556.951 470.349,556.951 470.024,556.951    469.369,556.951 469.046,556.951 468.72,557.298 468.72,557.654 469.046,558.003 469.046,558.353 468.72,559.06 468.72,559.414    468.392,559.763 468.392,560.115 468.72,560.462 469.046,560.816 468.72,560.816 468.72,561.167 468.392,561.167 468.067,561.519    467.74,561.873 467.415,561.873 467.092,562.226 466.763,562.578 466.763,562.927 466.763,563.279 466.763,563.628    466.763,564.333 466.763,565.035 467.092,565.386 467.092,565.74 467.092,566.091 466.763,566.796 466.438,566.796    466.113,566.796 465.786,566.796 465.135,566.796 464.484,566.796 464.156,566.796 464.156,567.144 463.829,567.144    463.829,567.498 463.506,567.849 463.177,567.498 462.852,567.498 462.852,567.144 462.527,567.498 462.2,567.498 462.2,567.849    461.877,568.199 461.549,568.552 461.223,569.257 460.573,569.609 460.243,569.958 459.92,569.958 459.92,570.306    459.594,570.306 459.594,571.367 459.594,572.068 459.266,572.421 459.594,573.474 459.594,574.179 460.243,574.88    460.573,575.585 460.898,575.935 461.223,576.638 461.877,576.992 462.2,577.693 461.877,578.751 461.877,579.101 462.2,579.8    462.2,581.21 462.2,581.562 462.2,581.916 462.2,582.265 462.2,582.617 462.527,582.968 462.852,583.669 462.2,584.023    462.2,584.375 461.877,584.375 461.549,584.724 461.549,585.076 461.223,585.433 461.223,585.783 461.223,586.13 460.898,586.482    460.898,586.835 460.573,587.187 460.573,587.537 460.243,587.892 460.243,588.242 459.92,588.242 459.92,587.892    459.594,587.892 459.594,588.242 459.266,588.242 458.944,588.595 458.615,588.595 458.289,588.947 457.966,589.294    457.966,589.646 457.966,590 457.64,590 457.64,590.353 457.312,590.353 456.657,590.353 456.657,589.646 456.984,589.646    456.984,589.294 456.984,588.595 457.312,588.242 456.984,587.892 456.657,587.537 456.657,587.187 456.332,586.482    456.332,586.13 456.332,585.783 456.332,585.433 456.657,585.076 456.657,584.375 456.984,584.023 457.312,584.023    457.312,583.669 457.64,583.318 457.64,582.968 457.966,582.617 457.966,581.916 457.966,581.562 457.966,580.857    458.289,580.505 458.289,580.154 458.289,579.8 458.615,579.453 458.615,579.101 457.966,578.751 457.64,578.751 456.984,578.751    456.657,578.396 456.984,577.693 456.657,577.341 456.657,576.638 456.332,575.935 455.683,575.236 455.358,574.88    455.031,574.529 455.031,574.179 454.703,573.474 454.38,573.125 454.052,572.771 453.726,572.068 453.398,571.367    453.398,571.015 453.074,570.662 453.074,570.306 452.751,569.609 452.751,569.257 452.751,568.904 452.423,568.552    452.423,568.199 452.094,567.849 451.772,567.498 451.772,566.796 451.772,566.091 451.447,565.74 451.447,565.035    451.117,564.333 451.117,563.628 450.789,562.927 450.466,562.226 450.143,561.519 450.466,560.816 450.466,560.462    450.143,560.462 450.466,560.115 450.789,559.763 451.117,559.763 451.447,560.115 451.772,560.115 452.094,560.115    452.423,560.115 452.751,559.763 453.074,559.06 453.398,559.06 453.398,558.705 453.726,558.353 453.726,558.003    453.726,557.654 453.726,557.298 454.052,556.248 454.052,555.896 454.38,555.896 454.703,555.896 455.031,555.896    455.683,556.248 456.009,556.248 456.332,556.248 456.657,555.542 456.657,555.896 456.657,556.248 456.984,556.597    456.984,556.951 457.64,556.951 457.64,557.298 457.966,557.298 457.966,557.654 457.966,558.353 458.289,559.06 458.615,559.06    458.944,560.115 458.944,560.462 458.944,560.816 459.266,561.167 459.266,561.519 459.594,561.873 459.92,561.873    460.243,561.519 460.573,561.873 461.223,561.519 461.549,561.167 461.877,561.167 461.877,560.816 462.2,560.816    462.852,560.816 463.177,560.816 463.829,560.816 464.484,560.816 464.809,560.816 465.135,560.816 465.46,560.816    465.46,560.462 465.46,559.763 465.135,559.763 465.135,559.414 464.809,559.06 465.135,558.705 465.135,558.353 465.135,558.003    465.135,557.654 464.809,557.298 464.156,557.298 463.506,557.298 463.506,556.951 463.506,556.597 463.506,556.248    463.506,555.896 463.506,555.542 463.177,555.542 463.177,554.839 463.506,554.49 463.829,554.49 464.156,554.49 464.156,554.136    464.156,553.785 464.156,553.433 464.484,553.433 464.809,553.433 464.809,553.083 464.809,552.728 464.809,552.378    464.484,552.378 464.484,552.025 464.809,552.025 464.809,551.677 464.809,551.324 464.484,550.972 464.484,550.621    464.156,550.271 463.177,549.916 462.852,549.916 462.852,549.566 462.527,549.566 462.527,548.509 462.527,548.16 462.2,547.808    461.877,547.458 461.549,546.753 461.223,546.402 460.573,546.753 460.573,546.402 460.243,546.402 459.92,546.402    459.594,546.05 459.266,545.697 458.944,546.05 458.944,546.402 458.615,546.402 458.289,546.402 458.289,546.05 457.966,546.05    457.64,546.402 457.312,546.402 457.312,546.05 456.984,546.05 456.984,545.697 456.984,545.347 456.657,544.992 456.657,544.642    456.332,544.294 456.009,543.589 455.683,543.589 455.358,543.238 455.358,542.535 455.031,542.179 455.031,541.83    455.031,541.478 455.031,541.126 455.358,540.777 455.683,540.425 456.009,540.076 456.009,539.72 456.332,539.371    456.657,539.371 456.657,539.017 456.984,539.017 457.312,539.017 457.64,539.017 457.966,538.666 457.966,538.312    458.289,538.312 458.289,537.964 458.615,537.259 458.615,536.908 458.289,536.207 457.966,535.853 457.966,535.503    457.966,535.146 457.64,535.146 457.64,534.8 457.64,534.449 457.312,534.095 457.312,533.746 456.984,533.746 456.984,533.39    457.312,533.041 457.312,532.335 457.312,531.984 456.984,531.636 456.657,531.287 456.009,530.931 456.009,531.287    455.683,531.636 455.358,531.984 454.38,532.335 454.052,532.335 453.726,532.335 453.726,531.984   " id="upazila_41" area="upazlia" name="naikhongchhari" bengali="নাইক্ষ্যংছড়ি" parent="bandarban"></polygon><polygon points="462.2,476.435 463.18,476.082 464.156,476.082 464.484,476.082 464.809,476.082 465.783,476.435    466.113,476.435 466.438,476.435 466.438,477.136 466.766,477.488 466.766,477.837 466.766,478.193 466.438,478.894    466.438,479.244 466.113,479.953 466.113,480.65 466.113,481.707 466.438,482.412 467.092,483.117 467.415,483.466    467.74,483.814 468.067,483.814 468.067,483.466 468.72,483.466 469.698,483.117 470.024,483.117 470.349,483.117    470.998,482.761 471.326,482.412 471.978,482.412 471.978,482.056 472.303,481.707 472.635,481.355 472.635,481.001    472.96,480.65 473.281,480.65 473.607,480.302 473.935,480.65 474.26,481.001 474.26,481.707 474.586,482.056 474.586,482.761    474.909,483.814 475.239,484.167 475.239,484.519 475.239,484.873 475.567,485.224 475.892,486.279 475.892,487.332    476.218,488.037 476.218,488.388 476.218,489.091 476.218,489.443 476.218,489.794 476.218,490.496 476.541,490.496    476.541,490.845 476.541,491.201 476.541,491.554 476.541,491.904 476.866,491.554 477.193,491.201 477.521,491.201    477.844,490.845 478.495,490.144 479.475,489.443 480.129,488.738 480.452,489.091 481.104,490.496 481.758,491.554    482.733,493.312 482.733,493.66 483.058,494.363 483.386,495.068 483.715,496.125 484.365,497.175 485.018,498.583    485.344,498.937 485.664,499.638 487.298,501.396 487.949,502.451 488.279,502.804 488.598,503.507 486.322,507.726    483.386,511.244 480.452,514.404 478.172,518.275 475.892,524.957 474.909,529.876 474.26,534.449 473.607,533.742    472.303,532.689 471.978,531.984 471.326,531.283 470.998,531.283 470.349,530.228 470.024,529.523 469.698,529.171    469.046,529.523 468.392,529.523 467.74,529.523 466.438,529.523 465.783,529.523 464.809,529.523 464.156,529.523    463.506,529.876 462.852,530.228 462.527,530.582 461.88,530.582 461.549,530.582 461.223,530.582 461.223,530.228    460.898,529.876 461.223,529.171 461.549,528.822 461.549,528.119 461.88,527.769 462.2,527.062 462.852,526.359 462.852,525.658    463.18,525.304 463.506,524.601 463.506,524.251 463.506,523.9 463.829,523.546 463.506,523.546 462.852,523.546 462.527,523.546    461.88,523.546 461.223,523.9 460.573,523.9 460.243,523.9 459.269,523.9 458.944,523.9 458.289,524.251 457.966,524.251    457.312,524.601 456.657,524.601 456.011,524.601 454.38,524.601 452.426,524.601 449.16,524.601 448.511,524.601    448.186,524.251 447.858,523.9 448.186,523.546 448.511,523.195 448.84,522.845 448.84,522.494 448.84,522.14 448.511,522.14    448.186,522.14 447.858,522.14 447.531,522.14 447.858,521.789 447.858,521.437 447.858,520.734 447.531,520.382 446.885,520.382    446.557,520.033 446.557,519.677 446.885,519.328 447.211,519.328 447.858,518.974 447.858,518.626 448.186,518.626    448.84,518.275 449.16,517.923 449.49,517.57 449.818,516.865 449.49,516.865 449.49,516.515 449.16,516.515 448.84,516.164    448.511,515.812 448.511,515.462 448.84,515.462 449.49,515.812 449.818,515.812 449.818,515.462 449.818,515.111 449.16,514.404    448.84,514.052 448.84,513.703 449.16,513.703 449.49,513.703 449.818,513.703 450.143,513.703 450.143,513.351 450.466,513.351    450.143,513.351 450.143,512.998 449.818,512.998 449.49,512.998 449.16,512.646 449.49,512.646 449.818,512.646 450.466,512.646    451.117,512.646 451.117,512.998 451.772,512.998 452.097,512.998 452.751,513.351 453.074,513.351 453.401,513.351    454.052,513.351 454.38,512.998 454.703,512.998 455.031,512.646 455.031,512.298 455.031,511.945 454.703,511.945    454.703,511.593 454.703,511.244 455.031,510.892 455.355,509.833 455.355,509.482 455.683,508.781 456.011,508.076    456.332,507.726 456.657,507.371 456.987,507.021 457.312,506.669 457.64,506.669 457.966,507.021 458.289,507.021    458.615,507.021 458.944,507.021 459.269,507.371 459.594,507.371 459.915,507.371 459.915,507.021 459.594,506.32    459.594,505.968 459.915,505.617 460.243,505.617 460.573,505.617 460.898,505.617 461.223,505.968 461.549,505.617    461.88,505.263 461.549,504.914 461.549,504.558 461.223,504.208 460.898,503.507 460.898,502.804 461.223,502.451    461.223,501.75 460.898,501.75 460.898,501.396 460.573,501.396 460.243,500.693 459.915,500.693 459.269,500.693    458.944,501.044 458.944,500.693 458.615,500.343 458.615,499.99 458.289,499.638 457.966,499.287 457.966,498.937    458.289,498.937 458.615,498.583 458.615,498.232 458.615,497.882 458.289,497.527 457.966,497.527 457.64,497.882    457.312,497.882 456.987,497.882 456.657,497.882 456.332,498.583 456.987,499.287 457.312,499.99 457.312,500.693    457.64,501.044 457.966,501.75 457.966,502.451 457.966,502.804 458.289,503.507 458.289,504.208 458.615,504.558    458.944,504.914 458.944,505.263 458.615,505.968 458.615,506.32 458.289,506.32 458.289,505.968 458.289,505.617    458.289,505.263 457.966,505.263 457.64,505.263 457.312,505.263 456.987,505.617 456.657,506.32 456.332,506.669    456.011,506.669 455.683,507.371 455.683,507.021 455.355,507.021 455.031,507.021 454.38,507.021 454.052,507.021    453.726,506.669 453.074,506.32 452.751,505.617 452.751,505.263 452.426,504.914 452.097,504.558 451.772,504.208    451.447,504.208 451.117,504.558 450.789,504.558 450.466,504.914 450.143,504.914 449.818,504.914 449.49,504.914    448.84,504.914 448.511,504.914 448.186,504.914 448.186,504.208 448.186,503.857 447.858,503.156 447.858,502.804    447.531,502.804 447.211,502.804 446.885,502.804 446.557,502.804 446.229,502.804 445.904,502.804 445.577,502.804    445.254,502.451 444.926,502.099 444.926,501.396 445.254,501.044 445.254,500.693 445.254,500.343 445.577,499.99    445.577,499.638 445.904,499.638 446.229,499.287 446.557,499.287 446.557,498.937 446.557,498.583 446.885,497.882    446.557,497.527 446.229,497.175 445.904,496.826 445.904,496.474 445.904,495.769 445.904,495.419 445.904,495.068    445.577,494.363 445.904,494.013 445.577,493.66 445.577,492.96 445.254,491.904 445.254,491.554 445.577,491.201    445.577,490.144 445.577,489.794 445.577,489.443 445.254,488.738 444.926,488.738 444.926,488.388 444.597,488.037    444.278,488.037 443.948,487.683 443.62,487.332 443.297,486.98 442.971,486.98 442.646,486.63 442.318,485.925 442.318,485.574    442.646,485.574 442.971,485.224 443.297,485.224 443.948,484.519 443.948,484.167 444.278,484.167 444.597,483.814    444.926,483.814 445.254,483.814 445.577,483.466 445.904,483.466 446.229,483.117 446.557,483.117 446.885,483.117    447.211,483.117 447.531,483.466 447.858,483.466 448.186,483.466 448.511,483.466 448.84,483.117 448.84,482.761 449.16,482.761    449.49,482.412 449.49,482.056 450.143,482.412 450.143,482.761 449.818,483.117 449.818,483.466 449.49,483.814 449.818,484.167    449.818,484.519 449.818,484.873 450.143,485.224 450.143,485.574 450.466,485.574 450.789,485.925 450.789,486.279    451.117,486.279 451.447,486.279 451.772,486.279 452.097,486.279 452.426,486.279 452.751,485.925 453.401,485.925    453.726,485.925 454.052,485.574 454.38,485.574 454.703,485.574 455.031,485.574 455.683,485.574 456.011,485.574    456.332,485.574 456.657,485.574 456.987,484.873 456.332,484.167 456.011,483.814 456.011,483.466 456.011,482.761    456.011,482.412 455.683,482.056 456.011,481.707 455.355,481.355 455.683,480.65 456.011,481.001 456.657,481.001    456.987,481.355 457.312,481.355 457.64,481.355 457.966,481.355 458.289,481.355 458.615,481.355 458.944,481.355    459.269,481.001 458.944,481.001 459.269,481.001 458.615,480.65 458.289,480.302 458.615,480.302 458.944,479.953    459.269,479.953 459.594,479.953 459.915,479.953 459.915,479.595 459.594,479.244 459.915,478.542 460.243,478.193    460.573,477.837 461.223,477.488 461.549,477.136 461.88,476.785   " id="upazila_40" area="upazlia" name="lama" bengali="লামা" parent="bandarban"></polygon></svg>