<svg enable-background="new -106.403 -201.859 629.266 880.536" height="880.536px" id="district_41" viewBox="-106.403 -201.859 629.266 880.536" width="629.266px" x="0px" xml:space="preserve" xmlns="http://www.w3.org/2000/svg" y="0px"><polygon points="194.609,435.65 194.936,435.65 195.912,435.65 195.912,435.998 196.566,435.65 196.24,435.296    196.24,434.945 196.566,434.592 196.891,434.945 197.216,434.945 197.869,434.945 198.847,435.296 198.847,434.945    199.172,434.945 199.498,434.945 199.823,434.592 200.476,434.945 200.802,434.945 200.802,434.592 201.127,434.241    201.127,433.89 201.454,434.241 201.78,434.592 201.78,435.296 201.78,435.65 201.454,436.348 201.127,436.699 201.127,437.054    201.78,437.054 202.105,437.054 202.758,437.054 202.433,437.407 202.433,438.109 202.105,438.461 202.105,438.812    202.105,439.165 202.758,439.513 202.758,440.22 203.083,440.571 203.408,440.571 203.737,440.921 204.062,441.273    204.712,441.273 205.038,441.273 205.366,441.273 205.366,441.626 205.038,441.98 204.712,441.98 204.712,442.328    204.062,443.384 204.387,443.734 205.038,443.734 205.366,443.029 206.017,443.029 206.342,442.679 206.669,442.679    206.994,442.328 207.971,441.98 207.971,441.626 208.624,441.273 209.602,440.921 210.578,440.571 211.233,440.22    211.233,440.571 211.233,440.921 210.907,441.273 210.907,441.626 210.578,441.98 210.578,442.328 210.578,442.679    210.907,443.029 211.558,443.029 211.558,443.384 211.233,444.085 211.883,444.085 212.211,443.734 212.536,444.085    212.862,444.437 212.862,444.791 213.512,445.14 213.837,445.14 214.165,444.791 214.819,444.791 214.819,445.14 214.819,445.492    214.493,445.843 214.493,446.193 214.493,446.546 214.493,446.898 214.819,447.251 214.819,447.603 214.493,447.953    214.493,448.308 214.493,448.656 214.493,449.009 214.819,449.009 215.469,449.009 216.122,449.361 216.445,449.71    216.122,450.062 215.794,450.419 215.144,451.117 214.819,451.468 214.819,452.173 214.165,452.173 213.837,452.173    213.837,452.523 213.187,452.875 212.536,452.875 212.211,453.228 211.883,453.582 211.558,453.929 211.558,454.285    211.558,455.335 211.558,455.687 211.558,456.039 211.883,456.746 211.883,457.097 211.883,457.447 211.558,458.152    211.558,458.503 211.883,458.851 212.211,459.205 212.211,459.556 212.536,459.91 212.211,460.261 211.883,461.316    211.233,462.017 210.907,462.718 210.578,463.427 210.578,463.777 209.928,464.128 209.275,464.478 208.951,464.478    208.624,465.183 208.624,465.531 208.624,465.886 208.624,466.236 208.299,466.941 207.971,467.292 207.646,467.642    207.323,467.994 206.669,467.642 206.342,467.642 205.691,467.642 205.366,467.642 205.366,468.347 205.366,469.048    205.366,469.4 205.366,469.753 205.038,469.753 204.712,469.753 204.387,469.753 204.062,469.753 204.387,470.107    204.712,470.455 205.366,470.455 205.366,470.806 205.366,471.16 205.038,471.16 204.712,471.16 204.387,471.511 204.062,471.511    203.737,471.861 203.408,471.861 202.758,471.861 202.105,471.861 201.78,471.861 201.454,471.861 201.127,471.861    200.476,471.861 200.151,471.861 199.823,472.212 199.823,473.271 199.823,473.619 199.498,473.972 199.498,474.32    198.847,474.675 198.52,474.675 198.195,474.675 197.541,474.675 197.541,474.32 197.216,474.32 196.566,473.972 196.24,473.972    195.912,473.972 195.587,473.972 195.587,473.619 196.24,473.271 196.891,473.271 197.216,472.917 197.216,473.271    197.541,473.619 197.869,473.271 198.195,473.271 198.52,472.917 198.847,472.566 198.195,472.566 197.541,472.566    196.891,472.566 196.566,472.212 196.891,471.861 197.216,471.861 197.869,470.806 196.891,470.455 196.566,470.107    195.912,470.107 195.587,469.753 195.262,469.4 194.936,469.048 194.609,468.699 193.957,468.699 193.307,468.347 192.98,467.994    192.654,467.994 192.654,467.642 193.307,467.642 193.632,467.642 193.957,467.292 193.957,466.941 193.307,466.589    192.98,465.886 192.654,465.886 192.326,465.886 191.676,465.886 191.35,466.236 191.025,466.236 190.699,466.589    191.025,467.292 191.025,467.642 191.35,468.347 190.699,468.347 190.699,469.048 191.025,469.4 191.025,469.753 191.676,469.753    192.326,469.4 192.654,469.4 192.98,469.753 192.654,470.107 192.654,470.455 192.654,470.806 192.654,471.16 192.98,471.511    193.307,471.16 193.957,471.16 194.609,471.511 194.609,471.861 193.957,471.861 193.632,472.212 193.632,472.917    193.632,473.271 194.609,473.972 194.283,474.32 194.283,474.675 193.957,474.32 193.307,473.972 192.326,474.32 192.98,474.675    193.307,475.029 193.307,475.378 193.307,475.728 192.654,475.029 192.003,475.378 191.676,475.378 191.025,475.029    190.699,475.378 190.372,475.728 190.372,476.082 190.699,476.435 190.372,476.785 190.699,477.136 190.372,477.136    190.046,477.837 190.046,478.542 190.699,478.894 191.025,479.244 191.025,479.599 190.699,479.953 190.699,480.302    191.35,481.001 191.025,481.001 190.699,481.001 190.046,481.001 189.721,481.001 189.394,481.355 189.394,481.707    188.742,481.355 188.09,481.001 187.439,480.65 186.785,481.355 186.46,481.707 185.81,482.408 185.482,483.117 185.156,483.814    184.506,484.519 184.179,485.574 184.179,486.63 184.179,487.332 184.831,487.683 185.156,488.037 185.156,488.738    183.853,489.089 181.246,489.794 180.593,490.496 180.92,492.255 180.92,493.312 180.92,493.66 180.268,494.718 179.616,495.419    178.639,496.826 177.988,497.882 177.009,498.583 176.031,499.287 175.38,499.287 175.38,499.638 175.38,499.99 174.727,501.044    173.098,501.044 171.469,500.693 170.817,500.339 170.165,499.99 169.837,499.287 169.187,497.882 168.862,497.175    170.165,496.474 170.165,495.419 170.49,495.068 170.49,494.009 169.837,492.607 169.837,491.55 169.837,490.849 169.837,490.496    169.837,489.443 169.513,488.388 169.837,487.683 169.837,486.98 170.165,485.224 170.817,485.224 171.469,485.224    172.12,484.871 172.446,484.871 173.098,484.519 174.076,484.519 175.38,483.814 175.705,483.117 176.357,482.056    176.357,481.001 176.357,480.65 176.357,479.599 176.031,478.542 176.357,477.136 176.684,476.435 177.335,475.029    178.313,473.619 178.639,472.917 178.964,471.861 179.289,471.16 180.268,470.455 181.246,469.753 181.897,469.048 183.2,467.994    183.853,467.292 184.831,466.236 185.482,465.531 186.135,465.183 186.135,464.478 186.785,463.427 187.114,463.072    187.114,462.369 187.439,462.017 188.09,461.664 188.742,461.664 189.069,461.664 189.721,462.369 190.372,462.718    190.699,462.718 192.654,463.072 193.632,462.369 194.609,461.664 195.262,461.316 195.262,460.964 195.587,460.261    196.24,459.205 196.24,458.851 196.566,458.152 197.216,457.798 197.541,457.798 196.891,457.798 196.566,457.798 196.24,456.392    196.566,455.687 196.566,455.335 196.566,454.634 196.891,453.929 197.541,453.582 197.869,453.582 197.541,453.228    197.869,452.523 198.195,451.822 198.52,450.767 198.52,450.062 198.52,449.009 198.195,448.656 197.869,447.953 197.869,447.603    197.541,446.898 197.541,446.193 197.541,445.492 196.891,445.14 196.891,444.791 196.891,444.437 196.891,444.085    196.566,444.085 196.566,444.791 196.891,445.14 197.216,445.492 197.216,446.193 196.566,445.843 195.587,445.492    195.587,444.791 195.587,443.734 195.912,443.029 195.912,441.98 195.912,441.273 195.912,440.22 195.912,439.863    195.912,439.165 195.587,438.109 195.587,437.758 195.262,437.407   " id="upazila_0" area="upazlia" name="amtali" bengali="আমতলী" parent="barguna"></polygon><polygon points="187.439,442.328 188.417,443.029 189.069,443.029 189.721,444.437 190.372,444.791    191.025,444.791 191.35,445.14 192.003,445.14 192.98,445.492 193.307,445.843 194.283,446.197 194.936,447.251 195.587,448.304    195.912,448.656 196.566,449.005 196.891,449.361 197.216,449.71 197.216,450.062 196.566,450.767 195.587,452.173    195.261,452.875 194.936,453.582 194.936,453.929 194.609,454.634 194.609,454.986 194.283,456.746 194.283,457.447    194.283,458.152 194.283,458.851 193.632,459.556 193.307,460.261 192.654,460.261 191.676,460.261 190.699,459.906    189.721,459.556 189.069,459.205 188.417,459.205 188.09,459.205 187.114,459.556 186.785,459.906 186.46,460.261    186.135,460.611 185.81,460.964 185.482,461.664 185.156,462.369 184.831,463.072 184.506,463.423 183.853,464.128    183.528,464.828 183.2,464.828 182.55,465.531 182.224,465.886 181.246,466.589 180.593,467.292 180.268,467.292 179.289,467.994    178.964,468.347 178.639,468.695 177.988,469.048 177.66,469.753 177.009,470.458 176.684,471.158 176.357,471.861    176.031,472.566 175.705,473.271 175.705,473.619 175.38,474.675 175.055,476.082 174.727,476.435 174.402,476.785    174.076,477.837 174.076,478.894 174.076,479.953 174.076,480.302 174.076,481.355 173.751,481.703 172.773,481.001    172.446,480.65 172.12,480.65 171.792,479.953 171.141,479.953 170.49,480.302 169.513,480.302 168.533,480.302 168.533,479.953    167.884,479.599 166.579,478.894 166.252,478.193 165.601,476.435 164.948,475.025 164.297,473.972 164.623,472.917    166.579,472.212 168.533,471.511 169.187,470.81 170.163,469.753 170.163,469.048 170.817,467.292 170.163,465.183    170.163,463.775 169.837,461.664 170.163,460.611 170.49,459.556 171.141,458.851 172.12,458.152 173.424,457.447    174.076,457.097 175.055,456.392 176.031,455.335 176.357,454.634 176.031,453.582 175.38,452.523 174.727,452.173    173.751,451.818 172.773,451.47 171.469,451.121 170.817,450.767 169.837,450.416 169.187,449.71 169.837,449.361    171.792,449.005 173.098,448.304 174.402,447.603 175.705,446.898 176.031,446.898 176.031,447.251 176.357,447.251    177.009,447.603 177.334,447.251 177.66,447.251 177.988,447.251 178.313,446.898 178.964,446.898 179.289,446.898    179.616,447.251 179.943,447.251 180.593,446.898 180.92,446.546 180.92,446.197 180.92,445.14 180.92,444.437 180.92,444.085    180.92,443.734 181.246,443.384 181.897,443.029 182.224,443.029 182.55,443.029 182.875,443.384 183.528,443.384    184.179,443.384 184.506,443.384 184.831,443.384 185.482,443.384 185.81,443.029 186.135,443.029 186.46,442.675    187.114,442.328   " id="upazila_2" area="upazlia" name="bargunasadar" bengali="বরগুনা-সদর" parent="barguna"></polygon><polygon points="167.884,445.492 167.884,446.193 167.884,446.546 167.884,446.898 168.208,446.546    168.534,446.193 168.863,446.193 169.187,446.193 169.187,446.546 168.863,446.898 168.863,447.251 168.863,447.603    168.863,447.953 168.534,448.304 168.208,448.658 167.884,448.658 167.558,449.009 167.884,449.361 167.884,449.71    167.884,450.062 167.558,450.062 167.231,450.062 166.905,450.419 166.58,450.419 166.58,450.767 166.905,451.117    166.905,451.468 167.558,451.468 168.208,451.822 168.863,451.822 169.187,452.173 169.838,452.875 170.49,453.228    173.751,453.929 174.728,454.285 174.076,454.634 173.098,455.339 172.448,455.687 171.469,456.392 170.165,457.097    169.187,458.152 168.534,458.851 168.208,459.91 167.884,460.615 167.884,462.017 168.208,463.427 168.534,464.128    168.863,465.531 169.187,465.531 168.863,466.589 168.863,466.941 168.534,466.941 168.534,467.292 167.884,467.994    167.231,468.347 166.58,469.048 165.601,469.753 164.623,470.455 163.972,470.806 163.32,471.511 162.341,472.917    162.341,473.623 162.341,474.32 162.341,475.378 162.341,476.082 162.668,476.785 163.32,477.488 163.647,478.193    163.647,478.894 163.972,479.599 163.972,479.953 163.647,480.65 162.994,482.056 162.341,482.408 161.037,482.765    160.712,482.765 160.062,482.408 159.734,482.056 159.083,481.355 158.432,480.302 158.105,479.244 157.453,478.542    157.128,477.837 156.476,476.785 155.499,475.728 155.171,474.675 155.499,473.972 155.171,473.271 154.846,472.212    154.194,471.158 153.54,469.753 152.89,468.699 152.565,467.292 152.89,466.236 153.217,465.531 153.54,464.478 153.868,462.718    153.868,462.017 153.868,460.615 153.868,459.91 153.868,458.851 153.868,458.152 153.54,457.097 153.217,455.687 153.54,455.687    154.194,455.687 154.846,455.687 155.499,455.339 156.15,455.339 156.476,454.982 157.128,454.982 157.453,454.285    157.78,454.285 157.78,453.929 157.78,453.582 158.105,453.228 158.432,453.228 158.757,453.582 159.083,453.929 159.734,453.929    160.062,454.285 160.387,453.929 160.387,453.582 160.062,453.228 160.062,452.875 160.387,452.173 160.712,452.173    161.037,451.822 161.037,451.468 161.365,451.468 161.365,451.117 161.365,450.767 161.037,449.71 160.712,449.009    160.712,448.658 160.712,447.953 160.712,447.603 160.712,446.898 161.037,446.546 161.365,446.546 161.365,447.251    161.365,447.603 161.365,448.304 161.691,448.658 162.016,449.009 162.341,449.361 162.668,449.361 162.994,449.71    163.32,449.009 163.647,449.009 163.647,449.361 163.647,449.71 163.972,450.062 164.297,450.062 164.623,449.71 164.623,449.361    164.623,449.009 164.95,448.658 164.95,448.304 165.601,447.953 165.276,447.603 165.276,447.251 165.276,446.898    165.276,446.193 165.276,445.843 165.276,445.492 165.929,445.492 166.905,445.492   " id="upazila_4" area="upazlia" name="pathorghata" bengali="পাথরঘাটা" parent="barguna"></polygon><polygon points="173.098,426.504 174.076,426.858 174.402,426.858 174.727,427.209 175.055,427.562 175.38,427.91    175.705,428.262 176.031,427.91 176.031,427.562 176.357,427.209 176.684,427.209 177.335,427.91 177.988,428.262    178.313,428.262 178.313,428.615 178.313,429.668 178.964,430.372 179.289,431.077 179.616,431.782 179.943,432.834    179.943,433.186 179.616,434.241 179.289,435.65 178.639,436.702 178.313,437.758 177.66,438.109 177.335,438.812    177.009,439.165 176.357,440.571 176.031,441.273 176.031,442.675 176.031,443.734 176.031,444.437 176.031,444.791    175.705,445.492 175.38,445.843 174.727,446.193 174.402,446.193 173.751,446.898 172.446,447.251 171.469,447.251    171.141,447.603 170.817,447.603 170.49,447.603 169.837,447.953 169.187,448.308 168.862,448.656 168.533,449.005    168.533,450.416 168.533,451.47 168.862,451.822 168.208,451.822 167.556,451.47 166.905,451.47 166.905,451.117 166.58,450.767    166.58,450.416 166.905,450.416 167.231,450.062 167.556,450.062 167.884,450.062 167.884,449.71 167.884,449.361    167.556,449.005 167.884,448.656 168.208,448.656 168.533,448.308 168.862,447.953 168.862,447.603 168.862,447.251    168.862,446.898 169.187,446.546 169.187,446.193 168.862,446.193 168.533,446.193 168.208,446.546 167.884,446.898    167.884,446.546 167.884,446.193 167.884,445.492 168.208,444.085 168.208,443.384 168.533,443.033 168.862,442.675    168.862,442.328 169.187,441.626 169.513,440.921 169.187,440.571 168.862,440.22 168.862,439.866 168.533,439.513    168.533,438.812 168.533,438.461 168.533,438.109 168.862,437.407 168.862,436.702 168.862,436.348 169.513,435.65    169.837,435.296 169.837,434.945 169.837,434.592 170.165,434.241 170.49,434.241 170.817,434.241 171.141,433.89    171.141,433.186 171.141,432.483 171.469,432.133 171.792,432.483 172.446,432.483 172.773,432.834 173.098,432.483    173.424,432.133 173.098,431.428 173.098,431.077 172.773,430.727 172.446,430.372 172.446,430.021 172.446,429.668    172.446,429.32 172.773,428.262 173.098,427.91 173.098,427.562 173.424,427.209   " id="upazila_1" area="upazlia" name="bamna" bengali="বামনা" parent="barguna"></polygon><polygon points="191.678,408.926 193.307,408.926 193.633,408.926 194.612,409.277 195.262,408.926    195.587,408.575 196.24,408.575 196.891,408.222 197.218,407.871 197.543,407.871 197.869,407.871 198.522,407.871    198.845,407.871 199.172,408.575 198.195,409.631 198.195,409.981 197.543,410.329 197.543,410.684 197.543,411.385    197.869,412.09 197.218,412.795 197.218,413.146 196.891,413.146 196.565,412.795 196.24,413.146 196.24,413.496 196.24,414.197    196.565,414.197 196.565,414.552 196.24,415.257 195.914,415.607 195.914,415.958 195.587,416.312 194.937,416.659    194.937,417.364 194.282,417.715 193.633,417.715 192.98,417.715 192.655,418.069 192.328,418.771 192.328,419.476    192.001,419.476 191.678,420.177 191.351,420.526 191.025,420.526 191.025,421.232 191.351,421.583 191.025,421.935    191.025,422.285 191.025,423.691 191.025,424.045 191.025,424.747 191.025,425.101 190.699,425.101 190.374,425.452    190.374,425.806 190.374,426.156 190.374,426.504 190.374,427.209 190.374,427.56 190.049,427.914 190.049,428.615    189.719,428.97 189.071,428.97 188.743,428.97 188.417,428.97 188.417,429.32 188.743,429.668 188.743,430.021 189.071,430.372    189.071,430.727 189.394,431.077 189.071,431.077 188.743,431.077 188.417,430.727 187.767,430.372 187.114,430.372    186.461,430.372 185.81,430.021 185.483,429.668 185.156,429.32 184.831,429.668 184.831,430.372 184.831,430.727    185.156,430.727 185.483,430.727 185.81,431.077 186.135,431.428 186.135,431.782 186.461,432.133 186.461,431.782    186.785,431.428 187.114,431.428 187.439,431.782 187.439,432.483 187.439,432.834 187.439,433.186 187.114,433.89    186.785,433.89 186.461,433.536 186.135,433.536 185.81,433.89 185.483,434.241 185.483,434.595 185.81,434.945 185.483,435.296    185.483,435.998 185.483,436.348 185.483,437.054 185.483,437.407 185.81,437.758 185.81,438.109 186.135,438.812    186.135,439.161 186.461,439.516 186.785,439.866 187.114,440.217 186.785,440.571 186.785,440.921 187.114,441.273    187.439,441.626 187.439,442.328 187.114,442.328 186.461,442.679 186.135,443.029 185.81,443.029 185.483,443.384    184.831,443.384 184.506,443.384 184.181,443.384 183.528,443.384 182.875,443.384 182.55,443.029 182.222,443.029    181.899,443.029 181.246,443.384 180.92,443.734 180.92,444.085 180.92,444.437 180.92,445.14 180.92,446.197 180.92,446.546    180.593,446.898 179.942,447.251 179.617,447.251 179.291,446.898 178.964,446.898 178.314,446.898 177.989,447.251    177.659,447.251 177.335,447.251 177.01,447.603 176.357,447.251 176.031,447.251 176.031,446.898 176.685,446.197 177.01,445.14    177.335,443.734 177.659,442.328 177.659,441.273 177.659,440.217 178.639,439.516 179.291,438.812 180.27,438.109    180.593,437.407 180.92,436.348 181.246,435.296 181.246,434.241 180.92,432.834 180.593,431.782 180.27,431.077 179.942,430.021    179.617,429.32 179.291,428.265 179.291,427.914 179.617,427.914 179.942,427.209 180.27,426.504 180.593,426.504    181.573,425.452 182.222,423.691 183.202,422.285 183.528,421.935 184.506,420.879 184.506,420.526 185.156,419.476    186.461,418.42 187.439,417.011 188.417,416.312 189.394,415.607 189.394,415.257 189.719,414.902 189.719,414.552    190.374,414.197 190.374,413.847 190.374,413.496 190.374,412.443 190.374,411.739 190.374,411.385 190.699,409.981    190.699,409.277   " id="upazila_3" area="upazlia" name="betagi" bengali="বেতাগী" parent="barguna"></polygon></svg>