<svg enable-background="new -106.403 -201.859 629.266 880.536" height="880.536px" id="district_41" viewBox="-106.403 -201.859 629.266 880.536" width="629.266px" x="0px" xml:space="preserve" xmlns="http://www.w3.org/2000/svg" y="0px"><polygon points="28.383,58.381 29.034,58.731 29.362,58.731 30.34,58.731 30.663,58.731 31.316,58.731    30.99,59.083 30.99,59.437 31.316,59.786 31.642,59.786 31.969,59.786 31.969,59.437 32.292,59.083 32.622,58.731 32.946,58.731    33.596,58.731 34.251,58.731 34.576,58.731 34.902,58.381 34.902,58.028 35.228,58.028 35.878,57.675 36.205,57.675    36.531,57.675 36.857,58.381 37.184,58.028 37.51,57.675 37.51,57.325 38.16,57.325 38.488,57.325 38.488,56.974 38.814,56.624    39.139,56.974 39.789,56.974 41.095,56.624 41.42,57.675 41.095,58.381 40.768,58.381 40.768,59.083 41.095,59.437 41.42,59.083    42.072,58.731 42.4,59.083 42.4,59.437 42.4,60.138 42.724,60.489 42.724,60.842 42.724,61.193 42.072,61.193 41.748,61.543    41.095,61.543 41.095,61.896 40.768,62.599 40.768,63.302 41.095,63.302 41.42,63.302 41.748,63.654 42.072,64.358 42.4,64.709    42.724,64.709 43.05,64.358 43.377,64.358 43.702,65.061 44.029,65.763 44.353,65.763 44.681,65.763 45.006,65.763 45.656,66.116    46.311,65.763 46.635,65.763 46.635,66.116 46.963,66.116 47.286,66.116 47.614,66.116 47.939,66.116 48.265,66.466    48.592,66.466 48.915,66.466 49.242,66.819 49.569,66.819 49.569,67.17 49.569,67.521 50.221,67.872 50.221,68.576 50.874,68.927    50.874,69.279 51.198,69.982 51.85,70.334 52.176,70.334 52.176,70.686 52.176,71.039 52.176,71.741 51.85,71.741 51.523,71.389    51.198,71.039 50.874,71.039 50.546,71.039 50.546,71.389 50.546,71.741 50.546,72.093 50.546,72.446 50.221,72.794    49.242,73.499 48.915,73.85 48.592,73.85 48.265,74.203 48.265,74.553 48.265,75.257 48.265,75.96 49.242,77.368 48.915,77.368    48.592,77.716 48.265,77.716 47.939,77.716 47.939,77.014 47.939,76.662 47.614,76.662 47.286,77.014 47.286,77.368    46.963,77.716 46.635,78.07 46.635,78.42 46.635,78.773 47.286,78.773 47.286,79.125 47.286,79.475 46.963,79.829 46.635,79.475    46.311,79.475 45.656,79.125 45.331,79.125 45.006,79.125 45.006,79.475 45.331,79.829 45.656,79.829 45.983,80.18 45.983,80.531    45.656,80.531 45.006,80.531 44.681,80.18 44.029,79.475 43.702,79.125 43.05,79.125 42.724,79.125 42.072,79.475 41.42,79.829    41.095,79.475 41.095,79.125 41.42,78.773 41.748,78.07 42.4,78.07 42.724,77.716 42.4,77.368 41.748,77.014 41.42,77.014    41.42,76.662 41.748,75.96 42.4,75.257 42.4,74.905 42.072,74.905 41.748,74.553 41.42,74.203 41.42,73.85 41.42,73.499    41.095,73.148 40.768,72.794 40.768,72.093 41.095,71.741 41.42,71.039 41.748,70.686 41.42,70.334 41.095,69.982 40.117,69.982    39.789,69.982 39.139,70.334 38.814,70.686 38.16,70.686 37.834,70.334 37.184,70.334 36.857,69.982 36.531,69.631 36.205,69.631    35.878,69.279 35.228,69.982 35.228,70.334 34.576,70.686 33.926,70.686 33.596,70.686 33.273,70.686 32.946,70.686    32.622,71.039 32.292,71.389 32.292,71.741 32.292,72.093 31.969,72.446 31.316,72.446 31.316,72.794 31.316,73.148    30.663,73.148 30.34,73.148 29.688,72.794 29.362,72.794 29.034,73.148 29.034,73.499 29.034,73.85 28.708,73.85 28.383,74.553    28.059,74.905 28.059,75.607 28.383,75.96 28.059,76.313 27.73,76.313 27.406,75.96 26.754,75.96 26.427,76.313 26.101,76.662    25.448,77.014 25.125,76.662 24.797,76.662 24.472,75.96 24.797,75.257 25.125,74.203 25.125,73.85 25.448,73.499 25.777,72.794    26.101,72.093 26.427,71.389 26.427,71.039 26.101,70.686 26.101,70.334 25.777,69.982 25.777,69.631 26.427,69.631    26.427,69.279 26.427,68.927 26.427,68.225 26.754,67.872 27.079,67.521 27.079,67.17 26.754,67.17 26.427,66.819 26.101,66.819    25.777,66.116 25.777,65.763 26.101,64.709 26.427,64.358 26.754,64.358 27.079,64.709 27.406,64.709 27.73,64.358 27.73,64.004    27.73,63.654 27.079,63.654 26.754,63.302 26.754,62.952 26.427,62.599 26.427,61.543 26.101,61.193 26.101,60.489 26.427,60.138    26.754,60.138 27.406,60.138 27.73,59.786 28.059,59.437 28.059,58.731   " id="upazila_292" area="upazlia" name="adamdighi" bengali="আদমদিঘি" parent="bogra"></polygon><polygon points="43.377,42.206 44.029,42.206 44.354,42.557 44.681,42.91 45.006,42.91 45.332,42.91    45.657,43.262 45.983,43.262 46.636,43.611 46.636,43.962 46.636,44.316 46.31,44.667 45.983,45.019 45.983,45.369 46.31,45.369    46.636,45.369 47.286,45.369 47.615,45.369 48.59,45.369 48.917,45.369 49.569,45.369 50.546,45.369 51.199,45.019 51.85,45.019    52.176,45.369 52.828,45.019 53.155,45.019 53.479,45.019 53.479,45.369 53.479,45.722 53.808,46.073 54.132,46.424    54.783,46.424 54.783,46.777 54.458,47.129 54.458,47.83 54.458,48.535 54.783,48.886 55.112,48.886 55.436,49.237 55.762,49.59    55.762,49.94 56.089,49.94 56.414,49.94 56.74,50.293 57.066,49.94 57.066,50.293 57.066,50.644 57.393,50.644 57.393,50.293    57.718,49.94 58.043,50.644 58.043,50.995 58.043,51.697 57.718,51.697 57.718,52.05 57.718,52.402 57.393,52.402 57.066,52.752    56.74,52.752 56.414,53.104 56.414,53.457 56.089,53.457 55.762,53.457 55.762,53.807 55.436,54.161 55.436,54.513 55.112,54.864    54.458,54.864 54.132,54.513 54.132,54.864 54.132,55.567 54.458,56.271 54.458,56.622 54.132,56.973 54.458,57.325    54.783,57.675 54.783,58.027 55.762,58.027 55.762,58.381 55.762,59.081 55.762,59.434 55.762,59.786 55.762,60.138    55.436,60.488 55.762,60.839 55.436,61.543 55.112,61.895 54.783,61.895 54.783,62.247 54.783,62.951 55.112,63.654    54.783,64.004 54.458,64.004 53.808,64.004 53.808,64.356 53.479,64.356 53.808,64.708 54.458,65.061 54.132,65.412    53.808,65.412 53.155,65.412 53.155,65.061 52.503,65.412 52.176,65.061 51.525,65.061 51.525,65.762 51.199,66.466    51.199,66.818 51.525,67.168 51.199,67.521 50.872,67.168 50.546,67.521 50.222,67.874 49.569,67.521 49.569,67.168    49.569,66.818 49.243,66.818 48.917,66.466 48.59,66.466 48.265,66.466 47.94,66.116 47.615,66.116 47.286,66.116 46.961,66.116    46.636,66.116 46.636,65.762 46.31,65.762 45.657,66.116 45.006,65.762 44.681,65.762 44.354,65.762 44.029,65.762 43.702,65.061    43.377,64.356 43.052,64.356 42.724,64.708 42.399,64.708 42.073,64.356 41.748,63.654 41.42,63.3 41.095,63.3 40.77,63.3    40.77,62.599 41.095,61.895 41.095,61.543 41.748,61.543 42.073,61.193 42.724,61.193 42.724,60.839 42.724,60.488 42.399,60.138    42.399,59.434 42.399,59.081 42.073,58.731 41.42,59.081 41.095,59.434 40.77,59.081 40.77,58.381 41.095,58.381 41.42,57.675    41.095,56.622 41.748,56.271 41.748,55.917 41.42,55.917 41.095,56.271 40.77,55.917 40.445,55.567 40.445,55.214 39.791,54.864    40.117,54.161 40.77,53.807 41.095,54.161 41.42,54.513 41.748,54.513 42.073,54.513 42.399,54.161 42.724,53.457 43.052,52.752    43.052,52.402 42.724,52.05 42.399,52.05 42.399,51.697 42.399,51.347 42.073,50.644 41.748,50.644 41.42,50.644 41.42,49.94    41.42,49.237 41.095,49.237 41.095,48.535 41.095,48.183 41.095,47.83 41.42,47.479 41.42,47.129 41.748,46.777 42.399,46.424    42.399,46.073 42.073,45.722 41.748,45.369 42.073,45.019 41.748,44.316 41.42,43.962 41.748,43.611 42.399,43.611 43.052,43.611    43.052,43.262   " id="upazila_295" area="upazlia" name="dupchanchia" bengali="দুপচাচিঁয়া" parent="bogra"></polygon><polygon points="49.243,77.365 48.265,75.96 48.265,75.257 48.265,74.553 48.265,74.204 48.59,73.849    48.917,73.849 49.243,73.499 50.222,72.796 50.546,72.443 50.546,72.091 50.546,71.742 50.546,71.387 50.546,71.039    50.872,71.039 51.199,71.039 51.525,71.387 51.85,71.742 52.176,71.742 52.176,71.039 52.176,70.684 52.176,70.336 51.85,70.336    51.199,69.982 50.872,69.28 50.872,68.927 51.199,68.576 51.525,68.224 51.85,68.224 52.176,68.224 52.503,68.224 52.828,67.874    53.155,67.874 53.808,68.224 53.808,68.576 53.808,68.927 54.458,68.927 55.112,68.927 55.436,68.927 55.762,69.28 56.414,69.629    57.066,69.629 57.066,70.336 57.066,70.684 56.74,71.039 57.066,71.387 57.393,71.742 57.718,72.091 58.371,72.091 58.697,71.742    59.022,72.091 59.022,72.443 58.697,73.148 58.697,73.499 59.022,73.849 59.347,74.204 59.675,74.553 60,74.553 60.325,74.903    60,75.257 60.325,75.607 60.977,75.607 61.304,75.607 61.304,75.96 61.629,76.311 61.955,76.664 62.606,76.664 63.259,77.014    63.259,77.365 63.584,77.716 63.909,77.716 64.237,77.716 64.563,78.423 65.213,78.771 65.54,78.771 65.54,79.475 65.54,79.826    65.866,80.178 66.192,80.178 66.517,79.826 66.517,79.475 66.844,79.125 67.169,79.475 67.821,79.826 67.821,80.528    67.821,80.884 67.495,81.232 67.169,81.586 67.169,81.938 67.169,82.64 68.148,82.989 68.473,82.989 68.799,82.989 69.126,83.344    69.451,83.694 69.451,83.344 69.777,83.344 70.102,83.344 70.43,83.344 70.756,82.64 71.732,82.64 72.06,82.989 72.384,83.344    72.712,83.694 73.035,84.048 73.364,84.048 73.688,83.694 73.688,83.344 73.688,82.64 73.688,82.291 74.016,82.291 74.341,82.64    74.664,82.291 75.318,83.694 74.992,84.048 74.992,84.397 74.664,84.397 74.341,84.75 74.664,85.101 74.992,85.101 74.992,85.451    74.664,85.451 74.664,85.806 74.664,86.156 74.992,86.508 75.318,86.508 75.645,86.858 75.968,87.212 75.968,87.561    75.645,87.914 75.968,88.265 75.645,88.969 75.645,89.318 75.645,89.671 75.318,90.373 75.645,90.728 75.645,91.078    75.968,91.432 76.296,91.432 76.621,92.485 76.621,93.189 76.296,93.893 76.296,94.24 75.968,94.946 75.968,95.649 75.968,96    75.968,96.354 75.645,96.703 75.318,97.405 74.992,97.057 74.664,96.703 74.341,97.057 73.688,96.703 73.035,96.703    72.384,96.703 71.732,96.703 71.406,96.703 71.406,96.354 71.406,95.649 71.406,95.296 71.406,94.946 71.08,94.594 70.43,94.946    70.102,94.594 70.102,94.24 69.777,93.538 69.451,93.538 69.126,93.189 68.473,93.189 68.148,93.189 67.821,92.835 67.495,92.835    67.495,93.189 67.169,93.189 66.517,93.189 65.866,92.835 65.54,92.835 65.213,92.835 64.888,92.835 64.563,93.189 63.909,93.893    63.584,93.893 63.259,94.24 63.584,94.594 63.909,94.946 64.237,95.296 64.237,95.649 64.237,96 63.909,96.354 63.584,96.354    62.933,96.703 62.606,97.405 62.281,97.759 62.281,98.112 62.281,98.815 61.955,99.164 61.629,99.164 60.977,99.518    60.325,99.518 60,99.164 60,98.815 59.675,98.46 59.022,98.112 59.022,97.405 59.022,96.703 59.022,96.354 59.022,95.649    58.697,94.594 58.371,94.594 58.043,94.946 57.718,95.649 57.393,96 57.393,95.649 57.066,95.296 57.066,94.946 56.74,94.594    56.089,94.594 56.089,94.24 56.414,94.24 56.74,93.893 56.74,93.189 56.74,92.835 57.393,92.835 57.718,92.485 58.043,91.781    58.043,91.432 57.718,91.432 57.393,91.781 57.066,91.781 57.393,91.432 57.393,90.728 57.066,90.728 56.74,91.078 56.414,90.728    55.762,90.728 55.762,90.373 55.436,89.318 55.112,89.318 54.783,89.671 54.132,90.025 53.808,90.025 53.48,90.025 53.155,90.373    52.828,90.728 53.155,91.432 53.48,91.781 53.48,92.135 53.155,92.135 52.828,92.135 52.828,92.835 52.828,93.189 52.503,93.538    51.85,93.893 51.199,93.893 50.546,94.24 50.222,94.24 49.896,94.24 50.222,93.893 50.222,93.538 50.222,93.189 49.569,92.835    48.917,92.485 48.917,92.135 48.59,91.432 48.265,90.728 48.265,90.373 48.265,90.025 48.265,89.671 48.265,88.969 48.917,88.969    49.243,88.969 49.243,88.616 49.243,88.265 49.243,87.914 49.243,87.561 49.243,87.212 49.569,87.212 50.222,87.212    50.546,87.212 50.872,87.561 51.199,87.561 51.525,87.561 51.85,86.858 51.85,86.508 52.176,86.156 51.85,85.806 51.525,85.451    51.525,85.101 50.872,84.75 50.546,84.75 50.546,85.101 50.222,85.451 49.896,85.806 49.569,85.806 49.243,86.156 48.917,85.806    48.59,85.451 47.94,85.101 47.615,84.75 47.615,84.048 47.615,83.694 47.615,83.344 47.94,82.989 47.94,82.64 47.94,82.291    47.94,81.938 48.265,81.232 48.59,80.884 48.917,80.528 49.243,80.178 49.569,79.826 49.569,79.475 49.896,79.125 50.222,78.423    50.222,78.07 49.896,77.716 50.222,77.365 49.896,77.014 49.569,77.014   " id="upazila_298" area="upazlia" name="nondigram" bengali="নন্দিগ্রাম" parent="bogra"></polygon><polygon points="58.043,50.995 59.672,50.644 60.651,50.644 60.976,50.293 61.629,49.94 62.281,49.59    63.258,48.886 63.909,48.183 64.562,47.479 65.213,47.129 65.538,46.424 66.192,46.777 66.517,46.777 66.842,47.129    67.169,47.129 67.495,47.129 67.821,47.479 68.146,47.479 68.473,47.479 68.799,47.479 69.124,47.479 69.124,48.183    69.451,48.535 69.777,48.886 69.451,49.238 69.124,49.59 69.451,49.94 69.451,50.293 69.777,50.644 69.451,50.995 69.451,51.7    69.451,52.05 69.777,52.05 70.102,52.402 70.756,52.402 70.428,52.752 70.102,53.105 70.102,53.457 70.102,53.807 70.428,54.161    70.756,54.161 70.756,54.864 70.428,55.214 71.08,55.567 71.08,55.917 71.406,55.917 71.732,55.917 72.06,55.917 72.384,56.622    72.71,56.974 72.71,57.325 72.384,58.027 72.06,58.381 72.06,58.731 72.06,59.081 72.384,59.434 72.384,59.786 72.06,60.138    71.732,60.488 71.406,60.842 71.732,61.543 71.732,61.895 71.732,62.249 71.732,62.599 71.732,62.951 71.406,63.654 71.08,64.004    71.08,64.356 71.08,64.709 71.08,65.061 71.406,65.412 72.384,66.116 72.71,66.116 72.71,66.466 73.035,67.17 72.71,67.521    72.384,68.224 72.06,68.576 71.732,69.279 71.732,69.629 72.06,69.982 72.384,70.334 72.384,70.684 72.06,71.037 72.06,71.389    72.06,71.741 72.384,72.091 72.384,72.443 72.06,72.443 71.732,72.443 70.102,72.794 69.777,73.148 69.124,74.203 69.124,74.553    68.799,74.905 68.473,75.257 68.146,74.905 67.821,74.905 67.495,75.257 67.495,75.607 67.495,75.959 67.495,76.662    67.169,77.014 67.169,77.365 67.169,77.717 67.495,78.42 67.169,79.475 66.842,79.125 66.517,79.475 66.517,79.826 66.192,80.18    65.866,80.18 65.538,79.826 65.538,79.475 65.538,78.771 65.213,78.771 64.562,78.42 64.237,77.717 63.909,77.717 63.584,77.717    63.258,77.365 63.258,77.014 62.606,76.662 61.954,76.662 61.629,76.313 61.304,75.959 61.304,75.607 60.976,75.607    60.325,75.607 60,75.257 60.325,74.905 60,74.553 59.672,74.553 59.347,74.203 59.022,73.85 58.697,73.496 58.697,73.148    59.022,72.443 59.022,72.091 58.697,71.741 58.369,72.091 57.718,72.091 57.391,71.741 57.066,71.389 56.74,71.037 57.066,70.684    57.066,70.334 57.066,69.629 56.414,69.629 55.762,69.279 55.436,68.927 55.112,68.927 54.458,68.927 53.807,68.927    53.807,68.576 53.807,68.224 53.155,67.872 52.828,67.872 52.501,68.224 52.176,68.224 51.85,68.224 51.525,68.224 51.198,68.576    50.872,68.927 50.221,68.576 50.221,67.872 50.546,67.521 50.872,67.17 51.198,67.521 51.525,67.17 51.198,66.818 51.198,66.466    51.525,65.762 51.525,65.061 52.176,65.061 52.501,65.412 53.155,65.061 53.155,65.412 53.807,65.412 54.132,65.412    54.458,65.061 53.807,64.709 53.479,64.356 53.807,64.356 53.807,64.004 54.458,64.004 54.782,64.004 55.112,63.654    54.782,62.951 54.782,62.249 54.782,61.895 55.112,61.895 55.436,61.543 55.762,60.842 55.436,60.488 55.762,60.138    55.762,59.786 55.762,59.434 55.762,59.081 55.762,58.381 55.762,58.027 54.782,58.027 54.782,57.675 54.458,57.325    54.132,56.974 54.458,56.622 54.458,56.271 54.132,55.567 54.132,54.864 54.132,54.513 54.458,54.864 55.112,54.864    55.436,54.513 55.436,54.161 55.762,53.807 55.762,53.457 56.087,53.457 56.414,53.457 56.414,53.105 56.74,52.752 57.066,52.752    57.391,52.402 57.718,52.402 57.718,52.05 57.718,51.7 58.043,51.7   " id="upazila_297" area="upazlia" name="kahaloo" bengali="কাহালু" parent="bogra"></polygon><polygon points="80.207,40.095 79.881,40.095 79.556,40.095 79.556,39.747 80.207,39.392 80.207,39.042    80.531,38.69 80.531,38.339 80.86,37.986 81.186,37.986 81.186,37.635 81.51,37.635 81.836,37.635 82.49,37.285 82.814,37.285    83.14,36.93 83.467,36.581 83.79,36.226 84.444,36.226 84.771,36.226 85.094,35.879 85.749,35.879 86.4,35.879 86.723,35.879    87.053,35.879 87.376,35.525 87.376,34.822 88.03,35.173 88.354,34.822 88.354,34.47 88.682,34.47 89.333,34.47 89.658,35.173    89.984,35.525 89.984,35.879 89.658,36.226 89.658,36.581 89.984,36.93 90.311,37.285 90.636,37.635 90.636,37.986 90.636,38.339    89.984,38.69 89.658,39.042 89.333,39.747 89.658,40.095 89.658,40.447 89.984,40.802 90.311,41.15 90.311,41.504 90.636,42.208    90.962,42.208 91.286,42.208 91.615,42.208 91.941,42.208 91.941,42.557 91.941,42.91 91.615,43.262 91.615,43.965 91.615,44.314    91.615,45.019 91.941,45.019 91.941,44.669 92.266,44.669 92.266,45.369 92.593,45.722 92.916,45.722 93.246,45.722    93.897,45.722 94.22,45.722 94.55,46.427 94.875,46.776 95.2,46.776 95.527,46.776 95.851,46.776 96.179,47.129 96.179,47.831    96.504,47.831 96.504,47.479 96.504,46.776 96.83,46.427 97.156,46.427 97.48,46.427 98.133,46.776 98.459,47.129 98.784,47.831    99.113,48.535 99.438,48.887 99.763,49.237 100.413,49.59 100.741,49.59 101.066,49.94 101.394,49.94 101.719,49.94    102.044,49.94 102.044,50.294 101.719,50.644 101.394,50.995 101.719,51.348 101.719,52.05 101.719,52.402 101.719,52.754    101.394,53.105 101.066,53.455 101.066,53.809 100.741,53.455 100.413,53.809 100.741,54.161 100.741,54.513 100.413,54.513    100.09,54.513 99.763,54.513 99.438,54.513 99.113,54.513 99.113,54.862 99.438,55.216 99.763,55.216 99.763,55.915    99.438,55.915 99.113,55.915 99.113,56.271 99.113,56.622 98.784,57.324 99.113,57.324 99.438,57.324 99.438,58.028    100.09,58.379 100.413,58.731 100.741,58.731 101.394,58.731 101.719,58.731 102.372,59.081 102.696,59.081 102.696,58.731    103.023,58.379 103.346,58.379 103.676,58.731 104.001,58.731 104.326,59.437 104.326,60.138 104.326,60.489 104.326,60.839    104.001,61.193 103.676,61.543 103.346,61.896 103.346,62.247 102.696,62.952 102.372,63.3 102.044,63.654 101.394,64.004    101.066,64.004 101.394,65.061 101.394,65.763 101.719,66.465 101.719,66.819 102.044,66.819 102.372,66.819 102.372,67.168    101.719,67.521 101.394,68.576 101.719,68.576 102.044,68.576 102.044,68.926 102.372,69.28 102.372,69.629 102.044,69.982    101.719,69.982 101.394,70.334 101.394,70.686 101.066,70.686 100.741,70.334 100.413,70.686 100.09,70.686 99.763,71.039    99.113,71.039 98.784,71.039 98.459,70.686 98.133,70.334 97.48,70.334 97.156,70.334 96.83,70.686 96.504,71.039 96.179,71.387    96.504,71.741 96.83,72.091 96.504,72.794 95.851,72.794 95.527,72.794 95.2,72.446 94.875,72.794 94.22,72.794 94.22,73.149    93.897,73.149 93.246,73.149 92.593,73.149 92.266,73.149 91.941,73.499 91.615,73.499 91.615,73.149 91.286,72.794    91.286,72.446 91.286,72.091 90.962,71.387 90.962,70.686 90.962,70.334 91.286,69.982 91.286,69.629 91.615,69.28 91.615,68.926    91.286,68.576 90.962,67.874 90.962,66.819 90.636,66.465 90.636,65.763 90.311,65.763 90.311,65.413 90.311,65.061    89.984,64.358 89.984,64.004 89.658,64.004 89.333,63.654 89.007,63.3 88.682,63.3 88.682,62.599 88.682,62.247 88.354,61.896    88.03,61.543 88.03,61.193 88.682,60.839 88.682,60.138 88.354,59.784 88.03,59.784 88.03,59.437 88.354,59.081 88.354,58.731    88.03,59.081 87.703,59.081 87.376,59.081 87.053,59.081 86.723,58.731 86.073,58.379 86.073,58.028 85.749,57.678 85.749,56.974    86.073,56.622 86.4,56.271 86.4,55.915 86.073,55.568 86.073,55.216 85.749,55.568 85.421,55.568 85.421,55.216 85.421,54.862    85.421,54.513 85.094,54.161 84.771,53.809 84.771,53.455 84.444,53.105 84.771,53.105 84.771,52.754 85.094,52.402 85.421,52.05    85.421,51.697 85.421,51.348 85.749,50.995 86.073,50.644 86.073,50.294 86.4,49.59 86.073,49.59 85.421,49.94 85.094,49.59    85.094,49.237 85.094,48.887 84.771,48.535 84.771,48.183 84.444,47.831 84.118,47.831 83.79,47.479 83.79,46.776 83.79,46.427    84.118,45.722 83.79,45.369 83.79,44.669 83.467,44.314 83.14,44.314 82.814,44.314 82.49,44.314 81.836,43.965 81.51,43.262    81.836,42.557 81.836,42.208 81.51,41.853 81.186,41.504 81.186,41.15 80.86,40.802   " id="upazila_296" area="upazlia" name="gabtali" bengali="গাবতলী" parent="bogra"></polygon><polygon points="91.287,30.603 91.287,30.251 91.615,29.898 91.287,29.548 91.615,29.197 91.941,29.548    92.266,29.548 92.593,29.898 92.916,29.898 92.593,30.251 92.266,30.603 92.916,30.603 93.57,30.603 93.897,30.603 94.22,30.251    93.897,29.898 94.22,29.548 95.2,29.898 95.526,29.898 95.852,29.548 96.179,29.898 96.504,30.603 96.504,30.954 96.83,31.306    97.156,31.306 97.481,31.658 97.808,31.658 98.134,32.008 98.459,32.008 98.784,32.008 99.112,32.361 99.763,32.361    100.415,32.715 101.067,32.715 101.719,32.715 102.37,32.715 103.023,32.715 103.674,32.715 104.326,33.063 104.652,33.063    105.305,33.063 105.955,33.063 106.281,33.063 106.607,33.063 106.934,33.063 107.259,33.063 107.585,32.715 107.91,32.361    108.238,32.361 109.214,32.361 109.539,32.361 110.518,32.715 110.518,33.063 110.195,33.415 109.867,33.415 109.539,33.766    109.867,34.47 110.195,34.47 110.518,34.47 110.845,34.47 111.17,34.47 111.498,34.82 111.17,35.173 111.17,35.878 111.17,36.226    110.845,36.226 110.195,36.226 109.867,36.226 109.539,36.226 109.539,36.581 109.867,36.93 109.867,37.284 109.867,37.633    109.539,37.986 108.889,38.338 108.889,38.69 109.214,39.042 109.214,39.393 109.214,40.095 108.889,40.8 108.563,40.8    108.238,40.8 108.238,40.449 108.238,40.095 107.91,39.393 107.91,39.042 107.259,39.393 106.607,39.042 106.281,39.042    105.955,39.393 105.63,39.744 105.305,39.744 104.977,39.744 104.652,39.393 104.326,39.042 104.001,39.042 103.348,38.69    102.696,39.042 102.37,39.393 102.37,39.042 102.044,38.69 101.719,38.69 101.067,38.69 100.415,38.69 100.088,38.69    99.763,39.393 99.438,39.744 99.438,40.449 99.763,40.449 100.741,40.449 101.392,40.095 102.044,40.095 102.37,40.449    102.044,40.449 101.719,40.8 101.719,41.15 102.044,41.502 102.044,42.206 102.37,42.557 102.37,42.908 102.696,43.262    103.023,42.908 103.023,42.557 103.674,42.206 103.674,42.557 103.674,42.908 103.348,43.262 103.348,43.611 103.674,43.962    103.348,43.962 103.348,44.316 103.023,44.316 102.696,44.316 102.37,44.667 102.696,44.667 102.696,45.019 103.023,45.019    103.348,45.369 103.023,45.722 103.023,46.073 103.023,46.776 103.348,46.776 103.674,46.424 104.001,46.776 104.326,47.129    103.674,47.479 103.348,47.479 102.696,47.479 102.37,47.83 102.696,48.183 102.696,48.535 102.37,48.535 102.044,48.535    102.37,48.886 102.044,49.237 102.044,49.59 102.044,49.94 101.719,49.94 101.392,49.94 101.067,49.94 100.741,49.59    100.415,49.59 99.763,49.237 99.438,48.886 99.112,48.535 98.784,47.83 98.459,47.129 98.134,46.776 97.481,46.424 97.156,46.424    96.83,46.424 96.504,46.776 96.504,47.479 96.504,47.83 96.179,47.83 96.179,47.129 95.852,46.776 95.526,46.776 95.2,46.776    94.875,46.776 94.55,46.424 94.22,45.722 93.897,45.722 93.246,45.722 92.916,45.722 92.593,45.722 92.266,45.369 92.266,44.667    91.941,44.667 91.941,45.019 91.615,45.019 91.615,44.316 91.615,43.962 91.615,43.262 91.941,42.908 91.941,42.557    91.941,42.206 91.615,42.206 91.287,42.206 90.962,42.206 90.636,42.206 90.311,41.502 90.311,41.15 89.984,40.8 89.66,40.449    89.66,40.095 89.332,39.744 89.66,39.042 89.984,38.69 90.636,38.338 90.636,37.986 90.636,37.633 90.311,37.284 89.984,36.93    89.66,36.581 89.66,36.226 89.984,35.878 89.984,35.525 89.66,35.173 89.332,34.47 89.66,34.118 90.311,33.766 90.636,33.766    90.962,33.415 91.287,33.063 91.287,32.715 90.962,32.715 90.636,32.361 90.636,32.008 90.962,31.658 91.287,31.306    91.287,30.954 90.962,30.603   " id="upazila_302" area="upazlia" name="sonatala" bengali="সোনাতলা" parent="bogra"></polygon><polygon points="109.539,32.361 109.866,32.361 110.518,32.361 110.845,32.008 111.168,31.658 112.149,31.306    112.472,31.306 112.802,31.306 113.452,31.658 114.103,32.008 114.754,32.361 115.406,32.715 115.733,33.065 116.06,33.416    116.386,33.416 116.711,33.065 117.036,32.715 117.364,32.361 118.015,32.361 118.015,32.715 118.34,33.065 118.34,33.768    118.34,34.47 118.667,35.173 118.667,35.879 118.993,36.581 119.319,36.93 119.319,37.635 119.644,37.986 119.319,38.692    119.644,39.392 119.644,40.095 119.971,40.8 120.296,41.504 120.622,41.853 120.622,42.208 121.275,42.91 121.6,43.965    121.926,44.667 121.926,45.372 121.926,46.074 121.6,46.776 121.275,47.129 121.275,47.831 120.949,48.887 121.275,49.59    121.6,49.94 122.253,50.644 122.578,50.644 122.578,51.348 122.904,52.05 122.578,52.402 122.253,52.402 121.926,52.402    120.949,52.754 120.622,53.457 120.622,53.809 119.971,53.809 119.319,53.809 119.644,54.862 119.644,55.216 120.296,55.917    120.296,56.624 120.296,57.678 120.622,58.028 120.949,59.083 121.6,59.784 121.926,60.489 122.253,61.193 122.253,61.896    122.578,62.599 123.229,63.302 123.557,63.654 123.882,64.004 124.207,64.708 124.859,65.061 125.511,65.413 126.49,66.116    127.466,66.466 128.447,67.168 129.097,67.521 129.748,67.521 130.727,67.168 131.052,67.521 131.379,67.872 131.052,68.225    130.399,68.225 130.073,68.225 129.422,68.225 128.77,68.225 128.447,68.576 128.119,68.927 127.793,69.629 127.793,69.982    127.141,70.334 126.49,70.686 126.162,70.686 125.511,70.686 124.859,70.686 124.207,70.686 123.882,70.686 122.904,70.334    122.253,69.982 121.926,69.982 121.6,70.334 121.275,70.686 120.949,71.039 120.949,71.389 121.275,71.741 120.949,72.446    120.622,73.148 120.296,73.148 119.971,73.85 119.644,74.203 119.971,74.553 120.296,74.905 119.971,75.257 119.644,75.607    119.319,75.607 118.667,75.607 118.667,75.96 118.015,75.96 118.015,76.313 117.364,76.313 116.711,76.313 116.386,75.96    116.06,75.96 115.733,75.96 115.082,75.96 115.406,75.607 115.406,74.905 115.406,74.553 115.406,73.85 115.082,73.85    114.431,73.499 114.103,73.499 113.778,73.85 113.452,74.203 113.127,74.203 112.802,74.203 112.472,74.553 112.149,74.905    111.822,74.553 111.498,74.553 111.498,75.257 111.498,75.607 111.168,75.607 110.518,75.607 110.193,75.607 109.866,75.257    109.866,74.905 109.539,74.203 109.214,73.499 108.563,73.85 108.238,73.85 107.91,73.85 107.584,73.499 107.91,72.794    108.238,71.741 108.238,71.039 107.91,70.686 107.91,70.334 107.91,69.629 107.584,69.28 107.259,68.927 106.934,68.576    106.281,68.225 105.303,67.872 104.652,68.576 104.326,68.576 103.999,68.927 103.999,69.28 104.326,69.629 104.652,69.982    104.977,70.686 104.652,70.686 103.999,70.334 103.674,69.982 103.348,69.982 103.023,69.982 102.37,69.629 102.37,69.28    102.044,68.927 102.044,68.576 101.717,68.576 101.392,68.576 101.717,67.521 102.37,67.168 102.37,66.819 102.044,66.819    101.717,66.819 101.717,66.466 101.392,65.763 101.392,65.061 101.067,64.004 101.392,64.004 102.044,63.654 102.37,63.302    102.696,62.952 103.348,62.247 103.348,61.896 103.674,61.545 103.999,61.193 104.326,60.842 104.326,60.489 104.326,60.138    104.326,59.437 103.999,58.731 103.674,58.731 103.348,58.381 103.023,58.381 102.696,58.731 102.696,59.083 102.37,59.083    101.717,58.731 101.392,58.731 100.741,58.731 100.413,58.731 100.088,58.381 99.438,58.028 99.438,57.324 99.112,57.324    98.784,57.324 99.112,56.624 99.112,56.271 99.112,55.917 99.438,55.917 99.763,55.917 99.763,55.216 99.438,55.216    99.112,54.862 99.112,54.513 99.438,54.513 99.763,54.513 100.088,54.513 100.413,54.513 100.741,54.513 100.741,54.161    100.413,53.809 100.741,53.457 101.067,53.809 101.067,53.457 101.392,53.105 101.717,52.754 101.717,52.402 101.717,52.05    101.717,51.348 101.392,50.995 101.717,50.644 102.044,50.294 102.044,49.94 102.044,49.59 102.044,49.238 102.37,48.887    102.044,48.535 102.37,48.535 102.696,48.535 102.696,48.183 102.37,47.831 102.696,47.479 103.348,47.479 103.674,47.479    104.326,47.129 103.999,46.776 103.674,46.427 103.348,46.776 103.023,46.776 103.023,46.074 103.023,45.722 103.348,45.372    103.023,45.019 102.696,45.019 102.696,44.667 102.37,44.667 102.696,44.314 103.023,44.314 103.348,44.314 103.348,43.965    103.674,43.965 103.348,43.613 103.348,43.262 103.674,42.91 103.674,42.557 103.674,42.208 103.023,42.557 103.023,42.91    102.696,43.262 102.37,42.91 102.37,42.557 102.044,42.208 102.044,41.504 101.717,41.152 101.717,40.8 102.044,40.449    102.37,40.449 102.044,40.095 101.392,40.095 100.741,40.449 99.763,40.449 99.438,40.449 99.438,39.747 99.763,39.392    100.088,38.692 100.413,38.692 101.067,38.692 101.717,38.692 102.044,38.692 102.37,39.042 102.37,39.392 102.696,39.042    103.348,38.692 103.999,39.042 104.326,39.042 104.652,39.392 104.977,39.747 105.303,39.747 105.63,39.747 105.955,39.392    106.281,39.042 106.607,39.042 107.259,39.392 107.91,39.042 107.91,39.392 108.238,40.095 108.238,40.449 108.238,40.8    108.563,40.8 108.888,40.8 109.214,40.095 109.214,39.392 109.214,39.042 108.888,38.692 108.888,38.339 109.539,37.986    109.866,37.635 109.866,37.285 109.866,36.93 109.539,36.581 109.539,36.228 109.866,36.228 110.193,36.228 110.845,36.228    111.168,36.228 111.168,35.879 111.168,35.173 111.498,34.822 111.168,34.47 110.845,34.47 110.518,34.47 110.193,34.47    109.866,34.47 109.539,33.768 109.866,33.416 110.193,33.416 110.518,33.065 110.518,32.715   " id="upazila_299" area="upazlia" name="shariakandi" bengali="সারিয়াকান্দি" parent="bogra"></polygon><polygon points="92.266,73.148 92.593,73.148 93.246,73.148 93.897,73.148 94.222,73.148 94.222,72.794    94.875,72.794 95.2,72.443 95.527,72.794 95.852,72.794 96.504,72.794 96.83,72.091 96.504,71.741 96.179,71.389 96.504,71.037    96.83,70.684 97.156,70.334 97.481,70.334 98.134,70.334 98.459,70.684 98.784,71.037 99.113,71.037 99.763,71.037    100.088,70.684 100.415,70.684 100.741,70.334 101.067,70.684 101.394,70.684 101.394,70.334 101.719,69.982 102.044,69.982    102.37,69.629 103.023,69.982 103.348,69.982 103.674,69.982 104.001,70.334 104.652,70.684 104.978,70.684 104.652,69.982    104.326,69.629 104.001,69.279 104.001,68.927 104.326,68.576 104.652,68.576 105.305,67.872 106.281,68.224 106.934,68.576    107.259,68.927 107.585,69.279 107.91,69.629 107.91,70.334 107.91,70.684 108.238,71.037 108.238,71.741 107.91,72.794    107.585,73.496 107.91,73.85 108.238,73.85 108.564,73.85 109.214,73.496 109.539,74.203 109.867,74.903 109.867,75.257    110.195,75.607 110.518,75.607 111.17,75.607 111.498,75.607 111.498,75.257 111.498,74.553 111.822,74.553 112.15,74.903    112.474,74.553 112.802,74.203 113.127,74.203 113.453,74.203 113.779,73.85 114.103,73.496 114.431,73.496 115.082,73.85    115.406,73.85 115.406,74.553 115.406,74.903 115.406,75.607 115.082,75.959 115.735,75.959 116.061,75.959 116.386,75.959    116.711,76.313 117.365,76.313 118.015,76.313 118.015,75.959 118.667,75.959 118.667,76.662 118.993,77.014 119.321,77.717    118.993,78.42 118.342,78.771 118.015,79.125 117.69,79.475 117.365,79.475 117.038,79.125 116.386,79.475 116.061,79.826    115.735,80.178 116.061,80.531 116.711,80.531 117.038,80.882 117.365,81.232 117.365,81.586 117.038,81.938 116.711,81.938    116.386,81.938 115.735,82.288 115.406,82.64 115.406,82.993 115.406,83.343 115.082,84.045 114.756,84.398 114.103,84.045    113.779,84.045 113.127,83.694 112.802,83.694 112.474,84.045 112.474,84.398 112.474,84.75 112.15,84.398 111.498,84.045    111.498,83.694 111.498,82.993 111.17,82.64 110.845,82.288 110.518,82.288 110.518,81.938 109.867,81.938 109.539,82.288    108.889,82.288 108.238,82.288 107.91,81.938 107.585,81.938 106.934,82.288 106.607,82.64 106.281,82.288 106.281,81.938    106.281,81.586 106.281,81.232 105.955,80.882 105.63,81.232 105.305,81.232 104.978,81.586 104.978,82.288 105.305,82.64    105.63,82.993 105.63,83.343 105.63,83.694 104.978,84.045 104.978,84.398 104.978,85.101 104.652,85.101 104.326,85.452    104.326,86.156 104.326,86.507 104.652,86.859 104.652,87.21 104.326,87.561 104.326,87.915 104.001,88.265 104.001,88.616    104.001,88.968 104.326,88.968 104.652,88.968 104.978,88.968 105.63,88.968 105.305,89.671 104.978,90.025 104.652,90.025    104.326,90.373 104.326,90.728 104.652,91.078 104.978,92.135 104.978,92.485 104.978,93.189 104.652,93.189 104.326,93.538    104.326,93.892 104.326,94.24 104.652,94.24 104.978,94.24 105.305,94.24 105.63,94.24 105.955,94.595 106.281,94.595    106.934,94.24 107.259,94.24 107.91,94.595 107.91,94.24 108.564,94.24 108.564,94.595 109.214,94.595 109.539,94.595    109.867,94.946 110.195,95.296 110.845,95.296 110.518,96.002 111.17,96.353 111.17,96.703 110.845,97.406 111.17,97.759    111.17,98.11 111.498,98.462 111.498,99.164 111.17,99.87 111.17,100.22 111.17,100.923 111.17,101.275 111.17,101.978    110.518,102.33 110.195,102.682 110.195,103.032 110.195,103.383 109.539,103.737 109.214,103.737 108.889,104.087    108.564,104.087 108.238,104.439 107.585,104.439 107.259,104.791 106.934,104.791 106.607,104.791 106.281,104.439    105.955,104.087 105.63,103.737 104.652,103.737 104.652,104.087 104.652,104.439 104.326,104.791 104.001,104.791    103.674,104.439 103.674,104.087 103.348,104.087 103.023,103.737 102.698,103.737 102.698,103.383 102.044,102.682    102.044,102.33 101.719,102.33 101.394,102.682 101.067,101.978 101.394,101.625 101.719,101.625 102.044,100.923    102.044,100.572 101.719,100.572 101.394,100.572 101.067,100.22 101.394,99.87 101.394,99.516 101.067,99.516 100.741,99.516    100.415,99.87 100.088,100.22 99.763,100.22 99.438,99.516 99.113,99.164 98.459,98.814 98.134,98.462 97.809,98.462    97.156,98.11 96.83,98.11 97.156,97.406 97.481,97.406 97.809,97.057 98.134,96.703 98.459,96.002 98.459,95.648 98.784,94.946    98.784,94.595 98.459,93.892 98.784,93.538 98.784,92.835 98.784,92.485 98.459,91.781 98.134,91.43 97.809,91.781 97.481,91.781    97.156,91.781 96.83,91.43 96.179,90.728 95.852,90.373 96.179,90.025 96.504,89.671 96.504,88.968 96.504,88.616 96.504,87.915    96.83,87.561 97.156,87.21 96.83,86.859 96.504,86.507 96.179,86.859 96.179,87.21 95.527,87.915 95.2,87.21 95.527,86.859    95.852,86.507 96.179,86.156 95.852,85.804 95.852,85.101 95.852,84.75 96.179,84.398 96.504,83.694 96.504,83.343 96.179,82.993    96.179,82.288 96.179,81.938 96.179,81.232 95.527,81.232 94.875,81.586 94.55,81.586 94.55,80.882 94.222,80.531 94.875,80.531    94.55,80.178 94.222,79.475 94.222,78.771 94.222,78.42 94.55,78.07 95.2,78.07 95.527,78.07 96.179,78.07 96.504,78.07    96.83,78.07 96.504,77.717 96.504,77.014 96.179,76.662 95.852,76.313 95.2,76.662 94.875,76.313 94.55,75.959 94.222,75.607    93.57,75.607 93.57,75.257 93.57,74.903 92.918,74.553 92.593,74.553 92.593,73.85   " id="upazila_294" area="upazlia" name="dhunot" bengali="ধুনট" parent="bogra"></polygon><polygon points="67.169,24.625 67.823,23.921 68.473,22.518 68.799,22.163 69.126,21.815 69.451,21.463    70.43,21.11 70.756,21.11 71.08,21.11 71.732,21.11 72.06,21.463 72.712,21.463 73.035,21.463 73.364,21.11 73.688,20.758    74.341,20.758 74.664,20.758 74.992,21.11 75.645,21.463 75.968,21.815 76.296,21.815 75.968,22.518 75.645,22.87 75.318,23.221    74.992,23.221 74.664,23.572 74.992,23.921 75.318,23.921 75.968,23.921 76.296,23.921 76.621,23.921 76.948,24.275    77.274,24.625 77.927,24.978 77.927,25.331 78.252,25.331 78.577,25.331 78.904,25.331 79.229,25.331 78.904,25.682    78.577,25.682 78.252,26.384 78.252,26.738 78.252,27.087 78.252,27.791 78.577,28.142 78.904,28.142 79.229,28.495    79.882,28.495 80.532,28.845 81.186,29.198 81.511,29.548 81.836,29.899 81.836,30.251 81.836,30.604 82.163,30.955 82.49,30.955    82.49,30.604 82.815,29.899 82.815,29.548 82.49,28.845 82.815,28.495 83.467,28.495 83.792,28.495 84.118,28.495 84.444,28.495    84.118,28.142 83.792,27.791 83.792,27.439 84.118,27.087 84.771,27.439 85.096,27.439 85.421,27.439 85.749,27.087    85.749,26.738 87.053,27.439 87.378,28.142 87.053,29.198 87.378,29.198 87.703,29.198 88.029,28.495 88.355,28.142    89.008,28.142 89.66,28.142 89.984,28.142 89.66,28.495 89.66,28.845 89.984,28.845 90.311,28.495 90.637,28.142 90.962,27.791    91.287,27.791 91.287,28.142 91.287,28.495 90.962,29.198 90.637,29.548 90.637,29.899 90.962,30.251 91.287,30.604    90.962,30.604 91.287,30.955 91.287,31.306 90.962,31.658 90.637,32.008 90.637,32.361 90.962,32.715 91.287,32.715    91.287,33.065 90.962,33.416 90.637,33.768 90.311,33.768 89.66,34.118 89.333,34.47 88.682,34.47 88.355,34.47 88.355,34.822    88.029,35.173 87.378,34.822 87.378,35.527 87.053,35.879 86.725,35.879 86.4,35.879 85.749,35.879 85.096,35.879 84.771,36.228    84.444,36.228 83.792,36.228 83.467,36.581 83.14,36.93 82.815,37.285 82.49,37.285 81.836,37.635 81.511,37.635 81.186,37.635    81.186,37.986 80.858,37.986 80.532,38.339 80.532,38.692 80.207,39.042 80.207,39.392 79.556,39.747 79.556,40.095    79.882,40.095 80.207,40.095 80.207,41.152 80.207,41.504 79.556,41.504 79.556,41.853 79.229,42.208 78.904,42.557    78.577,42.557 78.252,42.91 77.927,43.262 77.927,43.965 77.927,44.316 78.252,44.316 78.252,44.669 78.252,45.372 78.252,46.074    77.927,46.427 77.927,46.074 77.6,45.722 77.274,45.722 76.948,45.722 76.621,45.722 76.296,45.722 75.645,45.722 75.318,45.722    74.992,44.669 74.992,43.965 75.318,43.613 75.318,43.262 74.992,43.262 74.664,42.91 74.016,42.91 73.688,43.262 73.364,43.613    73.364,43.262 73.035,43.262 72.712,43.613 72.384,43.262 72.06,43.613 71.732,43.965 71.406,43.965 71.08,43.965 70.756,43.965    70.43,43.965 70.102,43.965 69.777,43.965 69.126,43.965 68.799,43.965 68.148,43.965 67.823,43.613 67.169,43.965 66.844,43.965    66.192,43.965 65.866,43.965 65.866,44.669 65.866,45.372 65.866,45.722 65.866,46.074 65.54,46.427 65.213,47.129 64.563,47.479    63.909,48.183 63.259,48.887 62.281,49.59 61.629,49.94 60.977,50.294 60.652,50.644 59.675,50.644 58.043,50.995 58.043,50.644    57.718,49.94 57.393,50.294 57.393,50.644 57.068,50.644 57.068,50.294 57.068,49.94 56.74,50.294 56.414,49.94 56.089,49.94    55.762,49.94 55.762,49.59 55.436,49.238 55.112,48.887 54.783,48.887 54.458,48.536 54.458,47.831 54.458,47.129 54.783,46.776    54.783,46.427 54.783,46.074 55.112,45.722 54.783,45.372 54.783,45.019 54.458,44.669 54.458,44.316 54.458,43.965    54.458,43.613 54.132,43.262 53.808,42.91 53.808,42.557 53.808,41.853 53.808,41.504 54.132,41.504 54.132,41.152 54.458,40.802    54.458,40.449 54.783,40.449 55.112,40.449 55.762,40.802 55.762,40.449 55.762,40.095 55.436,39.747 55.112,39.747    55.112,39.042 55.112,38.692 55.762,38.692 56.414,38.692 57.068,38.692 57.068,38.339 56.74,38.339 56.089,38.339 56.089,37.986    56.414,37.635 56.74,37.635 57.068,37.285 57.393,36.93 57.718,36.581 57.718,36.228 58.043,35.879 58.697,35.527 59.022,35.173    59.022,34.822 58.697,34.47 58.371,34.118 58.371,33.768 58.697,33.768 59.022,33.768 59.347,34.47 59.675,34.47 59.675,34.822    60,34.822 60.325,35.173 60.652,35.173 60.977,35.173 61.304,34.822 61.629,34.47 61.955,34.118 62.281,33.416 62.281,33.065    62.281,32.715 62.281,32.008 62.606,30.955 62.933,30.604 63.259,30.604 63.259,29.899 63.584,29.548 63.259,28.845    63.259,28.495 63.259,28.142 63.584,27.791 64.238,27.791 64.238,27.439 64.888,27.087 64.888,26.738 65.54,26.384 65.866,26.033    66.192,25.682 66.517,25.331 66.844,25.331   " id="upazila_301" area="upazlia" name="shibganj" bengali="শিবগঞ্জ" parent="bogra"></polygon><polygon points="88.682,62.951 88.682,63.3 89.008,63.3 89.333,63.654 89.66,64.004 89.984,64.004 89.984,64.356    90.311,65.061 90.311,65.412 90.311,65.762 90.637,65.762 90.637,66.466 90.962,66.818 90.962,67.874 91.287,68.575    91.615,68.927 91.615,69.279 91.287,69.629 91.287,69.982 90.962,70.334 90.962,70.684 90.962,71.389 91.287,72.091    91.287,72.443 91.287,72.796 91.615,73.148 91.615,73.496 91.943,73.496 92.266,73.148 92.593,73.849 92.593,74.553    92.918,74.553 93.57,74.903 93.57,75.257 93.57,75.607 94.222,75.607 94.55,75.959 94.875,76.311 95.2,76.662 95.852,76.311    96.179,76.662 96.504,77.014 96.504,77.716 96.83,78.07 96.504,78.07 96.179,78.07 95.527,78.07 95.2,78.07 94.55,78.07    94.222,78.42 94.222,78.771 94.222,79.475 93.57,79.475 92.918,79.475 92.593,79.475 91.943,79.475 91.943,79.826 91.943,80.178    91.615,80.178 90.962,80.178 90.311,80.178 89.984,80.178 89.333,80.178 89.008,79.826 88.355,79.475 87.703,79.475    87.703,79.125 87.053,79.125 86.725,79.475 86.725,79.826 86.074,79.826 85.421,79.826 85.096,79.826 84.771,80.178    84.444,80.178 84.118,80.178 83.792,80.178 83.792,80.531 83.792,80.882 84.118,81.232 83.467,81.232 83.14,81.232 82.815,81.232    82.49,81.583 82.49,81.938 82.49,82.288 82.163,82.64 81.836,82.64 81.511,82.993 81.186,83.343 81.186,83.694 80.858,83.694    80.858,83.343 80.532,82.993 80.532,82.64 79.882,82.64 79.882,82.288 79.556,82.288 78.904,82.288 78.252,82.288 77.927,82.288    77.6,82.288 77.274,82.64 76.948,82.993 76.621,82.993 76.296,82.993 76.296,83.343 75.968,83.694 75.318,83.694 74.664,82.288    74.341,82.64 74.016,82.288 73.688,82.288 73.688,82.64 73.688,83.343 73.688,83.694 73.364,84.045 73.035,84.045 72.712,83.694    72.384,83.343 72.06,82.993 71.732,82.64 70.756,82.64 70.43,83.343 70.102,83.343 69.777,83.343 69.451,83.343 69.451,83.694    69.126,83.343 68.799,82.993 68.473,82.993 68.148,82.993 67.169,82.64 67.169,81.938 67.169,81.583 67.495,81.232 67.823,80.882    67.823,80.531 67.823,79.826 67.169,79.475 67.495,78.42 67.169,77.716 67.169,77.365 67.169,77.014 67.495,76.662 67.495,75.959    67.495,75.607 67.495,75.257 67.823,74.903 68.148,74.903 68.473,75.257 68.799,74.903 69.126,74.553 69.126,74.203    69.777,73.148 70.102,72.796 71.732,72.443 72.06,72.443 72.384,72.443 72.384,72.091 72.06,71.741 72.06,71.389 72.06,71.037    72.384,70.684 72.384,70.334 72.06,69.982 71.732,69.629 71.732,69.279 72.06,68.575 72.384,68.224 72.712,67.521 73.035,67.168    72.712,66.466 72.712,66.114 72.384,66.114 71.732,65.762 72.06,65.412 72.712,65.762 73.688,65.762 73.688,65.061 74.016,65.061    74.664,65.762 75.645,65.061 76.296,65.061 76.948,65.061 77.927,64.708 78.904,65.412 78.577,66.114 78.904,67.168    79.229,67.521 79.882,67.521 80.207,68.224 80.858,68.927 81.186,68.927 81.836,68.927 82.163,68.927 82.49,68.927 83.14,69.279    83.792,69.629 84.118,69.982 84.444,69.629 84.771,68.927 84.771,68.224 84.771,67.521 84.118,66.818 83.467,66.818    82.815,67.168 82.163,67.168 81.836,66.466 82.163,65.412 82.163,65.061 82.49,64.356 82.815,63.3 83.467,64.004 83.792,64.356    84.444,63.654 84.771,64.356 85.421,65.061 85.749,64.356 86.074,64.356 86.4,63.654 87.053,63.654 87.703,63.654 87.703,63.3    88.029,62.599 88.682,62.599   " id="upazila_293" area="upazlia" name="shajahanpur" bengali="শাজাহানপুর" parent="bogra"></polygon><polygon points="88.682,62.951 88.682,62.599 88.029,62.599 87.703,63.3 87.703,63.654 87.053,63.654 86.4,63.654    86.074,64.356 85.749,64.356 85.421,65.061 84.771,64.356 84.444,63.654 83.792,64.356 83.467,64.004 82.815,63.3 82.49,64.356    82.163,65.061 82.163,65.412 81.836,66.466 82.163,67.168 82.815,67.168 83.467,66.818 84.118,66.818 84.771,67.521    84.771,68.224 84.771,68.927 84.444,69.629 84.118,69.982 83.792,69.629 83.14,69.279 82.49,68.927 82.163,68.927 81.836,68.927    81.186,68.927 80.858,68.927 80.207,68.224 79.882,67.521 79.229,67.521 78.904,67.168 78.577,66.114 78.904,65.412    77.927,64.708 76.948,65.061 76.296,65.061 75.645,65.061 74.664,65.762 74.016,65.061 73.688,65.061 73.688,65.762    72.712,65.762 72.06,65.412 71.732,65.762 71.406,65.412 71.08,65.061 71.08,64.708 71.08,64.356 71.08,64.004 71.406,63.654    71.732,62.951 71.732,62.599 71.732,62.247 71.732,61.895 71.732,61.543 71.406,60.839 71.732,60.488 72.06,60.138 72.384,59.786    72.384,59.434 72.06,59.081 72.06,58.731 72.06,58.379 72.384,58.027 72.712,57.325 72.712,56.973 72.384,56.622 72.06,55.917    71.732,55.917 71.406,55.917 71.08,55.917 71.08,55.567 70.43,55.214 70.756,54.864 70.756,54.161 70.43,54.161 70.102,53.807    70.102,53.457 70.102,53.104 70.43,52.752 70.756,52.402 70.102,52.402 69.777,52.05 69.451,52.05 69.451,51.697 69.451,50.995    69.777,50.644 69.451,50.293 69.451,49.94 69.126,49.59 69.451,49.237 69.777,48.886 69.451,48.535 69.126,48.183 69.126,47.479    68.799,47.479 68.473,47.479 68.148,47.479 67.823,47.479 67.495,47.129 67.169,47.129 66.844,47.129 66.517,46.777    66.192,46.777 65.54,46.424 65.866,46.073 65.866,45.722 65.866,45.369 65.866,44.667 65.866,43.962 66.192,43.962 66.844,43.962    67.169,43.962 67.823,43.611 68.148,43.962 68.799,43.962 69.126,43.962 69.777,43.962 70.102,43.962 70.43,43.962 70.756,43.962    71.08,43.962 71.406,43.962 71.732,43.962 72.06,43.611 72.384,43.262 72.712,43.611 73.035,43.262 73.364,43.262 73.364,43.611    73.688,43.262 74.016,42.908 74.664,42.908 74.992,43.262 75.318,43.262 75.318,43.611 74.992,43.962 74.992,44.667    75.318,45.722 75.645,45.722 76.296,45.722 76.621,45.722 76.948,45.722 77.274,45.722 77.6,45.722 77.927,46.073 77.927,46.424    78.252,46.073 78.252,45.369 78.252,44.667 78.252,44.316 77.927,44.316 77.927,43.962 77.927,43.262 78.252,42.908    78.577,42.557 78.904,42.557 79.229,42.206 79.556,41.854 79.556,41.502 80.207,41.502 80.207,41.15 80.207,40.095 80.858,40.8    81.186,41.15 81.186,41.502 81.511,41.854 81.836,42.206 81.836,42.557 81.511,43.262 81.836,43.962 82.49,44.316 82.815,44.316    83.14,44.316 83.467,44.316 83.792,44.667 83.792,45.369 84.118,45.722 83.792,46.424 83.792,46.777 83.792,47.479 84.118,47.83    84.444,47.83 84.771,48.183 84.771,48.535 85.096,48.886 85.096,49.237 85.096,49.59 85.421,49.94 86.074,49.59 86.4,49.59    86.074,50.293 86.074,50.644 85.749,50.995 85.421,51.347 85.421,51.697 85.421,52.05 85.096,52.402 84.771,52.752 84.771,53.104    84.444,53.104 84.771,53.457 84.771,53.807 85.096,54.161 85.421,54.513 85.421,54.864 85.421,55.214 85.421,55.567    85.749,55.567 86.074,55.214 86.074,55.567 86.4,55.917 86.4,56.271 86.074,56.622 85.749,56.973 85.749,57.675 86.074,58.027    86.074,58.379 86.725,58.731 87.053,59.081 87.378,59.081 87.703,59.081 88.029,59.081 88.355,58.731 88.355,59.081    88.029,59.434 88.029,59.786 88.355,59.786 88.682,60.138 88.682,60.839 88.029,61.193 88.029,61.543 88.355,61.895    88.682,62.247 88.682,62.599   " id="upazila_450" area="upazlia" name="bograsadar" bengali="বগুড়া-সদর" parent="bogra"></polygon><polygon points="75.317,83.694 75.968,83.694 76.296,83.344 76.296,82.989 76.621,82.989 76.947,82.989    77.275,82.64 77.599,82.288 77.927,82.288 78.25,82.288 78.904,82.288 79.556,82.288 79.881,82.288 79.881,82.64 80.531,82.64    80.531,82.989 80.86,83.344 80.86,83.694 81.186,83.694 81.186,83.344 81.51,82.989 81.836,82.64 82.161,82.64 82.49,82.288    82.49,81.938 82.49,81.583 82.814,81.232 83.14,81.232 83.467,81.232 84.118,81.232 83.79,80.884 83.79,80.531 83.79,80.178    84.118,80.178 84.444,80.178 84.771,80.178 85.094,79.826 85.421,79.826 86.073,79.826 86.723,79.826 86.723,79.475    87.053,79.123 87.703,79.123 87.703,79.475 88.354,79.475 89.007,79.826 89.333,80.178 89.984,80.178 90.311,80.178    90.962,80.178 91.615,80.178 91.941,80.178 91.941,79.826 91.941,79.475 92.593,79.475 92.916,79.475 93.569,79.475 94.22,79.475    94.55,80.178 94.875,80.531 94.22,80.531 94.55,80.884 94.55,81.583 94.875,81.583 95.527,81.232 96.179,81.232 96.179,81.938    96.179,82.288 96.179,82.989 96.504,83.344 96.504,83.694 96.179,84.398 95.851,84.75 95.851,85.101 95.851,85.806 96.179,86.156    95.851,86.507 95.527,86.858 95.201,87.21 95.527,87.914 96.179,87.21 96.179,86.858 96.504,86.507 96.83,86.858 97.156,87.21    96.83,87.561 96.504,87.914 96.504,88.616 96.504,88.968 96.504,89.671 96.179,90.025 95.851,90.373 96.179,90.728 96.83,91.43    97.156,91.781 97.48,91.781 97.809,91.781 98.133,91.43 98.459,91.781 98.784,92.485 98.784,92.835 98.784,93.538 98.459,93.893    98.784,94.594 98.784,94.946 98.459,95.649 98.459,96 98.133,96.703 97.809,97.055 97.48,97.406 97.156,97.406 96.83,98.112    97.156,98.112 97.809,98.46 98.133,98.46 98.459,98.815 99.113,99.164 99.438,99.516 99.763,100.22 100.09,100.22 100.413,99.87    100.741,99.516 101.066,99.516 101.394,99.516 101.394,99.87 101.066,100.22 101.394,100.573 101.719,100.573 102.044,100.573    102.044,100.921 101.719,101.625 101.394,101.625 101.066,101.978 101.394,102.682 101.394,103.034 101.394,103.383    101.719,103.738 102.044,104.087 102.044,104.439 102.044,104.79 101.719,104.79 101.719,104.439 101.394,104.439    101.066,104.439 100.741,104.087 100.741,103.738 100.413,103.738 100.09,103.738 100.09,104.087 99.763,104.087 99.113,103.738    98.459,103.738 97.809,103.383 97.48,103.383 96.83,103.383 96.504,103.383 95.851,103.383 95.527,103.383 95.201,103.383    94.55,103.383 94.22,103.738 93.897,103.738 93.569,104.087 93.569,104.439 93.897,104.439 93.897,104.79 93.569,104.79    93.246,104.79 92.593,104.79 91.941,104.79 91.615,104.79 90.962,104.439 90.311,104.087 89.333,104.087 88.682,104.087    88.03,104.087 87.703,104.087 87.703,103.383 87.376,103.034 87.053,103.034 86.4,102.329 85.749,102.329 85.421,102.682    85.094,103.034 85.094,103.383 84.444,103.738 84.118,104.087 83.79,104.087 83.467,103.738 83.14,103.383 82.49,103.034    82.161,103.034 81.51,103.034 80.86,103.383 80.207,103.383 79.881,103.383 79.556,103.034 79.228,103.034 78.578,103.034    78.25,103.034 77.927,103.034 77.275,102.682 76.947,102.682 76.947,102.329 76.621,101.978 76.296,101.978 75.645,102.682    75.645,102.329 75.317,101.625 74.994,100.921 74.663,100.573 74.016,99.87 74.016,99.164 74.016,98.112 74.341,97.055    74.663,96.703 74.994,97.055 75.317,97.406 75.645,96.703 75.968,96.354 75.968,96 75.968,95.649 75.968,94.946 76.296,94.24    76.296,93.893 76.621,93.189 76.621,92.485 76.296,91.43 75.968,91.43 75.645,91.078 75.645,90.728 75.317,90.373 75.645,89.671    75.645,89.318 75.645,88.968 75.968,88.268 75.645,87.914 75.968,87.561 75.968,87.21 75.645,86.858 75.317,86.507 74.994,86.507    74.663,86.156 74.663,85.806 74.663,85.451 74.994,85.451 74.994,85.101 74.663,85.101 74.341,84.75 74.663,84.398 74.994,84.398    74.994,84.045   " id="upazila_300" area="upazlia" name="sherpur" bengali="শেরপুর" parent="bogra"></polygon></svg>