<svg enable-background="new -106.403 -201.859 629.266 880.536" height="880.536px" id="district_41" viewBox="-106.403 -201.859 629.266 880.536" width="629.266px" x="0px" xml:space="preserve" xmlns="http://www.w3.org/2000/svg" y="0px"><polygon points="-82.76,59.081 -82.76,58.733 -83.086,58.733 -83.413,58.733 -84.063,58.733 -84.391,58.379    -84.717,58.028 -84.717,56.973 -84.717,56.622 -84.717,56.272 -85.042,55.915 -85.693,55.568 -85.693,55.214 -85.367,54.864    -85.042,54.509 -84.717,54.864 -84.391,54.864 -84.063,55.214 -83.738,54.864 -83.413,54.864 -84.063,54.161 -84.391,53.807    -84.717,53.457 -85.042,53.457 -85.367,53.457 -85.367,53.105 -85.693,52.752 -86.02,52.049 -86.997,51.347 -87.322,50.995    -87.649,50.644 -87.649,50.293 -87.649,49.59 -87.649,48.535 -87.649,47.83 -87.322,47.83 -86.997,47.83 -86.345,48.535    -86.02,48.535 -85.693,48.535 -85.367,48.183 -85.042,47.83 -84.717,47.479 -84.717,47.129 -84.391,47.129 -84.063,47.129    -84.063,46.776 -83.738,46.424 -83.413,46.073 -83.086,46.073 -82.434,46.424 -82.434,46.073 -82.107,45.369 -81.129,45.369    -80.803,45.369 -80.478,45.369 -79.825,45.019 -79.175,44.667 -78.523,44.667 -77.545,44.667 -77.219,44.314 -76.241,44.314    -75.591,44.667 -75.262,44.667 -75.262,45.019 -74.937,45.369 -74.937,46.073 -74.612,46.424 -74.285,46.776 -73.634,47.129    -72.981,48.183 -72.005,48.886 -71.352,49.59 -70.699,50.644 -70.374,52.049 -70.374,53.105 -70.374,54.161 -70.699,55.568    -71.027,56.622 -72.005,57.675 -72.005,58.028 -71.677,58.733 -71.352,59.081 -71.352,59.434 -71.677,59.784 -71.677,60.138    -71.677,61.194 -71.677,61.895 -72.005,62.247 -72.656,61.895 -72.981,61.543 -73.308,61.194 -73.634,60.839 -73.96,60.489    -73.96,60.138 -74.285,59.784 -74.612,59.434 -74.937,59.434 -75.262,59.784 -75.262,60.489 -74.937,60.839 -74.612,61.194    -74.612,61.543 -74.612,62.247 -74.285,62.952 -73.96,63.652 -73.634,64.004 -73.634,64.356 -73.634,65.061 -73.96,65.413    -73.96,66.116 -74.612,66.818 -75.262,67.519 -75.262,66.818 -75.916,66.466 -76.566,66.116 -76.894,65.762 -77.545,65.762    -77.545,65.413 -77.219,64.356 -77.219,64.004 -77.219,63.652 -77.545,63.652 -78.196,64.004 -78.523,63.3 -78.523,62.952    -78.523,62.599 -78.196,61.895 -78.196,61.194 -78.523,60.839 -78.848,60.839 -79.175,60.489 -79.5,60.138 -79.175,59.784    -79.5,59.434 -79.825,59.081 -79.825,58.733 -80.152,58.379 -80.803,58.733 -81.129,59.081 -81.457,59.081 -81.782,59.434   " id="upazila_359" area="upazlia" name="bholahat" bengali="ভোলাহাট" parent="chapainawabganj"></polygon><polygon points="-52.775,44.667 -51.797,43.962 -51.47,43.962 -50.817,43.962 -50.167,43.962 -49.842,43.262    -49.516,43.611 -49.188,43.611 -48.536,43.611 -47.885,43.962 -47.559,44.667 -47.234,45.019 -47.234,45.722 -47.559,46.073    -47.559,46.777 -47.885,47.83 -47.885,48.535 -47.559,49.238 -46.582,49.59 -46.254,49.94 -45.605,50.293 -44.952,50.293    -44.625,49.94 -44.625,49.59 -44.952,48.886 -44.952,48.535 -44.625,48.183 -44.3,48.183 -43.973,47.83 -42.996,47.83    -42.344,47.479 -42.019,47.83 -41.367,48.183 -41.042,48.535 -40.388,48.886 -40.062,49.59 -39.738,49.94 -39.41,52.05    -40.388,52.402 -40.716,52.402 -41.042,53.105 -41.042,53.457 -40.716,53.457 -40.388,53.807 -40.388,54.513 -40.062,55.214    -40.062,55.567 -40.062,55.917 -40.388,56.271 -40.716,56.973 -41.042,57.675 -41.367,58.027 -42.344,58.731 -42.344,59.081    -42.344,59.786 -42.344,60.488 -42.344,61.193 -42.671,61.543 -43.323,61.543 -43.323,61.193 -43.973,60.488 -44.3,59.786    -44.625,59.434 -45.278,59.081 -46.254,59.434 -46.582,59.786 -46.254,60.138 -45.605,60.488 -44.952,60.839 -44.952,61.543    -45.278,61.543 -45.93,61.543 -46.582,61.543 -46.907,61.543 -47.559,61.895 -47.559,62.599 -48.213,62.599 -48.536,62.249    -48.863,62.249 -48.863,61.895 -48.863,61.543 -49.516,61.193 -49.842,60.839 -49.842,61.193 -50.167,61.543 -50.817,61.543    -51.145,61.193 -51.47,61.193 -51.47,61.543 -51.47,61.895 -51.47,62.599 -51.797,62.599 -52.449,62.599 -52.122,62.951    -51.797,63.3 -52.122,63.654 -51.797,64.004 -51.797,64.356 -52.449,64.709 -52.775,64.709 -53.427,65.061 -53.751,65.412    -54.406,65.061 -54.406,66.116 -54.079,66.466 -54.731,66.818 -55.38,66.818 -55.71,67.521 -56.36,67.521 -57.011,67.521    -57.339,67.872 -57.662,67.521 -58.314,67.168 -58.642,67.168 -59.294,67.521 -59.944,67.872 -60.272,67.872 -60.923,68.576    -61.575,68.576 -61.901,68.927 -62.552,69.279 -62.552,70.334 -62.552,71.037 -62.225,71.741 -61.901,72.091 -61.575,72.794    -61.901,73.148 -61.901,73.85 -61.248,74.203 -60.923,75.257 -61.248,76.311 -61.575,76.662 -62.552,76.311 -63.205,75.959    -63.857,75.607 -64.508,75.257 -65.811,75.257 -66.137,75.257 -66.137,74.903 -66.465,74.203 -66.791,74.203 -67.44,74.553    -67.768,74.903 -68.42,74.903 -68.745,75.257 -69.722,75.607 -70.374,74.903 -70.701,74.553 -71.027,74.203 -70.701,73.85    -70.701,73.148 -70.701,72.794 -70.701,72.091 -70.701,71.741 -70.374,71.389 -70.049,71.037 -70.049,70.684 -70.049,70.334    -70.374,70.684 -71.027,71.037 -71.679,71.389 -72.656,71.741 -72.983,72.091 -73.308,72.443 -73.634,72.794 -73.962,72.794    -74.285,72.794 -74.612,73.148 -75.263,73.496 -75.591,73.496 -75.916,73.148 -76.242,73.148 -76.566,72.794 -76.566,72.443    -75.916,71.741 -75.263,70.684 -74.937,69.982 -74.612,69.279 -74.612,68.576 -74.612,68.224 -75.263,67.521 -74.612,66.818    -73.962,66.116 -73.962,65.412 -73.634,65.061 -73.634,64.356 -73.634,64.004 -73.962,63.654 -74.285,62.951 -74.612,62.249    -74.612,61.543 -74.612,61.193 -74.937,60.839 -75.263,60.488 -75.263,59.786 -74.937,59.434 -74.612,59.434 -74.285,59.786    -73.962,60.138 -73.962,60.488 -73.634,60.839 -73.308,61.193 -72.983,61.543 -72.656,61.895 -72.003,62.249 -71.679,61.895    -71.679,61.193 -71.679,60.138 -71.679,59.786 -71.352,59.434 -71.352,59.081 -71.679,58.731 -72.003,58.027 -72.003,57.675    -71.027,56.622 -70.701,56.973 -70.374,56.973 -70.049,56.622 -70.049,56.271 -70.049,55.917 -70.049,55.567 -70.049,55.214    -69.722,54.864 -69.398,54.161 -69.072,53.807 -69.072,54.161 -68.745,54.513 -68.745,54.864 -68.745,55.214 -68.42,55.214    -68.094,54.864 -67.768,54.864 -67.44,55.214 -67.116,55.214 -66.791,55.214 -66.465,55.214 -66.137,55.214 -65.811,55.567    -65.486,55.917 -65.811,55.917 -65.811,56.271 -65.811,56.973 -65.159,57.675 -64.836,56.973 -64.508,56.622 -64.182,56.622    -63.857,56.271 -63.53,55.917 -63.205,55.917 -62.877,55.917 -62.552,56.271 -62.877,56.622 -62.877,56.973 -62.552,57.325    -62.225,57.675 -61.575,57.675 -61.248,57.675 -60.923,57.325 -60.923,56.973 -60.272,56.271 -59.944,55.917 -59.944,55.567    -59.619,55.214 -59.619,54.864 -59.294,54.513 -59.294,53.807 -59.619,53.457 -59.944,53.457 -60.596,53.457 -60.923,53.457    -60.923,53.105 -61.248,52.752 -61.901,52.752 -62.225,52.402 -62.225,51.697 -62.225,50.995 -61.901,50.995 -61.575,50.644    -61.248,50.644 -60.923,50.644 -60.923,50.293 -61.248,49.59 -60.596,49.59 -60.596,49.238 -60.596,48.886 -60.596,48.535    -60.272,48.183 -60.272,47.83 -60.272,47.479 -59.944,47.479 -59.619,47.129 -59.294,47.129 -58.968,46.777 -58.642,47.129    -58.314,47.129 -57.99,46.777 -57.99,46.424 -57.662,46.073 -57.339,45.722 -57.011,45.722 -57.011,46.073 -56.685,46.424    -56.685,46.777 -56.033,47.129 -55.71,47.129 -55.38,47.129 -55.056,47.129 -54.731,47.479 -54.406,47.83 -54.079,47.479    -53.427,47.129 -53.099,47.129 -52.775,47.129 -52.449,47.129 -52.122,46.424 -52.122,46.073 -52.122,45.722 -52.449,45.372    -52.449,45.019   " id="upazila_360" area="upazlia" name="gomostapur" bengali="গোমস্তাপুর" parent="chapainawabganj"></polygon><polygon points="-82.76,59.081 -81.782,59.434 -81.457,59.081 -81.129,59.081 -80.803,58.733 -80.152,58.379    -79.825,58.733 -79.825,59.081 -79.5,59.434 -79.175,59.784 -79.5,60.138 -79.175,60.489 -78.848,60.839 -78.523,60.839    -78.196,61.194 -78.196,61.895 -78.523,62.599 -78.523,62.952 -78.523,63.3 -78.196,64.004 -77.545,63.652 -77.219,63.652    -77.219,64.004 -77.219,64.356 -77.545,65.413 -77.545,65.762 -76.894,65.762 -76.566,66.116 -75.916,66.466 -75.262,66.818    -75.262,67.519 -74.612,68.224 -74.612,68.575 -74.612,69.279 -74.937,69.982 -75.262,70.684 -75.916,71.741 -76.566,72.443    -76.566,72.796 -76.241,73.148 -75.916,73.148 -75.591,73.499 -75.262,73.499 -74.612,73.148 -74.285,72.796 -73.96,72.796    -73.634,72.796 -73.308,72.443 -72.981,72.091 -72.656,71.741 -71.677,71.387 -71.027,71.039 -70.374,70.684 -70.049,70.336    -70.049,70.684 -70.049,71.039 -70.374,71.387 -70.699,71.741 -70.699,72.091 -70.699,72.796 -70.699,73.148 -70.699,73.849    -71.027,74.203 -70.699,74.553 -70.374,74.903 -69.722,75.607 -69.722,75.96 -69.397,76.311 -69.07,76.662 -68.744,77.365    -68.419,77.716 -67.766,78.423 -67.766,78.771 -67.766,79.123 -67.766,79.475 -68.094,79.826 -69.07,80.528 -69.397,81.232    -69.722,81.583 -70.049,81.938 -70.374,82.288 -70.699,82.288 -71.027,82.64 -71.352,82.64 -71.677,82.989 -72.005,83.344    -72.331,84.045 -72.656,84.75 -72.331,85.101 -72.005,85.451 -71.677,85.806 -71.352,86.156 -70.699,86.156 -70.374,86.156    -69.722,86.156 -69.397,85.806 -68.744,85.451 -68.094,85.101 -67.766,85.101 -67.115,84.75 -66.79,84.75 -66.463,84.75    -66.136,85.101 -66.136,85.451 -65.811,85.806 -66.136,86.156 -66.136,86.507 -66.136,87.21 -66.463,87.21 -67.115,87.561    -67.766,87.561 -68.419,87.914 -69.07,88.265 -69.722,88.265 -70.049,87.914 -70.374,87.914 -70.699,87.914 -71.027,88.265    -71.352,88.265 -71.677,88.265 -72.005,88.616 -72.331,88.968 -72.656,89.318 -72.981,89.671 -73.308,89.671 -73.634,89.318    -73.96,89.318 -73.96,89.671 -73.96,90.025 -73.634,90.373 -73.634,91.078 -73.634,91.43 -73.96,91.781 -74.285,92.134    -74.285,92.485 -73.96,92.835 -73.634,93.189 -73.634,93.538 -74.285,93.189 -74.937,92.835 -75.262,92.835 -75.591,92.835    -75.916,92.835 -76.241,93.189 -76.241,93.538 -75.916,93.893 -75.916,94.24 -76.241,94.594 -76.894,94.24 -77.219,94.24    -77.219,94.594 -77.545,95.296 -77.871,95.649 -78.196,95.649 -78.848,95.649 -79.175,95.296 -79.175,94.946 -79.5,94.594    -79.825,94.24 -80.152,93.893 -80.478,93.893 -80.803,94.24 -80.803,94.594 -80.152,94.946 -80.152,95.296 -79.825,95.649    -79.825,96 -79.5,96.354 -79.825,96.703 -79.825,97.055 -79.175,97.406 -78.848,97.406 -78.848,98.112 -78.848,98.46    -78.523,98.815 -78.196,98.815 -77.871,98.46 -77.219,98.112 -76.566,98.112 -75.916,98.815 -75.591,98.815 -75.262,99.164    -74.937,99.516 -75.262,99.867 -75.591,99.867 -75.591,100.22 -75.916,100.573 -76.241,100.573 -76.566,99.867 -76.894,99.867    -77.219,99.867 -77.545,99.516 -77.545,99.867 -77.545,100.22 -77.219,100.22 -76.894,100.573 -76.566,100.573 -76.566,100.921    -76.894,100.921 -77.545,100.921 -77.871,100.921 -78.196,101.276 -78.848,100.921 -79.175,100.573 -79.825,100.22    -80.152,100.22 -80.478,99.867 -80.478,99.516 -80.803,99.516 -81.457,99.516 -81.782,99.516 -82.107,99.516 -82.76,99.516    -83.086,99.164 -83.413,99.164 -83.738,99.516 -84.063,99.516 -84.391,99.516 -84.717,99.867 -85.042,99.867 -85.693,99.867    -86.02,99.516 -86.345,99.516 -86.672,99.867 -87.322,99.867 -87.975,99.867 -88.626,100.22 -89.279,99.867 -89.604,99.867    -89.929,99.867 -89.929,100.22 -89.929,100.573 -90.257,100.921 -89.929,101.276 -90.257,101.625 -90.908,101.625    -91.233,101.625 -91.56,101.625 -91.56,102.329 -91.56,102.682 -91.885,104.087 -91.56,105.845 -92.212,105.142 -92.537,104.79    -92.864,104.439 -93.189,103.737 -93.514,103.383 -93.843,102.682 -94.168,102.329 -94.493,101.276 -94.818,100.573    -95.798,99.516 -96.123,98.815 -96.448,98.112 -96.776,97.406 -97.101,96.703 -97.752,95.649 -98.405,94.946 -98.73,94.594    -99.057,94.24 -99.057,93.893 -99.383,93.538 -99.709,92.835 -100.034,92.485 -100.361,91.781 -101.011,91.43 -101.338,90.728    -102.315,90.373 -102.969,90.025 -103.294,89.671 -103.945,88.968 -104.272,88.616 -104.924,88.265 -105.249,87.561    -105.249,87.21 -104.924,86.858 -104.597,86.507 -104.272,86.156 -103.619,85.451 -103.294,85.101 -102.643,84.398    -101.99,83.694 -101.665,82.989 -101.011,82.64 -100.361,81.938 -99.709,81.583 -99.057,80.884 -98.405,80.528 -98.08,80.178    -97.752,79.475 -97.752,79.123 -97.427,78.423 -97.427,77.716 -96.776,76.662 -96.776,76.311 -97.101,75.96 -97.427,75.607    -97.427,75.257 -97.101,74.903 -97.101,74.553 -96.776,74.203 -96.448,73.849 -96.776,73.499 -97.101,73.499 -97.101,73.148    -97.101,72.796 -97.101,72.443 -96.776,72.091 -96.448,72.443 -96.123,72.443 -95.798,72.091 -95.471,71.741 -94.818,71.039    -94.493,70.684 -94.168,70.684 -93.843,70.684 -93.189,71.039 -92.212,71.039 -92.212,70.684 -92.212,70.336 -92.212,69.279    -92.212,68.927 -92.212,67.874 -92.212,67.168 -91.885,66.818 -91.56,66.116 -90.583,65.413 -89.929,64.708 -89.604,65.061    -89.279,65.762 -89.279,66.466 -88.951,67.168 -88.626,67.519 -88.301,67.168 -87.975,67.168 -87.975,66.466 -88.301,66.116    -88.301,65.762 -88.301,65.061 -88.301,64.356 -88.301,63.652 -88.301,63.3 -87.975,63.3 -87.649,62.952 -87.649,62.599    -87.649,62.247 -87.322,61.895 -86.997,61.543 -86.997,61.194 -86.672,60.489 -86.345,60.489 -86.02,60.489 -85.693,60.839    -85.367,60.839 -85.042,60.839 -84.717,60.839 -84.391,60.839 -84.391,60.489 -84.391,60.138 -84.391,59.784 -83.738,59.434    -83.738,59.081 -83.086,59.081   " id="upazila_363" area="upazlia" name="shibganj" bengali="শিবগঞ্জ" parent="chapainawabganj"></polygon><polygon points="-68.094,79.826 -68.094,80.884 -68.094,81.232 -67.441,81.232 -67.115,81.232 -66.79,81.583    -66.465,81.938 -66.136,82.64 -65.811,82.64 -65.484,82.989 -65.159,83.344 -64.508,83.694 -64.18,83.694 -63.53,83.694    -63.205,84.045 -62.552,84.398 -62.226,84.398 -61.573,85.101 -61.248,85.451 -60.923,85.451 -60.596,85.806 -59.944,85.806    -59.944,86.156 -59.944,86.507 -59.944,86.858 -59.618,87.21 -59.293,87.561 -58.968,88.268 -58.968,88.616 -58.968,88.968    -59.618,89.318 -59.944,89.318 -59.944,90.025 -59.618,90.373 -58.968,90.373 -58.642,90.728 -57.989,90.728 -57.664,90.728    -57.339,90.728 -57.01,90.728 -57.01,91.078 -56.685,91.078 -56.685,90.728 -56.36,90.728 -56.033,90.728 -55.382,90.728    -55.056,91.078 -54.729,91.43 -54.404,91.43 -54.404,91.078 -54.404,90.728 -54.729,90.025 -54.079,90.025 -53.751,90.373    -53.426,90.025 -53.1,90.373 -52.774,91.078 -52.447,91.078 -52.122,91.078 -51.797,91.078 -51.47,91.078 -51.145,91.43    -50.492,91.43 -50.492,91.781 -49.842,91.781 -49.513,92.134 -49.188,92.485 -49.513,92.835 -49.842,93.189 -49.513,93.538    -49.513,94.24 -49.188,94.594 -49.188,94.946 -49.513,94.946 -49.842,95.296 -50.167,95.296 -50.492,95.649 -51.145,96    -52.774,97.055 -53.751,97.406 -54.079,97.406 -54.729,97.055 -55.708,97.055 -56.033,97.055 -56.685,97.406 -57.339,97.406    -57.664,97.406 -58.314,97.406 -58.642,97.759 -58.968,98.46 -59.618,99.164 -59.944,99.516 -60.596,99.164 -61.573,99.164    -61.9,99.516 -61.9,99.867 -61.573,100.22 -61.9,100.573 -62.226,100.921 -62.877,101.625 -63.855,101.978 -64.508,101.978    -64.834,101.978 -65.159,102.329 -65.484,102.682 -65.484,103.383 -65.484,103.738 -65.159,104.439 -65.159,105.142    -64.834,106.199 -64.834,106.901 -64.508,107.25 -64.508,108.307 -64.18,109.362 -64.508,110.417 -64.508,111.117    -64.834,111.823 -65.159,112.878 -65.159,113.229 -65.159,113.932 -64.834,114.635 -64.508,115.337 -64.508,116.044    -63.855,116.746 -63.205,117.799 -62.877,118.504 -62.226,118.853 -61.9,119.559 -61.573,119.909 -60.923,120.261    -60.596,120.965 -60.271,121.314 -60.271,122.019 -59.944,122.371 -59.618,122.371 -58.968,123.427 -58.314,124.128    -57.989,124.479 -57.664,124.832 -57.01,125.535 -56.685,125.889 -56.36,126.237 -55.708,126.589 -55.382,126.589    -55.056,126.939 -54.404,127.292 -53.751,127.646 -53.426,127.646 -53.1,127.994 -52.774,127.994 -52.447,128.349    -52.122,128.349 -51.47,128.699 -50.818,128.699 -49.842,129.756 -50.492,130.106 -50.818,130.106 -51.145,130.106    -51.797,130.458 -52.447,130.458 -52.774,130.81 -53.426,130.81 -53.751,130.458 -54.404,130.458 -54.729,130.458    -55.382,130.458 -56.033,130.458 -56.685,130.458 -57.664,130.458 -58.642,130.458 -59.293,130.106 -59.944,129.756    -60.596,129.401 -61.248,129.051 -62.226,128.699 -62.877,127.994 -63.53,126.939 -64.18,126.237 -65.484,125.535    -66.136,124.832 -66.465,124.479 -67.115,123.777 -67.768,123.072 -68.094,122.371 -68.419,122.019 -68.745,121.314    -69.397,120.965 -69.723,120.614 -70.374,120.261 -70.699,119.909 -71.352,119.909 -72.005,119.559 -72.656,119.559    -73.308,119.205 -74.612,118.853 -75.262,118.853 -75.916,118.853 -76.566,118.853 -77.219,118.853 -77.871,118.504    -78.848,118.151 -79.5,117.799 -79.827,117.447 -80.478,116.746 -80.478,116.393 -80.478,116.044 -80.805,115.337    -81.131,114.986 -81.782,114.635 -82.109,114.284 -82.76,113.229 -83.086,113.229 -83.413,112.878 -83.738,112.526    -84.391,112.174 -85.042,111.823 -85.693,111.823 -86.02,111.47 -86.672,111.117 -86.997,110.769 -86.997,110.417    -87.322,110.064 -87.975,109.712 -88.301,109.011 -88.951,108.658 -89.279,108.307 -89.604,107.603 -89.929,107.25    -90.583,106.548 -91.56,105.845 -91.885,104.087 -91.56,102.682 -91.56,102.329 -91.56,101.625 -91.233,101.625 -90.908,101.625    -90.257,101.625 -89.929,101.275 -90.257,100.921 -89.929,100.573 -89.929,100.22 -89.929,99.867 -89.604,99.867 -89.279,99.867    -88.626,100.22 -87.975,99.867 -87.322,99.867 -86.672,99.867 -86.345,99.516 -86.02,99.516 -85.693,99.867 -85.042,99.867    -84.717,99.867 -84.391,99.516 -84.063,99.516 -83.738,99.516 -83.413,99.164 -83.086,99.164 -82.76,99.516 -82.109,99.516    -81.782,99.516 -81.457,99.516 -80.805,99.516 -80.478,99.516 -80.478,99.867 -80.153,100.22 -79.827,100.22 -79.175,100.573    -78.848,100.921 -78.196,101.275 -77.871,100.921 -77.545,100.921 -76.894,100.921 -76.566,100.921 -76.566,100.573    -76.894,100.573 -77.219,100.22 -77.545,100.22 -77.545,99.867 -77.545,99.516 -77.219,99.867 -76.894,99.867 -76.566,99.867    -76.241,100.573 -75.916,100.573 -75.591,100.22 -75.591,99.867 -75.262,99.867 -74.937,99.516 -75.262,99.164 -75.591,98.815    -75.916,98.815 -76.566,98.112 -77.219,98.112 -77.871,98.46 -78.196,98.815 -78.523,98.815 -78.848,98.46 -78.848,98.112    -78.848,97.406 -79.175,97.406 -79.827,97.055 -79.827,96.703 -79.5,96.353 -79.827,96 -79.827,95.649 -80.153,95.296    -80.153,94.946 -80.805,94.594 -80.805,94.24 -80.478,93.893 -80.153,93.893 -79.827,94.24 -79.5,94.594 -79.175,94.946    -79.175,95.296 -78.848,95.649 -78.196,95.649 -77.871,95.649 -77.545,95.296 -77.219,94.594 -77.219,94.24 -76.894,94.24    -76.241,94.594 -75.916,94.24 -75.916,93.893 -76.241,93.538 -76.241,93.189 -75.916,92.835 -75.591,92.835 -75.262,92.835    -74.937,92.835 -74.285,93.189 -73.634,93.538 -73.634,93.189 -73.96,92.835 -74.285,92.485 -74.285,92.134 -73.96,91.781    -73.634,91.43 -73.634,91.078 -73.634,90.373 -73.96,90.025 -73.96,89.671 -73.96,89.318 -73.634,89.318 -73.308,89.671    -72.981,89.671 -72.656,89.318 -72.331,88.968 -72.005,88.616 -71.677,88.268 -71.352,88.268 -71.027,88.268 -70.699,87.914    -70.374,87.914 -70.049,87.914 -69.723,88.268 -69.07,88.268 -68.419,87.914 -67.768,87.561 -67.115,87.561 -66.465,87.21    -66.136,87.21 -66.136,86.507 -66.136,86.156 -65.811,85.806 -66.136,85.451 -66.136,85.101 -66.465,84.75 -66.79,84.75    -67.115,84.75 -67.768,85.101 -68.094,85.101 -68.745,85.451 -69.397,85.806 -69.723,86.156 -70.374,86.156 -70.699,86.156    -71.352,86.156 -71.677,85.806 -72.005,85.451 -72.331,85.101 -72.656,84.75 -72.331,84.045 -72.005,83.344 -71.677,82.989    -71.352,82.64 -71.027,82.64 -70.699,82.288 -70.374,82.288 -70.049,81.938 -69.723,81.583 -69.397,81.232 -69.07,80.531   " id="upazila_362" area="upazlia" name="chapainawabganjsadar" bengali="চাঁপাইনবাবগঞ্জ-সদর" parent="chapainawabganj"></polygon><polygon points="-69.723,75.607 -68.745,75.257 -68.42,74.905 -67.768,74.905 -67.441,74.553 -66.79,74.203    -66.465,74.203 -66.137,74.905 -66.137,75.257 -65.811,75.257 -64.508,75.257 -63.857,75.607 -63.205,75.959 -62.552,76.313    -61.575,76.662 -61.248,76.313 -60.923,75.257 -61.248,74.203 -61.901,73.85 -61.901,73.148 -61.575,72.794 -61.901,72.091    -62.226,71.741 -62.552,71.037 -62.552,70.334 -62.552,69.279 -61.901,68.927 -61.575,68.576 -60.923,68.576 -60.272,67.872    -59.944,67.872 -59.294,67.521 -58.642,67.17 -58.315,67.17 -57.664,67.521 -57.339,67.872 -57.011,67.521 -56.36,67.521    -55.71,67.521 -55.382,66.818 -54.729,66.818 -54.079,66.466 -54.406,66.116 -54.406,65.061 -53.753,65.412 -53.426,65.061    -52.775,64.709 -52.447,64.709 -51.797,64.356 -51.797,64.004 -52.122,63.654 -51.797,63.302 -51.797,63.654 -51.145,63.302    -50.818,63.302 -50.167,62.951 -50.167,62.599 -50.167,62.249 -49.842,62.599 -49.842,63.302 -50.167,63.302 -50.493,64.004    -50.493,64.709 -50.493,65.061 -50.167,65.061 -49.516,65.061 -49.189,65.061 -48.863,64.709 -48.538,65.061 -48.538,65.412    -48.213,65.762 -47.559,65.762 -47.559,65.412 -47.234,65.061 -46.582,65.061 -46.256,65.061 -45.93,65.061 -46.256,65.412    -46.582,65.762 -46.582,66.466 -46.582,67.17 -46.909,67.17 -47.234,67.17 -47.559,67.521 -47.559,68.224 -47.885,68.576    -47.885,69.279 -47.559,69.982 -47.885,69.982 -48.213,69.629 -48.538,69.629 -48.863,69.982 -49.189,70.334 -49.516,70.684    -49.842,71.389 -50.167,71.741 -50.167,72.091 -50.167,72.446 -49.516,72.446 -48.863,72.091 -48.213,72.091 -47.885,71.741    -47.559,71.389 -47.234,71.037 -46.909,71.037 -46.256,71.037 -45.605,71.037 -45.278,71.037 -44.627,71.037 -44.3,71.389    -44.3,71.741 -43.974,72.091 -43.649,72.446 -42.996,72.446 -42.671,72.794 -42.345,73.148 -42.019,73.148 -41.692,73.148    -41.692,72.446 -41.692,72.091 -41.367,71.741 -41.042,71.741 -40.716,72.091 -40.388,72.446 -40.062,72.446 -39.412,72.091    -39.412,72.446 -39.412,73.148 -39.737,73.496 -39.737,73.85 -40.062,74.553 -39.737,74.905 -39.737,75.257 -40.062,75.607    -40.388,75.607 -40.388,75.959 -41.042,75.959 -41.692,75.607 -42.019,75.607 -42.019,74.905 -42.019,74.553 -42.019,74.203    -42.019,73.85 -42.345,73.85 -42.996,73.496 -43.323,73.85 -43.649,73.85 -44.3,74.203 -44.627,74.553 -44.3,74.905    -43.974,75.257 -43.649,75.257 -43.323,75.607 -43.323,76.313 -43.649,76.662 -43.974,77.014 -43.649,77.717 -43.323,78.07    -42.996,78.07 -42.671,77.717 -42.019,77.365 -41.367,77.365 -41.042,77.717 -40.716,77.717 -40.062,77.717 -40.062,77.365    -39.737,77.014 -39.412,77.014 -38.759,77.365 -37.781,77.717 -37.456,77.717 -37.456,78.07 -37.781,78.42 -37.781,78.771    -37.781,79.125 -37.456,80.18 -38.433,80.18 -38.759,80.18 -38.759,80.531 -39.085,81.232 -39.412,81.586 -39.737,81.586    -40.062,81.938 -39.737,82.288 -39.737,82.993 -39.737,83.343 -40.062,84.048 -40.716,84.75 -41.367,85.101 -42.019,85.101    -42.671,84.75 -43.649,84.75 -44.3,85.101 -44.3,85.804 -43.974,86.156 -43.649,86.508 -42.996,86.859 -42.671,86.859    -42.019,86.859 -41.692,86.508 -41.692,86.156 -41.367,85.804 -41.042,85.804 -40.716,86.156 -40.062,86.156 -39.412,85.804    -39.085,85.804 -38.759,85.804 -38.433,85.452 -37.781,85.101 -37.13,85.452 -37.13,85.804 -37.13,86.156 -37.781,86.508    -38.108,86.508 -38.433,86.508 -38.759,87.21 -38.433,87.21 -39.085,87.21 -39.412,87.21 -39.737,87.561 -40.062,87.915    -39.737,88.265 -39.737,88.616 -40.062,88.968 -40.716,88.968 -41.042,88.968 -41.367,89.321 -42.019,88.968 -42.671,88.968    -42.671,88.616 -42.671,88.265 -42.996,88.265 -43.649,88.265 -43.974,88.616 -44.627,88.616 -45.278,88.265 -45.93,87.915    -46.582,87.561 -46.909,87.561 -47.234,87.915 -47.234,88.616 -47.559,89.321 -47.885,89.671 -48.213,90.025 -48.538,90.025    -48.863,90.025 -49.189,90.373 -48.863,90.728 -48.538,91.078 -48.213,91.078 -48.538,91.43 -48.213,91.781 -48.538,92.135    -49.189,92.485 -49.516,92.135 -49.842,91.781 -50.493,91.781 -50.493,91.43 -51.145,91.43 -51.471,91.078 -51.797,91.078    -52.122,91.078 -52.447,91.078 -52.775,91.078 -53.1,90.373 -53.426,90.025 -53.753,90.373 -54.079,90.025 -54.729,90.025    -54.406,90.728 -54.406,91.078 -54.406,91.43 -54.729,91.43 -55.056,91.078 -55.382,90.728 -56.035,90.728 -56.36,90.728    -56.685,90.728 -56.685,91.078 -57.011,91.078 -57.011,90.728 -57.339,90.728 -57.664,90.728 -57.99,90.728 -58.642,90.728    -58.968,90.373 -59.619,90.373 -59.944,90.025 -59.944,89.321 -59.619,89.321 -58.968,88.968 -58.968,88.616 -58.968,88.265    -59.294,87.561 -59.619,87.21 -59.944,86.859 -59.944,86.508 -59.944,86.156 -59.944,85.804 -60.597,85.804 -60.923,85.452    -61.248,85.452 -61.575,85.101 -62.226,84.398 -62.552,84.398 -63.205,84.048 -63.53,83.694 -64.182,83.694 -64.508,83.694    -65.161,83.343 -65.486,82.993 -65.811,82.64 -66.137,82.64 -66.465,81.938 -66.79,81.586 -67.115,81.232 -67.441,81.232    -68.094,81.232 -68.094,80.882 -68.094,79.826 -67.768,79.475 -67.768,79.125 -67.768,78.771 -67.768,78.42 -68.42,77.717    -68.745,77.365 -69.072,76.662 -69.398,76.313 -69.723,75.959   " id="upazila_361" area="upazlia" name="nachol" bengali="নাচোল" parent="chapainawabganj"></polygon></svg>