<svg enable-background="new -106.403 -201.859 629.266 880.536" height="880.536px" id="district_41" viewBox="-106.403 -201.859 629.266 880.536" width="629.266px" x="0px" xml:space="preserve" xmlns="http://www.w3.org/2000/svg" y="0px"><polygon points="198.195,217.303 198.847,218.006 199.172,218.709 199.498,219.06 199.823,219.414    200.151,220.115 200.151,220.466 199.823,220.821 200.151,221.523 200.151,221.873 200.476,222.226 200.802,222.578    201.127,222.578 201.78,222.578 202.105,222.578 202.433,222.578 203.083,222.226 203.408,222.226 203.737,221.873    204.062,221.873 204.387,222.226 204.387,221.873 204.712,221.171 204.387,220.466 204.712,219.764 204.712,219.414    205.038,219.06 205.366,218.709 206.017,218.709 206.342,218.709 206.994,218.709 207.323,218.358 207.971,218.358    207.971,218.709 208.299,219.06 208.299,219.414 208.299,220.115 208.299,220.821 208.299,221.171 208.624,221.873    208.951,222.226 209.602,222.578 209.928,222.928 210.578,223.28 211.233,223.28 211.558,222.928 212.536,222.578 213.19,223.28    213.512,223.632 213.837,224.334 213.837,224.688 214.165,225.39 214.165,226.094 214.165,226.795 214.493,227.149 214.819,227.5    215.144,227.5 215.794,227.852 216.122,227.852 216.773,227.852 217.098,227.852 217.751,227.852 218.405,227.852 218.73,227.5    219.055,227.5 219.38,227.5 219.705,227.5 220.031,227.852 220.684,227.852 221.012,228.2 221.337,228.554 221.662,228.554    221.988,228.907 222.313,229.257 222.638,229.609 222.966,230.312 223.291,230.664 223.945,231.368 224.27,231.716    224.595,232.069 225.248,232.422 225.573,232.774 225.899,233.125 226.224,233.475 226.552,233.831 226.877,234.179    227.202,234.882 227.531,235.587 227.853,235.587 227.853,235.936 228.506,236.64 228.831,236.64 229.159,237.343    229.485,237.698 229.485,238.045 229.485,238.4 228.831,238.751 227.853,239.103 227.202,239.454 226.552,239.454    225.899,239.805 225.573,239.805 224.917,240.859 224.595,241.211 223.945,241.917 223.616,241.563 223.291,241.211    222.966,240.512 222.638,240.158 222.313,239.454 221.662,238.751 221.012,238.4 220.684,237.698 220.031,237.698 219.38,236.994    219.055,236.291 218.405,235.936 217.098,235.936 216.445,235.936 215.794,235.936 215.144,236.291 215.144,236.64    214.493,236.994 214.165,237.698 213.512,237.698 212.536,237.698 212.211,237.698 211.558,237.698 210.255,236.994    209.928,236.64 209.275,235.936 208.299,235.235 207.646,234.882 206.669,234.179 205.691,233.475 204.712,233.125    204.062,232.774 203.408,232.422 203.408,232.069 203.083,231.016 202.758,230.312 202.433,229.958 202.105,229.609    202.105,229.257 201.78,228.554 201.454,228.2 200.802,227.852 200.476,227.149 199.823,226.444 200.151,226.094 200.151,225.741    200.151,225.39 199.823,225.037 199.498,225.037 199.172,224.688 198.847,224.334 198.195,223.984 197.869,223.984    197.216,223.632 196.566,223.632 196.24,223.28 195.912,222.928 195.587,222.578 195.587,221.873 195.912,221.171    196.566,220.821 196.566,220.466 196.566,220.115 196.566,219.764 196.891,219.414 197.216,218.709 197.541,218.006   " id="upazila_122" area="upazlia" name="keraniganj" bengali="কেরাণীগঞ্জ" parent="dhaka"></polygon><polygon points="167.231,182.847 167.884,182.847 168.208,182.496 168.208,182.143 168.208,181.792    168.208,181.091 167.884,180.735 167.556,180.386 167.231,180.033 167.556,179.682 167.884,179.329 167.884,178.979    168.208,178.979 168.533,179.329 168.533,179.682 168.533,180.033 168.862,180.033 169.513,180.386 169.513,180.735    169.187,181.091 168.862,181.439 168.862,181.792 169.187,181.792 169.513,182.143 169.837,182.143 170.163,182.143    170.49,181.792 171.141,181.439 171.469,181.439 172.12,181.091 172.446,181.091 173.424,181.091 174.076,181.091    174.727,180.735 174.727,180.386 174.727,180.033 174.727,179.682 175.055,180.033 175.055,180.386 175.38,180.386    175.705,180.386 176.031,180.386 176.031,180.033 176.031,179.682 176.357,179.329 176.684,179.329 177.009,179.329    177.334,179.682 177.009,180.033 177.334,180.033 177.66,180.033 178.313,180.033 178.639,180.386 178.639,180.735    178.639,181.091 178.639,181.439 179.289,181.439 179.616,181.792 180.268,182.847 180.593,182.847 180.92,182.496    181.246,182.143 180.92,181.792 180.92,181.439 181.572,181.439 182.224,181.439 182.55,181.439 182.875,180.735 183.2,180.386    183.528,180.386 183.853,180.386 184.179,180.386 185.81,180.033 185.81,181.091 186.135,181.439 186.46,181.439 186.785,181.792    187.439,181.792 187.439,182.496 187.439,182.847 187.765,182.847 188.417,183.199 188.417,183.55 188.742,183.902    188.742,184.253 188.742,184.604 189.394,184.604 190.046,184.604 190.699,184.604 191.025,184.957 191.025,185.659    191.025,186.363 191.025,186.713 191.025,187.066 191.35,187.066 191.676,187.066 191.676,187.418 191.676,187.769    191.35,187.769 191.676,188.12 192.003,188.12 192.326,188.12 192.654,188.47 192.654,188.823 192.98,189.526 192.98,189.877    193.307,189.877 193.307,190.231 193.632,190.58 193.632,190.933 193.957,190.933 194.283,190.933 194.609,191.286    194.609,191.636 194.936,191.636 195.261,191.988 195.912,191.988 196.24,192.337 196.566,192.691 196.891,193.394    196.891,193.746 196.891,194.097 196.566,194.449 196.566,194.8 196.566,195.503 196.24,195.855 196.24,196.206 196.566,196.206    196.891,196.911 196.891,197.262 196.891,197.967 196.891,198.315 196.891,198.669 196.891,199.02 196.891,199.373    196.891,199.722 196.891,200.075 197.216,200.075 197.541,200.427 197.541,200.779 197.541,201.481 197.216,201.481    197.216,201.834 197.216,202.184 197.216,202.888 197.216,203.239 197.541,203.591 197.541,203.942 198.195,204.645    198.195,204.998 198.195,205.701 198.195,206.402 198.52,207.108 198.52,207.809 198.845,208.162 198.52,208.512 198.845,208.865    198.195,209.215 197.216,209.215 196.891,208.865 196.24,208.865 195.587,208.512 195.261,208.512 194.609,208.512    194.283,208.865 193.957,209.215 193.632,208.512 193.307,209.568 192.98,209.568 192.654,209.568 192.654,210.27    192.326,210.975 192.003,210.975 191.676,210.975 191.35,210.975 191.025,211.326 190.699,211.677 190.372,211.326    190.046,211.326 189.721,211.326 189.394,211.326 189.069,211.326 188.742,211.326 188.742,210.624 188.742,210.27    188.742,209.92 188.417,209.92 188.09,209.568 187.439,209.568 187.114,209.568 186.785,209.568 186.46,209.92 186.46,210.27    186.135,209.92 186.135,209.568 186.135,208.865 186.135,208.162 185.81,207.809 185.482,207.108 185.156,206.756    184.831,206.052 184.179,205.701 183.528,204.998 183.2,204.295 182.875,204.295 182.55,203.942 182.224,203.591 181.897,203.239    181.897,202.888 181.572,202.536 181.572,202.184 180.92,202.184 181.246,201.834 181.246,201.481 180.593,201.131    180.92,200.779 180.92,200.427 180.593,200.427 179.943,200.075 179.616,199.722 179.289,199.373 178.964,199.373 178.639,199.02    178.313,198.669 177.66,198.315 177.334,197.967 177.009,197.613 176.684,197.967 176.357,197.967 176.031,198.315    175.705,198.669 175.38,198.669 175.38,198.315 175.055,198.315 175.055,197.613 174.727,197.262 174.402,196.911    174.727,196.558 175.055,196.558 175.705,195.855 176.031,195.503 174.727,195.503 174.727,195.153 174.402,194.8    174.727,194.097 174.727,193.394 175.055,193.043 174.727,192.337 175.38,191.988 175.38,191.286 175.38,190.933 175.055,190.933    174.402,191.286 174.076,190.933 173.424,190.933 173.098,190.933 172.446,190.58 172.12,191.286 171.792,190.933 171.792,190.58    171.469,190.231 171.141,189.877 171.141,189.526 170.817,189.176 171.141,188.47 171.141,188.12 171.141,187.769    171.469,187.418 171.792,187.066 172.446,186.713 172.773,186.363 172.773,185.659 173.098,185.659 173.424,185.306    173.424,184.957 173.098,184.957 172.773,185.306 172.446,185.306 172.12,185.306 172.12,184.957 171.792,184.957    171.469,184.604 171.469,184.253 170.817,184.253 170.49,184.253 170.163,184.604 169.837,184.604 169.513,184.253    169.187,184.253 169.187,183.55 169.187,183.199 168.862,182.847 168.533,183.199 168.533,183.55 168.208,183.55 167.556,184.253    166.905,183.55 167.231,183.55   " id="upazila_120" area="upazlia" name="dhamrai" bengali="ধামরাই" parent="dhaka"></polygon><polygon points="171.792,227.147 172.773,226.444 172.773,226.094 172.773,225.39 173.098,225.037    173.424,225.037 173.751,225.39 174.727,225.39 175.055,225.39 175.38,225.39 176.031,225.741 177.009,225.741 176.684,225.39    177.009,225.39 177.66,225.037 178.639,225.037 179.616,224.688 180.593,225.037 180.593,225.39 179.943,225.741 179.943,226.094    180.268,226.444 180.593,226.444 181.246,226.444 181.572,226.444 181.572,226.094 181.897,225.741 181.897,225.39    182.224,224.688 182.55,224.336 182.875,223.984 183.2,223.984 183.528,223.632 183.853,223.632 183.853,223.28 184.179,222.577    184.179,222.225 184.506,222.225 184.831,222.225 185.156,222.225 186.46,221.874 186.785,221.874 187.114,222.225    187.114,222.577 187.439,222.931 187.114,223.632 187.114,223.984 187.114,224.336 187.765,224.688 188.09,225.037    188.742,225.037 189.069,225.037 189.721,225.037 190.046,225.39 190.372,225.741 191.025,225.741 191.35,225.741    192.003,225.741 192.326,225.39 192.654,225.741 192.98,225.741 193.307,225.741 193.632,225.741 193.957,225.39 194.609,225.741    194.936,226.444 195.262,226.797 195.587,227.147 195.912,227.498 196.24,227.498 196.566,227.498 196.891,227.498    197.541,227.853 197.869,227.498 198.195,226.797 198.52,226.797 199.172,226.444 199.823,226.444 200.476,227.147    200.802,227.853 201.454,228.201 201.78,228.554 202.105,229.258 202.105,229.61 202.433,229.958 202.758,230.311    203.083,231.016 203.408,232.069 203.408,232.421 204.062,232.774 204.712,233.125 204.062,233.828 203.408,234.178    202.758,234.178 202.758,235.233 202.433,235.585 202.105,235.938 201.127,235.585 200.476,235.585 200.151,235.585    199.823,235.585 199.498,235.938 199.498,236.64 199.498,237.343 199.498,238.045 199.498,238.751 198.847,239.103    198.52,238.751 198.195,239.805 197.869,240.51 196.891,241.563 196.891,241.913 196.891,242.267 196.566,243.32 196.24,243.674    195.912,244.028 194.936,244.727 194.609,245.08 193.957,245.782 194.283,246.135 193.957,246.837 193.957,247.542    193.957,247.893 193.632,248.243 193.307,248.243 192.98,247.893 192.654,247.542 192.654,246.837 192.003,246.837    191.676,246.487 191.676,246.135 191.025,246.487 190.372,246.135 190.699,245.782 190.699,245.08 190.372,244.727    190.046,244.376 190.046,244.028 190.372,243.674 190.372,242.969 190.046,242.622 189.394,242.622 188.742,242.267    189.069,240.86 188.742,240.86 188.417,240.86 187.765,240.51 188.09,240.157 188.09,239.805 187.765,239.454 187.114,239.454    186.785,239.454 186.46,239.454 186.135,239.454 186.135,239.103 185.81,239.103 185.81,238.751 185.81,238.4 185.81,238.045    185.482,238.045 184.831,238.045 184.179,238.045 183.853,237.698 183.528,237.698 183.2,238.045 183.2,238.4 182.875,238.751    182.55,239.454 182.224,239.454 181.897,239.454 181.572,239.454 181.246,239.454 180.92,239.454 180.268,239.454    179.943,239.805 179.289,239.805 179.289,240.157 179.289,240.51 178.964,240.86 178.639,241.211 177.988,241.563 177.66,241.913    177.009,242.267 176.684,242.267 176.357,241.913 176.031,241.913 175.705,241.211 175.055,240.51 174.402,240.157    173.751,240.157 172.446,239.805 171.792,239.454 170.817,239.454 166.905,239.454 166.905,237.698 166.905,236.994    167.231,236.64 167.556,236.64 167.884,236.64 168.208,236.291 168.533,235.938 168.862,235.585 168.862,235.233 168.862,234.882    168.533,234.535 168.208,233.828 168.208,233.477 168.208,233.125 168.533,233.125 169.187,232.774 169.513,232.774    169.837,232.421 170.165,232.069 170.165,231.718 170.49,231.368 170.817,231.016 170.817,230.664 171.141,229.958    171.469,229.258 171.141,229.258 170.817,228.904 171.141,228.554 171.469,228.201 171.792,227.498   " id="upazila_123" area="upazlia" name="nawabganj" bengali="নবাবগঞ্জ" parent="dhaka"></polygon><polygon points="172.446,239.805 173.751,240.157 174.403,240.157 175.055,240.51 175.706,241.211    176.031,241.917 176.357,241.917 176.685,242.267 177.009,242.267 177.659,241.917 177.989,241.563 178.639,241.211    178.966,240.859 179.289,240.51 179.289,240.157 179.289,239.805 179.942,239.805 180.27,239.454 180.92,239.454 181.246,239.454    181.572,239.454 181.899,239.454 182.222,239.454 182.552,239.454 182.875,238.751 183.202,238.4 183.202,238.047    183.528,237.695 183.853,237.695 184.181,238.047 184.831,238.047 185.483,238.047 185.81,238.047 185.81,238.4 185.81,238.751    185.81,239.102 186.135,239.102 186.135,239.454 186.461,239.454 186.785,239.454 187.114,239.454 187.767,239.454    188.09,239.805 188.09,240.157 187.767,240.51 188.415,240.859 188.743,240.859 189.069,240.859 188.743,242.267 189.394,242.619    190.049,242.619 190.374,242.969 190.374,243.674 190.049,244.024 190.049,244.376 190.374,244.727 190.699,245.08    190.699,245.782 190.374,246.135 191.026,246.487 191.678,246.135 191.678,246.487 192.001,246.837 192.655,246.837    192.655,247.539 192.979,247.893 193.307,248.243 193.632,248.243 192.979,248.945 192.655,249.299 192.001,249.299    191.678,249.299 191.35,249.299 191.026,249.299 190.699,249.653 190.374,250.355 190.374,250.703 190.699,251.407    190.699,252.111 190.374,252.817 190.049,253.519 190.049,253.869 189.719,254.221 189.394,254.221 188.743,254.221    188.415,254.575 188.09,254.925 187.114,254.221 185.81,253.519 185.156,253.167 184.831,252.467 184.504,251.758    184.181,252.111 183.528,252.111 183.202,252.111 182.552,251.06 181.899,250.355 181.246,249.653 180.92,248.945 180.92,248.243    180.593,247.893 180.27,247.191 179.289,246.135 178.966,246.487 178.966,246.837 178.966,247.191 178.966,247.893    178.314,248.243 177.989,248.595 177.659,248.243 177.335,248.945 177.009,248.945 176.357,248.243 175.706,248.243    175.055,247.893 174.076,247.539 173.426,247.539 173.426,247.191 173.426,246.837 173.751,246.487 173.751,246.135    173.426,245.431 172.773,245.08 172.122,244.376 171.469,243.674 171.792,243.323 171.792,242.969 172.773,242.267    172.773,241.917 172.773,241.563 172.773,240.859   " id="upazila_121" area="upazlia" name="dohar" bengali="দোহার" parent="dhaka"></polygon><polygon points="190.699,184.604 191.025,183.902 191.025,183.549 191.351,183.199 191.678,182.847    192.003,183.199 192.003,183.549 192.326,183.902 192.98,183.902 193.307,183.549 193.632,184.253 193.958,184.253    193.958,183.902 194.937,183.549 194.937,183.902 194.937,184.253 195.262,184.253 195.587,183.902 195.587,183.549    196.24,183.549 196.566,183.549 196.891,183.549 197.543,183.549 197.869,183.902 198.195,183.549 198.522,183.199    198.522,182.847 198.195,182.142 198.195,181.439 198.195,181.088 198.522,180.386 198.847,180.386 199.498,180.737    199.498,181.439 199.825,181.792 199.825,182.142 200.476,182.847 201.129,182.847 201.78,182.847 202.106,182.847    202.758,182.847 203.409,183.199 203.737,183.549 204.062,183.549 204.387,183.549 204.713,183.199 205.038,182.847    205.366,182.494 205.692,182.142 206.019,181.439 206.669,180.737 206.995,180.386 207.646,180.033 208.301,179.681    208.951,179.681 209.277,180.033 209.928,180.386 210.255,180.386 210.58,180.033 210.907,179.681 211.233,179.329    211.558,178.979 212.211,180.033 212.536,180.033 212.536,180.386 212.536,181.088 212.536,181.439 211.886,181.792    212.211,182.494 212.211,182.847 212.211,183.199 212.536,183.549 212.865,184.253 212.865,184.604 213.19,184.956    212.536,185.306 212.211,185.306 211.886,185.306 211.558,185.306 210.907,186.011 210.58,186.363 210.58,186.713 210.58,187.066    210.255,187.768 210.907,188.12 211.558,188.12 211.233,188.47 211.558,188.823 211.558,189.526 211.558,190.228 211.233,190.58    211.558,191.286 211.886,191.636 212.536,191.988 212.865,192.337 213.19,193.394 212.865,193.747 212.536,194.449    212.865,195.151 213.512,195.503 213.512,196.557 212.865,196.911 212.865,197.613 212.865,198.67 212.865,199.019    213.19,199.722 213.19,200.426 213.19,200.779 213.512,201.832 213.512,202.536 213.837,202.886 213.837,203.238 213.837,203.593    213.837,203.942 213.837,204.293 213.837,204.645 213.837,204.998 213.512,205.348 213.512,205.7 213.19,206.054 212.865,206.054    212.536,206.402 212.211,206.402 212.211,207.105 211.886,207.458 212.211,207.809 211.886,208.159 211.886,208.514    211.558,208.865 211.233,209.92 211.886,209.92 212.211,210.27 212.211,210.622 211.886,210.975 211.558,210.975 211.558,211.678    211.558,212.732 211.886,213.083 211.886,213.436 212.211,213.436 212.211,214.488 211.886,214.488 211.558,215.896    211.886,216.249 211.558,216.601 211.558,216.952 211.558,217.656 211.558,218.009 211.886,218.358 211.886,219.06    211.886,219.413 211.886,219.764 211.558,220.466 211.233,221.171 211.233,221.525 211.558,221.525 211.886,221.525    212.211,221.874 212.536,222.577 211.558,222.931 211.233,223.28 210.58,223.28 209.928,222.931 209.603,222.577 208.951,222.225    208.624,221.874 208.301,221.171 208.301,220.82 208.301,220.117 208.301,219.413 208.301,219.06 207.973,218.709    207.973,218.358 207.323,218.358 206.995,218.709 206.342,218.709 206.019,218.709 205.366,218.709 205.038,219.06    204.713,219.413 204.713,219.764 204.387,220.466 204.713,221.171 204.387,221.874 204.387,222.225 204.062,221.874    203.737,221.874 203.409,222.225 203.083,222.225 202.433,222.577 202.106,222.577 201.78,222.577 201.129,222.577    200.802,222.577 200.476,222.225 200.151,221.874 200.151,221.525 199.825,220.82 200.151,220.466 200.151,220.117    199.825,219.413 199.498,219.06 199.172,218.709 198.847,218.009 198.195,217.302 198.195,216.601 198.522,215.896    198.522,215.545 198.522,214.845 198.522,214.138 198.847,213.436 199.172,212.38 199.172,211.678 199.172,210.975    199.498,209.92 198.847,208.865 198.522,208.514 198.847,208.159 198.522,207.809 198.522,207.105 198.195,206.402 198.195,205.7    198.195,204.998 198.195,204.645 197.543,203.942 197.543,203.593 197.216,203.238 197.216,202.886 197.216,202.184    197.216,201.832 197.216,201.481 197.543,201.481 197.543,200.779 197.543,200.426 197.216,200.075 196.891,200.075    196.891,199.722 196.891,199.371 196.891,199.019 196.891,198.67 196.891,198.315 196.891,197.964 196.891,197.262    196.891,196.911 196.566,196.208 196.24,196.208 196.24,195.855 196.566,195.503 196.566,194.8 196.566,194.449 196.891,194.095    196.891,193.747 196.891,193.394 196.566,192.689 196.24,192.337 195.912,191.988 195.262,191.988 194.937,191.636    194.609,191.636 194.609,191.286 194.283,190.933 193.958,190.933 193.632,190.933 193.632,190.58 193.307,190.228    193.307,189.877 192.98,189.877 192.98,189.526 192.655,188.823 192.655,188.47 192.326,188.12 192.003,188.12 191.678,188.12    191.351,187.768 191.678,187.768 191.678,187.416 191.678,187.066 191.351,187.066 191.025,187.066 191.025,186.713    191.025,186.363 191.025,185.659 191.025,184.956   " id="upazila_124" area="upazlia" name="savar" bengali="সাভার" parent="dhaka"></polygon><polygon points="234.371,226.795 234.046,226.795 233.718,226.444 233.399,226.094 233.399,225.037    233.071,224.688 232.745,224.334 232.417,223.984 232.417,223.28 232.417,222.578 232.092,222.226 231.767,222.226    231.439,221.873 231.439,221.171 231.767,220.466 231.439,220.466 231.114,220.115 230.785,219.06 230.785,218.358    230.463,217.656 230.138,217.656 229.81,217.303 229.81,216.952 229.485,216.6 229.159,216.249 229.485,215.896 229.81,215.896    230.463,215.191 230.785,215.191 231.114,214.49 231.439,213.786 230.785,213.436 230.785,212.732 231.114,212.029    231.767,211.678 231.767,211.326 231.767,210.624 231.767,210.27 231.439,210.27 231.114,209.92 231.114,209.568 230.785,209.568    230.138,208.865 230.138,208.512 229.81,208.512 229.81,208.162 229.485,207.811 229.159,207.458 228.831,207.458    228.506,207.108 228.831,206.756 229.159,206.402 229.159,206.052 229.485,205.701 229.81,205.35 229.485,204.645    229.159,204.295 228.831,203.943 228.506,203.591 228.181,203.239 227.853,202.888 227.853,202.184 227.853,201.481    227.853,200.779 227.531,200.075 226.552,200.075 225.245,199.373 224.917,199.373 224.273,200.075 223.945,200.426    223.616,200.779 222.966,201.131 222.638,201.481 222.313,201.834 221.662,202.184 221.337,202.184 220.356,201.834    219.38,202.536 219.052,202.184 219.052,201.834 218.73,201.131 218.405,200.779 218.076,200.075 218.076,199.722    217.751,199.722 217.426,199.722 216.773,200.075 216.445,200.075 215.794,200.426 215.144,200.426 214.49,200.426    214.165,200.779 213.837,201.131 213.512,201.834 213.465,201.681 213.512,201.832 213.512,202.536 213.837,202.886    213.837,203.238 213.837,203.593 213.837,203.942 213.837,204.293 213.837,204.645 213.837,204.998 213.512,205.348    213.512,205.7 213.19,206.054 212.865,206.054 212.536,206.402 212.211,206.402 212.211,207.105 211.886,207.458 212.211,207.809    211.886,208.159 211.886,208.514 211.558,208.865 211.233,209.92 211.886,209.92 212.211,210.27 212.211,210.622 211.886,210.975    211.558,210.975 211.558,211.678 211.558,212.732 211.886,213.083 211.886,213.436 212.211,213.436 212.211,214.488    211.886,214.488 211.558,215.896 211.886,216.249 211.558,216.601 211.558,216.952 211.558,217.656 211.558,218.009    211.886,218.358 211.886,219.06 211.886,219.413 211.886,219.764 211.558,220.466 211.233,221.171 211.233,221.525    211.558,221.525 211.886,221.525 212.211,221.874 212.536,222.577 212.047,222.753 212.536,222.578 213.19,223.28    213.512,223.632 213.837,224.334 213.837,224.688 214.165,225.39 214.165,226.094 214.165,226.795 214.493,227.149 214.819,227.5    215.144,227.5 215.794,227.852 216.122,227.852 216.773,227.852 217.098,227.852 217.751,227.852 218.405,227.852 218.73,227.5    219.055,227.5 219.38,227.5 219.705,227.5 220.031,227.852 220.684,227.852 221.012,228.2 221.337,228.554 221.662,228.554    221.988,228.907 222.313,229.257 222.638,229.609 222.966,230.312 223.291,230.664 223.945,231.368 224.27,231.716    224.595,232.069 225.248,232.422 225.573,232.774 225.899,233.125 226.224,233.475 226.552,233.828 226.877,232.774    227.531,232.422 227.853,232.069 228.181,231.716 228.181,231.016 228.831,231.016 229.156,231.016 229.485,230.664    229.813,230.311 230.785,229.958 231.439,229.61 232.092,229.257 232.417,228.907 232.745,228.554 233.399,228.554    234.046,227.852 234.699,227.5 234.699,227.149   " id="upazila_481" area="upazlia" name="dhaka" bengali="ঢাকা" parent="dhaka"></polygon></svg>