<svg enable-background="new -106.403 -201.859 629.266 880.536" height="880.536px" id="district_41" viewBox="-106.403 -201.859 629.266 880.536" width="629.266px" x="0px" xml:space="preserve" xmlns="http://www.w3.org/2000/svg" y="0px"><polygon points="-21.485,-116.718 -20.833,-116.014 -20.507,-115.311 -20.179,-115.311 -19.854,-114.959    -19.204,-114.609 -18.876,-114.609 -18.551,-113.903 -18.225,-113.554 -17.572,-112.849 -17.247,-112.146 -16.922,-111.796    -16.595,-111.092 -16.27,-110.741 -15.943,-110.39 -15.292,-110.39 -14.641,-110.037 -14.313,-110.037 -13.663,-110.39    -13.338,-110.39 -12.684,-110.39 -12.032,-110.39 -11.381,-110.037 -11.381,-109.686 -11.055,-109.334 -10.728,-108.981    -10.403,-108.981 -10.077,-108.981 -9.425,-109.334 -9.425,-108.279 -9.425,-107.927 -9.752,-107.576 -10.077,-107.576    -10.403,-107.225 -10.728,-107.225 -10.728,-106.874 -10.403,-106.521 -9.752,-106.521 -8.774,-106.874 -8.446,-106.874    -8.446,-106.521 -8.121,-106.169 -8.121,-105.467 -8.121,-105.115 -8.446,-104.764 -8.446,-104.06 -8.446,-103.708    -8.446,-103.357 -8.774,-103.006 -9.099,-103.006 -9.425,-103.006 -9.752,-103.006 -9.752,-102.654 -10.077,-102.654    -9.752,-102.654 -9.425,-102.302 -9.099,-101.95 -8.774,-101.598 -9.099,-100.896 -9.099,-100.546 -9.099,-99.841 -8.774,-99.489    -8.774,-99.137 -8.774,-98.787 -9.099,-98.434 -9.425,-98.434 -9.425,-97.732 -9.425,-97.38 -8.774,-97.027 -8.446,-96.677    -7.796,-96.677 -7.47,-96.325 -7.47,-95.622 -7.47,-94.919 -7.144,-94.214 -7.47,-93.513 -7.47,-92.81 -7.796,-92.458    -7.796,-91.753 -8.121,-91.052 -8.121,-90.347 -8.446,-89.996 -8.121,-89.645 -8.121,-88.942 -7.796,-88.59 -7.796,-88.237    -7.796,-87.887 -7.796,-87.184 -7.796,-86.48 -7.144,-86.127 -6.817,-85.072 -6.817,-84.37 -6.817,-83.666 -7.144,-83.315    -6.817,-82.612 -7.144,-82.612 -7.47,-82.26 -7.47,-81.909 -7.796,-81.909 -8.446,-81.909 -8.446,-82.26 -9.099,-82.612    -9.425,-82.612 -9.752,-82.612 -9.752,-82.26 -10.077,-82.26 -10.077,-81.909 -10.403,-81.909 -11.381,-82.26 -11.381,-82.612    -11.707,-82.965 -11.707,-83.666 -12.032,-83.666 -12.359,-84.019 -12.359,-83.666 -12.359,-83.315 -12.684,-82.965    -13.01,-82.612 -13.01,-82.26 -12.684,-82.26 -12.032,-82.26 -11.707,-81.909 -11.707,-81.558 -12.032,-81.205 -12.359,-80.855    -12.684,-80.502 -12.684,-80.15 -13.01,-80.15 -13.338,-80.502 -13.338,-80.855 -13.663,-80.855 -14.313,-80.855 -14.641,-80.855    -14.641,-81.205 -14.641,-81.558 -14.641,-81.909 -14.641,-82.26 -14.641,-82.612 -14.967,-82.965 -15.292,-83.315    -15.292,-83.666 -15.618,-84.019 -15.943,-84.37 -15.943,-84.722 -16.27,-84.37 -16.595,-84.37 -17.247,-84.019 -17.247,-83.666    -17.899,-83.666 -18.225,-83.666 -18.551,-83.315 -18.876,-82.965 -19.204,-82.965 -19.529,-82.965 -20.179,-83.315    -20.507,-83.315 -21.158,-83.315 -21.485,-83.315 -21.81,-82.965 -22.136,-82.612 -22.464,-82.26 -22.789,-82.26 -23.114,-82.26    -23.44,-82.612 -23.767,-82.612 -24.093,-82.612 -24.419,-82.965 -24.419,-83.315 -24.744,-83.666 -24.744,-84.37    -25.069,-84.722 -25.396,-85.072 -25.396,-85.425 -26.048,-85.425 -26.373,-85.776 -27.026,-86.127 -27.351,-86.48    -27.677,-86.832 -28.33,-86.832 -28.655,-86.832 -28.98,-86.832 -28.98,-87.184 -29.307,-87.184 -29.633,-87.536 -29.633,-87.887    -29.959,-88.59 -29.959,-88.942 -29.959,-89.645 -30.286,-89.996 -30.611,-90.347 -30.936,-90.347 -31.261,-90.347    -31.261,-90.699 -31.59,-91.052 -31.915,-91.052 -31.915,-90.699 -32.24,-90.699 -32.565,-90.699 -32.893,-90.347    -33.219,-89.996 -33.545,-89.996 -34.195,-89.996 -34.848,-90.347 -35.174,-90.347 -35.499,-90.699 -35.826,-90.347    -36.152,-89.996 -36.477,-89.996 -36.804,-89.996 -37.13,-90.347 -37.456,-90.699 -37.781,-90.699 -37.781,-91.052    -38.108,-91.403 -38.108,-91.753 -38.108,-92.105 -38.108,-92.458 -38.108,-92.81 -38.433,-93.16 -38.759,-93.16 -39.085,-93.16    -39.085,-93.513 -39.085,-93.865 -38.433,-93.865 -38.108,-94.214 -38.108,-94.567 -37.456,-94.919 -37.13,-95.622    -37.456,-95.622 -37.781,-95.27 -38.108,-95.622 -38.108,-96.325 -38.108,-96.677 -38.433,-96.677 -38.759,-96.677    -39.085,-97.027 -39.085,-97.38 -38.759,-97.38 -38.108,-97.38 -37.781,-97.38 -37.13,-97.38 -37.13,-97.732 -37.13,-98.082    -37.13,-98.434 -36.804,-98.787 -36.477,-99.137 -36.152,-99.489 -35.826,-99.841 -35.499,-100.192 -35.499,-100.546    -35.174,-100.896 -34.523,-100.896 -34.195,-100.896 -33.87,-100.896 -33.545,-100.896 -33.219,-101.598 -33.219,-101.95    -33.219,-102.654 -33.545,-103.006 -33.545,-103.357 -33.87,-103.708 -34.195,-104.06 -34.195,-104.764 -34.195,-105.467    -34.195,-105.819 -34.195,-106.521 -33.87,-106.874 -33.545,-107.225 -33.219,-107.225 -32.893,-107.225 -32.893,-107.576    -32.893,-107.927 -32.565,-108.279 -32.565,-108.631 -32.565,-108.981 -32.565,-109.334 -32.24,-110.037 -32.24,-110.39    -31.915,-110.741 -31.261,-110.741 -30.936,-110.741 -30.936,-111.092 -30.611,-111.442 -30.936,-111.796 -30.936,-112.146    -30.611,-112.146 -30.286,-112.146 -29.959,-112.146 -29.307,-111.796 -28.98,-111.442 -28.33,-111.092 -28.004,-111.092    -27.351,-111.092 -27.026,-111.092 -26.698,-111.092 -26.048,-111.092 -25.722,-111.442 -25.396,-111.796 -25.069,-112.146    -24.744,-112.499 -24.419,-112.849 -24.093,-112.849 -23.767,-113.202 -23.44,-113.903 -23.44,-114.609 -23.767,-114.959    -23.44,-115.664 -23.44,-116.014 -22.789,-116.366 -22.464,-116.366 -22.136,-116.718 -21.81,-116.718   " id="upazila_304" area="upazlia" name="birganj" bengali="বীরগঞ্জ" parent="dinajpur"></polygon><polygon points="-9.425,-109.334 -8.773,-109.334 -8.446,-109.686 -8.121,-110.037 -7.795,-110.389    -7.469,-110.741 -7.469,-111.094 -6.817,-110.741 -6.491,-110.741 -6.166,-110.741 -6.166,-110.037 -6.491,-109.686    -6.491,-109.334 -6.166,-108.631 -6.166,-108.279 -5.512,-107.577 -5.512,-107.225 -5.187,-106.521 -5.187,-106.169    -5.187,-105.465 -5.187,-104.413 -5.512,-103.708 -5.187,-103.006 -4.862,-102.654 -4.537,-101.95 -4.21,-101.247 -4.21,-100.896    -4.537,-100.192 -4.862,-99.841 -4.862,-99.49 -4.21,-98.787 -3.884,-98.787 -3.558,-99.138 -3.558,-99.49 -3.231,-99.49    -2.906,-99.49 -2.581,-99.138 -1.927,-99.138 -1.277,-99.138 -0.951,-99.138 -0.624,-99.138 0.027,-98.787 0.353,-98.435    1.005,-98.435 1.33,-98.083 1.656,-97.732 1.982,-97.732 2.635,-97.029 2.635,-96.678 2.635,-96.325 2.635,-95.622 2.635,-95.27    2.635,-94.569 2.635,-94.214 2.96,-93.16 3.285,-93.16 3.614,-92.457 3.939,-92.105 3.939,-91.753 4.264,-90.701 4.264,-90.347    4.591,-89.645 4.916,-89.292 4.916,-88.59 4.916,-88.237 4.916,-87.887 5.242,-87.533 5.895,-87.533 6.22,-87.184 6.22,-86.832    6.22,-86.128 5.895,-85.425 5.57,-84.724 5.57,-84.37 5.895,-83.668 5.895,-83.317 5.895,-82.612 5.57,-82.261 5.895,-81.558    6.22,-80.855 6.22,-81.206 6.545,-81.206 7.198,-81.206 7.524,-81.206 8.177,-80.855 8.177,-80.502 8.177,-80.151 8.177,-79.801    7.849,-79.448 7.524,-79.448 7.524,-79.097 7.198,-79.097 6.873,-79.097 6.545,-78.746 6.22,-78.393 5.895,-78.393 5.57,-78.043    5.57,-77.688 5.242,-77.688 4.591,-77.338 4.264,-77.338 3.614,-77.338 3.285,-77.688 2.96,-78.043 2.635,-78.043 2.309,-78.043    1.982,-78.043 1.33,-77.688 1.005,-77.338 0.68,-76.988 0.353,-76.988 -0.299,-76.988 -0.624,-76.988 -0.624,-76.636    -0.624,-76.282 -0.624,-75.933 -0.951,-75.933 -1.277,-75.581 -1.277,-75.933 -1.602,-76.282 -1.927,-76.282 -2.255,-76.282    -2.906,-75.933 -3.231,-75.581 -3.884,-75.581 -4.537,-75.581 -4.862,-75.933 -4.862,-76.282 -4.862,-76.636 -5.187,-76.636    -5.512,-76.282 -6.166,-76.636 -6.491,-76.636 -6.817,-76.636 -7.144,-76.282 -7.795,-76.282 -8.446,-76.282 -8.773,-76.636    -8.773,-76.988 -9.099,-77.338 -9.752,-77.338 -10.077,-77.338 -10.077,-77.688 -9.752,-78.043 -9.752,-78.746 -9.425,-79.097    -9.099,-79.448 -9.099,-79.801 -8.773,-80.151 -8.446,-80.502 -8.446,-81.206 -7.795,-81.909 -7.469,-81.909 -7.469,-82.261    -7.144,-82.612 -6.817,-82.612 -7.144,-83.317 -6.817,-83.668 -6.817,-84.37 -6.817,-85.075 -7.144,-86.128 -7.795,-86.48    -7.795,-87.184 -7.795,-87.887 -7.795,-88.237 -7.795,-88.59 -8.121,-88.942 -8.121,-89.645 -8.446,-89.996 -8.121,-90.347    -8.121,-91.052 -7.795,-91.753 -7.795,-92.457 -7.469,-92.81 -7.469,-93.513 -7.144,-94.214 -7.469,-94.919 -7.469,-95.622    -7.469,-96.325 -7.795,-96.678 -8.446,-96.678 -8.773,-97.029 -9.425,-97.38 -9.425,-97.732 -9.425,-98.435 -9.099,-98.435    -8.773,-98.787 -8.773,-99.138 -8.773,-99.49 -9.099,-99.841 -9.099,-100.544 -9.099,-100.896 -8.773,-101.598 -9.099,-101.95    -9.425,-102.302 -9.752,-102.654 -10.077,-102.654 -9.752,-102.654 -9.752,-103.006 -9.425,-103.006 -9.099,-103.006    -8.773,-103.006 -8.446,-103.357 -8.446,-103.708 -8.446,-104.06 -8.446,-104.764 -8.121,-105.115 -8.121,-105.465    -8.121,-106.169 -8.446,-106.521 -8.446,-106.874 -8.773,-106.874 -9.752,-106.521 -10.403,-106.521 -10.728,-106.874    -10.728,-107.225 -10.403,-107.225 -10.077,-107.577 -9.752,-107.577 -9.425,-107.927 -9.425,-108.279   " id="upazila_312" area="upazlia" name="khansama" bengali="খানসামা" parent="dinajpur"></polygon><polygon points="-36.804,-89.996 -36.477,-89.996 -36.152,-89.996 -35.826,-90.347 -35.499,-90.701    -35.174,-90.347 -34.847,-90.347 -34.194,-89.996 -33.544,-89.996 -33.219,-89.996 -32.893,-90.347 -32.565,-90.701    -32.241,-90.701 -31.913,-90.701 -31.913,-91.052 -31.59,-91.052 -31.262,-90.701 -31.262,-90.347 -30.936,-90.347    -30.611,-90.347 -30.284,-89.996 -29.961,-89.645 -29.961,-88.942 -29.961,-88.59 -29.631,-87.887 -29.631,-87.533    -29.307,-87.184 -28.98,-87.184 -28.98,-86.832 -28.657,-86.832 -28.33,-86.832 -27.678,-86.832 -27.351,-86.48 -27.026,-86.128    -26.375,-85.776 -26.048,-85.425 -25.397,-85.425 -25.397,-85.072 -25.069,-84.724 -24.744,-84.368 -24.744,-83.668    -24.418,-83.317 -24.418,-82.965 -24.094,-82.612 -23.767,-82.612 -23.439,-82.612 -23.115,-82.261 -22.789,-82.261    -22.464,-82.261 -22.135,-82.612 -21.811,-82.965 -21.485,-83.317 -21.158,-83.317 -20.505,-83.317 -20.181,-83.317    -19.531,-82.965 -19.204,-82.965 -18.876,-82.965 -18.552,-83.317 -18.224,-83.668 -17.9,-83.668 -17.247,-83.668    -17.247,-84.019 -16.595,-84.368 -16.271,-84.368 -15.942,-84.724 -15.942,-84.368 -15.618,-84.019 -15.292,-83.668    -15.292,-83.317 -14.967,-82.965 -14.641,-82.612 -14.641,-82.261 -14.641,-81.909 -14.641,-81.558 -14.641,-81.206    -14.641,-80.855 -14.313,-80.855 -13.661,-80.855 -13.338,-80.855 -13.338,-80.502 -13.01,-80.15 -12.685,-80.15 -12.685,-80.502    -12.359,-80.855 -12.032,-81.206 -11.709,-81.558 -11.709,-81.909 -12.032,-82.261 -12.685,-82.261 -13.01,-82.261    -13.01,-82.612 -12.685,-82.965 -12.359,-83.317 -12.359,-83.668 -12.359,-84.019 -12.032,-83.668 -11.709,-83.668    -11.709,-82.965 -11.379,-82.612 -11.379,-82.261 -10.405,-81.909 -10.077,-81.909 -10.077,-82.261 -9.75,-82.261 -9.75,-82.612    -9.427,-82.612 -9.098,-82.612 -8.446,-82.261 -8.446,-81.909 -7.796,-81.909 -8.446,-81.206 -8.446,-80.502 -8.774,-80.15    -9.098,-79.801 -9.098,-79.447 -9.427,-79.097 -9.75,-78.746 -9.75,-78.043 -10.077,-77.69 -10.077,-77.34 -10.077,-76.988    -10.405,-76.636 -10.728,-76.636 -11.055,-76.284 -11.055,-75.934 -11.055,-75.581 -11.055,-75.228 -11.055,-74.877    -11.379,-74.175 -11.379,-73.821 -11.709,-73.12 -12.032,-73.12 -12.359,-72.768 -12.685,-72.768 -13.01,-72.768 -13.338,-72.416    -13.989,-71.713 -14.313,-71.361 -14.313,-71.01 -14.641,-71.01 -14.967,-70.659 -15.292,-70.659 -15.618,-70.659    -16.271,-70.659 -16.922,-70.659 -17.247,-70.659 -17.247,-70.306 -17.572,-69.956 -17.9,-69.602 -18.224,-69.602    -18.552,-69.602 -18.876,-69.602 -19.531,-69.956 -19.854,-69.602 -20.181,-69.602 -20.181,-69.956 -20.505,-69.956    -20.833,-70.306 -21.158,-70.306 -21.485,-70.306 -21.811,-70.306 -22.135,-70.306 -22.464,-69.956 -22.789,-69.956    -23.115,-69.956 -23.439,-69.956 -23.767,-70.306 -24.418,-70.306 -24.744,-70.659 -25.069,-71.01 -25.397,-71.01 -25.721,-71.01    -26.048,-70.659 -26.375,-71.01 -26.698,-71.01 -27.026,-71.01 -27.351,-71.01 -28.002,-71.361 -28.002,-71.713 -28.33,-71.713    -28.657,-71.713 -28.98,-72.064 -29.631,-72.416 -29.961,-72.768 -30.284,-72.768 -30.611,-73.12 -30.936,-73.12 -31.59,-73.471    -31.913,-73.471 -32.241,-73.471 -32.565,-73.471 -32.893,-73.471 -33.219,-73.471 -33.544,-73.471 -33.87,-73.471    -34.194,-73.471 -34.523,-73.471 -34.523,-74.175 -34.523,-74.523 -34.847,-74.523 -35.174,-74.877 -35.499,-74.523    -35.826,-74.523 -36.152,-74.877 -36.477,-75.228 -36.804,-75.228 -37.458,-75.581 -37.458,-75.934 -37.458,-76.284    -37.781,-76.988 -37.781,-77.34 -37.781,-77.69 -37.458,-78.043 -37.128,-78.043 -36.804,-78.043 -37.128,-78.394    -37.458,-78.746 -37.781,-78.746 -37.781,-79.097 -37.458,-79.447 -37.128,-79.447 -36.804,-79.801 -36.804,-80.15    -37.128,-80.502 -37.458,-80.502 -37.458,-80.855 -37.128,-81.206 -36.804,-81.558 -36.477,-81.909 -36.804,-81.909    -37.458,-81.909 -37.458,-81.558 -37.781,-81.558 -37.781,-81.909 -37.781,-82.261 -37.458,-82.612 -37.128,-82.612    -36.804,-82.612 -36.477,-82.612 -36.477,-83.317 -36.477,-83.668 -36.477,-84.019 -36.477,-84.368 -37.128,-84.724    -37.128,-85.072 -37.458,-85.425 -37.458,-86.128 -37.458,-86.48 -37.781,-86.832 -38.108,-87.184 -38.108,-87.887    -37.781,-87.887 -37.781,-88.237 -37.781,-88.59 -37.781,-88.942 -37.781,-89.291 -37.458,-89.645 -37.128,-89.645    -36.804,-89.645   " id="upazila_311" area="upazlia" name="kaharol" bengali="কাহারোল" parent="dinajpur"></polygon><polygon points="8.177,-79.8 7.524,-78.745 7.849,-78.745 7.849,-78.041 8.177,-77.69 8.5,-77.69 8.828,-77.338    9.154,-76.282 9.478,-76.282 9.807,-75.933 9.807,-74.877 9.807,-74.523 9.807,-74.173 9.807,-73.471 10.131,-73.119    10.457,-72.416 10.781,-72.064 11.11,-72.064 11.76,-71.712 12.088,-71.712 12.411,-71.361 12.411,-71.01 12.411,-70.306    12.411,-69.956 12.411,-69.602 12.088,-69.251 11.76,-68.9 11.11,-68.548 10.781,-68.195 10.457,-68.195 9.807,-68.195    9.478,-68.195 9.154,-68.195 8.828,-67.844 8.5,-67.495 8.5,-67.143 8.177,-66.79 7.849,-66.438 7.524,-65.734 7.197,-65.383    7.197,-64.68 7.524,-64.328 7.849,-63.977 7.849,-63.625 8.177,-63.273 7.849,-62.923 7.197,-62.923 6.873,-62.923 6.545,-62.569    6.218,-62.569 6.218,-62.219 6.545,-61.868 6.873,-61.516 6.873,-61.163 6.873,-60.813 6.545,-60.813 6.545,-60.461    6.218,-60.461 6.218,-60.109 6.218,-59.758 5.895,-59.406 5.568,-59.406 5.568,-59.056 5.568,-58.703 5.568,-58.001    5.242,-57.649 4.914,-57.649 4.591,-57.296 4.591,-56.593 4.914,-56.593 4.914,-56.242 4.591,-55.89 4.591,-55.539 4.591,-55.188    4.591,-54.837 4.914,-54.837 5.242,-54.484 5.568,-54.484 5.568,-54.132 5.568,-53.781 5.242,-53.429 4.914,-53.429    4.591,-52.726 4.591,-52.023 4.591,-51.32 4.914,-50.968 5.242,-50.614 5.895,-50.266 5.895,-49.912 5.895,-49.562 6.218,-49.209    5.895,-48.506 5.895,-48.154 5.568,-47.802 5.568,-47.101 5.895,-46.747 5.895,-46.397 6.218,-46.045 6.218,-45.342    6.545,-44.991 6.545,-43.936 6.545,-43.234 6.545,-42.529 6.873,-41.826 7.197,-41.474 7.524,-41.124 7.524,-40.419    7.524,-39.717 7.849,-39.717 8.177,-39.717 8.177,-40.069 8.5,-40.069 8.828,-39.717 8.828,-39.367 8.828,-39.014 8.177,-39.014    7.849,-39.367 7.524,-39.014 7.197,-39.014 7.197,-38.661 6.218,-38.661 5.895,-38.661 5.568,-38.661 5.242,-39.014    5.242,-39.367 4.914,-39.367 4.264,-39.367 3.939,-39.014 3.614,-39.014 2.96,-38.661 2.634,-37.958 2.31,-37.958 1.656,-37.958    1.656,-37.606 1.005,-37.257 0.352,-36.903 0.028,-36.552 -0.299,-36.552 -0.624,-36.552 -0.949,-36.903 -1.277,-36.903    -1.602,-37.257 -1.929,-37.257 -2.253,-37.606 -2.253,-37.958 -2.58,-37.958 -2.906,-37.958 -2.906,-37.606 -3.231,-37.958    -2.906,-38.312 -2.906,-38.661 -2.906,-39.014 -2.906,-39.717 -2.906,-40.419 -3.231,-41.124 -3.558,-41.124 -3.558,-41.474    -3.884,-41.474 -4.212,-41.826 -4.535,-42.529 -4.86,-42.881 -5.512,-43.234 -5.512,-43.584 -5.187,-43.936 -5.512,-44.287    -5.841,-44.287 -6.166,-44.287 -6.166,-44.639 -5.841,-44.991 -5.512,-45.342 -5.187,-45.342 -5.187,-45.693 -5.187,-46.045    -5.512,-46.397 -5.841,-46.397 -6.166,-46.045 -6.492,-46.045 -6.816,-46.045 -7.469,-46.397 -7.469,-46.747 -7.795,-47.101    -7.795,-47.452 -8.123,-47.452 -8.446,-47.802 -9.098,-47.452 -9.75,-47.802 -10.075,-47.802 -10.405,-47.802 -10.405,-48.154    -10.728,-48.506 -10.728,-48.858 -10.728,-49.209 -10.405,-49.562 -10.405,-50.266 -10.728,-50.614 -11.055,-50.968    -11.379,-51.32 -11.379,-51.669 -11.055,-52.023 -10.728,-52.374 -10.728,-52.726 -10.405,-52.726 -10.405,-53.429    -10.405,-53.781 -10.075,-53.781 -9.75,-54.132 -9.75,-54.484 -9.75,-54.837 -9.75,-55.539 -9.75,-55.89 -10.075,-56.593    -10.075,-56.946 -9.75,-57.296 -9.425,-57.296 -9.425,-57.649 -9.425,-58.001 -9.098,-58.35 -9.098,-58.703 -8.774,-58.703    -8.123,-59.406 -7.795,-59.406 -7.469,-59.406 -7.142,-59.758 -7.142,-60.109 -7.142,-60.461 -7.142,-60.813 -7.469,-61.516    -7.469,-61.868 -7.795,-62.569 -7.469,-62.923 -7.469,-63.273 -7.142,-63.273 -7.142,-63.625 -6.816,-63.625 -6.816,-63.977    -6.816,-64.68 -6.816,-65.734 -6.492,-65.734 -6.492,-66.087 -5.841,-66.087 -5.512,-66.087 -5.512,-66.438 -5.512,-66.79    -5.841,-67.143 -5.841,-67.844 -5.841,-68.548 -5.512,-69.251 -5.512,-69.602 -5.841,-69.956 -6.166,-70.306 -6.492,-70.658    -6.816,-70.658 -6.816,-71.361 -6.816,-71.712 -6.492,-72.416 -6.492,-73.119 -6.492,-73.821 -6.166,-74.173 -6.492,-74.877    -6.816,-74.877 -7.142,-75.228 -7.795,-75.579 -8.446,-76.282 -7.795,-76.282 -7.142,-76.282 -6.816,-76.635 -6.492,-76.635    -6.166,-76.635 -5.512,-76.282 -5.187,-76.635 -4.86,-76.635 -4.86,-76.282 -4.86,-75.933 -4.535,-75.579 -3.884,-75.579    -3.231,-75.579 -2.906,-75.933 -2.253,-76.282 -1.929,-76.282 -1.602,-76.282 -1.277,-75.933 -1.277,-75.579 -0.949,-75.933    -0.624,-75.933 -0.624,-76.282 -0.624,-76.635 -0.624,-76.985 -0.299,-76.985 0.352,-76.985 0.68,-76.985 1.005,-77.338    1.331,-77.69 1.982,-78.041 2.31,-78.041 2.634,-78.041 2.96,-78.041 3.285,-77.69 3.614,-77.338 4.264,-77.338 4.591,-77.338    5.242,-77.69 5.568,-77.69 5.568,-78.041 5.895,-78.393 6.218,-78.393 6.545,-78.745 6.873,-79.095 7.197,-79.095 7.524,-79.095    7.524,-79.447 7.849,-79.447   " id="upazila_307" area="upazlia" name="chirirbandar" bengali="চিরিরবন্দর" parent="dinajpur"></polygon><polygon points="58.043,-15.458 58.369,-15.458 58.697,-15.458 59.022,-15.104 59.347,-15.458 59.672,-15.458    60,-15.458 60,-15.808 60.325,-15.458 60.325,-15.104 60.651,-14.75 60.976,-14.75 61.304,-15.104 60.976,-15.458 60.976,-15.808    61.304,-15.808 61.629,-15.458 61.629,-15.104 61.629,-14.75 61.629,-14.402 61.629,-14.048 61.304,-14.048 60.976,-14.048    60.976,-13.699 61.304,-13.345 61.304,-12.994 61.629,-12.994 61.954,-12.994 62.281,-12.994 62.281,-13.345 62.606,-13.345    62.933,-13.699 62.933,-13.345 62.933,-12.994 62.606,-12.643 62.281,-12.643 61.954,-12.292 61.954,-11.939 62.281,-11.939    62.606,-11.588 62.281,-11.237 61.954,-11.237 61.954,-11.588 61.629,-11.588 60.976,-11.588 60.651,-11.588 60.325,-11.237    60,-11.237 59.672,-10.883 59.672,-10.534 59.672,-9.831 59.672,-9.479 60,-9.831 60.325,-9.831 60.325,-10.181 60.651,-10.181    60.651,-10.534 60.651,-10.883 60.976,-11.237 61.304,-11.237 61.629,-11.237 61.629,-10.883 61.954,-10.883 61.954,-10.534    61.954,-10.181 62.281,-10.181 62.281,-10.534 62.606,-10.534 62.933,-10.534 63.258,-10.534 63.258,-10.181 63.258,-9.831    62.933,-9.479 62.606,-9.479 62.281,-9.479 61.954,-9.479 61.629,-9.126 61.629,-8.776 61.954,-8.776 62.281,-8.072    62.606,-8.072 62.933,-7.722 63.258,-7.722 63.584,-7.722 63.909,-7.722 64.237,-7.722 64.562,-7.722 64.562,-8.072    64.888,-8.072 64.888,-8.424 65.213,-8.424 65.866,-8.424 65.538,-8.072 65.213,-7.722 65.213,-7.37 64.888,-7.017 64.888,-6.666    65.213,-6.666 65.866,-7.017 66.192,-7.37 66.192,-7.017 66.517,-7.017 66.842,-6.666 66.842,-6.315 67.495,-6.315 67.821,-6.315    68.146,-5.963 68.146,-5.613 67.495,-5.613 66.842,-5.613 66.517,-5.613 65.866,-5.963 65.866,-5.613 65.866,-5.26 65.866,-4.908    66.517,-4.908 66.517,-4.558 66.192,-4.205 65.213,-4.205 64.888,-4.205 64.562,-3.853 64.237,-3.853 64.237,-3.503    64.562,-3.503 65.213,-3.149 65.538,-3.149 65.538,-2.799 65.213,-2.446 65.538,-2.446 65.866,-2.446 66.192,-2.096    66.192,-1.743 66.517,-1.393 66.842,-1.393 66.842,-0.692 66.842,-0.336 67.169,-0.336 67.495,0.014 67.821,0.364 68.473,0.364    68.799,0.718 68.799,1.069 69.124,1.421 69.124,2.126 69.451,3.179 69.777,3.532 70.102,4.231 70.428,4.584 70.428,4.937    70.756,4.937 69.777,5.289 69.777,5.641 68.799,5.289 68.473,4.937 68.146,4.584 67.821,4.584 67.495,4.231 67.169,4.231    66.842,4.231 66.517,4.231 66.192,4.231 66.192,4.584 66.517,4.937 66.842,5.289 66.517,5.289 65.866,4.937 65.213,4.937    64.888,4.937 64.237,4.937 63.584,5.289 61.954,4.937 61.629,4.584 61.304,4.231 60.651,4.231 60,4.231 59.672,4.231    59.022,4.231 58.043,4.584 57.391,4.584 57.066,4.231 57.391,3.883 57.391,3.532 57.066,3.532 56.74,3.532 56.087,3.532    56.087,3.179 56.087,2.126 55.762,1.771 55.436,1.771 55.112,1.771 55.112,2.475 54.782,2.828 54.458,2.828 54.132,3.179    53.807,3.179 53.155,2.828 53.155,2.475 52.828,2.475 52.501,2.475 52.176,2.475 52.176,2.126 51.85,1.771 51.525,1.421    51.198,1.421 50.872,1.421 51.525,1.069 50.872,0.718 50.546,0.718 50.221,0.364 49.894,0.364 49.569,0.364 49.243,0.718    48.915,1.069 48.915,0.364 49.243,0.014 48.915,-0.336 48.59,-0.692 48.59,-1.039 48.915,-1.039 49.243,-1.393 48.915,-1.393    48.59,-1.743 48.265,-1.743 48.59,-2.096 48.915,-2.096 49.569,-2.096 49.894,-2.446 49.569,-2.446 49.243,-2.799 49.243,-3.149    49.569,-3.149 49.569,-3.503 49.243,-3.853 49.243,-4.205 49.569,-4.558 49.569,-4.908 49.569,-5.26 49.243,-5.613 48.915,-5.26    48.59,-5.613 48.915,-5.613 49.243,-5.963 49.569,-6.315 49.894,-6.666 49.894,-7.017 50.221,-7.37 50.546,-7.37 50.872,-7.722    51.198,-7.722 51.525,-8.072 51.198,-8.072 51.198,-8.424 50.872,-8.424 51.525,-8.776 51.85,-8.776 51.85,-9.126 52.176,-9.479    52.176,-9.831 52.501,-10.181 53.155,-10.181 53.479,-10.181 53.479,-10.534 53.807,-10.883 54.458,-10.883 54.458,-11.237    54.782,-11.939 55.112,-12.292 55.112,-12.643 55.436,-12.643 55.762,-12.994 56.087,-12.994 56.087,-12.643 56.414,-12.643    56.74,-12.643 56.74,-12.994 56.74,-13.345 56.74,-13.699 56.414,-13.699 56.414,-14.048 56.74,-14.048 57.718,-14.75    57.718,-15.104   " id="upazila_309" area="upazlia" name="ghoraghat" bengali="ঘোড়াঘাট" parent="dinajpur"></polygon><polygon points="-39.085,-93.865 -39.085,-93.513 -39.085,-93.16 -38.759,-93.16 -38.433,-93.16 -38.106,-92.81    -38.106,-92.458 -38.106,-92.105 -38.106,-91.753 -38.106,-91.403 -37.781,-91.052 -37.781,-90.699 -37.456,-90.699    -37.128,-90.347 -36.802,-89.996 -36.802,-89.645 -37.128,-89.645 -37.456,-89.645 -37.781,-89.292 -37.781,-88.942    -37.781,-88.59 -37.781,-88.237 -37.781,-87.887 -38.106,-87.887 -38.106,-87.184 -37.781,-86.832 -37.456,-86.48    -37.456,-86.128 -37.456,-85.425 -37.128,-85.075 -37.128,-84.724 -36.477,-84.37 -36.477,-84.019 -36.477,-83.668    -36.477,-83.317 -36.477,-82.614 -36.802,-82.614 -37.128,-82.614 -37.456,-82.614 -37.781,-82.261 -37.781,-81.909    -37.781,-81.558 -37.456,-81.558 -37.456,-81.909 -36.802,-81.909 -36.477,-81.909 -36.802,-81.558 -37.128,-81.206    -37.456,-80.855 -37.456,-80.502 -37.128,-80.502 -36.802,-80.151 -36.802,-79.801 -37.128,-79.448 -37.456,-79.448    -37.781,-79.097 -37.781,-78.745 -37.456,-78.745 -37.128,-78.393 -36.802,-78.043 -37.128,-78.043 -37.456,-78.043    -37.781,-77.688 -37.781,-77.338 -37.781,-76.988 -37.456,-76.282 -37.456,-75.933 -37.456,-75.581 -36.802,-75.23    -36.477,-75.23 -36.151,-74.877 -35.824,-74.525 -35.499,-74.525 -35.174,-74.877 -34.847,-74.525 -34.522,-74.525    -34.522,-74.175 -34.522,-73.471 -35.174,-73.471 -35.499,-73.471 -35.499,-73.12 -35.499,-72.768 -35.824,-71.713    -35.824,-71.01 -36.151,-70.659 -36.477,-70.307 -36.802,-69.956 -37.128,-69.956 -37.128,-70.307 -37.456,-70.307    -37.781,-70.307 -38.106,-70.307 -38.759,-70.307 -38.759,-69.956 -39.085,-69.604 -38.759,-69.253 -38.759,-68.901    -38.759,-68.548 -38.759,-67.844 -38.759,-67.495 -38.759,-67.143 -39.412,-67.143 -39.737,-66.792 -40.388,-66.439    -40.388,-66.087 -40.716,-65.736 -40.716,-65.385 -40.388,-65.033 -40.388,-64.681 -40.716,-63.977 -40.388,-63.626    -40.388,-62.923 -40.062,-62.571 -40.062,-62.22 -40.388,-61.868 -40.388,-61.516 -40.716,-61.516 -41.041,-61.516    -41.041,-61.166 -40.716,-61.166 -41.041,-60.814 -41.366,-60.814 -41.366,-61.166 -41.692,-61.516 -42.019,-61.166    -42.019,-60.814 -42.019,-60.461 -42.671,-60.461 -42.996,-60.461 -43.321,-60.461 -43.321,-60.111 -43.648,-59.759    -43.648,-59.406 -43.974,-59.406 -44.3,-59.759 -44.625,-59.759 -44.625,-59.406 -44.625,-58.704 -44.95,-58.704 -45.278,-58.704    -45.603,-58.704 -46.256,-58.704 -46.582,-58.704 -47.232,-59.056 -47.559,-59.056 -47.885,-59.056 -48.538,-59.056    -48.211,-59.759 -47.559,-59.759 -47.559,-60.111 -47.885,-60.111 -47.885,-60.461 -47.559,-60.814 -47.885,-61.166    -48.211,-61.516 -48.211,-61.868 -48.211,-62.22 -47.885,-62.571 -47.559,-62.22 -46.907,-61.868 -46.582,-61.516    -46.256,-61.868 -46.256,-62.22 -46.582,-62.571 -46.582,-62.923 -47.232,-62.923 -47.559,-63.275 -47.559,-63.977    -47.559,-64.328 -46.907,-64.681 -46.907,-65.033 -47.232,-65.385 -47.559,-65.033 -47.885,-65.033 -48.538,-65.033    -48.863,-65.033 -49.188,-65.385 -48.863,-65.736 -48.863,-66.087 -48.211,-66.087 -47.885,-66.087 -47.559,-66.439    -47.559,-66.792 -47.885,-66.792 -47.885,-67.143 -47.885,-67.495 -47.885,-67.844 -47.885,-68.198 -48.211,-67.844    -48.538,-67.844 -49.188,-67.495 -49.513,-67.495 -49.842,-67.844 -49.842,-68.548 -50.167,-69.253 -50.492,-68.901    -50.492,-68.548 -50.818,-68.548 -50.818,-67.844 -51.145,-67.844 -51.47,-67.495 -51.797,-67.495 -52.122,-67.844    -52.122,-68.198 -52.447,-68.548 -52.447,-69.253 -52.447,-69.604 -52.774,-69.956 -53.099,-70.659 -53.426,-70.659    -53.751,-70.659 -54.079,-71.01 -54.079,-71.361 -54.404,-71.713 -54.404,-72.064 -54.404,-72.416 -54.079,-72.768    -53.099,-72.416 -53.426,-72.768 -53.426,-73.12 -53.099,-73.12 -52.774,-73.12 -52.774,-73.471 -52.774,-73.821 -53.426,-73.821    -53.751,-74.175 -54.079,-74.525 -54.079,-74.877 -53.751,-75.23 -53.426,-75.581 -53.099,-75.581 -52.774,-75.581    -53.099,-75.933 -53.426,-76.282 -53.751,-76.282 -54.079,-76.636 -54.079,-76.988 -54.404,-76.988 -54.729,-77.338    -54.404,-78.043 -54.404,-78.393 -54.079,-78.745 -53.426,-78.745 -53.426,-79.097 -53.426,-79.448 -53.099,-79.801    -53.099,-80.151 -53.099,-80.502 -53.426,-80.502 -54.079,-80.502 -54.404,-81.206 -54.404,-81.558 -54.404,-82.261    -54.079,-82.261 -53.751,-82.261 -53.426,-82.614 -53.751,-83.317 -53.426,-83.317 -53.751,-83.668 -54.079,-84.019    -54.404,-84.37 -54.079,-84.724 -53.426,-84.724 -53.099,-84.724 -52.774,-85.075 -52.447,-85.075 -51.797,-85.075    -51.797,-85.425 -51.47,-86.128 -51.47,-86.832 -51.797,-86.832 -52.122,-87.184 -52.122,-87.536 -52.122,-88.237 -52.122,-88.59    -51.797,-88.59 -51.47,-88.59 -51.145,-88.59 -50.818,-88.237 -50.492,-88.237 -50.492,-87.887 -50.492,-87.536 -49.842,-87.536    -49.513,-87.184 -49.188,-86.832 -48.863,-86.832 -48.863,-87.184 -48.538,-87.184 -48.863,-87.536 -49.188,-87.887    -49.188,-88.237 -48.863,-88.237 -48.538,-88.237 -48.538,-88.59 -48.211,-88.59 -47.885,-88.237 -47.559,-88.237 -46.907,-88.59    -46.256,-88.942 -45.928,-88.59 -46.256,-88.237 -45.928,-87.887 -45.603,-87.536 -44.95,-87.536 -44.625,-87.536    -43.974,-87.536 -43.648,-87.887 -43.648,-88.237 -43.648,-88.59 -43.648,-88.942 -43.321,-88.942 -42.996,-88.942    -42.996,-88.59 -42.996,-88.237 -42.996,-87.887 -42.671,-87.536 -42.671,-87.887 -42.344,-87.536 -41.692,-87.536    -41.692,-87.887 -41.366,-87.887 -41.041,-88.237 -40.716,-88.237 -40.716,-89.292 -40.716,-89.645 -40.716,-90.347    -40.716,-90.699 -40.716,-91.052 -40.716,-91.753 -41.041,-92.458 -41.366,-92.81 -41.041,-93.16 -41.041,-93.513    -40.716,-93.865 -40.388,-93.865 -40.062,-93.865 -39.737,-93.865   " id="upazila_306" area="upazlia" name="bochaganj" bengali="বোচাগঞ্জ" parent="dinajpur"></polygon><polygon points="7.524,-17.567 8.502,-18.271 8.827,-18.271 9.154,-18.271 9.479,-18.271 9.806,-18.271    10.131,-18.271 10.457,-18.271 11.108,-18.271 11.435,-17.917 11.761,-18.271 12.086,-18.271 12.74,-18.271 13.065,-18.271    13.065,-18.621 13.065,-18.972 13.39,-19.325 13.715,-19.677 14.368,-19.677 14.694,-19.677 15.346,-19.677 15.671,-19.677    16.324,-20.026 16.975,-20.026 17.301,-20.026 17.628,-20.026 18.279,-20.026 18.932,-20.026 19.582,-20.38 19.908,-20.38    20.234,-20.026 20.234,-19.677 20.562,-19.325 20.887,-18.972 20.887,-18.621 20.887,-18.271 21.212,-17.567 21.539,-17.567    21.865,-17.567 21.865,-17.917 22.191,-18.621 22.191,-18.972 22.516,-19.677 22.843,-19.677 23.168,-20.026 23.168,-20.38    23.494,-20.38 23.822,-20.38 24.147,-20.38 24.147,-20.729 24.472,-21.083 24.472,-21.435 24.797,-21.435 25.45,-21.435    25.776,-21.435 25.776,-21.785 25.45,-21.785 25.45,-22.138 25.45,-22.49 26.101,-22.49 26.754,-22.84 26.754,-23.192    26.429,-23.545 26.429,-23.895 26.754,-24.247 26.754,-24.95 26.754,-25.652 26.754,-26.005 26.429,-26.356 27.079,-26.708    27.406,-26.708 27.731,-27.059 27.731,-27.412 27.406,-27.762 27.406,-28.113 27.731,-28.465 27.406,-28.817 27.079,-29.169    26.754,-29.52 26.101,-29.874 25.45,-29.874 25.125,-30.223 25.45,-30.577 26.101,-31.279 25.776,-31.279 25.45,-31.279    25.45,-31.631 25.776,-31.982 26.101,-31.982 26.429,-31.982 26.754,-32.332 26.754,-32.686 26.754,-33.037 27.406,-33.39    28.058,-32.686 28.383,-32.332 28.709,-31.982 29.362,-31.982 30.013,-31.982 30.338,-31.982 30.663,-31.279 30.991,-30.577    31.317,-29.874 31.317,-29.169 31.642,-28.113 31.967,-27.412 32.294,-26.708 32.622,-26.356 32.946,-26.356 32.622,-25.652    32.622,-24.95 32.946,-24.598 32.946,-24.247 32.946,-23.895 32.946,-23.192 32.622,-22.84 32.294,-22.49 31.967,-21.785    31.967,-21.435 31.967,-21.083 31.642,-20.729 31.317,-20.38 31.317,-20.026 31.317,-19.677 31.967,-19.677 32.622,-19.677    33.273,-20.026 33.926,-20.026 34.249,-20.026 34.902,-20.38 35.228,-20.38 35.88,-20.38 36.206,-20.38 36.857,-20.38    37.51,-20.38 37.834,-20.026 38.16,-20.026 38.16,-19.677 38.16,-19.325 38.16,-18.972 38.16,-18.271 38.16,-17.917    38.16,-17.567 37.834,-17.215 37.51,-16.863 37.184,-16.512 36.857,-16.161 36.857,-15.81 36.531,-15.457 36.206,-15.104    35.555,-14.403 35.228,-14.048 35.228,-13.348 34.902,-12.996 34.902,-12.643 34.576,-12.292 34.576,-11.941 34.249,-11.588    34.249,-11.237 34.249,-10.534 34.249,-10.181 34.576,-9.831 34.249,-9.48 33.926,-9.48 33.598,-9.128 33.273,-9.48 32.622,-9.48    32.294,-9.48 31.967,-9.48 31.642,-9.48 30.991,-9.831 30.663,-9.831 30.338,-9.831 30.013,-10.181 29.688,-10.534    29.362,-10.534 29.034,-10.534 28.709,-10.534 28.383,-10.534 28.058,-10.534 27.406,-10.534 27.079,-10.534 26.101,-10.181    25.125,-10.181 24.797,-9.48 24.797,-9.128 25.125,-8.424 24.797,-8.073 24.147,-8.073 23.822,-8.073 23.494,-8.424    23.168,-8.424 22.516,-8.424 21.865,-8.424 20.887,-8.424 20.234,-8.073 19.582,-8.073 19.257,-7.722 18.605,-7.722 18.279,-7.37    17.953,-7.37 17.628,-7.722 17.628,-8.073 17.301,-8.424 16.975,-8.776 16.975,-9.48 16.975,-9.831 16.65,-10.181 16.65,-10.534    16.324,-10.534 15.997,-10.534 15.671,-10.534 15.021,-10.534 14.694,-10.534 14.368,-10.181 14.368,-9.831 14.368,-9.48    14.368,-8.776 14.042,-8.776 13.715,-8.776 13.715,-9.128 13.39,-9.48 13.065,-9.831 12.74,-10.181 12.411,-10.534    11.761,-10.886 11.761,-11.237 11.761,-11.588 11.761,-12.292 11.761,-12.643 11.435,-12.643 11.108,-12.996 10.782,-12.996    10.457,-12.996 10.131,-13.348 10.131,-13.699 9.806,-14.048 9.479,-14.048 9.154,-14.048 8.827,-14.048 8.502,-14.048    8.177,-14.403 7.849,-15.104 7.849,-15.81 7.849,-16.161 7.849,-16.512 7.849,-16.863 7.849,-17.215   " id="upazila_303" area="upazlia" name="birampur" bengali="বিরামপুর" parent="dinajpur"></polygon><polygon points="2.635,-37.96 2.96,-38.663 3.614,-39.016 3.939,-39.016 4.264,-39.367 4.916,-39.367    5.242,-39.367 5.242,-39.016 5.57,-38.663 5.895,-38.663 6.22,-38.663 7.198,-38.663 6.873,-38.312 6.873,-37.96 7.198,-37.607    7.524,-37.607 7.849,-37.96 8.177,-37.607 8.502,-37.257 9.154,-36.903 9.479,-36.903 9.479,-36.555 9.806,-36.201    10.131,-36.555 10.457,-36.903 10.782,-36.555 10.782,-36.201 10.782,-35.85 11.108,-35.85 11.108,-36.201 11.108,-36.903    11.435,-37.257 11.761,-37.607 12.086,-37.607 12.411,-37.607 13.065,-37.257 13.715,-37.257 14.042,-37.257 14.368,-37.607    14.368,-37.257 14.042,-36.903 13.715,-36.555 13.715,-36.201 14.042,-35.85 14.694,-35.85 14.694,-35.498 15.021,-35.498    15.346,-35.146 15.346,-35.498 15.671,-35.85 15.999,-35.85 16.65,-36.201 16.976,-36.201 17.628,-35.85 17.954,-35.85    18.28,-35.498 18.28,-35.146 18.28,-34.795 18.605,-34.442 18.932,-34.442 18.932,-35.146 18.932,-35.498 19.258,-35.498    19.583,-35.146 19.908,-34.795 20.562,-34.795 20.887,-34.442 20.887,-34.795 21.212,-34.795 21.865,-34.795 22.191,-34.795    22.516,-34.795 22.843,-34.795 23.168,-34.795 23.494,-35.146 23.494,-35.498 23.494,-35.85 23.822,-36.201 24.147,-36.555    24.147,-36.903 24.472,-36.903 24.797,-36.555 25.125,-36.555 25.45,-36.555 25.776,-36.555 26.429,-36.201 26.754,-36.201    27.079,-35.85 27.079,-35.498 27.406,-35.498 27.731,-35.498 27.406,-35.146 27.731,-34.795 27.731,-34.442 27.079,-34.091    27.079,-33.74 27.079,-33.39 27.406,-33.39 26.754,-33.037 26.754,-32.686 26.754,-32.334 26.429,-31.982 26.101,-31.982    25.776,-31.982 25.45,-31.631 25.45,-31.279 25.776,-31.279 26.101,-31.279 25.45,-30.577 25.125,-30.223 25.45,-29.874    26.101,-29.874 26.754,-29.522 27.079,-29.169 27.406,-28.817 27.731,-28.466 27.406,-28.113 27.406,-27.762 27.731,-27.412    27.731,-27.06 27.406,-26.708 27.079,-26.708 26.429,-26.356 26.754,-26.005 26.754,-25.654 26.754,-24.95 26.754,-24.247    26.429,-23.895 26.429,-23.545 26.754,-23.193 26.754,-22.84 26.101,-22.49 25.45,-22.49 25.45,-22.138 25.45,-21.787    25.776,-21.787 25.776,-21.435 25.45,-21.435 24.797,-21.435 24.472,-21.435 24.472,-21.083 24.147,-20.733 24.147,-20.38    23.822,-20.38 23.494,-20.38 23.168,-20.38 23.168,-20.026 22.843,-19.677 22.516,-19.677 22.191,-18.972 22.191,-18.621    21.865,-17.918 21.865,-17.567 21.539,-17.567 21.212,-17.567 20.887,-18.271 20.887,-18.621 20.887,-18.972 20.562,-19.327    20.234,-19.677 20.234,-20.026 19.908,-20.38 19.583,-20.38 18.932,-20.026 18.28,-20.026 17.628,-20.026 17.303,-20.026    16.976,-20.026 16.324,-20.026 15.671,-19.677 15.346,-19.677 14.694,-19.677 14.368,-19.677 13.715,-19.677 13.39,-19.327    13.065,-18.972 13.065,-18.621 13.065,-18.271 12.74,-18.271 12.086,-18.271 11.761,-18.271 11.435,-17.918 11.108,-18.271    10.457,-18.271 10.131,-18.271 9.806,-18.271 9.479,-18.271 9.154,-18.271 8.827,-18.271 8.502,-18.271 7.524,-17.567    7.524,-17.918 7.849,-18.271 8.177,-18.621 8.177,-18.972 7.849,-19.327 7.524,-19.327 7.524,-19.677 7.198,-19.677    6.545,-19.677 6.22,-19.677 5.895,-19.677 5.57,-20.026 5.57,-20.38 5.57,-20.733 5.242,-21.083 4.916,-21.083 4.264,-21.083    4.591,-21.435 4.916,-21.787 5.242,-21.787 5.57,-21.787 5.895,-21.787 6.22,-22.138 6.545,-22.138 6.545,-22.49 6.545,-22.84    6.545,-23.193 6.545,-23.545 6.873,-23.545 7.198,-23.895 6.873,-24.247 6.873,-24.599 6.873,-24.95 6.545,-24.95 6.22,-24.95    6.22,-25.302 6.22,-25.654 5.895,-26.005 6.22,-26.356 6.22,-26.708 6.545,-27.06 6.873,-27.06 7.524,-27.412 7.524,-27.762    7.849,-27.762 7.849,-28.113 7.524,-28.466 7.198,-28.817 7.198,-29.169 7.198,-29.522 7.524,-29.874 7.524,-30.223    7.198,-30.577 6.873,-30.928 6.873,-31.631 6.545,-31.982 6.545,-32.334 6.545,-32.686 5.895,-33.037 5.57,-33.037 4.916,-32.686    4.591,-32.686 4.264,-32.686 3.939,-32.686 3.939,-33.39 3.939,-33.74 3.614,-34.091 3.614,-34.442 3.614,-35.146 3.614,-35.85    3.287,-36.555 3.614,-36.903 3.614,-37.257 3.614,-37.607 3.287,-37.607 2.96,-37.96   " id="upazila_308" area="upazlia" name="fulbari" bengali="ফুলবাড়ী" parent="dinajpur"></polygon><polygon points="-34.523,-73.471 -34.194,-73.471 -33.87,-73.471 -33.544,-73.471 -33.219,-73.471    -32.893,-73.471 -32.565,-73.471 -32.241,-73.471 -31.913,-73.471 -31.59,-73.471 -30.936,-73.12 -30.611,-73.12 -30.284,-72.768    -29.961,-72.768 -29.631,-72.416 -28.98,-72.064 -28.657,-71.712 -28.33,-71.712 -28.002,-71.712 -28.002,-71.361 -27.351,-71.01    -27.026,-71.01 -26.698,-71.01 -26.375,-71.01 -26.048,-70.658 -25.721,-71.01 -25.397,-71.01 -25.069,-71.01 -24.744,-70.658    -24.418,-70.306 -23.767,-70.306 -23.439,-69.956 -23.115,-69.956 -22.789,-69.956 -22.464,-69.956 -22.135,-70.306    -21.81,-70.306 -21.485,-70.306 -21.158,-70.306 -20.833,-70.306 -20.505,-69.956 -20.181,-69.956 -20.181,-69.602    -19.854,-69.602 -19.531,-69.956 -18.876,-69.602 -18.876,-69.251 -18.876,-68.9 -18.876,-68.548 -18.876,-68.195    -19.204,-67.844 -19.531,-67.844 -19.854,-67.495 -19.854,-66.79 -19.854,-66.438 -20.181,-66.087 -20.505,-66.087    -20.505,-65.383 -20.833,-65.033 -20.833,-64.681 -20.833,-64.328 -21.158,-63.977 -21.158,-63.626 -20.833,-63.626    -20.833,-63.273 -20.505,-62.923 -20.505,-62.571 -20.505,-62.22 -20.505,-61.868 -20.833,-61.516 -20.505,-61.516    -20.505,-61.166 -20.505,-60.814 -20.505,-60.461 -20.833,-60.461 -21.158,-60.461 -21.485,-60.461 -21.485,-60.111    -21.485,-59.759 -21.485,-59.406 -21.158,-59.406 -20.833,-59.406 -20.833,-59.056 -20.505,-58.704 -20.505,-58.35    -20.505,-58.001 -20.505,-57.649 -20.833,-57.298 -21.158,-57.298 -21.485,-57.298 -21.81,-56.946 -21.81,-56.593    -21.485,-56.593 -21.158,-56.593 -20.833,-56.593 -20.833,-56.242 -21.158,-55.89 -21.485,-55.188 -21.81,-54.837    -22.135,-54.837 -22.135,-54.484 -22.464,-54.132 -22.135,-53.781 -22.135,-53.078 -22.135,-52.726 -21.81,-52.374    -21.81,-51.669 -21.485,-51.669 -21.485,-51.32 -21.81,-50.968 -22.135,-50.617 -22.135,-50.266 -22.464,-49.912 -22.464,-49.209    -22.789,-48.858 -22.789,-48.506 -23.115,-47.802 -23.115,-47.452 -23.439,-47.452 -23.767,-47.452 -24.094,-47.802    -24.418,-47.452 -24.418,-47.101 -24.418,-46.397 -24.418,-46.045 -24.418,-45.694 -24.094,-44.991 -24.418,-44.639    -24.418,-44.288 -24.744,-43.936 -25.069,-43.936 -25.397,-44.288 -25.721,-44.288 -26.048,-44.288 -26.375,-44.639    -26.698,-44.288 -26.698,-43.936 -26.698,-43.234 -26.698,-42.881 -26.698,-42.529 -26.698,-42.179 -26.375,-41.827    -26.048,-41.474 -26.048,-41.124 -26.048,-40.772 -26.048,-40.422 -26.375,-39.717 -26.375,-39.016 -26.698,-38.661    -27.026,-38.312 -27.351,-37.96 -27.351,-37.607 -27.351,-36.903 -27.351,-36.555 -27.678,-36.555 -27.678,-36.2 -28.33,-36.2    -28.657,-36.555 -28.98,-36.555 -29.307,-36.2 -29.631,-36.2 -29.961,-36.2 -30.284,-36.2 -30.611,-36.555 -30.936,-36.555    -30.936,-36.903 -31.261,-37.257 -31.59,-37.257 -31.59,-36.903 -31.913,-36.555 -31.913,-36.2 -32.241,-35.85 -32.565,-35.498    -32.893,-35.85 -32.893,-36.555 -33.219,-36.903 -32.893,-37.257 -33.219,-37.607 -33.219,-37.96 -33.219,-38.312    -33.219,-38.661 -33.219,-39.367 -33.87,-39.367 -34.194,-39.367 -34.194,-39.717 -34.194,-40.069 -34.194,-40.422    -34.523,-40.772 -34.847,-40.772 -34.847,-40.422 -34.847,-39.717 -35.174,-39.717 -35.499,-39.717 -35.826,-39.717    -35.826,-40.069 -35.826,-40.422 -35.826,-40.772 -36.152,-41.124 -36.477,-41.124 -36.804,-41.124 -37.128,-40.772    -37.458,-41.124 -37.781,-41.474 -38.108,-41.474 -38.433,-41.827 -38.759,-42.179 -38.759,-42.529 -38.759,-42.881    -39.087,-43.234 -39.41,-43.584 -39.087,-43.936 -39.087,-44.288 -38.759,-44.639 -38.759,-44.991 -38.759,-45.342    -38.759,-46.397 -38.759,-46.75 -39.087,-46.75 -39.41,-46.75 -40.062,-46.75 -40.388,-46.75 -41.041,-46.75 -41.691,-46.75    -42.344,-46.75 -42.671,-46.75 -42.671,-47.101 -42.671,-47.452 -43.321,-47.802 -43.649,-47.802 -43.973,-48.155    -43.973,-48.506 -44.3,-48.858 -44.625,-48.858 -45.278,-48.506 -45.93,-48.858 -45.93,-49.209 -45.603,-49.563 -45.278,-49.912    -45.603,-49.912 -45.603,-50.617 -45.603,-50.968 -45.603,-51.32 -45.603,-51.669 -45.603,-52.024 -45.278,-52.374    -45.278,-52.726 -44.952,-52.726 -44.625,-53.078 -44.3,-53.431 -44.3,-53.781 -44.625,-54.484 -44.625,-54.837 -44.625,-55.539    -44.3,-56.242 -44.3,-56.946 -44.3,-57.649 -44.625,-58.35 -44.952,-58.704 -44.625,-58.704 -44.625,-59.406 -44.625,-59.759    -44.3,-59.759 -43.973,-59.406 -43.649,-59.406 -43.649,-59.759 -43.321,-60.111 -43.321,-60.461 -42.996,-60.461    -42.671,-60.461 -42.019,-60.461 -42.019,-60.814 -42.019,-61.166 -41.691,-61.516 -41.367,-61.166 -41.367,-60.814    -41.041,-60.814 -40.716,-61.166 -41.041,-61.166 -41.041,-61.516 -40.716,-61.516 -40.388,-61.516 -40.388,-61.868    -40.062,-62.22 -40.062,-62.571 -40.388,-62.923 -40.388,-63.626 -40.716,-63.977 -40.388,-64.681 -40.388,-65.033    -40.716,-65.383 -40.716,-65.734 -40.388,-66.087 -40.388,-66.438 -39.738,-66.79 -39.41,-67.143 -38.759,-67.143    -38.759,-67.495 -38.759,-67.844 -38.759,-68.548 -38.759,-68.9 -38.759,-69.251 -39.087,-69.602 -38.759,-69.956    -38.759,-70.306 -38.108,-70.306 -37.781,-70.306 -37.458,-70.306 -37.128,-70.306 -37.128,-69.956 -36.804,-69.956    -36.477,-70.306 -36.152,-70.658 -35.826,-71.01 -35.826,-71.712 -35.499,-72.768 -35.499,-73.12 -35.499,-73.471    -35.174,-73.471   " id="upazila_305" area="upazlia" name="birol" bengali="বিরল" parent="dinajpur"></polygon><polygon points="-10.077,-77.338 -9.75,-77.338 -9.098,-77.338 -8.774,-76.988 -8.774,-76.635 -8.446,-76.282    -7.796,-75.579 -7.144,-75.228 -6.816,-74.877 -6.492,-74.877 -6.166,-74.173 -6.492,-73.821 -6.492,-73.119 -6.492,-72.416    -6.816,-71.712 -6.816,-71.361 -6.816,-70.658 -6.492,-70.658 -6.166,-70.306 -5.841,-69.956 -5.513,-69.602 -5.513,-69.251    -5.841,-68.548 -5.841,-67.844 -5.841,-67.143 -5.513,-66.79 -5.513,-66.438 -5.513,-66.087 -5.841,-66.087 -6.492,-66.087    -6.492,-65.734 -6.816,-65.734 -6.816,-64.681 -6.816,-63.977 -6.816,-63.626 -7.144,-63.626 -7.144,-63.273 -7.469,-63.273    -7.469,-62.923 -7.796,-62.571 -7.469,-61.868 -7.469,-61.516 -7.144,-60.813 -7.144,-60.461 -7.144,-60.109 -7.144,-59.758    -7.469,-59.406 -7.796,-59.406 -8.121,-59.406 -8.774,-58.703 -9.098,-58.703 -9.098,-58.35 -9.425,-58.001 -9.425,-57.649    -9.425,-57.296 -9.75,-57.296 -10.077,-56.946 -10.077,-56.593 -9.75,-55.89 -9.75,-55.539 -9.75,-54.837 -9.75,-54.484    -9.75,-54.132 -10.077,-53.781 -10.403,-53.781 -10.403,-53.431 -10.403,-52.726 -10.73,-52.726 -10.73,-52.374 -11.055,-52.023    -11.379,-51.669 -11.379,-51.32 -11.055,-50.968 -10.73,-50.614 -10.403,-50.266 -10.403,-49.562 -10.73,-49.209 -10.73,-48.858    -10.73,-48.506 -10.403,-48.154 -10.403,-47.802 -10.077,-47.802 -9.75,-47.802 -9.098,-47.452 -8.446,-47.802 -8.121,-47.452    -7.796,-47.452 -7.796,-47.101 -7.469,-46.747 -7.469,-46.397 -6.816,-46.045 -6.492,-46.045 -6.166,-46.045 -5.841,-46.397    -5.513,-46.397 -5.187,-46.045 -5.187,-45.694 -5.187,-45.342 -5.513,-45.342 -5.841,-44.991 -6.166,-44.639 -6.166,-44.288    -5.841,-44.288 -5.513,-44.288 -5.187,-43.936 -5.513,-43.584 -5.513,-43.234 -4.862,-42.881 -4.535,-42.529 -4.212,-41.827    -3.885,-41.474 -3.558,-41.474 -3.558,-41.124 -3.233,-41.124 -2.906,-40.419 -2.906,-39.717 -2.906,-39.014 -2.906,-38.661    -2.906,-38.312 -3.233,-37.96 -2.906,-37.606 -3.233,-36.552 -2.906,-36.2 -2.906,-35.85 -2.581,-35.498 -2.253,-35.146    -1.604,-34.792 -1.604,-34.442 -1.929,-34.091 -2.253,-33.738 -2.253,-33.39 -2.906,-33.39 -3.233,-33.39 -3.885,-33.39    -4.212,-33.738 -4.535,-33.39 -4.862,-33.39 -5.187,-33.037 -5.513,-32.685 -5.841,-32.685 -5.841,-33.39 -5.513,-33.738    -5.513,-34.091 -5.513,-34.442 -5.841,-34.792 -6.166,-35.146 -6.492,-34.792 -6.816,-34.792 -7.144,-34.792 -7.469,-34.792    -8.121,-34.792 -8.446,-34.442 -8.774,-34.091 -9.098,-34.091 -9.425,-34.091 -9.75,-34.091 -10.077,-34.442 -10.077,-34.091    -10.403,-33.39 -10.403,-33.037 -10.077,-31.982 -10.077,-31.631 -10.403,-31.277 -10.403,-30.925 -11.055,-30.577    -11.379,-30.577 -11.379,-30.223 -11.709,-30.223 -12.359,-30.223 -12.685,-30.577 -13.338,-30.577 -13.661,-30.577    -13.989,-30.577 -14.641,-30.223 -14.967,-30.223 -15.293,-30.577 -15.618,-30.577 -15.942,-30.577 -16.271,-30.577    -16.271,-30.925 -16.595,-31.277 -16.595,-31.631 -16.922,-31.631 -17.574,-31.631 -17.9,-31.277 -18.224,-31.277    -18.552,-31.631 -18.876,-31.982 -18.876,-32.685 -18.876,-33.037 -18.876,-33.39 -18.552,-33.39 -18.224,-33.39 -18.224,-33.738    -18.552,-34.091 -18.876,-34.091 -19.204,-34.091 -19.529,-34.091 -19.856,-34.091 -20.181,-34.091 -20.833,-34.091    -21.158,-34.091 -21.485,-34.091 -21.81,-34.091 -21.81,-34.442 -22.136,-34.442 -22.136,-34.792 -22.464,-34.792    -22.787,-35.146 -23.114,-35.498 -23.439,-35.498 -23.767,-35.85 -23.767,-36.552 -24.094,-36.552 -24.419,-36.552    -24.744,-36.552 -25.071,-36.2 -25.071,-35.498 -25.397,-35.146 -25.721,-35.146 -26.048,-35.498 -26.375,-35.498    -27.026,-35.498 -27.353,-35.498 -27.678,-35.498 -28.002,-35.498 -28.657,-35.498 -29.307,-36.2 -28.982,-36.552    -28.657,-36.552 -28.33,-36.2 -27.678,-36.2 -27.678,-36.552 -27.353,-36.552 -27.353,-36.903 -27.353,-37.606 -27.353,-37.96    -27.026,-38.312 -26.7,-38.661 -26.375,-39.014 -26.375,-39.717 -26.048,-40.419 -26.048,-40.772 -26.048,-41.124    -26.048,-41.474 -26.375,-41.827 -26.7,-42.179 -26.7,-42.529 -26.7,-42.881 -26.7,-43.234 -26.7,-43.936 -26.7,-44.288    -26.375,-44.639 -26.048,-44.288 -25.721,-44.288 -25.397,-44.288 -25.071,-43.936 -24.744,-43.936 -24.419,-44.288    -24.419,-44.639 -24.094,-44.991 -24.419,-45.694 -24.419,-46.045 -24.419,-46.397 -24.419,-47.101 -24.419,-47.452    -24.094,-47.802 -23.767,-47.452 -23.439,-47.452 -23.114,-47.452 -23.114,-47.802 -22.787,-48.506 -22.787,-48.858    -22.464,-49.209 -22.464,-49.912 -22.136,-50.266 -22.136,-50.614 -21.81,-50.968 -21.485,-51.32 -21.485,-51.669 -21.81,-51.669    -21.81,-52.374 -22.136,-52.726 -22.136,-53.078 -22.136,-53.781 -22.464,-54.132 -22.136,-54.484 -22.136,-54.837    -21.81,-54.837 -21.485,-55.188 -21.158,-55.89 -20.833,-56.242 -20.833,-56.593 -21.158,-56.593 -21.485,-56.593 -21.81,-56.593    -21.81,-56.946 -21.485,-57.296 -21.158,-57.296 -20.833,-57.296 -20.505,-57.649 -20.505,-58.001 -20.505,-58.35    -20.505,-58.703 -20.833,-59.056 -20.833,-59.406 -21.158,-59.406 -21.485,-59.406 -21.485,-59.758 -21.485,-60.109    -21.485,-60.461 -21.158,-60.461 -20.833,-60.461 -20.505,-60.461 -20.505,-60.813 -20.505,-61.166 -20.505,-61.516    -20.833,-61.516 -20.505,-61.868 -20.505,-62.219 -20.505,-62.571 -20.505,-62.923 -20.833,-63.273 -20.833,-63.626    -21.158,-63.626 -21.158,-63.977 -20.833,-64.328 -20.833,-64.681 -20.833,-65.033 -20.505,-65.383 -20.505,-66.087    -20.181,-66.087 -19.856,-66.438 -19.856,-66.79 -19.856,-67.495 -19.529,-67.844 -19.204,-67.844 -18.876,-68.195    -18.876,-68.548 -18.876,-68.9 -18.876,-69.251 -18.876,-69.602 -18.552,-69.602 -18.224,-69.602 -17.9,-69.602 -17.574,-69.956    -17.247,-70.306 -17.247,-70.658 -16.922,-70.658 -16.271,-70.658 -15.618,-70.658 -15.293,-70.658 -14.967,-70.658    -14.641,-71.01 -14.313,-71.01 -14.313,-71.361 -13.989,-71.712 -13.338,-72.416 -13.01,-72.768 -12.685,-72.768 -12.359,-72.768    -12.032,-73.119 -11.709,-73.119 -11.379,-73.821 -11.379,-74.173 -11.055,-74.877 -11.055,-75.228 -11.055,-75.579    -11.055,-75.933 -11.055,-76.282 -10.73,-76.635 -10.403,-76.635 -10.077,-76.988   " id="upazila_313" area="upazlia" name="dinajpursadar" bengali="দিনাজপুর-সদর" parent="dinajpur"></polygon><polygon points="17.953,-7.37 18.28,-7.37 18.605,-7.722 19.257,-7.722 19.582,-8.073 20.234,-8.073    20.887,-8.424 21.865,-8.424 22.516,-8.424 23.166,-8.424 23.496,-8.424 23.82,-8.073 24.145,-8.073 24.797,-8.073 25.125,-8.424    24.797,-9.126 24.797,-9.48 25.125,-10.181 26.101,-10.181 27.079,-10.534 27.406,-10.534 28.059,-10.534 28.383,-10.534    28.708,-10.534 29.033,-10.534 29.362,-10.534 29.688,-10.534 30.012,-10.181 30.34,-9.831 30.663,-9.831 30.99,-9.831    31.642,-9.48 31.969,-9.48 32.292,-9.48 32.622,-9.48 33.273,-9.48 33.596,-9.126 33.926,-9.48 34.251,-9.48 34.576,-9.831    34.902,-9.831 34.902,-9.48 34.902,-8.776 35.228,-8.776 35.555,-8.424 35.878,-8.424 36.531,-8.424 36.857,-8.424 37.184,-8.073    37.51,-8.073 37.834,-8.073 38.16,-7.722 38.16,-7.37 38.16,-7.018 38.488,-7.018 38.814,-7.018 39.139,-6.666 39.139,-6.315    39.466,-6.315 40.117,-6.315 39.789,-5.963 39.789,-5.613 40.443,-5.613 40.768,-5.963 41.42,-5.963 41.748,-5.963 42.724,-5.963    43.375,-5.963 43.702,-5.963 44.029,-5.963 44.353,-5.963 44.353,-5.613 44.681,-5.613 45.006,-5.613 45.331,-5.613    45.656,-5.613 45.983,-5.613 45.983,-5.26 46.311,-4.908 46.635,-4.908 47.286,-5.26 47.939,-5.26 48.265,-5.26 48.592,-5.613    48.915,-5.26 49.242,-5.613 49.569,-5.26 49.569,-4.908 49.569,-4.558 49.242,-4.206 49.242,-3.853 49.569,-3.503 49.569,-3.151    49.242,-3.151 49.242,-2.799 49.569,-2.446 49.894,-2.446 49.569,-2.096 48.915,-2.096 48.592,-2.096 48.265,-1.746    48.592,-1.746 48.915,-1.393 49.242,-1.393 48.915,-1.039 48.592,-1.039 48.592,-0.691 48.915,-0.337 49.242,0.014 48.915,0.364    48.915,1.069 48.915,1.421 49.242,1.771 48.915,1.771 48.592,2.123 48.265,2.123 47.614,2.475 47.614,2.123 47.286,2.123    47.286,1.771 46.96,1.421 46.635,1.069 46.635,1.421 46.311,1.771 46.311,2.123 46.635,2.828 46.311,3.178 45.983,3.178    45.656,2.828 45.331,2.828 45.006,2.828 44.681,2.828 44.353,3.178 44.029,3.178 43.702,3.178 43.375,3.178 43.05,3.178    42.724,2.828 42.724,2.475 42.724,2.123 42.4,1.771 42.072,1.771 41.748,1.421 41.42,1.069 41.095,1.069 40.768,0.364    40.443,0.014 40.117,-0.691 39.789,-0.691 39.466,-0.691 39.139,-0.691 38.814,-0.691 38.814,-0.337 38.814,0.014 38.814,0.364    38.16,0.718 37.834,0.364 37.834,0.014 37.51,0.014 37.51,-0.337 36.857,-0.337 36.205,-0.337 35.878,-0.691 35.555,-0.691    34.902,-1.039 34.576,-1.039 34.576,-1.393 34.251,-1.746 33.926,-1.746 33.596,-1.746 33.596,-1.393 33.596,-1.039    32.946,-0.691 32.622,-1.039 32.622,-0.691 32.292,-0.337 31.969,0.014 31.642,-0.337 30.663,-0.691 30.34,-1.039 30.34,-1.746    30.34,-2.096 30.34,-2.446 30.34,-2.799 30.34,-3.151 30.663,-3.503 30.663,-4.206 30.663,-4.558 30.663,-4.908 30.34,-4.908    30.012,-4.908 29.688,-4.908 29.033,-4.908 27.73,-4.908 27.406,-5.26 27.406,-5.613 27.406,-5.963 27.079,-6.315 26.754,-6.315    26.427,-5.963 26.101,-5.613 25.777,-5.613 25.448,-5.963 25.448,-6.315 24.797,-6.315 24.472,-6.315 24.145,-6.666 23.82,-6.666    23.166,-6.666 23.166,-6.315 22.843,-5.963 22.191,-5.613 21.865,-5.613 21.537,-5.963 21.214,-6.315 20.887,-6.666    20.562,-7.018 20.234,-6.666 19.908,-6.315 19.908,-5.963 19.582,-5.963 19.257,-5.963 18.605,-6.315 18.28,-6.666 17.953,-7.018      " id="upazila_310" area="upazlia" name="hakimpur" bengali="হাকিমপুর" parent="dinajpur"></polygon><polygon points="9.806,-75.933 10.131,-75.579 10.457,-75.579 10.782,-75.228 11.435,-75.228 12.411,-75.228    13.065,-75.228 13.39,-74.877 13.715,-74.523 13.715,-73.821 14.042,-73.471 14.042,-72.768 14.368,-72.416 14.368,-72.064    14.368,-71.712 14.042,-71.361 14.042,-71.01 14.042,-70.658 14.042,-70.306 14.368,-70.306 14.694,-69.956 15.021,-69.956    15.346,-69.956 15.671,-69.956 16.324,-70.306 16.65,-70.306 16.975,-69.956 17.301,-69.956 17.628,-70.306 17.953,-70.658    18.279,-70.658 18.605,-70.658 18.605,-70.306 18.932,-70.306 19.257,-69.956 19.582,-69.956 19.582,-70.306 19.908,-69.956    20.234,-69.956 20.561,-69.956 20.887,-70.306 21.212,-70.306 21.212,-69.956 21.212,-69.251 21.212,-68.9 21.212,-68.548    20.561,-68.195 20.234,-68.195 19.908,-68.195 19.582,-67.844 19.257,-67.495 19.257,-66.79 19.582,-66.438 19.582,-65.734    19.582,-65.383 19.908,-65.033 20.234,-64.681 20.561,-64.328 20.561,-63.626 20.887,-63.273 20.561,-62.923 20.561,-62.571    20.234,-62.22 20.887,-62.22 21.212,-61.868 21.865,-61.868 22.191,-61.516 22.516,-61.516 22.841,-61.516 22.841,-61.868    23.166,-62.22 23.494,-62.22 23.82,-61.868 23.82,-61.516 23.82,-61.166 24.147,-60.461 24.472,-60.461 24.797,-60.461    25.125,-60.109 25.45,-60.109 25.45,-59.759 25.45,-59.406 25.125,-59.056 24.797,-59.056 25.125,-58.703 25.45,-58.35    25.776,-58.001 26.101,-58.001 26.429,-58.35 26.754,-58.35 27.079,-58.703 27.406,-58.703 27.731,-58.703 28.058,-58.35    28.058,-58.001 28.058,-57.649 28.383,-57.296 28.709,-57.296 28.709,-56.946 28.383,-56.946 27.731,-56.593 27.731,-56.242    27.731,-55.539 28.058,-55.539 28.383,-55.188 28.383,-54.837 28.709,-54.484 28.383,-54.132 28.058,-53.781 28.058,-53.078    28.383,-52.726 28.709,-52.374 29.362,-52.023 29.688,-51.669 30.013,-51.32 30.013,-50.968 30.338,-50.266 30.338,-49.912    30.99,-49.912 31.317,-49.912 31.967,-50.266 32.622,-50.266 32.946,-50.266 33.273,-49.912 33.926,-49.912 34.249,-49.912    34.576,-49.562 34.576,-48.858 34.576,-48.154 34.576,-47.452 34.902,-47.101 35.228,-47.101 35.228,-47.452 36.206,-47.802    36.531,-48.154 36.857,-48.154 37.834,-47.802 38.16,-47.802 38.489,-47.452 38.814,-47.452 39.139,-47.802 39.139,-47.452    39.464,-47.452 39.464,-47.101 39.464,-46.747 39.791,-46.747 40.117,-46.747 40.443,-46.045 40.77,-46.045 41.42,-45.694    41.746,-45.342 42.073,-44.991 42.399,-44.991 42.724,-45.342 43.05,-45.342 43.05,-44.991 43.05,-44.639 42.399,-43.936    42.073,-43.584 42.073,-43.234 41.746,-42.881 41.42,-42.881 41.095,-42.881 40.77,-42.881 40.443,-43.234 40.117,-43.234    40.117,-42.881 39.791,-42.881 39.464,-42.881 39.139,-42.529 39.139,-42.179 38.814,-42.179 38.489,-42.179 38.16,-41.827    38.16,-41.474 38.16,-40.772 38.16,-40.419 38.16,-40.069 37.834,-40.069 37.834,-39.717 37.834,-39.367 37.51,-39.367    37.184,-39.367 36.857,-39.367 36.531,-39.717 36.531,-40.069 36.206,-40.069 35.88,-40.069 36.206,-40.419 36.206,-40.772    36.206,-41.124 35.88,-41.124 35.555,-41.124 35.228,-40.772 34.902,-40.772 34.576,-40.419 34.249,-40.419 33.598,-40.772    32.946,-40.772 32.622,-40.772 32.294,-40.772 31.967,-40.419 31.642,-40.419 30.99,-40.419 31.317,-40.069 30.99,-40.069    30.663,-40.069 30.338,-40.069 29.688,-40.069 29.362,-40.419 29.034,-40.772 28.709,-40.772 28.383,-40.419 28.058,-40.419    27.731,-40.419 27.406,-40.419 27.406,-40.069 27.406,-39.367 27.079,-39.014 27.406,-38.661 27.731,-38.661 28.383,-38.661    28.058,-38.661 28.058,-38.312 27.731,-38.312 27.731,-37.96 27.731,-37.606 27.731,-37.257 27.731,-36.903 27.731,-36.555    27.731,-36.2 28.058,-35.85 28.058,-35.498 27.731,-35.498 27.406,-35.498 27.079,-35.498 27.079,-35.85 26.754,-36.2    26.429,-36.2 25.776,-36.555 25.45,-36.555 25.125,-36.555 24.797,-36.555 24.472,-36.903 24.147,-36.903 24.147,-36.555    23.82,-36.2 23.494,-35.85 23.494,-35.498 23.494,-35.146 23.166,-34.792 22.841,-34.792 22.516,-34.792 22.191,-34.792    21.865,-34.792 21.212,-34.792 20.887,-34.792 20.887,-34.442 20.561,-34.792 19.908,-34.792 19.582,-35.146 19.257,-35.498    18.932,-35.498 18.932,-35.146 18.932,-34.442 18.605,-34.442 18.279,-34.792 18.279,-35.146 18.279,-35.498 17.953,-35.85    17.628,-35.85 16.975,-36.2 16.65,-36.2 15.997,-35.85 15.671,-35.85 15.346,-35.498 15.346,-35.146 15.021,-35.498    14.694,-35.498 14.694,-35.85 14.042,-35.85 13.715,-36.2 13.715,-36.555 14.042,-36.903 14.368,-37.257 14.368,-37.606    14.042,-37.257 13.715,-37.257 13.065,-37.257 12.411,-37.606 12.086,-37.606 11.761,-37.606 11.435,-37.257 11.108,-36.903    11.108,-36.2 11.108,-35.85 10.782,-35.85 10.782,-36.2 10.782,-36.555 10.457,-36.903 10.131,-36.555 9.806,-36.2 9.479,-36.555    9.479,-36.903 9.153,-36.903 8.502,-37.257 8.175,-37.606 7.849,-37.96 7.524,-37.606 7.197,-37.606 6.871,-37.96 6.871,-38.312    7.197,-38.661 7.197,-39.014 7.524,-39.014 7.849,-39.367 8.175,-39.014 8.827,-39.014 8.827,-39.367 8.827,-39.717    8.502,-40.069 8.175,-40.069 8.175,-39.717 7.849,-39.717 7.524,-39.717 7.524,-40.419 7.524,-41.124 7.197,-41.474    6.871,-41.827 6.545,-42.529 6.545,-43.234 6.545,-43.936 6.545,-44.991 6.22,-45.342 6.22,-46.045 5.893,-46.397 5.893,-46.747    5.568,-47.101 5.568,-47.802 5.893,-48.154 5.893,-48.506 6.22,-49.209 5.893,-49.562 5.893,-49.912 5.893,-50.266 5.242,-50.614    4.914,-50.968 4.589,-51.32 4.589,-52.023 4.589,-52.726 4.914,-53.431 5.242,-53.431 5.568,-53.781 5.568,-54.132 5.568,-54.484    5.242,-54.484 4.914,-54.837 4.589,-54.837 4.589,-55.188 4.589,-55.539 4.589,-55.89 4.914,-56.242 4.914,-56.593 4.589,-56.593    4.589,-57.296 4.914,-57.649 5.242,-57.649 5.568,-58.001 5.568,-58.703 5.568,-59.056 5.568,-59.406 5.893,-59.406 6.22,-59.759    6.22,-60.109 6.22,-60.461 6.545,-60.461 6.545,-60.813 6.871,-60.813 6.871,-61.166 6.871,-61.516 6.545,-61.868 6.22,-62.22    6.22,-62.571 6.545,-62.571 6.871,-62.923 7.197,-62.923 7.849,-62.923 8.175,-63.273 7.849,-63.626 7.849,-63.977 7.524,-64.328    7.197,-64.681 7.197,-65.383 7.524,-65.734 7.849,-66.438 8.175,-66.79 8.502,-67.143 8.502,-67.495 8.827,-67.844 9.153,-68.195    9.479,-68.195 9.806,-68.195 10.457,-68.195 10.782,-68.195 11.108,-68.548 11.761,-68.9 12.086,-69.251 12.411,-69.602    12.411,-69.956 12.411,-70.306 12.411,-71.01 12.411,-71.361 12.086,-71.712 11.761,-71.712 11.108,-72.064 10.782,-72.064    10.457,-72.416 10.131,-73.119 9.806,-73.471 9.806,-74.173 9.806,-74.523 9.806,-74.877   " id="upazila_315" area="upazlia" name="parbatipur" bengali="পার্বতীপুর" parent="dinajpur"></polygon><polygon points="41.748,-42.881 41.748,-42.179 41.748,-41.826 42.072,-41.826 42.4,-41.476 42.724,-41.125    42.724,-40.772 42.724,-40.422 43.375,-39.719 43.05,-39.367 43.375,-38.312 43.375,-37.96 43.702,-37.96 43.702,-37.606    44.029,-37.606 43.702,-37.606 43.702,-37.259 43.375,-37.259 43.702,-37.259 43.702,-36.903 44.353,-37.259 44.353,-36.903    44.029,-36.903 43.702,-36.903 43.702,-36.555 43.702,-36.201 44.029,-36.201 44.029,-35.85 43.702,-35.498 43.375,-35.498    43.375,-35.146 43.375,-34.795 43.375,-34.442 43.702,-34.091 43.702,-33.74 43.375,-33.391 43.375,-33.037 43.702,-33.037    44.029,-33.037 44.353,-32.685 44.353,-32.334 44.681,-31.98 45.006,-31.631 45.006,-31.279 44.681,-31.279 44.353,-31.631    44.029,-31.631 43.702,-31.631 43.702,-31.279 43.702,-30.928 44.029,-30.928 44.353,-30.928 44.681,-30.928 45.006,-30.577    45.006,-29.874 45.006,-29.522 45.332,-29.522 45.332,-29.874 45.332,-30.223 45.332,-30.577 45.656,-30.928 45.983,-30.928    45.983,-30.577 45.983,-30.223 46.311,-29.874 46.961,-29.522 46.961,-29.169 46.635,-29.169 46.311,-29.169 45.656,-28.817    45.332,-28.817 45.332,-28.466 45.656,-28.466 45.983,-28.115 46.311,-27.762 46.635,-27.762 46.635,-27.412 46.961,-27.412    47.286,-27.762 47.615,-27.412 47.939,-27.412 48.264,-27.412 48.264,-27.059 47.939,-26.708 47.939,-26.356 48.264,-26.356    48.592,-26.005 49.569,-24.95 49.896,-23.895 50.221,-23.545 50.221,-23.193 50.221,-22.84 50.221,-22.49 49.896,-22.49    49.896,-22.137 49.569,-22.137 49.243,-21.787 49.569,-21.787 49.896,-21.787 50.221,-21.787 50.544,-21.787 50.221,-21.435    49.896,-21.083 49.896,-20.733 50.221,-20.733 50.544,-20.733 50.874,-20.733 51.198,-20.733 51.525,-20.38 51.525,-20.026    51.848,-20.026 52.178,-20.026 52.178,-20.38 52.501,-20.38 52.501,-20.733 52.826,-21.083 53.155,-20.733 53.479,-20.733    53.479,-20.38 53.155,-20.026 53.155,-19.677 53.808,-19.677 54.13,-19.327 54.46,-19.677 54.782,-19.677 55.109,-19.677    55.109,-19.327 55.109,-18.972 55.109,-18.621 55.437,-18.621 56.089,-18.621 56.412,-18.621 56.74,-18.972 57.066,-18.972    57.391,-18.621 57.718,-18.271 57.718,-17.918 57.718,-17.567 58.043,-17.214 58.371,-17.214 58.695,-16.863 59.347,-16.863    59.347,-16.512 58.695,-16.512 58.371,-16.161 58.043,-15.458 57.718,-15.104 57.718,-14.75 56.74,-14.048 56.412,-14.048    56.412,-13.699 56.74,-13.699 56.74,-13.348 56.74,-12.996 56.74,-12.646 56.412,-12.646 56.089,-12.646 56.089,-12.996    55.762,-12.996 55.437,-12.646 55.109,-12.646 55.109,-12.291 54.782,-11.941 54.46,-11.237 54.46,-10.886 53.808,-10.886    53.479,-10.534 53.479,-10.184 53.155,-10.184 52.501,-10.184 52.178,-9.83 52.178,-9.48 51.848,-9.126 51.848,-8.777    51.525,-8.777 50.874,-8.424 51.198,-8.424 51.198,-8.073 51.525,-8.073 51.198,-7.723 50.874,-7.723 50.544,-7.368    50.221,-7.368 49.896,-7.018 49.896,-6.667 49.569,-6.316 49.243,-5.963 48.915,-5.613 48.592,-5.613 48.264,-5.26 47.939,-5.26    47.286,-5.26 46.635,-4.908 46.311,-4.908 45.983,-5.26 45.983,-5.613 45.656,-5.613 45.332,-5.613 45.006,-5.613 44.681,-5.613    44.353,-5.613 44.353,-5.963 44.029,-5.963 43.702,-5.963 43.375,-5.963 42.724,-5.963 41.748,-5.963 41.42,-5.963 40.77,-5.963    40.443,-5.613 39.789,-5.613 39.789,-5.963 40.119,-6.316 39.466,-6.316 39.139,-6.316 39.139,-6.667 38.814,-7.018    38.488,-7.018 38.16,-7.018 38.16,-7.368 38.16,-7.723 37.835,-8.073 37.509,-8.073 37.184,-8.073 36.857,-8.424 36.531,-8.424    35.878,-8.424 35.556,-8.424 35.228,-8.777 34.902,-8.777 34.902,-9.48 34.902,-9.83 34.576,-9.83 34.251,-10.184 34.251,-10.534    34.251,-11.237 34.251,-11.59 34.576,-11.941 34.576,-12.291 34.902,-12.646 34.902,-12.996 35.228,-13.348 35.228,-14.048    35.556,-14.403 36.206,-15.104 36.531,-15.458 36.857,-15.81 36.857,-16.161 37.184,-16.512 37.509,-16.863 37.835,-17.214    38.16,-17.567 38.16,-17.918 38.16,-18.271 38.16,-18.972 38.16,-19.327 38.16,-19.677 38.16,-20.026 37.835,-20.026    37.509,-20.38 36.857,-20.38 36.206,-20.38 35.878,-20.38 35.228,-20.38 34.902,-20.38 34.251,-20.026 33.924,-20.026    33.274,-20.026 32.622,-19.677 31.969,-19.677 31.316,-19.677 31.316,-20.026 31.316,-20.38 31.642,-20.733 31.969,-21.083    31.969,-21.435 31.969,-21.787 32.292,-22.49 32.622,-22.84 32.946,-23.193 32.946,-23.895 32.946,-24.248 32.946,-24.599    32.622,-24.95 32.622,-25.654 32.946,-26.356 32.622,-26.356 32.292,-26.708 31.969,-27.412 31.642,-28.115 31.316,-29.169    31.316,-29.874 30.991,-30.577 30.663,-31.279 30.34,-31.98 30.012,-31.98 29.362,-31.98 28.709,-31.98 28.383,-32.334    28.059,-32.685 27.406,-33.391 27.079,-33.391 27.079,-33.74 27.079,-34.091 27.73,-34.442 27.73,-34.795 27.406,-35.146    27.73,-35.498 28.059,-35.498 28.059,-35.85 27.73,-36.201 27.73,-36.555 27.73,-36.903 27.73,-37.259 27.73,-37.606    27.73,-37.96 27.73,-38.312 28.059,-38.312 28.059,-38.663 28.383,-38.663 27.73,-38.663 27.406,-38.663 27.079,-39.016    27.406,-39.367 27.406,-40.069 27.406,-40.422 27.73,-40.422 28.059,-40.422 28.383,-40.422 28.709,-40.772 29.033,-40.772    29.362,-40.422 29.688,-40.069 30.34,-40.069 30.663,-40.069 30.991,-40.069 31.316,-40.069 30.991,-40.422 31.642,-40.422    31.969,-40.422 32.292,-40.772 32.622,-40.772 32.946,-40.772 33.596,-40.772 34.251,-40.422 34.576,-40.422 34.902,-40.772    35.228,-40.772 35.556,-41.125 35.878,-41.125 36.206,-41.125 36.206,-40.772 36.206,-40.422 35.878,-40.069 36.206,-40.069    36.531,-40.069 36.531,-39.719 36.857,-39.367 37.184,-39.367 37.509,-39.367 37.835,-39.367 37.835,-39.719 37.835,-40.069    38.16,-40.069 38.16,-40.422 38.16,-40.772 38.16,-41.476 38.16,-41.826 38.488,-42.179 38.814,-42.179 39.139,-42.179    39.139,-42.529 39.466,-42.881 39.789,-42.881 40.119,-42.881 40.119,-43.234 40.443,-43.234 40.77,-42.881 41.093,-42.881    41.42,-42.881   " id="upazila_314" area="upazlia" name="nawabganj" bengali="নবাবগঞ্জ" parent="dinajpur"></polygon></svg>