<svg enable-background="new -106.403 -201.859 629.266 880.536" height="880.536px" id="district_41" viewBox="-106.403 -201.859 629.266 880.536" width="629.266px" x="0px" xml:space="preserve" xmlns="http://www.w3.org/2000/svg" y="0px"><polygon points="106.281,4.232 106.935,3.883 106.935,3.529 106.935,3.178 106.606,3.529 106.281,3.529    106.281,2.828 106.606,2.828 106.935,2.828 106.606,2.475 106.606,2.123 106.281,2.123 105.956,2.123 105.628,2.123    105.956,2.123 105.956,1.771 106.281,1.771 106.606,1.069 106.935,0.364 106.935,0.014 106.606,-0.337 106.281,-0.337    106.281,-1.039 106.606,-1.393 106.935,-1.746 107.259,-1.393 107.585,-1.746 107.585,-2.096 107.259,-2.096 107.259,-2.446    107.259,-2.799 107.585,-3.151 107.585,-3.503 107.909,-4.205 107.909,-4.558 107.585,-4.205 107.259,-4.205 106.935,-4.205    107.259,-4.558 107.585,-4.908 107.909,-4.908 108.238,-5.26 108.238,-5.963 108.238,-6.315 107.909,-6.315 107.259,-5.963    107.259,-6.315 107.259,-6.666 107.585,-6.666 107.909,-7.018 107.585,-7.018 107.585,-7.37 107.585,-7.722 107.585,-8.072    107.585,-8.424 108.238,-9.126 108.564,-9.48 108.888,-9.48 109.214,-9.48 109.539,-9.48 110.193,-9.48 110.845,-9.48    111.168,-9.48 111.498,-9.831 111.822,-10.181 112.15,-10.181 112.472,-10.181 113.127,-10.181 113.452,-10.533 113.779,-10.533    114.432,-10.533 114.754,-10.181 115.082,-10.533 115.733,-10.181 116.385,-10.181 116.385,-9.831 116.713,-9.48 117.036,-8.776    117.365,-8.776 118.015,-8.424 118.342,-8.424 118.665,-8.424 118.995,-8.776 118.995,-9.126 118.665,-9.48 118.995,-9.831    118.995,-10.181 119.319,-9.831 119.646,-9.831 120.296,-10.181 120.296,-10.533 120.624,-10.886 120.624,-11.237    120.948,-11.588 121.6,-12.292 121.6,-12.994 121.928,-13.348 121.928,-14.048 121.6,-14.402 121.928,-14.753 122.251,-14.753    122.578,-14.753 122.905,-14.402 123.557,-14.402 123.557,-14.753 123.557,-15.104 123.557,-15.457 123.557,-16.161    123.557,-16.861 123.557,-17.215 123.557,-17.567 123.882,-17.917 124.532,-17.917 125.187,-17.917 125.187,-17.567    124.858,-17.567 124.532,-16.861 124.858,-16.861 125.187,-16.512 125.187,-15.808 125.511,-15.808 126.162,-15.457    126.815,-15.104 126.815,-14.753 126.815,-14.402 126.815,-13.348 126.815,-12.643 127.14,-11.939 127.468,-11.588    127.468,-11.939 127.793,-11.939 128.119,-11.939 128.445,-11.588 128.445,-11.237 128.445,-10.533 128.772,-10.533    129.097,-10.886 129.42,-10.181 129.75,-9.831 129.75,-9.48 129.75,-9.126 130.073,-8.424 130.073,-8.072 130.401,-7.37    130.726,-7.018 130.726,-6.315 130.726,-5.613 130.726,-4.908 131.054,-4.558 131.379,-4.205 131.702,-3.853 132.031,-3.503    132.355,-3.151 132.355,-2.799 132.355,-2.446 132.031,-1.746 132.031,-1.393 131.702,-0.691 131.379,0.014 131.379,0.364    131.379,0.718 131.702,1.421 131.702,2.123 132.031,2.475 132.031,2.828 132.031,3.178 131.379,3.529 131.379,3.883    131.054,4.232 130.726,4.584 130.401,4.938 130.073,4.938 129.42,4.938 128.445,4.584 127.468,4.584 126.815,4.584 125.837,4.584    125.511,4.938 124.858,5.289 124.532,5.641 124.208,6.344 124.208,6.696 123.882,7.398 123.882,8.102 123.229,8.806    122.905,9.156 122.905,9.508 122.578,9.508 122.251,10.21 121.928,10.562 121.6,11.265 121.275,11.617 121.275,11.969    121.6,12.319 121.6,12.673 121.6,13.023 121.275,13.726 121.275,14.079 120.948,14.429 120.624,14.781 120.296,15.133    119.969,15.484 119.319,16.539 118.995,16.892 118.342,17.593 118.342,17.946 118.342,18.297 118.015,18.297 118.015,18.649    118.015,19.353 118.015,19.704 118.015,20.407 118.015,20.758 118.015,21.11 118.342,22.518 118.015,22.868 117.365,22.518    117.036,22.868 116.385,22.518 115.733,22.868 115.082,22.868 114.432,22.518 114.432,22.164 114.103,22.164 113.779,22.868    113.779,23.572 113.779,23.922 113.779,24.627 113.452,24.978 113.127,25.33 112.802,24.978 112.802,24.627 112.472,24.275    112.15,23.922 112.15,23.221 112.15,22.518 112.15,21.815 112.15,21.461 112.472,21.461 112.472,21.11 112.802,21.11    113.127,20.758 113.127,20.053 113.452,19.704 113.452,19.353 113.452,19 113.452,18.297 113.452,17.593 113.452,17.241    113.452,16.892 113.127,16.539 112.802,16.539 112.472,16.892 112.472,17.593 112.15,17.593 111.822,17.593 111.498,17.593    111.498,17.241 111.498,16.892 111.498,16.539 111.498,15.836 111.498,15.133 111.822,14.781 112.15,14.781 112.472,15.133    112.802,14.781 112.802,14.429 112.802,13.726 112.802,13.374 112.15,13.023 111.822,13.023 111.498,12.673 111.168,11.969    110.193,11.617 109.867,11.617 109.214,11.617 109.214,11.265 109.214,10.914 109.539,10.562 109.539,10.21 109.214,10.21    109.214,9.858 108.888,9.508 108.888,9.156 108.564,8.806 108.564,8.452 108.238,8.102 108.238,7.75 107.909,7.398 107.585,7.398    107.585,7.046 107.585,6.696 107.259,6.344 106.935,6.344 106.606,6.344 106.606,5.99 106.935,5.641 107.259,5.641 107.259,5.99    107.585,5.641 107.585,5.289 107.585,4.938 107.585,4.584 107.259,4.584 106.935,4.584 106.606,4.584   " id="upazila_316" area="upazlia" name="phulchari" bengali="ফুলছড়ি" parent="gaibandha"></polygon><polygon points="68.148,-5.613 69.126,-5.613 69.777,-5.613 70.102,-5.613 70.43,-5.613 71.08,-5.613    71.732,-5.613 72.06,-5.963 72.712,-5.963 73.364,-5.963 74.016,-5.963 74.663,-5.963 74.994,-5.963 75.645,-5.963 75.968,-6.316    76.621,-6.667 76.947,-5.963 77.275,-5.613 77.275,-4.908 77.275,-4.558 77.599,-4.206 77.599,-4.558 77.927,-4.558 78.25,-4.908    78.578,-4.908 78.904,-5.26 78.904,-5.613 78.578,-5.963 78.904,-5.963 79.228,-6.316 79.556,-6.316 79.881,-5.963 80.207,-5.963    80.531,-5.963 80.86,-5.963 81.186,-5.963 81.51,-5.613 81.836,-5.613 81.836,-5.963 82.161,-5.963 82.49,-5.963 82.814,-5.963    82.814,-6.316 82.814,-6.667 83.142,-6.667 83.467,-6.667 83.79,-6.667 83.79,-6.316 84.118,-6.316 84.444,-6.316 84.771,-5.963    85.094,-5.613 85.421,-5.613 85.749,-5.613 86.073,-5.26 86.4,-5.26 87.053,-5.613 87.376,-5.963 87.703,-6.316 88.682,-6.316    89.007,-6.316 89.333,-6.667 89.658,-6.667 89.984,-6.667 90.312,-6.667 90.637,-6.667 90.962,-7.018 91.286,-7.018    91.615,-7.018 91.941,-7.018 92.266,-6.667 92.593,-6.667 92.916,-7.018 92.916,-6.667 93.246,-6.316 93.569,-5.963    93.897,-5.963 93.897,-5.613 93.569,-5.26 93.246,-5.26 92.916,-5.26 92.916,-4.908 93.246,-4.558 93.569,-4.558 93.897,-4.908    94.22,-4.558 94.55,-4.558 94.55,-4.206 94.22,-4.206 93.897,-4.206 93.569,-3.855 93.569,-3.503 93.569,-3.151 93.569,-2.801    93.897,-2.801 93.897,-2.446 93.569,-2.096 93.569,-1.746 93.897,-1.746 93.897,-1.394 94.55,-1.394 94.875,-1.394 95.201,-1.394    95.527,-1.394 95.851,-1.394 96.179,-1.746 96.83,-1.746 97.156,-1.746 97.481,-0.691 97.809,-0.337 98.133,-0.337 98.133,-0.691    98.459,-1.394 98.784,-1.394 99.438,-1.394 99.763,-1.039 100.413,-1.039 100.741,-0.691 100.741,-0.337 100.741,0.012    100.741,0.364 100.413,0.364 100.413,0.718 100.741,0.718 101.066,1.066 100.741,1.42 100.413,1.42 100.09,1.42 99.763,1.771    100.09,1.771 100.09,2.123 99.763,2.123 99.438,2.123 99.113,2.473 99.113,2.828 99.113,3.178 99.438,3.529 99.763,3.881    100.09,4.584 99.763,5.287 99.763,5.99 99.438,6.342 99.763,6.342 100.09,6.342 100.741,6.696 100.741,7.046 100.741,7.398    100.741,7.748 100.413,7.748 100.741,8.452 101.066,8.452 101.066,9.155 100.741,9.508 101.066,10.209 100.413,10.209    100.09,10.561 99.763,10.914 99.438,10.914 99.113,10.561 99.113,10.209 99.113,9.858 98.784,9.858 98.459,9.858 97.809,9.858    97.809,9.508 97.481,9.155 97.481,8.804 97.156,8.804 97.156,8.452 96.83,8.452 96.179,8.452 95.851,8.452 95.527,8.102    95.851,7.398 96.179,7.046 96.504,6.696 96.179,6.342 95.851,5.99 96.179,5.641 96.179,5.287 96.179,4.937 95.851,5.287    95.527,5.287 95.201,5.641 94.55,5.641 94.22,5.641 93.569,5.287 93.569,4.937 93.897,4.584 94.22,4.937 94.55,4.937 94.55,4.584    94.875,4.232 94.875,3.881 94.875,3.178 94.55,3.178 94.22,2.828 93.897,3.178 93.569,3.178 92.916,3.529 92.593,3.529    92.266,3.178 91.941,3.178 91.615,2.828 90.637,3.178 89.984,3.178 89.658,2.828 89.007,2.473 88.354,1.771 88.354,2.123    88.354,2.473 88.03,2.473 88.03,2.123 87.703,1.771 87.376,1.771 87.376,2.123 87.376,2.473 87.703,2.828 87.376,2.828    87.053,3.178 86.725,3.529 86.725,3.881 87.053,4.232 87.376,4.584 87.053,4.584 86.725,4.584 86.4,4.584 85.749,4.584    85.421,4.584 84.771,4.937 84.444,4.232 84.444,3.881 84.118,3.529 83.79,3.529 83.467,3.881 83.142,4.232 82.814,4.232    82.49,4.937 82.161,4.937 81.51,4.937 81.186,4.937 81.186,5.641 80.86,5.287 80.531,5.287 80.207,4.937 80.531,4.584    80.207,4.232 79.881,3.881 79.881,3.529 79.556,3.529 79.228,3.529 79.228,3.178 79.228,2.473 79.228,2.123 78.904,2.123    78.578,2.123 78.25,2.123 77.599,2.123 77.275,1.771 76.947,1.42 76.621,1.42 76.621,1.771 76.947,2.123 76.947,2.473    77.599,2.828 77.599,3.178 77.599,3.529 77.927,3.881 78.25,3.881 78.578,4.584 77.927,4.584 77.599,4.937 77.927,5.287    77.927,5.641 78.25,5.99 78.578,6.342 78.578,6.696 78.25,7.046 77.599,6.696 76.947,5.99 76.296,5.99 76.296,6.342 76.296,6.696    76.621,7.046 76.296,7.398 75.968,7.398 75.645,7.398 75.317,7.398 74.663,7.046 74.341,6.342 73.689,6.342 73.689,5.99    73.034,6.342 72.712,5.99 72.712,5.641 73.034,5.641 73.034,5.287 72.712,4.937 72.384,4.937 71.732,4.937 71.08,4.937    70.755,4.937 70.43,4.937 70.43,4.584 70.102,4.232 69.777,3.529 69.451,3.178 69.126,2.123 69.126,1.42 68.801,1.066    68.801,0.718 68.471,0.364 67.821,0.364 67.495,0.012 67.169,-0.337 66.844,-0.337 66.844,-0.691 66.844,-1.394 66.519,-1.394    66.191,-1.746 66.191,-2.096 65.866,-2.446 65.538,-2.446 65.215,-2.446 65.538,-2.801 65.538,-3.151 65.215,-3.151    64.563,-3.503 64.238,-3.503 64.238,-3.855 64.563,-3.855 64.888,-4.206 65.215,-4.206 66.191,-4.206 66.519,-4.558    66.519,-4.908 65.866,-4.908 65.866,-5.26 65.866,-5.613 65.866,-5.963 66.519,-5.613 66.844,-5.613 67.495,-5.613   " id="upazila_319" area="upazlia" name="palashbari" bengali="পলাশবাড়ী" parent="gaibandha"></polygon><polygon points="99.112,-25.652 99.438,-25.652 99.763,-25.302 100.413,-25.302 100.74,-25.302 101.067,-25.652    101.392,-26.004 102.696,-26.004 103.021,-25.652 103.348,-25.302 103.674,-25.302 104.001,-25.652 104.324,-25.652    104.653,-25.652 104.977,-25.652 105.628,-25.652 105.628,-26.004 105.628,-26.356 105.955,-26.708 106.281,-26.708    106.606,-26.708 106.935,-26.356 107.259,-26.004 107.584,-25.652 107.584,-24.948 108.238,-24.598 108.564,-24.598    109.214,-24.948 109.539,-24.948 109.866,-24.598 110.193,-24.247 110.518,-23.895 110.518,-23.192 110.845,-22.84    111.498,-22.84 111.822,-22.84 112.149,-22.84 112.472,-22.84 112.472,-22.49 112.472,-22.137 112.8,-21.785 113.127,-21.785    113.452,-21.785 113.779,-21.785 114.103,-21.785 114.103,-21.435 113.779,-21.435 113.452,-21.081 113.779,-21.081    114.103,-20.729 114.431,-20.38 114.754,-20.729 115.081,-21.081 115.406,-21.081 115.406,-20.729 115.733,-20.729    116.061,-20.38 116.385,-20.026 117.036,-20.026 117.364,-20.026 117.69,-20.026 118.342,-20.026 118.993,-19.675    119.969,-19.325 120.296,-19.325 120.624,-19.675 120.948,-20.026 121.276,-20.026 121.6,-20.38 121.926,-20.38 122.251,-20.729    122.905,-20.729 123.229,-20.729 123.882,-20.729 124.859,-20.729 124.532,-20.38 124.207,-20.026 124.532,-19.675    124.859,-19.675 124.859,-19.325 125.187,-19.325 125.511,-19.675 125.836,-19.325 126.162,-18.972 126.815,-19.325    127.793,-19.325 128.77,-19.675 129.42,-19.675 129.75,-19.675 130.073,-19.675 130.401,-19.675 130.401,-18.972 130.726,-18.621    131.052,-18.621 131.379,-18.621 131.702,-18.621 131.702,-18.269 131.379,-17.567 131.052,-17.214 131.052,-16.861    130.726,-16.512 130.401,-16.512 130.726,-16.161 130.726,-15.808 130.401,-15.458 130.073,-15.458 129.75,-14.753    129.42,-14.402 128.77,-14.048 128.445,-14.048 128.118,-13.699 127.793,-13.699 128.118,-13.348 128.118,-12.994    128.445,-12.643 128.445,-12.292 128.77,-11.939 129.097,-11.588 129.097,-11.237 129.097,-10.886 128.77,-10.533    128.445,-10.533 128.445,-11.237 128.445,-11.588 128.118,-11.939 127.793,-11.939 127.468,-11.939 127.468,-11.588    127.14,-11.939 126.815,-12.643 126.815,-13.348 126.815,-14.402 126.815,-14.753 126.815,-15.104 126.162,-15.458    125.511,-15.808 125.187,-15.808 125.187,-16.512 124.859,-16.861 124.532,-16.861 124.859,-17.567 125.187,-17.567    125.187,-17.917 124.532,-17.917 123.882,-17.917 123.555,-17.567 123.555,-17.214 123.555,-16.861 123.555,-16.161    123.555,-15.458 123.555,-15.104 123.555,-14.753 123.555,-14.402 122.905,-14.402 122.578,-14.753 122.251,-14.753    121.926,-14.753 121.6,-14.402 121.926,-14.048 121.926,-13.348 121.6,-12.994 121.6,-12.292 120.948,-11.588 120.624,-11.237    120.624,-10.886 120.296,-10.533 120.296,-10.181 119.644,-9.831 119.319,-9.831 118.993,-10.181 118.993,-9.831 118.665,-9.48    118.993,-9.126 118.993,-8.776 118.665,-8.424 118.342,-8.424 118.015,-8.424 117.364,-8.776 117.036,-8.776 116.713,-9.48    116.385,-9.831 116.385,-10.181 115.733,-10.181 115.081,-10.533 114.754,-10.181 114.431,-10.533 113.779,-10.533    113.452,-10.533 113.127,-10.181 112.472,-10.181 112.149,-10.181 111.822,-10.181 111.498,-9.831 111.168,-9.48 110.845,-9.48    110.193,-9.48 109.539,-9.48 109.214,-9.48 108.888,-9.48 108.564,-9.48 108.238,-9.126 107.584,-8.424 107.584,-8.072    107.584,-7.722 107.584,-7.37 107.584,-7.018 107.909,-7.018 107.584,-6.666 107.259,-6.666 107.259,-6.315 107.259,-5.963    107.909,-6.315 108.238,-6.315 108.238,-5.963 108.238,-5.26 107.909,-4.908 107.584,-4.908 107.259,-4.558 106.935,-4.205    107.259,-4.205 107.584,-4.205 107.909,-4.558 107.909,-4.205 107.584,-3.503 107.584,-3.151 107.259,-2.799 107.259,-2.446    107.259,-2.096 107.584,-2.096 107.584,-1.743 107.259,-1.393 106.935,-1.743 106.606,-1.393 106.281,-1.039 106.281,-0.336    106.606,-0.336 106.935,0.014 106.935,0.364 106.606,1.069 106.281,1.771 105.955,1.771 105.955,2.126 105.628,2.126    105.955,2.126 106.281,2.126 106.606,2.126 106.606,2.475 106.935,2.828 106.606,2.828 106.281,2.828 106.281,3.532    106.606,3.532 106.935,3.178 106.935,3.532 106.935,3.883 106.281,4.232 105.955,4.584 105.303,4.938 104.977,5.289    104.653,5.641 104.001,5.641 103.674,5.289 103.348,5.289 103.021,5.289 102.696,5.641 102.372,5.641 102.372,5.99 102.042,6.344    101.719,6.344 101.392,5.99 101.067,5.99 100.74,6.696 100.09,6.344 99.763,6.344 99.438,6.344 99.763,5.99 99.763,5.289    100.09,4.584 99.763,3.883 99.438,3.532 99.112,3.178 99.112,2.828 99.112,2.475 99.438,2.126 99.763,2.126 100.09,2.126    100.09,1.771 99.763,1.771 100.09,1.421 100.413,1.421 100.74,1.421 101.067,1.069 100.74,0.718 100.413,0.718 100.413,0.364    100.74,0.364 100.74,0.014 100.74,-0.336 100.74,-0.692 100.413,-1.039 99.763,-1.039 99.438,-1.393 98.784,-1.393 98.458,-1.393    98.133,-0.692 98.133,-0.336 97.809,-0.336 97.481,-0.692 97.156,-1.743 96.829,-1.743 96.179,-1.743 95.851,-1.393    95.527,-1.393 95.2,-1.393 94.875,-1.393 94.547,-1.393 93.897,-1.393 93.897,-1.743 93.569,-1.743 93.569,-2.096 93.897,-2.446    93.897,-2.799 93.569,-2.799 93.569,-3.151 93.569,-3.503 93.569,-3.853 93.897,-4.205 94.22,-4.205 94.547,-4.205 94.547,-4.558    94.22,-4.558 93.897,-4.908 93.569,-4.558 93.246,-4.558 92.916,-4.908 92.916,-5.26 93.246,-5.26 93.569,-5.26 93.897,-5.615    93.897,-5.963 93.569,-5.963 93.246,-6.315 92.916,-6.666 92.916,-7.018 92.594,-6.666 92.265,-6.666 91.941,-7.018    91.615,-7.018 91.287,-7.018 90.961,-7.018 90.636,-6.666 90.312,-6.666 89.983,-6.666 89.658,-6.666 89.332,-6.666    89.008,-6.315 88.68,-6.315 87.703,-6.315 88.03,-6.666 88.03,-7.37 88.03,-8.072 88.03,-8.776 88.354,-9.126 88.68,-9.48    89.008,-9.831 88.68,-10.181 88.354,-10.533 88.354,-10.886 88.354,-11.237 88.68,-11.939 88.354,-12.292 88.354,-12.643    88.68,-12.643 89.008,-12.643 89.332,-12.292 89.332,-12.643 89.658,-12.994 89.983,-12.994 89.983,-12.643 89.983,-11.939    90.312,-11.588 90.961,-11.588 91.287,-11.939 91.941,-11.939 92.265,-11.939 92.594,-11.588 92.916,-11.588 93.246,-11.588    93.569,-11.939 93.897,-11.588 94.22,-11.588 94.22,-11.939 93.897,-12.292 93.897,-12.643 93.897,-12.994 93.569,-12.994    93.246,-12.994 93.246,-13.348 93.569,-13.348 93.897,-13.348 94.22,-13.348 93.897,-13.699 93.569,-13.699 93.569,-14.048    93.897,-14.048 94.22,-14.402 94.547,-14.753 94.22,-14.753 94.22,-15.104 94.22,-15.458 93.897,-15.458 93.569,-15.104    93.569,-15.808 93.569,-16.161 93.246,-15.808 93.246,-16.161 93.569,-16.512 93.897,-16.512 94.22,-16.161 94.547,-15.808    95.2,-15.458 95.527,-15.458 95.851,-15.458 96.179,-15.104 96.179,-15.458 96.504,-15.808 97.156,-16.512 97.809,-17.214    98.133,-17.567 97.809,-17.917 97.481,-18.269 97.156,-18.269 97.156,-18.621 97.156,-18.972 96.829,-19.325 97.156,-20.026    97.481,-20.38 97.809,-20.729 98.133,-20.729 98.458,-20.729 98.458,-21.081 98.784,-21.435 99.438,-21.435 99.763,-21.435    99.763,-21.785 100.09,-22.137 100.09,-22.49 99.763,-22.84 99.438,-23.192 98.784,-23.192 99.112,-23.895 99.438,-24.247    99.438,-24.598 99.112,-24.948   " id="upazila_317" area="upazlia" name="gaibandhasadar" bengali="গাইবান্ধা-সদর" parent="gaibandha"></polygon><polygon points="85.421,-43.937 85.421,-44.64 85.421,-44.991 85.747,-45.342 85.747,-45.694 86.074,-46.045    85.747,-46.747 85.747,-47.1 86.074,-47.452 86.4,-47.802 86.725,-47.802 87.378,-47.452 87.703,-47.452 88.354,-47.802    88.682,-47.802 89.008,-48.155 89.008,-47.802 89.332,-47.452 89.658,-47.1 89.984,-47.1 90.311,-47.452 90.636,-47.802    91.287,-47.802 91.615,-47.802 91.941,-48.155 92.266,-48.506 92.593,-48.859 93.244,-48.859 93.57,-48.859 93.897,-48.506    94.22,-48.155 94.22,-47.802 94.55,-47.802 95.2,-47.452 95.526,-47.1 95.526,-46.747 95.852,-46.045 96.179,-45.694    96.504,-45.694 96.829,-45.694 97.156,-46.045 96.829,-46.398 96.829,-46.747 97.156,-46.747 97.481,-46.747 97.481,-47.1    96.829,-47.452 96.504,-47.802 96.179,-48.155 96.179,-48.506 96.179,-48.859 96.179,-49.563 96.504,-50.266 96.829,-50.968    96.829,-51.321 97.156,-51.321 97.481,-50.968 97.808,-50.968 98.134,-50.968 98.134,-51.321 97.808,-51.669 97.481,-52.024    97.481,-52.374 97.808,-52.374 98.134,-52.024 98.459,-52.024 99.112,-52.024 99.438,-52.024 99.763,-52.374 100.088,-52.374    100.413,-52.729 100.741,-52.729 100.741,-53.079 100.413,-53.079 100.741,-53.429 100.741,-53.782 101.067,-54.132    101.392,-54.835 102.044,-55.541 102.37,-55.541 103.348,-55.541 103.348,-55.188 104.001,-54.835 104.326,-54.835    104.652,-54.132 104.652,-53.429 104.652,-53.079 104.652,-52.729 104.652,-52.374 104.326,-51.669 104.326,-51.321    104.652,-50.968 104.652,-50.617 104.001,-50.617 103.674,-50.617 103.674,-49.912 103.348,-49.563 103.023,-49.563    102.696,-49.912 102.37,-49.912 102.37,-49.563 102.696,-49.209 103.023,-48.506 103.023,-48.155 103.674,-47.802    104.001,-47.802 104.652,-47.452 105.305,-47.452 105.955,-47.1 106.607,-47.1 107.259,-46.747 107.585,-46.398 107.91,-45.694    108.238,-45.342 108.563,-44.991 109.214,-44.287 109.539,-43.584 109.866,-43.234 110.518,-43.234 110.845,-43.234    111.17,-43.234 111.498,-43.584 111.822,-43.937 112.149,-44.287 112.474,-44.64 112.802,-44.64 113.452,-44.64 113.779,-44.64    114.431,-44.287 114.756,-43.937 115.406,-43.584 116.061,-43.234 116.386,-42.881 116.386,-42.529 116.711,-41.826    117.365,-41.476 118.015,-41.124 118.667,-41.124 118.993,-40.772 119.319,-40.772 119.646,-40.772 119.971,-40.419    119.971,-40.069 120.296,-39.719 120.949,-39.719 121.6,-39.719 121.928,-39.364 122.578,-39.364 122.904,-39.719    123.557,-39.719 123.882,-39.719 124.207,-39.719 124.533,-39.364 124.207,-38.661 123.882,-38.661 123.882,-38.312    123.557,-37.958 123.23,-37.958 122.904,-37.606 122.578,-37.257 122.578,-36.903 122.578,-36.555 122.904,-36.2 122.904,-35.852    122.904,-35.495 123.23,-35.146 123.882,-34.795 124.533,-34.442 124.859,-34.091 124.533,-33.391 124.207,-33.037    122.904,-33.037 122.253,-33.037 121.6,-33.037 121.275,-33.037 120.949,-32.685 120.949,-32.332 120.949,-31.631 121.6,-31.631    121.928,-31.277 122.578,-30.577 122.578,-29.874 122.578,-29.52 122.578,-29.171 122.904,-29.171 123.23,-29.171    123.882,-29.171 124.207,-29.171 124.207,-29.52 124.859,-29.52 125.512,-29.52 125.837,-29.171 125.837,-28.815 125.512,-28.113    125.512,-27.411 125.186,-26.355 124.859,-25.302 124.533,-24.598 124.533,-24.248 124.207,-23.894 123.882,-23.545    123.557,-23.192 123.23,-22.84 123.23,-22.488 123.557,-22.488 124.207,-22.84 124.533,-22.84 124.859,-22.84 125.186,-22.137    125.186,-21.787 125.186,-21.083 124.859,-20.729 123.882,-20.729 123.23,-20.729 122.904,-20.729 122.253,-20.729    121.928,-20.38 121.6,-20.38 121.275,-20.028 120.949,-20.028 120.622,-19.675 120.296,-19.327 119.971,-19.327 118.993,-19.675    118.34,-20.028 117.69,-20.028 117.365,-20.028 117.036,-20.028 116.386,-20.028 116.061,-20.38 115.733,-20.729 115.406,-20.729    115.406,-21.083 115.082,-21.083 114.756,-20.729 114.431,-20.38 114.103,-20.729 113.779,-21.083 113.452,-21.083    113.779,-21.435 114.103,-21.435 114.103,-21.787 113.779,-21.787 113.452,-21.787 113.127,-21.787 112.802,-21.787    112.474,-22.137 112.474,-22.488 112.474,-22.84 112.149,-22.84 111.822,-22.84 111.498,-22.84 110.845,-22.84 110.518,-23.192    110.518,-23.894 110.195,-24.248 109.866,-24.598 109.539,-24.95 109.214,-24.95 108.563,-24.598 108.238,-24.598 107.585,-24.95    107.585,-25.652 107.259,-26.005 106.934,-26.355 106.607,-26.708 106.281,-26.708 105.955,-26.708 105.63,-26.355    105.63,-26.005 105.63,-25.652 104.977,-25.652 104.652,-25.652 104.326,-25.652 104.001,-25.652 103.674,-25.302    103.348,-25.302 103.023,-25.652 102.696,-26.005 101.392,-26.005 101.067,-25.652 100.741,-25.302 100.413,-25.302    99.763,-25.302 99.438,-25.652 99.112,-25.652 98.459,-25.652 98.459,-26.005 97.808,-26.005 97.481,-26.355 97.156,-26.355    97.156,-26.708 97.156,-27.059 96.829,-27.411 96.504,-27.762 96.179,-28.113 95.852,-28.113 95.526,-28.113 95.2,-28.466    94.875,-28.815 94.875,-29.52 95.2,-29.874 95.526,-29.874 95.852,-29.874 95.852,-30.223 95.852,-30.577 95.852,-30.928    96.179,-31.277 96.504,-31.277 96.829,-31.277 97.481,-31.631 97.808,-31.982 98.134,-32.332 98.134,-32.685 97.808,-33.037    97.481,-33.037 97.156,-33.037 96.829,-33.391 96.504,-33.391 96.504,-33.738 96.829,-33.738 97.156,-34.091 97.481,-34.442    97.481,-34.795 97.156,-35.146 96.504,-34.795 96.504,-35.146 96.179,-35.495 96.179,-35.852 95.852,-35.495 95.526,-34.795    95.526,-34.442 95.2,-34.442 94.875,-34.442 94.875,-34.091 94.875,-33.738 94.55,-33.738 94.22,-33.738 93.897,-33.738    93.244,-33.738 92.593,-33.738 92.266,-33.391 91.287,-33.391 90.962,-33.738 90.311,-33.738 89.658,-34.091 89.658,-34.442    89.658,-34.795 89.984,-35.495 89.984,-35.852 89.658,-35.852 89.332,-36.2 89.658,-36.555 89.984,-36.903 89.984,-37.257    89.658,-37.606 89.658,-37.958 89.332,-37.606 89.008,-37.257 89.008,-37.606 88.682,-37.958 89.008,-37.958 89.008,-38.312    89.008,-38.661 89.332,-38.661 89.332,-39.016 89.332,-39.364 89.008,-39.719 88.682,-39.016 88.354,-39.016 88.029,-39.016    87.703,-39.364 87.703,-39.719 88.029,-40.069 87.703,-40.069 87.378,-39.719 87.378,-39.364 87.051,-39.016 87.051,-38.661    86.725,-38.661 86.074,-39.016 86.074,-39.364 86.074,-39.719 85.747,-39.719 85.421,-39.719 85.096,-39.364 84.769,-39.364    84.118,-39.719 84.118,-40.419 84.118,-40.772 84.444,-40.772 85.096,-40.419 85.421,-40.419 85.747,-40.419 85.747,-40.772    85.747,-41.124 85.421,-41.124 85.096,-41.476 85.421,-41.826 85.747,-41.826 86.074,-41.826 86.074,-42.179 85.421,-42.529    85.421,-42.881 85.747,-42.881 85.747,-43.234   " id="upazila_322" area="upazlia" name="sundarganj" bengali="সুন্দরগঞ্জ" parent="gaibandha"></polygon><polygon points="100.741,6.696 101.067,5.99 101.394,5.99 101.719,6.344 102.044,6.344 102.37,5.99 102.37,5.641    102.698,5.641 103.023,5.289 103.348,5.289 103.674,5.289 104.001,5.641 104.652,5.641 104.978,5.289 105.305,4.938    105.955,4.584 106.281,4.232 106.607,4.584 106.934,4.584 107.259,4.584 107.585,4.584 107.585,4.938 107.585,5.289    107.585,5.641 107.259,5.99 107.259,5.641 106.934,5.641 106.607,5.99 106.607,6.344 106.934,6.344 107.259,6.344 107.585,6.696    107.585,7.046 107.585,7.399 107.91,7.399 108.238,7.75 108.238,8.102 108.564,8.452 108.564,8.806 108.889,9.156 108.889,9.508    109.214,9.86 109.214,10.21 109.539,10.21 109.539,10.562 109.214,10.914 109.214,11.266 109.214,11.617 109.867,11.617    110.195,11.617 111.17,11.969 111.498,12.673 111.822,13.023 112.149,13.023 112.802,13.374 112.802,13.726 112.802,14.429    112.802,14.781 112.474,15.133 112.149,14.781 111.822,14.781 111.498,15.133 111.498,15.836 111.498,16.54 111.498,16.892    111.498,17.241 111.498,17.593 111.822,17.593 112.149,17.593 112.474,17.593 112.474,16.892 112.802,16.54 113.127,16.54    113.453,16.892 113.453,17.241 113.453,17.593 113.453,18.297 113.453,19 113.453,19.353 113.453,19.704 113.127,20.053    113.127,20.758 112.802,21.11 112.474,21.11 112.474,21.461 112.149,21.461 112.149,21.815 112.149,22.518 112.149,23.221    112.149,23.922 112.474,24.275 112.802,24.627 112.802,24.978 113.127,25.33 113.453,24.978 113.779,24.627 113.779,23.922    113.779,23.572 113.779,22.868 114.103,22.164 114.431,22.164 114.431,22.518 115.082,22.868 115.733,22.868 116.386,22.518    117.038,22.868 117.365,22.518 118.015,22.868 118.342,22.518 118.342,22.868 118.015,23.572 117.69,23.922 117.365,24.275    117.365,24.627 117.038,25.33 116.711,25.682 116.711,26.033 117.038,26.384 117.365,27.088 117.69,27.439 118.015,27.791    118.342,27.439 118.667,27.439 118.667,27.791 118.667,28.142 118.667,28.495 118.667,28.845 118.667,29.197 118.993,29.899    118.993,30.251 118.993,30.604 118.993,31.306 118.993,31.658 118.667,32.01 118.342,32.01 118.015,32.361 117.365,32.361    117.038,32.715 116.711,33.063 116.386,33.416 116.061,33.416 115.733,33.063 115.406,32.715 114.756,32.361 114.103,32.01    113.453,31.658 112.802,31.306 112.474,31.306 112.149,31.306 111.17,31.658 110.845,32.01 110.518,32.361 109.867,32.361    109.539,32.361 109.214,32.361 108.238,32.361 107.91,32.361 107.585,32.715 107.259,33.063 106.934,33.063 106.607,33.063    106.281,33.063 105.955,33.063 105.305,33.063 104.652,33.063 104.326,33.063 103.674,32.715 103.023,32.715 102.37,32.715    101.719,32.715 101.067,32.715 101.394,31.658 101.394,31.306 100.741,30.955 100.741,30.604 100.415,30.604 100.088,30.604    100.088,30.251 100.088,29.899 99.763,29.899 99.113,29.899 98.784,29.549 98.784,29.197 98.784,28.845 99.113,28.495    99.438,28.142 99.113,27.791 99.113,28.142 98.459,28.142 98.134,28.142 97.809,27.791 97.481,27.791 97.481,27.439    97.809,27.088 97.809,26.735 97.809,26.384 97.481,26.384 97.156,26.033 97.481,25.682 97.481,25.33 97.809,25.682 98.134,25.682    98.134,25.33 98.134,24.978 98.459,24.978 98.784,24.627 99.113,24.275 99.113,23.922 99.438,23.922 99.113,23.572 98.784,22.868    98.459,22.518 98.459,22.164 98.459,21.815 98.459,21.461 98.134,21.11 97.809,20.758 97.809,20.407 97.481,20.053 96.83,19.704    96.83,19.353 97.156,19.353 97.481,19.353 97.809,19 97.809,18.649 97.481,18.649 96.83,18.297 96.504,18.297 96.179,18.649    95.852,18.297 95.527,17.946 95.527,17.593 95.852,17.241 96.179,16.892 96.504,16.54 96.504,16.186 96.179,16.186 95.852,16.186    95.852,15.836 96.179,15.484 96.504,15.133 96.504,14.781 96.504,14.429 96.504,14.079 96.504,13.726 96.504,13.374 96.83,13.023    96.83,12.673 96.83,12.319 97.156,11.969 97.809,11.969 97.809,11.617 97.809,11.266 97.809,10.562 98.134,10.562 98.459,10.21    98.459,9.86 98.784,9.86 99.113,9.86 99.113,10.21 99.113,10.562 99.438,10.914 99.763,10.914 100.088,10.562 100.415,10.21    101.067,10.21 100.741,9.508 101.067,9.156 101.067,8.452 100.741,8.452 100.415,7.75 100.741,7.75 100.741,7.399 100.741,7.046      " id="upazila_321" area="upazlia" name="saghata" bengali="সাঘাটা" parent="gaibandha"></polygon><polygon points="85.421,-29.874 85.747,-29.52 86.074,-29.52 86.725,-29.52 87.051,-29.874 87.051,-30.223    87.051,-30.577 87.378,-30.928 87.378,-31.277 87.703,-31.277 88.029,-31.277 88.354,-31.277 88.682,-31.277 88.682,-31.631    88.682,-31.982 89.008,-32.334 89.008,-32.685 89.332,-33.037 89.658,-32.685 89.984,-33.037 90.311,-33.738 90.962,-33.738    91.287,-33.391 92.266,-33.391 92.593,-33.738 93.244,-33.738 93.897,-33.738 94.22,-33.738 94.55,-33.738 94.875,-33.738    94.875,-34.091 94.875,-34.442 95.2,-34.442 95.526,-34.442 95.526,-34.795 95.852,-35.495 96.179,-35.852 96.179,-35.495    96.504,-35.146 96.504,-34.795 97.156,-35.146 97.481,-34.795 97.481,-34.442 97.156,-34.091 96.829,-33.738 96.504,-33.738    96.504,-33.391 96.829,-33.391 97.156,-33.037 97.481,-33.037 97.808,-33.037 98.134,-32.685 98.134,-32.334 97.808,-31.982    97.481,-31.631 96.829,-31.277 96.504,-31.277 96.179,-31.277 95.852,-30.928 95.852,-30.577 95.852,-30.223 95.852,-29.874    95.526,-29.874 95.2,-29.874 94.875,-29.52 94.875,-28.815 95.2,-28.466 95.526,-28.115 95.852,-28.115 96.179,-28.115    96.504,-27.762 96.829,-27.412 97.156,-27.059 97.156,-26.708 97.156,-26.355 97.481,-26.355 97.808,-26.005 98.459,-26.005    98.459,-25.652 99.112,-25.652 99.112,-24.95 99.438,-24.598 99.438,-24.248 99.112,-23.894 98.784,-23.193 99.438,-23.193    99.763,-22.84 100.088,-22.49 100.088,-22.137 99.763,-21.787 99.763,-21.433 99.438,-21.433 98.784,-21.433 98.459,-21.083    98.459,-20.729 98.134,-20.729 97.808,-20.729 97.481,-20.38 97.156,-20.026 96.829,-19.327 97.156,-18.972 97.156,-18.621    97.156,-18.271 97.481,-18.271 97.808,-17.918 98.134,-17.567 97.808,-17.214 97.156,-16.512 96.504,-15.808 96.179,-15.458    96.179,-15.104 95.852,-15.458 95.526,-15.458 95.2,-15.458 94.55,-15.808 94.22,-16.161 93.897,-16.512 93.57,-16.512    93.244,-16.161 93.244,-15.808 93.57,-16.161 93.57,-15.808 93.57,-15.104 93.897,-15.458 94.22,-15.458 94.22,-15.104    94.22,-14.75 94.55,-14.75 94.22,-14.403 93.897,-14.048 93.57,-14.048 93.57,-13.699 93.897,-13.699 94.22,-13.348    93.897,-13.348 93.57,-13.348 93.244,-13.348 93.244,-12.996 93.57,-12.996 93.897,-12.996 93.897,-12.646 93.897,-12.291    94.22,-11.941 94.22,-11.588 93.897,-11.588 93.57,-11.941 93.244,-11.588 92.916,-11.588 92.593,-11.588 92.266,-11.941    91.941,-11.941 91.287,-11.941 90.962,-11.588 90.311,-11.588 89.984,-11.941 89.984,-12.646 89.984,-12.996 89.658,-12.996    89.332,-12.646 89.332,-12.291 89.008,-12.646 88.682,-12.646 88.354,-12.646 88.354,-12.291 88.682,-11.941 88.354,-11.238    88.354,-10.883 88.354,-10.534 88.682,-10.184 89.008,-9.83 88.682,-9.48 88.354,-9.126 88.029,-8.777 88.029,-8.073    88.029,-7.37 88.029,-6.666 87.703,-6.316 87.378,-5.962 87.051,-5.613 86.4,-5.26 86.074,-5.26 85.747,-5.613 85.421,-5.613    85.096,-5.613 84.769,-5.962 84.444,-6.316 84.118,-6.316 83.792,-6.316 83.792,-6.666 83.465,-6.666 83.14,-6.666 82.815,-6.666    82.815,-6.316 82.815,-5.962 82.49,-5.962 82.161,-5.962 81.836,-5.962 81.836,-5.613 81.511,-5.613 81.185,-5.962 80.858,-5.962    80.532,-5.962 80.207,-5.962 79.881,-5.962 79.556,-6.316 79.229,-6.316 78.904,-5.962 78.577,-5.962 78.904,-5.613 78.904,-5.26    78.577,-4.908 78.252,-4.908 77.927,-4.558 77.599,-4.558 77.599,-4.205 77.274,-4.558 77.274,-4.908 77.274,-5.613    76.948,-5.962 76.621,-6.666 76.621,-7.018 76.621,-7.723 76.295,-8.424 75.968,-8.073 75.645,-7.723 75.318,-7.723    74.992,-7.723 74.992,-8.073 74.992,-8.777 75.645,-9.48 75.968,-9.48 76.295,-9.48 76.621,-9.83 77.274,-10.184 77.274,-10.883    76.621,-10.883 75.968,-11.238 75.968,-11.588 76.295,-12.291 76.621,-12.996 76.621,-13.348 76.621,-14.048 76.295,-14.75    76.295,-15.104 76.621,-15.808 77.274,-15.808 77.599,-15.808 77.599,-16.161 77.599,-16.863 77.599,-17.214 78.252,-17.567    78.577,-17.918 79.229,-18.621 79.229,-18.972 79.556,-20.026 79.881,-20.38 80.207,-20.729 80.858,-21.083 81.185,-21.433    80.858,-22.137 81.185,-22.49 81.511,-22.84 81.185,-23.193 81.185,-23.545 81.836,-23.894 81.836,-24.248 81.511,-24.598    81.185,-24.598 81.511,-25.302 81.511,-26.005 81.836,-26.708 82.161,-26.355 82.815,-26.355 83.14,-26.355 83.14,-27.059    83.792,-27.762 83.792,-28.466 83.792,-29.169 84.118,-29.52 84.444,-29.874 84.444,-29.52 84.769,-29.52   " id="upazila_320" area="upazlia" name="sadullapur" bengali="সাদুল্লাপুর" parent="gaibandha"></polygon><polygon points="57.393,4.584 58.044,4.584 59.022,4.232 59.675,4.232 60,4.232 60.652,4.232 61.304,4.232    61.629,4.584 61.955,4.937 63.584,5.289 64.238,4.937 64.888,4.937 65.215,4.937 65.866,4.937 66.519,5.289 66.844,5.289    66.519,4.937 66.191,4.584 66.191,4.232 66.519,4.232 66.844,4.232 67.167,4.232 67.495,4.232 67.821,4.584 68.148,4.584    68.471,4.937 68.801,5.289 69.777,5.641 69.777,5.289 70.755,4.937 71.081,4.937 71.732,4.937 72.384,4.937 72.712,4.937    73.034,5.289 73.034,5.641 72.712,5.641 72.712,5.99 73.034,6.342 73.689,5.99 73.689,6.342 74.341,6.342 74.664,7.046    75.317,7.398 75.645,7.398 75.968,7.398 76.296,7.398 76.621,7.046 76.296,6.696 76.296,6.342 76.296,5.99 76.947,5.99    77.599,6.696 78.25,7.046 78.578,6.696 78.578,6.342 78.25,5.99 77.927,5.641 77.927,5.289 77.599,4.937 77.927,4.584    78.578,4.584 78.25,3.881 77.927,3.881 77.599,3.529 77.599,3.178 77.599,2.828 76.947,2.473 76.947,2.123 76.621,1.771    76.621,1.421 76.947,1.421 77.275,1.771 77.599,2.123 78.25,2.123 78.578,2.123 78.904,2.123 79.228,2.123 79.228,2.473    79.228,3.178 79.228,3.529 79.557,3.529 79.881,3.529 79.881,3.881 80.207,4.232 80.531,4.584 80.207,4.937 80.531,5.289    80.86,5.289 81.186,5.641 81.186,4.937 81.51,4.937 82.161,4.937 82.49,4.937 82.814,4.232 83.142,4.232 83.467,3.881    83.79,3.529 84.118,3.529 84.444,3.881 84.444,4.232 84.771,4.937 85.421,4.584 85.749,4.584 86.4,4.584 86.725,4.584    87.053,4.584 87.376,4.584 87.053,4.232 86.725,3.881 86.725,3.529 87.053,3.178 87.376,2.828 87.703,2.828 87.376,2.473    87.376,2.123 87.376,1.771 87.703,1.771 88.03,2.123 88.03,2.473 88.354,2.473 88.354,2.123 88.354,1.771 89.007,2.473    89.658,2.828 89.984,3.178 90.636,3.178 91.615,2.828 91.941,3.178 92.266,3.178 92.593,3.529 92.916,3.529 93.569,3.178    93.897,3.178 94.22,2.828 94.55,3.178 94.875,3.178 94.875,3.881 94.875,4.232 94.55,4.584 94.55,4.937 94.22,4.937 93.897,4.584    93.569,4.937 93.569,5.289 94.22,5.641 94.55,5.641 95.201,5.641 95.527,5.289 95.851,5.289 96.179,4.937 96.179,5.289    96.179,5.641 95.851,5.99 96.179,6.342 96.504,6.696 96.179,7.046 95.851,7.398 95.527,8.102 95.851,8.452 96.179,8.452    96.83,8.452 97.156,8.452 97.156,8.804 97.48,8.804 97.48,9.156 97.809,9.508 97.809,9.858 98.459,9.858 98.459,10.209    98.133,10.562 97.809,10.562 97.809,11.265 97.809,11.616 97.809,11.969 97.156,11.969 96.83,12.319 96.83,12.672 96.83,13.023    96.504,13.374 96.504,13.726 96.504,14.076 96.504,14.429 96.504,14.781 96.504,15.131 96.179,15.484 95.851,15.836    95.851,16.186 96.179,16.186 96.504,16.186 96.504,16.539 96.179,16.892 95.851,17.241 95.527,17.593 95.527,17.944    95.851,18.297 96.179,18.649 96.504,18.297 96.83,18.297 97.48,18.649 97.809,18.649 97.809,19 97.48,19.35 97.156,19.35    96.83,19.35 96.83,19.704 97.48,20.053 97.809,20.406 97.809,20.758 98.133,21.11 98.459,21.461 98.459,21.813 98.459,22.164    98.459,22.518 98.784,22.868 99.113,23.572 99.438,23.922 99.113,23.922 99.113,24.273 98.784,24.625 98.459,24.978    98.133,24.978 98.133,25.33 98.133,25.679 97.809,25.679 97.48,25.33 97.48,25.679 97.156,26.033 97.48,26.384 97.809,26.384    97.809,26.735 97.809,27.087 97.48,27.439 97.48,27.791 97.809,27.791 98.133,28.141 98.459,28.141 99.113,28.141 99.113,27.791    99.438,28.141 99.113,28.495 98.784,28.845 98.784,29.197 98.784,29.548 99.113,29.899 99.763,29.899 100.09,29.899    100.09,30.251 100.09,30.603 100.413,30.603 100.741,30.603 100.741,30.954 101.394,31.306 101.394,31.658 101.067,32.715    100.413,32.715 99.763,32.361 99.113,32.361 98.784,32.008 98.459,32.008 98.133,32.008 97.809,31.658 97.48,31.658    97.156,31.306 96.83,31.306 96.504,30.954 96.504,30.603 96.179,29.899 95.851,29.548 95.527,29.899 95.201,29.899 94.22,29.548    93.897,29.899 94.22,30.251 93.897,30.603 93.569,30.603 92.916,30.603 92.266,30.603 92.593,30.251 92.916,29.899 92.593,29.899    92.266,29.548 91.941,29.548 91.615,29.197 91.286,29.548 91.615,29.899 91.286,30.251 91.286,30.603 90.962,30.251    90.636,29.899 90.636,29.548 90.962,29.197 91.286,28.495 91.286,28.141 91.286,27.791 90.962,27.791 90.636,28.141    90.312,28.495 89.984,28.845 89.658,28.845 89.658,28.495 89.984,28.141 89.658,28.141 89.007,28.141 88.354,28.141 88.03,28.495    87.703,29.197 87.376,29.197 87.053,29.197 87.376,28.141 87.053,27.439 85.749,26.735 85.749,27.087 85.421,27.439    85.094,27.439 84.771,27.439 84.118,27.087 83.79,27.439 83.79,27.791 84.118,28.141 84.444,28.495 84.118,28.495 83.79,28.495    83.467,28.495 82.814,28.495 82.49,28.845 82.814,29.548 82.814,29.899 82.49,30.603 82.49,30.954 82.161,30.954 81.836,30.603    81.836,30.251 81.836,29.899 81.51,29.548 81.186,29.197 80.531,28.845 79.881,28.495 79.228,28.495 78.904,28.141 78.578,28.141    78.25,27.791 78.25,27.087 78.25,26.735 78.25,26.384 78.578,25.679 78.904,25.679 79.228,25.33 78.904,25.33 78.578,25.33    78.25,25.33 77.927,25.33 77.927,24.978 77.275,24.625 76.947,24.273 76.621,23.922 76.296,23.922 75.968,23.922 75.317,23.922    74.994,23.922 74.664,23.572 74.994,23.219 75.317,23.219 75.645,22.868 75.968,22.518 76.296,21.813 75.968,21.813    75.645,21.461 74.994,21.11 74.664,20.758 74.341,20.758 73.689,20.758 73.364,21.11 73.034,21.461 72.712,21.461 72.06,21.461    71.732,21.11 71.081,21.11 70.755,21.11 70.43,21.11 69.451,21.461 69.126,21.813 68.801,22.164 68.471,22.518 67.821,23.922    67.167,24.625 66.844,24.625 66.519,24.273 66.191,24.273 65.866,24.273 65.538,24.273 65.538,23.922 65.538,23.572    65.215,23.572 64.888,23.922 64.563,23.572 64.238,23.572 63.908,23.922 63.584,23.572 63.258,23.219 63.258,22.518    62.934,21.813 62.934,21.461 62.605,20.758 62.281,20.053 61.955,19.35 61.304,18.649 60.976,18.297 60.976,17.944 60.976,17.241    60.652,16.892 60,17.241 59.675,17.241 59.347,17.241 59.022,16.539 59.022,16.186 59.022,15.836 59.347,15.836 59.347,15.484    59.347,15.131 59.022,14.429 58.695,14.076 58.695,13.726 58.044,13.726 58.044,13.374 57.718,13.374 57.393,13.726    57.066,13.726 57.066,13.374 56.74,13.023 56.412,13.023 56.089,12.672 56.089,12.319 56.089,11.969 56.089,11.616 56.089,11.265    56.089,10.914 54.782,10.914 54.46,10.562 54.782,10.209 55.436,9.508 55.436,9.156 55.436,8.804 55.436,7.748 55.764,7.398    55.764,7.046 55.764,6.696 55.764,5.99   " id="upazila_318" area="upazlia" name="gobindaganj" bengali="গোবিন্দগঞ্জ" parent="gaibandha"></polygon></svg>