<svg enable-background="new -106.403 -201.859 629.266 880.536" height="880.536px" id="district_41" viewBox="-106.403 -201.859 629.266 880.536" width="629.266px" x="0px" xml:space="preserve" xmlns="http://www.w3.org/2000/svg" y="0px"><polygon points="201.78,9.155 202.758,9.155 203.083,9.155 203.408,9.508 204.062,9.508 204.712,9.858    205.366,9.858 205.691,9.858 206.342,10.21 206.669,10.21 207.323,10.21 207.646,10.562 208.624,10.914 208.951,10.562    209.602,10.21 209.928,10.21 210.578,10.21 211.233,10.21 211.558,10.21 212.211,10.562 212.536,10.914 212.862,11.617    213.512,12.319 214.165,12.673 214.819,13.023 215.469,13.374 216.122,14.076 216.773,14.429 217.426,14.781 217.751,14.781    218.73,14.781 219.38,14.781 220.031,15.133 220.359,15.133 221.012,15.133 221.662,15.133 221.988,15.133 222.313,15.484    222.638,15.836 222.966,16.186 223.616,16.54 223.945,16.54 224.595,16.892 225.248,16.892 225.573,16.892 226.224,17.241    226.877,17.595 227.202,17.595 227.202,17.241 227.531,16.892 227.853,16.186 228.506,16.186 228.181,17.595 228.181,18.297    227.531,18.649 226.877,19 226.224,19.353 225.248,19.703 224.595,19.703 223.945,19.703 222.966,19.703 222.313,20.053    221.662,20.053 221.012,20.407 220.684,21.11 220.684,21.46 221.012,21.46 222.313,21.815 223.616,22.163 224.273,22.518    225.248,22.87 225.248,23.572 225.248,24.625 224.917,25.682 224.273,26.033 223.616,26.382 222.966,26.738 222.313,27.087    221.662,27.439 221.337,27.439 221.337,28.142 221.337,28.844 221.012,29.548 220.684,29.899 220.359,30.251 220.359,30.604    221.662,30.955 221.988,30.955 222.638,31.658 222.313,32.008 221.988,32.361 221.337,32.715 220.684,32.715 220.359,32.715    220.031,33.065 220.031,33.766 220.031,34.118 220.031,34.47 219.055,34.822 218.73,35.173 218.73,35.879 219.055,36.929    218.076,36.929 217.751,36.929 217.426,37.285 216.773,37.285 216.445,37.285 216.122,37.635 215.794,37.986 215.469,38.339    215.144,39.042 214.493,39.392 214.165,39.392 213.837,39.392 213.512,39.747 213.187,39.747 212.862,40.095 212.536,39.747    212.862,39.392 212.862,39.042 212.862,38.692 212.862,38.339 212.536,38.339 212.211,38.339 212.211,39.042 211.883,39.392    211.558,39.042 211.558,38.339 211.558,37.635 210.907,37.635 210.255,37.986 209.928,38.339 209.602,38.692 209.275,38.339    208.624,37.986 208.624,37.635 208.624,37.285 208.299,37.285 207.971,37.285 207.323,37.285 206.994,37.285 206.994,36.929    206.994,36.581 206.994,36.228 206.342,36.228 206.017,36.228 205.691,36.228 205.691,36.581 205.366,36.228 205.038,36.228    204.712,36.228 204.712,35.173 204.387,35.525 204.062,35.879 203.737,36.228 203.408,36.581 202.758,36.929 202.105,36.581    201.127,36.581 200.476,36.228 200.151,36.228 199.823,36.228 198.847,36.929 198.847,36.581 198.847,36.228 198.847,35.879    198.52,35.525 198.52,35.173 198.195,34.822 198.195,34.47 198.195,34.118 198.52,33.766 198.195,33.416 197.541,33.065    197.541,32.361 197.541,32.008 197.869,31.306 197.869,30.955 198.52,30.955 198.847,30.955 199.172,30.604 199.498,30.251    199.823,29.899 199.823,29.548 200.151,28.844 200.476,28.844 200.476,28.495 200.802,29.197 200.476,29.548 200.802,29.899    200.802,30.251 200.802,30.604 201.127,30.604 201.454,30.604 201.454,30.955 202.105,30.604 202.758,30.604 203.083,30.251    203.408,29.899 204.062,29.899 204.062,29.548 204.062,28.844 204.387,28.844 204.712,28.495 204.712,27.791 204.387,27.439    204.712,27.087 205.038,26.738 205.691,26.738 206.017,26.382 206.669,26.738 206.994,26.738 207.323,26.382 207.323,26.033    207.323,25.682 206.994,25.682 206.669,25.33 206.342,24.978 206.017,25.33 205.691,25.682 205.038,26.033 204.712,26.033    204.387,26.033 204.062,25.682 203.737,24.978 203.408,24.625 203.083,24.275 202.433,24.275 202.105,24.275 201.454,23.572    201.127,23.221 201.454,22.163 201.78,21.11 201.78,20.407 201.78,19.353 201.78,19 202.105,18.297 202.433,16.892 202.433,16.54    202.433,16.186 201.78,16.186 201.78,15.836 201.454,15.484 201.78,14.781 201.454,14.429 201.127,14.076 201.127,13.374    201.454,12.673 201.454,12.319 201.78,11.617 201.78,10.914 201.78,10.21 201.78,9.858   " id="upazila_184" area="upazlia" name="haluaghat" bengali="হালুয়াঘাট" parent="mymensingh"></polygon><polygon points="228.506,16.186 230.138,15.483 231.439,15.131 232.417,14.781 232.742,14.781 232.742,14.429    233.718,14.076 234.374,13.374 234.699,13.726 235.35,13.726 235.35,13.023 236.006,13.023 236.654,13.374 236.979,13.374    237.635,13.023 238.282,13.374 238.608,13.374 239.264,13.023 239.911,13.023 240.568,13.374 240.893,13.023 241.218,13.023    241.543,13.374 241.871,13.374 242.522,13.374 242.847,13.374 243.172,13.374 243.5,13.374 243.825,13.374 244.476,13.726    244.476,13.374 244.804,13.374 245.132,13.023 245.78,13.374 246.105,13.023 246.433,13.023 246.758,13.023 247.411,12.672    248.065,13.023 248.715,13.023 249.037,12.319 249.694,13.023 249.037,14.429 248.715,15.131 248.715,15.483 248.715,16.186    248.715,16.892 248.715,17.593 248.39,17.944 248.39,18.649 248.39,19.704 248.39,20.053 248.39,20.758 248.065,21.461    248.065,21.813 247.737,22.518 247.737,23.219 247.411,24.273 247.411,24.978 247.086,25.33 246.433,25.679 246.433,26.384    246.105,26.735 246.105,27.439 246.105,28.141 246.105,29.197 246.105,29.548 246.433,29.548 246.758,29.197 246.758,28.493    246.758,28.141 247.086,27.791 247.737,27.087 248.065,27.439 248.065,27.791 248.39,28.493 248.39,28.845 248.39,29.197    248.715,29.899 248.39,30.251 248.065,30.603 248.065,30.954 248.065,31.306 248.065,32.008 247.737,32.361 247.737,33.063    248.065,33.768 247.737,34.82 246.758,34.47 247.086,34.118 246.758,33.415 246.758,33.063 246.433,33.063 246.105,33.415    246.105,34.118 246.105,34.47 245.78,34.47 245.132,34.47 245.132,33.768 244.154,33.415 243.825,33.768 242.522,33.768    242.847,33.415 242.197,33.063 241.871,32.715 241.871,32.361 242.197,32.008 241.543,31.658 241.218,31.658 240.893,31.306    240.893,30.954 240.568,30.251 240.24,29.899 239.911,29.899 239.586,30.251 239.264,29.899 239.586,29.548 240.24,29.197    239.911,28.845 239.586,28.845 238.939,28.845 238.282,28.845 237.96,28.845 237.96,29.548 237.96,29.899 237.635,30.251    236.654,29.899 236.006,29.899 235.678,30.251 234.699,29.899 234.374,29.899 234.046,30.603 233.399,30.954 233.071,30.954    232.742,30.954 232.742,30.603 232.417,30.603 232.092,30.603 231.767,30.251 231.439,30.251 230.785,30.251 230.463,30.251    228.831,30.603 228.181,30.603 228.181,30.954 228.181,31.306 228.181,32.008 228.181,32.361 228.506,32.361 228.831,32.361    229.156,32.361 229.813,32.361 230.785,32.715 231.114,33.063 231.114,33.415 230.785,33.415 230.785,33.768 230.785,34.118    231.114,34.47 231.114,34.82 231.767,35.173 232.417,35.173 232.742,35.173 233.071,35.878 232.417,36.228 231.767,35.878    231.439,36.228 231.439,36.581 231.767,37.284 231.767,37.635 231.114,37.635 230.463,37.284 230.785,36.581 230.138,36.581    229.813,36.581 229.156,36.93 229.156,37.635 228.181,37.284 227.531,36.93 227.853,36.581 227.205,36.228 226.88,36.228    226.88,36.581 227.205,37.284 227.205,38.338 226.552,37.986 226.224,37.986 225.573,37.986 225.248,37.635 224.917,37.635    224.917,37.986 224.595,38.69 225.248,39.042 224.917,39.744 224.595,39.744 224.27,39.744 223.945,39.744 223.616,39.744    222.966,39.744 222.641,39.744 222.316,39.744 221.662,39.744 221.337,39.744 221.012,40.449 220.684,40.095 220.684,39.744    219.708,39.744 219.708,39.393 220.031,38.69 220.031,37.986 219.708,37.284 219.052,36.93 218.73,35.878 218.73,35.173    219.052,34.82 220.031,34.47 220.031,34.118 220.031,33.768 220.031,33.063 220.356,32.715 220.684,32.715 221.337,32.715    221.988,32.361 222.316,32.008 222.641,31.658 221.988,30.954 221.662,30.954 220.356,30.603 220.356,30.251 220.684,29.899    221.012,29.548 221.337,28.845 221.337,28.141 221.337,27.439 221.662,27.439 222.316,27.087 222.966,26.735 223.616,26.384    224.27,26.033 224.917,25.679 225.248,24.625 225.248,23.572 225.248,22.868 224.27,22.518 223.616,22.164 222.316,21.813    221.012,21.461 220.684,21.461 220.684,21.11 221.012,20.406 221.662,20.053 222.316,20.053 222.966,19.704 223.945,19.704    224.595,19.704 225.248,19.704 226.224,19.35 226.88,19 227.531,18.649 228.181,18.297 228.181,17.593   " id="upazila_180" area="upazlia" name="dhobaura" bengali="ধোবাউড়া" parent="mymensingh"></polygon><polygon points="198.845,36.93 199.825,36.226 200.151,36.226 200.476,36.226 201.127,36.581 202.106,36.581    202.758,36.93 203.408,36.581 203.737,36.226 204.062,35.878 204.388,35.525 204.713,35.173 204.713,36.226 205.038,36.226    205.366,36.226 205.691,36.581 205.691,36.226 206.019,36.226 206.342,36.226 206.995,36.226 206.995,36.581 206.995,36.93    206.995,37.284 207.323,37.284 207.971,37.284 208.301,37.284 208.624,37.284 208.624,37.635 208.624,37.986 209.277,38.338    209.603,38.69 209.928,38.338 210.253,37.986 210.907,37.635 211.561,37.635 211.561,38.338 211.561,39.042 211.886,39.393    212.211,39.042 212.211,38.338 212.533,38.338 212.865,38.338 212.865,38.69 212.865,39.042 212.865,39.393 212.533,39.744    212.865,40.095 213.19,39.744 213.512,39.744 213.84,39.393 214.165,39.393 214.493,39.393 215.144,39.042 215.469,38.338    215.794,37.986 216.122,37.635 216.448,37.284 216.773,37.284 217.426,37.284 217.751,36.93 218.076,36.93 219.055,36.93    219.705,37.284 220.031,37.986 220.031,38.69 219.705,39.393 219.705,39.744 220.684,39.744 220.684,40.095 221.012,40.449    221.337,39.744 221.662,39.744 222.316,39.744 222.641,39.744 222.966,39.744 223.619,39.744 223.945,39.744 224.27,39.744    224.595,39.744 224.917,39.744 225.248,39.042 224.595,38.69 224.917,37.986 224.917,37.635 225.248,37.635 225.573,37.986    226.224,37.986 226.552,37.986 227.205,38.338 227.205,37.284 226.877,36.581 226.877,36.226 227.205,36.226 227.853,36.581    227.531,36.93 228.181,37.284 229.156,37.635 229.156,36.93 229.813,36.581 230.138,36.581 230.785,36.581 230.463,37.284    231.114,37.635 231.767,37.635 231.767,37.284 231.439,36.581 231.439,36.226 231.767,35.878 232.417,36.226 233.071,35.878    234.043,35.878 234.374,35.878 234.699,36.226 234.374,36.581 234.043,36.93 233.399,37.284 233.071,37.986 233.071,38.338    233.399,38.338 234.043,38.338 234.374,38.338 234.699,38.338 234.699,38.69 234.699,39.393 234.699,39.744 234.699,40.095    234.699,40.8 234.699,41.15 235.025,41.15 235.35,41.15 235.35,41.502 235.678,41.854 235.678,42.206 236.006,42.206    236.654,42.206 236.979,42.206 236.979,42.557 236.331,42.91 235.678,43.962 235.678,44.667 235.678,45.372 236.006,46.073    236.006,47.129 236.331,47.129 236.979,46.777 237.307,46.424 237.632,46.073 237.96,46.073 237.96,46.424 237.96,46.777    237.632,47.129 237.632,47.479 238.282,47.479 238.608,47.479 238.939,47.83 239.264,47.83 239.586,47.83 239.586,48.183    239.586,48.886 239.264,48.886 238.939,48.886 238.608,48.886 238.608,49.59 238.608,50.293 238.608,50.644 238.608,51.347    238.939,51.347 239.264,52.05 239.264,52.402 239.264,52.752 239.264,53.105 239.264,53.807 238.939,53.807 238.608,54.161    238.282,54.513 238.608,54.864 238.939,55.567 239.264,55.567 239.586,55.567 240.242,55.567 240.568,55.567 240.893,55.917    241.218,55.567 241.543,55.567 242.197,55.567 242.522,55.567 242.847,55.917 242.847,56.271 242.847,56.973 243.172,57.325    243.5,57.675 242.847,57.675 242.847,58.381 242.847,59.081 243.172,59.434 243.172,59.786 243.5,60.138 243.172,60.138    242.847,60.138 242.847,60.488 242.847,60.839 242.847,61.193 242.522,61.543 242.197,61.543 241.871,61.543 241.871,61.895    241.543,62.249 241.543,62.599 241.543,62.951 241.218,63.3 240.893,64.004 240.893,64.708 240.568,65.061 240.568,65.412    240.893,65.762 240.893,66.466 240.568,67.168 240.568,67.521 239.911,68.224 240.242,68.575 240.242,68.927 240.568,69.279    240.242,69.982 240.242,70.684 239.911,71.389 239.586,71.389 239.264,71.389 238.608,71.037 238.282,71.037 237.96,70.684    237.632,70.684 237.307,71.037 237.307,71.389 237.307,71.741 236.979,72.091 237.307,72.443 237.632,73.148 237.96,73.496    237.96,73.849 237.96,74.203 237.632,74.553 237.307,74.903 237.632,74.903 237.632,75.257 237.307,75.607 236.979,75.959    236.331,75.959 236.331,75.607 236.006,75.607 235.678,75.607 235.678,76.311 235.35,76.662 235.025,77.014 234.699,77.014    234.374,77.014 234.043,76.662 233.718,76.662 233.718,76.311 233.718,75.959 234.043,75.959 234.374,75.607 234.374,74.903    234.374,74.203 234.374,73.496 234.374,73.148 234.043,72.794 233.718,72.443 233.399,72.091 232.745,72.091 232.417,71.741    231.767,71.389 231.114,71.037 230.463,71.037 229.813,70.684 229.156,70.334 228.831,69.982 228.181,69.629 227.853,69.629    227.531,69.629 227.205,69.279 226.877,68.927 226.877,68.575 226.552,68.224 226.224,67.872 225.573,67.521 224.917,66.818    224.27,66.116 223.619,65.762 222.641,65.412 221.985,65.412 220.684,64.708 220.356,64.708 219.705,64.708 219.055,64.356    218.73,64.356 218.405,64.708 218.405,65.061 217.751,64.708 217.426,64.356 217.098,64.004 217.098,63.654 217.426,63.3    217.426,62.951 217.098,62.599 216.448,62.249 216.122,61.895 215.469,61.543 215.144,61.543 215.144,61.895 215.144,62.249    214.816,62.249 214.165,61.895 213.512,61.193 213.19,60.839 212.865,60.488 213.19,60.138 212.865,59.786 212.533,59.786    212.865,59.434 212.865,59.081 212.533,59.081 212.211,59.081 211.561,58.731 211.233,58.027 210.907,57.675 210.58,56.973    210.253,56.973 209.928,56.622 209.603,56.622 209.277,57.325 208.951,57.675 208.624,57.675 208.624,56.973 208.301,56.973    207.646,56.622 207.323,56.622 207.323,56.271 206.995,55.567 206.669,55.214 206.342,54.864 206.019,54.864 205.366,54.513    204.713,54.513 204.062,54.513 203.408,54.864 202.758,54.864 202.433,54.864 201.78,54.864 201.454,54.864 201.127,54.513    200.476,54.513 200.151,54.161 199.825,53.807 198.522,54.513 198.845,53.457 198.845,53.105 198.845,52.402 198.845,51.697    199.5,50.293 199.5,49.94 199.825,49.237 199.5,48.886 199.172,48.886 198.845,48.535 198.522,48.183 198.195,47.83    198.195,47.129 197.869,46.777 198.195,46.424 198.522,46.424 198.845,46.073 199.172,46.073 199.5,46.073 199.825,46.073    200.804,46.424 201.127,46.424 201.454,46.073 201.454,45.722 201.454,45.372 201.127,45.019 200.804,44.667 200.476,44.316    200.151,44.316 199.5,43.962 199.172,43.962 199.172,43.611 199.172,43.262 198.845,42.91 198.522,43.262 198.195,43.611    197.869,43.962 197.543,43.611 197.543,43.262 197.218,42.91 197.218,42.557 197.218,42.206 197.543,41.854 197.543,41.502    197.869,41.15 198.195,40.8 198.195,40.449 198.195,40.095 198.522,39.744 198.845,39.393 198.845,39.042 198.845,38.338    199.172,37.986   " id="upazila_189" area="upazlia" name="phulpur" bengali="ফুলপুর" parent="mymensingh"></polygon><polygon points="177.335,69.279 177.66,68.927 177.989,68.927 178.639,68.927 178.964,68.927 179.291,69.279    179.617,69.629 179.943,69.982 180.593,69.982 181.246,69.982 181.573,69.982 181.573,69.279 181.899,69.279 182.55,69.279    183.202,69.279 183.853,69.629 184.181,69.982 184.831,70.684 185.157,70.684 185.483,70.334 185.483,69.629 185.81,69.279    186.135,68.927 186.786,68.927 187.44,68.927 187.767,68.575 188.09,68.224 187.767,67.872 187.767,67.521 188.09,66.818    188.09,66.466 188.09,65.762 188.417,65.061 188.743,64.356 189.071,64.004 189.394,64.004 190.049,63.654 190.699,63.654    191.025,64.004 191.678,64.004 192.003,63.654 191.678,63.3 191.351,63.3 191.351,62.951 191.025,62.599 191.025,61.895    191.025,61.543 191.351,61.543 191.678,61.193 192.003,60.839 191.678,60.138 192.003,59.786 192.328,59.786 192.655,59.434    192.98,58.731 193.633,59.434 193.633,59.786 194.283,60.138 194.609,60.138 195.262,60.488 195.914,61.193 195.914,61.543    196.24,62.599 196.24,62.951 195.914,63.3 195.914,63.654 196.24,64.004 196.24,64.356 196.24,64.708 196.566,65.061    197.218,65.412 197.543,65.061 197.543,64.708 197.869,64.004 198.195,64.004 198.522,64.004 198.522,64.356 198.522,64.708    198.847,65.412 198.847,66.116 198.522,66.818 198.195,67.168 198.522,67.521 198.847,67.168 199.172,66.818 199.5,66.466    200.151,66.466 200.476,66.818 200.476,67.168 200.804,67.521 201.129,67.521 201.78,67.521 202.106,67.521 202.433,67.872    202.758,67.872 203.084,67.872 203.409,67.521 204.062,67.168 204.062,67.521 204.388,67.168 205.038,67.521 205.366,67.521    205.692,67.168 206.019,67.168 206.342,67.521 206.995,67.521 207.646,67.872 206.995,68.224 207.323,68.575 207.973,68.927    207.973,69.279 207.973,69.629 207.646,69.982 207.646,70.334 207.323,70.684 207.323,71.037 207.646,71.037 208.301,71.389    208.951,71.741 209.277,71.741 209.603,72.443 209.277,72.794 208.951,73.148 208.951,73.849 209.277,74.203 209.928,74.203    210.255,73.849 210.58,74.203 210.907,74.553 211.233,74.553 211.561,74.903 211.561,75.607 211.561,75.959 211.233,75.959    210.907,76.311 210.58,76.311 210.58,76.662 210.58,77.365 210.58,77.716 210.255,77.716 209.928,77.716 209.603,77.716    209.277,78.07 208.951,78.42 208.624,78.771 208.301,78.771 208.301,79.125 207.973,79.475 207.973,79.826 206.995,79.826    206.669,79.475 206.342,79.475 206.019,79.826 205.366,80.882 205.038,81.583 205.038,81.938 204.713,82.64 204.388,82.64    203.737,82.993 202.758,82.993 201.78,83.343 201.454,83.694 200.804,83.343 200.476,83.694 199.825,84.045 199.5,84.045    199.172,83.694 199.172,83.343 198.847,83.343 198.195,83.343 197.869,83.343 197.543,83.343 197.218,83.694 197.218,84.045    196.566,84.75 195.914,85.101 195.262,85.101 194.937,85.101 194.283,85.101 193.958,85.452 193.307,85.452 192.98,85.101    192.655,85.452 192.328,85.804 192.328,86.507 192.655,86.859 193.307,86.859 193.307,87.21 193.307,87.914 192.98,88.265    192.98,88.616 192.98,88.968 192.655,89.318 192.328,90.025 192.003,90.025 191.678,90.025 191.351,90.025 191.025,90.025    190.699,90.025 190.374,90.373 190.699,90.726 190.699,91.078 190.374,91.781 191.025,92.135 191.025,92.485 190.699,92.835    190.374,93.188 190.374,93.538 189.721,93.892 189.721,94.24 189.394,94.595 189.071,94.946 189.394,95.296 189.071,95.648    188.743,96.353 188.417,96.703 188.09,96.703 187.767,96.703 187.114,96.002 186.786,95.648 186.461,95.296 185.157,95.296    184.831,94.595 185.157,94.595 185.483,94.24 185.81,93.892 186.461,93.538 186.461,93.188 186.461,92.835 186.461,92.485    186.135,91.43 186.135,90.025 186.135,89.671 185.81,89.318 185.483,88.968 185.483,88.616 185.81,87.914 185.81,87.561    185.483,87.21 185.483,86.507 185.483,86.156 185.483,85.452 185.157,85.452 184.831,84.75 184.506,84.398 184.506,84.045    184.181,83.694 184.181,83.343 184.506,82.64 184.506,82.288 184.181,81.583 183.853,80.882 183.528,80.178 183.528,79.475    183.853,78.771 184.181,78.07 184.181,77.716 183.853,77.365 183.528,77.014 182.224,77.014 181.246,77.014 180.268,77.014    179.291,77.014 178.964,77.014 178.639,76.311 178.639,75.607 178.639,74.903 179.291,74.553 179.291,74.203 179.291,73.849    179.291,73.496 179.291,72.794 178.964,72.091 178.314,71.389 177.66,70.684 177.335,69.982 177.01,69.629   " id="upazila_187" area="upazlia" name="muktagacha" bengali="মুক্তাগাছা" parent="mymensingh"></polygon><polygon points="206.995,79.826 206.995,81.232 206.995,81.938 207.321,82.288 207.648,82.288 208.301,81.938    208.624,81.938 208.952,81.583 209.277,81.583 209.928,81.583 209.928,81.938 210.58,81.938 211.23,82.288 211.23,82.64    211.883,82.64 212.211,82.64 212.211,82.989 212.211,83.344 211.883,83.694 211.561,84.398 211.561,84.75 211.561,85.451    211.883,85.451 211.883,85.806 212.865,86.156 212.865,86.858 212.211,87.21 211.561,87.561 211.23,87.561 210.907,87.561    210.58,87.914 210.255,88.268 210.255,88.616 210.58,88.968 210.907,89.318 210.907,89.671 210.907,90.728 210.907,91.078    211.23,91.078 211.883,91.781 211.883,92.134 212.211,92.134 212.536,92.485 212.865,92.835 212.865,93.189 212.865,93.538    213.19,93.893 213.512,94.24 213.512,94.594 213.512,94.946 213.84,95.296 214.165,95.296 214.165,95.649 214.165,96    214.165,96.703 214.165,97.055 213.84,97.759 213.512,98.112 213.19,98.46 212.536,98.815 212.211,99.164 211.883,99.516    211.561,99.867 211.561,100.573 212.211,100.921 212.211,101.275 211.883,101.978 211.23,101.978 210.58,101.978 209.928,102.329    209.602,102.682 209.928,103.034 209.928,103.383 209.928,104.087 209.602,104.439 209.602,104.79 209.602,105.142    210.255,105.495 210.255,105.845 210.58,106.199 211.561,106.199 212.211,106.548 212.536,106.548 212.536,107.25    211.883,107.603 211.561,107.603 211.23,108.307 211.23,108.658 211.561,109.011 210.58,109.011 210.255,109.362 209.928,109.712    209.602,110.417 209.602,111.117 209.602,111.47 209.277,111.823 209.277,112.174 209.602,112.526 209.277,112.878    209.277,113.229 209.602,113.581 209.277,113.932 208.952,114.284 208.301,114.284 207.971,114.284 207.321,114.284    207.321,114.635 206.995,114.986 207.321,115.337 206.995,115.691 206.342,116.393 205.368,115.691 204.713,115.337    204.388,115.337 204.063,115.337 203.737,114.986 203.084,114.986 202.756,114.635 202.105,115.337 201.781,115.691    201.454,116.044 201.127,116.044 200.476,116.044 200.151,116.044 200.151,116.746 200.476,117.096 200.151,117.799    200.476,118.151 200.151,118.853 200.151,119.205 200.151,119.559 199.823,119.909 199.5,119.909 199.5,120.614 199.172,120.965    198.845,120.614 198.522,120.614 197.869,120.614 197.541,120.614 197.541,120.261 196.891,120.261 196.565,119.909    196.24,119.559 195.912,119.559 195.261,119.909 194.282,119.205 193.958,118.504 194.282,118.151 194.282,117.799    194.612,117.799 195.587,117.799 195.912,117.096 196.24,116.746 196.565,116.393 196.891,116.393 197.869,115.337    198.195,114.986 198.522,114.986 198.195,114.284 197.869,114.284 197.541,114.284 196.891,114.635 196.24,114.635    196.24,114.284 195.912,113.581 195.587,113.229 194.937,112.526 194.282,112.174 193.958,112.526 193.307,112.526    193.307,112.174 193.307,111.823 193.632,111.47 193.958,111.117 193.307,110.769 192.655,110.417 192.001,110.064    191.678,110.064 191.026,109.712 191.026,109.362 190.698,109.011 190.374,108.658 190.049,109.011 189.069,109.712    188.743,108.307 188.415,107.603 188.415,107.25 188.09,106.901 187.767,106.901 187.114,106.548 187.114,106.199    186.785,105.142 186.785,103.383 186.461,102.682 186.461,102.329 186.461,101.978 186.785,101.275 186.461,100.921    186.135,100.921 185.81,100.921 185.483,100.921 185.156,100.22 184.504,99.516 184.181,98.815 183.528,98.46 183.528,97.759    183.528,97.406 183.853,97.055 183.853,96.353 183.853,95.649 184.181,94.946 184.181,94.594 184.831,94.594 185.156,95.296    186.461,95.296 186.785,95.649 187.114,96 187.767,96.703 188.09,96.703 188.415,96.703 188.743,96.353 189.069,95.649    189.394,95.296 189.069,94.946 189.394,94.594 189.719,94.24 189.719,93.893 190.374,93.538 190.374,93.189 190.698,92.835    191.026,92.485 191.026,92.134 190.374,91.781 190.698,91.078 190.698,90.728 190.374,90.373 190.698,90.025 191.026,90.025    191.35,90.025 191.678,90.025 192.001,90.025 192.328,90.025 192.655,89.318 192.979,88.968 192.979,88.616 192.979,88.268    193.307,87.914 193.307,87.21 193.307,86.858 192.655,86.858 192.328,86.507 192.328,85.806 192.655,85.451 192.979,85.101    193.307,85.451 193.958,85.451 194.282,85.101 194.937,85.101 195.261,85.101 195.912,85.101 196.565,84.75 197.218,84.045    197.218,83.694 197.541,83.344 197.869,83.344 198.195,83.344 198.845,83.344 199.172,83.344 199.172,83.694 199.5,84.045    199.823,84.045 200.476,83.694 200.804,83.344 201.454,83.694 201.781,83.344 202.756,82.989 203.737,82.989 204.388,82.64    204.713,82.64 205.037,81.938 205.037,81.583 205.368,80.884 206.019,79.826 206.342,79.475 206.67,79.475   " id="upazila_181" area="upazlia" name="fulbaria" bengali="ফুলবাড়ীয়া" parent="mymensingh"></polygon><polygon points="206.342,116.395 206.669,116.746 206.995,117.096 207.323,116.746 208.301,116.746    208.624,116.395 208.951,116.395 209.275,116.746 209.603,116.395 209.928,116.395 210.255,116.044 210.907,116.044    210.907,116.395 211.233,117.096 211.558,117.45 212.211,117.799 212.536,118.151 212.862,118.151 213.19,118.151    213.837,117.799 214.493,118.151 214.819,118.504 215.144,118.855 215.469,118.855 215.794,118.504 215.794,118.151    215.794,117.799 216.122,117.45 216.445,117.096 216.773,117.096 217.098,116.746 217.426,116.746 217.751,116.746    217.751,117.096 218.076,117.096 218.405,117.096 218.076,117.799 218.405,118.151 218.73,117.799 219.055,117.45    219.055,117.096 219.055,116.746 219.055,116.395 218.73,116.395 218.73,116.044 219.055,115.691 219.38,115.337 220.031,115.337    220.359,114.989 220.684,114.989 221.012,115.337 221.337,115.691 221.662,115.691 221.988,116.044 222.313,116.044    222.641,116.395 222.966,116.395 223.291,116.746 223.616,117.096 223.616,117.45 223.945,117.799 223.945,118.151    224.27,118.151 223.945,118.855 224.27,119.207 224.595,119.557 224.92,119.207 225.573,119.207 225.899,119.207 226.552,119.207    226.877,119.207 227.202,118.855 227.853,118.504 227.853,118.151 228.506,118.151 228.506,118.504 228.831,119.207    228.831,119.912 228.831,120.614 228.506,120.965 228.506,121.668 228.181,122.018 228.506,122.372 228.831,122.722    228.831,123.073 228.831,123.425 228.831,123.78 229.159,124.129 229.159,124.482 229.159,124.833 229.159,125.184    229.485,125.536 229.813,125.536 230.138,125.536 230.463,125.536 230.463,125.886 230.785,125.886 231.114,126.239    231.114,126.59 230.785,126.59 230.138,126.939 230.138,127.292 229.813,127.646 229.813,128.7 229.813,129.053 229.813,129.401    229.813,130.106 230.138,130.106 230.463,130.459 230.785,130.459 231.114,130.81 231.439,130.81 231.764,131.16 232.092,131.863    231.764,132.216 231.764,132.567 232.092,132.92 232.417,133.271 232.417,133.623 232.745,133.623 233.071,133.976    233.396,134.326 233.396,134.678 233.071,135.026 232.745,135.381 232.417,135.381 232.417,135.733 232.092,136.436    232.092,136.787 231.764,137.139 232.092,137.842 232.417,138.193 232.745,138.896 232.417,139.601 231.764,139.601    231.439,138.896 231.114,138.544 230.785,138.544 230.463,138.544 230.138,138.193 229.813,137.842 229.485,137.488    229.159,137.139 228.831,136.787 228.506,136.436 227.853,136.083 227.531,135.733 227.202,135.733 226.877,135.733    226.224,135.381 225.899,135.733 225.248,135.733 224.92,135.733 223.945,136.436 223.291,136.787 223.291,137.139    223.291,137.842 223.291,138.544 223.291,139.248 223.291,139.95 223.291,140.304 222.641,140.304 222.313,140.304    221.662,141.005 221.337,141.357 221.012,142.063 220.359,142.762 220.031,143.116 219.38,143.818 218.73,143.818    218.405,143.467 218.076,143.116 217.751,142.762 217.426,142.762 217.098,142.762 216.773,143.116 216.445,143.116    215.794,143.467 215.469,143.818 214.819,143.467 214.493,143.116 214.165,142.762 214.165,142.411 214.165,142.063    214.165,141.709 213.837,141.357 213.512,141.005 213.19,141.357 212.862,141.709 212.211,141.709 211.558,141.709    210.907,141.709 210.58,141.357 209.928,141.357 209.603,141.357 209.275,141.357 208.951,141.357 208.301,141.709    207.323,142.411 206.019,143.467 205.038,144.524 204.713,144.524 204.387,144.171 204.062,143.818 203.737,143.818    203.409,143.818 202.758,143.818 202.105,143.467 201.454,143.467 201.129,143.116 200.802,142.411 200.802,141.709    200.802,141.357 200.802,141.005 200.476,140.304 200.151,139.601 200.151,138.896 199.498,138.193 199.172,136.787    198.847,136.787 198.52,136.787 197.869,136.436 197.543,136.083 197.216,135.381 197.216,135.026 197.216,133.976    197.216,132.92 197.543,131.863 197.869,130.81 198.195,130.106 198.52,129.401 199.172,126.59 199.498,125.536 199.498,125.184    199.498,124.833 199.172,124.833 198.847,124.833 198.52,124.833 197.869,124.482 197.216,124.482 197.543,124.482    197.543,124.129 197.543,123.78 197.543,123.425 197.216,123.073 197.216,122.722 196.891,122.722 196.891,122.372    196.566,122.018 196.24,122.018 196.24,121.668 196.24,121.315 196.24,120.965 195.912,120.614 195.587,120.261 195.262,119.912    195.912,119.557 196.24,119.557 196.566,119.912 196.891,120.261 197.543,120.261 197.543,120.614 197.869,120.614    198.52,120.614 198.847,120.614 199.172,120.965 199.498,120.614 199.498,119.912 199.825,119.912 200.151,119.557    200.151,119.207 200.151,118.855 200.476,118.151 200.151,117.799 200.476,117.096 200.151,116.746 200.151,116.044    200.476,116.044 201.129,116.044 201.454,116.044 201.78,115.691 202.105,115.337 202.758,114.635 203.083,114.989    203.737,114.989 204.062,115.337 204.387,115.337 204.713,115.337 205.366,115.691   " id="upazila_179" area="upazlia" name="bhaluka" bengali="ভালুকা" parent="mymensingh"></polygon><polygon points="239.911,110.415 240.24,110.769 240.565,111.12 241.218,111.471 241.543,111.471 241.871,111.823    242.197,111.823 242.519,112.174 242.519,112.527 242.519,113.229 242.519,113.581 242.847,114.284 243.175,114.284    243.175,114.635 243.5,114.986 243.825,115.338 243.5,116.395 243.825,117.096 244.154,117.801 244.479,118.503 244.804,119.207    245.454,119.909 246.105,120.614 247.411,120.964 248.065,121.314 249.04,121.314 249.694,121.668 250.344,121.668    250.669,121.668 251.32,122.019 251.648,122.371 251.973,122.722 252.626,123.777 252.951,124.129 252.951,124.482    253.28,124.832 253.28,125.536 252.951,126.237 252.951,126.941 252.626,127.996 252.301,129.051 252.626,129.403    252.301,130.106 251.973,130.458 251.648,131.16 251.648,131.866 251.648,132.216 251.32,132.917 250.997,133.271    250.669,133.623 250.344,134.678 250.019,135.027 249.694,135.38 249.694,135.733 250.019,136.436 250.669,137.139    250.997,137.49 251.32,138.192 251.648,138.544 251.973,139.247 252.301,139.601 252.626,139.951 252.951,139.951 253.28,140.303    252.951,141.005 252.951,141.357 252.951,142.061 252.951,142.762 252.951,143.467 252.951,144.169 253.28,144.521    253.605,145.226 253.93,146.279 254.255,146.981 252.951,146.981 252.626,146.632 252.301,146.279 251.973,146.279    251.648,145.928 250.344,145.576 250.019,145.928 249.694,145.928 249.365,145.928 248.715,145.928 248.387,146.279    248.065,146.279 247.737,146.632 247.086,146.981 246.758,146.981 246.433,147.335 246.105,147.335 246.105,147.688    245.782,147.688 245.454,148.038 245.129,148.39 244.804,148.742 244.154,149.092 243.5,149.092 243.175,148.742 242.847,148.742    242.847,148.39 242.519,147.688 242.197,147.688 241.543,147.335 241.218,147.335 240.893,147.335 240.565,146.981    240.24,146.632 239.911,146.279 239.589,145.928 239.589,145.576 239.589,145.226 239.589,144.873 239.264,144.873    238.939,144.873 238.611,144.521 238.282,144.169 237.96,143.818 237.632,143.818 236.979,143.467 236.331,143.467    236.331,143.114 236.331,142.762 236.654,142.762 236.979,142.412 237.307,142.061 237.632,141.357 237.632,141.005    237.307,141.005 236.979,141.005 236.654,141.005 236.331,141.005 236.331,140.653 236.006,140.303 235.678,140.303    235.35,139.951 235.028,139.601 234.371,139.601 233.721,139.601 232.417,139.601 232.745,138.896 232.417,138.192    232.092,137.841 231.764,137.139 232.092,136.785 232.092,136.436 232.417,135.733 232.417,135.38 232.745,135.38    233.071,135.027 233.399,134.678 233.399,134.324 233.071,133.974 232.745,133.623 232.417,133.623 232.417,133.271    232.092,132.917 231.764,132.567 231.764,132.216 232.092,131.866 231.764,131.16 231.439,130.81 231.114,130.81 230.785,130.458    230.463,130.458 230.138,130.106 229.81,130.106 229.81,129.403 229.81,129.051 229.81,128.699 229.81,127.646 230.138,127.292    230.138,126.941 230.785,126.59 231.114,126.59 231.114,126.237 230.785,125.886 230.463,125.886 230.463,125.536    230.138,125.536 229.81,125.536 229.485,125.536 229.159,125.184 229.159,124.832 229.159,124.482 229.159,124.129    228.831,123.777 228.831,123.425 228.831,123.073 228.831,122.722 228.506,122.371 228.181,122.019 228.506,121.668    228.506,120.964 228.831,120.614 228.831,119.909 228.831,119.207 228.506,118.503 228.506,118.151 227.853,118.151    227.531,117.801 227.202,117.447 226.552,117.447 226.224,117.096 225.899,116.746 225.573,116.395 225.573,115.691    225.248,114.986 225.248,114.635 225.248,114.284 225.573,114.284 226.224,114.284 226.552,114.284 226.552,113.934    226.552,113.581 226.552,112.878 226.552,112.527 226.552,112.174 226.552,111.823 226.224,111.471 225.899,111.471    225.899,111.12 225.899,110.769 226.224,110.415 226.224,110.067 226.224,109.712 226.224,109.362 226.552,109.011    226.552,108.658 226.877,108.658 227.202,108.658 227.531,108.658 228.181,108.658 228.181,109.011 228.506,109.011    228.831,109.011 228.831,108.658 228.831,107.605 228.831,107.252 228.831,106.901 228.831,106.548 228.506,106.548    228.506,106.199 228.831,105.845 229.159,105.845 229.81,105.845 230.138,105.493 230.785,105.493 231.114,105.845    231.114,106.199 231.114,106.901 231.439,107.252 231.764,107.605 232.092,107.955 232.417,108.307 232.745,108.658    233.071,108.658 233.399,109.011 233.721,109.011 234.046,109.362 234.371,109.362 234.699,109.362 235.028,109.362    235.028,109.011 235.35,109.011 235.678,109.011 236.006,109.011 236.331,109.011 236.654,109.011 236.979,109.011    237.632,109.011 237.96,109.362 238.282,109.712 238.611,110.067   " id="upazila_182" area="upazlia" name="gafargaon" bengali="গফরগাঁও" parent="mymensingh"></polygon><polygon points="268.596,94.24 268.596,95.299 268.596,96 268.271,96.354 268.271,97.057 268.596,97.057    269.249,97.057 269.9,97.405 270.553,97.057 270.878,97.057 270.878,96.703 270.553,96.354 270.878,96 271.203,96 271.531,96.354    271.854,97.057 272.507,97.405 272.835,97.405 273.157,97.76 273.157,98.112 273.157,98.46 273.486,98.814 273.486,99.164    273.157,99.518 273.157,99.867 273.157,100.221 272.835,100.573 272.507,100.921 272.835,100.921 273.157,100.921    273.486,100.921 273.486,101.275 273.157,101.625 273.486,101.979 273.811,101.625 274.139,101.625 274.464,101.625    275.115,101.275 275.115,100.921 274.786,100.573 275.115,100.573 275.443,100.573 275.768,101.275 276.093,100.921    276.093,100.573 276.418,100.573 277.072,100.921 276.746,101.275 276.746,101.625 276.746,101.979 276.418,102.329    276.093,102.682 275.443,103.384 275.443,103.737 275.768,103.737 276.093,104.087 276.093,104.44 275.443,104.79    275.443,105.495 275.443,105.845 275.443,106.199 275.443,106.547 275.115,106.903 275.115,107.25 274.786,106.547    274.464,106.903 274.139,107.25 274.464,107.957 274.464,108.308 274.139,108.658 273.811,109.01 273.811,109.363    273.811,109.712 273.811,110.067 273.486,110.067 273.157,110.417 273.157,110.77 273.157,111.12 273.157,111.47 273.157,111.824    272.507,111.47 271.854,111.47 271.203,111.47 270.878,111.824 270.225,111.824 269.574,111.47 269.249,111.47 268.921,111.47    268.596,111.12 268.271,111.47 267.946,111.824 268.271,112.174 267.946,112.527 267.292,112.527 266.967,112.174    266.642,111.824 266.642,111.47 266.642,111.824 266.314,113.23 265.989,113.932 265.989,114.635 265.663,114.989    265.338,115.337 265.013,115.337 264.688,116.044 264.36,116.393 264.031,116.746 263.706,116.746 263.381,116.746    263.056,116.393 262.731,115.693 262.731,115.337 262.731,114.635 262.731,114.284 262.406,113.932 262.08,113.932    261.752,113.581 261.752,113.23 261.427,113.23 261.099,113.23 261.099,112.878 261.427,112.174 261.427,111.47 261.427,111.12    261.099,111.12 260.774,111.12 260.448,111.12 260.12,111.47 259.798,111.824 259.47,111.824 259.145,111.824 258.82,112.527    258.494,112.527 258.163,112.878 257.841,112.878 258.163,113.23 258.494,113.23 258.163,113.581 258.163,113.932    258.494,114.284 258.494,114.635 258.494,114.989 258.163,115.337 257.841,115.337 257.513,115.693 258.163,116.393    258.163,117.096 257.841,117.45 256.865,118.151 256.537,118.151 256.537,117.45 256.212,117.45 255.559,117.45 255.234,117.096    254.58,116.393 253.933,116.393 253.605,116.044 252.951,116.044 252.626,116.044 252.301,116.393 252.301,116.044    252.626,115.693 252.301,115.337 251.648,115.693 251.323,115.693 250.997,115.337 250.669,114.635 250.344,114.284    249.694,113.932 249.365,113.932 249.365,113.23 248.715,113.23 248.387,113.23 248.065,112.878 247.74,112.878 247.408,112.878    246.758,113.23 246.758,112.878 246.105,112.878 245.78,113.23 245.454,113.581 245.129,113.932 244.804,114.284 244.476,114.989    243.825,115.337 243.5,114.989 243.175,114.635 243.175,114.284 242.847,114.284 242.519,113.581 242.519,113.23 242.519,112.527    242.519,112.174 242.197,111.824 241.871,111.824 241.543,111.47 241.218,111.47 240.568,111.12 240.24,110.77 239.911,110.417    238.939,109.01 238.939,108.658 238.282,108.308 237.96,107.957 237.632,107.605 237.307,107.25 236.979,106.547 236.654,106.199    236.331,105.495 236.006,105.142 235.678,104.79 235.35,104.087 235.35,103.384 235.35,103.034 235.678,102.329 236.331,102.329    236.654,102.329 236.654,101.979 236.654,101.275 236.654,100.921 236.654,100.573 236.979,100.221 236.979,99.867    237.307,99.518 237.307,99.867 237.632,100.221 237.96,100.921 237.96,101.275 238.282,101.625 238.611,101.275 238.939,101.625    239.264,101.979 239.586,101.979 240.24,101.625 240.568,101.625 241.218,101.625 241.543,101.625 241.543,101.979    241.218,102.682 241.543,103.034 241.543,103.384 241.543,103.737 242.197,103.737 242.519,103.737 242.847,103.384    242.847,103.034 242.519,102.682 242.847,102.329 243.175,102.329 243.5,102.682 243.5,103.034 243.5,103.384 243.825,103.737    244.476,104.087 244.804,104.087 244.804,103.737 245.129,103.384 245.454,103.737 245.78,103.384 245.454,103.034    245.129,102.682 245.129,102.329 245.129,101.979 245.454,101.625 245.78,101.625 246.105,101.625 246.105,101.275    246.433,101.275 246.758,101.275 247.086,101.275 247.408,101.275 248.065,101.275 248.387,101.275 248.715,100.921    248.715,100.573 249.037,100.921 249.365,100.921 249.365,100.573 249.037,100.221 249.037,99.867 249.037,99.518 249.037,99.164    249.365,98.814 249.694,99.164 250.344,99.518 250.669,99.518 251.323,99.164 252.626,99.164 252.951,99.164 253.277,99.164    253.605,98.814 253.933,98.46 253.933,98.112 254.255,97.76 254.58,97.76 254.906,97.76 255.234,97.76 255.234,97.405    255.559,97.057 255.559,96.703 255.887,96.354 255.887,96 256.212,96 256.212,95.649 256.212,95.299 256.212,94.945    256.537,94.945 256.865,94.945 257.188,94.595 257.188,94.24 257.188,93.893 257.188,93.536 257.513,93.189 257.513,92.837    257.841,92.837 258.494,92.837 258.82,93.189 259.47,93.536 259.798,93.893 260.448,93.893 260.774,93.893 260.774,94.24    261.099,94.24 261.099,94.595 260.774,95.299 260.774,95.649 261.099,95.649 261.427,95.649 261.752,96 262.08,96 262.406,96.354    262.731,96 262.731,95.649 263.056,95.299 263.381,94.945 263.706,94.595 264.688,94.24 265.013,94.24 265.663,94.24    266.314,94.24 266.642,94.24 267.292,94.595 267.62,94.595   " id="upazila_188" area="upazlia" name="nandail" bengali="নান্দাইল" parent="mymensingh"></polygon><polygon points="229.156,85.452 229.813,85.102 230.785,84.75 231.439,84.75 231.764,84.398 232.417,84.048    232.745,83.695 233.071,82.993 233.396,82.641 233.718,82.291 234.371,82.291 234.699,82.291 235.025,82.291 235.678,82.291    236.006,82.641 236.331,82.641 236.979,82.641 237.632,82.641 237.957,82.993 238.282,82.993 238.611,82.641 239.264,82.641    239.586,82.641 239.586,82.291 239.586,81.938 239.264,81.586 238.939,81.234 239.264,80.882 239.586,80.531 239.911,80.531    240.568,80.531 240.893,80.882 241.218,80.882 241.543,81.234 241.871,81.234 242.197,81.586 242.519,81.938 242.847,81.938    243.175,81.938 243.825,81.938 244.804,81.938 245.78,81.586 246.758,81.234 247.411,81.234 247.74,81.234 248.387,81.586    248.712,81.586 249.365,81.938 249.694,81.938 250.019,81.938 250.344,81.938 250.997,81.234 251.323,80.882 251.323,80.531    251.323,80.18 251.648,79.829 251.97,79.829 252.301,80.18 252.626,80.531 252.951,80.882 252.951,81.234 253.933,81.234    254.58,81.234 254.906,81.586 255.559,81.586 255.884,81.938 256.212,82.291 256.537,82.641 257.188,82.641 257.513,82.993    258.166,83.343 258.82,83.695 259.47,83.695 260.12,83.343 261.099,83.695 261.427,84.398 261.099,85.102 260.774,85.452    260.448,86.157 260.448,86.859 260.448,87.563 260.774,87.915 261.099,88.265 261.427,88.616 261.427,88.969 262.077,88.969    262.077,89.671 262.406,90.025 262.731,90.025 262.731,90.375 263.053,90.728 263.381,91.078 264.031,90.728 264.357,91.078    264.688,91.078 265.338,91.078 265.663,91.078 265.663,91.432 265.989,92.135 265.989,92.485 266.314,93.189 266.639,93.189    266.967,93.189 267.292,93.189 267.62,93.538 267.946,93.189 268.599,93.538 268.599,93.892 268.599,94.242 267.62,94.595    267.292,94.595 266.639,94.242 266.314,94.242 265.663,94.242 265.013,94.242 264.688,94.242 263.706,94.595 263.381,94.946    263.053,95.299 262.731,95.649 262.731,96.002 262.406,96.353 262.077,96.002 261.752,96.002 261.427,95.649 261.099,95.649    260.774,95.649 260.774,95.299 261.099,94.595 261.099,94.242 260.774,94.242 260.774,93.892 260.448,93.892 259.798,93.892    259.47,93.538 258.82,93.189 258.494,92.837 257.841,92.837 257.513,92.837 257.513,93.189 257.188,93.538 257.188,93.892    257.188,94.242 257.188,94.595 256.865,94.946 256.537,94.946 256.212,94.946 256.212,95.299 256.212,95.649 256.212,96.002    255.884,96.002 255.884,96.353 255.559,96.706 255.559,97.057 255.234,97.406 255.234,97.759 254.906,97.759 254.58,97.759    254.255,97.759 253.933,98.112 253.933,98.462 253.605,98.814 253.277,99.166 252.951,99.166 252.626,99.166 251.323,99.166    250.669,99.518 250.344,99.518 249.694,99.166 249.365,98.814 249.04,99.166 249.04,99.518 249.04,99.87 249.04,100.22    249.365,100.573 249.365,100.923 249.04,100.923 248.712,100.573 248.712,100.923 248.387,101.275 248.065,101.275    247.411,101.275 247.086,101.275 246.758,101.275 246.433,101.275 246.105,101.275 246.105,101.625 245.78,101.625    245.454,101.625 245.129,101.979 245.129,102.33 245.129,102.682 245.454,103.034 245.78,103.384 245.454,103.737    245.129,103.384 244.804,103.737 244.804,104.087 244.479,104.087 243.825,103.737 243.5,103.384 243.5,103.034 243.5,102.682    243.175,102.33 242.847,102.33 242.519,102.682 242.847,103.034 242.847,103.384 242.519,103.737 242.197,103.737    241.543,103.737 241.543,103.384 241.543,103.034 241.218,102.682 241.543,101.979 241.543,101.625 241.218,101.625    240.568,101.625 240.24,101.625 239.586,101.979 239.264,101.979 238.939,101.625 238.611,101.275 238.282,101.625    237.957,101.275 237.957,100.923 237.632,100.22 237.307,99.87 237.307,99.518 236.979,99.87 236.979,100.22 236.654,100.573    236.654,100.923 236.654,101.275 236.654,101.979 236.654,102.33 236.331,102.33 235.678,102.33 235.678,101.275 235.678,100.923    236.006,100.573 236.006,100.22 236.331,99.87 236.331,99.518 236.006,98.814 236.006,97.759 235.35,96.706 234.699,96.002    234.371,95.649 234.046,94.946 233.396,94.595 233.071,93.892 232.745,93.892 232.417,93.538 231.764,93.538 231.114,93.538    230.463,93.189 229.813,92.837 229.485,92.485 228.831,92.135 228.181,91.078 228.181,90.728 228.181,90.025 228.506,89.321    228.506,88.969 228.831,88.265 229.156,87.563 229.156,87.21 229.156,86.508 229.156,85.804   " id="upazila_185" area="upazlia" name="iswarganj" bengali="ঈশ্বরগঞ্জ" parent="mymensingh"></polygon><polygon points="256.537,68.224 257.188,67.874 257.188,68.576 257.513,68.576 257.841,68.224 258.163,68.224    258.82,68.224 259.47,68.224 259.795,68.224 260.12,68.576 260.448,68.224 260.774,68.224 261.427,68.224 261.427,68.576    261.752,68.576 262.08,68.576 262.08,68.927 261.752,69.28 261.427,69.629 261.099,69.629 261.099,69.982 261.752,70.336    262.08,70.684 262.728,71.039 263.056,71.039 263.381,71.742 263.381,72.091 263.381,72.443 263.056,72.796 262.728,73.148    262.08,73.148 261.752,73.148 261.427,72.796 261.427,72.443 261.099,72.443 260.774,72.091 260.12,72.443 259.795,72.443    259.795,72.796 260.12,73.849 260.12,74.204 259.795,74.204 259.795,74.553 260.448,74.903 261.099,75.257 261.752,75.257    262.08,75.257 262.406,75.607 262.406,75.96 262.406,76.664 262.728,77.014 263.381,77.014 263.381,77.368 263.381,78.423    263.381,78.771 263.056,79.125 262.406,79.125 261.752,79.125 261.427,79.475 261.099,80.178 260.774,80.528 260.448,80.884    260.12,81.232 259.795,81.938 259.795,82.291 260.12,82.64 259.795,82.989 260.12,83.344 259.47,83.694 258.82,83.694    258.163,83.344 257.513,82.989 257.188,82.64 256.537,82.64 256.212,82.291 255.887,81.938 255.559,81.586 254.906,81.586    254.58,81.232 253.933,81.232 252.951,81.232 252.951,80.884 252.626,80.528 252.301,80.178 251.97,79.826 251.648,79.826    251.323,80.178 251.323,80.528 251.323,80.884 250.997,81.232 250.344,81.938 250.019,81.938 249.694,81.938 249.365,81.938    248.715,81.586 248.387,81.586 247.74,81.232 247.408,81.232 246.758,81.232 245.78,81.586 244.804,81.938 243.825,81.938    243.175,81.938 242.847,81.938 242.522,81.938 242.197,81.586 241.871,81.232 241.543,81.232 241.218,80.884 240.893,80.884    240.568,80.528 239.911,80.528 239.586,80.528 239.264,80.884 238.939,81.232 239.264,81.586 239.586,81.938 239.586,82.291    239.586,82.64 239.264,82.64 238.608,82.64 238.282,82.989 237.96,82.989 237.632,82.64 236.979,82.64 236.331,82.64    236.006,82.64 235.678,82.291 235.025,82.291 234.699,82.291 234.374,82.291 233.718,82.291 233.399,82.64 233.071,82.989    232.745,83.694 232.417,84.048 231.764,84.397 231.439,84.75 230.785,84.75 229.813,85.101 229.156,85.451 228.181,85.101    228.181,84.75 228.181,84.048 228.181,83.344 227.853,82.64 227.531,81.938 227.531,81.586 227.531,81.232 227.853,80.884    228.181,80.884 228.506,80.884 228.831,80.884 229.156,80.884 229.482,80.884 229.482,80.528 230.138,80.178 230.463,80.178    230.785,79.826 231.114,79.475 231.439,79.475 231.764,79.475 232.745,79.475 233.071,79.475 233.071,79.125 232.745,78.771    232.417,78.07 232.417,77.716 232.745,77.368 233.071,76.664 233.718,76.664 234.043,76.664 234.374,77.014 234.699,77.014    235.025,77.014 235.35,76.664 235.678,76.311 235.678,75.607 236.006,75.607 236.331,75.607 236.331,75.96 236.979,75.96    237.307,75.607 237.632,75.257 237.632,74.903 237.307,74.903 237.632,74.553 237.96,74.204 237.96,73.849 237.96,73.499    237.632,73.148 237.307,72.443 236.979,72.091 237.307,71.742 237.307,71.387 237.307,71.039 237.632,70.684 237.96,70.684    238.282,71.039 238.608,71.039 239.264,71.387 239.586,71.387 239.911,71.387 240.24,70.684 240.24,69.982 240.568,69.28    240.24,68.927 240.24,68.576 239.911,68.224 240.568,67.519 240.568,67.168 240.893,66.466 240.893,65.762 240.568,65.413    240.568,65.059 240.893,64.708 240.893,64.004 241.218,63.3 241.543,62.952 241.543,62.599 241.543,62.247 241.871,61.896    242.522,62.247 242.847,62.599 243.175,62.247 243.5,62.599 243.825,62.599 244.154,62.247 244.476,62.247 245.132,62.247    245.454,62.247 245.78,62.599 245.78,62.952 245.454,63.3 245.132,63.3 244.804,63.3 244.804,63.654 244.476,64.004    244.476,64.358 244.476,64.708 244.154,65.059 243.5,65.059 243.175,65.413 242.522,65.413 242.197,65.762 242.197,66.116    242.522,66.466 242.847,66.819 243.175,66.466 243.5,66.116 243.825,65.762 244.154,65.762 244.154,65.413 244.476,65.413    244.804,65.413 244.804,66.116 244.804,66.466 245.454,66.466 246.105,66.466 246.433,66.466 246.758,66.819 247.086,66.819    247.086,67.168 247.408,66.819 247.74,66.466 248.065,66.466 248.387,66.466 248.715,66.819 249.037,67.168 249.037,67.519    249.365,67.519 249.694,67.874 250.019,67.874 250.344,68.224 250.344,68.576 250.669,68.927 250.997,68.927 251.323,68.927    251.648,68.927 251.97,68.576 252.301,68.576 252.626,68.927 252.951,69.629 253.605,69.629 253.933,69.629 254.58,69.629    255.231,69.28 255.559,68.927 255.887,68.927 256.212,68.576   " id="upazila_183" area="upazlia" name="gouripur" bengali="গৌরীপুর" parent="mymensingh"></polygon><polygon points="212.862,86.156 213.19,86.156 213.512,86.156 213.84,85.804 214.49,85.804 215.144,86.156    215.794,86.507 216.445,86.859 216.773,87.21 217.751,87.561 218.076,87.561 218.405,87.561 219.38,87.561 220.031,87.561    220.684,87.914 221.337,88.265 221.662,88.265 222.313,88.968 222.966,88.968 223.291,89.318 224.27,89.671 224.917,90.025    225.245,90.025 225.245,90.373 225.573,90.726 225.573,91.078 225.899,91.078 226.224,90.726 226.552,90.726 228.181,91.078    228.831,92.135 229.485,92.485 229.81,92.835 230.463,93.188 231.114,93.538 231.767,93.538 232.417,93.538 232.745,93.892    233.071,93.892 233.399,94.595 234.046,94.946 234.371,95.648 234.699,96.002 235.35,96.703 236.003,97.759 236.003,98.814    236.331,99.516 236.331,99.87 236.003,100.22 236.003,100.572 235.678,100.921 235.678,101.275 235.678,102.33 235.35,103.032    235.35,103.383 235.35,104.087 235.678,104.79 236.003,105.142 236.331,105.493 236.654,106.197 236.979,106.548 237.307,107.25    237.632,107.605 237.96,107.955 238.282,108.307 238.939,108.657 238.939,109.011 239.911,110.415 238.611,110.064    238.282,109.712 237.96,109.362 237.632,109.011 236.979,109.011 236.654,109.011 236.331,109.011 236.003,109.011    235.678,109.011 235.35,109.011 235.028,109.011 235.028,109.362 234.699,109.362 234.371,109.362 234.046,109.362    233.721,109.011 233.399,109.011 233.071,108.657 232.745,108.657 232.417,108.307 232.092,107.955 231.767,107.605    231.439,107.25 231.114,106.901 231.114,106.197 231.114,105.845 230.785,105.493 230.138,105.493 229.81,105.845    229.159,105.845 228.831,105.845 228.506,106.197 228.506,106.548 228.831,106.548 228.831,106.901 228.831,107.25    228.831,107.605 228.831,108.657 228.831,109.011 228.506,109.011 228.181,109.011 228.181,108.657 227.531,108.657    227.205,108.657 226.877,108.657 226.552,108.657 226.552,109.011 226.224,109.362 226.224,109.712 226.224,110.064    226.224,110.415 225.899,110.769 225.899,111.117 225.899,111.471 226.224,111.471 226.552,111.823 226.552,112.174    226.552,112.526 226.552,112.878 226.552,113.581 226.552,113.932 226.552,114.284 226.224,114.284 225.573,114.284    225.245,114.284 225.245,114.635 225.245,114.986 225.573,115.691 225.573,116.393 225.899,116.746 226.224,117.096    226.552,117.447 227.205,117.447 227.531,117.799 227.853,118.151 227.853,118.503 227.205,118.853 226.877,119.207    226.552,119.207 225.899,119.207 225.573,119.207 224.917,119.207 224.595,119.559 224.27,119.207 223.945,118.853    224.27,118.151 223.945,118.151 223.945,117.799 223.616,117.447 223.616,117.096 223.291,116.746 222.966,116.393    222.641,116.393 222.313,116.042 221.988,116.042 221.662,115.691 221.337,115.691 221.012,115.338 220.684,114.986    220.356,114.986 220.031,115.338 219.38,115.338 219.052,115.691 218.73,116.042 218.73,116.393 219.052,116.393 219.052,116.746    219.052,117.096 219.052,117.447 218.73,117.799 218.405,118.151 218.076,117.799 218.405,117.096 218.076,117.096    217.751,117.096 217.751,116.746 217.426,116.746 217.098,116.746 216.773,117.096 216.445,117.096 216.122,117.447    215.794,117.799 215.794,118.151 215.794,118.503 215.469,118.853 215.144,118.853 214.819,118.503 214.49,118.151    213.84,117.799 213.19,118.151 212.862,118.151 212.536,118.151 212.208,117.799 211.561,117.447 211.233,117.096    210.907,116.393 210.907,116.042 210.255,116.042 209.928,116.393 209.602,116.393 209.277,116.746 208.951,116.393    208.626,116.393 208.299,116.746 207.321,116.746 206.994,117.096 206.669,116.746 206.344,116.393 206.994,115.691    207.321,115.338 206.994,114.986 207.321,114.635 207.321,114.284 207.971,114.284 208.299,114.284 208.951,114.284    209.277,113.932 209.602,113.581 209.277,113.229 209.277,112.878 209.602,112.526 209.277,112.174 209.277,111.823    209.602,111.471 209.602,111.117 209.602,110.415 209.928,109.712 210.255,109.362 210.578,109.011 211.561,109.011    211.233,108.657 211.233,108.307 211.561,107.605 211.883,107.605 212.536,107.25 212.536,106.548 212.208,106.548    211.561,106.197 210.578,106.197 210.255,105.845 210.255,105.493 209.602,105.142 209.602,104.79 209.602,104.439    209.928,104.087 209.928,103.383 209.928,103.032 209.602,102.682 209.928,102.33 210.578,101.978 211.233,101.978    211.883,101.978 212.208,101.275 212.208,100.921 211.561,100.572 211.561,99.87 211.883,99.516 212.208,99.164 212.536,98.814    213.19,98.46 213.512,98.11 213.84,97.759 214.165,97.055 214.165,96.703 214.165,96.002 214.165,95.648 214.165,95.296    213.84,95.296 213.512,94.946 213.512,94.595 213.512,94.24 213.19,93.892 212.862,93.538 212.862,93.188 212.862,92.835    212.536,92.485 212.208,92.135 211.883,92.135 211.883,91.781 211.233,91.078 210.907,91.078 210.907,90.726 210.907,89.671    210.907,89.318 210.578,88.968 210.255,88.616 210.255,88.265 210.578,87.914 210.907,87.561 211.233,87.561 211.561,87.561    212.208,87.21 212.862,86.859   " id="upazila_190" area="upazlia" name="trishal" bengali="ত্রিশাল" parent="mymensingh"></polygon><polygon points="195.587,55.568 196.24,55.915 196.891,55.568 197.543,55.568 197.869,55.216 198.195,54.862    198.52,54.513 199.825,53.809 200.151,54.161 200.476,54.513 201.129,54.513 201.454,54.862 201.78,54.862 202.433,54.862    202.758,54.862 203.409,54.862 204.062,54.513 204.713,54.513 205.366,54.513 206.019,54.862 206.342,54.862 206.669,55.216    206.995,55.568 207.323,56.272 207.323,56.622 207.646,56.622 208.301,56.974 208.624,56.974 208.624,57.678 208.951,57.678    209.275,57.324 209.603,56.622 209.928,56.622 210.255,56.974 210.58,56.974 210.907,57.678 211.233,58.028 211.558,58.731    212.211,59.081 212.536,59.081 212.862,59.081 212.862,59.437 212.536,59.784 212.862,59.784 213.19,60.14 212.862,60.489    213.19,60.839 213.512,61.193 214.165,61.896 214.819,62.247 215.144,62.247 215.144,61.896 215.144,61.543 215.469,61.543    216.122,61.896 216.448,62.247 217.098,62.599 217.426,62.952 217.426,63.3 217.098,63.654 217.098,64.004 217.426,64.358    217.751,64.708 218.405,65.061 218.405,64.708 218.73,64.358 219.055,64.358 219.705,64.708 220.359,64.708 220.684,64.708    221.988,65.413 222.641,65.413 223.616,65.763 224.27,66.116 224.92,66.819 225.573,67.521 226.224,67.874 226.552,68.224    226.877,68.576 226.877,68.926 227.202,69.28 227.531,69.629 227.853,69.629 228.181,69.629 228.831,69.982 229.156,70.336    229.813,70.686 230.463,71.039 231.114,71.039 231.764,71.387 232.417,71.742 232.745,72.091 233.396,72.091 233.718,72.446    234.046,72.794 234.374,73.149 234.374,73.499 234.374,74.203 234.374,74.905 234.374,75.609 234.046,75.96 233.718,75.96    233.718,76.311 233.718,76.662 233.071,76.662 232.745,77.368 232.417,77.716 232.417,78.068 232.745,78.771 233.071,79.125    233.071,79.475 232.745,79.475 231.764,79.475 231.439,79.475 231.114,79.475 230.785,79.829 230.463,80.178 230.138,80.178    229.485,80.531 229.485,80.884 229.156,80.884 228.831,80.884 228.506,80.884 228.181,80.884 227.853,80.884 227.531,81.232    227.531,81.586 227.531,81.936 227.853,82.64 228.181,83.344 228.181,84.048 228.181,84.751 228.181,85.101 229.156,85.452    229.156,85.804 229.156,86.508 229.156,87.212 229.156,87.561 228.831,88.265 228.506,88.969 228.506,89.318 228.181,90.025    228.181,90.728 228.181,91.078 226.552,90.728 226.224,90.728 225.899,91.078 225.573,91.078 225.573,90.728 225.248,90.375    225.248,90.025 224.92,90.025 224.27,89.671 223.291,89.318 222.966,88.969 222.313,88.969 221.662,88.265 221.337,88.265    220.684,87.915 220.031,87.561 219.38,87.561 218.405,87.561 218.076,87.561 217.751,87.561 216.773,87.212 216.448,86.858    215.794,86.508 215.144,86.156 214.493,85.804 213.837,85.804 213.512,86.156 213.19,86.156 212.862,86.156 211.886,85.804    211.886,85.452 211.558,85.452 211.558,84.751 211.558,84.397 211.886,83.694 212.211,83.344 212.211,82.993 212.211,82.64    211.886,82.64 211.233,82.64 211.233,82.291 210.58,81.936 209.928,81.936 209.928,81.586 209.275,81.586 208.951,81.586    208.624,81.936 208.301,81.936 207.646,82.291 207.323,82.291 206.995,81.936 206.995,81.232 206.995,79.829 207.971,79.829    207.971,79.475 208.301,79.125 208.301,78.771 208.624,78.771 208.951,78.423 209.275,78.068 209.603,77.716 209.928,77.716    210.255,77.716 210.58,77.716 210.58,77.368 210.58,76.662 210.58,76.311 210.907,76.311 211.233,75.96 211.558,75.96    211.558,75.609 211.558,74.905 211.233,74.553 210.907,74.553 210.58,74.203 210.255,73.849 209.928,74.203 209.275,74.203    208.951,73.849 208.951,73.149 209.275,72.794 209.603,72.446 209.275,71.742 208.951,71.742 208.301,71.387 207.646,71.039    207.323,71.039 207.323,70.686 207.646,70.336 207.646,69.982 207.971,69.629 207.971,69.28 207.971,68.926 207.323,68.576    206.995,68.224 207.646,67.874 206.995,67.521 206.342,67.521 206.019,67.168 205.692,67.168 205.366,67.521 205.038,67.521    204.387,67.168 204.062,67.521 204.062,67.168 203.409,67.521 203.083,67.874 202.758,67.874 202.433,67.874 202.105,67.521    201.78,67.521 201.129,67.521 200.802,67.521 200.476,67.168 200.476,66.819 200.151,66.466 199.498,66.466 199.172,66.819    198.847,67.168 198.52,67.521 198.195,67.168 198.52,66.819 198.847,66.116 198.847,65.413 198.52,64.708 198.52,64.358    198.52,64.004 198.195,64.004 197.869,64.004 197.543,64.708 197.543,65.061 197.216,65.413 196.566,65.061 196.24,64.708    196.24,64.358 196.24,64.004 195.912,63.654 195.912,63.3 196.24,62.952 196.24,62.599 195.912,61.543 195.912,61.193    195.262,60.489 194.609,60.14 194.283,60.14 193.632,59.784 193.632,59.437 192.98,58.731 193.307,58.379 192.98,58.028    192.326,58.379 191.678,58.379 191.35,58.379 191.35,58.028 191.678,57.678 192.003,57.678 192.326,57.324 192.655,56.974    192.655,56.622 192.98,56.272 193.307,55.568 194.283,55.568 194.609,55.568 194.936,55.568   " id="upazila_186" area="upazlia" name="mymensinghsadar" bengali="ময়মনসিংহ-সদর" parent="mymensingh"></polygon></svg>