<svg enable-background="new -106.403 -201.859 629.266 880.536" height="880.536px" id="district_41" viewBox="-106.403 -201.859 629.266 880.536" width="629.266px" x="0px" xml:space="preserve" xmlns="http://www.w3.org/2000/svg" y="0px"><polygon points="258.166,149.795 258.82,149.795 259.148,149.795 259.795,150.147 260.448,150.147    260.774,150.147 261.427,150.499 261.752,150.499 262.08,150.849 262.731,150.849 263.053,150.499 263.381,150.499    265.013,150.147 265.338,150.147 265.663,150.147 266.314,149.795 266.642,149.446 267.292,149.091 267.946,148.742    268.271,148.742 268.599,148.742 268.921,148.742 269.246,148.742 269.903,148.742 270.553,149.091 270.878,149.091    271.206,149.446 271.531,149.795 271.854,150.147 271.854,151.202 271.854,151.553 272.182,151.907 272.507,152.607    272.835,152.958 272.835,153.312 272.835,153.665 272.835,154.716 272.507,155.42 272.507,155.772 272.507,156.474    272.835,156.828 274.139,157.532 274.786,157.532 275.115,157.882 275.44,158.234 275.768,158.586 276.093,158.937    276.746,158.937 276.746,159.29 276.746,159.64 276.093,158.937 275.44,158.937 275.115,158.937 274.786,159.29 274.464,159.64    274.464,159.992 274.139,160.342 273.486,160.693 272.835,160.693 272.507,160.693 271.854,160.693 271.531,160.693    270.878,160.693 270.878,161.048 270.553,161.75 270.225,162.101 270.225,162.454 270.225,162.805 270.553,163.156    270.878,163.511 271.206,163.858 271.206,164.56 271.206,165.267 271.531,165.617 271.531,166.321 271.531,167.023    271.531,167.378 271.854,168.079 271.854,168.431 272.182,168.431 272.507,168.079 272.835,168.079 273.157,168.079    273.157,168.431 273.486,168.781 273.486,169.484 273.486,169.836 273.157,170.539 272.507,170.188 272.182,170.188    271.854,170.539 271.531,170.539 271.531,170.891 271.206,171.244 270.878,171.244 270.878,171.597 270.553,171.945    270.225,171.945 269.574,172.299 268.921,172.299 268.599,172.299 268.599,171.597 268.271,171.597 267.62,171.244    267.292,171.244 266.967,171.244 266.642,170.539 266.314,170.188 265.989,169.836 265.663,169.484 265.338,169.484    265.338,169.836 265.338,170.188 265.663,170.539 265.663,171.244 265.663,171.597 265.663,171.945 266.314,171.945    266.314,172.299 265.989,172.648 265.663,172.648 265.338,172.299 265.013,172.299 264.685,172.299 264.357,172.299    264.357,173.001 264.357,173.354 264.685,173.705 264.685,174.058 264.685,174.406 264.685,174.757 264.357,175.462    264.031,175.462 263.709,175.111 263.381,175.111 263.053,175.111 262.731,174.757 262.406,174.406 261.752,174.058    261.099,173.705 260.774,173.705 260.12,173.705 259.47,173.705 259.148,173.705 258.491,173.705 258.166,173.705    257.841,174.058 257.188,174.058 256.537,174.058 256.212,174.058 255.884,174.058 255.234,174.058 254.906,174.058    254.58,174.058 253.93,174.058 253.605,174.406 253.28,174.406 252.954,174.757 251.648,174.406 252.301,173.705 252.626,172.648    251.973,172.299 251.973,171.597 251.973,170.539 252.301,170.539 252.626,170.188 252.954,170.188 252.954,170.539    253.605,170.891 253.93,171.244 254.58,171.244 255.234,170.891 255.559,171.597 255.884,171.244 256.865,171.244    257.188,170.539 257.841,170.539 258.491,170.188 259.148,171.244 259.795,171.244 260.448,170.539 260.448,169.836    260.448,169.484 260.448,169.135 260.448,168.781 259.47,168.431 259.148,168.781 258.82,168.781 258.166,168.781    257.841,169.135 257.513,169.135 257.188,168.431 257.188,168.079 257.841,167.727 258.491,166.674 258.82,165.97    259.148,165.617 259.148,164.916 259.47,164.213 259.148,163.511 258.82,162.805 258.491,162.454 258.166,161.75 258.166,161.048    258.82,160.693 258.82,159.992 259.148,159.64 258.491,158.937 258.82,158.586 258.82,157.882 259.148,157.532 258.82,156.828    258.166,156.474 257.513,155.772 257.188,155.42 256.865,155.068 256.537,154.013 256.537,153.312 256.865,152.607    257.188,151.907 257.513,151.553 257.841,151.202 258.166,150.499   " id="upazila_194" area="upazlia" name="monohardi" bengali="মনোহরদী" parent="narsingdi"></polygon><polygon points="276.746,159.64 276.746,160.344 277.4,160.694 277.719,161.397 278.047,162.103 278.7,162.453    279.026,162.805 279.679,163.157 280.007,163.51 280.332,163.858 280.332,164.211 280.655,164.211 281.633,164.562    282.286,164.562 282.94,164.211 283.265,164.211 283.912,164.562 283.912,164.915 283.912,165.618 283.912,166.321    283.59,166.672 283.265,167.024 282.612,167.024 282.286,167.377 281.308,167.377 280.98,167.727 280.655,167.727    280.655,168.079 280.655,168.431 280.655,168.781 280.98,169.134 281.633,169.487 281.958,169.487 282.612,169.837    283.265,169.837 283.59,170.188 284.569,170.188 285.219,170.539 285.544,170.891 286.198,170.891 286.523,171.244    287.826,172.299 288.155,172.648 288.477,173.001 288.805,173.354 289.455,173.705 290.106,173.705 290.434,173.705    290.762,174.056 291.087,174.056 291.409,174.056 291.74,173.705 292.388,173.705 292.716,173.354 293.041,173.354    293.369,173.354 293.695,173.354 294.02,173.705 294.02,174.056 294.67,175.111 294.998,175.462 295.323,175.462 295.649,175.813    295.974,175.813 296.299,176.166 296.299,176.517 296.627,176.868 296.299,177.572 296.299,177.924 296.299,178.274    295.974,178.626 295.649,178.979 295.323,178.979 295.323,178.626 295.323,178.274 295.649,177.572 295.649,177.222    295.974,176.868 295.323,176.166 294.67,175.813 294.345,175.813 294.02,175.813 293.369,176.166 293.041,176.166    292.716,176.166 292.388,176.166 292.066,176.166 291.74,175.813 291.087,175.813 291.087,176.166 290.762,176.868    290.106,176.868 289.781,177.222 289.781,177.924 289.455,178.274 289.133,178.274 289.133,177.924 288.805,177.572    288.805,177.222 288.477,176.868 287.826,177.222 287.501,177.572 286.848,177.572 286.523,177.924 286.198,178.274    285.872,178.626 285.544,179.329 284.894,179.681 284.24,180.033 283.912,180.033 283.59,180.033 283.59,179.681 283.59,179.329    283.59,178.626 283.265,178.274 282.94,177.924 282.286,177.924 282.286,178.274 282.286,178.626 281.958,178.626    281.308,178.274 280.655,178.274 279.679,177.572 279.351,177.222 278.7,176.868 278.047,176.166 277.4,175.813 277.072,175.813    276.746,175.462 276.746,175.111 276.746,174.406 277.072,174.056 276.418,173.354 276.418,173.001 276.418,172.299    276.418,171.945 276.746,171.244 276.418,170.891 276.093,170.539 275.768,170.891 275.115,170.891 274.464,170.891    273.814,170.891 273.157,170.539 273.483,169.837 273.483,169.487 273.483,168.781 273.157,168.431 273.157,168.079    272.835,168.079 272.507,168.079 272.182,168.431 271.854,168.431 271.854,168.079 271.531,167.377 271.531,167.024    271.531,166.321 271.531,165.618 271.203,165.267 271.203,164.562 271.203,163.858 270.878,163.51 270.553,163.157    270.225,162.805 270.225,162.453 270.225,162.103 270.553,161.75 270.878,161.046 270.878,160.694 271.531,160.694    271.854,160.694 272.507,160.694 272.835,160.694 273.483,160.694 274.139,160.344 274.464,159.992 274.464,159.64    274.786,159.29 275.115,158.937 275.443,158.937 276.093,158.937   " id="upazila_193" area="upazlia" name="belabo" bengali="বেলাবো" parent="narsingdi"></polygon><polygon points="295.323,178.979 295.649,179.329 295.974,179.329 296.627,179.682 297.281,179.682    297.931,179.329 298.585,179.329 299.56,179.329 299.232,180.386 298.585,181.091 298.254,181.792 297.931,182.496    297.606,183.199 297.281,183.549 296.952,184.253 296.952,184.957 296.952,185.659 296.952,186.363 297.281,186.713    297.281,187.418 297.281,188.12 297.606,188.47 297.606,189.176 297.606,189.526 297.281,190.231 297.281,190.58 296.952,190.933    296.302,191.284 295.323,191.636 294.67,192.337 294.345,192.691 294.02,193.043 294.02,193.394 293.695,193.746 294.02,194.449    294.02,195.153 294.345,195.503 294.345,196.206 294.345,196.911 294.02,197.262 293.366,197.967 292.716,198.315    292.066,198.669 291.412,199.019 291.087,199.373 290.762,199.722 290.762,200.075 290.434,200.779 290.434,201.131    290.434,201.481 290.106,202.184 290.106,202.888 290.106,203.239 290.106,203.591 289.781,204.295 289.133,204.998    288.805,205.348 288.805,206.052 288.155,206.402 287.498,206.402 286.848,206.755 286.198,206.755 285.219,206.755    284.894,206.052 284.24,205.701 284.24,205.348 283.912,204.998 283.59,204.645 282.94,203.942 282.612,203.942 282.286,203.942    281.636,204.295 280.98,204.645 280.655,204.645 280.655,204.998 280.004,204.645 279.351,204.998 279.026,205.348 278.7,205.701    278.047,203.239 278.047,202.888 277.719,202.536 277.4,202.184 277.074,201.834 276.746,201.834 276.418,201.481    276.418,201.131 276.093,200.779 276.093,200.426 276.418,200.075 276.093,199.722 276.093,199.373 276.418,198.669    276.093,198.315 276.093,197.967 275.768,197.613 275.115,197.613 274.786,197.613 274.464,197.613 273.811,197.613    273.486,197.613 272.835,197.967 272.507,198.315 272.182,199.019 271.854,199.019 271.854,199.373 271.531,199.722    271.531,200.075 271.206,200.779 271.206,201.131 270.878,201.481 270.225,201.834 268.921,202.184 268.596,202.184    268.271,202.184 267.946,201.834 267.62,201.131 267.292,201.131 266.967,200.426 266.967,200.075 266.642,199.373    266.642,199.019 266.642,198.669 266.642,198.315 266.314,197.262 267.292,196.911 267.62,196.558 267.946,196.206    267.946,195.503 267.62,195.153 267.62,194.449 267.946,194.097 268.596,193.746 268.921,193.394 268.921,192.691    268.921,191.988 268.921,191.636 268.921,191.284 269.246,190.58 269.903,189.877 270.553,189.176 270.878,188.823    270.878,188.47 270.878,187.769 270.878,187.418 271.206,187.769 271.531,188.12 271.854,188.47 271.854,189.176 271.531,189.526    271.206,189.877 270.878,190.231 270.553,190.933 270.553,191.284 270.553,191.636 270.878,191.988 271.206,192.337    271.531,192.337 271.854,192.337 272.507,191.636 272.835,191.284 273.486,191.284 273.811,190.933 274.464,190.231    274.464,189.877 275.115,189.877 275.44,189.526 275.768,189.526 276.093,188.823 276.093,188.47 276.418,188.12 276.746,187.769    277.074,187.066 277.074,186.713 277.4,186.363 277.4,185.659 277.4,185.306 277.4,184.957 277.719,184.604 278.047,184.253    278.047,183.902 277.719,183.902 277.074,183.549 277.4,183.199 277.719,182.496 277.719,182.142 277.719,181.792    277.719,181.439 277.719,181.091 277.719,180.386 277.719,180.033 277.4,179.329 277.4,178.979 277.719,178.274 278.047,177.924    278.375,177.572 278.7,176.868 279.351,177.222 279.679,177.572 280.655,178.274 281.308,178.274 281.961,178.626    282.286,178.626 282.286,178.274 282.286,177.924 282.94,177.924 283.265,178.274 283.59,178.626 283.59,179.329 283.59,179.682    283.59,180.033 283.912,180.033 284.24,180.033 284.894,179.682 285.544,179.329 285.872,178.626 286.198,178.274    286.523,177.924 286.848,177.572 287.498,177.572 287.829,177.222 288.477,176.868 288.805,177.222 288.805,177.572    289.133,177.924 289.133,178.274 289.455,178.274 289.781,177.924 289.781,177.222 290.106,176.868 290.762,176.868    291.087,176.166 291.087,175.814 291.74,175.814 292.066,176.166 292.391,176.166 292.716,176.166 293.041,176.166    293.366,176.166 294.02,175.814 294.345,175.814 294.67,175.814 295.323,176.166 295.974,176.868 295.649,177.222    295.649,177.572 295.323,178.274 295.323,178.626   " id="upazila_196" area="upazlia" name="raipura" bengali="রায়পুরা" parent="narsingdi"></polygon><polygon points="248.712,201.834 248.876,202.009 249.04,202.184 248.876,202.888 248.712,203.591    248.387,203.943 248.387,204.645 248.223,204.822 248.065,204.998 247.74,205.35 247.737,205.35 247.411,205.35 247.408,205.35    247.086,205.35 246.433,205.701 246.433,206.052 246.433,206.402 246.758,207.108 247.086,207.458 247.408,208.162    247.737,208.512 248.065,208.865 248.712,208.865 249.365,208.512 250.019,208.162 250.019,207.458 250.019,207.108    250.019,206.756 250.019,206.052 250.019,205.701 250.344,204.998 250.669,204.645 250.997,204.295 251.323,203.943    251.323,203.591 251.97,203.591 252.626,203.591 252.951,203.239 253.277,203.239 253.605,203.591 253.605,204.295    253.933,204.295 254.255,204.645 254.58,204.998 254.255,205.701 253.933,206.052 253.933,206.756 254.58,206.756    255.234,206.756 255.559,207.108 255.559,207.458 255.559,207.811 254.906,208.162 253.933,208.162 253.277,208.162    252.951,208.512 252.301,209.218 252.301,209.92 252.301,210.624 252.626,210.975 252.951,211.678 253.277,212.029    253.605,213.083 253.933,213.786 254.255,213.786 254.906,213.786 255.234,213.786 255.884,213.436 255.884,214.138    255.884,214.49 256.865,214.138 257.513,214.138 257.841,214.138 257.841,214.845 258.166,214.845 258.82,215.191    259.145,214.845 259.145,213.786 259.145,213.436 259.145,212.732 259.145,212.38 258.82,212.029 258.82,211.678 258.494,210.975    258.166,210.624 258.166,210.27 258.166,209.92 257.841,209.92 258.166,209.568 258.494,209.92 258.82,210.27 259.145,210.27    259.47,210.27 260.12,210.624 260.448,210.975 261.099,211.326 261.427,211.678 262.077,212.029 262.406,212.38 262.731,212.732    262.731,213.436 263.053,213.786 264.031,214.138 264.357,214.49 264.688,214.845 265.338,215.191 265.663,215.545    266.314,215.896 266.639,216.249 267.292,216.6 268.271,216.952 268.921,215.896 269.085,215.544 269.249,215.191    269.574,214.138 269.574,213.436 269.574,212.38 269.249,211.678 269.249,210.975 269.249,210.975 269.249,210.624    268.921,210.27 268.596,209.92 268.435,209.568 268.271,209.218 267.946,208.865 267.837,208.748 267.62,208.512 267.62,207.811    267.702,207.634 267.946,207.108 268.596,206.402 269.249,206.052 269.683,205.817 269.9,205.701 270.483,205.449    271.531,204.998 271.531,204.998 272.182,205.35 272.832,205.35 273.811,205.35 274.464,205.701 275.115,205.701 276.418,205.701    278.7,205.701 278.7,205.7 278.05,203.239 278.05,202.888 277.719,202.536 277.397,202.184 277.072,201.834 276.746,201.834    276.418,201.482 276.418,201.131 276.093,200.779 276.093,200.427 276.418,200.077 276.093,199.722 276.093,199.373    276.418,198.669 276.093,198.315 276.093,197.967 275.768,197.614 275.115,197.614 274.786,197.614 274.464,197.614    273.811,197.614 273.486,197.614 272.832,197.967 272.507,198.315 272.182,199.02 271.854,199.02 271.854,199.373    271.531,199.722 271.531,200.077 271.203,200.779 271.203,201.131 270.878,201.482 270.225,201.834 268.921,202.184    268.596,202.184 268.271,202.184 267.946,201.834 267.62,201.131 267.292,201.131 266.967,200.427 266.967,200.077    266.639,199.373 266.639,199.02 266.639,198.669 266.639,198.315 266.314,197.262 265.663,197.262 265.013,196.911    264.688,196.558 264.357,196.558 263.706,196.208 264.031,195.855 264.357,195.855 265.013,195.503 265.338,195.855    265.338,195.153 265.663,194.8 265.989,194.8 265.989,194.449 265.989,193.747 266.314,193.043 265.989,193.043 265.989,192.34    266.314,191.636 266.314,190.58 265.989,190.58 265.663,190.58 265.338,190.936 265.013,191.286 265.013,191.636 264.688,191.988    264.031,192.691 264.357,193.394 264.031,193.747 263.706,193.747 263.053,194.449 262.731,193.747 262.077,193.747    261.427,193.747 261.099,194.449 260.774,194.449 260.448,194.449 259.145,194.097 258.82,194.8 258.82,195.153 258.494,195.503    257.841,195.855 257.513,195.855 257.188,195.503 256.865,195.503 256.537,195.503 255.884,195.503 255.559,196.208    255.234,196.208 254.906,196.558 254.58,196.208 254.255,195.855 253.605,196.208 253.277,196.558 252.951,196.558    252.301,196.558 251.97,196.911 251.323,196.911 250.997,196.911 250.669,196.911 250.669,197.262 250.669,197.614    250.344,197.967 249.694,197.614 249.365,197.967 249.04,197.967 249.04,198.315 249.04,199.02 248.387,199.722 248.712,200.077    249.04,200.779 248.712,201.481 248.712,201.482   " id="upazila_458" area="upazlia" name="narsingdi" bengali="নরসিংদী" parent="narsingdi"></polygon><polygon points="251.648,174.406 252.951,174.76 253.277,174.406 253.605,174.406 253.933,174.058 254.58,174.058    254.906,174.058 255.234,174.058 255.884,174.058 256.212,174.058 256.537,174.058 257.188,174.058 257.841,174.058    258.163,173.702 258.494,173.702 259.145,173.702 259.47,173.702 260.12,173.702 260.774,173.702 261.099,173.702    261.752,174.058 262.406,174.406 262.731,174.76 263.056,175.111 263.381,175.111 263.706,175.111 264.031,175.463    264.36,175.463 264.688,174.76 264.688,174.406 264.688,174.058 264.688,173.702 264.36,173.354 264.36,173.002 264.36,172.299    264.688,172.299 265.013,172.299 265.338,172.299 265.663,172.648 265.989,172.648 266.314,172.299 266.314,171.945    265.663,171.945 265.663,171.597 265.663,171.244 265.663,170.541 265.338,170.188 265.338,169.837 265.338,169.484    265.663,169.484 265.989,169.837 266.314,170.188 266.639,170.541 266.967,171.244 267.292,171.244 267.62,171.244    268.271,171.597 268.596,171.597 268.596,172.299 268.921,172.299 269.574,172.299 270.225,171.945 270.553,171.945    270.878,171.597 270.878,171.244 271.203,171.244 271.531,170.891 271.531,170.541 271.854,170.541 272.182,170.188    272.507,170.188 273.157,170.541 273.811,170.891 274.464,170.891 275.115,170.891 275.768,170.891 276.093,170.541    276.418,170.891 276.746,171.244 276.418,171.945 276.418,172.299 276.418,173.002 276.418,173.354 277.072,174.058    276.746,174.406 276.746,175.111 276.746,175.463 277.072,175.814 277.397,175.814 278.05,176.163 278.7,176.868 278.375,177.571    278.05,177.925 277.719,178.275 277.397,178.979 277.397,179.329 277.719,180.032 277.719,180.388 277.719,181.091    277.719,181.441 277.719,181.792 277.719,182.143 277.719,182.494 277.397,183.199 277.072,183.55 277.719,183.902    278.05,183.902 278.05,184.253 277.719,184.605 277.397,184.956 277.397,185.306 277.397,185.659 277.397,186.363    277.072,186.712 277.072,187.067 276.746,187.769 276.418,188.12 276.093,188.472 276.093,188.823 275.768,189.528    275.443,189.528 275.115,189.877 274.464,189.877 274.464,190.231 273.811,190.936 273.486,191.286 272.835,191.286    272.507,191.634 271.854,192.337 271.531,192.337 271.203,192.337 270.878,191.989 270.553,191.634 270.553,191.286    270.553,190.936 270.878,190.231 271.203,189.877 271.531,189.528 271.854,189.174 271.854,188.472 271.531,188.12    271.203,187.769 270.878,187.416 270.878,187.769 270.878,188.472 270.878,188.823 270.553,189.174 269.9,189.877 269.249,190.58    268.921,191.286 268.921,191.634 268.921,191.989 268.921,192.691 268.921,193.395 268.596,193.747 267.946,194.095    267.62,194.449 267.62,195.153 267.946,195.502 267.946,196.208 267.62,196.557 267.292,196.911 266.314,197.262 265.663,197.262    265.013,196.911 264.688,196.557 264.36,196.557 263.706,196.208 264.031,195.856 264.36,195.856 265.013,195.502    265.338,195.856 265.338,195.153 265.663,194.8 265.989,194.8 265.989,194.449 265.989,193.747 266.314,193.041 265.989,193.041    265.989,192.337 266.314,191.634 266.314,190.58 265.989,190.58 265.663,190.58 265.338,190.936 265.013,191.286 265.013,191.634    264.688,191.989 264.031,192.691 264.36,193.395 264.031,193.747 263.706,193.747 263.056,194.449 262.731,193.747    262.08,193.747 261.427,193.747 261.099,194.449 260.774,194.449 260.448,194.449 259.145,194.095 259.798,193.041    260.12,193.041 260.774,193.747 261.427,193.395 261.752,192.691 261.752,192.337 261.099,191.989 261.099,191.634    261.099,191.286 261.099,190.58 262.08,190.58 262.406,190.231 262.406,189.174 261.752,189.174 261.752,188.472 261.752,187.769    262.406,187.416 262.731,187.067 262.731,186.363 262.731,185.659 263.056,185.306 262.731,184.956 262.08,184.956    261.427,184.956 261.099,185.306 260.774,186.012 260.448,186.363 260.774,186.363 261.099,186.712 261.099,187.067    261.099,187.769 260.774,188.12 260.448,188.12 260.12,188.12 259.145,188.12 258.82,188.12 258.494,188.472 258.163,188.472    257.841,188.12 257.513,187.416 257.841,187.067 257.841,186.363 258.494,186.012 258.163,185.306 258.82,184.605 259.47,184.253    260.12,184.605 260.12,183.902 260.12,183.199 259.798,183.199 259.145,183.199 258.494,183.199 257.841,182.494 257.513,183.199    257.188,183.199 257.188,183.55 256.865,183.55 256.537,183.199 256.212,183.199 256.212,182.847 255.884,182.143    255.884,181.792 256.212,181.441 255.884,180.737 255.559,180.032 253.933,180.032 253.933,178.626 253.277,177.222    252.951,176.868 252.301,176.163 251.97,175.814 251.648,175.111 251.323,174.76   " id="upazila_197" area="upazlia" name="shibpur" bengali="শিবপুর" parent="narsingdi"></polygon><polygon points="253.93,180.033 255.559,180.033 255.887,180.737 256.212,181.439 255.887,181.792    255.887,182.143 256.212,182.847 256.212,183.199 256.537,183.199 256.863,183.55 257.188,183.55 257.188,183.199    257.513,183.199 257.841,182.496 258.491,183.199 259.145,183.199 259.795,183.199 260.12,183.199 260.12,183.902 260.12,184.604    259.47,184.253 258.82,184.604 258.166,185.306 258.491,186.012 257.841,186.363 257.841,187.066 257.513,187.418 257.841,188.12    258.166,188.472 258.491,188.472 258.82,188.12 259.145,188.12 260.12,188.12 260.448,188.12 260.774,188.12 261.099,187.769    261.099,187.066 261.099,186.713 260.774,186.363 260.448,186.363 260.774,186.012 261.099,185.306 261.424,184.957    262.08,184.957 262.728,184.957 263.053,185.306 262.728,185.659 262.728,186.363 262.728,187.066 262.406,187.418    261.755,187.769 261.755,188.472 261.755,189.176 262.406,189.176 262.406,190.231 262.08,190.58 261.099,190.58 261.099,191.286    261.099,191.636 261.099,191.988 261.755,192.337 261.755,192.691 261.424,193.394 260.774,193.747 260.12,193.043    259.795,193.043 259.145,194.097 258.82,194.8 258.82,195.153 258.491,195.503 257.841,195.855 257.513,195.855 257.188,195.503    256.863,195.503 256.537,195.503 255.887,195.503 255.559,196.208 255.231,196.208 254.906,196.558 254.58,196.208    254.255,195.855 253.605,196.208 253.28,196.558 252.951,196.558 252.301,196.558 251.973,196.911 251.323,196.911 251,196.911    250.669,196.911 250.669,197.262 250.669,197.614 250.344,197.967 249.694,197.614 249.365,197.967 249.037,197.967    249.037,198.315 249.037,199.02 248.39,199.722 248.715,200.075 249.037,200.779 248.715,201.482 248.065,201.131    248.065,200.779 247.737,200.427 247.411,200.779 247.086,201.482 246.758,201.834 246.105,201.834 245.454,201.131    245.78,200.427 245.132,200.427 244.804,200.427 244.154,200.427 243.172,200.779 242.847,200.779 242.197,200.427    242.522,199.373 242.197,198.669 242.197,198.315 241.543,197.614 243.172,196.558 243.825,197.262 244.476,197.262    245.454,197.262 245.78,196.911 247.086,196.558 248.065,196.208 248.39,195.153 248.715,194.449 248.715,194.097    249.365,193.747 249.694,193.394 249.694,192.691 248.39,191.988 248.715,191.636 248.715,190.58 249.694,190.58 250.019,189.879    250.344,189.526 250.019,188.823 250.344,188.472 251,187.769 251.648,187.769 251.973,187.066 252.301,186.363 251.648,186.012    251.648,185.306 251.648,184.957 251.973,184.253 252.626,184.604 253.28,184.253 253.93,183.902 254.58,183.199 254.58,182.847    254.58,182.143 254.58,181.439 254.255,180.737   " id="upazila_195" area="upazlia" name="palash" bengali="পলাশ" parent="narsingdi"></polygon></svg>