<svg enable-background="new -106.403 -201.859 629.266 880.536" height="880.536px" id="district_41" viewBox="-106.403 -201.859 629.266 880.536" width="629.266px" x="0px" xml:space="preserve" xmlns="http://www.w3.org/2000/svg" y="0px"><polygon points="24.147,99.87 24.47,99.518 24.797,99.518 25.45,99.518 25.777,99.87 26.429,100.22    26.754,100.573 27.406,100.923 28.059,101.275 28.384,101.625 29.688,101.625 30.338,101.979 30.991,102.682 30.991,103.032    30.338,103.032 30.013,103.384 30.013,103.737 30.338,104.087 30.991,104.44 31.316,104.44 31.642,104.44 31.969,103.737    32.622,103.384 32.946,103.384 33.274,103.384 33.596,104.087 33.926,104.44 33.926,105.142 34.577,105.142 34.902,105.493    35.228,105.846 35.878,106.199 36.206,106.901 36.531,106.901 37.184,106.548 37.835,106.548 38.489,106.901 37.835,107.252    37.51,107.605 37.51,107.955 37.835,107.955 38.16,108.307 38.16,108.658 37.835,109.011 37.184,109.362 37.184,110.067    37.184,110.769 36.859,111.12 36.531,111.471 36.206,112.174 36.531,112.878 36.531,113.581 36.531,114.284 35.878,114.284    35.556,114.635 35.556,114.989 35.878,115.338 35.878,115.691 35.556,115.691 34.902,116.395 34.902,116.746 34.902,117.096    35.228,117.096 35.878,118.151 35.878,118.503 36.206,118.855 36.859,118.855 37.184,118.855 37.51,119.207 37.835,119.912    37.51,120.262 36.859,120.262 36.859,120.614 36.531,121.315 36.531,122.371 36.859,122.371 37.184,122.371 37.51,122.019    37.835,121.315 38.16,120.964 38.489,120.614 39.141,120.614 39.466,120.964 39.466,121.668 39.141,122.019 39.141,122.723    39.141,123.425 39.141,123.777 38.814,124.482 39.141,124.832 39.141,125.536 39.466,125.536 40.117,125.536 40.445,125.185    40.445,124.832 40.445,124.129 40.77,123.777 41.093,123.777 41.421,124.129 41.748,124.482 42.399,124.482 43.052,124.832    44.029,125.536 43.052,126.237 42.073,126.59 41.748,126.941 41.748,127.292 41.748,127.646 41.421,127.646 41.093,127.996    41.421,128.349 41.421,128.699 41.748,129.053 41.421,129.403 41.093,129.403 40.77,129.756 40.445,130.106 40.117,130.106    40.445,130.459 40.77,130.81 40.77,131.16 40.445,131.16 40.117,131.16 39.791,131.513 39.791,131.866 39.466,132.216    38.814,132.216 38.814,132.567 38.489,132.92 38.489,133.271 38.814,133.974 38.16,133.974 37.51,134.326 37.184,134.326    36.859,134.678 36.531,134.678 35.878,135.027 35.228,135.733 34.902,136.436 35.228,137.49 34.577,137.841 34.251,137.49    33.926,137.49 33.274,137.139 32.622,136.436 32.294,136.436 31.969,136.436 31.642,136.436 30.991,136.083 30.665,135.733    30.338,135.38 29.033,135.027 28.709,135.027 28.384,134.678 27.731,134.326 27.406,133.623 27.406,133.271 27.406,132.92    27.731,132.567 27.731,132.216 27.406,132.216 27.08,132.216 26.754,132.567 26.754,132.92 25.777,133.271 25.45,132.92    25.45,132.567 25.45,132.216 25.125,131.866 24.47,131.866 24.147,131.866 23.822,132.216 23.494,132.567 23.168,132.92    22.516,133.271 22.19,133.271 21.865,132.92 21.212,132.567 20.887,132.567 20.562,132.567 20.562,132.92 20.562,133.623    20.562,133.974 20.234,134.326 19.583,134.326 19.258,134.326 18.932,133.974 18.605,133.623 18.28,133.623 17.954,133.623    17.303,133.974 16.976,133.974 16.976,133.623 17.303,133.271 16.976,132.92 16.65,133.271 16.65,133.974 16.324,134.326    15.999,134.678 15.021,134.326 14.696,134.326 14.696,134.678 14.37,134.678 14.042,134.678 13.717,135.027 13.39,135.38    12.74,135.38 12.41,135.38 12.088,135.027 11.761,135.027 11.436,135.027 11.11,134.678 11.11,134.326 10.781,133.974    10.457,134.326 10.129,134.678 10.129,135.027 9.806,135.38 9.479,135.027 9.154,134.678 9.479,133.974 9.806,133.271    9.806,132.92 10.457,132.216 11.11,132.216 11.436,132.567 11.761,132.567 12.41,132.216 13.064,132.216 13.39,132.216    14.37,131.866 14.696,131.513 15.021,130.81 15.021,130.106 14.696,129.403 14.37,129.403 14.37,129.053 14.37,128.699    14.696,127.996 15.021,127.292 15.344,126.59 15.674,126.237 15.674,125.536 15.674,125.185 15.674,124.832 15.674,124.482    15.999,124.129 15.999,123.425 15.999,123.073 15.344,123.073 15.344,122.723 15.344,122.371 15.344,122.019 15.344,121.668    15.674,120.964 15.999,119.912 15.674,119.559 15.021,119.207 14.696,118.855 14.696,118.503 15.021,118.151 15.344,117.45    15.344,117.096 15.021,116.746 14.696,116.044 14.696,115.691 14.696,115.338 15.021,115.338 15.021,114.635 15.344,114.284    15.674,114.284 15.999,113.934 16.65,113.934 16.976,113.581 16.976,113.229 16.976,112.878 17.303,112.174 17.303,111.823    17.303,111.471 17.954,111.12 18.28,111.12 18.932,111.471 18.932,111.12 18.932,110.769 18.932,110.415 19.258,109.714    19.258,109.362 18.932,109.362 18.605,109.714 18.28,109.714 17.954,110.067 17.303,110.067 16.976,110.067 16.324,110.067    15.999,110.415 15.674,110.415 15.344,110.415 15.344,110.067 15.344,109.714 15.344,109.362 15.344,109.011 14.696,109.011    13.717,109.011 13.39,108.658 13.39,108.307 13.39,107.955 13.717,107.605 14.37,107.252 14.696,107.252 15.344,107.605    15.344,106.901 15.344,106.199 15.674,106.199 15.999,105.846 16.65,105.846 16.976,105.493 17.626,105.493 17.954,105.493    18.605,105.493 19.258,105.142 19.907,105.493 20.234,105.846 20.562,106.199 21.212,106.199 21.539,105.846 21.865,105.493    22.19,105.142 22.843,104.791 23.494,104.791 23.822,104.44 24.147,104.087 24.147,103.737 24.47,103.032 24.47,102.33    24.147,101.979 24.147,101.625 23.822,101.275   " id="upazila_357" area="upazlia" name="natoresadar" bengali="নাটোর-সদর" parent="natore"></polygon><polygon points="43.052,91.43 43.375,91.43 43.703,91.43 44.029,91.43 44.353,91.43 45.006,91.078 45.332,90.726    45.332,90.373 45.332,90.025 45.332,89.671 45.656,89.318 45.983,89.318 46.635,89.318 46.961,89.318 47.286,89.318    47.286,88.968 47.615,88.616 47.939,88.616 48.265,88.968 48.265,89.671 48.265,90.025 48.265,90.373 48.265,90.726 48.592,91.43    48.915,92.135 48.915,92.485 49.568,92.835 50.221,93.188 50.221,93.538 50.221,93.892 49.896,94.24 50.221,94.24 50.546,94.24    51.198,93.892 51.848,93.892 52.501,93.538 52.828,93.188 52.828,92.835 52.828,92.135 53.155,92.135 53.479,92.135    53.479,91.781 53.155,91.43 52.828,90.726 53.155,90.373 53.479,90.025 53.808,90.025 54.13,90.025 54.782,89.671 55.112,89.318    55.436,89.318 55.764,90.373 55.764,90.726 56.412,90.726 56.74,91.078 57.066,90.726 57.393,90.726 57.393,91.43 57.066,91.781    57.393,91.781 57.718,91.43 58.041,91.43 58.041,91.781 57.718,92.485 57.393,92.835 56.74,92.835 56.74,93.188 56.74,93.892    56.412,94.24 56.089,94.24 56.089,94.594 56.74,94.594 57.066,94.946 57.066,95.296 57.393,95.648 57.393,96.002 57.718,95.648    58.041,94.946 58.371,94.594 58.695,94.594 59.022,95.648 59.022,96.353 59.022,96.703 59.022,97.406 59.022,98.11 59.675,98.46    60,98.814 60,99.164 60.325,99.516 60.976,99.516 61.629,99.164 61.955,99.164 62.281,98.814 62.281,98.11 62.281,97.759    62.605,97.406 62.934,96.703 63.584,96.353 63.908,96.353 64.238,96.002 64.238,95.648 64.238,95.296 63.908,94.946    63.584,94.594 63.258,94.24 63.584,93.892 63.908,93.892 64.563,93.188 64.888,92.835 65.215,92.835 65.538,92.835 65.866,92.835    66.519,93.188 67.169,93.188 67.495,93.188 67.495,92.835 67.821,92.835 68.148,93.188 68.471,93.188 69.126,93.188    69.451,93.538 69.777,93.538 70.102,94.24 70.102,94.594 70.43,94.946 71.08,94.594 71.406,94.946 71.406,95.296 71.406,95.648    71.406,96.353 71.406,96.703 71.732,96.703 72.384,96.703 73.034,96.703 73.689,96.703 74.341,97.055 74.016,98.11 74.016,99.164    74.016,99.87 74.663,100.572 74.994,100.921 75.317,101.625 75.645,102.329 75.645,102.682 75.317,103.032 74.994,103.383    74.994,103.737 74.994,104.087 74.994,104.439 74.663,104.439 74.341,104.087 74.016,104.439 74.016,105.142 74.016,105.493    73.689,105.142 73.364,105.493 73.689,105.845 73.364,106.548 72.712,106.548 72.712,106.901 72.712,107.25 72.06,108.657    72.06,109.362 71.732,109.362 71.406,109.362 71.406,109.712 71.406,110.064 71.08,110.064 70.755,110.415 70.755,110.769    70.43,111.117 70.102,111.117 69.777,111.823 69.451,112.174 69.126,112.526 69.126,112.878 68.801,113.229 68.471,113.229    68.148,113.581 67.821,113.581 67.821,114.284 67.495,114.635 67.821,114.635 67.495,114.986 67.821,115.338 67.495,115.691    67.821,116.393 67.495,116.393 67.495,116.746 67.495,117.096 67.169,117.447 67.169,117.799 66.844,118.151 66.844,118.503    66.519,118.853 65.866,119.207 65.538,119.207 64.888,119.559 64.563,119.909 64.238,120.261 63.908,120.614 63.908,120.964    63.908,121.314 63.908,121.667 61.955,122.019 61.629,121.667 61.629,121.314 61.629,120.964 60.976,120.964 60.652,120.964    60.325,120.964 60,121.314 59.675,121.667 59.022,122.371 58.695,122.371 58.371,123.073 58.041,123.425 58.041,123.777    58.041,124.128 58.371,124.832 58.041,125.184 57.718,125.535 57.066,125.535 55.436,125.535 55.112,125.184 54.458,125.184    54.13,124.832 53.479,124.832 52.828,124.832 52.501,124.832 52.178,125.184 51.848,125.886 51.525,125.886 50.874,126.237    50.546,125.886 49.896,125.886 49.896,125.535 49.568,124.832 49.243,124.832 48.592,124.832 47.939,124.832 47.615,124.832    46.961,124.832 46.635,124.482 46.311,124.128 45.983,124.128 45.656,124.482 45.332,125.184 45.006,125.535 44.029,125.535    43.052,124.832 42.399,124.482 41.748,124.482 41.421,124.128 41.093,123.777 40.77,123.777 40.443,124.128 40.443,124.832    40.443,125.184 40.119,125.535 39.466,125.535 39.141,125.535 39.141,124.832 38.814,124.482 39.141,123.777 39.141,123.425    39.141,122.722 39.141,122.019 39.466,121.667 39.466,120.964 39.141,120.614 38.489,120.614 38.16,120.964 37.835,121.314    37.509,122.019 37.184,122.371 36.859,122.371 36.531,122.371 36.531,121.314 36.859,120.614 36.859,120.261 37.509,120.261    37.835,119.909 37.509,119.207 37.184,118.853 36.859,118.853 36.206,118.853 35.878,118.503 35.878,118.151 35.227,117.096    34.902,117.096 34.902,116.746 34.902,116.393 35.556,115.691 35.878,115.691 35.878,115.338 35.556,114.986 35.556,114.635    35.878,114.284 36.531,114.284 36.531,113.581 36.531,112.878 36.206,112.174 36.531,111.47 36.859,111.117 37.184,110.769    37.184,110.064 37.184,109.362 37.835,109.011 38.16,108.657 38.16,108.307 37.835,107.955 37.509,107.955 37.509,107.603    37.835,107.25 38.489,106.901 39.466,106.901 39.789,106.901 40.443,106.548 40.77,106.197 41.093,105.845 41.421,105.845    41.748,106.197 42.072,106.197 42.399,105.493 42.724,104.439 42.724,103.737 43.052,103.383 43.375,103.032 43.375,102.329    43.375,101.625 43.703,101.275 43.375,99.87 43.375,99.516 43.375,99.164 43.052,98.814 42.399,98.46 42.399,98.11 42.724,97.406    42.724,97.055 42.724,96.002 42.724,95.296 42.724,94.946 43.052,94.594 43.052,94.24 43.052,93.892 42.724,93.188 42.724,92.835    42.724,91.781   " id="upazila_358" area="upazlia" name="singra" bengali="সিংড়া" parent="natore"></polygon><polygon points="44.029,125.536 45.006,125.536 45.331,125.185 45.656,124.482 45.983,124.129 46.311,124.129    46.635,124.482 46.96,124.832 47.614,124.832 47.939,124.832 48.592,124.832 49.242,124.832 49.569,124.832 49.894,125.536    49.894,125.886 50.544,125.886 50.874,126.239 51.523,125.886 51.85,125.886 52.176,125.185 52.501,124.832 52.826,124.832    53.479,124.832 54.13,124.832 54.458,125.185 55.109,125.185 55.437,125.536 57.066,125.536 57.718,125.536 58.043,125.185    58.371,124.832 58.043,124.129 58.043,123.78 58.043,123.425 58.371,123.073 58.695,122.372 59.02,122.372 59.672,121.668    60,121.315 60.325,120.964 60.652,120.964 60.976,120.964 61.629,120.964 61.629,121.315 61.629,121.668 61.954,122.019    63.909,121.668 64.237,122.019 64.563,122.372 64.887,122.372 65.215,122.019 65.538,122.019 65.865,121.668 66.192,122.019    66.517,122.019 66.844,122.372 66.844,122.723 67.167,122.723 67.497,123.073 68.146,123.073 68.146,123.425 68.471,123.78    68.471,124.129 68.146,124.832 68.146,125.185 68.146,125.536 68.471,125.886 68.799,125.886 68.799,126.239 68.471,126.941    68.471,127.647 68.471,127.996 68.471,128.699 68.799,129.756 69.126,130.459 69.126,130.81 69.449,130.81 70.102,130.81    70.755,131.16 71.08,131.514 71.406,132.216 72.06,132.216 72.384,132.567 72.71,132.92 73.034,132.92 73.034,133.271    73.034,133.623 73.034,133.974 72.71,134.678 72.71,135.027 72.384,135.733 72.06,135.733 71.731,135.733 71.08,135.733    70.755,135.733 70.428,136.083 70.102,136.436 69.449,136.436 69.126,136.787 68.799,137.139 68.799,137.49 68.471,138.544    67.167,137.841 66.844,137.49 66.517,137.49 66.192,137.49 66.192,137.841 65.865,138.193 65.538,138.544 65.215,138.896    65.215,139.601 65.215,139.951 65.215,140.303 64.887,140.654 64.563,140.654 63.909,140.654 63.583,140.654 63.258,141.005    62.281,140.654 61.954,140.303 61.302,139.601 60.976,139.248 60.652,138.896 60.652,138.193 60.325,137.841 60,137.49    59.347,137.139 59.02,136.787 58.695,136.787 58.043,136.787 57.718,136.787 57.391,136.436 57.066,136.436 57.066,135.733    56.74,135.733 56.412,135.733 55.762,135.381 55.437,134.678 55.437,134.326 55.109,133.974 54.458,133.974 53.808,133.974    53.479,133.974 53.156,133.974 52.826,134.326 52.501,134.326 51.523,133.623 51.198,133.623 50.874,133.974 51.198,134.326    51.198,135.027 51.523,135.733 51.198,135.733 50.544,136.083 50.221,136.436 49.894,136.083 49.242,135.733 48.915,136.083    48.265,136.083 46.96,135.733 45.983,135.733 45.656,135.381 45.331,135.381 45.006,135.381 44.681,135.027 44.353,134.678    44.029,135.027 43.702,135.027 43.375,135.381 42.724,135.733 42.399,136.083 42.072,136.083 41.748,136.083 41.095,136.083    40.768,136.083 40.443,135.733 40.443,135.381 40.443,135.027 40.768,135.027 41.095,134.678 41.42,134.678 42.072,134.678    42.399,134.678 42.724,134.326 43.05,133.974 42.724,133.623 42.724,132.92 42.399,132.92 42.072,132.92 41.748,133.271    41.748,133.623 41.748,134.326 41.42,133.974 41.42,133.623 41.095,133.271 40.768,133.623 40.117,133.623 39.789,133.974    39.466,134.326 39.139,134.678 38.814,134.678 38.488,134.326 38.16,133.974 38.814,133.974 38.488,133.271 38.488,132.92    38.814,132.567 38.814,132.216 39.466,132.216 39.789,131.866 39.789,131.514 40.117,131.16 40.443,131.16 40.768,131.16    40.768,130.81 40.443,130.459 40.117,130.106 40.443,130.106 40.768,129.756 41.095,129.403 41.42,129.403 41.748,129.053    41.42,128.699 41.42,128.349 41.095,127.996 41.42,127.647 41.748,127.647 41.748,127.292 41.748,126.941 42.072,126.59    43.05,126.239   " id="upazila_355" area="upazlia" name="gurudaspur" bengali="গুরুদাসপুর" parent="natore"></polygon><polygon points="8.177,135.733 8.5,134.678 9.154,134.678 9.478,135.026 9.807,135.381 10.131,135.026    10.131,134.678 10.457,134.326 10.781,133.976 11.11,134.326 11.11,134.678 11.436,135.026 11.76,135.026 12.088,135.026    12.411,135.381 12.74,135.381 13.392,135.381 13.717,135.026 14.04,134.678 14.37,134.678 14.694,134.678 14.694,134.326    15.021,134.326 15.999,134.678 16.323,134.326 16.65,133.976 16.65,133.271 16.975,132.92 17.303,133.271 16.975,133.623    16.975,133.976 17.303,133.976 17.954,133.623 18.28,133.623 18.604,133.623 18.932,133.976 19.257,134.326 19.583,134.326    20.237,134.326 20.562,133.976 20.562,133.623 20.562,132.92 20.562,132.567 20.889,132.567 21.212,132.567 21.865,132.92    22.191,133.271 22.518,133.271 23.166,132.92 23.496,132.567 23.82,132.216 24.147,131.866 24.472,131.866 25.125,131.866    25.45,132.216 25.45,132.567 25.45,132.92 25.777,133.271 26.754,132.92 26.754,132.567 27.08,132.216 27.406,132.216    27.73,132.216 27.73,132.567 27.406,132.92 27.406,133.271 27.406,133.623 27.73,134.326 28.383,134.678 28.709,135.026    29.033,135.026 30.338,135.381 30.663,135.733 30.991,136.083 31.644,136.437 31.969,136.437 32.294,136.437 32.622,136.437    33.274,137.139 33.926,137.488 34.251,137.488 34.577,137.842 35.227,137.488 35.556,137.842 35.227,138.544 34.902,138.896    34.902,139.248 34.577,139.601 34.251,139.95 34.577,140.304 34.577,141.005 34.902,141.709 34.251,142.411 33.926,142.762    33.596,142.762 33.274,142.411 32.946,142.411 32.622,142.411 32.622,142.762 32.622,143.467 32.622,143.818 31.969,144.171    31.644,144.524 31.316,144.871 30.663,144.871 30.663,145.226 30.338,145.226 29.688,145.226 29.033,145.226 28.059,145.226    27.73,144.871 27.406,145.226 27.08,145.226 26.429,144.524 26.101,144.171 25.777,143.818 25.45,143.467 25.125,143.116    24.8,142.762 24.8,142.411 24.472,142.063 23.82,142.063 23.496,142.411 23.166,142.411 22.518,142.762 22.191,143.116    22.518,143.467 22.191,143.818 21.865,143.818 21.537,144.171 21.212,144.524 20.889,144.524 20.562,144.871 20.889,145.226    21.212,145.929 21.212,146.279 21.212,146.632 21.212,146.983 20.889,147.688 20.889,148.038 20.237,148.742 20.237,149.092    19.583,149.092 19.257,148.742 18.932,148.391 17.954,148.038 17.626,147.336 17.303,147.336 16.975,146.983 16.65,146.983    16.323,146.632 16.323,146.279 16.323,145.578 15.999,145.226 15.999,144.871 15.999,144.524 16.323,144.171 16.323,143.818    16.323,143.116 15.999,142.411 15.674,142.411 15.344,142.411 14.37,142.063 14.04,142.063 13.717,142.411 13.064,142.411    13.064,142.063 12.74,142.063 12.74,141.709 12.411,141.005 12.411,140.654 12.088,140.304 11.76,139.601 11.76,139.248    11.436,139.248 11.11,139.248 10.781,139.248 10.457,139.601 10.131,139.95 10.131,140.654 9.807,141.005 9.478,141.005    9.478,140.654 9.478,140.304 9.478,139.95 9.154,139.601 8.828,139.248 8.5,139.248 8.5,138.896 8.177,138.544 8.5,138.193    8.5,137.842 8.828,137.488 9.154,137.488 8.828,136.787 8.5,136.437   " id="upazila_353" area="upazlia" name="bagatipara" bengali="বাগাতিপাড়া" parent="natore"></polygon><polygon points="17.953,148.038 18.933,148.39 19.257,148.742 19.582,149.092 20.234,149.092 20.234,148.742    20.887,148.038 20.887,147.688 21.214,146.981 21.214,146.632 21.214,146.279 21.214,145.928 20.887,145.226 20.562,144.873    20.887,144.521 21.214,144.521 21.537,144.169 21.865,143.818 22.191,143.818 22.516,143.467 22.191,143.114 22.516,142.762    23.166,142.412 23.496,142.412 23.82,142.061 24.472,142.061 24.797,142.412 24.797,142.762 25.125,143.114 25.448,143.467    25.777,143.818 26.101,144.169 26.427,144.521 27.079,145.226 27.406,145.226 27.73,144.873 28.059,145.226 29.033,145.226    28.383,146.279 28.708,146.981 29.033,147.335 29.362,148.038 29.362,148.39 29.362,149.092 29.033,149.445 28.708,149.795    28.708,150.499 29.033,150.849 29.362,150.849 29.688,151.202 30.34,151.202 30.663,151.555 30.663,151.905 30.663,152.61    30.012,153.663 29.688,154.367 29.362,155.068 29.033,155.068 29.033,155.772 29.362,156.125 30.012,155.772 30.34,155.422    30.663,154.716 30.99,154.716 31.316,154.716 31.969,155.068 32.292,154.716 32.946,154.716 32.622,155.068 32.946,155.068    33.273,155.068 33.596,154.716 33.596,154.367 33.926,154.367 34.251,154.016 34.576,154.016 34.902,154.367 34.902,154.716    35.228,154.716 35.555,155.068 35.555,155.422 34.902,155.772 34.576,155.772 34.251,156.125 34.576,156.125 34.576,156.477    34.902,156.828 34.576,156.828 34.576,157.18 34.902,157.53 35.228,157.883 35.555,158.234 35.555,158.585 35.555,158.937    35.555,159.29 35.878,159.29 36.205,159.29 36.531,159.64 36.531,159.992 36.857,160.694 37.184,160.694 37.834,161.046    38.488,161.046 39.139,161.046 40.768,161.397 40.768,161.75 40.768,162.103 40.768,162.453 40.443,162.805 39.789,163.157    39.139,163.157 38.488,163.157 37.184,163.157 36.857,163.157 36.531,163.51 36.531,163.858 36.205,164.213 36.205,164.562    35.878,164.562 35.228,164.213 34.902,164.213 34.251,163.51 34.251,163.157 33.926,162.453 33.926,161.75 33.596,161.046    33.596,160.694 33.273,160.344 32.946,160.344 32.622,160.694 32.292,161.046 31.969,161.397 31.642,161.397 30.99,161.397    30.34,161.75 30.012,162.103 29.362,162.103 29.362,162.453 29.362,162.805 29.688,162.805 30.012,162.805 30.663,162.805    30.99,163.157 31.316,163.157 31.316,163.51 30.99,163.51 30.99,163.858 30.663,163.858 30.012,163.51 29.362,163.51    29.688,163.858 30.012,164.213 30.34,164.213 30.34,164.562 30.663,164.562 30.99,165.267 30.99,165.618 30.99,166.321    30.99,166.672 30.663,167.377 30.34,167.727 30.012,167.727 29.362,167.727 29.033,167.377 28.708,167.377 28.059,167.377    27.079,167.377 26.101,167.377 25.125,167.024 24.145,167.024 23.166,167.024 22.191,166.672 21.537,166.321 21.214,165.97    20.887,165.97 20.562,166.321 19.908,166.672 19.582,167.024 18.933,167.377 18.605,167.377 18.605,167.024 18.605,166.672    18.605,166.321 18.933,165.618 18.605,165.618 18.28,165.618 17.628,165.97 17.301,165.97 16.975,166.321 17.301,166.672    17.301,167.377 17.301,167.727 16.975,168.08 16.648,168.08 15.999,168.431 15.344,168.781 14.694,169.134 13.717,169.487    13.39,169.487 12.739,169.837 12.411,169.837 12.411,169.487 12.739,169.487 12.739,169.134 13.064,168.781 13.39,168.431    13.39,168.08 13.064,167.727 12.739,167.727 12.411,167.727 12.088,168.08 11.76,168.08 11.108,168.431 10.781,168.431    10.131,167.727 10.781,167.377 11.108,166.321 11.436,165.97 11.76,165.618 12.411,165.618 12.739,165.618 13.39,165.618    13.39,165.267 14.04,163.858 14.368,163.51 14.694,162.805 14.368,162.453 14.368,162.103 14.694,161.75 14.694,161.397    14.368,161.046 14.04,161.046 13.717,161.397 13.064,161.046 12.739,161.046 11.436,161.046 10.781,161.046 10.456,160.694    10.456,160.344 10.456,159.992 10.781,159.64 11.108,159.64 11.76,159.29 11.76,158.937 11.76,158.585 11.76,158.234    11.436,158.234 11.108,157.883 11.108,157.53 11.436,157.53 11.76,157.18 11.76,156.828 12.088,156.125 12.088,155.772    11.76,155.422 11.76,155.068 11.436,154.716 11.76,154.367 11.76,153.663 12.088,153.663 11.76,153.312 11.76,152.959    11.76,152.256 11.76,151.905 12.088,151.905 12.088,151.555 12.411,150.849 12.411,150.499 12.739,150.499 12.739,150.849    12.739,151.202 12.739,151.555 13.064,151.555 13.39,151.905 13.717,151.555 14.04,151.555 14.694,151.202 15.019,151.202    15.344,151.202 15.344,150.849 15.344,150.499 15.344,150.148 15.671,149.795 15.999,150.148 16.323,150.148 16.648,150.148    17.301,149.795 17.628,149.445 17.953,148.742   " id="upazila_356" area="upazlia" name="lalpur" bengali="লালপুর" parent="natore"></polygon><polygon points="35.228,137.49 34.902,136.436 35.228,135.733 35.88,135.027 36.531,134.678 36.857,134.678    37.184,134.326 37.51,134.326 38.16,133.974 38.489,134.326 38.814,134.678 39.139,134.678 39.466,134.326 39.791,133.974    40.117,133.623 40.77,133.623 41.095,133.271 41.42,133.623 41.42,133.974 41.746,134.326 41.746,133.623 41.746,133.271    42.073,132.917 42.399,132.917 42.724,132.917 42.724,133.623 43.052,133.974 42.724,134.326 42.399,134.678 42.073,134.678    41.42,134.678 41.095,134.678 40.77,135.027 40.443,135.027 40.443,135.38 40.443,135.733 40.77,136.083 41.095,136.083    41.746,136.083 42.073,136.083 42.399,136.083 42.724,135.733 43.377,135.38 43.702,135.027 44.028,135.027 44.354,134.678    44.681,135.027 45.006,135.38 45.331,135.38 45.657,135.38 45.983,135.733 46.961,135.733 48.265,136.083 48.917,136.083    49.243,135.733 49.894,136.083 50.221,136.436 50.546,136.083 51.198,135.733 51.525,135.733 51.198,135.027 51.198,134.326    50.872,133.974 51.198,133.623 51.525,133.623 52.503,134.326 52.828,134.326 53.155,133.974 53.479,133.974 53.808,133.974    54.458,133.974 55.112,133.974 55.436,134.326 55.436,134.678 55.762,135.38 56.414,135.733 56.74,135.733 57.066,135.733    57.066,136.436 57.393,136.436 57.718,136.785 58.043,136.785 58.697,136.785 59.022,136.785 59.347,137.139 60,137.49    60.325,137.841 60.651,138.193 60.651,138.896 60.977,139.247 61.304,139.601 61.954,140.303 62.281,140.654 63.258,141.005    63.584,140.654 63.909,140.654 64.563,140.654 64.888,140.654 65.213,140.303 65.213,139.951 65.213,139.601 65.213,138.896    65.538,138.544 65.866,138.193 66.192,137.841 66.192,137.49 66.517,137.49 66.842,137.49 67.169,137.841 68.473,138.544    68.473,139.247 68.799,139.601 68.799,140.303 68.473,140.654 68.148,140.654 67.821,140.654 67.169,140.654 66.842,141.005    66.842,141.357 66.517,141.357 65.866,142.061 65.866,142.412 65.538,143.114 65.213,143.467 64.888,144.169 64.237,144.873    63.909,145.226 63.584,145.226 62.933,145.226 62.606,145.226 62.281,145.576 62.281,145.929 61.629,145.929 61.304,146.279    61.304,146.632 61.304,146.981 61.304,147.336 61.954,147.336 62.281,147.688 62.606,147.688 62.606,148.038 62.606,148.39    62.281,149.092 61.954,149.445 61.304,149.445 60.977,150.148 60.977,150.499 60.651,150.499 60.325,150.849 59.672,150.499    59.672,150.849 59.672,151.202 60,151.555 60,151.905 60,152.256 59.672,152.959 59.672,153.312 59.347,154.016 58.697,154.367    58.043,154.716 57.718,154.716 57.066,155.07 56.414,155.422 56.087,155.772 55.762,156.125 55.436,156.125 55.112,155.772    54.782,155.772 54.132,156.125 53.808,156.125 53.479,156.125 52.828,156.477 52.503,156.828 52.176,157.532 51.85,158.234    51.525,158.939 51.525,159.29 51.198,159.64 50.546,160.344 49.569,160.694 48.59,160.694 47.614,160.694 46.961,160.694    46.31,160.694 45.331,160.694 44.681,160.694 43.702,160.694 43.052,160.694 42.724,161.046 42.399,161.75 42.073,161.75    41.746,161.75 41.42,161.398 41.42,161.046 40.77,161.046 40.77,161.398 39.139,161.046 38.489,161.046 37.834,161.046    37.184,160.694 36.857,160.694 36.531,159.992 36.531,159.64 36.206,159.29 35.88,159.29 35.555,159.29 35.555,158.939    35.555,158.585 35.555,158.234 35.228,157.883 34.902,157.532 34.576,157.18 34.576,156.828 34.902,156.828 34.576,156.477    34.576,156.125 34.249,156.125 34.576,155.772 34.902,155.772 35.555,155.422 35.555,155.07 35.228,154.716 34.902,154.716    34.902,154.367 34.576,154.016 34.249,154.016 33.926,154.367 33.598,154.367 33.598,154.716 33.273,155.07 32.946,155.07    32.622,155.07 32.946,154.716 32.294,154.716 31.967,155.07 31.317,154.716 30.991,154.716 30.663,154.716 30.338,155.422    30.013,155.772 29.362,156.125 29.034,155.772 29.034,155.07 29.362,155.07 29.688,154.367 30.013,153.665 30.663,152.61    30.663,151.905 30.663,151.555 30.338,151.202 29.688,151.202 29.362,150.849 29.034,150.849 28.709,150.499 28.709,149.797    29.034,149.445 29.362,149.092 29.362,148.39 29.362,148.038 29.034,147.336 28.709,146.981 28.383,146.279 29.034,145.226    29.688,145.226 30.338,145.226 30.663,145.226 30.663,144.873 31.317,144.873 31.642,144.521 31.967,144.169 32.622,143.818    32.622,143.467 32.622,142.762 32.622,142.412 32.946,142.412 33.273,142.412 33.598,142.762 33.926,142.762 34.249,142.412    34.902,141.708 34.576,141.005 34.576,140.303 34.249,139.951 34.576,139.601 34.902,139.247 34.902,138.896 35.228,138.544    35.555,137.841   " id="upazila_354" area="upazlia" name="baraigram" bengali="বড়াইগ্রাম" parent="natore"></polygon></svg>