<svg enable-background="new -106.403 -201.859 629.266 880.536" height="880.536px" id="district_41" viewBox="-106.403 -201.859 629.266 880.536" width="629.266px" x="0px" xml:space="preserve" xmlns="http://www.w3.org/2000/svg" y="0px"><polygon points="458.289,318.565 458.289,318.214 457.966,317.861 457.966,317.507 457.309,316.808    457.309,316.103 456.984,315.753 456.657,314.697 456.332,313.996 456.009,313.642 455.683,313.29 455.683,312.939    455.358,312.585 455.358,312.235 455.358,311.885 455.683,311.533 455.358,311.179 455.358,310.829 455.031,310.478    454.703,310.127 454.38,309.776 453.726,308.367 453.401,308.016 453.077,307.313 453.077,306.612 452.746,306.612    452.746,306.259 452.746,305.553 452.746,305.203 452.423,304.852 452.423,304.151 452.423,303.797 452.423,303.445    452.097,303.095 452.097,302.04 452.097,301.686 452.097,300.282 452.097,299.577 452.097,299.227 452.097,298.522    452.097,298.175 452.097,297.82 452.097,297.469 452.097,296.768 452.097,295.709 452.097,294.654 452.097,294.303    452.097,292.896 452.097,292.195 451.772,291.49 451.772,291.14 452.097,290.438 451.772,290.084 451.444,289.732    451.117,289.378 450.789,289.378 450.143,289.028 449.818,288.681 449.49,288.331 448.84,288.331 448.186,287.977    447.858,287.625 447.531,287.271 446.883,286.92 446.883,286.566 446.554,286.566 445.906,286.216 445.577,285.864    445.251,285.514 444.926,285.514 444.278,285.163 443.948,284.812 443.297,284.461 442.971,284.108 442.646,284.108    442.646,283.756 442.646,283.403 442.971,283.052 443.297,283.052 443.62,282.698 443.948,282.347 444.278,282.002    444.926,282.002 445.577,281.295 445.906,281.645 446.229,281.295 446.883,280.593 447.211,280.24 447.531,280.24    447.858,279.886 448.186,279.534 448.84,279.184 449.16,278.836 449.49,278.482 450.143,278.132 450.469,277.777 451.117,277.427    451.772,277.076 451.772,276.722 452.097,276.371 452.746,275.673 453.077,275.319 453.401,274.614 453.401,273.912    453.401,273.558 453.401,272.857 453.401,272.156 453.401,270.746 453.077,270.042 452.746,268.992 452.746,267.582    452.097,265.824 451.772,265.12 451.444,263.713 451.117,262.661 450.789,261.956 450.789,261.606 450.789,261.255    450.789,260.547 450.789,259.848 450.469,259.147 450.143,258.088 449.818,257.387 449.16,255.98 448.84,254.925 448.514,253.519    448.186,252.111 447.858,251.06 447.211,249.653 446.883,248.243 446.554,247.191 446.229,246.135 445.906,245.431    445.906,244.727 446.229,242.969 446.554,242.969 446.883,242.267 446.883,241.917 446.554,241.563 446.554,241.211    446.554,240.859 446.554,240.51 446.883,239.805 447.211,239.454 447.858,239.102 448.186,239.102 448.514,239.454    448.84,239.454 449.16,239.454 449.49,239.102 449.818,238.751 450.469,238.047 450.789,237.695 451.117,236.994 451.772,236.641    452.423,235.587 452.746,235.235 453.077,234.882 453.401,234.534 454.052,234.179 454.38,233.477 454.703,232.421    455.031,232.069 455.031,231.718 455.683,231.369 456.009,231.015 456.657,231.015 457.309,230.664 457.966,230.312    458.615,230.312 458.944,230.312 458.944,230.664 458.944,231.015 458.615,231.718 458.615,232.421 458.944,233.125    459.269,233.477 459.269,234.179 459.594,234.534 459.915,234.534 460.243,234.534 460.573,234.534 460.573,234.179    461.223,234.534 461.223,234.882 461.877,234.882 462.527,235.235 463.177,235.587 463.506,235.936 463.832,236.291    463.832,236.641 463.832,236.994 463.832,237.695 463.832,238.4 463.832,239.102 463.832,239.454 463.832,240.157    463.832,240.859 463.832,241.917 464.484,242.267 464.809,242.969 465.46,242.969 466.113,242.969 466.113,242.619    466.438,242.267 466.766,241.917 467.415,241.211 467.092,240.859 467.092,240.157 467.092,239.805 467.415,239.454    467.415,239.102 467.74,238.751 467.74,238.4 467.74,238.047 468.067,237.695 468.395,237.695 468.395,236.994 468.395,236.641    468.067,236.291 468.067,235.587 467.74,235.235 468.067,234.882 468.067,234.534 468.395,234.179 469.046,233.828    469.369,233.125 470.027,233.125 470.675,233.125 470.998,233.125 471.326,233.125 471.978,233.125 472.303,233.125    472.96,233.125 473.281,233.477 473.281,234.534 473.281,234.882 473.61,235.235 473.932,235.235 474.26,235.587 474.589,235.936    474.589,236.291 474.909,236.641 474.909,236.994 474.909,237.695 474.909,238.4 474.909,239.102 474.909,239.454    474.589,239.805 474.589,240.51 473.932,241.917 473.61,242.619 472.96,243.323 472.96,243.674 472.632,244.024 472.632,244.376    472.632,244.727 472.96,244.727 473.281,244.727 473.61,244.727 473.61,245.431 473.281,246.135 472.96,246.487 473.281,246.487    473.281,246.837 473.61,246.837 473.932,246.837 474.26,246.487 474.589,246.487 474.909,246.487 475.564,246.837    475.564,247.539 475.236,247.539 474.909,247.893 474.589,247.893 474.589,248.595 474.589,249.653 474.589,250.003    474.589,250.355 474.589,251.06 474.909,251.407 475.236,251.758 475.236,252.111 475.564,252.111 475.892,252.111    476.218,251.758 476.541,252.467 476.541,252.817 476.866,252.817 476.866,253.167 476.866,253.869 476.866,254.575    477.193,254.925 477.193,255.275 477.193,255.626 477.521,255.98 477.844,256.686 477.521,257.033 477.193,257.737    477.521,258.088 477.521,258.439 477.193,258.793 477.193,259.147 476.866,259.848 477.193,259.848 477.193,260.197    477.521,260.197 477.844,260.197 478.495,260.901 478.172,261.255 478.172,261.606 478.172,261.956 478.172,262.308    478.495,262.661 478.495,263.012 478.823,263.012 478.823,263.36 478.823,264.067 478.823,264.419 478.823,264.77 478.495,264.77    478.495,265.12 478.823,265.12 478.823,265.474 478.823,265.824 478.495,265.824 478.172,265.824 478.495,266.526    478.823,266.877 479.15,266.877 479.478,266.877 479.478,267.231 479.15,267.582 478.495,267.582 478.495,267.932    478.172,268.287 478.495,268.287 478.823,268.638 479.15,268.638 479.478,268.638 479.801,268.992 480.126,269.342    480.126,269.689 480.126,270.042 479.801,269.689 479.478,269.689 479.478,270.396 479.801,270.396 480.452,270.396    480.452,270.746 480.126,270.746 479.801,271.096 479.801,271.45 480.126,272.156 480.126,272.506 480.126,273.208    480.452,273.558 480.452,273.912 480.781,274.264 480.781,273.912 481.104,273.558 481.429,273.208 481.758,273.208    481.758,273.558 482.086,273.558 482.086,273.912 482.086,274.614 482.409,274.965 482.409,275.319 482.086,276.021    482.086,276.371 482.409,276.371 482.733,276.371 483.386,276.722 483.386,277.076 483.386,277.427 483.058,277.777    482.733,278.482 482.733,279.184 482.733,279.534 483.058,279.534 483.386,279.534 483.386,279.886 483.386,280.24    482.733,280.24 482.733,280.944 483.058,280.944 483.386,280.944 483.715,280.944 484.038,280.944 484.365,280.944    484.038,281.295 483.386,281.645 483.386,282.002 483.386,282.347 483.386,282.698 483.715,282.698 483.715,283.052    484.038,283.052 484.038,282.698 484.365,282.698 484.69,282.698 484.69,282.347 485.018,282.002 485.018,282.347    485.018,283.052 485.344,283.052 485.664,283.052 485.664,283.403 485.99,283.756 485.99,284.108 486.319,284.461    486.319,285.163 485.99,285.514 485.664,286.566 485.344,287.271 485.018,287.977 484.69,288.331 484.365,288.681    484.365,289.028 484.365,289.378 484.365,289.732 484.69,290.084 484.69,289.732 485.018,289.378 485.344,289.378    485.664,289.378 485.664,289.732 485.99,290.438 485.99,290.789 486.319,291.14 486.647,291.847 486.647,292.896 486.647,293.953    486.319,293.953 486.647,294.654 486.972,294.654 486.972,295.011 487.621,295.709 487.952,296.768 487.952,297.116    487.298,296.768 487.298,297.116 487.298,297.469 487.298,297.82 487.621,297.82 487.621,298.175 487.952,298.175    488.279,298.175 488.598,298.522 488.598,299.227 488.598,299.577 488.598,299.932 488.927,299.932 488.598,300.633    487.621,300.984 487.298,300.984 486.647,300.984 485.664,300.984 485.344,300.984 484.69,300.984 484.365,300.984    484.038,300.984 483.386,300.984 483.058,300.984 482.409,300.984 482.733,302.39 482.733,302.741 482.733,303.095    482.733,303.445 483.058,303.797 483.058,304.151 483.058,304.501 483.058,304.852 483.058,305.203 483.058,305.553    483.058,305.905 483.058,306.259 482.733,306.612 482.733,306.963 482.733,307.313 482.733,307.665 483.058,308.016    483.386,308.016 483.715,308.367 483.386,308.717 483.058,308.717 483.386,309.421 483.386,309.776 483.386,310.127    483.715,310.829 484.038,311.533 484.038,311.885 483.715,312.235 483.715,312.585 483.715,312.939 483.715,313.29    483.715,313.642 483.386,313.996 483.058,314.697 483.386,315.047 483.715,315.401 484.038,315.753 484.365,315.753    484.365,316.103 484.365,316.457 484.038,316.808 484.038,317.159 483.715,317.507 483.715,317.861 483.715,318.214    483.386,318.565 483.386,318.916 483.386,319.266 483.715,319.266 483.715,319.62 484.038,319.972 484.365,320.322    484.69,320.322 485.018,321.023 485.018,321.377 485.344,321.377 485.344,321.729 485.664,321.729 485.99,321.377 486.319,322.08    486.319,322.43 486.647,322.784 486.647,323.84 486.972,324.542 486.972,324.892 487.298,324.892 487.298,325.242    487.298,325.951 487.298,326.302 487.298,326.652 487.298,327.003 486.972,327.706 485.99,326.302 485.664,325.951    485.344,325.598 485.018,325.242 484.69,324.542 484.038,324.188 483.715,323.84 483.386,323.134 482.733,322.784 482.409,322.43    482.086,322.08 481.758,321.377 481.429,321.023 481.104,320.676 480.781,320.322 480.452,319.972 480.452,319.62 480.126,319.62    479.801,319.62 479.478,319.266 479.15,319.266 478.823,318.916 478.823,318.565 478.495,318.565 478.172,318.214    477.844,317.861 477.521,317.507 477.521,317.159 477.193,317.159 476.866,317.159 476.218,317.159 475.564,316.808    474.909,316.808 474.589,316.457 473.932,316.457 473.61,316.103 473.281,316.103 472.96,316.103 472.303,316.103    471.653,316.103 470.998,316.103 470.349,315.753 470.027,315.753 469.698,315.401 469.369,315.047 469.046,315.047    468.72,315.401 468.395,315.753 468.067,315.753 467.74,315.753 467.415,316.103 467.092,316.457 466.766,316.808    466.438,316.808 465.783,316.808 465.46,316.808 465.135,316.808 464.809,316.457 464.156,316.103 463.832,315.753    463.506,315.401 463.177,315.047 462.852,315.047 462.527,314.697 462.2,314.697 461.877,314.346 461.549,314.346    461.549,313.996 461.223,313.996 460.898,314.346 460.898,314.697 460.898,315.047 460.573,315.401 460.573,316.103    460.573,316.457 460.573,316.808 460.898,317.159 460.898,317.507 460.898,317.861 461.223,318.214 461.223,318.565    461.549,318.565 461.877,318.916 461.877,319.266 461.877,319.62 461.549,320.322 461.549,320.676 461.223,321.377    460.573,321.729 460.243,321.377 459.915,321.023 459.915,320.676 459.594,320.322 459.269,319.972 458.944,319.62    458.944,319.266 458.615,318.916   " id="upazila_110" area="upazlia" name="baghaichari" bengali="বাঘাইছড়ি" parent="rangamati"></polygon><polygon points="458.289,318.565 458.615,318.916 458.944,319.266 458.944,319.62 459.269,319.972    459.594,320.322 459.915,320.676 459.915,321.023 460.243,321.377 460.573,321.729 461.223,321.377 461.549,320.676    461.549,320.322 461.877,319.62 461.877,319.266 461.877,318.916 461.549,318.565 461.223,318.565 461.223,318.214    460.898,317.861 460.898,317.507 460.898,317.159 460.573,316.808 460.573,316.457 460.573,316.103 460.573,315.401    460.898,315.047 460.898,314.697 460.898,314.346 461.223,313.996 461.549,313.996 461.549,314.346 461.877,314.346    462.2,314.697 462.527,314.697 462.852,315.047 463.177,315.047 463.506,315.401 463.832,315.753 464.156,316.103    464.809,316.457 465.135,316.808 465.46,316.808 465.783,316.808 466.438,316.808 466.766,316.808 467.092,316.457    467.415,316.103 467.74,315.753 468.067,315.753 468.395,315.753 468.72,315.401 469.046,315.047 469.369,315.047    469.698,315.401 470.027,315.753 470.349,315.753 470.998,316.103 471.653,316.103 472.303,316.103 472.96,316.103    473.281,316.103 473.61,316.103 473.932,316.457 474.589,316.457 474.909,316.808 475.564,316.808 475.236,318.214    474.909,318.916 474.589,319.62 474.26,320.322 473.932,321.023 473.281,321.729 472.632,322.784 472.303,323.488 472.303,323.84    472.632,324.188 473.281,323.84 473.61,323.84 474.26,323.84 474.589,323.84 474.909,323.84 475.564,323.84 475.892,323.84    475.892,324.188 475.564,324.892 475.236,324.892 475.236,325.242 475.236,325.598 474.909,325.951 474.589,326.302    474.589,326.652 474.589,327.003 474.589,327.354 474.589,328.056 474.589,328.76 474.589,329.465 474.909,330.17    475.236,330.868 475.236,331.574 475.892,331.924 475.892,332.278 475.892,332.982 476.218,332.982 476.218,333.333    476.218,334.032 476.541,334.389 476.541,334.737 476.541,335.442 476.541,335.793 476.541,336.146 476.541,336.844    476.541,337.553 476.541,337.904 476.541,338.605 476.218,338.959 475.892,340.011 475.564,340.716 475.564,341.418    475.564,341.772 475.564,342.123 475.564,342.827 475.564,343.174 475.564,343.879 475.564,344.233 475.236,344.233    474.909,344.233 474.589,344.233 474.26,344.233 473.932,344.233 473.61,344.233 473.61,344.581 473.61,344.935 473.932,344.935    473.932,345.285 473.932,345.641 473.61,346.341 473.932,346.692 474.26,346.692 474.26,347.042 474.26,347.749 473.932,348.099    473.932,348.449 473.932,348.8 473.61,349.157 473.932,350.207 473.932,350.561 473.932,350.911 473.932,351.263 473.932,351.617    474.26,352.321 474.589,352.672 474.589,353.371 474.909,353.724 475.236,353.724 475.236,354.078 475.564,354.429    475.564,355.13 475.892,355.485 475.892,355.835 475.892,356.183 475.564,356.183 475.236,356.537 474.909,356.537    474.589,356.537 474.26,356.537 473.932,356.183 473.281,356.183 472.632,356.183 471.978,355.835 471.326,355.835    470.998,355.835 470.675,355.835 470.675,356.183 470.349,356.537 470.027,356.537 469.698,356.887 468.72,356.887    468.067,357.241 467.74,357.241 467.415,357.593 467.092,357.241 466.766,356.887 466.438,356.537 466.113,356.183    465.783,355.835 465.46,355.485 465.135,355.485 464.809,355.485 464.809,355.835 464.484,356.183 463.832,356.537    463.506,357.241 463.177,357.241 463.177,357.593 462.852,357.943 462.2,358.648 461.877,358.998 461.223,359.35 460.898,359.35    460.573,359.35 460.243,359.35 459.594,359.7 458.944,358.297 458.615,357.943 458.289,357.593 458.289,357.241 458.289,356.887    457.966,356.537 457.309,355.485 456.984,355.13 456.984,354.78 456.657,354.429 456.332,354.078 456.332,353.371    456.009,353.019 455.358,352.321 455.031,351.617 454.703,350.911 454.703,350.561 454.38,349.856 454.052,349.157    453.401,348.449 453.077,347.749 452.746,347.395 452.746,346.692 452.423,345.991 452.097,344.935 451.772,344.935    451.772,344.581 451.444,343.879 451.444,343.526 451.117,341.066 451.117,340.362 450.789,339.312 450.789,338.959    450.789,338.254 450.469,337.198 450.469,336.146 450.469,335.793 450.469,335.09 450.143,334.389 449.818,333.682    449.49,333.333 449.16,332.629 448.84,332.278 448.84,331.924 448.84,331.222 448.84,330.868 448.514,330.17 448.514,329.816    448.514,329.465 448.186,329.111 447.858,328.056 447.211,327.003 446.883,326.302 446.229,324.892 446.229,324.188    445.906,323.84 445.906,323.488 445.577,323.134 445.577,322.784 445.577,322.08 445.906,322.08 446.229,321.729 446.883,321.729    447.211,322.08 447.858,322.08 448.186,321.729 448.514,321.729 448.84,321.729 449.49,321.377 450.143,321.377 450.469,321.023    450.789,321.023 451.117,320.676 451.444,320.322 452.097,319.972 452.423,319.62 452.746,319.62 453.401,319.62 453.726,319.62    454.052,319.62 454.052,319.972 454.38,319.972 455.031,319.972 455.683,319.972 455.683,319.62 456.009,319.62 456.332,319.62    456.657,319.62 456.984,319.62 457.309,319.62 457.966,318.916   " id="upazila_116" area="upazlia" name="langadu" bengali="লংগদু" parent="rangamati"></polygon><polygon points="475.567,316.808 476.218,317.159 476.866,317.159 477.193,317.159 477.521,317.159    477.521,317.509 477.844,317.861 478.172,318.211 478.495,318.562 478.823,318.562 478.823,318.916 479.15,319.266    479.475,319.266 479.801,319.62 480.129,319.62 480.452,319.62 480.452,319.972 480.779,320.322 481.104,320.676 481.432,321.023    481.758,321.377 482.081,322.08 482.409,322.43 482.733,322.787 483.386,323.134 483.715,323.84 484.035,324.19 484.693,324.542    485.018,325.242 485.344,325.598 485.664,325.951 485.992,326.302 486.972,327.708 486.322,328.056 486.322,328.406    486.322,329.465 486.322,330.17 485.992,330.868 485.664,331.574 485.664,331.928 485.992,332.278 486.322,332.979    485.992,333.333 486.322,334.035 485.992,334.389 486.322,335.087 485.992,335.087 485.344,335.796 485.344,336.497    485.344,337.198 485.018,337.553 485.018,337.9 485.018,338.254 485.344,338.605 485.344,338.959 485.344,339.309    485.344,339.661 485.344,340.008 485.344,340.362 485.018,340.716 484.693,341.418 484.693,341.772 484.693,342.123    485.018,342.477 485.018,342.824 485.344,342.824 485.664,342.824 485.992,342.824 486.322,342.824 486.647,342.824    486.647,342.477 486.972,342.477 487.298,342.477 487.626,342.477 487.949,342.824 487.949,343.174 487.949,343.879    487.949,344.23 488.279,344.581 488.598,344.581 488.927,344.581 489.255,344.581 489.578,344.581 489.905,344.581    490.23,344.581 490.23,344.23 490.558,343.879 490.886,343.879 490.886,344.23 490.23,344.935 490.558,345.641 490.886,345.991    491.212,345.991 491.531,346.338 491.862,347.042 491.862,347.397 491.862,347.749 491.862,348.099 492.187,348.449    492.512,348.803 492.838,348.449 492.838,348.803 493.164,348.449 493.49,348.099 493.49,347.749 493.819,347.397    494.144,347.397 494.144,348.099 494.469,348.449 494.469,348.803 494.469,349.154 494.469,349.502 494.469,349.856    494.79,349.856 494.79,350.207 495.118,350.207 495.448,350.207 495.773,350.561 495.448,350.911 495.118,350.911    495.118,351.263 494.79,351.617 495.118,351.967 495.448,351.967 495.773,351.967 496.098,352.321 496.098,352.672    496.424,352.672 496.424,353.019 496.098,353.019 495.773,353.019 495.448,353.019 495.773,353.371 495.773,353.728    495.773,354.078 496.098,354.426 496.098,354.78 495.773,354.426 495.448,354.426 495.118,354.426 495.118,354.78    495.448,355.133 496.098,355.485 496.098,356.183 496.098,356.537 495.773,356.537 495.773,356.887 495.448,356.887    495.448,357.241 495.448,357.593 495.118,357.943 495.448,357.943 495.773,357.943 495.773,358.297 495.773,358.648    496.098,358.648 496.098,359.35 496.752,358.998 496.752,359.7 496.752,360.054 496.752,360.405 497.402,360.405 497.402,360.755    497.075,361.461 497.075,361.812 497.075,362.166 497.075,362.513 497.727,362.863 497.727,363.218 497.727,363.569    497.727,363.923 497.727,364.273 497.727,364.975 497.727,365.33 497.402,365.677 498.052,366.027 498.052,366.381    498.052,366.735 498.052,367.085 497.727,367.085 497.727,367.438 498.052,367.788 498.704,367.788 499.031,368.142    499.356,368.142 499.684,368.142 499.356,368.843 499.031,368.843 499.031,368.496 498.704,368.496 498.381,368.496    498.052,368.843 497.727,368.843 497.402,369.549 497.075,369.899 496.752,370.25 496.752,370.951 496.424,371.306    496.098,372.007 496.098,372.357 495.773,372.708 495.773,373.417 495.118,374.472 495.118,375.171 494.79,375.875    494.79,376.576 494.469,376.576 494.469,376.93 494.144,376.93 494.144,377.282 493.819,377.282 493.819,376.93 493.819,376.576    493.819,376.226 493.819,375.875 493.819,375.525 493.49,375.525 493.49,374.472 493.49,373.417 493.49,372.708 493.49,372.357    493.49,372.007 493.49,371.306 493.49,370.951 493.49,370.6 493.164,370.25 492.838,370.25 492.512,369.899 492.187,369.899    491.862,369.899 491.531,369.899 491.212,369.899 490.886,369.899 490.558,370.25 490.23,370.25 489.905,370.6 489.578,370.6    489.255,370.6 488.927,370.25 488.598,370.25 488.279,370.25 488.279,369.899 487.949,369.899 487.626,370.6 487.626,371.306    487.298,372.007 487.298,372.357 487.298,372.708 486.647,372.357 486.322,372.007 485.664,372.007 485.344,372.007    485.018,372.007 484.365,372.007 484.035,372.007 482.733,371.656 482.081,370.951 481.432,370.6 481.104,370.6 480.779,370.951    480.452,371.306 480.129,371.306 479.801,371.656 479.475,371.656 479.15,371.306 478.823,370.951 478.495,370.6 478.495,370.25    478.172,369.899 478.172,369.549 477.844,369.549 477.521,369.549 477.193,369.899 477.193,370.25 476.866,370.6 476.541,370.6    476.541,370.951 476.218,370.951 476.218,371.306 476.218,371.656 475.892,372.007 475.892,372.357 475.892,372.708    475.892,373.062 476.218,373.417 476.218,373.764 475.892,374.118 475.567,374.822 475.239,375.171 474.909,376.226    474.586,376.576 474.586,376.93 474.586,377.282 474.586,377.635 474.586,377.986 474.26,378.337 474.26,378.688 473.935,378.688    473.935,379.039 473.281,378.688 472.632,378.688 471.653,378.337 470.677,377.986 470.349,377.635 469.046,376.93    468.067,376.576 467.415,375.875 467.092,375.875 466.438,375.875 466.438,375.525 466.113,375.525 465.783,375.525    465.783,375.171 465.783,374.822 465.783,374.472 465.46,374.118 465.135,373.764 464.809,373.062 464.484,372.708    464.156,372.007 464.156,371.656 463.829,371.306 463.506,370.951 463.18,370.6 462.852,369.899 462.527,369.549 462.2,368.843    462.2,368.496 461.88,368.142 461.88,367.788 461.88,367.085 461.549,366.735 461.223,366.735 461.223,366.381 460.898,366.381    460.898,365.677 460.573,364.975 460.243,364.624 460.243,363.923 460.243,363.569 460.243,363.218 460.243,362.166    459.915,361.461 459.915,361.106 459.594,360.054 459.594,359.7 460.243,359.35 460.573,359.35 460.898,359.35 461.223,359.35    461.88,358.998 462.2,358.648 462.852,357.943 463.18,357.593 463.18,357.241 463.506,357.241 463.829,356.537 464.484,356.183    464.809,355.835 464.809,355.485 465.135,355.485 465.46,355.485 465.783,355.835 466.113,356.183 466.438,356.537    466.766,356.887 467.092,357.241 467.415,357.593 467.74,357.241 468.067,357.241 468.72,356.887 469.698,356.887    470.024,356.537 470.349,356.537 470.677,356.183 470.677,355.835 470.998,355.835 471.326,355.835 471.978,355.835    472.632,356.183 473.281,356.183 473.935,356.183 474.26,356.537 474.586,356.537 474.909,356.537 475.239,356.537    475.567,356.183 475.892,356.183 475.892,355.835 475.892,355.485 475.567,355.133 475.567,354.426 475.239,354.078    475.239,353.728 474.909,353.728 474.586,353.371 474.586,352.672 474.26,352.321 473.935,351.617 473.935,351.263    473.935,350.911 473.935,350.561 473.935,350.207 473.607,349.154 473.935,348.803 473.935,348.449 473.935,348.099    474.26,347.749 474.26,347.042 474.26,346.692 473.935,346.692 473.607,346.338 473.935,345.641 473.935,345.285 473.935,344.935    473.607,344.935 473.607,344.581 473.607,344.23 473.935,344.23 474.26,344.23 474.586,344.23 474.909,344.23 475.239,344.23    475.567,344.23 475.567,343.879 475.567,343.174 475.567,342.824 475.567,342.123 475.567,341.772 475.567,341.418    475.567,340.716 475.892,340.008 476.218,338.959 476.541,338.605 476.541,337.9 476.541,337.553 476.541,336.848    476.541,336.146 476.541,335.796 476.541,335.442 476.541,334.737 476.541,334.389 476.218,334.035 476.218,333.333    476.218,332.979 475.892,332.979 475.892,332.278 475.892,331.928 475.239,331.574 475.239,330.868 474.909,330.17    474.586,329.465 474.586,328.76 474.586,328.056 474.586,327.354 474.586,327.003 474.586,326.652 474.586,326.302    474.909,325.951 475.239,325.598 475.239,325.242 475.239,324.892 475.567,324.892 475.892,324.19 475.892,323.84 475.567,323.84    474.909,323.84 474.586,323.84 474.26,323.84 473.607,323.84 473.281,323.84 472.632,324.19 472.303,323.84 472.303,323.485    472.632,322.787 473.281,321.729 473.935,321.023 474.26,320.322 474.586,319.62 474.909,318.916 475.239,318.211   " id="upazila_111" area="upazlia" name="barkal" bengali="বরকল" parent="rangamati"></polygon><polygon points="473.932,379.039 473.932,378.688 474.26,378.688 474.26,378.337 474.589,377.986 474.589,377.635    474.589,377.285 474.589,376.93 474.589,376.576 474.909,376.226 475.236,375.171 475.564,374.822 475.892,374.118    476.218,373.764 476.218,373.417 475.892,373.062 475.892,372.711 475.892,372.357 475.892,372.007 476.218,371.656    476.218,371.306 476.218,370.954 476.541,370.954 476.541,370.6 476.866,370.6 477.196,370.25 477.196,369.899 477.521,369.549    477.844,369.549 478.172,369.549 478.172,369.899 478.495,370.25 478.495,370.6 478.823,370.954 479.15,371.306 479.475,371.656    479.801,371.656 480.126,371.306 480.452,371.306 480.781,370.954 481.104,370.6 481.429,370.6 482.086,370.954 482.733,371.656    484.035,372.007 484.365,372.007 485.018,372.007 485.344,372.007 485.664,372.007 486.322,372.007 486.647,372.357    487.298,372.711 487.298,372.357 487.298,372.007 487.621,371.306 487.621,370.6 487.952,369.899 488.279,369.899 488.279,370.25    488.598,370.25 488.927,370.25 489.255,370.6 489.578,370.6 489.905,370.6 490.23,370.25 490.558,370.25 490.886,369.899    491.212,369.899 491.532,369.899 491.859,369.899 492.184,369.899 492.515,369.899 492.841,370.25 493.164,370.25 493.49,370.6    493.49,370.954 493.49,371.306 493.49,372.007 493.49,372.357 493.49,372.711 493.49,373.417 493.49,374.469 493.49,375.521    493.819,375.521 493.819,375.875 493.819,376.226 493.819,376.576 493.819,376.93 493.819,377.285 494.144,377.285    494.144,376.93 494.469,376.93 494.469,376.576 494.79,376.576 494.79,375.875 495.118,375.171 495.118,374.469 495.773,373.417    495.773,372.711 496.098,372.357 496.098,372.007 496.424,371.306 496.747,370.954 496.747,370.25 497.075,369.899    497.402,369.549 497.727,368.843 498.052,368.843 498.381,368.496 498.707,368.496 499.031,368.496 499.031,368.843    499.356,368.843 499.356,369.195 500.012,370.25 500.658,370.954 500.985,372.007 501.313,373.062 501.967,374.118    501.967,374.822 502.29,375.875 502.945,376.576 503.595,377.635 503.595,378.688 503.595,379.39 503.921,379.743    504.573,380.798 504.573,381.5 504.899,382.906 504.899,383.962 505.224,384.667 505.224,385.366 505.224,385.72 505.224,386.424    505.55,387.126 505.55,387.828 505.881,388.528 505.881,389.238 505.881,390.292 505.881,390.995 505.881,391.345 505.224,392.05    504.573,392.4 503.921,392.4 503.27,392.75 502.945,393.106 502.29,393.456 501.641,394.161 500.985,394.161 500.658,394.508    500.335,394.861 499.681,394.861 499.031,395.564 498.707,395.915 498.707,396.269 498.707,396.619 498.707,397.325    498.381,398.376 498.381,398.728 498.381,399.433 498.052,400.134 497.727,400.839 497.075,400.839 496.747,401.19    496.098,401.541 495.448,401.541 494.79,401.541 493.819,401.19 493.49,401.19 493.164,401.19 492.841,401.541 492.184,401.895    491.532,402.245 490.886,402.245 490.23,402.596 489.905,402.95 489.255,402.95 487.621,403.655 487.621,402.245 487.298,401.895    487.298,401.19 487.298,400.839 487.621,400.134 487.621,399.787 487.298,399.433 487.298,398.728 487.298,398.026    486.972,397.672 486.647,397.325 486.322,396.975 485.99,396.975 485.664,396.619 485.018,396.619 484.693,396.619    484.035,396.619 483.715,396.619 482.409,396.269 482.409,395.915 482.086,395.564 481.76,395.21 481.76,394.861 481.429,394.861    481.429,394.508 481.104,393.807 480.781,393.456 480.781,393.106 480.452,393.106 480.126,392.4 479.801,392.05 479.475,391.699    479.475,391.345 479.475,390.995 479.15,390.292 479.15,389.938 479.15,389.588 478.823,389.238 478.823,388.886 478.823,388.528    478.823,387.828 478.495,387.481 478.172,387.126 477.844,386.424 477.521,386.07 477.196,385.366 476.866,385.019    476.866,384.667 476.218,384.316 476.218,383.962 475.892,383.261 475.564,382.906 475.236,382.556 475.236,381.852    474.909,381.15 474.909,380.445 474.589,380.097 474.589,379.743 474.26,379.39 473.932,379.39   " id="upazila_115" area="upazlia" name="juraichari" bengali="জুরাছড়ি" parent="rangamati"></polygon><polygon points="471.653,396.619 471.978,396.971 472.635,396.971 472.96,396.971 472.96,396.619 473.281,396.619    473.61,396.619 473.935,396.272 474.26,396.272 474.586,395.915 474.909,395.915 475.236,395.915 475.567,395.564    475.892,395.564 476.218,395.564 476.541,395.564 476.866,395.564 477.521,395.915 477.844,395.915 478.172,396.272    478.823,396.619 479.15,396.971 479.475,397.325 479.475,397.672 479.801,397.672 480.129,398.026 480.452,398.026    480.781,398.026 481.104,398.026 481.432,398.026 481.758,398.026 482.409,398.376 482.733,398.376 483.061,398.376    483.061,398.026 483.061,397.672 483.061,397.325 482.733,396.971 482.409,396.619 482.409,396.272 483.715,396.619    484.035,396.619 484.693,396.619 485.018,396.619 485.664,396.619 485.992,396.971 486.322,396.971 486.647,397.325    486.972,397.672 487.298,398.026 487.298,398.728 487.298,399.433 487.626,399.787 487.626,400.137 487.298,400.837    487.298,401.193 487.298,401.895 487.626,402.245 487.626,403.651 489.255,402.95 489.905,402.95 490.23,402.596 490.886,402.245    491.532,402.245 492.187,401.895 492.841,401.543 493.164,401.193 493.49,401.193 493.819,401.193 494.79,401.543    495.448,401.543 496.098,401.543 496.752,401.193 497.075,400.837 497.727,400.837 498.052,400.137 498.381,399.433    498.381,398.728 498.381,398.376 498.707,397.325 498.707,396.619 498.707,396.272 498.707,395.915 499.031,395.564    499.684,394.861 500.335,394.861 500.658,394.508 500.985,394.158 501.641,394.158 502.29,393.456 502.945,393.106    503.267,392.75 503.921,392.4 504.573,392.4 505.224,392.05 505.878,391.345 505.878,391.699 505.878,392.05 505.878,392.4    505.878,392.75 505.55,392.75 505.224,392.75 504.899,392.75 504.573,392.75 504.573,393.456 504.573,394.158 504.244,394.508    504.244,394.861 504.899,394.861 504.899,395.213 505.224,395.564 505.224,395.915 505.224,396.272 505.224,396.619    505.55,396.619 506.201,396.971 506.201,397.672 506.201,398.728 506.528,399.082 506.528,399.433 506.528,399.787    506.528,400.137 506.853,400.487 506.528,400.837 506.853,400.837 506.853,401.193 507.181,400.837 507.507,401.193    507.507,401.543 507.181,401.543 507.181,401.895 507.181,402.596 506.853,402.95 506.853,403.651 506.853,404.002    507.181,404.353 507.181,404.707 507.181,406.817 507.507,408.572 507.83,409.28 507.83,411.037 507.83,411.385 507.83,412.09    507.83,412.795 508.156,414.201 508.156,414.552 508.485,415.961 508.485,416.309 508.485,417.361 508.485,417.715    508.485,419.125 508.485,419.476 508.81,419.826 508.81,420.526 509.135,420.882 509.135,421.232 509.464,422.288    509.784,422.643 509.784,423.341 510.111,423.691 510.111,424.045 510.111,424.396 510.111,424.747 510.111,425.452    510.439,426.156 510.439,426.854 510.767,427.562 511.093,427.91 511.093,428.615 511.093,428.97 511.093,429.32 510.767,431.428    510.767,432.834 510.767,433.536 511.093,434.241 511.093,434.592 511.416,435.296 511.741,435.998 511.741,436.699    512.071,437.758 512.071,439.165 512.071,440.571 512.071,441.273 512.071,441.98 512.396,442.679 512.396,443.734    512.396,444.437 512.396,445.14 512.396,445.492 512.396,445.843 512.719,447.251 512.719,447.603 512.719,448.304    513.047,448.656 513.37,449.009 513.698,449.009 514.025,449.71 513.698,450.767 513.698,451.468 513.698,452.173    513.698,452.523 514.025,453.228 513.698,453.582 513.37,453.582 512.396,453.929 512.071,453.929 511.741,453.582    511.416,453.228 511.093,453.228 510.439,453.228 510.111,453.228 509.784,453.582 509.135,453.929 508.485,453.929    507.83,454.285 507.83,454.634 507.83,454.982 508.156,454.982 508.156,455.687 508.485,456.039 508.81,456.392 509.135,456.746    509.464,457.097 509.464,457.447 509.784,458.503 510.111,459.205 510.439,459.91 510.439,460.261 510.767,460.964    511.093,461.316 511.093,461.664 511.416,462.017 511.416,462.369 511.416,462.718 511.416,463.427 511.741,463.777    511.741,464.128 512.071,464.478 512.396,464.83 512.396,465.886 512.396,466.236 512.071,466.236 511.741,466.589    511.741,467.292 511.416,467.642 511.741,467.994 512.071,468.699 512.396,468.699 512.396,469.048 512.396,469.753    512.396,470.455 512.396,471.158 512.396,471.861 512.719,472.212 513.047,472.212 513.047,472.566 513.37,472.917    513.37,473.271 513.698,473.623 513.698,474.32 513.37,474.675 513.047,475.378 513.37,475.728 513.37,476.082 513.37,476.785    513.698,477.837 514.025,478.894 514.025,479.953 514.025,480.302 514.35,480.65 514.35,481.001 514.676,481.355 514.35,481.707    514.025,482.056 514.025,482.408 514.025,482.765 514.025,483.117 514.35,483.117 514.676,483.117 514.676,483.814    515.654,485.224 515.654,485.925 515.654,486.279 515.979,486.63 515.979,487.332 516.307,488.037 516.307,488.738    516.635,490.144 515.654,489.794 515.654,489.443 515.327,489.443 515.004,489.091 515.004,488.738 514.676,488.388    513.698,487.332 513.047,485.925 512.396,484.871 512.071,484.167 511.741,484.167 511.093,482.765 510.767,481.707    510.111,480.65 509.784,479.953 509.464,478.894 509.135,477.837 508.81,476.785 507.83,475.378 507.181,473.972 506.528,472.917    505.878,471.511 505.224,469.753 504.573,467.994 504.244,467.642 503.921,466.941 503.921,466.236 503.595,465.886    503.595,465.531 503.267,464.478 502.945,464.478 502.618,463.427 502.29,463.07 502.29,462.718 501.967,462.017 501.641,460.964    501.316,460.611 500.658,459.556 500.658,458.503 500.658,458.152 500.658,457.447 500.335,457.097 500.335,456.392    500.012,456.039 499.684,455.339 499.684,454.982 499.684,454.634 499.356,453.582 499.356,452.875 499.031,452.173    499.031,451.468 498.707,451.117 498.707,450.419 498.381,449.71 498.381,449.361 498.381,447.953 498.381,447.603    498.052,446.546 498.052,445.492 497.727,444.791 497.075,443.38 497.075,443.029 497.075,442.679 496.752,441.626    496.752,440.921 496.752,440.217 496.424,439.866 496.098,439.513 495.448,439.165 495.118,438.817 494.469,438.109    494.144,437.758 494.144,437.407 493.49,436.699 492.841,435.65 491.859,434.945 490.886,433.89 490.23,433.186 489.905,432.486    488.927,431.077 488.279,430.727 487.949,430.021 487.626,429.668 486.972,428.97 486.322,428.615 485.664,427.91    485.018,427.562 484.365,427.562 483.715,427.209 483.061,427.209 482.086,426.854 481.432,425.098 480.781,424.045    480.452,423.341 479.801,422.288 479.475,421.583 479.15,421.583 478.823,420.882 478.498,419.826 478.498,419.476    478.172,418.771 477.521,418.069 477.196,417.715 477.196,417.361 476.866,417.011 476.866,416.659 476.541,415.961    476.218,415.607 476.218,414.902 475.892,414.552 475.892,414.201 475.567,413.847 475.236,413.146 474.909,412.443    474.909,412.09 474.586,411.739 474.26,411.385 473.935,411.037 473.61,410.684 472.96,409.981 472.306,409.28 471.978,408.572    471.326,407.874 470.675,407.517 470.675,407.166 470.349,406.817 470.675,405.76 470.675,405.058 470.998,404.353    471.326,404.002 471.653,403.301 472.306,402.95 472.635,402.596 472.635,402.245 472.96,401.895 472.96,401.543 473.281,401.193    473.281,400.837 473.281,400.487 472.96,400.487 472.635,400.137 472.306,400.137 471.978,399.787 471.653,399.787    471.326,399.787 471.326,399.433 470.998,399.082 470.998,398.728 471.326,398.376 471.326,398.026 471.326,397.672    471.653,396.971   " id="upazila_113" area="upazlia" name="belaichari" bengali="বিলাইছড়ি" parent="rangamati"></polygon><polygon points="453.401,407.874 454.052,407.166 454.38,407.166 454.38,406.817 454.703,406.817 454.703,406.467    454.38,406.113 454.052,405.409 453.726,405.058 453.726,404.353 453.401,404.002 453.726,403.655 453.726,403.301    454.052,402.95 454.38,402.95 454.703,402.95 455.031,402.95 455.355,402.596 455.683,402.596 456.011,402.596 456.657,402.596    457.64,402.95 458.289,403.655 458.615,404.002 459.915,404.353 460.243,404.353 460.573,404.002 460.898,403.655    461.223,403.301 461.877,402.95 462.2,402.95 462.852,403.301 463.177,403.655 463.506,404.002 463.177,404.353 463.177,405.409    463.177,405.76 463.177,406.113 463.177,406.467 463.506,406.467 463.832,406.817 464.156,407.166 464.809,407.166    465.135,407.517 465.783,407.517 466.11,407.517 466.438,407.517 466.438,407.166 466.766,407.166 466.766,406.817    467.092,406.817 467.415,406.467 467.415,406.113 467.415,405.76 467.74,405.76 468.395,405.409 468.72,405.409 469.046,405.409    469.369,405.76 469.698,405.76 469.698,406.113 470.349,406.817 470.675,407.166 470.675,407.517 471.326,407.874    471.978,408.575 472.303,409.277 472.96,409.981 473.61,410.684 473.932,411.034 474.26,411.388 474.589,411.739 474.909,412.09    474.909,412.443 475.236,413.146 475.564,413.847 475.892,414.197 475.892,414.552 476.218,414.902 476.218,415.607    476.541,415.958 476.866,416.659 476.866,417.011 477.196,417.361 477.196,417.719 477.521,418.069 478.172,418.771    478.495,419.476 478.495,419.826 478.823,420.879 479.15,421.583 479.478,421.583 479.801,422.285 480.452,423.341    480.781,424.042 481.429,425.098 482.086,426.858 481.76,426.858 481.104,426.504 480.452,426.504 479.478,426.156    478.823,425.806 477.844,425.806 476.866,425.452 475.892,425.098 474.589,424.747 472.96,424.396 471.978,424.396    471.653,424.396 470.675,424.396 470.027,424.396 469.698,424.396 468.72,424.747 468.395,424.747 467.74,424.747    466.766,425.098 466.11,425.452 464.809,426.156 464.156,426.156 463.506,426.156 462.527,426.156 461.877,426.504    461.549,426.504 460.573,426.504 460.243,426.504 458.944,426.156 458.944,425.452 458.944,425.098 459.269,424.396    459.269,423.691 459.269,422.993 457.966,422.643 457.64,422.643 456.984,422.993 456.332,422.993 455.683,422.993    455.031,422.993 454.38,423.341 454.38,422.993 454.052,422.993 453.726,422.993 453.077,422.993 453.077,422.643    452.746,422.643 453.077,422.285 453.077,421.935 453.401,421.935 453.726,421.935 453.726,421.583 453.726,421.232    453.726,420.526 453.726,420.177 453.401,420.177 453.077,420.177 452.423,420.526 452.097,420.526 451.772,420.177    451.447,420.177 451.117,419.826 450.789,419.476 450.789,418.771 450.469,418.42 450.143,418.069 449.818,417.719    449.49,417.719 449.49,417.361 449.16,417.011 449.16,416.659 448.84,416.659 448.84,416.309 448.84,415.958 449.16,415.958    449.49,415.607 449.818,415.257 450.469,414.902 450.789,414.552 451.117,414.197 451.117,413.847 450.789,413.493    450.789,413.146 451.117,412.798 451.447,412.798 451.772,412.798 452.097,412.798 452.423,412.443 452.423,412.09    453.077,412.09 453.401,411.739 453.726,411.739 453.726,411.388 454.052,411.388 454.052,410.684 454.052,410.329    453.726,410.329 454.052,409.981 454.052,409.631 453.726,409.277 453.401,408.926 453.077,408.926 453.077,408.575    453.077,408.222   " id="upazila_118" area="upazlia" name="rajasthali" bengali="রাজস্থলী" parent="rangamati"></polygon><polygon points="445.906,389.942 446.229,389.588 446.557,389.234 446.885,388.884 447.211,388.884    447.211,388.532 447.531,388.532 447.858,388.532 448.186,387.828 448.837,387.828 449.163,387.481 449.49,387.126    449.818,386.774 450.143,386.774 450.469,386.774 450.469,387.126 450.789,387.481 450.789,388.182 451.117,389.234    451.447,389.942 451.772,390.644 452.097,392.05 452.097,392.4 452.097,392.75 452.097,393.106 452.423,393.456 452.423,393.807    452.751,394.508 453.074,394.861 453.398,395.213 453.726,395.564 453.726,396.272 454.052,396.619 454.052,396.971    454.38,397.325 454.703,397.672 455.031,398.026 455.358,398.376 455.683,398.376 456.009,398.376 456.332,398.376    456.657,398.376 457.312,398.728 457.64,398.728 457.966,398.728 458.289,398.728 458.615,398.376 458.944,398.026    458.944,397.672 459.266,397.672 459.266,397.325 459.266,396.971 459.594,396.619 459.594,396.272 459.594,395.915    459.92,395.915 460.243,395.915 460.573,395.564 460.898,395.915 461.223,395.564 461.549,395.564 461.877,395.564 462.2,395.915    462.852,396.272 463.177,396.619 463.506,396.619 464.156,396.971 464.484,396.619 464.484,396.272 464.484,395.915    464.484,395.564 464.484,395.213 464.484,394.508 464.809,394.158 464.809,393.807 465.135,393.807 465.46,393.456    465.786,393.106 466.113,393.106 466.113,392.75 466.438,392.75 466.763,392.4 467.092,392.4 467.415,392.4 467.74,392.4    468.067,392.4 468.392,392.05 468.72,391.699 469.046,391.342 469.369,391.342 469.698,391.699 470.024,392.4 470.024,392.75    470.024,393.106 470.349,393.456 470.349,394.158 470.677,394.861 470.998,395.213 471.326,395.564 471.326,396.272    471.656,396.619 471.656,396.971 471.326,397.672 471.326,398.026 471.326,398.376 470.998,398.728 470.998,399.082    471.326,399.433 471.326,399.787 471.656,399.787 471.978,399.787 472.303,400.137 472.632,400.137 472.96,400.487    473.283,400.487 473.283,400.839 473.283,401.193 472.96,401.543 472.96,401.895 472.632,402.245 472.632,402.596 472.303,402.95    471.656,403.301 471.326,404.002 470.998,404.353 470.677,405.058 470.677,405.76 470.349,406.817 469.698,406.117    469.698,405.76 469.369,405.76 469.046,405.409 468.72,405.409 468.392,405.409 467.74,405.76 467.415,405.76 467.415,406.117    467.415,406.467 467.092,406.817 466.763,406.817 466.763,407.166 466.438,407.166 466.438,407.517 466.113,407.517    465.786,407.517 465.135,407.517 464.809,407.166 464.156,407.166 463.829,406.817 463.506,406.467 463.177,406.467    463.177,406.117 463.177,405.76 463.177,405.409 463.177,404.353 463.506,404.002 463.177,403.655 462.852,403.301 462.2,402.95    461.877,402.95 461.223,403.301 460.898,403.655 460.573,404.002 460.243,404.353 459.92,404.353 458.615,404.002    458.289,403.655 457.64,402.95 456.657,402.596 456.009,402.596 455.683,402.596 455.358,402.596 455.031,402.95 454.703,402.95    454.38,402.95 454.052,402.95 453.726,403.301 453.726,403.655 453.398,404.002 453.726,404.353 453.726,405.058 454.052,405.409    454.38,406.117 454.703,406.467 454.703,406.817 454.38,406.817 454.38,407.166 454.052,407.166 453.398,407.874 453.398,407.517    453.074,407.166 453.074,406.817 453.074,406.467 453.074,406.117 453.074,405.76 453.074,405.409 452.751,405.058    452.751,404.707 452.751,404.353 452.423,404.002 452.423,403.655 452.097,403.655 451.772,403.301 451.772,402.95    451.772,402.596 451.447,402.245 451.447,401.895 451.447,401.543 451.447,401.193 451.772,400.839 451.772,400.487    451.447,400.137 451.447,399.787 451.447,399.433 451.117,399.082 451.117,398.728 450.789,398.728 450.469,398.376    450.143,398.376 450.143,398.026 449.818,397.325 449.818,396.971 449.49,396.971 449.49,396.619 449.818,396.619    450.143,396.272 449.818,395.915 449.818,395.564 449.818,395.213 449.818,394.861 449.49,394.861 449.163,394.861    448.837,394.861 448.837,394.508 449.163,394.158 449.163,393.807 449.49,393.807 449.49,393.106 449.163,392.4 448.837,392.05    448.511,391.699 448.186,391.342 447.858,390.995 447.531,390.995 447.211,390.995 446.885,390.644 446.557,390.644    446.557,390.292 446.229,389.942 446.229,390.292 445.906,390.292   " id="upazila_114" area="upazlia" name="kaptai" bengali="কাপ্তাই" parent="rangamati"></polygon><polygon points="435.474,369.899 436.123,370.6 436.123,370.954 436.123,371.656 436.778,371.656 437.103,372.007    437.431,372.007 438.406,372.357 438.732,372.711 439.385,373.062 439.714,373.417 440.037,373.764 440.689,374.118    441.345,374.472 441.663,374.822 442.318,374.822 442.646,375.521 442.971,375.521 443.297,375.875 443.62,376.226    443.948,376.93 444.6,377.635 445.251,377.986 445.906,378.688 446.554,379.39 447.858,380.798 448.511,381.15 448.84,382.202    449.16,383.261 449.49,383.612 449.49,384.316 450.143,385.366 450.143,386.074 450.469,386.774 450.143,386.774 449.818,386.774    449.49,387.126 449.16,387.481 448.84,387.828 448.186,387.828 447.858,388.532 447.531,388.532 447.211,388.532 447.211,388.886    446.883,388.886 446.554,389.238 446.229,389.588 445.906,389.942 445.906,389.588 446.229,389.238 446.229,388.886    446.554,388.532 446.554,388.182 446.554,387.828 446.554,387.481 446.229,387.481 445.906,387.481 445.577,387.828    445.251,387.481 445.251,387.126 444.926,386.774 444.6,387.126 444.278,387.126 443.948,387.126 443.62,387.481 443.297,387.481    442.971,387.126 442.646,387.481 442.318,387.828 441.991,387.828 441.663,387.481 441.345,387.126 441.345,386.774    441.663,386.424 441.345,386.074 440.364,386.424 440.037,387.126 440.037,387.828 439.714,387.828 439.057,387.828    438.732,387.828 438.406,388.182 438.085,388.182 437.757,388.532 437.757,388.886 437.431,389.588 437.431,389.942    437.103,390.292 437.103,390.644 436.778,390.644 436.778,390.995 436.778,391.345 437.103,391.699 437.431,392.047    437.757,392.4 437.757,392.75 438.085,393.106 438.085,393.456 438.085,393.807 438.085,394.161 437.757,394.861 437.757,395.213    437.757,395.915 438.732,396.619 438.732,396.971 438.732,397.675 439.057,398.376 439.057,399.433 438.732,399.787    438.406,400.134 438.406,400.491 438.406,401.19 438.732,401.543 438.406,401.543 438.085,401.543 438.406,402.245    438.406,402.596 437.757,402.95 437.431,402.95 437.103,402.95 436.451,403.301 436.123,403.655 435.797,404.002 435.797,404.353    435.152,405.058 434.823,405.058 434.494,405.058 434.171,404.707 433.845,404.707 433.192,404.707 432.864,405.058    432.54,405.058 432.217,404.707 431.891,404.707 431.891,404.353 432.217,404.002 432.217,403.655 432.217,403.301    432.217,402.95 432.54,402.95 432.54,402.596 432.864,402.245 432.54,401.895 432.54,401.543 432.217,401.19 432.217,400.491    432.217,400.134 432.217,399.787 432.217,399.082 431.891,398.376 431.891,397.675 431.891,396.619 431.563,395.564    430.908,394.861 430.908,394.508 430.908,394.161 430.908,393.807 431.238,393.807 430.908,393.456 430.588,392.75    430.26,392.047 430.588,391.699 430.26,391.345 429.931,391.345 429.609,390.292 429.282,389.942 429.282,389.588    428.957,389.238 428.631,388.886 428.631,388.532 428.957,388.532 428.957,388.182 428.631,387.481 428.302,387.126    427.977,386.774 427.977,386.424 428.302,386.424 428.302,386.074 427.977,385.72 427.652,385.366 427.977,385.019    427.977,384.667 427.977,384.316 427.977,383.962 427.977,383.612 427.652,382.556 427.652,382.202 427.977,381.852    427.977,381.5 428.302,381.15 428.631,380.445 428.302,380.097 427.977,379.39 427.652,379.39 426.997,379.039 426.348,378.688    426.348,378.337 426.677,378.337 426.677,377.986 426.348,377.635 426.677,377.282 426.677,376.576 426.677,375.875    426.997,375.521 427.323,375.521 427.977,375.171 428.631,375.171 428.957,375.171 429.282,375.171 429.931,374.822    430.26,374.822 430.588,374.822 430.588,373.764 430.588,373.417 430.588,372.711 430.588,372.007 430.908,371.306    431.238,371.306 431.563,371.306 432.54,371.306 433.192,371.306 433.52,371.306 433.845,370.954 434.494,370.6 434.823,370.6    " id="upazila_112" area="upazlia" name="kawkhali" bengali="কাউখালী" parent="rangamati"></polygon><polygon points="457.312,355.485 457.966,356.537 458.289,356.887 458.289,357.241 458.289,357.593    458.615,357.943 458.944,358.294 459.594,359.7 459.594,360.054 459.915,361.106 459.915,361.461 460.243,362.166    460.243,363.215 460.243,363.569 460.243,363.923 460.243,364.624 460.573,364.975 460.898,365.677 460.898,366.381    461.223,366.381 461.223,366.735 461.549,366.735 461.88,367.085 461.88,367.788 461.88,368.142 462.2,368.496 462.2,368.843    462.527,369.545 462.852,369.899 463.18,370.6 463.506,370.951 463.829,371.306 464.156,371.66 464.156,372.007 464.484,372.708    464.809,373.062 465.135,373.764 465.46,374.118 465.783,374.469 465.783,374.822 465.783,375.171 465.783,375.525    466.11,375.525 466.441,375.525 466.441,375.875 467.092,375.875 467.415,375.875 468.067,376.576 469.046,376.933    470.349,377.632 470.675,377.986 471.653,378.337 472.635,378.688 473.281,378.688 473.935,379.039 473.935,379.39 474.26,379.39    474.586,379.743 474.586,380.097 474.909,380.445 474.909,381.15 475.236,381.854 475.236,382.552 475.567,382.906    475.892,383.261 476.218,383.962 476.218,384.313 476.866,384.667 476.866,385.019 477.196,385.366 477.521,386.07    477.844,386.424 478.172,387.126 478.498,387.481 478.823,387.828 478.823,388.532 478.823,388.884 478.823,389.234    479.15,389.588 479.15,389.942 479.15,390.292 479.475,390.998 479.475,391.345 479.475,391.699 479.801,392.047 480.129,392.4    480.452,393.106 480.781,393.106 480.781,393.456 481.104,393.807 481.432,394.508 481.432,394.861 481.758,394.861    481.758,395.213 482.086,395.564 482.409,395.915 482.409,396.272 482.409,396.619 482.733,396.971 483.061,397.321    483.061,397.675 483.061,398.026 483.061,398.376 482.733,398.376 482.409,398.376 481.758,398.026 481.432,398.026    481.104,398.026 480.781,398.026 480.452,398.026 480.129,398.026 479.801,397.675 479.475,397.675 479.475,397.321    479.15,396.971 478.823,396.619 478.172,396.272 477.844,395.915 477.521,395.915 476.866,395.564 476.541,395.564    476.218,395.564 475.892,395.564 475.567,395.564 475.236,395.915 474.909,395.915 474.586,395.915 474.26,396.272    473.935,396.272 473.61,396.619 473.281,396.619 472.96,396.619 472.96,396.971 472.635,396.971 471.978,396.971 471.653,396.619    471.326,396.272 471.326,395.564 470.998,395.213 470.675,394.861 470.349,394.158 470.349,393.456 470.024,393.106    470.024,392.75 470.024,392.4 469.698,391.699 469.369,391.345 469.046,391.345 468.72,391.699 468.392,392.047 468.067,392.4    467.743,392.4 467.415,392.4 467.092,392.4 466.766,392.4 466.441,392.75 466.11,392.75 466.11,393.106 465.783,393.106    465.46,393.456 465.135,393.807 464.809,393.807 464.809,394.158 464.484,394.508 464.484,395.213 464.484,395.564    464.484,395.915 464.484,396.272 464.484,396.619 464.156,396.971 463.506,396.619 463.18,396.619 462.852,396.272 462.2,395.915    461.88,395.564 461.549,395.564 461.223,395.564 460.898,395.915 460.573,395.564 460.243,395.915 459.915,395.915    459.594,395.915 459.594,396.272 459.594,396.619 459.269,396.971 459.269,397.321 459.269,397.675 458.944,397.675    458.944,398.026 458.615,398.376 458.289,398.728 457.966,398.728 457.64,398.728 457.312,398.728 456.657,398.376    456.332,398.376 456.011,398.376 455.683,398.376 455.355,398.376 455.031,398.026 454.703,397.675 454.38,397.321    454.052,396.971 454.052,396.619 453.726,396.272 453.726,395.564 453.401,395.213 453.074,394.861 452.751,394.508    452.423,393.807 452.423,393.456 452.097,393.106 452.097,392.75 452.097,392.4 452.097,392.047 451.772,390.644 451.447,389.942    451.117,389.234 450.789,388.182 450.789,387.481 450.466,387.126 450.466,386.774 450.143,386.07 450.143,385.366    449.49,384.313 449.49,383.612 449.16,383.261 448.84,382.202 448.514,381.15 447.858,380.798 446.557,379.39 445.904,378.688    445.254,377.986 444.597,377.632 443.948,376.933 443.623,376.226 443.297,375.875 442.971,375.525 442.646,375.525    442.318,374.822 441.663,374.822 441.343,374.469 440.692,374.118 440.034,373.764 439.711,373.417 439.385,373.062    438.732,372.708 438.406,372.357 437.431,372.007 437.103,372.007 436.778,371.66 436.123,371.66 436.451,371.306    437.103,371.306 437.76,370.951 438.085,370.951 438.732,370.951 439.385,370.951 440.364,370.951 440.692,370.951    441.017,370.951 441.343,370.951 442.318,370.6 442.646,370.6 442.971,370.6 443.297,370.253 443.623,370.253 443.948,370.253    443.948,369.899 444.278,369.545 444.597,369.195 444.926,368.843 445.254,368.496 445.577,368.496 445.577,368.142    445.904,368.142 446.229,367.438 446.557,367.085 446.885,367.085 446.885,366.735 447.211,366.381 447.531,366.381    447.858,366.027 448.186,366.027 448.514,366.027 448.84,365.677 449.16,365.677 449.49,365.677 450.143,364.975 450.466,364.975    450.789,364.273 450.789,363.923 450.789,363.569 450.789,363.215 451.117,362.863 451.117,362.513 451.447,362.166    451.772,361.812 452.097,361.812 452.423,361.461 452.423,361.106 452.751,361.106 453.074,360.755 453.074,360.405    453.074,360.054 453.401,359.7 453.401,359.35 453.401,358.998 453.401,358.648 453.726,358.648 453.726,358.294 454.38,357.943    454.703,357.593 455.031,357.593 455.355,357.241 455.683,357.241 456.011,356.887 456.332,356.887 456.657,356.887    456.657,356.537   " id="upazila_119" area="upazlia" name="sadar" bengali="রাঙ্গামাটি-সদর" parent="rangamati"></polygon><polygon points="432.54,348.099 434.171,348.099 435.149,347.749 435.8,347.749 436.123,347.397 436.778,347.397    437.103,347.397 437.431,347.397 437.757,347.749 438.085,348.099 438.406,348.099 438.732,347.749 439.06,347.749    439.385,347.749 439.711,347.749 440.364,347.749 441.017,347.749 441.663,347.397 441.991,347.042 441.991,346.692    442.318,346.692 442.646,345.987 442.971,345.641 443.297,345.285 443.297,344.935 443.62,344.581 443.62,344.23 443.62,343.526    443.948,342.824 444.278,342.123 444.278,341.772 444.597,341.418 445.254,341.066 445.577,340.716 445.904,340.362    446.557,340.011 447.211,340.011 447.858,339.309 448.186,339.309 448.84,338.959 449.16,338.605 449.818,337.9 450.466,337.198    450.789,338.254 450.789,338.959 450.789,339.309 451.117,340.362 451.117,341.066 451.447,343.526 451.447,343.879    451.772,344.581 451.772,344.935 452.094,344.935 452.426,345.987 452.751,346.692 452.751,347.397 453.074,347.749    453.401,348.449 454.052,349.154 454.38,349.856 454.703,350.561 454.703,350.911 455.031,351.617 455.358,352.321    456.011,353.019 456.332,353.371 456.332,354.078 456.657,354.429 456.987,354.78 456.987,355.13 457.312,355.485    456.657,356.537 456.657,356.887 456.332,356.887 456.011,356.887 455.683,357.241 455.358,357.241 455.031,357.589    454.703,357.589 454.38,357.946 453.726,358.297 453.726,358.648 453.401,358.648 453.401,358.998 453.401,359.35 453.401,359.7    453.074,360.051 453.074,360.405 453.074,360.755 452.751,361.109 452.426,361.109 452.426,361.461 452.094,361.812    451.772,361.812 451.447,362.166 451.117,362.513 451.117,362.863 450.789,363.218 450.789,363.569 450.789,363.923    450.789,364.273 450.466,364.975 450.143,364.975 449.49,365.677 449.16,365.677 448.84,365.677 448.511,366.031 448.186,366.031    447.858,366.031 447.531,366.381 447.211,366.381 446.885,366.731 446.885,367.085 446.557,367.085 446.229,367.438    445.904,368.142 445.577,368.142 445.577,368.496 445.254,368.496 444.926,368.843 444.597,369.195 444.278,369.549    443.948,369.899 443.948,370.25 443.62,370.25 443.297,370.25 442.971,370.6 442.646,370.6 442.318,370.6 441.343,370.954    441.017,370.954 440.692,370.954 440.364,370.954 439.385,370.954 438.732,370.954 438.085,370.954 437.757,370.954    437.103,371.306 436.451,371.306 436.123,371.656 436.123,370.954 436.123,370.6 435.474,369.899 435.149,368.843    435.474,368.843 435.474,368.496 435.8,368.142 436.123,368.142 436.123,367.788 436.123,367.085 435.8,366.381 435.474,366.031    435.149,365.33 434.823,364.624 434.494,363.569 434.171,363.218 433.845,362.513 433.195,361.461 432.864,360.755    432.864,360.051 432.864,359.35 432.864,358.297 432.864,357.589 433.195,357.241 433.195,356.537 433.52,354.78 433.845,353.724    433.845,352.668 433.845,351.967 433.52,350.911 433.195,350.207 432.864,349.502   " id="upazila_117" area="upazlia" name="naniarchar" bengali="নানিয়ারচর" parent="rangamati"></polygon></svg>