<svg enable-background="new -106.403 -201.859 629.266 880.536" height="880.536px" id="district_41" viewBox="-106.403 -201.859 629.266 880.536" width="629.266px" x="0px" xml:space="preserve" xmlns="http://www.w3.org/2000/svg" y="0px"><polygon points="157.78,94.595 158.104,94.242 158.433,93.892 159.082,93.892 159.407,94.242 160.062,93.892    160.386,92.837 160.711,93.189 161.037,93.538 161.365,93.892 162.016,93.892 162.343,93.892 162.343,94.242 162.993,94.242    163.645,94.242 163.645,93.538 163.32,93.189 162.666,93.538 162.666,93.189 162.993,92.837 162.993,92.485 162.343,92.837    162.016,92.135 162.016,91.432 161.69,90.728 162.016,90.375 162.343,90.728 162.993,90.728 163.32,90.375 163.32,90.025    163.645,89.321 164.295,90.025 163.97,88.969 164.295,88.969 164.625,88.969 164.948,88.969 165.276,89.321 165.601,88.969    165.601,88.616 165.601,87.563 165.276,87.563 164.948,87.915 164.625,88.265 163.97,88.265 163.645,88.265 163.645,87.915    163.97,87.563 163.645,87.563 163.32,87.563 162.993,87.21 162.666,87.563 162.343,87.563 162.343,86.859 163.32,86.508    163.97,86.156 164.295,86.508 164.948,86.156 164.948,86.508 165.276,86.508 166.252,86.156 166.906,85.804 166.579,85.102    166.252,84.75 166.252,84.398 165.601,84.048 164.948,84.048 164.625,82.641 164.295,81.938 164.295,79.829 164.295,79.125    163.97,78.42 164.295,78.42 164.625,77.716 164.625,77.368 164.948,77.014 165.276,76.662 165.929,76.313 166.579,75.607    167.231,75.257 167.556,74.905 167.556,74.553 168.208,74.203 168.533,74.203 168.862,73.85 168.862,73.499 168.862,73.148    168.862,72.446 169.188,71.741 169.838,71.389 170.49,71.389 171.141,71.389 171.792,71.389 173.098,71.389 173.751,71.039    174.727,70.686 175.38,70.334 175.38,69.982 176.031,69.631 177.334,69.279 177.009,69.631 177.334,69.982 177.66,70.686    178.314,71.389 178.966,72.093 179.289,72.794 179.289,73.499 179.289,73.85 179.289,74.203 179.289,74.553 178.638,74.905    178.638,75.607 178.638,76.313 178.966,77.014 179.289,77.014 180.268,77.014 181.248,77.014 182.222,77.014 183.529,77.014    183.853,77.368 184.179,77.716 184.179,78.07 183.853,78.773 183.529,79.475 183.529,80.18 183.853,80.882 184.179,81.586    184.504,82.291 184.504,82.641 184.179,83.343 184.179,83.695 184.504,84.048 184.504,84.398 184.831,84.75 185.156,85.452    185.482,85.452 185.482,86.156 185.482,86.508 185.482,87.21 185.81,87.563 185.81,87.915 185.482,88.616 185.482,88.969    185.81,89.321 186.135,89.671 186.135,90.025 186.135,91.432 186.46,92.485 186.46,92.837 186.46,93.189 186.46,93.538    185.81,93.892 185.482,94.242 185.156,94.595 184.831,94.595 184.179,94.595 184.179,94.946 183.853,95.649 183.853,96.353    183.853,97.057 183.529,97.406 183.529,97.759 183.529,98.462 184.179,98.814 184.504,99.518 185.156,100.22 185.482,100.923    185.81,100.923 186.135,100.923 186.46,100.923 186.785,101.275 186.46,101.979 186.46,102.33 186.46,102.682 186.785,103.384    186.785,105.142 185.156,105.846 184.831,106.199 184.504,106.901 184.179,106.901 183.529,107.252 182.875,107.605    182.222,107.955 181.572,108.308 181.248,108.658 180.593,109.362 180.268,109.714 179.943,109.714 179.943,109.362    179.943,108.658 179.943,108.308 179.943,107.955 180.268,107.252 179.943,106.548 179.616,105.846 179.289,105.846    178.638,104.791 178.314,104.791 177.009,104.791 176.685,105.142 176.357,105.142 176.031,105.493 175.705,105.846    175.38,105.493 175.053,105.846 175.053,106.199 175.053,106.548 174.403,106.548 174.076,106.548 173.424,106.199    173.098,105.846 172.446,105.846 172.122,106.199 171.792,105.846 171.469,105.846 171.141,105.846 170.49,106.199    170.163,106.199 169.838,106.199 169.513,106.199 168.862,106.548 168.533,106.901 168.208,106.901 167.883,106.901    167.231,106.199 166.906,106.199 166.579,105.846 166.579,105.493 166.906,104.791 167.231,104.44 166.906,104.087    166.579,103.737 166.252,104.087 165.601,104.087 165.276,104.087 164.948,104.087 164.625,103.737 164.295,103.384    163.645,103.384 163.645,103.034 163.645,102.33 163.645,101.625 163.97,100.923 163.97,100.573 163.645,100.573 163.32,100.923    162.993,100.573 162.993,100.22 162.993,99.518 162.666,99.166 162.016,99.166 161.69,99.166 160.711,98.814 160.386,98.462    160.062,98.462 159.734,98.462 159.407,98.814 158.757,99.166 158.433,98.814 158.104,98.462 158.104,97.759 157.78,97.406    157.78,96.706 157.78,96.002 158.104,95.649 158.104,94.946 158.104,94.595   " id="upazila_229" area="upazlia" name="madhupur" bengali="মধুপুর" parent="tangail"></polygon><polygon points="163.97,78.42 164.297,79.125 164.297,79.826 164.297,81.938 164.625,82.64 164.95,84.045    165.599,84.045 166.252,84.398 166.252,84.75 166.58,85.101 166.905,85.804 166.252,86.156 165.276,86.507 164.95,86.507    164.95,86.156 164.297,86.507 163.97,86.156 163.319,86.507 162.343,86.859 162.343,87.561 162.666,87.561 162.994,87.21    163.319,87.561 163.647,87.561 163.97,87.561 163.647,87.914 163.647,88.265 163.97,88.265 164.625,88.265 164.95,87.914    165.276,87.561 165.599,87.561 165.599,88.616 165.599,88.968 165.276,89.318 164.95,88.968 164.625,88.968 164.297,88.968    163.97,88.968 164.297,90.025 163.647,89.318 163.319,90.025 163.319,90.373 162.994,90.726 162.343,90.726 162.016,90.373    161.69,90.726 162.016,91.43 162.016,92.135 162.343,92.835 162.994,92.485 162.994,92.835 162.666,93.188 162.666,93.538    163.319,93.188 163.647,93.538 163.647,94.24 162.994,94.24 162.343,94.24 162.343,93.892 162.016,93.892 161.365,93.892    161.037,93.538 160.712,93.188 160.386,92.835 160.062,93.892 159.407,94.24 159.083,93.892 158.432,93.892 158.104,94.24    157.78,94.595 157.126,94.24 157.454,93.538 157.78,93.188 157.78,92.835 157.126,92.835 156.475,92.485 156.15,92.835    155.499,92.835 155.174,92.485 155.174,92.135 154.844,91.43 154.521,91.078 154.193,90.373 153.87,90.025 153.539,89.318    153.217,88.968 152.89,88.265 152.89,87.561 152.89,86.507 152.89,85.804 152.24,85.451 152.24,85.101 151.588,84.75    151.588,84.398 151.26,83.694 150.936,82.993 150.608,82.64 150.281,82.288 149.631,82.288 149.306,81.583 149.306,81.232    148.978,80.882 148.978,79.826 148.978,79.475 148.653,78.42 148.653,77.365 148.978,77.014 149.631,76.311 149.956,76.311    150.281,76.311 150.608,76.662 150.936,77.014 151.588,77.365 151.911,77.365 151.911,77.014 151.911,76.662 151.911,76.311    152.24,76.311 152.564,77.014 152.89,77.365 153.217,77.014 153.217,76.662 153.539,75.959 154.193,75.959 154.521,75.959    154.844,75.607 155.174,75.257 154.844,74.903 154.521,74.553 154.521,74.203 154.844,74.203 155.499,74.553 156.15,74.203    156.475,74.203 156.803,74.553 157.126,74.903 157.454,75.257 157.454,75.959 157.78,76.311 158.432,76.311 159.083,76.311    159.734,76.311 159.734,76.662 159.734,77.014 160.062,77.716 160.062,78.07 160.386,78.771 160.712,79.125 161.365,79.475    162.016,79.475 162.666,79.125 162.994,79.125 163.647,78.771   " id="upazila_480" area="upazlia" name="dhanbari" bengali="ধনবাড়ী" parent="tangail"></polygon><polygon points="139.527,101.275 139.527,100.923 139.527,100.22 139.201,99.87 139.527,99.518 139.852,99.87    140.18,99.87 140.505,99.87 140.505,99.518 140.83,99.164 141.482,99.164 141.809,98.814 141.482,98.462 141.156,98.462    141.156,98.112 141.156,97.759 142.134,97.057 142.785,97.057 142.785,96.703 142.459,96.353 141.809,96.353 141.809,96.002    142.134,96.002 142.459,96.002 142.785,96.002 142.785,95.296 143.113,95.296 143.438,94.946 143.438,94.595 143.764,93.892    144.089,93.892 144.414,94.242 144.741,94.595 145.068,94.242 144.741,94.242 144.414,93.538 144.089,93.189 143.764,92.485    144.089,92.485 144.414,92.135 144.414,91.782 144.089,91.43 144.089,91.078 144.089,90.728 145.068,90.728 146.371,90.728    147.022,90.728 147.349,90.025 147.349,89.671 147.022,89.321 147.022,88.616 147.349,87.915 148,86.859 148.653,86.156    148.979,86.156 149.304,86.156 149.631,86.508 150.282,86.508 150.607,86.508 151.261,86.156 151.586,85.452 151.586,84.75    152.24,85.101 152.24,85.452 152.889,85.804 152.889,86.508 152.889,87.561 152.889,88.265 153.215,88.969 153.54,89.321    153.868,90.025 154.193,90.375 154.519,91.078 154.846,91.43 155.171,92.135 155.171,92.485 155.497,92.835 156.15,92.835    156.475,92.485 157.128,92.835 157.779,92.835 157.779,93.189 157.453,93.538 157.128,94.242 158.105,94.595 158.105,94.946    158.105,95.649 157.779,96.002 157.779,96.703 157.779,97.406 158.105,97.759 158.105,98.462 158.432,98.814 158.757,99.164    159.408,98.814 159.734,98.462 160.061,98.462 160.386,98.462 160.712,98.814 161.691,99.164 162.016,99.164 162.666,99.164    162.994,99.518 162.994,100.22 162.994,100.572 163.32,100.923 163.645,100.572 163.97,100.572 163.97,100.923 163.645,101.625    163.645,102.33 163.645,103.032 163.645,103.384 162.994,103.737 162.994,104.087 162.994,104.439 162.666,104.439    162.341,104.439 162.341,104.791 162.994,105.142 162.666,105.493 162.341,105.493 162.016,105.846 162.016,106.199    161.365,106.548 161.037,106.199 160.712,106.548 160.712,106.901 160.386,106.901 160.061,107.252 160.061,107.605    160.386,107.955 160.061,108.307 159.734,109.011 159.408,109.011 159.734,109.362 159.734,109.714 159.082,109.362    158.757,109.362 158.757,110.067 159.082,110.067 159.408,110.415 159.082,110.415 158.757,110.415 158.432,110.415    158.105,110.769 158.432,111.12 158.757,111.471 158.432,111.823 158.105,111.823 157.779,111.823 157.779,112.174    157.453,112.527 157.453,112.878 157.779,112.878 157.779,113.229 157.453,113.934 157.128,114.284 156.801,114.635    156.15,114.635 155.497,114.284 154.846,114.284 154.193,114.635 153.868,114.635 153.215,114.989 152.889,114.989    152.565,114.989 152.24,114.989 151.911,114.989 151.586,114.989 151.261,114.635 150.935,114.989 150.282,115.338    150.282,115.691 149.956,115.691 149.631,116.042 149.304,116.395 148.979,116.042 148.979,115.691 148.653,115.338    148.327,115.338 148.327,114.635 148.327,114.284 148.653,114.284 148.979,113.934 149.304,113.934 149.304,113.581    149.631,113.229 149.956,112.878 150.282,112.878 150.282,112.527 149.956,112.174 149.956,111.823 150.607,111.471    150.607,111.12 149.956,111.12 149.631,111.12 149.304,111.471 148.979,111.12 148.979,110.769 148.979,110.415 148.327,110.067    148.327,109.714 148.327,109.362 148.653,109.362 149.304,109.362 149.304,109.011 149.304,108.658 149.631,107.955    149.631,107.252 149.631,106.548 149.304,106.548 148.653,106.548 148.653,106.901 148.653,107.252 148.327,107.605 148,107.605    147.349,107.605 146.697,107.955 146.043,107.605 146.043,107.955 146.043,108.307 145.718,108.307 145.393,108.307    145.393,107.605 145.068,107.605 144.741,107.955 145.068,108.658 145.393,109.011 145.068,109.011 144.414,109.362    144.089,109.011 143.113,109.011 142.785,108.658 142.134,108.658 142.134,108.307 142.134,107.252 142.134,106.548    142.134,106.199 141.482,105.846 141.482,105.142 141.809,104.791 142.134,104.791 142.459,104.791 142.785,104.439    142.785,104.087 143.113,104.087 143.438,103.737 143.113,103.737 143.113,103.384 143.438,103.032 143.438,102.682    143.113,102.33 142.459,101.979 142.134,101.979 141.482,101.625 141.156,101.625 140.505,101.625   " id="upazila_227" area="upazlia" name="gopalpur" bengali="গোপালপুর" parent="tangail"></polygon><polygon points="135.942,101.275 136.267,101.625 136.594,102.33 136.919,102.33 137.245,102.33 137.898,102.682    138.549,102.33 138.874,102.33 139.201,101.979 139.527,101.625 139.527,101.275 140.505,101.625 141.156,101.625    141.482,101.625 142.134,101.979 142.459,101.979 143.113,102.33 143.438,102.682 143.438,103.032 143.113,103.384    143.113,103.737 143.438,103.737 143.113,104.087 142.785,104.087 142.785,104.439 142.459,104.791 142.134,104.791    141.809,104.791 141.482,105.142 141.482,105.846 142.134,106.199 142.134,106.548 142.134,107.252 142.134,108.307    142.134,108.658 142.785,108.658 143.113,109.011 144.089,109.011 144.414,109.362 145.068,109.011 145.393,109.011    145.068,108.658 144.741,107.955 145.068,107.605 145.393,107.605 145.393,108.307 145.718,108.307 146.045,108.307    146.045,107.955 146.045,107.605 146.697,107.955 147.349,107.605 148,107.605 148.327,107.605 148.653,107.252 148.653,106.901    148.653,106.548 149.304,106.548 149.631,106.548 149.631,107.252 149.631,107.955 149.304,108.658 149.304,109.011    149.304,109.362 148.653,109.362 148.327,109.362 148.327,109.714 148.327,110.067 148.979,110.415 148.979,110.769    148.979,111.12 149.304,111.471 149.631,111.12 149.956,111.12 150.607,111.12 150.607,111.471 149.956,111.823 149.956,112.174    150.282,112.527 150.282,112.878 149.956,112.878 149.631,113.229 149.304,113.581 149.304,113.934 148.979,113.934    148.653,114.284 148.327,114.284 148.327,114.635 148.327,115.338 148.327,116.042 148.327,116.746 148.653,117.096    148.653,117.447 148.979,117.801 148.979,118.151 148.979,118.503 149.304,119.207 149.304,119.559 149.631,119.909    149.956,120.262 149.956,120.614 149.631,121.314 149.956,121.314 150.282,121.668 150.607,121.668 150.607,122.019    150.607,122.371 150.282,122.371 149.956,122.371 149.631,122.723 149.631,123.073 149.631,123.425 148.979,123.073    148.979,123.425 148.979,124.129 149.304,124.482 148.979,125.184 148.653,125.886 148.653,126.237 148.979,126.59    149.304,126.941 149.304,127.292 149.304,127.996 148.979,127.996 148.653,127.996 148.327,127.292 148,127.292 147.349,127.292    147.349,126.941 147.022,126.941 146.697,126.941 146.697,127.292 146.697,127.646 146.371,127.996 146.045,127.996    145.718,127.996 145.718,127.292 145.068,127.292 144.741,127.646 144.414,127.646 144.414,127.292 144.089,127.292    143.438,127.292 143.113,127.292 143.113,126.59 142.785,126.59 142.134,126.59 141.809,126.59 141.482,126.59 140.83,126.59    140.83,126.941 141.156,127.292 141.482,127.292 141.482,127.646 141.156,127.646 140.83,127.996 140.83,128.349 140.83,128.699    140.505,128.699 139.852,128.699 139.527,128.699 139.201,128.699 138.874,128.699 138.549,129.051 137.898,129.403    137.245,129.051 136.919,129.051 136.919,128.349 136.919,127.996 136.594,127.646 136.267,127.996 135.616,127.996    134.638,128.349 132.683,128.349 132.355,127.646 132.031,125.886 132.031,125.536 131.704,125.536 131.379,125.536    130.727,125.886 130.399,125.886 130.073,125.886 129.422,125.536 129.097,124.832 128.77,123.777 128.447,123.073    128.447,122.019 128.447,121.314 128.119,120.614 127.793,120.614 127.466,120.262 127.466,119.909 127.793,119.207    128.447,118.855 128.77,118.503 129.422,118.503 129.748,118.503 129.748,117.801 129.748,117.096 129.748,116.746    130.073,116.746 130.727,116.395 131.052,116.042 131.704,115.338 132.031,114.989 131.704,114.635 131.379,114.989    131.052,114.989 130.727,115.338 130.727,114.989 130.727,114.635 130.727,114.284 131.052,113.934 131.379,113.229    131.704,112.527 132.031,112.174 132.031,111.823 131.704,111.12 131.379,110.415 130.727,110.415 130.727,110.067    130.399,110.067 129.748,109.714 129.097,109.362 129.097,109.011 129.422,108.307 129.748,108.307 130.073,108.658    130.399,108.658 130.727,108.658 130.727,108.307 130.727,107.955 130.727,107.605 130.727,107.252 130.727,106.199    131.052,105.846 131.379,105.846 131.704,105.493 132.355,105.493 132.683,105.142 133.334,105.142 133.659,104.791    133.987,104.439 134.313,104.087 134.313,103.737 133.987,103.384 134.313,103.032 134.638,102.33 134.963,102.33    135.616,101.979   " id="upazila_224" area="upazlia" name="bhuapur" bengali="ভুয়াপুর" parent="tangail"></polygon><polygon points="163.645,103.383 164.297,103.383 164.625,103.737 164.948,104.087 165.276,104.087    165.601,104.087 166.252,104.087 166.579,103.737 166.906,104.087 167.231,104.44 166.906,104.79 166.579,105.495    166.579,105.845 166.906,106.199 167.231,106.199 167.883,106.903 168.208,106.903 168.533,106.903 168.862,106.547    169.513,106.199 169.838,106.199 170.163,106.199 170.49,106.199 171.141,105.845 171.469,105.845 171.792,105.845    172.122,106.199 172.446,105.845 173.098,105.845 173.424,106.199 174.076,106.547 174.403,106.547 175.053,106.547    175.053,106.199 175.053,105.845 175.38,105.495 175.705,105.845 176.031,105.495 176.357,105.142 176.685,105.142    177.009,104.79 178.314,104.79 178.639,104.79 179.289,105.845 179.616,105.845 179.943,106.547 180.268,107.25 179.943,107.957    179.943,108.308 179.943,108.658 179.943,109.363 179.943,109.712 180.268,109.712 180.593,109.363 181.248,108.658    181.572,108.308 182.224,107.957 182.875,107.605 183.529,107.25 184.179,106.903 184.504,106.903 184.831,106.199    185.156,105.845 186.785,105.142 187.114,106.199 187.114,106.547 187.765,106.903 188.09,106.903 188.417,107.25    188.417,107.605 188.742,108.308 189.069,109.712 190.046,109.01 190.374,108.658 190.699,109.01 191.026,109.363    191.026,109.712 191.676,110.067 192.003,110.067 192.655,110.415 193.307,110.77 193.957,111.12 193.632,111.47 193.307,111.824    193.307,112.174 193.307,112.527 193.957,112.527 194.283,112.174 194.937,112.527 195.589,113.23 195.912,113.581    196.24,114.284 196.24,114.635 196.891,114.635 197.541,114.284 197.869,114.284 198.195,114.284 198.52,114.989 198.195,114.989    197.869,115.337 196.891,116.393 196.566,116.393 196.24,116.746 195.912,117.096 195.589,117.799 194.609,117.799    194.283,117.799 194.283,118.151 193.957,118.504 194.283,119.207 195.261,119.912 195.589,120.261 195.912,120.61    196.24,120.965 196.24,121.314 196.24,121.668 196.24,122.018 196.566,122.018 196.891,122.372 196.891,122.722 197.218,122.722    197.218,123.073 197.541,123.427 197.541,123.777 197.541,124.129 197.541,124.479 197.218,124.479 196.24,124.479    195.912,124.479 195.261,124.129 194.937,123.777 194.609,123.777 193.957,123.427 193.632,123.427 193.632,123.073    193.307,122.722 192.979,122.722 192.655,122.722 192.003,123.073 191.026,123.073 190.699,123.073 190.046,123.073    189.394,123.073 188.742,123.427 188.417,123.777 188.09,124.129 187.765,124.479 187.114,124.129 186.785,124.129    186.135,124.129 185.811,123.777 185.156,123.777 184.504,123.777 183.853,123.777 183.2,124.129 182.875,124.129    182.224,124.479 182.224,124.833 182.224,125.184 181.572,124.833 181.572,124.479 181.572,124.129 181.248,124.129    180.918,124.129 180.268,123.777 179.943,123.777 179.616,124.129 179.289,124.479 178.639,124.833 177.988,124.833    177.334,124.833 177.009,124.833 176.685,124.833 176.031,124.833 175.705,124.833 175.705,125.184 176.031,125.886    176.031,126.59 176.031,126.939 175.705,126.939 175.38,127.294 175.38,127.646 175.053,127.996 174.727,128.349 174.403,127.996    174.076,127.646 173.751,127.646 173.424,127.646 173.098,127.294 173.098,126.939 172.446,126.939 172.446,126.59    171.792,126.59 171.469,126.59 171.141,126.59 170.817,126.237 170.49,126.237 170.163,125.886 169.838,126.237 169.513,126.59    169.838,126.939 170.163,127.294 169.838,127.646 169.513,127.646 169.188,127.646 168.533,127.646 168.208,127.996    167.883,128.349 167.556,128.349 167.231,128.349 167.231,127.996 166.906,126.939 166.579,126.939 166.252,126.939    166.252,127.646 165.929,127.996 165.601,127.996 165.276,127.646 164.948,127.646 164.297,127.996 163.97,128.349    163.645,127.996 163.32,127.996 162.993,128.349 162.993,128.699 162.993,129.053 162.666,129.053 162.016,129.053    161.69,129.053 161.365,129.053 161.037,129.053 160.714,128.699 160.386,128.699 159.734,128.349 159.407,128.699    159.082,129.053 158.432,128.699 158.432,128.349 158.432,127.996 158.432,127.294 158.104,126.939 157.78,126.59    157.453,126.237 156.801,126.59 156.475,126.59 156.151,126.59 156.151,126.939 155.499,127.294 155.171,127.294 154.519,126.939    154.519,126.237 154.519,125.886 154.519,125.536 154.519,125.184 154.519,124.833 153.54,124.833 153.217,125.184    152.889,125.184 152.565,125.184 151.911,124.833 151.588,124.833 151.261,124.479 150.607,124.479 150.282,124.479    149.956,124.479 149.631,123.777 149.631,123.427 149.631,123.073 149.631,122.722 149.956,122.372 150.282,122.372    150.607,122.372 150.607,122.018 150.607,121.668 150.282,121.668 149.956,121.314 149.631,121.314 149.956,120.61    149.956,120.261 149.631,119.912 149.304,119.559 149.304,119.207 148.979,118.504 148.979,118.151 148.979,117.799    148.653,117.45 148.653,117.096 148.327,116.746 148.327,116.044 148.327,115.337 148.653,115.337 148.979,115.689    148.979,116.044 149.304,116.393 149.631,116.044 149.956,115.689 150.282,115.689 150.282,115.337 150.936,114.989    151.261,114.635 151.588,114.989 151.911,114.989 152.239,114.989 152.565,114.989 152.889,114.989 153.217,114.989    153.868,114.635 154.193,114.635 154.846,114.284 155.499,114.284 156.151,114.635 156.801,114.635 157.128,114.284    157.453,113.932 157.78,113.23 157.78,112.878 157.453,112.878 157.453,112.527 157.78,112.174 157.78,111.824 158.104,111.824    158.432,111.824 158.757,111.47 158.432,111.12 158.104,110.77 158.432,110.415 158.757,110.415 159.082,110.415 159.407,110.415    159.082,110.067 158.757,110.067 158.757,109.363 159.082,109.363 159.734,109.712 159.734,109.363 159.407,109.01    159.734,109.01 160.062,108.308 160.386,107.957 160.062,107.605 160.062,107.25 160.386,106.903 160.714,106.903    160.714,106.547 161.037,106.199 161.365,106.547 162.016,106.199 162.016,105.845 162.343,105.495 162.666,105.495    162.993,105.142 162.343,104.79 162.343,104.44 162.666,104.44 162.993,104.44 162.993,104.087 162.993,103.737   " id="upazila_226" area="upazlia" name="ghatail" bengali="ঘাটাইল" parent="tangail"></polygon><polygon points="149.631,123.425 149.631,123.777 149.956,124.482 150.282,124.482 150.608,124.482    151.26,124.482 151.588,124.832 151.911,124.832 152.564,125.184 152.89,125.184 153.217,125.184 153.539,124.832    154.521,124.832 154.521,125.184 154.521,125.536 154.521,125.886 154.521,126.237 154.521,126.941 155.174,127.292    155.499,127.292 156.15,126.941 156.15,126.589 156.475,126.589 156.803,126.589 157.454,126.237 157.78,126.589 158.104,126.941    158.432,127.292 158.432,127.996 158.432,128.349 158.432,128.699 159.083,129.051 159.407,128.699 159.734,128.349    160.387,128.699 160.712,128.699 161.037,129.051 161.365,129.051 161.69,129.051 162.016,129.051 162.666,129.051    162.994,129.051 162.994,128.699 162.994,128.349 163.32,127.996 163.647,127.996 163.97,128.349 164.297,127.996 164.95,127.646    165.276,127.646 165.599,127.996 165.93,127.996 166.252,127.646 166.252,126.941 166.58,126.941 166.906,126.941    167.233,127.996 167.233,128.349 167.558,128.349 167.883,128.349 168.209,127.996 168.533,127.646 169.187,127.646    169.515,127.646 169.838,127.646 170.163,127.292 169.838,126.941 169.515,126.589 169.838,126.237 170.163,125.886    170.491,126.237 170.817,126.237 171.142,126.589 171.469,126.589 171.792,126.589 172.446,126.589 172.446,126.941    173.098,126.941 173.098,127.292 173.426,127.646 173.751,127.646 174.076,127.646 174.403,127.996 174.727,128.349    175.055,127.996 175.38,127.646 175.38,127.292 175.706,126.941 176.031,126.941 176.031,126.589 176.031,125.886    175.706,125.184 175.706,124.832 176.031,124.832 176.685,124.832 177.009,125.536 177.335,125.536 177.989,125.536    177.989,125.886 177.989,126.237 177.659,126.589 177.009,127.646 177.009,127.996 177.335,127.996 177.009,128.349    176.685,129.051 176.356,129.403 176.356,130.106 176.685,130.458 177.009,130.81 177.659,131.16 177.989,131.513    178.639,131.863 178.639,132.216 178.639,132.567 178.639,132.917 178.314,133.271 177.659,133.623 177.009,133.623    176.356,133.623 176.031,133.623 175.706,133.623 175.38,133.974 175.38,134.324 175.38,134.678 175.055,135.027 174.727,135.027    174.076,135.027 173.751,135.027 173.426,135.38 173.426,135.731 173.751,135.731 173.098,136.083 173.098,136.436    173.426,136.785 173.098,136.785 173.426,137.139 173.751,137.139 174.076,137.49 174.403,137.841 174.727,138.192    175.055,138.192 175.38,138.544 175.38,139.247 175.38,139.599 174.727,140.303 174.076,140.653 174.076,141.357 174.076,141.708    173.098,142.061 172.773,141.708 173.098,141.005 172.773,141.005 172.773,140.653 172.446,140.653 172.122,141.005    172.122,141.357 171.792,141.357 171.469,141.357 170.817,142.412 170.817,143.114 170.491,143.466 169.838,143.466    169.515,143.114 169.187,142.762 168.863,142.412 168.533,142.412 167.883,142.412 167.233,142.061 166.58,142.061    166.252,141.708 165.93,142.061 165.93,142.412 165.93,143.114 165.599,143.466 165.276,143.466 164.95,143.818 164.625,144.169    164.625,144.521 163.97,144.521 163.647,144.169 163.647,143.818 163.32,143.818 162.994,143.466 162.666,143.466    162.666,143.114 162.343,143.114 162.016,143.466 161.69,143.818 161.037,143.818 160.712,143.114 160.712,142.762    160.387,142.762 159.734,142.412 159.407,142.412 159.407,142.762 159.407,143.466 159.407,143.818 159.083,144.169    158.757,144.169 158.432,144.169 158.104,144.169 157.454,144.169 157.454,143.818 157.454,143.466 157.454,143.114    157.126,142.762 156.475,142.762 156.15,142.762 156.15,142.412 155.823,142.061 155.499,141.708 155.174,141.708    155.174,141.357 154.844,141.005 154.521,141.005 154.193,141.005 153.87,140.653 153.87,139.951 153.87,139.599 153.539,138.896    152.89,138.544 152.564,138.544 151.911,138.544 151.26,138.544 150.936,138.544 150.282,138.544 150.282,138.192 150.282,137.49    150.608,137.139 150.936,136.436 150.936,135.731 150.936,135.38 150.608,135.027 150.282,135.027 149.631,135.027    149.306,135.38 149.306,135.731 149.306,136.436 148.978,136.785 148.328,136.436 147.675,136.436 147.347,136.436    147.024,136.436 147.024,136.785 146.697,136.785 146.045,136.785 145.067,136.436 144.742,136.083 144.414,136.083    143.439,136.436 143.114,136.436 142.784,136.785 142.46,136.436 142.46,135.731 142.134,135.38 142.134,135.027 141.81,135.027    141.156,135.027 140.831,135.027 140.503,134.678 140.503,134.324 140.18,133.974 139.528,133.623 139.201,133.271    138.876,133.623 138.551,133.271 138.223,133.271 137.571,133.623 137.571,133.974 137.898,134.678 138.223,135.38    137.898,135.731 137.898,136.083 137.571,136.436 137.247,136.436 136.919,136.436 136.594,136.436 136.269,136.785    135.616,136.785 132.684,136.436 132.355,136.083 131.704,136.083 131.054,135.38 131.054,135.027 130.726,134.324    130.726,133.974 131.054,133.271 131.379,132.917 131.704,132.216 132.031,131.863 132.684,131.16 133.006,130.81    133.006,130.458 133.006,129.403 132.684,128.349 134.64,128.349 135.616,127.996 136.269,127.996 136.594,127.646    136.919,127.996 136.919,128.349 136.919,129.051 137.247,129.051 137.898,129.403 138.551,129.051 138.876,128.699    139.201,128.699 139.528,128.699 139.852,128.699 140.503,128.699 140.831,128.699 140.831,128.349 140.831,127.996    141.156,127.646 141.482,127.646 141.482,127.292 141.156,127.292 140.831,126.941 140.831,126.589 141.482,126.589    141.81,126.589 142.134,126.589 142.784,126.589 143.114,126.589 143.114,127.292 143.439,127.292 144.089,127.292    144.414,127.292 144.414,127.646 144.742,127.646 145.067,127.292 145.718,127.292 145.718,127.996 146.045,127.996    146.371,127.996 146.697,127.646 146.697,127.292 146.697,126.941 147.024,126.941 147.347,126.941 147.347,127.292 148,127.292    148.328,127.292 148.653,127.996 148.978,127.996 149.306,127.996 149.306,127.292 149.306,126.941 148.978,126.589    148.653,126.237 148.653,125.886 148.978,125.184 149.306,124.482 148.978,124.129 148.978,123.425 148.978,123.073   " id="upazila_228" area="upazlia" name="kalihati" bengali="কালিহাতী" parent="tangail"></polygon><polygon points="181.246,158.937 182.224,157.882 182.224,157.532 182.55,157.18 182.875,156.828 183.202,157.18    183.853,156.828 184.506,156.828 184.831,156.474 185.156,156.474 185.81,156.828 186.135,156.828 186.786,156.474    187.114,156.125 187.765,155.772 188.09,155.42 188.742,155.42 189.394,155.42 189.721,155.42 190.374,155.42 190.699,155.068    191.678,155.068 192.003,155.068 192.655,155.068 192.98,154.716 193.307,154.716 193.307,154.368 193.307,154.013    192.98,153.665 193.307,153.665 193.632,153.312 193.958,153.665 194.283,153.665 194.609,153.665 194.936,153.312    195.587,153.665 195.912,154.013 196.24,154.013 195.912,154.716 195.587,154.716 195.262,154.368 195.262,154.716    195.262,155.068 195.262,155.42 194.936,155.772 195.262,155.772 196.566,156.474 196.891,156.828 197.543,156.474    197.869,156.125 197.869,156.474 197.869,156.828 197.869,157.532 197.869,158.234 198.195,158.234 198.195,158.586    197.869,158.586 197.869,158.937 198.195,158.937 197.869,159.64 197.543,159.992 196.891,160.693 196.566,161.048    196.566,161.75 196.24,162.101 196.24,162.454 196.24,163.156 195.912,163.511 195.912,163.858 195.587,163.858 195.587,164.213    195.587,164.916 195.587,165.267 195.587,165.617 195.262,165.97 195.262,166.321 195.262,166.674 195.587,167.023    196.24,167.378 196.566,167.727 196.891,168.079 196.891,168.431 196.891,168.781 196.891,169.484 196.566,169.837    196.566,170.188 195.262,170.891 194.609,170.539 193.632,170.891 193.307,170.539 193.307,170.188 192.326,170.188    192.003,170.891 191.35,170.891 190.699,170.539 191.025,169.837 190.699,169.135 190.374,169.135 190.046,169.135    189.721,169.135 189.721,169.484 189.721,170.188 189.394,170.539 189.394,170.891 189.394,171.244 190.046,171.597    190.374,171.945 190.374,172.648 190.046,173.001 190.046,173.354 189.394,174.058 189.394,174.406 189.069,174.76    188.742,174.76 188.417,175.462 188.09,175.462 187.765,175.814 187.439,176.163 187.439,176.518 187.765,176.868    187.765,177.222 187.114,177.222 186.786,177.572 186.46,177.572 186.46,177.924 186.46,178.275 186.135,178.625 186.135,178.979    186.135,179.329 186.135,179.682 185.81,180.032 184.179,180.388 183.853,180.388 183.528,180.388 183.202,180.388    182.875,180.737 182.55,181.441 182.224,181.441 181.572,181.441 180.92,181.441 180.92,181.792 181.246,182.143 180.92,182.494    180.593,182.847 180.268,182.847 179.617,181.792 179.289,181.441 178.639,181.441 178.639,181.088 178.639,180.737    178.639,180.388 178.314,180.032 177.66,180.032 177.335,180.032 177.009,180.032 177.335,179.682 177.009,179.329    176.684,179.329 176.357,179.329 176.031,179.682 176.031,180.032 176.031,180.388 175.705,180.388 175.38,180.388    175.055,180.388 175.055,180.032 174.728,179.682 174.728,180.032 174.728,180.388 174.728,180.737 174.076,181.088    173.424,181.088 172.448,181.088 172.12,181.088 171.469,181.441 171.142,181.441 170.49,181.792 170.165,182.143    169.838,182.143 169.513,182.143 169.187,181.792 168.863,181.792 168.863,181.441 169.187,181.088 169.513,180.737    169.513,180.388 168.863,180.032 168.533,180.032 168.533,179.682 168.533,179.329 168.208,178.979 167.884,178.979    167.884,179.329 167.558,179.682 167.231,180.032 167.558,180.388 167.884,180.737 168.208,181.088 168.208,181.792    168.208,182.143 168.208,182.494 167.884,182.847 167.231,182.847 167.231,181.792 166.905,181.792 166.58,181.441    166.254,181.088 165.929,181.088 165.929,180.388 165.929,180.032 165.601,179.682 165.601,179.329 165.276,178.979    164.948,178.275 164.623,177.924 164.297,177.924 164.297,178.275 164.297,178.625 163.972,178.979 163.645,178.979    163.32,178.979 162.994,178.625 162.668,178.625 162.341,178.625 162.016,177.924 162.016,177.222 162.016,176.163    162.016,175.462 162.341,175.462 162.668,175.111 162.994,175.111 162.994,174.76 162.994,174.406 162.668,174.058    162.016,174.406 161.691,174.058 162.016,173.705 162.016,173.354 162.016,172.648 162.016,172.299 162.016,171.945    161.365,171.945 161.037,171.945 160.712,171.597 160.712,171.244 161.037,171.244 161.691,170.188 162.016,169.484    161.691,168.781 163.32,168.431 163.645,168.431 163.972,168.079 164.297,168.079 164.623,168.079 164.623,167.727    164.948,167.378 165.276,167.378 165.601,167.378 166.254,165.97 166.254,165.617 165.929,164.916 165.929,164.56    166.254,164.213 166.254,163.858 166.254,163.511 166.254,163.156 166.905,163.156 167.231,163.511 167.558,163.156    168.208,163.156 168.533,163.156 169.187,162.101 169.513,161.397 169.187,161.048 168.863,160.693 168.863,160.342    169.187,159.992 169.513,159.992 169.838,159.992 169.838,160.342 170.165,160.342 170.49,160.342 171.142,159.992    171.469,159.64 171.469,158.586 171.792,158.234 172.12,157.882 172.448,157.882 172.773,158.586 172.773,158.937 173.098,159.29    173.098,159.64 173.098,160.342 173.098,161.048 173.751,161.048 173.751,160.693 174.076,159.992 174.402,159.64 175.055,159.64    175.38,159.64 176.357,159.64 176.684,159.992 176.684,160.342 176.684,160.693 177.009,161.048 177.335,161.397 177.66,161.75    178.314,161.75 178.964,161.75 178.964,160.693 179.289,160.342 179.617,160.342 180.268,161.048 180.593,161.048 180.92,161.048    181.246,160.693 181.246,159.992 181.246,159.64   " id="upazila_230" area="upazlia" name="mirzapur" bengali="মির্জাপুর" parent="tangail"></polygon><polygon points="137.898,162.453 137.898,161.397 137.898,161.048 138.223,160.694 138.551,160.342    138.876,160.694 139.201,160.694 139.527,161.048 139.853,161.048 140.505,161.048 140.83,161.048 140.83,161.397    141.156,161.749 141.482,162.103 141.809,162.103 142.46,162.103 142.785,162.453 143.439,162.453 144.089,162.805    144.414,162.805 144.742,162.453 145.068,162.453 145.393,162.805 145.393,163.157 146.045,162.805 146.045,163.858    146.045,164.211 145.72,164.915 145.393,165.267 145.068,165.617 145.393,166.321 145.393,166.672 145.72,167.023    146.045,167.023 146.371,167.023 146.371,167.377 146.697,167.727 147.024,168.079 147.675,168.433 148.328,168.433    148.979,168.433 149.632,168.781 149.956,169.135 150.282,169.484 150.282,170.188 150.608,170.539 150.608,170.891    150.936,171.244 151.261,171.244 152.24,171.244 152.565,171.594 152.89,171.945 152.89,172.299 152.89,172.648 152.565,172.648    151.913,173.001 151.261,173.354 151.261,174.058 151.261,174.406 151.261,175.111 151.586,175.462 151.913,175.462    152.24,175.462 152.565,176.166 152.565,176.868 152.89,177.219 153.217,177.219 153.217,177.572 153.54,177.924 153.868,178.275    154.194,178.275 154.846,178.275 155.499,177.924 155.824,177.924 156.15,177.572 156.475,176.868 156.803,176.517    157.453,176.517 158.432,176.166 158.757,175.814 159.408,175.814 160.062,175.462 160.712,175.814 161.365,175.814    162.016,176.166 162.016,177.219 162.016,177.924 162.341,178.625 162.668,178.625 162.994,178.625 163.32,178.979    163.647,178.979 163.972,178.979 164.297,178.625 164.297,178.275 164.297,177.924 164.623,177.924 164.95,178.275    165.276,178.979 165.601,179.329 165.601,179.681 165.929,180.033 165.929,180.386 165.929,181.088 166.254,181.088    166.58,181.439 166.905,181.792 167.231,181.792 167.231,182.847 167.231,183.549 166.905,183.549 166.905,183.904    166.254,183.549 165.929,183.904 165.601,184.253 165.929,184.253 166.254,184.604 166.254,184.956 165.929,184.956    165.929,185.306 165.929,185.659 165.929,186.011 165.601,186.362 165.276,186.362 164.95,186.362 164.95,186.011    164.297,186.011 163.972,185.659 163.647,185.306 163.32,184.956 162.341,184.956 162.016,184.604 162.016,184.253    162.016,183.904 162.341,183.904 162.994,183.904 162.994,183.549 162.668,183.199 162.668,182.847 162.341,182.142    162.668,181.439 162.341,181.088 162.016,181.088 161.691,181.088 161.691,181.439 161.691,181.792 161.037,181.792    161.037,182.142 161.037,182.494 160.712,182.847 160.712,183.199 160.712,183.904 160.712,184.253 160.387,184.253    160.062,184.253 159.408,183.904 159.083,183.549 158.757,183.199 158.432,182.847 158.432,182.142 158.105,182.142    157.78,182.494 157.78,182.847 157.78,183.199 157.78,183.904 157.453,183.904 157.128,184.253 157.128,184.604 157.128,184.956    157.453,184.956 157.78,185.306 158.105,185.306 157.78,185.659 157.453,185.659 157.128,185.659 156.475,185.306 156.15,185.306    155.499,185.659 154.521,185.659 154.521,186.011 153.54,186.362 153.217,186.713 153.217,187.066 152.565,187.066    152.565,186.713 152.24,186.713 151.913,186.713 151.913,187.066 151.913,187.416 151.586,187.769 151.261,187.769    150.282,188.12 150.282,188.47 149.956,188.823 149.632,188.823 149.632,189.176 149.632,189.526 149.956,189.877    150.282,190.228 150.608,190.228 150.608,190.58 149.956,190.58 149.632,190.228 148.979,190.228 148.653,190.228    148.328,189.877 148,189.176 148.328,188.823 148.328,188.47 148.328,188.12 148,188.12 148.328,187.416 148.328,187.066    148,186.713 147.675,186.713 147.349,187.066 146.697,187.416 146.371,187.416 146.371,187.769 146.697,188.12 147.024,188.47    146.697,188.823 146.697,189.176 146.371,189.526 146.697,189.526 146.697,189.877 146.697,190.228 146.697,190.58    146.371,190.58 146.045,190.58 145.393,190.933 144.742,190.933 144.414,190.933 144.414,190.228 144.089,189.877    143.764,190.228 143.439,190.58 143.113,190.58 142.785,190.228 142.46,189.526 142.135,189.176 141.809,189.176 141.482,188.823    141.156,188.823 140.18,188.47 139.853,188.823 139.527,189.176 139.201,189.176 139.201,189.526 138.876,189.877    138.551,189.877 138.223,189.877 138.223,189.526 137.898,188.823 137.573,188.823 136.919,188.823 136.594,188.823    136.594,188.12 136.594,187.769 136.269,187.416 135.942,187.416 135.942,187.769 135.616,187.769 135.29,188.47 134.965,188.823    134.638,189.176 133.988,189.526 133.659,189.526 133.334,189.176 133.008,188.823 133.008,188.47 133.334,188.47 133.659,188.12    133.988,187.769 134.313,187.769 134.638,187.416 134.313,187.066 134.313,186.713 134.638,186.713 134.638,186.362    134.965,185.659 134.965,185.306 135.29,184.604 135.29,184.253 135.616,183.549 135.616,182.847 135.616,182.494    135.616,181.792 135.616,181.439 135.29,181.088 135.29,180.737 135.29,180.386 135.29,180.033 135.616,180.033 135.942,180.033    136.269,179.681 136.594,179.329 137.245,178.979 137.245,178.625 137.573,178.275 137.898,178.275 138.551,177.572    139.201,176.868 139.853,176.166 140.18,175.462 140.505,174.757 140.505,174.406 140.83,173.001 140.505,172.299 140.18,171.945    140.18,171.244 139.853,170.539 139.853,169.837 139.853,169.484 139.527,167.727 139.527,166.672 139.853,166.321    140.18,165.617 140.18,165.267 140.18,164.915 139.527,164.915 138.876,164.562 138.551,164.211 138.223,163.511   " id="upazila_231" area="upazlia" name="nagarpur" bengali="নাগরপুর" parent="tangail"></polygon><polygon points="162.016,156.828 162.341,157.532 162.341,158.234 162.016,159.64 162.016,159.992    162.341,159.992 162.668,159.992 162.668,160.344 163.32,160.344 163.645,159.992 163.972,159.29 164.297,159.29 164.623,159.64    164.948,159.992 165.276,160.344 165.601,160.344 165.601,159.992 165.929,159.64 165.929,159.992 166.254,159.992    166.58,159.992 166.58,159.64 166.905,159.64 167.558,159.992 167.884,160.344 167.884,160.694 169.187,161.046 169.513,161.398    169.187,162.103 168.533,163.157 168.208,163.157 167.558,163.157 167.231,163.51 166.905,163.157 166.254,163.157    166.254,163.51 166.254,163.858 166.254,164.213 165.929,164.562 165.929,164.915 166.254,165.618 166.254,165.97    165.601,167.377 165.276,167.377 164.948,167.377 164.623,167.727 164.623,168.08 164.297,168.08 163.972,168.08 163.645,168.431    163.32,168.431 161.691,168.781 162.016,169.487 161.691,170.188 161.037,171.244 160.712,171.244 160.712,171.594    161.037,171.947 161.365,171.947 162.016,171.947 162.016,172.299 162.016,172.648 162.016,173.354 162.016,173.705    161.691,174.056 162.016,174.408 162.668,174.056 162.994,174.408 162.994,174.76 162.994,175.111 162.668,175.111    162.341,175.462 162.016,175.462 162.016,176.166 161.365,175.814 160.712,175.814 160.061,175.462 159.408,175.814    158.757,175.814 158.432,176.166 157.453,176.517 156.803,176.517 156.475,176.868 156.15,177.572 155.824,177.924    155.499,177.924 154.846,178.275 154.194,178.275 153.868,178.275 153.54,177.924 153.217,177.572 153.217,177.222    152.889,177.222 152.565,176.868 152.565,176.166 152.24,175.462 151.913,175.462 151.586,175.462 151.261,175.111    151.261,174.408 151.261,174.056 151.261,173.354 151.913,173.002 152.565,172.648 152.889,172.648 152.889,172.299    152.889,171.947 152.565,171.594 152.24,171.244 151.261,171.244 150.936,171.244 150.608,170.891 150.608,170.541    150.282,170.188 150.282,169.487 149.956,169.134 149.632,168.781 148.979,168.431 148.327,168.431 147.675,168.431    147.024,168.08 146.697,167.727 146.371,167.377 146.371,167.024 146.045,167.024 145.718,167.024 145.393,166.674    145.393,166.321 145.068,165.618 145.393,165.267 145.718,164.915 146.045,164.213 146.045,163.858 146.045,162.806    146.045,162.103 146.045,161.75 146.045,161.398 146.371,161.046 146.697,161.046 147.349,161.046 147.675,161.046 148,161.046    148.653,161.046 148.979,161.398 149.304,161.75 149.632,161.75 150.282,161.75 150.936,161.75 150.936,161.398 150.936,160.694    150.608,160.344 150.282,159.29 150.282,158.585 149.956,157.883 150.282,157.532 150.936,157.18 150.936,156.828    150.936,156.125 150.936,155.772 151.261,155.422 151.586,155.07 151.913,154.716 152.24,154.716 152.565,154.716    152.889,154.716 153.54,154.716 153.868,154.716 154.194,154.716 154.521,154.367 155.171,154.016 155.499,153.665    155.824,153.312 156.475,152.959 156.803,152.959 157.453,152.959 157.779,153.312 157.779,153.665 158.105,154.016    158.105,154.367 158.105,154.716 158.105,155.422 157.779,156.125 157.779,156.477 157.779,156.828 158.105,156.828    158.432,156.828 160.061,156.477 160.712,156.125 161.037,156.125   " id="upazila_225" area="upazlia" name="delduar" bengali="দেলদুয়ার" parent="tangail"></polygon><polygon points="161.037,143.818 161.691,143.818 162.016,143.467 162.341,143.114 162.666,143.114    162.666,143.467 162.994,143.467 163.32,143.818 163.645,143.818 163.645,144.169 163.97,144.521 164.623,144.521    164.623,144.169 164.948,143.818 165.276,143.467 165.601,143.467 165.929,143.114 165.929,142.412 165.929,142.063    166.252,141.708 166.58,142.063 167.231,142.063 167.884,142.412 168.533,142.412 168.862,142.412 169.187,142.762    169.513,143.114 169.837,143.467 170.49,143.467 170.817,143.114 170.817,142.412 171.469,141.357 171.792,141.357    172.12,141.357 172.12,141.005 172.446,140.654 172.773,140.654 172.773,141.005 173.098,141.005 172.773,141.708    173.098,142.063 174.076,142.762 173.751,143.114 173.424,143.467 173.424,143.818 173.751,143.818 174.076,143.467    174.402,143.114 174.727,143.114 174.727,143.467 175.055,143.818 174.727,144.169 174.727,144.521 175.055,144.521    175.38,144.169 175.705,143.818 176.031,143.818 176.357,143.818 176.684,143.818 176.684,144.521 177.009,144.873    177.335,144.873 177.335,145.226 177.009,145.929 176.684,146.279 176.684,146.632 177.009,146.279 177.335,146.279    177.335,146.632 177.335,146.981 177.009,147.336 176.357,147.336 176.357,146.981 176.031,146.981 175.705,146.981    175.705,147.336 175.705,147.688 176.031,148.038 176.684,148.038 177.009,148.038 177.335,148.038 177.66,148.39 177.988,148.39    178.313,148.39 178.639,148.038 178.964,148.038 179.289,148.742 179.289,149.092 179.289,149.445 178.964,149.797    178.964,150.148 178.964,150.499 179.289,150.499 178.964,150.849 179.289,151.202 179.616,151.555 179.616,151.905    179.289,151.905 178.964,151.555 178.639,151.202 178.313,151.555 178.313,151.905 178.313,152.256 178.639,152.61    178.639,152.959 178.313,152.959 177.988,153.312 177.988,153.665 177.66,153.665 177.66,154.367 177.66,154.716 177.988,154.367    178.313,154.016 178.639,154.016 178.964,154.016 178.964,154.367 178.964,154.716 179.289,154.716 179.289,155.07    179.289,155.422 179.616,155.772 179.943,155.772 179.943,156.125 180.268,156.125 180.593,156.125 180.593,156.477    180.268,156.477 179.616,156.828 179.616,157.18 179.943,157.18 180.268,157.18 180.593,157.18 180.92,157.532 181.246,158.234    181.246,158.939 181.246,159.64 181.246,159.993 181.246,160.694 180.92,161.046 180.593,161.046 180.268,161.046    179.616,160.344 179.289,160.344 178.964,160.694 178.964,161.75 178.313,161.75 177.66,161.75 177.335,161.398 177.009,161.046    176.684,160.694 176.684,160.344 176.684,159.993 176.357,159.64 175.38,159.64 175.055,159.64 174.402,159.64 174.076,159.993    173.751,160.694 173.751,161.046 173.098,161.046 173.098,160.344 173.098,159.64 173.098,159.29 172.773,158.939    172.773,158.585 172.446,157.883 172.12,157.883 171.792,158.234 171.469,158.585 171.469,159.64 171.141,159.993 170.49,160.344    170.165,160.344 169.837,160.344 169.837,159.993 169.513,159.993 169.187,159.993 168.862,160.344 168.862,160.694    169.187,161.046 167.884,160.694 167.884,160.344 167.556,159.993 166.905,159.64 166.58,159.64 166.58,159.993 166.252,159.993    165.929,159.993 165.929,159.64 165.601,159.993 165.601,160.344 165.276,160.344 164.948,159.993 164.623,159.64 164.297,159.29    163.97,159.29 163.645,159.993 163.32,160.344 162.666,160.344 162.666,159.993 162.341,159.993 162.016,159.993 162.016,159.64    162.341,158.234 162.341,157.532 162.016,156.828 161.691,155.07 161.691,154.716 162.341,154.367 162.666,154.367    162.666,154.016 162.994,153.665 162.994,152.959 162.994,152.256 162.994,151.905 162.994,151.202 162.994,150.849    163.32,149.445 163.32,149.092 162.994,148.742 162.666,148.39 162.666,147.336 162.666,146.632 162.341,146.279 161.691,145.576    161.691,145.226 162.016,144.873 162.016,144.521 161.691,144.521 161.365,144.521 161.037,144.169   " id="upazila_223" area="upazlia" name="basail" bengali="বাসাইল" parent="tangail"></polygon><polygon points="132.684,136.436 135.615,136.785 136.267,136.785 136.594,136.436 136.919,136.436    137.247,136.436 137.571,136.436 137.896,136.083 137.896,135.731 138.223,135.38 137.896,134.678 137.571,133.974    137.571,133.623 138.223,133.271 138.549,133.271 138.876,133.623 139.199,133.271 139.528,133.623 140.178,133.974    140.505,134.324 140.505,134.678 140.83,135.027 141.156,135.027 141.81,135.027 142.134,135.027 142.134,135.38 142.459,135.731    142.459,136.436 142.784,136.785 143.113,136.436 143.439,136.436 144.414,136.083 144.741,136.083 145.067,136.436    146.043,136.785 146.697,136.785 147.022,136.785 147.022,136.436 147.347,136.436 147.675,136.436 148.327,136.436    148.979,136.785 149.304,136.436 149.304,135.731 149.304,135.38 149.631,135.027 150.282,135.027 150.607,135.027    150.936,135.38 150.936,135.731 150.936,136.436 150.607,137.139 150.282,137.49 150.282,138.192 150.282,138.544    150.936,138.544 151.261,138.544 151.911,138.544 152.565,138.544 152.889,138.544 153.54,138.896 153.868,139.599    153.868,139.951 153.868,140.653 154.193,141.005 154.519,141.005 154.846,141.005 155.171,141.357 155.171,141.708    155.499,141.708 155.823,142.061 156.151,142.412 156.151,142.762 156.475,142.762 157.126,142.762 157.453,143.114    157.453,143.466 157.453,143.818 157.453,144.169 158.104,144.169 158.433,144.169 158.757,144.169 159.082,144.169    159.407,143.818 159.407,143.466 159.407,142.762 159.407,142.412 159.734,142.412 160.386,142.762 160.711,142.762    160.711,143.114 161.037,143.818 161.037,144.169 161.365,144.521 161.69,144.521 162.016,144.521 162.016,144.873    161.69,145.226 161.69,145.576 162.343,146.279 162.666,146.632 162.666,147.335 162.666,148.39 162.993,148.742 163.32,149.092    163.32,149.445 162.993,150.849 162.993,151.202 162.993,151.905 162.993,152.256 162.993,152.959 162.993,153.663    162.666,154.016 162.666,154.367 162.343,154.367 161.69,154.716 161.69,155.068 162.016,156.828 161.037,156.125    160.711,156.125 160.062,156.477 158.433,156.828 158.104,156.828 157.78,156.828 157.78,156.477 157.78,156.125 158.104,155.422    158.104,154.716 158.104,154.367 158.104,154.016 157.78,153.663 157.78,153.312 157.453,152.959 156.801,152.959    156.475,152.959 155.823,153.312 155.499,153.663 155.171,154.016 154.519,154.367 154.193,154.716 153.868,154.716    153.54,154.716 152.889,154.716 152.565,154.716 152.239,154.716 151.911,154.716 151.588,155.068 151.261,155.422    150.936,155.772 150.936,156.125 150.936,156.828 150.936,157.18 150.282,157.53 149.956,157.883 150.282,158.585 150.282,159.29    150.607,160.344 150.936,160.694 150.936,161.397 150.936,161.75 150.282,161.75 149.631,161.75 149.304,161.75 148.979,161.397    148.653,161.046 148,161.046 147.675,161.046 147.347,161.046 146.697,161.046 146.373,161.046 146.043,161.397 146.043,161.75    146.043,162.103 146.043,162.805 145.393,163.157 145.393,162.805 145.067,162.453 144.741,162.453 144.414,162.805    144.091,162.805 143.439,162.453 142.784,162.453 142.459,162.103 141.81,162.103 141.481,162.103 141.156,161.75 140.83,161.397    140.83,161.046 140.505,161.046 139.852,161.046 139.528,161.046 139.199,160.694 138.876,160.694 138.549,160.344    138.223,160.694 137.896,161.046 137.896,161.397 137.896,162.453 137.247,162.453 136.919,162.453 136.267,162.805    135.615,162.805 135.288,162.453 134.965,161.75 134.638,161.397 134.965,161.046 134.965,160.694 135.615,160.694    136.267,160.694 136.919,160.344 136.919,159.992 137.247,159.64 137.247,159.29 136.919,158.234 136.594,157.53 136.267,156.477    135.942,155.772 135.615,154.016 135.288,152.959 134.965,151.555 134.965,150.849 134.965,149.795 135.288,148.742    135.615,148.038 135.615,146.981 135.615,145.928 135.615,145.226 135.615,144.873 135.615,143.818 135.615,143.114    135.288,142.412 134.638,142.061 134.638,141.708 133.987,141.005 133.659,140.303 133.659,139.599 133.987,138.544    133.659,137.841 133.334,137.139   " id="upazila_233" area="upazlia" name="tangailsadar" bengali="টাঙ্গাইল" parent="tangail"></polygon><polygon points="176.684,124.832 177.009,124.832 177.335,124.832 177.988,124.832 178.639,124.832    179.289,124.482 179.616,124.128 179.943,123.777 180.268,123.777 180.92,124.128 181.246,124.128 181.572,124.128    181.572,124.482 181.572,124.832 182.224,125.184 182.224,124.832 182.224,124.482 182.875,124.128 183.2,124.128    183.853,123.777 184.506,123.777 185.156,123.777 185.81,123.777 186.135,124.128 186.785,124.128 187.114,124.128    187.765,124.482 188.09,124.128 188.417,123.777 188.742,123.425 189.394,123.073 190.046,123.073 190.699,123.073    191.025,123.073 192.003,123.073 192.654,122.722 192.98,122.722 193.307,122.722 193.632,123.073 193.632,123.425    193.957,123.425 194.609,123.777 194.936,123.777 195.261,124.128 195.912,124.482 196.24,124.482 197.216,124.482    197.869,124.482 198.52,124.832 198.847,124.832 199.172,124.832 199.498,124.832 199.498,125.184 199.498,125.536    199.172,126.589 198.52,129.403 198.195,130.106 197.869,130.81 197.541,131.863 197.216,132.917 197.216,133.974    197.216,135.027 197.216,135.38 197.541,136.083 197.869,136.436 198.52,136.785 198.847,136.785 199.172,136.785    199.498,138.192 200.151,138.896 200.151,139.599 200.476,140.303 200.802,141.004 200.802,141.357 200.802,141.708    200.802,142.412 201.127,143.114 201.454,143.466 202.105,143.466 202.758,143.818 203.408,143.818 203.737,143.818    204.062,143.818 204.387,144.169 204.712,144.521 205.038,144.521 205.691,144.871 206.017,145.226 206.017,145.576    206.017,145.928 206.017,146.279 206.017,146.981 206.342,147.688 206.017,148.038 205.691,148.39 205.366,149.092    205.038,149.092 205.038,149.445 205.038,150.148 205.038,151.202 205.038,151.555 204.712,151.905 204.712,152.256    204.062,152.607 203.408,152.959 202.758,152.959 202.105,153.312 201.78,153.663 201.78,154.016 201.78,154.367 201.454,154.367    201.127,154.367 201.127,154.716 200.802,155.422 200.151,155.772 199.823,156.125 199.498,156.125 199.498,156.828    199.498,157.53 199.498,157.883 199.172,157.883 198.847,158.234 198.52,158.234 198.195,158.937 197.869,158.937    197.869,158.585 198.195,158.585 198.195,158.234 197.869,158.234 197.869,157.53 197.869,156.828 197.869,156.474    197.869,156.125 197.541,156.474 196.891,156.828 196.566,156.474 195.261,155.772 194.936,155.772 195.261,155.422    195.261,155.068 195.261,154.716 195.261,154.367 195.587,154.716 195.912,154.716 196.24,154.016 195.912,154.016    195.587,153.663 194.936,153.312 194.609,153.663 194.283,153.663 193.957,153.663 193.632,153.312 193.307,153.663    192.98,153.663 193.307,154.016 193.307,154.367 193.307,154.716 192.98,154.716 192.654,155.068 192.003,155.068    191.676,155.068 190.699,155.068 190.372,155.422 189.721,155.422 189.394,155.422 188.742,155.422 188.09,155.422    187.765,155.772 187.114,156.125 186.785,156.474 186.135,156.828 185.81,156.828 185.156,156.474 184.831,156.474    184.506,156.828 183.853,156.828 183.2,157.18 182.875,156.828 182.55,157.18 182.224,157.53 182.224,157.883 181.246,158.937    181.246,158.234 180.92,157.53 180.593,157.18 180.268,157.18 179.943,157.18 179.616,157.18 179.616,156.828 180.268,156.474    180.593,156.474 180.593,156.125 180.268,156.125 179.943,156.125 179.943,155.772 179.616,155.772 179.289,155.422    179.289,155.068 179.289,154.716 178.964,154.716 178.964,154.367 178.964,154.016 178.639,154.016 178.313,154.016    177.988,154.367 177.66,154.716 177.66,154.367 177.66,153.663 177.988,153.663 177.988,153.312 178.313,152.959 178.639,152.959    178.639,152.607 178.313,152.256 178.313,151.905 178.313,151.555 178.639,151.202 178.964,151.555 179.289,151.905    179.616,151.905 179.616,151.555 179.289,151.202 178.964,150.849 179.289,150.499 178.964,150.499 178.964,150.148    178.964,149.795 179.289,149.445 179.289,149.092 179.289,148.741 178.964,148.038 178.639,148.038 178.313,148.39    177.988,148.39 177.66,148.39 177.335,148.038 177.009,148.038 176.684,148.038 176.031,148.038 175.705,147.688 175.705,147.335    175.705,146.981 176.031,146.981 176.357,146.981 176.357,147.335 177.009,147.335 177.335,146.981 177.335,146.632    177.335,146.279 177.009,146.279 176.684,146.632 176.684,146.279 177.009,145.928 177.335,145.226 177.335,144.871    177.009,144.871 176.684,144.521 176.684,143.818 176.357,143.818 176.031,143.818 175.705,143.818 175.38,144.169    175.055,144.521 174.727,144.521 174.727,144.169 175.055,143.818 174.727,143.466 174.727,143.114 174.402,143.114    174.076,143.466 173.751,143.818 173.424,143.818 173.424,143.466 173.751,143.114 174.076,142.762 173.098,142.061    174.076,141.708 174.076,141.357 174.076,140.653 174.727,140.303 175.38,139.599 175.38,139.247 175.38,138.544 175.055,138.192    174.727,138.192 174.402,137.841 174.076,137.49 173.751,137.136 173.424,137.136 173.098,136.785 173.424,136.785    173.098,136.436 173.098,136.083 173.751,135.731 173.424,135.731 173.424,135.38 173.751,135.027 174.076,135.027    174.727,135.027 175.055,135.027 175.38,134.678 175.38,134.324 175.38,133.974 175.705,133.623 176.031,133.623 176.357,133.623    177.009,133.623 177.66,133.623 178.313,133.269 178.639,132.917 178.639,132.567 178.639,132.216 178.639,131.863    177.988,131.513 177.66,131.16 177.009,130.81 176.684,130.458 176.357,130.106 176.357,129.403 176.684,129.051 177.009,128.349    177.335,127.994 177.009,127.994 177.009,127.646 177.66,126.589 177.988,126.237 177.988,125.886 177.988,125.536    177.335,125.536 177.009,125.536   " id="upazila_232" area="upazlia" name="sakhipur" bengali="সখিপুর" parent="tangail"></polygon></svg>