<svg enable-background="new -106.403 -201.859 629.266 880.536" height="880.536px" id="district_41" viewBox="-106.403 -201.859 629.266 880.536" width="629.266px" x="0px" xml:space="preserve" xmlns="http://www.w3.org/2000/svg" y="0px"><polygon points="430.588,268.287 430.908,267.932 431.238,267.932 431.563,267.932 431.891,267.932    432.217,267.932 432.54,267.932 432.217,267.231 432.217,266.877 432.217,266.526 432.217,266.176 432.54,266.176 432.54,265.824    432.217,265.824 431.891,265.474 431.891,265.12 432.217,265.12 432.217,264.77 432.217,264.419 431.891,264.067 431.563,264.067    431.563,263.713 431.563,263.36 431.563,263.012 431.238,263.012 430.588,262.661 430.588,262.308 430.588,261.956    430.588,261.255 430.588,260.901 430.908,261.255 431.238,260.901 431.238,261.255 431.238,260.901 431.563,260.901    431.238,260.547 431.238,260.197 431.238,259.848 430.908,259.144 430.588,258.793 430.588,258.088 430.908,257.737    430.908,257.033 430.908,256.686 430.908,256.332 431.238,255.626 430.908,254.925 430.588,254.221 430.588,253.869    430.588,253.519 430.588,253.167 430.26,252.817 430.26,252.467 430.26,252.111 430.26,251.758 430.26,251.407 430.588,251.407    430.588,250.706 430.588,250.003 430.26,249.299 429.931,247.893 429.609,247.191 429.282,247.191 429.282,246.837    428.957,246.837 428.957,246.135 428.957,245.782 429.282,245.431 429.609,244.727 429.609,244.024 429.282,243.674    428.957,243.323 428.957,242.969 428.957,242.619 428.957,241.917 428.957,241.211 428.631,240.51 427.977,240.157    427.977,239.805 427.977,239.454 428.302,239.102 428.957,238.751 428.957,238.4 429.282,238.4 429.609,237.695 429.931,237.343    430.26,236.994 430.26,236.641 430.26,236.29 430.26,235.587 430.588,235.235 430.588,234.534 430.26,234.179 430.26,233.828    430.26,233.477 430.908,232.774 431.238,232.069 431.563,232.069 431.891,232.069 432.54,232.069 433.192,232.069    433.845,232.069 434.171,232.421 434.171,232.774 434.823,233.828 434.823,234.534 435.474,235.587 435.474,236.29    435.797,236.994 435.797,237.695 436.123,238.751 436.451,239.454 436.778,240.157 437.103,240.51 437.431,240.51    437.757,240.859 437.757,241.211 437.757,241.563 438.408,241.563 438.732,241.563 439.057,241.211 439.714,241.211    440.037,241.211 440.689,241.917 441.017,242.267 441.345,242.619 442.318,242.969 442.971,243.323 443.297,243.323    443.948,243.674 444.6,243.674 444.926,243.674 445.251,243.674 445.58,243.674 445.906,243.323 446.229,242.969 445.906,244.727    445.906,245.431 446.229,246.135 446.554,247.191 446.885,248.243 447.211,249.653 447.858,251.06 448.186,252.111    448.511,253.519 448.84,254.925 449.163,255.98 449.818,257.387 450.143,258.088 450.469,259.144 450.789,259.848    450.789,260.547 450.789,261.255 450.789,261.606 450.789,261.956 451.117,262.661 451.444,263.713 451.772,265.12    452.097,265.824 452.746,267.582 452.746,268.992 453.074,270.043 453.401,270.746 453.401,272.156 453.401,272.857    453.401,273.558 453.401,273.912 453.401,274.614 453.074,275.319 452.746,275.673 452.097,276.371 451.772,276.722    451.772,277.076 451.117,277.427 450.469,277.777 450.143,278.132 449.49,278.482 449.163,278.836 448.84,279.184    448.186,279.534 447.858,279.886 447.531,280.24 447.211,280.24 446.885,280.593 446.229,281.295 445.906,281.645 445.58,281.295    444.926,281.999 444.278,281.999 443.948,282.347 443.62,282.698 443.297,283.052 442.971,283.052 442.646,283.403    442.646,283.756 442.646,284.108 442.971,284.108 443.297,284.461 443.948,284.812 444.278,285.163 444.926,285.514    445.251,285.514 445.58,285.864 445.906,286.216 446.554,286.566 446.885,286.566 446.885,286.92 447.531,287.271    447.858,287.625 448.186,287.977 448.84,288.331 449.49,288.331 449.818,288.681 450.143,289.028 450.789,289.378    451.117,289.378 451.444,289.732 451.772,290.084 452.097,290.438 451.772,291.14 451.772,291.49 452.097,292.195    452.097,292.896 452.097,294.303 452.097,294.654 452.097,295.709 452.097,296.765 452.097,297.469 452.097,297.82    452.097,298.175 452.097,298.522 452.097,299.227 452.097,299.577 452.097,300.282 452.097,301.686 452.097,302.04    452.097,303.095 452.423,303.445 452.423,303.797 452.423,304.151 452.423,304.852 452.746,305.203 452.746,305.553    452.746,306.259 452.746,306.612 453.074,306.612 453.074,307.313 453.401,308.016 453.726,308.367 454.38,309.776    454.703,310.127 455.031,310.478 455.358,310.829 455.358,311.179 455.683,311.533 455.358,311.885 455.358,312.235    455.358,312.585 455.683,312.939 455.683,313.29 456.009,313.642 456.337,313.996 456.657,314.697 456.984,315.753    457.309,316.103 457.309,316.808 457.966,317.507 457.966,317.861 458.289,318.214 458.289,318.565 457.966,318.916    457.309,319.62 456.984,319.62 456.657,319.62 456.337,319.62 456.009,319.62 455.683,319.62 455.683,319.972 455.031,319.972    454.38,319.972 454.052,319.972 454.052,319.62 453.726,319.62 453.401,319.62 452.746,319.62 452.423,319.62 452.097,319.972    451.444,320.322 451.117,320.676 450.789,321.023 450.469,321.023 450.143,321.377 449.49,321.377 448.84,321.729    448.511,321.729 448.186,321.729 447.858,322.08 447.211,322.08 446.885,321.729 446.229,321.729 445.906,322.08 445.58,322.08    445.58,322.784 444.926,322.08 444.6,322.08 444.6,321.729 444.6,321.377 443.948,320.676 443.948,320.322 443.62,319.62    443.297,318.916 442.971,318.214 442.646,317.861 442.318,317.507 442.318,317.159 441.991,316.457 441.663,316.103    441.663,315.753 441.345,315.047 441.017,314.346 441.017,313.642 440.689,313.29 440.689,312.585 440.364,312.235    440.037,311.533 439.714,310.478 439.385,310.127 439.057,309.421 438.732,309.071 438.732,308.717 438.732,308.367    438.732,308.016 438.408,307.665 438.085,307.313 438.085,306.963 438.085,306.612 437.757,306.259 437.757,305.905    437.757,305.553 437.431,305.203 437.431,304.852 437.103,304.501 437.103,304.151 437.103,303.797 437.103,303.445    437.103,303.095 436.778,302.741 436.778,302.04 436.778,301.686 436.778,301.338 436.451,300.633 436.451,300.282    436.123,299.932 436.123,299.577 435.797,298.873 435.797,298.522 435.797,297.82 435.797,297.469 435.474,296.414    435.474,295.709 435.474,295.358 435.474,295.011 435.474,294.303 435.474,293.601 435.152,292.896 435.152,292.195    434.823,291.14 434.494,290.084 434.494,288.681 433.845,287.625 433.845,286.92 433.845,286.566 433.845,285.864    433.845,285.163 433.845,284.461 433.52,283.403 433.845,282.698 433.845,281.295 433.52,280.593 433.192,280.24 432.864,279.886    432.54,279.534 432.54,278.836 432.54,278.482 432.54,278.132 432.217,278.132 432.54,277.427 432.54,276.722 432.217,276.021    432.217,275.673 432.217,275.319 431.891,274.614 431.891,273.912 431.563,273.208 431.563,272.156 431.563,271.45    431.238,270.396 430.908,269.689 430.908,269.342   " id="upazila_92" area="upazlia" name="dighinala" bengali="দিঘীনালা" parent="khagrachhari"></polygon><polygon points="430.588,268.287 430.908,269.342 430.908,269.689 431.238,270.396 431.563,271.45    431.563,272.156 431.563,273.208 431.891,273.912 431.891,274.614 432.217,275.319 432.217,275.673 432.217,276.021    432.54,276.722 432.54,277.427 432.217,278.132 432.54,278.132 432.54,278.482 432.54,278.836 432.54,279.534 432.864,279.886    433.192,280.24 433.52,280.593 433.845,281.295 433.845,282.698 433.52,283.403 433.845,284.461 433.845,285.163 433.845,285.864    433.845,286.566 433.845,286.92 433.845,287.625 434.494,288.681 434.494,290.084 434.823,291.14 435.152,292.195    435.152,292.896 435.474,293.601 435.474,294.303 435.474,295.011 435.474,295.358 435.474,295.709 435.474,296.414    434.823,297.116 434.494,297.469 434.171,297.82 434.171,298.175 433.52,298.522 432.864,298.873 432.54,299.577 431.891,299.932    431.563,300.633 431.238,300.633 430.908,300.984 430.588,300.984 429.609,301.686 429.282,301.686 428.631,301.686    427.977,301.686 427.323,301.686 426.997,302.04 426.677,302.04 426.348,302.741 425.698,303.445 425.698,303.797    425.368,304.151 425.045,304.501 424.719,304.852 424.719,305.203 425.045,305.553 425.045,305.905 424.719,306.259    424.394,306.612 424.066,306.612 424.066,306.963 423.74,307.313 423.414,307.665 423.091,307.665 423.091,308.016    422.762,308.016 422.437,308.367 422.109,308.717 422.437,309.071 422.437,310.127 421.782,310.478 420.808,310.478    420.483,310.478 420.156,310.127 419.831,309.776 419.177,309.776 418.851,309.421 418.526,309.421 418.199,309.071    417.871,308.717 417.548,308.367 416.9,308.367 416.569,308.016 416.242,308.016 415.919,308.367 415.594,308.717    415.265,309.071 414.943,309.421 414.943,309.776 414.943,310.127 414.943,310.478 414.943,310.829 414.615,311.179    414.288,311.179 413.965,311.179 413.636,310.829 413.311,310.829 412.983,310.829 412.331,311.179 412.008,311.533    411.354,311.885 411.031,312.235 411.031,311.885 411.031,310.829 411.031,310.478 410.702,309.776 410.051,309.421    409.725,309.421 409.4,309.071 409.725,308.717 409.725,308.367 409.725,308.016 409.725,307.665 409.4,307.665 409.073,307.313    408.748,306.963 408.422,306.612 408.422,306.259 408.748,306.259 409.073,305.905 408.748,305.905 408.748,305.553    408.422,305.203 408.748,304.852 408.748,304.501 408.748,304.151 408.422,303.797 408.422,303.445 408.096,303.445    408.096,303.095 408.096,302.39 408.096,302.04 407.771,301.686 407.446,301.686 407.115,301.686 407.115,301.338    407.446,300.633 407.115,300.633 407.115,300.282 406.788,299.932 406.468,299.577 406.142,299.227 406.142,298.873    406.142,298.522 406.142,298.175 405.814,297.82 405.814,297.469 405.489,297.469 405.162,297.116 404.839,296.765    404.51,296.414 404.182,296.061 404.182,295.709 403.857,295.709 404.182,295.358 403.857,295.011 403.857,294.303    403.857,293.953 404.182,293.601 404.182,293.248 404.182,292.896 404.51,292.546 404.51,292.195 404.839,291.847 405.162,291.49    405.489,291.14 406.142,290.789 406.468,290.789 406.788,290.789 406.788,290.438 407.115,290.438 407.115,290.084    407.771,289.378 408.096,289.378 408.422,289.378 408.422,289.028 408.422,288.681 408.422,288.331 408.748,287.977    409.4,288.331 409.725,288.331 410.051,287.625 410.379,287.271 410.702,286.566 411.031,286.216 411.354,285.514    411.682,285.514 412.008,285.514 412.331,285.514 412.656,285.163 412.983,285.163 412.983,284.461 413.311,284.108    413.636,284.108 413.965,283.756 414.288,283.403 414.615,283.403 414.943,283.052 414.943,282.347 414.615,281.645    414.615,281.295 414.615,280.944 415.265,280.593 415.265,280.24 415.265,279.886 415.265,279.534 415.265,279.184    415.919,278.836 416.242,278.482 416.569,278.482 416.9,278.482 417.222,278.482 417.548,278.482 417.871,278.132    418.851,277.427 419.177,277.076 419.505,277.076 419.505,276.722 419.831,276.371 420.156,276.371 420.808,275.673    421.134,275.319 421.457,274.614 421.457,274.264 421.782,274.264 422.109,274.264 422.109,274.614 422.437,274.614    422.762,273.912 422.762,273.558 423.414,273.558 423.74,273.912 424.066,273.912 424.394,273.912 425.045,273.912    425.368,273.558 425.698,273.912 426.023,273.912 426.348,274.264 426.997,274.264 427.323,273.912 427.323,274.264    427.977,274.614 427.977,274.264 428.302,274.264 428.631,273.912 428.631,273.558 428.631,273.208 428.631,272.857    428.302,272.506 428.302,272.156 428.302,271.801 427.977,271.45 427.977,271.096 427.977,270.746 427.977,270.396    427.977,269.689 428.302,269.689 428.957,269.689 429.282,269.689 429.282,269.342 429.609,269.342 429.931,268.992    429.931,268.638   " id="upazila_98" area="upazlia" name="panchari" bengali="পানছড়ি" parent="khagrachhari"></polygon><polygon points="422.437,310.127 422.437,309.068 422.109,308.717 422.437,308.367 422.765,308.016    423.091,308.016 423.091,307.665 423.414,307.665 423.74,307.313 424.066,306.963 424.066,306.612 424.394,306.612    424.719,306.259 425.045,305.905 425.045,305.553 424.719,305.203 424.719,304.852 425.045,304.501 425.368,304.148    425.698,303.797 425.698,303.445 426.348,302.741 426.674,302.04 426.997,302.04 427.325,301.688 427.977,301.688    428.631,301.688 429.282,301.688 429.609,301.688 430.588,300.984 430.908,300.984 431.235,300.633 431.563,300.633    431.891,299.932 432.54,299.577 432.864,298.873 433.52,298.522 434.171,298.175 434.171,297.82 434.494,297.466 434.823,297.116    435.474,296.414 435.797,297.466 435.797,297.82 435.797,298.522 435.797,298.873 436.123,299.577 436.123,299.932    436.451,300.279 436.451,300.633 436.778,301.338 436.778,301.688 436.778,302.04 436.778,302.741 437.103,303.095    437.103,303.445 437.103,303.797 437.103,304.148 437.103,304.501 437.431,304.852 437.431,305.203 437.76,305.553    437.76,305.905 437.76,306.259 438.085,306.612 438.085,306.963 438.085,307.313 438.406,307.665 438.732,308.016    438.732,308.367 438.732,308.717 438.732,309.068 439.057,309.421 439.385,310.127 439.714,310.478 440.037,311.533    440.364,312.235 440.692,312.589 440.692,313.29 441.017,313.642 441.017,314.346 441.345,315.047 441.663,315.75    441.663,316.103 441.99,316.457 442.321,317.159 442.321,317.509 442.646,317.861 442.971,318.211 443.297,318.916 443.62,319.62    443.948,320.322 443.948,320.676 444.6,321.377 444.6,321.729 444.6,322.08 444.926,322.08 445.577,322.787 445.577,323.134    445.906,323.485 445.906,323.84 446.229,324.19 446.229,324.892 445.906,325.242 445.577,325.242 445.251,325.242    444.926,325.242 444.278,325.598 443.62,325.598 443.297,325.598 442.971,325.598 442.321,325.951 441.99,326.302    441.663,326.652 441.345,327.003 440.692,327.003 440.364,327.354 439.385,328.056 439.057,328.76 438.732,328.76    438.085,329.114 437.76,329.465 437.431,329.816 437.103,329.816 436.778,330.167 436.123,330.167 435.152,330.518    434.823,330.868 434.494,330.868 433.845,330.868 433.195,331.222 431.563,331.924 431.235,330.868 431.235,330.518    430.908,330.167 430.908,329.816 430.588,329.465 430.26,328.056 430.26,327.708 429.931,327.003 429.609,325.951    429.282,324.892 429.282,324.19 429.282,323.134 429.282,322.08 429.282,321.023 429.282,319.972 429.282,318.916    428.954,318.565 427.977,317.861 427.652,317.159 427.325,316.457 426.997,315.75 426.348,315.047 425.698,314.697    425.368,314.346 425.045,313.996 424.719,313.996 424.394,313.996 424.066,313.642 424.066,313.29 423.74,312.939 423.74,312.589    423.414,311.881 423.414,311.533 423.091,310.832 422.765,310.478   " id="upazila_93" area="upazlia" name="sadar" bengali="খাগড়াছড়ি-সদর" parent="khagrachhari"></polygon><polygon points="411.029,312.235 411.354,311.885 412.01,311.533 412.331,311.179 412.986,310.829    413.311,310.829 413.636,310.829 413.962,311.179 414.288,311.179 414.615,311.179 414.943,310.829 414.943,310.478    414.943,310.127 414.943,309.776 414.943,309.421 415.265,309.071 415.594,308.717 415.919,308.367 416.242,308.016    416.572,308.016 416.897,308.367 417.548,308.367 417.876,308.717 418.199,309.071 418.526,309.421 418.851,309.421    419.177,309.776 419.828,309.776 420.156,310.127 420.483,310.478 420.808,310.478 421.782,310.478 422.437,310.127    422.765,310.478 423.091,310.829 423.414,311.533 423.414,311.885 423.74,312.585 423.74,312.939 424.066,313.29 424.066,313.642    424.391,313.996 424.717,313.996 425.045,313.996 425.368,314.346 425.698,314.697 426.348,315.047 426.997,315.753    427.325,316.457 427.652,317.159 427.977,317.861 428.954,318.565 429.281,318.916 429.281,319.972 429.281,321.023    429.281,322.08 429.281,323.134 429.281,324.188 429.281,324.892 429.609,325.948 429.931,327.003 430.26,327.708 430.26,328.056    430.585,329.465 429.281,329.816 428.954,329.816 428.302,329.816 427.652,330.17 427.325,330.17 426.677,330.17 426.348,330.518    425.698,330.518 425.368,330.518 424.717,330.518 424.391,330.518 423.74,330.17 423.414,329.816 422.765,329.465    422.109,329.111 422.109,328.76 421.782,328.76 421.457,328.41 420.808,328.056 420.483,328.056 420.156,328.056 419.828,328.056    419.177,328.41 418.851,328.76 418.526,328.76 418.199,329.465 417.876,329.816 417.548,329.816 417.222,330.17 416.897,330.17    416.897,330.518 416.897,330.868 416.897,331.222 416.897,331.574 416.897,331.924 416.897,332.275 416.572,332.632    416.242,333.333 415.919,333.333 415.594,333.682 414.615,334.389 414.615,334.737 414.288,334.737 413.636,335.09    412.986,335.442 412.331,335.442 412.01,335.442 411.682,335.793 411.354,336.146 410.702,336.146 410.379,336.146    409.725,336.146 409.073,335.793 408.748,335.442 408.422,334.737 408.422,334.389 408.422,334.032 408.748,333.682    408.748,333.333 408.422,332.632 408.094,332.632 407.771,332.275 407.116,332.275 406.465,331.924 405.489,331.222    406.142,330.518 406.465,330.17 406.465,329.816 406.465,329.465 406.791,329.111 406.791,329.465 406.791,329.816    406.791,330.518 407.446,331.222 407.771,330.868 408.094,330.868 408.094,330.17 408.094,329.816 408.422,329.465    408.422,329.111 408.422,328.76 408.094,328.41 408.094,328.056 407.771,327.354 407.446,327.003 407.771,327.003    407.771,326.652 407.446,326.302 407.116,325.948 407.116,325.598 407.446,325.242 407.771,325.242 408.094,325.242    408.422,325.242 408.748,325.242 408.748,325.598 409.073,325.242 409.4,325.242 409.725,325.598 409.4,325.948 409.4,326.302    410.051,326.302 410.702,325.948 411.029,325.598 411.354,325.242 411.682,325.598 412.01,325.598 412.01,324.892    412.331,324.892 412.656,324.892 412.986,324.188 412.656,323.84 412.331,323.84 412.656,323.488 412.656,323.134    412.986,323.488 413.311,323.488 413.311,323.134 413.636,322.787 413.636,322.43 413.962,322.08 414.288,321.729    414.288,321.377 413.962,321.377 413.636,321.023 413.311,320.673 412.986,321.023 412.656,321.023 412.331,321.023    412.331,320.673 412.331,320.322 412.656,319.972 412.331,319.266 412.331,318.916 412.331,318.565 412.01,318.565    411.682,318.214 411.682,317.861 412.01,317.507 412.01,316.808 412.01,316.457 412.01,316.103 412.01,315.753 411.682,315.753    411.682,316.103 411.354,316.457 411.354,316.103 411.029,315.398 411.354,315.398 411.354,315.047 411.682,314.697    411.354,314.346 411.354,313.996 411.354,313.642 411.029,313.642 411.029,312.939   " id="upazila_97" area="upazlia" name="matiranga" bengali="মাটিরাঙ্গা" parent="khagrachhari"></polygon><polygon points="430.588,329.465 430.908,329.816 430.908,330.167 431.238,330.518 431.238,330.868    431.563,331.924 431.891,332.982 431.891,333.682 432.217,334.035 432.217,334.389 432.54,335.087 432.54,335.442    432.864,336.146 432.864,336.497 433.192,336.844 433.52,337.553 433.52,337.904 433.52,338.254 433.845,338.605 434.171,339.312    434.494,339.661 434.494,340.008 434.494,340.365 434.494,341.066 434.494,341.418 434.823,341.769 434.823,342.477    434.823,342.824 435.152,343.174 434.823,343.879 434.494,344.233 434.171,344.581 434.171,344.935 433.845,345.285    433.52,345.641 433.192,346.338 433.192,346.689 432.864,347.397 432.54,348.099 431.891,348.099 430.588,348.099 430.26,348.099    429.609,348.449 429.282,348.099 428.957,348.449 428.631,348.449 427.977,348.449 427.652,348.099 427.323,348.099    426.677,348.099 426.348,348.449 425.698,348.449 425.045,348.803 424.394,348.803 423.74,349.154 423.091,349.154    422.762,349.505 422.437,349.856 421.782,349.856 421.457,349.505 421.134,349.154 420.808,349.154 420.483,349.154    419.831,349.505 419.505,349.154 419.177,349.154 418.851,349.154 418.526,348.803 418.199,348.449 418.199,348.099    417.871,347.749 417.222,347.749 416.9,347.397 416.242,347.397 415.919,347.042 415.919,346.689 415.594,346.338    415.594,345.991 415.594,345.641 414.943,345.285 414.288,344.935 413.965,344.935 413.636,344.935 413.311,345.285    412.983,345.285 412.656,345.641 412.008,345.641 411.354,344.935 411.031,344.935 410.702,345.285 410.379,345.285    409.725,345.641 409.4,345.991 409.073,346.338 408.748,346.338 408.096,346.338 407.771,346.689 407.771,347.042    407.446,347.042 407.115,347.397 407.115,347.749 406.788,348.099 406.468,348.449 406.142,348.803 406.142,349.154    405.814,349.154 405.489,349.154 405.162,349.505 405.162,349.154 404.839,349.154 404.182,349.154 403.857,349.154    403.533,349.154 403.533,349.505 403.21,349.505 403.21,349.856 402.882,350.207 402.556,350.561 401.576,351.613    400.602,351.263 400.277,351.263 400.277,350.561 400.277,350.207 400.277,349.856 400.277,349.505 400.602,349.154    400.602,348.803 400.925,348.449 400.277,348.099 399.948,347.749 399.948,347.397 399.948,347.042 400.277,346.689    400.602,346.338 400.602,345.641 400.602,344.935 400.602,344.581 400.925,344.233 400.925,343.879 400.925,343.526    400.925,343.174 400.925,342.824 400.602,342.824 400.277,342.477 400.277,341.769 400.277,341.066 400.277,340.716    399.948,340.008 399.948,339.312 399.619,338.605 399.296,337.904 398.97,337.553 398.97,336.497 399.296,336.497    399.619,336.497 399.948,336.146 399.948,335.796 399.948,335.442 400.925,334.737 401.576,334.389 401.906,334.389    402.556,334.389 403.21,333.682 403.857,332.982 404.182,332.278 404.51,331.924 405.489,331.222 406.468,331.924    407.115,332.278 407.771,332.278 408.096,332.629 408.422,332.629 408.748,333.333 408.748,333.682 408.422,334.035    408.422,334.389 408.422,334.737 408.748,335.442 409.073,335.796 409.725,336.146 410.379,336.146 410.702,336.146    411.354,336.146 411.682,335.796 412.008,335.442 412.331,335.442 412.983,335.442 413.636,335.087 414.288,334.737    414.615,334.737 414.615,334.389 415.594,333.682 415.919,333.333 416.242,333.333 416.569,332.629 416.9,332.278 416.9,331.924    416.9,331.574 416.9,331.222 416.9,330.868 416.9,330.518 416.9,330.167 417.222,330.167 417.548,329.816 417.871,329.816    418.199,329.465 418.526,328.76 418.851,328.76 419.177,328.406 419.831,328.056 420.156,328.056 420.483,328.056    420.808,328.056 421.457,328.406 421.782,328.76 422.109,328.76 422.109,329.114 422.762,329.465 423.414,329.816 423.74,330.167    424.394,330.518 424.719,330.518 425.368,330.518 425.698,330.518 426.348,330.518 426.677,330.167 427.323,330.167    427.652,330.167 428.302,329.816 428.957,329.816 429.282,329.816   " id="upazila_99" area="upazlia" name="ramgarh" bengali="রামগড়" parent="khagrachhari"></polygon><polygon points="401.576,351.613 402.556,350.561 402.882,350.207 403.205,349.856 403.205,349.502    403.533,349.502 403.533,349.154 403.857,349.154 404.182,349.154 404.839,349.154 405.162,349.154 405.162,349.502    405.489,349.154 405.814,349.154 406.142,349.154 406.142,348.803 406.468,348.449 406.788,348.099 407.116,347.749    407.116,347.397 407.446,347.042 407.771,347.042 407.771,346.689 408.096,346.338 408.748,346.338 409.073,346.338    409.4,345.991 409.725,345.641 410.379,345.285 410.702,345.285 411.031,344.935 411.354,344.935 412.01,345.641 412.656,345.641    412.983,345.285 413.311,345.285 413.636,344.935 413.965,344.935 414.288,344.935 414.943,345.285 415.594,345.641    415.594,345.991 415.594,346.338 415.919,346.689 415.919,347.042 416.242,347.397 416.9,347.397 417.222,347.749    417.871,347.749 418.199,348.099 418.199,348.449 418.526,348.803 418.851,349.154 419.177,349.154 419.505,349.154    419.828,349.502 420.483,349.154 420.808,349.154 421.134,349.154 421.462,349.502 421.134,350.207 420.483,350.911    420.156,351.263 419.828,351.613 419.505,352.321 419.505,352.672 419.177,353.019 418.851,353.371 418.851,353.728    418.526,354.078 418.199,354.426 418.199,354.776 418.526,355.485 418.526,356.183 418.851,356.887 418.851,357.241    418.851,357.593 418.526,357.943 418.526,358.297 418.199,358.998 418.199,359.35 417.871,359.7 417.548,359.7 417.548,360.054    417.222,360.405 417.222,361.106 416.9,361.106 417.222,361.461 417.222,362.166 417.222,362.863 416.9,363.218 416.9,363.923    416.9,364.273 416.569,364.273 415.919,365.33 415.594,365.33 415.594,364.975 415.265,364.624 414.943,364.624 414.943,364.273    414.615,364.624 414.288,364.975 413.965,364.975 413.965,365.33 413.636,364.975 413.636,364.624 413.636,363.923    413.965,363.569 413.965,363.218 413.311,363.218 412.983,363.218 412.331,362.863 412.01,362.863 411.682,362.863    411.354,362.863 411.031,362.863 410.702,363.218 410.379,363.569 410.379,363.923 410.051,364.273 409.725,364.624    409.4,364.975 409.4,365.33 409.4,366.027 409.073,366.027 408.748,366.027 408.748,365.677 408.422,364.975 408.422,364.624    408.096,363.923 407.771,363.569 407.446,363.218 407.116,363.218 406.788,362.863 406.788,362.513 406.468,362.166    406.468,361.461 406.468,361.106 406.142,360.755 405.814,360.405 405.814,359.7 405.489,359.35 405.489,358.998 405.162,358.648    405.489,357.943 405.489,357.593 405.489,357.241 405.162,357.241 405.162,356.887 404.839,356.887 404.839,356.537    404.51,356.183 404.51,355.485 404.182,355.133 404.51,354.776 404.51,354.426 404.51,354.078 404.51,353.728 404.182,353.728    403.857,353.019 403.533,352.672 403.205,352.672 403.205,352.321 403.205,351.967 402.882,351.967 402.556,352.321    402.228,352.321 402.228,351.967   " id="upazila_96" area="upazlia" name="manikchari" bengali="মানিকছড়ি" parent="khagrachhari"></polygon><polygon points="421.457,349.505 421.782,349.856 422.437,349.856 422.765,349.505 423.091,349.157    423.742,349.157 424.391,348.8 425.045,348.8 425.698,348.449 426.348,348.449 426.677,348.099 427.325,348.099 427.652,348.099    427.977,348.449 428.631,348.449 428.954,348.449 429.281,348.099 429.609,348.449 430.26,348.099 430.588,348.099    431.891,348.099 432.54,348.099 432.865,349.505 433.195,350.207 433.52,350.911 433.845,351.967 433.845,352.672    433.845,353.724 433.52,354.78 433.195,356.537 433.195,357.241 432.865,357.593 432.865,358.297 432.865,359.35 432.865,360.051    432.865,360.759 433.195,361.461 433.845,362.513 434.171,363.218 434.494,363.569 434.823,364.624 435.149,365.33    435.474,366.031 435.8,366.381 436.123,367.089 436.123,367.788 436.123,368.142 435.8,368.142 435.474,368.496 435.474,368.843    435.149,368.843 435.474,369.899 434.823,370.6 434.494,370.6 433.845,370.954 433.52,371.306 433.195,371.306 432.54,371.306    431.563,371.306 431.238,371.306 430.908,371.306 430.588,372.007 430.588,372.711 430.588,373.414 430.588,373.767    430.588,374.819 430.26,374.819 429.931,374.819 429.281,375.171 428.954,375.171 428.631,375.171 427.977,375.171    427.325,375.525 426.997,375.525 426.677,375.875 426.677,376.576 426.348,376.576 425.698,375.875 425.368,376.226    425.045,376.576 424.719,376.576 424.391,376.226 424.066,376.226 423.742,376.226 423.742,376.576 423.414,376.933    422.765,376.933 422.112,376.576 421.457,376.576 421.134,376.226 420.808,375.875 420.48,375.171 420.48,374.469    420.156,374.118 420.156,373.414 420.156,373.062 420.156,372.711 420.156,372.007 420.48,371.656 420.48,371.306 420.808,370.6    421.134,369.899 421.457,369.545 421.782,369.195 421.457,369.195 420.808,369.195 420.48,368.843 420.156,368.496    420.48,368.142 420.808,368.142 421.134,368.142 421.457,368.142 421.134,367.788 421.134,367.438 420.808,367.089    420.808,366.731 420.48,366.731 420.156,366.731 419.831,366.381 419.505,366.381 419.177,366.381 418.851,366.731    418.526,366.731 418.526,367.089 418.199,367.438 417.876,367.438 417.551,367.788 417.222,367.788 416.897,367.788    416.572,367.788 416.572,367.438 416.897,367.089 417.222,366.731 417.222,366.381 417.222,366.031 417.551,365.33    417.551,364.975 417.222,364.975 416.897,365.33 416.572,365.68 416.242,365.68 415.914,365.68 415.914,365.33 416.572,364.273    416.897,364.273 416.897,363.923 416.897,363.218 417.222,362.863 417.222,362.166 417.222,361.461 416.897,361.109    417.222,361.109 417.222,360.405 417.551,360.051 417.551,359.7 417.876,359.7 418.199,359.35 418.199,358.998 418.526,358.297    418.526,357.943 418.851,357.593 418.851,357.241 418.851,356.887 418.526,356.183 418.526,355.485 418.199,354.78    418.199,354.429 418.526,354.078 418.851,353.724 418.851,353.371 419.177,353.019 419.505,352.672 419.505,352.321    419.831,351.617 420.156,351.263 420.48,350.911 421.134,350.207   " id="upazila_94" area="upazlia" name="laxmichhari" bengali="লক্ষীছড়ি" parent="khagrachhari"></polygon><polygon points="431.563,331.924 433.192,331.222 433.845,330.868 434.494,330.868 434.823,330.868    435.149,330.518 436.123,330.17 436.778,330.17 437.103,329.816 437.431,329.816 437.757,329.465 438.08,329.114 438.732,328.76    439.057,328.76 439.385,328.056 440.364,327.354 440.692,327.003 441.345,327.003 441.666,326.652 441.991,326.302    442.318,325.951 442.971,325.598 443.297,325.598 443.62,325.598 444.278,325.598 444.926,325.242 445.254,325.242    445.577,325.242 445.906,325.242 446.229,324.892 446.885,326.302 447.211,327.003 447.858,328.056 448.186,329.114    448.511,329.465 448.511,329.816 448.511,330.17 448.837,330.868 448.837,331.222 448.837,331.924 448.837,332.275    449.163,332.632 449.49,333.333 449.818,333.682 450.143,334.389 450.469,335.087 450.469,335.796 450.469,336.146    450.469,337.195 449.818,337.904 449.163,338.605 448.837,338.959 448.186,339.312 447.858,339.312 447.211,340.008    446.557,340.008 445.906,340.362 445.577,340.716 445.254,341.066 444.6,341.418 444.278,341.772 444.278,342.123    443.948,342.824 443.62,343.526 443.62,344.233 443.62,344.581 443.297,344.935 443.297,345.285 442.971,345.641 442.643,345.991    442.318,346.692 441.991,346.692 441.991,347.042 441.666,347.397 441.017,347.749 440.364,347.749 439.711,347.749    439.385,347.749 439.057,347.749 438.732,347.749 438.408,348.099 438.08,348.099 437.757,347.749 437.431,347.397    437.103,347.397 436.778,347.397 436.123,347.397 435.8,347.749 435.149,347.749 434.171,348.099 432.54,348.099 432.864,347.397    433.192,346.692 433.192,346.338 433.52,345.641 433.845,345.285 434.171,344.935 434.171,344.581 434.494,344.233    434.823,343.879 435.149,343.174 434.823,342.824 434.823,342.477 434.823,341.772 434.494,341.418 434.494,341.066    434.494,340.362 434.494,340.008 434.494,339.661 434.171,339.312 433.845,338.605 433.52,338.254 433.52,337.904 433.52,337.553    433.192,336.844 432.864,336.497 432.864,336.146 432.54,335.442 432.54,335.087 432.217,334.389 432.217,334.035    431.891,333.682 431.891,332.982   " id="upazila_95" area="upazlia" name="mohalchari" bengali="মহালছড়ি" parent="khagrachhari"></polygon></svg>