<svg enable-background="new -106.403 -201.859 629.266 880.536" height="880.536px" id="district_41" viewBox="-106.403 -201.859 629.266 880.536" width="629.266px" x="0px" xml:space="preserve" xmlns="http://www.w3.org/2000/svg" y="0px"><polygon points="21.212,270.746 21.865,271.45 22.191,272.156 22.191,272.506 22.516,272.506 22.516,272.857    22.843,273.208 23.494,273.208 23.822,273.208 23.822,272.857 24.147,273.208 24.472,273.558 24.797,273.558 25.776,273.558    26.429,273.558 27.079,273.208 27.731,273.208 28.058,273.208 28.383,273.208 28.709,273.208 28.709,273.558 28.383,274.264    28.058,274.965 27.731,275.319 27.731,276.021 28.383,276.371 28.383,276.722 29.034,276.722 29.362,276.021 30.013,275.319    30.013,274.614 30.013,274.264 29.688,273.912 30.013,272.506 30.338,272.506 30.663,272.506 30.991,272.857 30.991,273.912    30.991,274.264 31.317,274.614 31.642,274.614 31.642,274.965 31.317,275.319 31.317,275.673 31.642,276.021 32.294,276.371    32.622,276.722 32.946,277.427 31.967,277.777 32.294,278.132 32.622,278.482 33.273,279.184 33.598,279.534 34.249,279.534    34.576,279.886 34.576,280.24 33.926,280.24 33.598,280.593 32.946,280.593 32.294,280.944 32.294,281.295 32.294,281.645    31.967,282.002 31.317,282.002 30.991,282.002 30.663,281.645 30.013,281.645 29.362,281.645 28.709,282.002 28.058,282.002    27.406,281.645 27.079,282.002 26.101,283.052 25.776,283.403 25.45,283.756 25.125,284.108 25.125,284.812 25.776,285.163    25.776,285.864 25.776,286.216 25.45,286.566 25.125,286.92 25.125,287.271 25.45,287.625 25.776,287.625 25.45,287.977    25.776,287.977 26.429,287.977 26.429,288.331 27.079,288.331 27.406,288.331 27.406,289.028 27.731,289.028 28.058,288.681    28.383,289.028 28.709,289.378 28.709,289.732 28.709,290.084 28.709,290.438 28.383,290.789 28.058,290.789 27.731,290.789    27.406,290.789 26.754,290.789 26.429,290.789 25.776,290.789 25.776,291.14 25.125,291.847 24.797,291.847 24.472,291.49    24.147,291.14 23.822,291.14 23.822,290.789 23.494,290.789 22.516,290.789 21.865,290.438 21.537,290.438 21.212,290.084    20.887,290.438 20.561,290.438 20.234,290.789 19.582,290.789 18.605,290.438 18.279,290.438 17.628,290.438 17.301,290.438    16.975,290.789 16.975,291.14 17.628,291.14 17.953,290.789 17.953,291.49 18.279,291.49 18.605,291.49 18.932,291.847    19.257,291.847 19.257,292.195 18.932,292.546 18.932,292.896 18.605,292.896 18.279,293.248 17.953,293.248 17.628,293.601    17.628,293.953 17.953,293.953 18.279,293.953 18.279,294.303 18.605,294.654 18.279,295.011 17.628,295.358 16.975,295.358    16.324,295.358 15.997,295.358 15.671,295.709 15.997,296.061 15.997,296.768 15.671,297.116 15.346,297.469 15.021,297.469    15.021,297.82 14.694,298.175 14.694,297.82 14.368,297.469 13.39,297.469 13.065,297.116 12.74,297.116 11.761,297.116    11.435,297.469 11.108,297.116 10.457,296.768 10.131,296.768 9.806,297.469 9.154,297.469 9.154,296.768 8.502,296.414    8.177,295.709 7.849,295.709 7.197,296.768 6.545,297.116 6.22,296.768 6.545,296.061 6.871,295.358 6.871,295.011 5.893,294.654    5.242,294.303 4.914,293.601 4.264,293.953 4.264,294.654 4.264,295.358 3.939,295.709 3.939,296.414 3.939,297.116 4.264,297.82    4.589,298.522 4.264,298.873 3.613,298.873 2.96,298.873 2.635,298.873 2.309,298.873 1.656,298.873 1.33,298.522 1.005,298.522    0.68,298.522 0.353,298.522 -0.299,298.175 -0.299,297.82 -0.299,297.116 0.027,297.116 0.027,296.768 0.027,296.414    -0.299,296.061 -0.624,295.709 -0.951,295.358 -1.602,295.011 -2.255,295.011 -2.581,295.358 -2.581,295.709 -3.558,295.709    -3.884,295.358 -4.21,295.011 -4.537,294.654 -4.862,294.654 -5.513,294.654 -5.841,294.303 -6.166,293.953 -6.817,293.601    -7.144,293.601 -7.47,293.601 -7.47,293.248 -7.47,292.896 -7.47,292.546 -7.144,291.847 -6.817,291.14 -7.144,290.789    -7.47,290.438 -8.121,290.438 -8.446,290.084 -8.774,289.732 -8.774,289.378 -8.774,289.028 -8.774,288.681 -9.425,288.331    -9.752,287.977 -10.403,287.977 -10.403,287.625 -10.403,286.92 -10.403,286.566 -10.403,286.216 -10.077,286.216    -10.077,285.864 -9.752,285.514 -9.425,285.514 -8.774,285.163 -8.446,284.812 -8.446,285.163 -8.446,285.514 -8.774,285.514    -9.099,285.864 -9.099,286.216 -8.774,286.216 -8.446,286.216 -8.121,286.216 -7.796,286.566 -7.47,286.566 -7.47,286.92    -7.144,287.271 -6.817,286.92 -6.492,286.566 -6.492,285.864 -6.492,285.514 -6.492,285.163 -6.817,284.458 -6.492,284.108    -6.166,284.108 -5.841,284.458 -6.166,284.812 -6.166,285.163 -6.166,285.514 -5.513,285.864 -4.537,285.864 -4.21,285.864    -3.884,285.514 -3.884,284.812 -3.884,284.458 -3.558,283.756 -3.884,283.756 -4.21,283.403 -4.21,283.052 -4.862,282.698    -5.513,282.698 -5.841,282.698 -5.513,282.347 -5.513,281.295 -5.513,280.944 -5.187,280.593 -5.187,280.24 -5.513,279.886    -5.841,279.534 -5.841,279.184 -5.513,279.184 -5.187,279.534 -4.21,279.534 -4.21,279.184 -4.537,278.836 -4.21,278.836    -3.884,278.482 -4.21,278.132 -3.558,277.777 -3.231,277.777 -2.581,278.132 -2.255,278.132 -2.255,277.777 -1.927,276.722    -0.624,276.021 -0.299,276.021 -0.299,276.371 -0.624,277.076 -0.624,277.427 -0.299,277.427 0.027,277.427 0.353,276.722    0.353,276.371 0.68,275.673 0.68,275.319 1.33,275.319 1.656,275.319 1.656,275.673 1.982,276.021 2.635,276.021 3.613,275.319    3.939,274.965 4.264,274.614 4.914,274.264 5.242,274.264 5.893,274.614 6.22,274.965 6.871,275.673 7.197,275.319 7.197,274.965    7.524,274.264 7.849,274.264 8.177,274.614 8.502,275.319 8.827,275.319 9.154,275.319 9.479,275.319 10.131,275.673    10.457,275.319 10.457,274.965 10.782,275.319 10.782,275.673 11.108,276.021 11.435,275.673 11.761,275.319 12.086,274.965    12.74,274.614 13.065,274.264 13.065,273.912 13.39,273.558 13.39,272.506 13.715,271.801 14.042,271.801 14.694,271.801    15.021,271.801 15.346,271.45 15.997,271.096 16.324,271.45 16.975,271.801 17.628,271.801 18.279,271.45 18.605,271.801    18.932,271.45 18.932,271.096 19.582,271.096 19.257,270.396 18.932,270.396 17.953,270.042 18.279,269.689 18.605,269.689    19.257,269.689 19.582,270.042 19.908,270.396 20.234,270.746   " id="upazila_259" area="upazlia" name="moheshpur" bengali="মহেশপুর" parent="jhenaidah"></polygon><polygon points="22.516,258.088 22.516,256.332 22.516,255.629 22.191,254.925 21.537,254.223 21.212,253.519    21.212,252.817 21.865,251.758 22.191,252.817 22.516,252.817 22.841,252.817 22.841,252.109 23.166,252.109 24.147,252.467    24.147,253.167 25.125,253.519 25.776,253.519 26.101,253.869 26.101,254.925 25.776,254.925 26.101,255.98 26.101,256.332    26.754,255.98 27.079,256.332 27.406,257.387 27.079,257.737 27.406,258.439 27.731,258.088 28.058,257.737 28.058,257.033    29.362,257.387 30.013,257.737 30.338,258.088 30.99,258.439 31.642,258.439 31.967,258.793 32.292,259.498 32.292,260.197    32.622,260.901 32.946,261.252 33.273,261.252 33.598,260.901 34.576,260.901 34.902,260.901 34.902,261.252 35.555,261.606    36.206,262.661 36.531,263.012 36.857,263.36 37.184,264.067 37.51,264.067 37.834,264.419 39.139,264.067 39.464,264.067    39.791,264.77 40.117,264.77 40.443,264.77 40.77,265.477 40.443,265.824 41.095,266.176 41.746,266.877 41.095,268.287    40.77,268.638 40.443,268.638 39.791,268.287 39.464,268.992 39.464,269.689 39.791,270.042 40.443,270.398 41.095,270.746    40.443,271.45 40.117,271.45 39.791,271.801 39.464,271.801 39.791,271.096 39.139,271.45 38.814,271.801 38.814,272.506    38.489,272.506 38.16,272.506 37.834,272.854 37.834,273.208 37.834,273.912 37.184,273.912 36.857,274.264 36.531,274.614    36.857,274.965 36.857,275.673 36.531,276.371 35.555,277.427 35.228,277.079 34.902,277.427 34.576,277.427 34.576,277.079    34.249,277.079 33.926,277.079 33.273,277.427 32.946,277.777 32.946,277.427 32.622,276.722 32.292,276.371 31.642,276.021    31.317,275.673 31.317,275.319 31.642,274.965 31.642,274.614 31.317,274.614 30.99,274.264 30.99,273.912 30.99,272.854    30.663,272.506 30.338,272.506 30.013,272.506 29.688,273.912 30.013,274.264 30.013,274.614 30.013,275.319 29.362,276.021    29.034,276.722 28.383,276.722 28.383,276.371 27.731,276.021 27.731,275.319 28.058,274.965 28.383,274.264 28.709,273.558    28.709,273.208 28.383,273.208 28.058,273.208 27.731,273.208 27.079,273.208 26.429,273.558 25.776,273.558 24.797,273.558    24.472,273.558 24.147,273.208 23.82,272.854 23.82,273.208 23.494,273.208 22.841,273.208 22.516,272.854 22.516,272.506    22.191,272.506 22.191,272.156 21.865,271.45 21.212,270.746 21.212,270.042 20.887,269.342 21.212,268.638 22.191,268.992    22.516,268.287 22.516,267.582 22.191,267.231 21.537,266.877 21.212,266.526 20.887,266.526 20.561,266.526 19.908,266.877    18.932,267.231 19.257,266.526 19.582,266.176 20.234,266.176 20.561,265.824 20.561,265.477 20.234,264.77 20.234,264.419    20.887,264.419 21.212,264.419 21.212,264.067 21.212,263.36 21.212,263.012 21.865,262.661 22.516,261.956 22.516,261.252    22.516,260.551 22.191,259.848 22.191,259.147   " id="upazila_258" area="upazlia" name="kotchandpur" bengali="কোটচাঁদপুর" parent="jhenaidah"></polygon><polygon points="31.969,227.852 32.292,228.907 32.946,229.609 33.596,229.958 33.926,230.312 34.576,230.664    34.902,230.664 35.555,230.312 35.878,229.958 36.205,229.257 36.531,228.556 36.531,228.2 37.184,227.852 37.184,227.147    36.857,227.147 36.205,226.795 35.878,226.444 35.228,226.094 35.555,225.741 35.878,225.741 36.531,225.741 36.857,226.094    37.51,226.444 37.834,226.795 38.16,226.795 38.488,226.795 39.139,226.444 39.466,226.444 39.789,226.094 40.117,225.741    40.117,225.39 39.789,225.037 39.466,224.688 38.814,224.334 38.16,223.984 38.16,222.928 37.834,222.226 37.51,221.523    37.51,221.171 37.51,220.466 37.51,220.115 37.834,219.413 38.16,219.413 38.814,219.06 39.139,219.06 39.789,219.413    40.117,219.413 39.789,220.115 39.789,220.466 39.466,220.821 39.466,221.523 40.117,221.523 40.768,221.523 41.095,221.171    41.42,221.171 41.748,221.523 41.42,222.226 41.095,222.928 41.095,223.28 41.748,223.28 42.724,223.633 43.05,223.633    43.375,223.984 43.05,225.037 43.05,225.39 43.375,225.741 43.702,225.741 44.353,225.741 44.681,225.741 45.006,225.037    45.331,224.688 45.656,224.688 45.983,225.037 45.983,225.39 45.983,226.094 45.983,226.795 45.331,227.852 45.331,228.556    45.331,228.907 45.331,229.609 45.983,229.958 46.311,230.664 46.635,231.368 46.96,231.718 46.635,232.069 46.311,232.422    45.656,232.774 45.331,232.774 44.681,233.125 44.681,233.831 44.681,234.179 45.006,234.881 45.331,235.235 45.983,235.235    46.311,235.235 46.635,235.587 46.96,236.29 47.286,236.64 47.614,236.64 47.939,236.994 48.915,237.343 49.569,237.698    49.894,237.698 50.221,238.045 49.894,238.751 49.569,239.454 49.569,239.805 49.569,240.157 50.221,240.512 50.546,240.859    50.874,241.211 50.874,241.563 51.198,242.267 51.198,242.619 51.85,241.917 51.85,242.267 51.85,242.619 51.85,243.323    52.826,243.323 53.156,243.323 53.479,242.969 53.808,242.969 54.132,243.323 53.808,243.674 52.826,244.024 52.826,244.376    52.501,244.727 52.826,245.431 53.156,245.782 53.808,246.135 54.132,246.135 54.132,246.841 54.132,247.539 53.808,247.889    53.479,247.889 52.826,247.889 52.826,247.539 53.156,247.191 53.156,246.487 52.176,246.135 51.85,246.135 51.198,245.782    50.874,246.135 50.546,246.487 50.221,247.191 49.894,247.539 49.569,247.539 49.242,247.889 49.569,248.595 49.569,248.945    49.242,249.65 49.242,250.003 49.242,250.355 48.592,250.706 47.939,251.057 47.614,250.355 47.286,250.003 47.286,249.299    46.96,248.595 46.96,248.243 46.96,247.889 46.635,247.889 46.635,248.243 46.635,248.595 46.311,248.945 46.311,250.355    46.635,250.706 46.635,251.407 46.311,251.761 45.656,251.761 45.656,251.407 45.331,251.407 45.006,250.706 45.006,250.355    44.353,250.003 44.029,249.65 43.702,249.65 44.029,248.945 44.353,248.595 44.029,248.595 43.702,248.595 43.05,248.595    43.702,247.191 43.702,246.841 43.05,246.841 42.724,247.191 42.072,247.539 41.748,247.191 41.42,246.487 40.768,246.135    40.117,246.135 39.466,245.782 38.814,245.782 38.488,245.431 37.834,245.782 37.184,246.135 37.51,246.487 37.184,247.539    36.857,248.243 36.531,247.539 35.878,247.539 35.228,247.539 34.902,247.191 34.902,246.487 35.228,246.135 35.555,245.782    36.531,245.782 36.531,245.431 36.531,245.08 36.205,244.376 35.878,244.727 35.228,245.08 34.902,245.782 34.251,246.487    33.926,247.539 33.926,248.243 34.251,248.595 33.926,248.945 33.596,248.945 32.946,248.945 31.642,248.595 31.642,248.243    31.316,247.539 30.99,246.841 30.34,247.191 29.688,247.191 29.034,247.191 28.708,247.191 28.059,247.889 27.73,246.841    28.059,246.487 28.383,245.431 29.034,245.08 29.362,244.024 29.688,243.674 30.013,244.376 30.34,243.323 30.663,242.619    30.99,241.563 31.316,240.859 31.642,239.805 31.316,239.103 30.99,238.4 30.663,238.045 30.99,238.045 31.316,237.343    31.642,236.994 31.642,236.29 31.969,235.587 31.969,235.235 31.642,234.881 30.99,234.881 30.99,234.534 30.663,233.831    30.99,233.125 31.316,232.774 31.316,232.069 30.99,231.368 30.99,230.312 31.316,229.958   " id="upazila_255" area="upazlia" name="harinakundu" bengali="হরিণাকুন্ডু" parent="jhenaidah"></polygon><polygon points="53.155,223.984 53.479,223.633 53.479,222.928 53.808,222.578 54.458,222.578 55.112,222.928    55.762,223.28 56.414,223.28 56.74,223.28 57.393,222.928 57.718,222.578 58.043,222.226 58.369,221.874 58.697,221.523    59.022,221.171 59.672,221.171 60.325,221.171 60.977,221.523 61.629,221.874 61.629,221.523 61.954,220.821 62.281,220.821    62.933,220.466 63.584,220.466 63.909,220.466 64.237,220.821 64.888,221.523 64.888,221.874 65.538,222.928 65.866,223.633    66.192,223.984 66.844,223.984 67.495,223.984 67.821,224.334 68.473,224.688 69.124,224.688 69.777,224.688 71.08,225.037    71.406,225.39 71.732,225.741 71.732,226.094 71.732,226.444 72.06,227.147 72.384,227.852 73.035,228.2 73.364,228.556    73.364,228.907 73.688,229.609 74.014,230.312 74.992,231.368 75.645,231.718 76.295,232.422 76.948,232.774 77.274,233.477    77.274,234.179 77.274,234.534 77.927,234.179 78.577,234.534 79.229,234.881 79.881,235.235 80.858,235.235 80.207,236.29    79.881,236.641 79.229,237.343 79.229,237.698 79.229,238.045 78.904,237.698 78.577,238.045 78.252,238.4 78.252,238.751    77.927,239.454 77.927,239.805 77.927,240.158 77.927,240.859 77.599,241.917 77.599,242.267 76.948,242.619 76.621,243.323    76.621,244.024 76.621,245.08 76.295,245.431 75.968,246.135 75.645,246.487 75.968,246.487 76.295,246.841 76.295,247.191    75.968,248.243 75.645,248.595 75.318,249.303 74.992,249.303 74.341,249.303 74.014,249.65 73.364,250.003 73.035,249.65    72.71,249.303 72.384,248.945 72.384,248.595 72.06,248.595 71.732,248.595 71.406,248.243 71.406,247.893 71.08,247.539    70.756,247.893 70.43,247.893 70.43,247.539 70.756,247.191 70.756,246.841 70.102,246.487 69.777,246.841 69.124,246.487    67.821,245.782 67.495,245.782 67.169,245.782 66.844,246.135 66.844,246.487 66.517,246.487 66.192,246.487 66.192,246.841    66.517,247.191 66.517,247.539 66.192,247.893 65.866,247.893 65.213,247.893 64.888,247.893 64.563,248.243 63.909,248.595    63.584,248.595 62.933,248.595 62.281,248.945 61.954,248.945 61.304,248.595 60.977,248.243 60.977,247.893 61.304,247.539    61.304,247.191 60.651,246.841 60.325,246.487 60,246.487 59.347,246.135 59.022,246.135 58.697,246.135 58.043,246.487    57.718,246.487 57.718,246.135 57.393,245.782 57.066,245.431 56.414,245.08 56.414,244.727 55.762,244.376 55.436,245.08    55.762,245.431 55.762,246.135 56.087,246.841 55.762,246.841 55.436,246.487 54.782,246.135 54.132,246.135 53.808,246.135    53.155,245.782 52.828,245.431 52.503,244.727 52.828,244.376 52.828,244.024 53.808,243.674 54.132,243.323 53.808,242.969    53.479,242.969 53.155,243.323 52.828,243.323 51.85,243.323 51.85,242.619 51.85,242.267 51.85,241.917 51.198,242.619    51.198,242.267 50.872,241.563 50.872,241.211 50.546,240.859 50.222,240.512 49.569,240.158 49.569,239.805 49.569,239.454    49.894,238.751 50.222,238.045 49.894,237.698 49.569,237.698 48.917,237.343 47.94,236.994 47.614,236.641 47.286,236.641    46.961,236.29 46.636,235.587 46.31,235.235 45.983,235.235 45.332,235.235 45.006,234.881 44.681,234.179 44.681,233.831    44.681,233.125 45.332,232.774 45.657,232.774 46.31,232.422 46.636,232.069 46.961,231.718 46.636,231.368 46.31,230.664    46.961,229.609 46.636,228.907 46.31,228.2 46.31,227.852 46.961,227.852 47.286,227.5 47.614,226.795 48.265,226.795    48.265,226.444 48.917,226.094 49.243,226.094 49.894,226.444 50.546,226.795 51.198,226.795 51.198,226.444 51.525,225.741    51.525,225.037 51.85,224.688 52.176,224.688 52.828,224.334   " id="upazila_260" area="upazlia" name="shailkupa" bengali="শৈলকুপা" parent="jhenaidah"></polygon><polygon points="54.132,246.135 54.783,246.135 55.436,246.487 55.762,246.837 56.089,246.837 55.762,246.135    55.762,245.431 55.436,245.08 55.762,244.376 56.414,244.727 56.414,245.08 57.066,245.431 57.393,245.782 57.718,246.135    57.718,246.487 58.043,246.487 58.697,246.135 59.022,246.135 59.347,246.135 60,246.487 60.325,246.487 60.651,246.837    61.304,247.191 61.304,247.539 60.977,247.893 60.977,248.243 61.304,248.595 61.954,248.945 62.281,248.945 62.933,248.595    63.584,248.595 63.909,248.595 64.563,248.243 64.888,247.893 65.213,247.893 65.866,247.893 66.192,247.893 66.517,247.539    66.517,247.191 66.192,246.837 66.192,246.487 66.517,246.487 66.844,246.487 66.844,246.135 67.169,245.782 67.495,245.782    67.821,245.782 69.124,246.487 69.777,246.837 70.102,246.487 70.756,246.837 70.756,247.191 70.43,247.539 70.43,247.893    70.756,247.893 71.08,247.539 71.406,247.893 71.406,248.243 71.732,248.595 72.06,248.595 72.384,248.595 72.384,248.945    72.71,249.299 73.035,249.653 73.364,250.003 73.035,250.706 72.71,251.06 72.384,251.407 72.06,251.758 72.06,252.111    72.384,252.817 71.732,253.167 71.08,253.869 71.08,254.221 70.756,254.575 70.756,255.275 70.756,255.626 71.08,255.98    71.406,256.686 71.08,257.033 70.756,257.387 71.406,257.737 71.732,257.737 71.732,258.443 71.406,259.144 71.08,259.144    70.756,259.144 70.43,259.144 70.43,259.498 70.756,259.848 71.406,261.255 71.406,261.956 71.406,262.661 71.406,263.36    71.08,263.713 71.08,264.419 71.08,264.77 71.08,265.474 70.756,265.824 70.43,265.824 70.102,265.824 70.43,266.176    70.102,266.176 69.777,266.526 69.451,267.231 68.473,267.582 68.148,268.287 67.821,268.638 67.495,268.287 67.169,268.287    66.844,268.638 66.517,268.287 65.866,267.932 65.213,267.932 64.888,267.932 64.563,267.932 64.563,268.287 64.563,268.992    63.909,269.342 63.259,269.342 62.606,268.992 62.281,268.287 62.606,267.582 61.629,267.231 61.304,267.231 60.977,266.877    60.651,266.877 60.325,267.231 60.325,267.582 59.675,267.932 59.347,267.932 59.022,268.287 58.369,268.287 58.043,267.932    58.043,268.287 57.718,268.638 57.393,268.992 57.066,268.287 56.414,268.287 56.414,268.638 55.762,268.638 55.112,268.287    54.783,268.287 54.132,268.287 53.808,267.932 53.479,268.287 52.828,268.287 52.503,267.582 52.176,267.231 51.85,267.231    51.199,267.582 50.872,267.231 50.546,267.231 50.222,266.877 49.894,267.231 49.569,267.231 48.59,266.877 48.265,266.526    47.94,266.176 47.615,265.474 47.615,264.77 47.286,264.067 46.961,263.713 45.983,263.36 45.983,264.067 45.657,264.419    45.332,265.12 45.006,265.474 45.332,265.824 45.332,266.176 45.006,266.526 44.354,266.526 44.354,267.231 43.702,267.231    43.377,267.231 43.052,266.877 42.399,266.877 41.748,266.877 41.095,266.176 40.443,265.824 40.77,265.474 40.443,264.77    40.117,264.77 39.791,264.77 39.466,264.067 39.139,264.067 37.834,264.419 37.51,264.067 37.184,264.067 36.857,263.36    36.531,263.012 36.206,262.661 35.555,261.606 34.902,261.255 34.902,260.901 34.577,260.901 33.598,260.901 33.273,261.255    32.946,261.255 32.622,260.901 32.294,260.197 32.294,259.498 31.967,258.793 31.642,258.443 30.991,258.443 30.338,258.088    30.013,257.737 29.362,257.387 28.058,257.033 28.058,257.737 27.731,258.088 27.406,258.443 27.079,257.737 27.406,257.387    27.079,256.332 26.754,255.98 26.101,256.332 26.101,255.98 25.776,254.925 26.101,254.925 26.101,253.869 25.776,253.519    25.125,253.519 24.147,253.167 24.147,252.467 23.168,252.111 22.843,252.111 22.843,252.817 22.516,252.817 22.191,252.817    21.865,251.758 22.191,251.06 22.516,250.706 23.168,250.355 23.822,250.355 24.797,250.706 25.45,251.06 26.429,251.06    26.754,251.06 26.754,250.355 26.754,250.003 27.079,249.299 27.406,248.945 28.058,247.893 28.709,247.191 29.034,247.191    29.688,247.191 30.338,247.191 30.991,246.837 31.317,247.539 31.642,248.243 31.642,248.595 32.946,248.945 33.598,248.945    33.926,248.945 34.249,248.595 33.926,248.243 33.926,247.539 34.249,246.487 34.902,245.782 35.228,245.08 35.88,244.727    36.206,244.376 36.531,245.08 36.531,245.431 36.531,245.782 35.555,245.782 35.228,246.135 34.902,246.487 34.902,247.191    35.228,247.539 35.88,247.539 36.531,247.539 36.857,248.243 37.184,247.539 37.51,246.487 37.184,246.135 37.834,245.782    38.489,245.431 38.814,245.782 39.466,245.782 40.117,246.135 40.77,246.135 41.42,246.487 41.748,247.191 42.073,247.539    42.724,247.191 43.052,246.837 43.702,246.837 43.702,247.191 43.052,248.595 43.702,248.595 44.029,248.595 44.354,248.595    44.029,248.945 43.702,249.653 44.029,249.653 44.354,250.003 45.006,250.355 45.006,250.706 45.332,251.407 45.657,251.407    45.657,251.758 46.31,251.758 46.636,251.407 46.636,250.706 46.31,250.355 46.31,248.945 46.636,248.595 46.636,248.243    46.636,247.893 46.961,247.893 46.961,248.243 46.961,248.595 47.286,249.299 47.286,250.003 47.615,250.355 47.94,251.06    48.59,250.706 49.243,250.355 49.243,250.003 49.243,249.653 49.569,248.945 49.569,248.595 49.243,247.893 49.569,247.539    49.894,247.539 50.222,247.191 50.546,246.487 50.872,246.135 51.199,245.782 51.85,246.135 52.176,246.135 53.155,246.487    53.155,247.191 52.828,247.539 52.828,247.893 53.479,247.893 53.808,247.893 54.132,247.539 54.132,246.837   " id="upazila_256" area="upazlia" name="jhenaidah" bengali="ঝিনাইদহ" parent="jhenaidah"></polygon><polygon points="41.748,266.877 42.4,266.877 43.05,266.877 43.375,267.231 43.702,267.231 44.353,267.231    44.353,266.526 45.006,266.526 45.332,266.176 45.332,265.824 45.006,265.474 45.332,265.12 45.656,264.419 45.983,264.067    45.983,263.36 46.961,263.713 47.286,264.067 47.615,264.77 47.615,265.474 47.939,266.176 48.264,266.526 48.592,266.877    49.569,267.231 49.896,267.231 50.221,266.877 50.544,267.231 50.874,267.231 51.198,267.582 51.848,267.231 52.178,267.231    52.501,267.582 52.826,268.287 53.479,268.287 53.808,267.932 54.13,268.287 54.782,268.287 55.109,268.287 55.762,268.638    56.412,268.638 56.412,268.287 57.066,268.287 57.391,268.992 57.718,268.638 58.043,268.287 58.043,267.932 58.371,268.287    59.022,268.287 59.347,267.932 59.672,267.932 60.325,267.582 60.325,267.231 60.652,266.877 60.976,266.877 61.304,267.231    61.629,267.231 62.605,267.582 62.281,268.287 62.605,268.992 63.258,269.342 63.909,269.342 64.563,268.992 65.538,268.992    65.866,269.689 66.517,269.689 65.538,270.746 64.887,271.45 64.563,271.801 65.215,272.156 65.215,272.506 64.887,272.857    63.909,273.208 63.584,273.558 63.584,273.912 64.237,274.264 63.909,274.614 63.258,274.965 63.584,275.319 63.584,276.021    63.584,276.371 63.258,277.076 63.258,277.427 63.909,277.427 64.237,277.427 64.563,278.132 64.237,278.836 63.909,279.534    63.909,280.593 63.909,281.295 63.909,281.999 62.934,281.999 62.281,281.999 61.954,281.999 61.629,281.999 61.629,282.347    62.281,282.698 62.934,283.052 62.934,283.403 62.934,283.756 62.605,284.108 61.954,284.461 61.629,284.812 61.304,284.812    60.976,284.461 60.325,284.812 60,284.812 59.672,285.163 59.347,285.514 59.022,285.514 58.371,284.812 58.043,284.461    58.043,284.812 57.718,285.864 57.391,286.566 57.718,287.271 57.718,287.625 57.391,288.331 57.066,288.681 56.74,289.378    56.412,289.732 55.762,289.732 55.109,289.732 54.46,289.732 54.13,289.732 53.479,289.732 53.155,289.378 52.826,289.732    52.501,290.084 52.178,290.438 51.525,290.438 51.198,290.438 50.874,290.438 50.544,290.438 50.221,290.084 49.896,290.438    49.569,290.789 49.243,291.49 49.243,291.847 48.592,291.49 48.264,291.49 47.939,291.14 47.286,291.847 45.983,291.14    44.681,290.438 44.029,290.084 44.029,289.732 44.029,289.378 44.353,289.028 44.029,288.331 43.702,288.331 43.702,288.681    43.375,288.681 43.05,288.331 42.4,287.977 41.748,287.271 40.77,286.92 40.443,286.566 39.139,286.566 38.814,286.566    38.488,287.271 37.835,287.625 37.509,288.331 37.184,287.977 36.531,288.681 36.206,289.028 35.878,288.681 35.878,288.331    36.531,287.977 36.857,287.271 37.184,287.625 37.509,287.271 37.835,286.92 38.488,286.566 38.488,286.216 38.488,285.864    38.488,285.514 38.16,285.163 38.16,284.812 38.488,284.461 38.16,284.108 37.835,283.403 37.509,283.403 36.857,283.052    37.184,282.698 37.509,281.999 37.835,281.645 38.488,281.295 38.814,280.944 39.139,280.24 39.139,279.886 38.814,279.534    38.814,278.836 38.16,279.184 37.835,279.184 37.184,279.534 36.857,279.534 36.206,279.184 35.228,279.184 35.228,278.836    35.556,278.482 35.556,277.427 36.531,276.371 36.857,275.673 36.857,274.965 36.531,274.614 36.857,274.264 37.184,273.912    37.835,273.912 37.835,273.208 37.835,272.857 38.16,272.506 38.488,272.506 38.814,272.506 38.814,271.801 39.139,271.45    39.789,271.096 39.466,271.801 39.789,271.801 40.119,271.45 40.443,271.45 41.093,270.746 40.443,270.396 39.789,270.043    39.466,269.689 39.466,268.992 39.789,268.287 40.443,268.638 40.77,268.638 41.093,268.287   " id="upazila_257" area="upazlia" name="kaliganj" bengali="কালীগঞ্জ" parent="jhenaidah"></polygon></svg>