<svg enable-background="new -106.403 -201.859 629.266 880.536" height="880.536px" id="district_41" viewBox="-106.403 -201.859 629.266 880.536" width="629.266px" x="0px" xml:space="preserve" xmlns="http://www.w3.org/2000/svg" y="0px"><polygon points="448.84,72.794 450.466,73.148 450.789,73.499 451.117,73.85 451.772,73.85 452.423,74.203    453.074,73.85 453.401,73.148 453.726,72.794 453.726,72.446 454.052,72.091 454.703,72.091 455.031,72.091 455.355,72.446    456.011,72.794 456.657,73.148 456.984,73.148 456.984,72.794 457.312,72.794 457.966,73.148 458.289,72.446 458.615,72.091    459.269,72.091 459.594,72.091 459.915,72.446 460.898,72.091 461.88,72.091 462.2,71.741 462.852,72.091 463.506,72.091    463.829,72.091 464.156,72.794 464.484,72.446 464.809,71.741 464.809,71.039 464.484,70.684 464.156,70.334 463.829,69.982    463.829,69.279 464.156,68.927 464.484,68.224 464.809,67.521 464.809,66.818 465.135,66.466 465.46,66.466 465.783,66.818    466.11,67.521 466.441,67.17 466.766,66.818 466.766,66.466 466.766,66.116 466.441,65.763 467.415,65.061 467.74,65.061    468.067,65.061 468.392,65.412 469.046,65.061 469.698,65.061 470.027,65.061 470.349,64.356 470.675,64.356 470.675,64.004    470.027,63.654 470.349,63.302 470.998,63.302 471.326,63.302 471.653,62.951 472.96,63.302 474.26,63.302 474.909,63.654    475.236,64.004 475.567,65.763 475.567,67.17 475.892,68.576 476.218,68.927 476.541,69.279 477.196,69.631 477.196,69.982    477.196,70.334 476.541,71.389 476.218,72.091 476.218,72.446 476.541,72.794 476.865,73.148 477.196,73.499 476.865,73.85    476.218,74.553 475.892,75.607 475.892,76.313 476.541,76.662 477.196,77.014 477.521,77.014 477.844,77.365 477.196,78.42    476.541,79.125 476.218,79.475 475.567,80.531 475.236,80.882 474.909,81.232 474.909,81.586 474.26,82.641 473.61,83.343    473.281,84.048 472.96,84.398 472.635,84.75 472.635,85.101 472.303,85.452 472.303,85.804 472.303,86.156 472.635,86.508    472.303,87.21 471.978,87.915 471.326,88.265 471.326,88.969 471.326,89.321 471.653,89.671 471.653,90.025 471.326,91.078    471.326,92.135 470.998,92.835 470.675,94.595 470.027,96.002 469.698,97.406 469.369,98.462 469.369,100.22 467.74,100.923    467.092,101.275 466.766,101.275 466.11,101.625 465.783,101.625 465.135,101.979 464.484,101.979 463.829,101.979    463.177,101.979 462.852,101.979 462.2,102.33 461.88,102.682 461.549,103.032 461.223,103.032 460.898,102.682 460.243,102.33    459.594,101.979 458.944,101.979 458.615,102.33 457.64,102.682 456.984,102.682 456.657,102.682 456.332,102.682 456.011,102.33    456.011,101.979 456.011,101.625 455.355,101.625 454.703,101.625 454.052,101.275 453.726,100.923 454.052,100.22    455.031,98.814 454.703,98.814 454.052,97.406 453.726,97.057 453.726,96.353 453.726,95.296 453.726,94.946 454.052,94.242    454.052,93.892 454.38,92.485 454.703,92.135 454.703,91.43 454.38,91.078 454.052,90.728 453.726,90.375 453.401,90.375    452.751,90.025 452.423,90.375 452.097,90.375 451.772,90.375 451.447,90.025 451.447,89.671 450.789,90.025 450.466,90.025    450.143,89.671 449.818,89.321 449.16,89.321 448.84,89.321 448.514,89.671 447.858,89.321 447.858,88.969 447.858,88.616    447.858,88.265 448.183,87.561 448.183,87.21 448.514,86.508 448.514,86.156 448.84,85.452 448.514,85.101 448.183,84.75    447.531,84.398 447.211,84.398 446.885,85.101 445.254,87.915 444.926,88.616 444.278,89.671 443.948,90.375 443.297,91.078    442.646,91.782 442.321,91.782 441.99,91.782 441.663,91.43 441.345,90.728 441.345,90.025 441.017,88.969 441.99,88.616    441.99,88.265 442.321,87.561 442.321,86.508 442.321,85.452 442.321,84.75 442.321,84.398 442.321,84.048 442.321,83.694    441.99,83.343 441.663,83.343 441.345,82.993 441.345,82.641 441.345,82.288 442.646,81.586 442.971,81.938 442.971,82.288    443.297,82.641 444.926,82.641 445.577,82.288 446.229,81.938 446.554,81.586 446.885,81.232 447.531,80.531 447.858,79.826    447.858,79.475 448.514,79.125 448.84,78.773 449.16,78.42 448.84,78.07 448.84,77.717 449.16,77.365 449.16,77.014    449.49,75.959 449.49,75.257 449.16,74.905 448.84,74.905 448.183,74.905 448.183,74.553 448.183,73.85 448.183,73.148    448.183,72.794 448.514,72.446   " id="upazila_423" area="upazlia" name="barlekha" bengali="বড়লেখা" parent="moulvibazar"></polygon><polygon points="382.673,122.371 383.001,120.964 383.001,120.261 383.001,119.207 383.001,118.853    383.651,118.503 383.976,118.503 384.63,117.799 384.63,117.447 384.63,116.746 384.302,116.393 385.281,117.096 385.933,117.799    386.582,118.853 386.91,119.559 387.237,120.261 387.237,120.964 387.562,121.314 387.237,121.667 387.562,122.371    387.562,122.722 387.562,123.425 387.562,123.777 387.237,124.832 387.237,125.535 387.237,125.886 387.562,126.237    387.887,126.589 388.539,126.237 388.863,125.886 389.191,125.535 389.844,125.184 390.17,125.535 390.823,125.886    391.151,126.237 391.473,126.237 392.122,125.886 392.45,125.184 393.102,125.184 393.427,124.832 393.756,124.832    394.082,125.184 394.407,125.886 394.734,125.886 395.713,125.886 396.033,126.237 396.033,126.589 396.36,126.941    396.691,127.292 397.016,127.292 397.662,127.292 398.317,126.941 398.645,126.237 398.97,125.886 400.277,126.237    400.925,125.886 401.576,125.886 401.906,125.886 402.882,125.886 403.857,126.589 404.839,126.941 404.839,127.994    404.839,128.699 404.839,129.756 404.51,130.458 404.51,131.16 404.51,132.216 404.51,132.917 404.51,134.324 404.182,135.38    403.857,136.436 403.533,137.136 403.21,138.542 403.21,139.247 403.21,139.951 403.21,140.653 403.21,141.357 403.21,142.061    402.882,142.762 402.882,143.466 402.556,144.169 402.228,145.576 402.228,146.279 402.228,146.981 402.228,148.038    402.228,149.092 403.21,153.312 403.533,155.422 403.533,156.474 403.857,157.53 403.857,158.585 404.182,159.64 404.182,160.342    404.51,161.397 404.51,163.157 404.839,164.211 404.839,164.562 403.857,164.211 403.533,164.211 402.882,164.562    402.228,164.562 401.906,164.562 401.576,164.211 401.248,164.211 400.602,164.562 399.948,163.858 399.948,163.51    399.296,163.51 398.317,163.157 397.662,163.157 397.342,162.453 397.016,161.749 396.691,161.397 396.36,161.749    395.713,162.103 395.385,162.103 395.056,161.397 394.734,161.046 394.407,160.342 394.407,159.992 394.082,159.29    394.082,158.585 393.756,157.882 393.756,157.18 393.427,156.828 393.102,156.125 392.78,155.772 392.78,155.422 392.45,154.716    392.122,154.367 392.122,154.013 391.802,153.663 392.122,153.312 392.122,152.959 392.122,151.905 392.122,151.555    391.473,151.555 390.823,151.905 390.493,152.256 390.17,152.607 389.191,154.013 389.519,154.367 389.844,154.716    389.844,155.068 390.17,155.772 390.17,156.125 389.844,156.474 390.823,156.828 390.823,157.18 390.823,157.882 390.823,158.234    390.823,158.585 390.493,158.937 390.493,159.29 390.17,159.64 389.191,159.29 388.863,158.234 388.863,157.53 388.539,156.828    388.216,156.474 388.216,156.125 387.562,156.125 387.237,155.772 387.237,154.716 386.91,154.367 386.582,154.013    385.933,152.607 385.933,151.905 385.608,151.555 385.281,150.849 385.281,150.499 385.281,149.795 384.956,149.445    384.956,148.741 384.956,148.39 385.281,146.632 384.956,145.928 384.63,145.576 384.63,145.226 384.63,144.521 384.63,143.818    384.63,143.466 384.302,142.061 384.302,141.004 383.976,139.951 383.976,139.247 383.976,138.542 383.651,137.841    383.651,137.136 383.651,136.436 383.976,135.731 383.976,135.38 383.976,134.676 383.324,134.324 383.001,133.623    382.673,133.269 383.001,132.567 383.001,131.863 383.001,131.513 383.001,130.809 383.001,130.458 383.651,130.106    383.976,129.401 383.976,129.051 383.651,128.349 383.651,127.646 383.651,127.292 383.324,126.941 383.001,126.589    383.001,126.237 383.001,125.886 383.001,125.535 382.673,124.832 382.673,124.128 383.001,124.128 383.324,123.777    383.001,123.425 382.347,122.722   " id="upazila_428" area="upazlia" name="sreemangal" bengali="শ্রীমঙ্গল" parent="moulvibazar"></polygon><polygon points="416.242,117.801 417.222,118.151 417.871,117.801 418.851,117.45 419.505,117.801    420.156,117.801 420.156,118.504 420.483,119.207 420.808,119.912 421.134,120.262 421.457,120.614 421.782,120.614    422.109,120.262 422.437,119.912 422.762,119.559 423.414,119.207 424.719,119.559 425.045,119.912 425.368,120.614    425.698,121.668 426.348,122.019 426.677,122.723 426.677,123.425 426.677,123.78 426.348,125.185 426.348,125.536    426.677,126.239 426.997,126.59 427.323,126.239 428.302,125.886 428.631,126.239 428.631,126.941 428.302,127.647 428.302,128.7    428.302,129.403 427.977,130.459 427.652,131.866 426.997,133.623 426.348,136.083 426.997,138.193 427.652,140.303    428.302,142.762 429.282,145.578 429.282,145.929 428.631,148.038 427.977,150.148 427.323,152.61 426.677,155.422    425.045,159.993 425.368,160.344 425.698,160.694 425.698,161.398 425.368,161.75 425.368,162.103 425.368,162.454    425.045,162.806 425.045,163.157 425.045,163.51 425.045,163.86 425.045,164.562 424.394,164.562 424.066,164.915 423.74,164.915    423.091,164.915 422.762,164.915 422.437,164.915 422.109,165.268 421.457,164.562 421.134,163.86 420.808,163.51    420.483,163.157 420.483,162.806 420.156,162.103 420.156,161.398 419.831,161.048 419.831,160.344 419.831,159.64    419.505,159.29 418.851,158.939 418.526,158.586 417.871,158.586 417.548,158.586 417.548,157.883 417.222,157.532    416.897,157.532 416.242,156.828 415.594,156.125 415.594,155.772 415.919,155.422 416.242,156.125 416.569,156.125    416.897,155.772 416.897,155.07 416.569,155.07 416.569,154.016 416.897,153.665 417.871,154.016 417.222,153.312    416.897,152.958 416.242,152.958 415.919,152.958 415.919,152.61 415.919,152.258 416.569,151.905 415.919,151.555    415.265,151.905 415.265,152.258 414.943,152.958 414.615,153.312 414.288,154.016 413.636,154.016 412.983,154.367    412.331,154.719 412.008,154.719 411.354,154.016 411.354,153.665 411.031,152.958 410.702,152.958 410.379,152.958    410.051,152.958 409.4,152.958 408.748,152.958 408.422,152.61 407.771,152.258 402.228,149.092 402.228,148.038 402.228,146.983    402.228,146.279 402.228,145.578 402.556,144.169 402.882,143.467 402.882,142.762 403.21,142.063 403.21,141.357 403.21,140.654    403.21,139.951 403.21,139.248 403.21,138.544 403.533,137.139 403.857,136.436 404.182,135.381 404.51,134.326 404.51,132.92    404.51,132.216 404.51,131.16 404.51,130.459 404.839,129.756 404.839,128.7 404.839,127.996 404.839,126.941 405.162,125.536    405.162,124.832 405.489,123.78 405.489,123.073 405.814,121.668 405.814,120.964 405.814,120.262 406.142,119.559    406.142,118.855 406.468,118.151 406.468,117.096 406.788,116.395 406.788,115.691 406.788,114.637 407.115,114.284    407.446,113.581 407.771,113.581 408.096,113.581 408.422,114.284 408.748,114.637 408.748,115.337 409.073,115.337    409.725,115.337 410.051,115.337 410.702,114.989 411.354,114.989 411.682,115.691 412.331,116.044 412.656,116.746    412.983,117.096 413.636,117.45 414.615,117.801 415.265,117.801   " id="upazila_424" area="upazlia" name="kamolganj" bengali="কমলগঞ্জ" parent="moulvibazar"></polygon><polygon points="396.36,96.703 397.99,97.759 398.645,97.055 399.948,97.759 400.274,98.46 401.248,98.46    401.576,98.112 401.576,98.815 400.925,99.867 400.925,100.573 401.248,100.921 401.576,100.921 401.906,100.921 403.21,100.22    403.21,100.921 403.533,101.625 403.21,102.329 403.533,102.682 403.857,103.034 404.51,103.383 405.159,104.087 406.468,104.439    407.116,104.439 407.116,104.79 406.788,105.142 406.788,105.495 407.116,105.495 407.771,105.845 408.422,105.845    408.422,106.548 408.748,106.901 408.748,107.603 409.073,107.957 409.4,108.307 410.051,109.01 410.051,109.362 409.722,109.712    409.722,110.064 410.051,110.417 410.702,111.117 411.029,111.47 411.354,111.823 411.682,111.823 412.01,112.174 412.01,112.526    412.01,113.229 412.331,113.229 412.656,113.581 412.656,113.229 412.656,112.526 413.311,112.174 413.636,112.174    413.965,112.526 413.965,112.878 413.311,112.878 413.311,113.229 413.311,113.581 413.636,113.932 413.965,114.635    414.288,114.986 414.943,115.691 415.914,116.746 416.242,117.447 416.242,117.799 415.265,117.799 414.615,117.799    413.636,117.447 412.983,117.096 412.656,116.746 412.331,116.044 411.682,115.691 411.354,114.986 410.702,114.986    410.051,115.337 409.722,115.337 409.073,115.337 408.748,115.337 408.748,114.635 408.422,114.284 408.096,113.581    407.771,113.581 407.446,113.581 407.116,114.284 406.788,114.635 406.788,115.691 406.788,116.393 406.468,117.096    406.468,118.151 406.142,118.853 406.142,119.559 405.817,120.261 405.817,120.965 405.817,121.667 405.489,123.072    405.489,123.777 405.159,124.832 405.159,125.535 404.839,126.939 403.857,126.589 402.882,125.889 401.906,125.889    401.576,125.889 400.925,125.889 400.274,126.237 398.97,125.889 398.645,126.237 398.32,126.939 397.662,127.292    397.016,127.292 396.691,127.292 396.36,126.939 396.033,126.589 396.033,126.237 395.71,125.889 394.734,125.889    394.406,125.889 394.082,125.184 393.759,124.832 393.43,124.832 393.102,125.184 392.45,125.184 392.122,125.889    391.473,126.237 391.151,126.237 390.823,125.889 390.17,125.535 389.844,125.184 389.191,125.535 388.863,125.889    388.539,126.237 387.89,126.589 387.562,126.237 387.234,125.889 387.234,125.535 387.234,124.832 387.562,123.777    387.562,123.427 387.562,122.722 387.562,122.371 387.234,121.667 387.562,121.314 387.234,120.965 387.234,120.261    386.907,119.559 386.582,118.853 385.933,117.799 385.281,117.096 384.304,116.393 383.651,115.691 383.651,115.337    383.976,114.635 383.651,114.284 383.324,113.932 383.004,113.932 383.004,113.229 383.004,112.878 382.673,112.174    383.004,112.174 383.651,111.823 384.953,111.823 385.281,111.47 385.933,111.117 385.933,110.769 386.259,110.064    385.933,109.712 386.582,109.362 387.562,109.01 387.562,108.658 387.89,107.957 388.216,107.957 388.539,107.25 388.216,106.901    387.562,106.548 387.234,106.548 387.234,106.197 387.562,105.495 388.539,104.79 389.516,105.142 389.844,105.142 390.17,104.79    390.17,104.439 389.844,104.439 389.516,104.439 389.191,104.087 388.863,103.383 388.863,103.034 388.863,102.682    388.539,102.329 388.216,102.329 387.562,102.329 387.562,101.978 387.562,101.625 387.89,100.921 387.89,100.573 387.89,99.867    387.234,99.516 386.907,99.164 386.259,98.815 385.933,99.164 384.953,99.516 384.63,99.867 384.304,99.867 384.304,99.164    384.953,98.46 385.933,97.406 386.259,97.055 386.582,96.703 386.907,96 387.89,95.649 388.216,95.649 388.863,96.353    389.191,96.703 388.863,97.055 388.539,97.055 387.89,97.406 387.562,97.406 387.234,97.406 386.907,97.406 386.907,97.759    387.562,98.112 388.216,98.112 388.863,98.112 389.191,98.815 389.844,98.815 390.493,98.815 390.823,99.164 391.473,98.815    391.799,99.516 391.799,99.867 392.122,100.22 392.45,100.921 393.102,100.573 393.43,99.867 393.43,99.516 393.102,99.164    393.43,98.46 394.406,97.759 394.734,98.112 395.71,98.112 396.033,97.406   " id="upazila_426" area="upazlia" name="moulvibazarsadar" bengali="মৌলভীবাজার-সদর" parent="moulvibazar"></polygon><polygon points="401.576,98.112 401.906,97.759 401.576,97.057 402.228,97.057 402.556,97.057 403.205,97.057    403.533,97.057 404.182,97.057 404.51,96.354 404.839,95.649 404.839,94.946 405.489,94.595 406.142,94.24 406.788,94.24    407.116,93.893 407.771,93.893 407.771,92.835 407.446,92.485 407.446,92.135 407.771,91.432 408.096,90.728 408.422,90.373    409.4,90.373 409.4,91.078 409.725,91.781 410.051,92.135 410.379,91.432 411.031,91.432 412.01,90.728 412.656,91.078    413.965,90.373 413.636,89.318 414.288,88.969 415.265,89.318 415.265,90.025 415.594,90.025 415.919,90.373 416.569,91.078    416.9,90.373 418.526,89.67 419.505,90.025 419.828,89.318 420.483,89.67 421.134,89.318 421.462,89.318 421.782,89.318    422.109,89.67 422.765,89.67 423.091,90.373 423.74,90.025 424.391,90.373 424.719,90.025 425.045,89.318 424.719,88.969    424.066,88.616 424.066,87.914 424.719,87.561 425.368,87.561 425.698,87.914 425.698,88.616 426.023,88.969 426.997,89.318    427.325,89.318 428.302,88.616 428.302,87.914 428.631,87.914 428.631,88.616 428.954,88.969 429.282,88.969 429.609,90.025    429.931,90.728 430.26,91.432 430.26,91.781 430.588,92.485 430.908,93.538 431.238,94.595 431.238,94.946 431.238,95.649    431.238,96.354 431.238,97.057 431.238,98.815 431.238,99.518 430.908,100.22 430.588,100.921 430.588,101.275 430.26,102.329    429.931,102.682 429.931,103.383 429.609,103.737 428.954,104.44 427.652,105.845 427.652,106.199 427.652,106.903    427.652,107.603 427.652,108.307 427.325,109.363 427.325,110.064 427.325,110.769 427.325,111.824 427.325,112.526    427.325,112.878 426.997,113.581 426.348,113.932 426.023,114.284 425.698,114.635 425.698,114.989 426.023,115.691    426.348,116.044 426.023,116.393 425.698,116.746 424.391,116.746 424.066,117.799 424.066,118.149 424.066,118.853    424.719,119.559 423.414,119.207 422.765,119.559 422.437,119.912 422.109,120.261 421.782,120.61 421.462,120.61    421.134,120.261 420.808,119.912 420.483,119.207 420.156,118.504 420.156,117.799 419.505,117.799 418.851,117.447    417.871,117.799 417.222,118.149 416.242,117.799 416.242,117.447 415.919,116.746 414.943,115.691 414.288,114.989    413.965,114.635 413.636,113.932 413.311,113.581 413.311,113.229 413.311,112.878 413.965,112.878 413.965,112.526    413.636,112.174 413.311,112.174 412.656,112.526 412.656,113.229 412.656,113.581 412.331,113.229 412.01,113.229    412.01,112.526 412.01,112.174 411.682,111.824 411.354,111.824 411.031,111.47 410.702,111.12 410.051,110.417 409.725,110.064    409.725,109.712 410.051,109.363 410.051,109.01 409.4,108.307 409.073,107.957 408.748,107.603 408.748,106.903 408.422,106.548    408.422,105.845 407.771,105.845 407.116,105.495 406.788,105.495 406.788,105.14 407.116,104.79 407.116,104.44 406.468,104.44    405.162,104.087 404.51,103.383 403.857,103.034 403.533,102.682 403.205,102.329 403.533,101.625 403.205,100.921    403.205,100.22 401.906,100.921 401.576,100.921 401.248,100.921 400.925,100.573 400.925,99.867 401.576,98.815   " id="upazila_427" area="upazlia" name="rajnagar" bengali="রাজনগর" parent="moulvibazar"></polygon><polygon points="442.971,91.078 442.971,91.781 443.623,92.835 444.597,93.538 446.229,93.189 446.229,94.595    446.554,95.648 446.229,96.353 445.904,97.759 445.904,99.164 444.926,99.164 444.926,101.275 446.229,101.978 447.211,102.682    447.858,102.682 449.49,103.032 450.466,103.383 451.772,103.383 451.772,104.439 452.097,105.845 452.423,106.901    453.401,107.605 452.751,108.658 452.751,111.117 452.751,112.174 454.38,112.174 454.703,113.229 454.703,113.934    454.703,114.284 453.074,115.338 452.423,116.042 452.097,117.447 452.751,118.151 453.074,119.559 453.726,120.614    453.401,122.019 453.074,122.722 452.751,123.425 452.751,124.832 452.097,125.536 451.772,126.237 451.772,127.292    452.097,128.699 452.097,129.051 451.772,129.403 451.447,129.051 451.117,129.051 450.789,129.756 450.466,130.106    449.818,130.458 449.16,130.458 448.84,130.106 448.514,130.106 448.183,130.106 447.531,130.106 446.885,130.106    445.904,130.106 444.926,130.106 443.623,130.106 443.297,130.106 442.646,129.756 442.321,129.403 441.99,129.756    441.663,129.403 441.017,129.756 440.692,129.403 440.034,129.051 439.711,128.699 439.057,129.051 438.406,129.403    438.085,129.051 438.085,128.699 437.76,128.349 437.428,127.996 437.103,127.646 437.103,127.996 436.451,128.349    435.797,128.349 435.149,128.699 435.149,129.403 435.474,130.106 435.149,130.106 434.823,129.756 434.171,129.403    434.171,128.699 433.52,128.349 433.195,128.699 432.54,129.051 432.217,129.403 432.54,129.756 433.195,129.756 433.195,130.458    433.52,130.81 434.171,130.81 434.494,131.513 434.823,131.863 435.149,132.216 434.823,132.567 434.494,132.917 434.823,133.271    435.149,133.974 435.797,134.324 436.123,135.027 437.103,135.38 437.103,136.083 436.778,136.436 436.778,137.139    436.778,137.841 436.451,138.192 436.123,137.841 435.149,137.49 434.823,136.785 434.494,136.785 433.845,136.785    433.195,135.731 433.845,135.38 433.52,134.678 433.195,133.974 432.54,133.974 431.235,132.917 430.588,133.271 430.26,133.974    429.609,134.324 429.281,134.678 428.954,135.027 428.631,135.027 427.652,135.38 426.997,135.731 426.348,136.083    426.997,133.623 427.652,131.863 427.977,130.458 428.302,129.403 428.302,128.699 428.302,127.646 428.631,126.941    428.631,126.237 428.302,125.886 427.325,126.237 426.997,126.589 426.674,126.237 426.348,125.536 426.348,125.184    426.674,123.777 426.674,123.425 426.674,122.722 426.348,122.019 425.698,121.668 425.368,120.614 425.045,119.909    424.719,119.559 424.066,118.853 424.066,118.151 424.066,117.801 424.394,116.746 425.698,116.746 426.023,116.395    426.348,116.042 426.023,115.691 425.698,114.986 425.698,114.635 426.023,114.284 426.348,113.934 426.997,113.581    427.325,112.878 427.325,112.526 427.325,111.823 427.325,110.769 427.325,110.067 427.325,109.362 427.652,108.307    427.652,107.605 427.652,106.901 427.652,106.199 427.652,105.845 428.954,104.439 429.609,103.737 429.931,103.383    429.931,102.682 430.26,102.33 430.588,101.275 430.588,100.923 430.908,100.22 431.235,99.516 431.235,98.814 431.235,97.057    431.235,96.353 431.235,95.648 431.235,94.946 431.235,94.595 430.908,93.538 430.588,92.485 430.26,91.781 430.26,91.43    429.931,90.728 429.609,90.025 429.281,88.968 429.931,88.968 430.588,89.671 431.235,89.671 431.891,90.025 432.217,90.373    432.54,90.728 432.864,90.728 433.195,91.078 433.52,91.078 434.171,90.728 434.494,90.728 435.474,90.728 435.797,90.728    436.451,90.373 436.123,90.025 436.451,89.671 436.778,89.321 437.103,89.321 437.103,89.671 437.103,90.025 437.76,90.025    438.406,89.671 439.057,89.671 439.711,90.025 440.034,90.025 440.034,89.671 439.711,89.321 439.711,88.968 440.034,88.616    441.017,88.968 441.343,90.025 441.343,90.728 441.663,91.43 441.99,91.781 442.321,91.781 442.646,91.781   " id="upazila_425" area="upazlia" name="kulaura" bengali="কুলাউড়া" parent="moulvibazar"></polygon><polygon points="452.097,129.051 452.097,128.699 451.772,127.292 451.772,126.237 452.097,125.535    452.746,124.832 452.746,123.427 453.074,122.722 453.401,122.019 453.726,120.61 453.074,119.559 452.746,118.151    452.097,117.447 452.423,116.044 453.074,115.337 454.703,114.284 454.703,113.932 454.703,113.229 454.38,112.174    452.746,112.174 452.746,111.117 452.746,108.658 453.401,107.603 452.423,106.901 452.097,105.845 451.772,104.439    451.772,103.383 450.469,103.383 449.49,103.034 447.858,102.682 447.211,102.682 446.229,101.978 444.926,101.275    444.926,99.164 445.906,99.164 445.906,97.759 446.229,96.353 446.554,95.649 446.229,94.594 446.229,93.189 444.6,93.538    443.62,92.835 442.971,91.781 442.971,91.078 443.297,91.078 443.948,90.373 444.278,89.671 444.926,88.616 445.251,87.914    446.883,85.101 447.211,84.398 447.531,84.398 448.186,84.75 448.511,85.101 448.84,85.451 448.511,86.156 448.511,86.507    448.186,87.21 448.186,87.561 447.858,88.264 447.858,88.616 447.858,88.968 447.858,89.318 448.511,89.671 448.84,89.318    449.16,89.318 449.818,89.318 450.143,89.671 450.469,90.025 450.789,90.025 451.444,89.671 451.444,90.025 451.772,90.373    452.097,90.373 452.423,90.373 452.746,90.025 453.401,90.373 453.726,90.373 454.052,90.728 454.38,91.078 454.703,91.43    454.703,92.134 454.38,92.485 454.052,93.893 454.052,94.24 453.726,94.946 453.726,95.296 453.726,96.353 453.726,97.055    454.052,97.406 454.703,98.815 455.031,98.815 454.052,100.22 453.726,100.921 454.052,101.275 454.703,101.625 455.358,101.625    456.009,101.625 456.009,101.978 456.009,102.329 456.337,102.682 456.657,102.682 456.984,102.682 457.64,102.682    458.615,102.329 458.944,101.978 459.594,101.978 460.243,102.329 460.898,102.682 461.223,103.034 461.549,103.034    461.877,102.682 462.198,102.329 462.852,101.978 463.177,101.978 463.832,101.978 464.484,101.978 465.135,101.978    465.783,101.625 466.113,101.625 466.763,101.275 467.092,101.275 467.74,100.921 469.369,100.22 469.046,101.625    469.046,103.034 469.046,104.439 469.046,105.845 468.72,107.603 468.72,109.01 468.72,110.417 468.72,112.174 467.415,111.823    467.092,111.117 466.763,110.769 466.113,110.769 465.46,111.117 464.484,110.417 464.484,109.712 463.832,109.362    463.506,108.658 462.852,109.01 462.198,108.658 461.877,108.658 461.549,108.658 461.549,107.603 461.223,107.603    460.898,106.901 460.243,107.25 459.92,107.603 459.594,107.603 459.269,108.307 458.289,108.307 458.289,109.01 458.289,109.712    458.944,110.064 459.269,110.064 458.944,110.769 458.289,110.769 458.289,111.117 457.966,111.823 458.289,112.174    458.615,112.878 458.289,113.581 457.966,113.581 457.966,114.284 458.289,114.986 458.944,115.337 458.944,116.044    459.269,116.393 458.944,117.096 458.615,117.447 458.615,117.799 458.944,117.799 458.944,118.151 459.594,118.504    459.594,118.853 459.92,119.909 459.269,120.261 459.269,120.965 459.594,121.314 460.243,121.667 460.573,122.019    460.243,122.722 459.92,123.427 459.594,123.427 458.944,123.072 458.289,122.722 457.966,123.072 457.309,123.072    456.657,123.072 456.009,123.072 456.009,123.777 455.683,124.479 455.683,124.832 456.009,125.184 455.683,125.535    455.358,125.889 455.031,125.889 454.703,126.237 454.703,126.589 454.052,127.292 453.726,127.646 454.052,127.994    454.052,128.349 453.401,129.051 453.074,129.051 452.423,129.051   " id="upazila_471" area="upazlia" name="juri" bengali="জুড়ী" parent="moulvibazar"></polygon></svg>