<svg enable-background="new -106.403 -201.859 629.266 880.536" height="880.536px" id="district_41" viewBox="-106.403 -201.859 629.266 880.536" width="629.266px" x="0px" xml:space="preserve" xmlns="http://www.w3.org/2000/svg" y="0px"><polygon points="-45.278,27.791 -44.95,27.087 -45.278,27.087 -45.603,26.735 -45.603,26.384 -45.93,26.033    -45.93,25.679 -45.93,25.33 -45.93,24.978 -45.93,24.273 -46.256,23.922 -45.93,23.219 -45.93,22.868 -45.93,22.518    -45.93,22.164 -45.93,21.813 -46.256,21.813 -46.256,21.461 -46.256,21.11 -46.256,20.758 -46.582,20.406 -46.582,20.053    -45.93,19.704 -45.278,19.353 -44.3,18.649 -43.974,17.944 -43.648,17.944 -43.974,16.892 -43.648,16.539 -43.974,16.186    -43.974,15.836 -43.974,15.484 -43.974,15.131 -44.3,14.781 -44.3,14.429 -44.625,14.429 -44.95,14.076 -45.278,14.076    -45.278,13.726 -45.603,13.374 -45.93,13.023 -46.256,12.672 -45.93,12.319 -45.93,11.969 -46.256,11.265 -46.256,10.914    -46.256,10.209 -45.93,9.858 -45.603,9.858 -45.278,9.508 -44.95,9.858 -43.648,9.858 -42.671,9.508 -42.344,9.508 -42.344,9.156    -42.671,9.156 -42.671,8.804 -42.344,8.452 -42.344,8.102 -42.019,7.748 -42.019,7.398 -41.692,7.398 -41.366,7.398    -41.041,7.398 -40.388,7.748 -40.062,7.748 -39.737,7.748 -39.085,7.748 -38.759,7.748 -38.433,7.748 -38.759,8.452    -38.433,8.452 -37.781,8.452 -36.804,8.452 -36.477,8.452 -36.477,8.804 -36.152,8.804 -35.826,8.804 -35.174,9.156    -34.195,9.156 -33.87,9.156 -33.545,9.156 -33.545,9.508 -33.87,9.508 -34.195,9.858 -34.195,10.209 -33.87,10.209 -33.87,10.562    -33.545,10.562 -33.219,10.562 -32.893,10.209 -32.893,9.858 -32.566,9.858 -31.59,9.858 -30.936,9.858 -30.611,10.209    -30.286,10.562 -30.286,10.914 -30.611,11.616 -30.936,11.969 -30.611,12.319 -30.286,12.672 -29.633,12.672 -29.307,12.672    -28.33,12.319 -28.33,13.023 -28.004,13.374 -27.677,13.726 -27.677,14.076 -27.351,14.076 -27.026,14.076 -27.026,14.429    -27.026,15.131 -27.026,15.484 -26.698,15.836 -26.373,16.186 -25.722,16.186 -25.396,16.186 -25.396,16.539 -25.722,16.892    -25.722,17.241 -25.722,17.593 -25.722,17.944 -25.722,18.297 -26.048,18.297 -26.048,18.649 -25.722,19 -25.722,19.353    -25.722,19.704 -25.396,19.704 -25.069,20.053 -25.069,20.406 -24.744,20.758 -24.093,20.758 -23.767,21.11 -23.44,21.461    -22.464,22.164 -22.789,22.518 -23.114,22.518 -23.44,22.868 -24.093,23.219 -24.419,23.572 -24.744,23.922 -25.069,24.273    -24.744,24.273 -24.744,24.627 -24.419,24.978 -24.419,25.33 -24.419,25.679 -24.093,26.033 -23.767,26.384 -23.114,26.384    -22.789,26.735 -22.789,27.087 -22.789,27.439 -22.789,28.141 -23.114,28.141 -23.44,28.141 -23.44,28.495 -23.767,28.845    -23.44,29.548 -23.44,29.899 -23.114,30.251 -22.789,30.251 -23.114,30.603 -23.44,30.954 -23.114,31.306 -22.789,31.658    -22.464,32.008 -22.464,32.715 -22.789,33.063 -23.114,33.063 -23.44,33.415 -23.44,33.768 -24.093,33.768 -24.419,33.415    -24.744,33.768 -25.396,34.118 -26.048,34.118 -27.026,34.118 -27.351,34.118 -28.004,33.768 -28.33,34.118 -28.98,34.47    -29.307,34.47 -29.633,34.82 -29.959,34.82 -30.286,35.173 -30.611,35.525 -30.936,35.525 -31.261,35.525 -32.241,35.878    -32.241,35.525 -32.566,35.173 -32.893,34.47 -32.893,34.118 -32.893,33.415 -32.566,32.715 -32.566,32.008 -32.566,31.306    -32.566,30.954 -32.566,30.251 -32.566,29.548 -32.566,29.197 -32.893,28.495 -33.87,28.141 -34.195,28.141 -34.848,28.141    -35.174,28.141 -35.499,28.141 -36.152,27.791 -36.804,27.791 -37.456,28.141 -37.781,28.141 -38.433,28.495 -38.759,28.845    -39.085,29.197 -39.412,29.197 -39.737,29.197 -40.062,29.548 -40.388,30.251 -40.716,30.251 -41.041,29.899 -41.366,29.899    -41.692,29.548 -42.344,29.548 -42.671,29.548 -42.996,29.548 -43.321,29.548 -43.321,29.197 -42.996,28.495 -42.671,28.141    -42.671,27.791 -43.321,27.791 -43.648,27.791   " id="upazila_352" area="upazlia" name="sapahar" bengali="সাপাহার" parent="naogaon"></polygon><polygon points="-28.33,12.319 -27.677,12.319 -27.677,11.969 -27.351,11.969 -27.351,11.616 -27.026,11.616    -26.373,11.616 -26.373,11.265 -26.373,10.914 -26.373,10.209 -26.048,10.209 -25.396,10.209 -25.069,10.209 -24.744,9.858    -24.419,9.858 -23.767,9.156 -23.44,8.804 -23.114,8.452 -22.789,8.452 -22.136,8.452 -21.81,8.452 -21.16,8.452 -20.507,8.452    -20.181,8.452 -19.529,8.102 -19.204,8.452 -18.225,8.452 -17.9,8.452 -17.574,8.804 -16.922,8.804 -16.271,8.804 -15.943,9.156    -15.618,9.156 -15.293,10.209 -16.271,11.265 -15.943,11.616 -15.618,11.616 -15.293,11.969 -14.967,11.969 -15.293,12.319    -15.293,12.672 -15.293,13.023 -15.293,13.726 -14.641,14.076 -14.313,14.429 -13.988,14.781 -13.988,15.131 -13.663,15.483    -13.663,15.131 -13.663,14.781 -13.338,14.781 -13.01,15.131 -13.338,15.483 -13.338,16.186 -13.338,16.539 -13.663,18.649    -13.663,19 -13.988,19.35 -14.313,19.704 -13.988,20.053 -13.988,20.406 -13.663,20.758 -13.663,21.11 -13.988,21.461    -13.663,21.461 -13.01,21.461 -12.684,21.813 -12.359,21.813 -12.031,21.813 -11.381,21.813 -11.055,21.813 -10.728,21.461    -10.403,21.461 -10.077,21.461 -9.752,21.813 -9.425,22.164 -8.774,22.164 -8.446,22.164 -7.796,21.813 -7.47,21.813    -7.144,21.813 -6.492,21.813 -5.841,22.164 -5.513,22.164 -5.188,22.164 -4.862,22.518 -4.212,22.518 -3.885,22.868    -3.558,23.219 -3.558,23.572 -3.558,23.922 -3.558,24.273 -3.558,24.625 -3.558,24.978 -3.233,24.978 -2.906,24.978 -2.581,25.33    -2.255,24.978 -1.604,24.625 -1.604,24.273 -1.604,23.572 -1.277,23.219 -0.951,22.868 -0.626,22.868 0.027,22.868 0.353,23.219    1.005,23.219 1.33,22.868 1.656,22.518 2.309,22.164 2.96,22.518 3.285,22.868 3.285,23.219 3.613,23.572 4.589,23.572    4.914,23.922 5.242,23.922 5.242,24.273 5.242,24.625 5.242,24.978 5.242,25.33 5.568,25.33 5.568,25.679 5.242,26.033    4.914,26.384 4.264,26.735 3.939,26.735 3.613,27.087 3.613,27.439 3.285,27.791 3.285,28.141 2.96,28.495 2.96,28.845    2.96,29.197 3.285,29.548 3.613,29.548 3.939,29.899 4.264,30.251 3.939,30.603 4.264,30.954 4.914,30.603 5.893,30.954    6.545,30.603 6.871,30.603 7.524,30.603 8.175,30.603 8.5,30.603 8.827,30.251 9.478,29.899 9.806,29.899 10.131,29.899    10.781,30.251 11.435,30.603 11.761,30.603 12.411,30.954 12.739,31.306 12.739,31.658 12.739,32.008 13.065,32.715 13.39,33.063    13.715,33.415 14.042,33.415 14.368,33.768 15.346,34.47 15.671,35.173 15.671,35.525 15.346,35.878 15.019,35.878 15.019,36.228    15.346,36.93 15.671,37.635 15.997,37.986 16.324,38.338 16.324,38.69 16.65,39.042 16.324,39.042 15.997,39.393 15.671,39.393    15.671,39.744 15.671,40.095 15.346,40.449 15.019,40.449 14.694,40.095 14.694,39.744 14.368,39.393 14.042,39.393 13.39,39.393    12.739,39.042 12.086,39.042 11.435,38.69 11.435,38.338 11.435,37.986 10.781,37.635 10.456,37.635 9.806,37.284 9.153,37.284    8.175,37.635 7.524,37.986 6.871,37.986 5.893,38.338 5.568,38.338 4.914,37.986 4.589,37.986 3.613,37.986 2.96,37.986    2.309,37.986 1.982,37.635 1.33,37.284 1.005,37.284 0.68,37.284 0.353,37.284 -0.299,37.284 -0.626,37.284 -0.951,37.284    -1.277,37.284 -1.929,36.581 -2.255,36.581 -2.581,36.581 -2.906,36.581 -3.233,36.228 -3.558,36.581 -3.558,37.284    -3.233,37.635 -3.233,37.986 -3.558,38.69 -3.885,38.69 -4.537,39.042 -4.862,39.042 -5.513,39.042 -5.841,38.69 -6.492,38.69    -6.817,38.69 -7.47,38.338 -7.796,38.338 -8.121,37.635 -8.774,37.284 -9.099,37.284 -9.425,37.635 -9.752,37.635 -9.752,37.284    -10.077,36.93 -10.403,36.93 -10.728,36.93 -10.728,37.284 -10.403,37.986 -10.403,38.338 -10.728,39.042 -11.055,39.042    -11.707,39.042 -12.359,38.69 -13.01,38.69 -13.338,38.69 -13.663,39.042 -13.988,39.744 -14.313,40.8 -14.641,40.8    -14.967,40.449 -15.293,40.449 -15.943,40.449 -16.596,40.449 -16.922,40.449 -17.574,40.095 -18.225,39.744 -18.552,39.744    -18.878,39.393 -19.204,39.393 -20.507,38.338 -20.833,37.986 -21.16,37.635 -21.485,37.284 -21.485,36.93 -21.81,36.93    -22.136,36.581 -22.464,35.878 -22.464,35.525 -22.136,34.82 -21.81,34.82 -21.485,34.47 -21.485,34.118 -21.485,33.768    -21.81,33.415 -22.136,33.063 -22.464,32.715 -22.464,32.008 -22.789,31.658 -23.114,31.306 -23.44,30.954 -23.114,30.603    -22.789,30.251 -23.114,30.251 -23.44,29.899 -23.44,29.548 -23.767,28.845 -23.44,28.495 -23.44,28.141 -23.114,28.141    -22.789,28.141 -22.789,27.439 -22.789,27.087 -22.789,26.735 -23.114,26.384 -23.767,26.384 -24.093,26.033 -24.419,25.679    -24.419,25.33 -24.419,24.978 -24.744,24.625 -24.744,24.273 -25.069,24.273 -24.744,23.922 -24.419,23.572 -24.093,23.219    -23.44,22.868 -23.114,22.518 -22.789,22.518 -22.464,22.164 -23.44,21.461 -23.767,21.11 -24.093,20.758 -24.744,20.758    -25.069,20.406 -25.069,20.053 -25.396,19.704 -25.722,19.704 -25.722,19.35 -25.722,19 -26.048,18.649 -26.048,18.297    -25.722,18.297 -25.722,17.944 -25.722,17.593 -25.722,17.241 -25.722,16.892 -25.396,16.539 -25.396,16.186 -25.722,16.186    -26.373,16.186 -26.698,15.836 -27.026,15.483 -27.026,15.131 -27.026,14.429 -27.026,14.076 -27.351,14.076 -27.677,14.076    -27.677,13.726 -28.004,13.374 -28.33,13.023   " id="upazila_349" area="upazlia" name="patnitala" bengali="পত্নিতলা" parent="naogaon"></polygon><polygon points="-15.618,9.155 -14.641,8.806 -14.313,8.452 -14.313,8.102 -13.988,7.75 -13.663,7.75    -13.338,7.75 -12.684,7.75 -12.032,7.75 -11.707,8.102 -11.055,8.102 -10.728,7.75 -10.403,7.75 -9.752,8.102 -9.425,8.452    -8.774,8.806 -8.446,8.806 -7.796,9.155 -7.47,9.155 -7.144,9.155 -6.817,9.508 -6.817,9.858 -6.817,10.21 -6.817,10.914    -6.817,11.266 -6.492,11.266 -6.166,11.266 -5.841,11.266 -5.188,11.266 -4.862,11.617 -4.537,12.319 -4.537,12.673    -4.212,12.319 -3.884,11.969 -3.558,11.617 -3.558,11.266 -2.908,11.266 -2.581,11.266 -2.255,11.266 -1.929,11.266    -1.929,10.914 -1.604,10.562 -1.604,10.914 -1.277,10.914 -1.277,11.266 -1.277,11.617 -0.951,11.969 -0.951,12.319    -0.626,12.319 0.027,12.319 0.353,12.673 0.68,12.673 1.33,13.023 2.309,13.374 2.635,13.374 2.96,13.374 2.96,13.023    3.285,13.023 3.613,13.023 3.939,13.023 4.264,12.673 4.264,12.319 4.589,11.266 5.242,10.562 5.893,10.21 6.22,9.858 6.22,9.155    6.22,8.806 6.22,8.452 6.545,8.102 6.871,8.102 7.524,7.75 7.849,7.75 8.175,7.75 8.5,7.75 8.827,8.102 8.827,8.452 9.478,9.155    10.131,9.155 11.108,9.155 11.108,9.508 11.108,9.858 11.108,10.21 11.108,10.562 11.435,10.562 11.761,10.562 12.086,10.562    12.411,10.914 12.411,11.266 12.411,11.969 13.065,11.969 14.042,11.969 14.368,12.319 14.368,11.969 14.368,11.617    14.368,11.266 14.694,11.266 15.021,11.617 15.346,11.617 15.671,11.617 15.997,11.969 16.324,11.969 17.301,12.319    17.301,12.673 17.628,13.023 17.628,13.374 17.628,13.727 17.953,13.727 18.279,14.076 18.932,14.076 18.932,14.781    18.932,15.484 18.932,16.186 18.605,16.892 18.932,16.892 18.932,17.241 19.257,17.241 19.582,17.595 19.582,17.946    19.257,18.649 18.932,19 19.257,19.353 19.257,19.703 19.582,19.703 19.908,20.053 20.561,20.758 20.887,21.11 20.887,21.815    21.212,22.518 21.212,23.221 21.212,24.275 20.887,25.682 20.234,26.738 20.234,27.439 19.908,28.142 20.234,28.495    20.561,29.197 20.561,29.548 20.887,30.251 21.212,30.251 21.537,30.604 21.537,30.955 21.865,31.306 21.537,31.658    21.537,32.008 21.537,32.361 20.561,33.416 20.234,33.766 19.582,34.118 19.582,34.47 19.908,34.822 19.908,35.525 19.582,35.525    19.257,35.879 18.605,35.879 18.279,35.525 17.953,35.173 17.953,34.822 17.628,34.47 17.301,34.118 16.65,33.766 16.324,33.416    15.671,33.416 15.671,33.766 15.346,33.766 15.346,34.47 14.368,33.766 14.042,33.416 13.715,33.416 13.39,33.065 13.065,32.715    12.74,32.008 12.74,31.658 12.74,31.306 12.411,30.955 11.761,30.604 11.435,30.604 10.781,30.251 10.131,29.899 9.806,29.899    9.478,29.899 8.827,30.251 8.5,30.604 8.175,30.604 7.524,30.604 6.871,30.604 6.545,30.604 5.893,30.955 4.914,30.604    4.264,30.955 3.939,30.604 4.264,30.251 3.939,29.899 3.613,29.548 3.285,29.548 2.96,29.197 2.96,28.844 2.96,28.495    3.285,28.142 3.285,27.791 3.613,27.439 3.613,27.087 3.939,26.738 4.264,26.738 4.914,26.382 5.242,26.033 5.568,25.682    5.568,25.33 5.242,25.33 5.242,24.978 5.242,24.625 5.242,24.275 5.242,23.921 4.914,23.921 4.589,23.572 3.613,23.572    3.285,23.221 3.285,22.87 2.96,22.518 2.309,22.163 1.656,22.518 1.33,22.87 1.005,23.221 0.353,23.221 0.027,22.87 -0.626,22.87    -0.951,22.87 -1.277,23.221 -1.604,23.572 -1.604,24.275 -1.604,24.625 -2.255,24.978 -2.581,25.33 -2.908,24.978 -3.233,24.978    -3.558,24.978 -3.558,24.625 -3.558,24.275 -3.558,23.921 -3.558,23.572 -3.558,23.221 -3.884,22.87 -4.212,22.518 -4.862,22.518    -5.188,22.163 -5.513,22.163 -5.841,22.163 -6.492,21.815 -7.144,21.815 -7.47,21.815 -7.796,21.815 -8.446,22.163 -8.774,22.163    -9.425,22.163 -9.752,21.815 -10.077,21.46 -10.403,21.46 -10.728,21.46 -11.055,21.815 -11.381,21.815 -12.032,21.815    -12.359,21.815 -12.684,21.815 -13.01,21.46 -13.663,21.46 -13.988,21.46 -13.663,21.11 -13.663,20.758 -13.988,20.407    -13.988,20.053 -14.313,19.703 -13.988,19.353 -13.663,19 -13.663,18.649 -13.338,16.54 -13.338,16.186 -13.338,15.484    -13.01,15.133 -13.338,14.781 -13.663,14.781 -13.663,15.133 -13.663,15.484 -13.988,15.133 -13.988,14.781 -14.313,14.429    -14.641,14.076 -15.292,13.727 -15.292,13.023 -15.292,12.673 -15.292,12.319 -14.967,11.969 -15.292,11.969 -15.618,11.617    -15.943,11.617 -16.271,11.266 -15.292,10.21   " id="upazila_344" area="upazlia" name="dhamoirhat" bengali="ধামইরহাট" parent="naogaon"></polygon><polygon points="-45.278,27.791 -43.648,27.791 -43.321,27.791 -42.671,27.791 -42.671,28.141 -42.996,28.495    -43.321,29.197 -43.321,29.548 -42.996,29.548 -42.671,29.548 -42.344,29.548 -41.692,29.548 -41.366,29.899 -41.041,29.899    -40.716,30.251 -40.388,30.251 -40.062,29.548 -39.737,29.197 -39.412,29.197 -39.085,29.197 -38.759,28.845 -38.433,28.495    -37.781,28.141 -37.456,28.141 -36.804,27.791 -36.152,27.791 -35.499,28.141 -35.174,28.141 -34.848,28.141 -34.195,28.141    -33.87,28.141 -32.893,28.495 -32.566,29.197 -32.566,29.548 -32.566,30.251 -32.566,30.954 -32.566,31.306 -32.566,32.008    -32.566,32.715 -32.893,33.415 -32.893,34.118 -32.893,34.47 -32.566,35.173 -32.241,35.525 -32.241,35.878 -31.261,35.525    -30.936,35.525 -30.611,35.525 -30.286,35.173 -29.959,34.82 -29.633,34.82 -29.307,34.47 -28.98,34.47 -28.33,34.118    -28.004,33.768 -27.351,34.118 -27.026,34.118 -26.048,34.118 -25.396,34.118 -24.744,33.768 -24.419,33.415 -24.093,33.768    -23.44,33.768 -23.44,33.415 -23.114,33.063 -22.789,33.063 -22.464,32.715 -22.136,33.063 -21.81,33.415 -21.485,33.768    -21.485,34.118 -21.485,34.47 -21.81,34.82 -22.136,34.82 -22.464,35.525 -22.464,35.878 -22.136,36.581 -21.81,36.93    -21.485,36.93 -21.485,37.284 -21.16,37.635 -20.833,37.986 -20.507,38.338 -20.833,38.69 -20.181,39.042 -19.856,39.393    -19.856,39.744 -19.529,40.095 -19.204,40.095 -19.204,40.449 -19.204,40.8 -19.204,41.15 -19.204,41.504 -19.529,41.854    -19.856,42.206 -19.856,42.557 -19.856,42.91 -19.856,43.262 -19.529,43.611 -19.204,43.962 -19.529,44.316 -19.856,44.316    -19.856,44.667 -19.856,45.019 -19.856,45.722 -20.181,45.722 -21.16,45.372 -21.485,45.372 -21.485,45.722 -21.485,46.073    -21.81,46.424 -22.136,46.777 -22.464,46.777 -22.789,46.424 -23.114,46.073 -23.44,46.073 -23.767,46.073 -24.093,45.722    -24.419,45.372 -25.396,44.316 -25.722,43.962 -26.048,43.611 -26.048,42.91 -26.048,42.557 -26.373,42.206 -26.698,42.206    -27.026,42.206 -27.351,42.557 -27.026,42.91 -27.026,43.262 -27.351,43.262 -27.677,42.91 -28.004,42.91 -28.004,43.262    -28.33,43.611 -28.33,43.962 -28.33,44.316 -28.004,44.316 -27.677,43.962 -27.351,43.962 -26.698,43.962 -26.048,44.316    -26.048,44.667 -26.373,45.019 -26.048,45.372 -25.722,45.372 -25.722,45.722 -25.396,45.722 -25.396,46.073 -25.722,46.073    -26.048,46.424 -26.373,46.424 -26.698,46.073 -27.026,46.424 -27.351,46.777 -27.351,47.129 -27.677,47.479 -28.33,47.479    -28.655,47.479 -28.98,47.479 -29.307,47.831 -29.633,48.183 -29.959,48.183 -30.286,48.183 -30.611,48.183 -30.936,48.535    -31.261,48.535 -31.59,48.886 -31.915,48.886 -32.241,48.535 -32.241,48.183 -32.566,48.183 -32.893,48.183 -33.219,47.831    -33.219,47.479 -33.545,46.777 -33.545,46.424 -33.87,46.073 -34.195,45.722 -34.523,45.372 -34.523,44.667 -34.523,43.962    -34.195,43.611 -34.523,43.262 -34.523,42.91 -34.848,42.91 -35.174,42.91 -35.499,43.262 -35.826,43.611 -36.152,43.962    -36.152,44.316 -36.477,44.667 -36.477,45.019 -36.477,45.372 -36.804,46.073 -36.477,46.073 -36.152,46.424 -35.826,46.424    -35.826,46.777 -35.826,47.129 -35.499,47.479 -35.499,47.831 -35.499,48.535 -35.174,48.886 -34.848,49.238 -34.848,49.59    -35.174,49.59 -35.826,49.94 -35.826,50.293 -36.152,50.644 -36.477,50.995 -36.477,51.347 -36.477,51.7 -35.826,52.05    -35.826,52.402 -36.152,52.752 -36.477,52.752 -37.13,52.402 -37.456,52.402 -38.108,52.402 -38.433,52.05 -38.759,52.402    -39.412,52.05 -39.737,49.94 -40.062,49.59 -40.388,48.886 -41.041,48.535 -41.366,48.183 -42.019,47.831 -42.344,47.479    -42.996,47.831 -43.974,47.831 -44.3,48.183 -44.625,48.183 -44.95,48.535 -44.95,48.886 -44.625,49.59 -44.625,49.94    -44.95,50.293 -45.603,50.293 -46.256,49.94 -46.582,49.59 -47.559,49.238 -47.885,48.535 -47.885,47.831 -47.559,46.777    -47.559,46.073 -47.234,45.722 -47.234,45.019 -47.559,44.667 -47.885,43.962 -48.538,43.611 -49.189,43.611 -49.516,43.611    -49.842,43.262 -50.167,43.962 -50.818,43.962 -51.471,43.962 -51.797,43.962 -52.775,44.667 -53.1,44.316 -53.1,43.962    -52.775,43.611 -52.775,43.262 -52.447,42.91 -52.122,42.91 -51.797,42.557 -51.471,42.206 -51.145,42.206 -50.818,42.206    -50.818,42.557 -50.493,42.557 -50.167,42.557 -49.842,42.557 -49.842,42.206 -50.167,41.854 -50.167,41.504 -49.842,41.15    -50.167,40.8 -50.493,40.8 -50.493,40.449 -50.493,40.095 -50.493,39.393 -50.167,39.042 -49.842,39.042 -49.516,38.69    -49.516,38.338 -49.189,37.986 -48.863,37.635 -48.538,37.635 -48.213,37.635 -47.559,37.635 -47.234,37.635 -47.234,37.284    -46.909,36.93 -46.909,36.581 -46.909,35.878 -46.582,35.525 -46.582,35.173 -46.256,34.82 -45.93,34.82 -45.93,34.118    -45.93,33.768 -45.603,33.768 -45.278,33.768 -44.95,33.415 -44.95,33.063 -44.95,32.715 -45.278,32.715 -45.603,32.361    -46.256,32.361 -46.582,32.361 -46.909,32.361 -47.234,31.658 -47.234,31.306 -47.234,30.603 -47.234,30.251 -46.582,29.899    -46.256,29.548 -46.256,29.197 -46.256,28.845 -45.93,28.141   " id="upazila_350" area="upazlia" name="porsha" bengali="পোরশা" parent="naogaon"></polygon><polygon points="-39.412,52.05 -38.759,52.402 -38.433,52.05 -38.108,52.402 -37.456,52.402 -37.13,52.402    -36.477,52.754 -36.152,52.754 -35.826,52.402 -35.826,52.05 -36.477,51.7 -36.477,51.347 -36.477,50.995 -36.152,50.644    -35.826,50.294 -35.826,49.94 -35.174,49.59 -34.848,49.59 -34.848,49.238 -35.174,48.887 -35.499,48.535 -35.499,47.831    -35.499,47.479 -35.826,47.129 -35.826,46.777 -35.826,46.427 -36.152,46.427 -36.477,46.073 -36.804,46.073 -36.477,45.372    -36.477,45.02 -36.477,44.667 -36.152,44.316 -36.152,43.965 -35.826,43.611 -35.499,43.262 -35.174,42.91 -34.848,42.91    -34.523,42.91 -34.523,43.262 -34.195,43.611 -34.523,43.965 -34.523,44.667 -34.523,45.372 -34.195,45.722 -33.87,46.073    -33.545,46.427 -33.545,46.777 -33.219,47.479 -33.219,47.831 -32.893,48.183 -32.566,48.183 -32.241,48.183 -32.241,48.535    -31.915,48.887 -31.59,48.887 -31.262,48.535 -30.936,48.535 -30.611,48.183 -30.286,48.183 -29.961,48.183 -29.633,48.183    -29.307,47.831 -28.982,47.479 -28.657,47.479 -28.33,47.479 -27.678,47.479 -27.353,47.129 -27.353,46.777 -27.026,46.427    -26.698,46.073 -26.375,46.427 -26.048,46.427 -25.722,46.073 -25.397,46.073 -25.397,45.722 -25.722,45.722 -25.722,45.372    -26.048,45.372 -26.375,45.02 -26.048,44.667 -26.048,44.316 -26.698,43.965 -27.353,43.965 -27.678,43.965 -28.004,44.316    -28.33,44.316 -28.33,43.965 -28.33,43.611 -28.004,43.262 -28.004,42.91 -27.678,42.91 -27.353,43.262 -27.026,43.262    -27.026,42.91 -27.353,42.56 -27.026,42.206 -26.698,42.206 -26.375,42.206 -26.048,42.56 -26.048,42.91 -26.048,43.611    -25.722,43.965 -25.397,44.316 -24.419,45.372 -24.093,45.722 -23.767,46.073 -23.44,46.073 -23.114,46.073 -22.789,46.427    -22.464,46.777 -22.136,46.777 -21.81,46.427 -21.485,46.073 -21.485,45.722 -21.485,45.372 -21.16,45.372 -20.181,45.722    -20.181,46.427 -20.181,46.777 -19.856,47.129 -19.856,47.479 -19.529,47.479 -19.204,47.479 -18.878,47.831 -18.552,47.831    -18.552,48.183 -18.878,48.183 -18.878,48.535 -18.552,48.887 -18.225,48.887 -17.9,48.535 -17.9,48.887 -17.9,49.238    -17.574,49.59 -17.574,49.94 -17.574,50.294 -17.247,50.294 -16.922,50.644 -16.596,50.644 -16.596,50.995 -16.922,51.7    -16.922,52.05 -17.247,52.402 -17.247,52.754 -17.247,53.105 -17.247,53.457 -17.247,53.807 -16.922,53.457 -16.596,53.457    -16.596,54.161 -17.247,54.161 -17.574,54.513 -17.574,54.864 -17.574,55.214 -17.574,55.568 -17.9,55.917 -17.9,56.271    -18.225,56.271 -17.9,56.622 -17.9,57.325 -18.225,57.675 -18.552,58.028 -18.552,58.381 -18.552,59.437 -18.225,59.786    -17.9,60.138 -17.574,60.489 -17.247,60.489 -16.922,60.489 -16.596,60.842 -16.596,61.193 -16.271,61.543 -16.271,62.249    -16.271,62.599 -15.943,62.599 -15.943,62.951 -15.943,63.302 -15.943,63.654 -16.271,64.004 -16.596,64.004 -16.596,63.654    -16.922,63.302 -16.922,62.951 -17.247,62.599 -17.574,62.249 -17.574,61.896 -17.9,61.543 -18.225,61.896 -18.878,61.896    -19.204,61.896 -19.529,61.896 -19.856,61.543 -20.181,61.896 -20.181,62.599 -20.181,62.951 -20.181,63.302 -20.181,63.654    -19.856,64.004 -19.856,64.356 -20.181,64.709 -20.833,65.061 -20.833,65.412 -21.16,65.763 -20.833,66.116 -21.16,66.466    -20.833,66.818 -20.507,67.17 -20.181,67.521 -19.856,67.872 -19.856,68.225 -20.181,68.576 -20.507,68.576 -21.16,68.576    -21.485,68.927 -21.485,69.279 -21.485,69.631 -21.485,69.982 -22.136,69.982 -22.464,70.334 -22.789,70.684 -22.789,71.039    -22.464,71.389 -22.136,71.389 -22.464,71.741 -22.464,72.093 -22.464,72.446 -22.464,73.148 -22.464,73.499 -22.136,73.499    -21.81,73.85 -21.81,74.553 -21.485,74.553 -21.16,74.905 -21.16,75.257 -21.16,75.607 -21.485,75.96 -21.81,76.662    -22.464,77.014 -22.789,77.368 -23.114,77.368 -23.44,77.717 -23.767,78.07 -24.093,78.07 -24.744,78.07 -25.069,78.07    -25.397,78.07 -25.722,78.42 -25.722,78.773 -26.048,79.125 -25.722,79.475 -25.722,80.18 -25.397,80.531 -25.722,80.882    -25.722,81.234 -26.048,81.586 -26.048,81.938 -26.375,82.288 -26.375,83.343 -26.375,84.048 -27.026,84.398 -27.353,84.75    -27.678,85.102 -28.004,85.452 -28.657,85.452 -28.982,85.102 -28.982,84.75 -28.982,84.048 -28.657,83.694 -28.33,83.343    -28.982,82.993 -29.307,82.641 -29.961,82.288 -30.286,81.938 -30.611,81.938 -31.915,81.938 -32.241,81.938 -32.893,82.288    -33.219,81.938 -33.87,81.938 -34.523,81.586 -35.174,81.234 -35.826,81.234 -36.804,80.882 -37.456,80.531 -37.456,80.18    -37.781,79.125 -37.781,78.773 -37.781,78.42 -37.456,78.07 -37.456,77.717 -37.781,77.717 -38.759,77.368 -39.412,77.014    -39.737,77.014 -40.062,77.368 -40.062,77.717 -40.716,77.717 -41.042,77.717 -41.367,77.368 -42.019,77.368 -42.671,77.717    -42.996,78.07 -43.323,78.07 -43.649,77.717 -43.974,77.014 -43.649,76.662 -43.323,76.313 -43.323,75.607 -43.649,75.257    -43.974,75.257 -44.3,74.905 -44.627,74.553 -44.3,74.203 -43.649,73.85 -43.323,73.85 -42.996,73.499 -42.345,73.85    -42.019,73.85 -42.019,74.203 -42.019,74.553 -42.019,74.905 -42.019,75.607 -41.692,75.607 -41.042,75.96 -40.388,75.96    -40.388,75.607 -40.062,75.607 -39.737,75.257 -39.737,74.905 -40.062,74.553 -39.737,73.85 -39.737,73.499 -39.412,73.148    -39.412,72.446 -39.412,72.093 -40.062,72.446 -40.388,72.446 -40.716,72.093 -41.042,71.741 -41.367,71.741 -41.692,72.093    -41.692,72.446 -41.692,73.148 -42.019,73.148 -42.345,73.148 -42.671,72.794 -42.996,72.446 -43.649,72.446 -43.974,72.093    -44.3,71.741 -44.3,71.389 -44.627,71.039 -45.278,71.039 -45.605,71.039 -46.256,71.039 -46.909,71.039 -47.234,71.039    -47.559,71.389 -47.885,71.741 -48.213,72.093 -48.863,72.093 -49.516,72.446 -50.167,72.446 -50.167,72.093 -50.167,71.741    -49.842,71.389 -49.516,70.684 -49.189,70.334 -48.863,69.982 -48.538,69.631 -48.213,69.631 -47.885,69.982 -47.559,69.982    -47.885,69.279 -47.885,68.576 -47.559,68.225 -47.559,67.521 -47.234,67.17 -46.909,67.17 -46.582,67.17 -46.582,66.466    -46.582,65.763 -46.256,65.412 -45.93,65.061 -46.256,65.061 -46.582,65.061 -47.234,65.061 -47.559,65.412 -47.559,65.763    -48.213,65.763 -48.538,65.412 -48.538,65.061 -48.863,64.709 -49.189,65.061 -49.516,65.061 -50.167,65.061 -50.493,65.061    -50.493,64.709 -50.493,64.004 -50.167,63.302 -49.842,63.302 -49.842,62.599 -50.167,62.249 -50.167,62.599 -50.167,62.951    -50.818,63.302 -51.145,63.302 -51.797,63.654 -51.797,63.302 -52.122,62.951 -52.447,62.599 -51.797,62.599 -51.471,62.599    -51.471,61.896 -51.471,61.543 -51.471,61.193 -51.145,61.193 -50.818,61.543 -50.167,61.543 -49.842,61.193 -49.842,60.842    -49.516,61.193 -48.863,61.543 -48.863,61.896 -48.863,62.249 -48.538,62.249 -48.213,62.599 -47.559,62.599 -47.559,61.896    -46.909,61.543 -46.582,61.543 -45.93,61.543 -45.278,61.543 -44.952,61.543 -44.952,60.842 -45.605,60.489 -46.256,60.138    -46.582,59.786 -46.256,59.437 -45.278,59.083 -44.627,59.437 -44.3,59.786 -43.974,60.489 -43.323,61.193 -43.323,61.543    -42.671,61.543 -42.345,61.193 -42.345,60.489 -42.345,59.786 -42.345,59.083 -42.345,58.731 -41.367,58.028 -41.042,57.675    -40.716,56.974 -40.388,56.271 -40.062,55.917 -40.062,55.568 -40.062,55.214 -40.388,54.513 -40.388,53.807 -40.716,53.457    -41.042,53.457 -41.042,53.105 -40.716,52.402 -40.388,52.402   " id="upazila_348" area="upazlia" name="niamatpur" bengali="নিয়ামতপুর" parent="naogaon"></polygon><polygon points="-17.9,57.325 -17.572,57.325 -17.247,57.675 -17.247,58.028 -16.921,58.028 -16.595,58.381    -16.271,58.381 -15.942,58.731 -15.618,58.731 -15.292,58.381 -15.292,58.028 -14.967,57.675 -14.638,57.325 -14.313,56.974    -13.989,56.974 -13.661,56.974 -13.01,57.325 -12.357,57.325 -12.032,57.675 -11.709,58.028 -11.055,58.028 -10.405,58.028    -10.075,58.028 -9.75,58.028 -9.427,58.381 -9.098,58.731 -8.774,59.083 -8.774,59.786 -9.098,60.138 -8.774,60.489    -8.446,60.842 -8.123,60.842 -8.446,61.193 -8.774,61.543 -9.427,61.543 -9.75,61.896 -10.075,61.896 -10.075,62.249    -10.405,62.599 -10.728,63.302 -11.379,63.654 -11.379,64.004 -11.379,64.356 -11.055,64.356 -10.728,64.709 -10.728,65.061    -10.728,65.412 -11.055,66.116 -10.405,65.763 -10.075,65.763 -9.75,65.763 -9.427,66.466 -9.427,66.818 -9.098,66.818    -8.774,66.818 -8.446,67.17 -8.123,67.17 -7.795,67.17 -7.469,66.818 -7.142,66.466 -7.469,66.116 -7.795,65.763 -7.795,65.412    -7.795,64.709 -7.469,64.356 -7.469,64.004 -7.142,64.004 -7.142,64.356 -7.142,64.709 -7.142,65.061 -6.817,65.412    -6.492,65.412 -5.841,65.412 -5.512,65.412 -4.862,65.412 -4.535,65.061 -4.535,64.709 -4.212,64.356 -4.212,63.654    -4.212,63.302 -3.884,62.951 -3.558,62.599 -3.558,62.249 -3.231,61.896 -2.906,61.543 -2.253,61.896 -1.929,61.896    -1.277,61.896 -0.624,61.896 0.028,62.249 0.028,62.599 0.68,62.599 1.005,62.951 1.005,63.302 1.331,63.654 1.331,64.004    1.331,64.709 1.656,65.061 1.982,65.412 1.982,65.763 1.982,66.466 1.982,67.17 1.982,67.521 1.656,67.872 1.656,68.225    1.656,68.576 1.982,68.927 1.656,69.279 1.331,69.279 1.005,69.279 1.005,69.631 1.005,69.982 1.331,70.684 1.331,71.039    1.656,71.039 1.982,71.039 2.31,71.389 2.31,71.741 1.982,71.741 1.982,72.093 1.656,72.446 1.982,72.794 2.31,72.794    2.634,72.794 2.96,72.794 2.96,73.148 2.96,73.499 3.285,73.499 3.939,73.499 3.939,73.85 3.939,74.203 3.939,74.553    4.264,74.905 4.591,75.257 4.591,75.607 4.264,75.607 3.939,75.607 3.939,75.96 3.939,76.313 3.939,76.662 3.939,77.014    4.264,77.717 4.591,77.717 4.914,77.368 5.242,77.368 5.568,77.368 5.895,78.07 5.895,78.42 6.218,78.42 6.545,78.42 6.873,78.42    7.197,78.773 7.197,79.125 7.524,79.475 7.849,79.826 7.849,79.475 8.177,79.475 8.5,79.475 8.828,79.475 8.828,80.18 8.5,80.882    8.5,81.234 8.177,81.586 8.5,82.288 8.177,82.641 8.177,83.343 8.177,84.398 8.177,84.75 8.5,85.102 8.5,85.452 8.177,85.804    8.177,86.156 7.524,86.156 7.524,85.804 6.873,85.452 6.873,85.804 6.545,85.804 6.545,86.156 6.218,86.156 5.895,86.508    5.242,86.859 4.914,86.859 3.939,86.508 2.96,86.508 2.634,86.156 2.634,85.452 2.634,85.102 2.31,84.75 2.31,84.398    1.656,84.398 1.005,84.398 0.68,84.75 0.352,85.102 0.352,85.452 -0.299,85.804 -0.949,86.156 -1.277,86.156 -1.602,86.859    -1.929,86.859 -2.253,86.859 -2.906,86.859 -3.558,86.859 -3.884,86.508 -4.535,85.804 -5.187,85.452 -5.512,85.102    -5.841,85.102 -6.492,85.452 -6.492,85.804 -6.492,86.156 -6.492,86.859 -6.492,87.21 -6.817,87.561 -7.142,87.561 -7.795,87.561    -8.123,87.915 -8.446,87.915 -8.774,87.915 -8.774,87.561 -9.098,86.859 -9.427,86.859 -9.75,87.21 -10.075,87.561    -10.728,87.561 -11.055,87.915 -11.379,88.265 -11.055,88.616 -11.055,88.969 -11.055,89.321 -11.055,90.025 -11.379,90.375    -12.032,90.728 -12.032,91.078 -11.709,91.43 -11.055,91.43 -11.055,91.782 -11.055,92.135 -11.055,92.485 -11.379,92.485    -11.709,92.485 -12.032,92.837 -12.685,92.837 -12.357,92.837 -12.357,92.135 -12.685,91.782 -13.01,91.782 -13.338,91.43    -13.661,91.43 -13.989,91.782 -14.638,92.135 -14.967,91.782 -15.292,92.135 -15.618,92.135 -16.595,92.837 -17.247,93.189    -17.572,93.189 -17.572,92.837 -17.9,92.837 -17.9,92.485 -18.224,92.485 -18.552,92.485 -18.552,93.189 -18.876,93.538    -19.201,93.892 -19.531,94.242 -19.854,94.242 -20.507,93.892 -20.835,93.189 -21.158,92.837 -21.485,92.485 -21.811,91.782    -21.811,91.43 -21.485,91.43 -21.158,91.078 -21.485,90.728 -21.485,90.025 -21.811,89.321 -21.811,88.969 -21.811,88.616    -21.811,87.915 -21.485,87.561 -21.158,87.561 -21.158,87.21 -21.158,86.508 -21.485,86.156 -21.811,86.156 -22.135,85.804    -22.135,85.452 -22.135,85.102 -22.135,84.398 -21.811,84.398 -21.485,84.048 -21.485,83.694 -21.811,82.993 -22.135,82.993    -22.464,82.993 -22.789,82.993 -22.789,82.641 -23.115,82.288 -23.764,82.288 -24.418,82.288 -24.744,82.641 -25.397,82.641    -26.047,82.641 -26.375,83.343 -26.375,82.288 -26.047,81.938 -26.047,81.586 -25.721,81.234 -25.721,80.882 -25.397,80.531    -25.721,80.18 -25.721,79.475 -26.047,79.125 -25.721,78.773 -25.721,78.42 -25.397,78.07 -25.069,78.07 -24.744,78.07    -24.094,78.07 -23.764,78.07 -23.439,77.717 -23.115,77.368 -22.789,77.368 -22.464,77.014 -21.811,76.662 -21.485,75.96    -21.158,75.607 -21.158,75.257 -21.158,74.905 -21.485,74.553 -21.811,74.553 -21.811,73.85 -22.135,73.499 -22.464,73.499    -22.464,73.148 -22.464,72.446 -22.464,72.093 -22.464,71.741 -22.135,71.389 -22.464,71.389 -22.789,71.039 -22.789,70.684    -22.464,70.334 -22.135,69.982 -21.485,69.982 -21.485,69.631 -21.485,69.279 -21.485,68.927 -21.158,68.576 -20.507,68.576    -20.181,68.576 -19.854,68.225 -19.854,67.872 -20.181,67.521 -20.507,67.17 -20.835,66.818 -21.158,66.466 -20.835,66.116    -21.158,65.763 -20.835,65.412 -20.835,65.061 -20.181,64.709 -19.854,64.356 -19.854,64.004 -20.181,63.654 -20.181,63.302    -20.181,62.951 -20.181,62.599 -20.181,61.896 -19.854,61.543 -19.531,61.896 -19.201,61.896 -18.876,61.896 -18.224,61.896    -17.9,61.543 -17.572,61.896 -17.572,62.249 -17.247,62.599 -16.921,62.951 -16.921,63.302 -16.595,63.654 -16.595,64.004    -16.271,64.004 -15.942,63.654 -15.942,63.302 -15.942,62.951 -15.942,62.599 -16.271,62.599 -16.271,62.249 -16.271,61.543    -16.595,61.193 -16.595,60.842 -16.921,60.489 -17.247,60.489 -17.572,60.489 -17.9,60.138 -18.224,59.786 -18.552,59.437    -18.552,58.381 -18.552,58.028 -18.224,57.675   " id="upazila_345" area="upazlia" name="manda" bengali="মান্দা" parent="naogaon"></polygon><polygon points="3.939,86.508 4.916,86.858 5.242,86.858 5.895,86.508 6.22,86.156 6.545,86.156 6.545,85.804    6.873,85.804 6.873,85.452 7.524,85.804 7.524,86.156 8.177,86.156 8.177,85.804 8.502,85.452 8.502,85.101 8.177,84.751    8.177,84.397 8.177,83.344 9.479,83.694 10.457,83.694 11.108,84.397 11.435,84.397 11.761,84.751 12.086,84.751 12.74,85.101    12.74,85.452 13.065,86.156 13.715,86.508 14.042,86.156 14.042,85.804 14.042,85.452 14.368,84.751 14.368,84.397 14.368,83.694    14.042,83.344 14.368,83.344 14.694,82.64 15.021,82.64 15.671,82.993 15.997,83.344 16.324,83.694 16.65,83.694 17.301,84.048    17.628,84.397 17.628,84.751 17.953,85.101 18.28,85.452 18.605,85.804 18.932,86.156 19.258,86.508 19.258,86.858 19.258,87.212    18.932,87.561 18.605,87.915 18.932,87.915 19.583,87.915 19.908,87.561 20.562,87.915 20.562,88.265 20.887,87.915    21.212,87.915 21.539,88.265 21.865,88.616 22.191,88.616 22.516,87.915 22.516,87.561 22.191,87.212 21.865,86.858    21.865,86.508 21.865,86.156 21.539,85.452 21.865,85.101 22.191,84.751 22.843,84.397 23.494,84.397 24.147,84.751    24.472,84.397 25.125,84.397 25.776,84.048 26.101,84.048 26.429,84.397 26.754,84.397 27.079,84.751 27.406,85.101    27.406,85.804 27.731,86.156 27.731,86.858 28.058,86.858 28.058,87.212 28.058,87.561 28.383,87.561 29.034,87.561    29.688,87.561 30.013,87.561 30.338,87.561 30.991,87.561 31.642,87.561 31.642,87.915 31.642,88.265 31.642,88.616    31.317,89.318 31.642,89.671 31.967,90.025 32.622,90.025 33.273,90.025 33.598,90.025 33.926,90.025 34.249,90.375    34.577,90.375 34.902,90.728 35.555,91.078 35.88,90.728 36.206,90.728 36.531,91.078 36.531,91.432 36.531,91.781 36.531,92.135    37.184,92.135 37.834,92.485 38.162,92.135 38.814,92.135 38.814,91.781 39.139,91.078 39.139,90.375 39.139,90.025    39.139,89.671 39.466,89.318 39.791,88.969 39.791,88.265 39.791,87.915 40.117,87.561 41.095,87.561 41.42,87.561 41.748,87.561    42.073,87.915 42.073,88.616 42.073,88.969 42.399,89.318 42.073,89.671 41.748,90.025 41.748,90.728 41.748,91.078    42.073,91.432 42.399,91.432 42.724,91.078 43.052,91.432 42.724,91.781 42.724,92.837 42.724,93.189 43.052,93.893 43.052,94.24    43.052,94.595 42.724,94.945 42.724,95.299 42.724,96 42.724,97.057 42.724,97.405 42.399,98.112 42.399,98.46 43.052,98.814    43.377,99.164 43.377,99.518 43.377,99.867 43.702,101.275 43.377,101.625 43.377,102.329 43.377,103.034 43.052,103.384    42.724,103.737 42.724,104.44 42.399,105.495 42.073,106.199 41.748,106.199 41.42,105.845 41.095,105.845 40.77,106.199    40.443,106.547 39.791,106.903 39.466,106.903 38.489,106.903 37.834,106.547 37.184,106.547 36.531,106.903 36.206,106.903    35.88,106.199 35.228,105.845 34.902,105.495 34.577,105.142 33.926,105.142 33.926,104.44 33.598,104.087 33.273,103.384    32.946,103.384 32.622,103.384 31.967,103.737 31.642,104.44 31.317,104.44 30.991,104.44 30.338,104.087 30.013,103.737    30.013,103.384 30.338,103.034 30.991,103.034 30.991,102.682 30.338,101.979 29.688,101.625 28.383,101.625 28.058,101.275    27.406,100.921 26.754,100.573 26.429,100.221 25.776,99.867 25.45,99.518 24.797,99.518 24.472,99.518 24.147,99.867    23.822,99.518 23.494,99.867 22.843,100.221 22.516,99.867 21.865,99.518 21.539,99.164 21.539,98.814 21.212,98.46    20.562,98.814 20.234,98.814 20.234,98.112 19.908,97.76 19.583,97.405 19.258,97.057 19.258,96.703 18.932,95.299 18.605,94.945    18.28,94.24 17.953,93.893 17.628,93.189 17.628,92.837 17.301,92.485 17.301,92.135 17.301,91.432 16.975,91.078 16.324,91.078    15.671,91.078 15.021,91.078 14.694,91.432 14.368,91.432 14.042,91.078 13.715,90.728 13.39,90.728 13.065,90.728 13.065,91.078    13.065,91.432 13.065,91.781 12.411,92.135 12.086,91.432 12.086,91.078 11.761,90.728 11.108,90.375 10.782,90.025    10.457,89.671 9.806,89.318 9.479,88.969 8.827,88.969 8.502,88.969 8.177,88.969 6.873,88.969 6.22,89.318 5.242,89.671    4.591,89.671 4.264,89.671 3.939,89.318 3.614,88.969 3.614,88.616 3.614,88.265 3.939,87.561   " id="upazila_342" area="upazlia" name="atrai" bengali="আত্রাই" parent="naogaon"></polygon><polygon points="8.827,79.475 8.827,79.125 9.153,79.125 9.806,78.771 10.131,79.125 10.457,79.475 10.457,79.826    10.782,79.826 10.782,80.18 11.108,80.18 11.435,79.826 11.761,80.18 12.086,80.531 12.411,80.18 12.411,79.826 12.411,79.475    12.74,79.475 13.39,79.125 13.715,78.771 14.042,78.771 14.368,78.42 15.346,79.125 15.997,79.475 15.997,79.125 16.324,78.771    16.65,78.771 17.628,79.125 18.279,79.125 18.605,79.125 19.257,79.125 19.908,78.771 20.234,78.771 20.887,78.07 21.212,77.717    21.537,77.365 21.537,77.014 21.537,76.662 21.865,76.313 22.191,76.662 22.516,76.662 22.843,76.313 23.168,75.959    24.472,75.959 24.797,76.662 25.125,76.662 25.45,77.014 26.101,76.662 26.429,76.313 26.754,75.959 27.406,75.959 27.731,76.313    28.058,76.313 28.383,75.959 28.058,75.607 28.058,74.905 28.383,74.553 28.709,73.85 29.034,73.85 29.034,73.496 29.034,73.148    29.362,72.794 29.688,72.794 30.338,73.148 30.663,73.148 31.317,73.148 31.317,72.794 31.317,72.446 31.967,72.446    32.294,72.091 32.294,71.741 32.294,71.389 32.622,71.037 32.946,70.684 33.273,70.684 33.598,70.684 33.926,70.684    34.576,70.684 35.228,70.334 35.228,69.982 35.88,69.279 36.206,69.629 36.531,69.629 36.857,69.982 37.184,70.334 37.834,70.334    38.16,70.684 38.814,70.684 39.139,70.334 39.791,69.982 40.117,69.982 41.095,69.982 41.42,70.334 41.746,70.684 41.42,71.037    41.095,71.741 40.77,72.091 40.77,72.794 41.095,73.148 41.42,73.496 41.42,73.85 41.42,74.203 41.746,74.553 42.073,74.905    42.399,74.905 42.399,75.257 41.746,75.959 41.42,76.662 41.42,77.014 41.746,77.014 42.399,77.365 42.724,77.717 42.399,78.07    41.746,78.07 41.42,78.771 41.095,79.125 41.095,79.475 41.42,79.826 42.073,79.475 42.724,79.125 43.05,79.125 43.702,79.125    44.028,79.475 44.681,80.18 45.006,80.531 45.657,80.531 45.983,80.531 45.983,80.18 45.657,79.826 45.331,79.826 45.006,79.475    45.006,79.125 45.331,79.125 45.657,79.125 46.31,79.475 46.636,79.475 46.961,79.826 47.286,79.475 47.286,79.125 47.286,78.771    46.636,78.771 46.636,78.42 46.636,78.07 46.961,77.717 47.286,77.365 47.286,77.014 47.614,76.662 47.94,76.662 47.94,77.014    47.94,77.717 48.265,77.717 48.59,77.717 48.915,77.365 49.243,77.365 49.569,77.014 49.894,77.014 50.221,77.365 49.894,77.717    50.221,78.07 50.221,78.42 49.894,79.125 49.569,79.475 49.569,79.826 49.243,80.18 48.915,80.531 48.59,80.882 48.265,81.232    47.94,81.938 47.94,82.288 47.94,82.64 47.94,82.993 47.614,83.343 47.614,83.694 47.614,84.048 47.614,84.75 47.94,85.101    48.59,85.452 48.915,85.804 49.243,86.156 49.569,85.804 49.894,85.804 50.221,85.452 50.546,85.101 50.546,84.75 50.872,84.75    51.525,85.101 51.525,85.452 51.85,85.804 52.176,86.156 51.85,86.508 51.85,86.859 51.525,87.561 51.198,87.561 50.872,87.561    50.546,87.21 50.221,87.21 49.569,87.21 49.243,87.21 49.243,87.561 49.243,87.915 49.243,88.265 49.243,88.616 49.243,88.968    48.915,88.968 48.265,88.968 47.94,88.616 47.614,88.616 47.286,88.968 47.286,89.321 46.961,89.321 46.636,89.321 45.983,89.321    45.657,89.321 45.331,89.671 45.331,90.025 45.331,90.375 45.331,90.728 45.006,91.078 44.354,91.43 44.028,91.43 43.702,91.43    43.377,91.43 43.05,91.43 42.724,91.078 42.399,91.43 42.073,91.43 41.746,91.078 41.746,90.728 41.746,90.025 42.073,89.671    42.399,89.321 42.073,88.968 42.073,88.616 42.073,87.915 41.746,87.561 41.42,87.561 41.095,87.561 40.117,87.561 39.791,87.915    39.791,88.265 39.791,88.968 39.464,89.321 39.139,89.671 39.139,90.025 39.139,90.375 39.139,91.078 38.814,91.781    38.814,92.135 38.16,92.135 37.834,92.485 37.184,92.135 36.531,92.135 36.531,91.781 36.531,91.43 36.531,91.078 36.206,90.728    35.88,90.728 35.555,91.078 34.902,90.728 34.576,90.375 34.249,90.375 33.926,90.025 33.598,90.025 33.273,90.025 32.622,90.025    31.967,90.025 31.642,89.671 31.317,89.321 31.642,88.616 31.642,88.265 31.642,87.915 31.642,87.561 30.99,87.561 30.338,87.561    30.013,87.561 29.688,87.561 29.034,87.561 28.383,87.561 28.058,87.561 28.058,87.21 28.058,86.859 27.731,86.859 27.731,86.156    27.406,85.804 27.406,85.101 27.079,84.75 26.754,84.398 26.429,84.398 26.101,84.048 25.776,84.048 25.125,84.398 24.472,84.398    24.147,84.75 23.494,84.398 22.843,84.398 22.191,84.75 21.865,85.101 21.537,85.452 21.865,86.156 21.865,86.508 21.865,86.859    22.191,87.21 22.516,87.561 22.516,87.915 22.191,88.616 21.865,88.616 21.537,88.265 21.212,87.915 20.887,87.915 20.561,88.265    20.561,87.915 19.908,87.561 19.582,87.915 18.932,87.915 18.605,87.915 18.932,87.561 19.257,87.21 19.257,86.859 19.257,86.508    18.932,86.156 18.605,85.804 18.279,85.452 17.953,85.101 17.628,84.75 17.628,84.398 17.301,84.048 16.65,83.694 16.324,83.694    15.997,83.343 15.671,82.993 15.021,82.64 14.694,82.64 14.368,83.343 14.042,83.343 14.368,83.694 14.368,84.398 14.368,84.75    14.042,85.452 14.042,85.804 14.042,86.156 13.715,86.508 13.065,86.156 12.74,85.452 12.74,85.101 12.086,84.75 11.761,84.75    11.435,84.398 11.108,84.398 10.457,83.694 9.479,83.694 8.175,83.343 8.175,82.64 8.502,82.288 8.175,81.586 8.502,81.232    8.502,80.882 8.827,80.18   " id="upazila_351" area="upazlia" name="raninagar" bengali="রাণীনগর" parent="naogaon"></polygon><polygon points="10.781,51.697 12.088,51.697 12.413,51.697 12.74,52.05 13.064,52.05 13.717,51.697 14.37,52.05    15.021,52.05 15.021,52.402 15.344,52.754 15.674,53.105 15.999,52.754 15.999,52.402 16.324,52.05 16.976,52.05 17.626,52.402    17.954,52.754 18.28,52.754 18.605,52.754 18.932,53.455 18.605,53.809 18.605,54.513 18.28,54.862 18.605,55.568 18.932,55.915    19.258,56.271 19.583,56.271 19.583,55.915 19.907,55.568 20.562,55.568 20.887,55.915 21.539,56.271 21.865,55.915    22.516,55.568 22.843,55.915 23.168,55.915 23.822,55.568 24.47,55.568 25.125,55.568 25.777,55.568 26.429,55.216 27.08,55.216    27.406,54.513 28.059,54.161 28.384,53.809 28.384,53.455 28.709,53.105 29.688,52.05 29.688,52.402 30.013,53.105 30.338,53.455    30.338,53.809 30.338,54.161 30.013,54.513 29.688,55.216 29.363,55.568 29.363,55.915 29.033,55.915 28.709,56.271    28.384,56.622 28.059,56.622 28.059,56.974 28.059,57.324 28.384,58.028 28.384,58.379 28.059,58.731 28.059,59.437    27.731,59.784 27.406,60.138 26.754,60.138 26.429,60.138 26.102,60.489 26.102,61.193 26.429,61.543 26.429,62.599    26.754,62.952 26.754,63.3 27.08,63.654 27.731,63.654 27.731,64.003 27.731,64.358 27.406,64.708 27.08,64.708 26.754,64.358    26.429,64.358 26.102,64.708 25.777,65.763 25.777,66.116 26.102,66.819 26.429,66.819 26.754,67.168 27.08,67.168 27.08,67.521    26.754,67.874 26.429,68.224 26.429,68.926 26.429,69.28 26.429,69.629 25.777,69.629 25.777,69.982 26.102,70.334 26.102,70.686    26.429,71.039 26.429,71.387 26.102,72.091 25.777,72.794 25.45,73.499 25.125,73.849 25.125,74.203 24.797,75.257 24.47,75.96    23.168,75.96 22.843,76.311 22.516,76.662 22.19,76.662 21.865,76.311 21.539,76.662 21.539,77.014 21.539,77.368 21.212,77.716    20.887,78.07 20.234,78.771 19.907,78.771 19.258,79.125 18.605,79.125 18.28,79.125 17.626,79.125 16.65,78.771 16.324,78.771    15.999,79.125 15.999,79.474 15.344,79.125 14.37,78.423 14.042,78.771 13.717,78.771 13.392,79.125 12.74,79.474 12.413,79.474    12.413,79.829 12.413,80.178 12.088,80.531 11.761,80.178 11.436,79.829 11.11,80.178 10.781,80.178 10.781,79.829 10.457,79.829    10.457,79.474 10.132,79.125 9.806,78.771 9.154,79.125 8.827,79.125 8.827,79.474 8.5,79.474 8.177,79.474 7.847,79.474    7.847,79.829 7.524,79.474 7.198,79.125 7.198,78.771 6.873,78.423 6.545,78.423 6.218,78.423 5.895,78.423 5.895,78.07    5.57,77.368 5.242,77.368 4.916,77.368 4.591,77.716 4.264,77.716 3.939,77.014 3.939,76.662 3.939,76.311 3.939,75.96    3.939,75.607 4.264,75.607 4.591,75.607 4.591,75.257 4.264,74.905 3.939,74.553 3.939,74.203 3.939,73.849 3.939,73.499    3.285,73.499 2.96,73.499 2.96,73.149 2.96,72.794 2.635,72.794 2.31,72.794 1.982,72.794 1.656,72.446 1.982,72.091    1.982,71.741 2.31,71.741 2.31,71.387 1.982,71.039 1.656,71.039 1.331,71.039 1.331,70.686 1.006,69.982 1.006,69.629    1.006,69.28 1.331,69.28 1.656,69.28 1.982,68.926 1.656,68.576 1.656,68.224 1.656,67.874 1.982,67.521 1.982,67.168    1.982,66.465 1.982,65.763 1.982,65.413 1.656,65.061 1.331,64.708 1.331,64.003 1.331,63.654 1.006,63.3 1.006,62.952    0.68,62.599 0.028,62.599 0.028,62.247 0.68,62.247 0.68,61.896 1.006,61.543 1.331,61.193 1.656,60.489 1.982,60.138    1.982,59.784 1.982,59.437 2.31,59.437 2.635,59.437 2.96,59.081 3.285,59.081 3.939,59.081 4.264,59.081 4.264,59.437    3.939,60.138 3.939,60.489 3.939,60.842 3.614,61.193 3.614,61.896 3.285,62.247 3.285,62.952 3.939,63.3 4.264,63.654    4.916,63.654 5.242,63.654 5.895,64.003 6.218,64.358 6.545,64.358 6.873,64.708 7.198,65.061 7.198,65.413 7.198,65.763    6.545,66.116 6.545,66.465 6.873,66.465 7.524,66.116 7.847,66.465 8.5,66.465 9.154,66.116 9.806,65.763 10.457,65.061    11.11,64.708 11.436,64.003 11.761,63.654 12.088,63.3 12.088,62.599 12.413,61.896 12.74,61.543 12.74,61.193 12.74,60.489    12.74,60.138 13.064,59.784 12.74,59.437 12.413,59.437 12.088,59.437 11.436,59.081 11.11,59.081 11.11,58.731 11.11,58.379    11.436,58.028 11.761,57.678 11.761,57.324 12.088,56.974 12.413,56.622 12.413,56.271 12.088,56.271 12.74,55.915 12.413,55.568    12.088,55.568 11.761,55.568 11.436,55.568 11.11,55.568 10.781,55.568 10.457,55.568 10.457,55.216 10.457,54.513 10.457,54.161    10.132,53.455 10.132,52.754 10.132,52.402   " id="upazila_347" area="upazlia" name="naogaonsadar" bengali="নওগাঁ-সদর" parent="naogaon"></polygon><polygon points="-20.507,38.338 -19.204,39.393 -18.876,39.393 -18.551,39.744 -18.225,39.744 -17.572,40.095    -16.922,40.449 -16.595,40.449 -15.943,40.449 -15.292,40.449 -14.967,40.449 -14.641,40.8 -14.313,40.8 -13.988,39.744    -13.663,39.042 -13.338,38.69 -13.01,38.69 -12.359,38.69 -11.707,39.042 -11.055,39.042 -10.728,39.042 -10.403,38.338    -10.403,37.986 -10.728,37.284 -10.728,36.93 -10.403,36.93 -10.077,36.93 -9.752,37.284 -9.752,37.633 -9.425,37.633    -9.099,37.284 -8.774,37.284 -8.121,37.633 -7.795,38.338 -7.47,38.338 -6.817,38.69 -6.492,38.69 -5.841,38.69 -5.512,39.042    -4.862,39.042 -4.537,39.042 -3.884,38.69 -3.558,38.69 -3.231,37.986 -3.231,37.633 -3.558,37.284 -3.558,36.581 -3.231,36.226    -2.906,36.581 -2.581,36.581 -2.255,36.581 -1.927,36.581 -1.277,37.284 -0.951,37.284 -0.624,37.284 -0.299,37.284 0.353,37.284    0.68,37.284 1.005,37.284 1.33,37.284 1.982,37.633 2.309,37.986 2.96,37.986 3.613,37.986 4.589,37.986 4.914,37.986    5.568,38.338 5.893,38.338 6.873,37.986 7.524,37.986 8.177,37.633 9.154,37.284 9.806,37.284 10.457,37.633 10.782,37.633    11.435,37.986 11.435,38.338 11.435,38.69 11.108,39.042 10.782,39.393 10.782,39.744 10.782,40.095 10.457,40.449 10.131,40.8    9.806,40.8 9.479,41.15 9.154,41.15 8.827,41.854 8.502,42.206 8.827,42.557 8.827,43.262 8.827,43.611 8.827,44.316    9.154,44.667 9.806,45.369 10.131,45.722 10.457,46.424 10.457,46.776 10.131,47.479 9.806,47.83 9.479,48.183 9.479,48.535    9.479,49.237 9.806,49.59 10.131,49.237 10.457,49.94 10.457,50.293 10.131,50.293 10.131,50.995 10.131,51.347 10.457,51.347    10.782,51.697 10.131,52.402 10.131,52.752 10.131,53.457 10.457,54.161 10.457,54.513 10.457,55.214 10.457,55.567    10.782,55.567 11.108,55.567 11.435,55.567 11.761,55.567 12.086,55.567 12.411,55.567 12.74,55.917 12.086,56.271 12.411,56.271    12.411,56.622 12.086,56.973 11.761,57.325 11.761,57.675 11.435,58.027 11.108,58.379 11.108,58.731 11.108,59.081    11.435,59.081 12.086,59.434 12.411,59.434 12.74,59.434 13.065,59.786 12.74,60.138 12.74,60.488 12.74,61.193 12.74,61.543    12.411,61.895 12.086,62.599 12.086,63.3 11.761,63.654 11.435,64.004 11.108,64.708 10.457,65.061 9.806,65.762 9.154,66.114    8.502,66.466 7.849,66.466 7.524,66.114 6.873,66.466 6.545,66.466 6.545,66.114 7.198,65.762 7.198,65.412 7.198,65.061    6.873,64.708 6.545,64.356 6.22,64.356 5.893,64.004 5.242,63.654 4.914,63.654 4.264,63.654 3.939,63.3 3.285,62.951    3.285,62.247 3.613,61.895 3.613,61.193 3.939,60.839 3.939,60.488 3.939,60.138 4.264,59.434 4.264,59.081 3.939,59.081    3.285,59.081 2.96,59.081 2.635,59.434 2.309,59.434 1.982,59.434 1.982,59.786 1.982,60.138 1.656,60.488 1.33,61.193    1.005,61.543 0.68,61.895 0.68,62.247 0.027,62.247 -0.624,61.895 -1.277,61.895 -1.927,61.895 -2.255,61.895 -2.906,61.543    -3.231,61.895 -3.558,62.247 -3.558,62.599 -3.884,62.951 -4.21,63.3 -4.21,63.654 -4.21,64.356 -4.537,64.708 -4.537,65.061    -4.862,65.412 -5.512,65.412 -5.841,65.412 -6.492,65.412 -6.817,65.412 -7.144,65.061 -7.144,64.708 -7.144,64.356    -7.144,64.004 -7.47,64.004 -7.47,64.356 -7.795,64.708 -7.795,65.412 -7.795,65.762 -7.47,66.114 -7.144,66.466 -7.47,66.818    -7.795,67.168 -8.121,67.168 -8.446,67.168 -8.774,66.818 -9.099,66.818 -9.425,66.818 -9.425,66.466 -9.752,65.762    -10.077,65.762 -10.403,65.762 -11.055,66.114 -10.728,65.412 -10.728,65.061 -10.728,64.708 -11.055,64.356 -11.381,64.356    -11.381,64.004 -11.381,63.654 -10.728,63.3 -10.403,62.599 -10.077,62.247 -10.077,61.895 -9.752,61.895 -9.425,61.543    -8.774,61.543 -8.446,61.193 -8.121,60.839 -8.446,60.839 -8.774,60.488 -9.099,60.138 -8.774,59.786 -8.774,59.081    -9.099,58.731 -9.425,58.379 -9.752,58.027 -10.077,58.027 -10.403,58.027 -11.055,58.027 -11.707,58.027 -12.032,57.675    -12.359,57.325 -13.01,57.325 -13.663,56.973 -13.988,56.973 -14.313,56.973 -14.641,57.325 -14.967,57.675 -15.292,58.027    -15.292,58.379 -15.618,58.731 -15.943,58.731 -16.27,58.379 -16.595,58.379 -16.922,58.027 -17.247,58.027 -17.247,57.675    -17.572,57.325 -17.899,57.325 -17.899,56.622 -18.225,56.271 -17.899,56.271 -17.899,55.917 -17.572,55.567 -17.572,55.214    -17.572,54.864 -17.572,54.513 -17.247,54.161 -16.595,54.161 -16.595,53.457 -16.922,53.457 -17.247,53.807 -17.247,53.457    -17.247,53.104 -17.247,52.752 -17.247,52.402 -16.922,52.05 -16.922,51.697 -16.595,50.995 -16.595,50.643 -16.922,50.643    -17.247,50.293 -17.572,50.293 -17.572,49.94 -17.572,49.59 -17.899,49.237 -17.899,48.886 -17.899,48.535 -18.225,48.886    -18.551,48.886 -18.876,48.535 -18.876,48.183 -18.551,48.183 -18.551,47.83 -18.876,47.83 -19.204,47.479 -19.529,47.479    -19.854,47.479 -19.854,47.129 -20.179,46.776 -20.179,46.424 -20.179,45.722 -19.854,45.722 -19.854,45.019 -19.854,44.667    -19.854,44.316 -19.529,44.316 -19.204,43.962 -19.529,43.611 -19.854,43.262 -19.854,42.908 -19.854,42.557 -19.854,42.206    -19.529,41.854 -19.204,41.502 -19.204,41.15 -19.204,40.8 -19.204,40.449 -19.204,40.095 -19.529,40.095 -19.854,39.744    -19.854,39.393 -20.179,39.042 -20.833,38.69   " id="upazila_346" area="upazlia" name="mohadevpur" bengali="মহাদেবপুর" parent="naogaon"></polygon><polygon points="21.537,32.361 21.537,32.715 22.191,33.065 22.191,33.416 22.516,33.768 22.843,34.47    23.166,34.47 23.496,34.47 23.496,34.118 23.166,33.416 22.843,33.065 23.166,32.715 23.496,32.715 23.496,32.361 23.496,32.008    23.166,31.306 22.843,31.306 23.166,30.955 23.496,30.604 23.82,30.604 24.147,30.604 24.472,30.604 25.125,30.604 25.777,30.604    26.101,30.955 26.754,30.955 27.079,31.306 27.73,31.658 28.383,31.658 28.709,32.008 29.033,32.361 29.033,32.008 29.688,31.658    30.012,31.658 30.338,31.658 30.991,31.658 31.316,32.008 31.316,32.361 30.991,32.715 30.991,33.065 30.991,33.416    30.991,33.768 31.316,34.118 31.642,34.47 31.642,34.822 31.316,35.173 30.663,35.173 30.338,35.525 30.663,35.525 30.991,35.525    31.316,35.525 31.642,35.879 31.316,35.879 31.316,36.228 31.316,36.581 30.991,36.93 30.663,37.285 30.663,37.635 30.338,38.692    30.338,39.042 30.663,39.747 30.991,40.095 30.991,41.152 30.663,41.853 30.338,41.853 29.688,41.853 29.362,42.208 29.688,42.91    29.688,43.613 29.688,43.965 30.012,44.667 29.688,45.019 29.362,45.722 29.362,46.074 29.362,46.427 29.688,47.129    29.688,47.831 29.688,48.887 29.688,49.94 29.362,50.644 29.362,51.697 29.688,52.05 28.709,53.105 28.383,53.457 28.383,53.809    28.059,54.161 27.406,54.513 27.079,55.216 26.429,55.216 25.777,55.568 25.125,55.568 24.472,55.568 23.82,55.568 23.166,55.917    22.843,55.917 22.516,55.568 21.865,55.917 21.537,56.271 20.887,55.917 20.562,55.568 19.907,55.568 19.583,55.917    19.583,56.271 19.257,56.271 18.932,55.917 18.604,55.568 18.28,54.862 18.604,54.513 18.604,53.809 18.932,53.457 18.604,52.754    18.28,52.754 17.953,52.754 17.626,52.402 16.975,52.05 16.323,52.05 15.999,52.402 15.999,52.754 15.671,53.105 15.344,52.754    15.021,52.402 15.021,52.05 14.37,52.05 13.717,51.697 13.064,52.05 12.74,52.05 12.411,51.697 12.088,51.697 10.781,51.697    10.457,51.348 10.131,51.348 10.131,50.995 10.131,50.294 10.457,50.294 10.457,49.94 10.131,49.238 9.807,49.59 9.478,49.238    9.478,48.535 9.478,48.183 9.807,47.831 10.131,47.479 10.457,46.776 10.457,46.427 10.131,45.722 9.807,45.372 9.154,44.667    8.827,44.314 8.827,43.613 8.827,43.262 8.827,42.557 8.5,42.208 8.827,41.853 9.154,41.152 9.478,41.152 9.807,40.8 10.131,40.8    10.457,40.449 10.781,40.095 10.781,39.747 10.781,39.392 11.108,39.042 11.436,38.692 12.088,39.042 12.74,39.042 13.39,39.392    14.04,39.392 14.37,39.392 14.694,39.747 14.694,40.095 15.021,40.449 15.344,40.449 15.671,40.095 15.671,39.747 15.671,39.392    15.999,39.392 16.323,39.042 16.65,39.042 16.323,38.692 16.323,38.339 15.999,37.986 15.671,37.635 15.344,36.93 15.021,36.228    15.021,35.879 15.344,35.879 15.671,35.525 15.671,35.173 15.344,34.47 15.344,33.768 15.671,33.768 15.671,33.416 16.323,33.416    16.65,33.768 17.303,34.118 17.626,34.47 17.953,34.822 17.953,35.173 18.28,35.525 18.604,35.879 19.257,35.879 19.583,35.525    19.907,35.525 19.907,34.822 19.583,34.47 19.583,34.118 20.234,33.768 20.562,33.416   " id="upazila_343" area="upazlia" name="badalgachi" bengali="বদলগাছী" parent="naogaon"></polygon></svg>