<svg enable-background="new -106.403 -201.859 629.266 880.536" height="880.536px" id="district_41" viewBox="-106.403 -201.859 629.266 880.536" width="629.266px" x="0px" xml:space="preserve" xmlns="http://www.w3.org/2000/svg" y="0px"><polygon points="249.694,13.023 250.019,12.673 250.344,13.374 250.669,13.374 251.32,13.374 251.973,13.374    252.301,13.374 252.626,13.023 253.605,13.023 253.28,12.673 253.28,12.319 253.28,11.969 253.605,11.969 253.93,11.969    254.58,11.969 254.58,11.617 255.234,11.266 255.559,11.266 255.884,11.266 256.212,10.562 256.212,9.858 256.537,9.858    256.537,10.21 256.537,10.562 256.537,11.266 256.537,11.617 256.865,11.969 256.537,12.673 256.537,13.727 256.865,14.076    257.188,14.429 257.513,14.076 257.513,13.727 258.166,13.374 258.491,13.727 259.145,13.374 259.47,13.374 259.47,13.727    258.82,13.727 258.82,14.076 259.47,14.781 259.795,14.781 260.12,14.781 260.12,15.133 261.099,15.836 261.099,15.484    261.427,15.133 261.427,14.781 261.752,14.781 262.077,15.133 262.406,14.781 262.406,14.429 262.731,14.429 263.053,14.076    263.381,14.429 264.031,14.781 264.357,14.781 265.013,15.133 265.013,15.484 265.338,15.836 265.663,15.836 266.314,15.484    266.639,15.484 266.639,15.133 266.314,14.781 265.989,14.781 265.989,14.429 266.639,14.429 266.967,14.076 267.292,14.429    267.946,14.429 268.271,14.076 269.246,14.076 269.246,15.133 269.574,15.484 269.574,15.836 269.246,15.836 268.921,15.836    268.599,15.836 268.271,16.186 268.271,16.892 267.946,17.241 267.62,17.595 267.62,17.946 267.62,18.297 267.946,18.649    268.599,19 268.921,19 269.246,19 269.903,19 270.225,19.353 270.225,19.703 269.903,20.053 269.903,20.407 269.574,20.407    268.921,20.758 268.921,21.11 269.246,21.461 269.574,21.461 270.225,21.461 270.553,21.815 270.553,22.518 270.553,22.87    270.553,23.921 270.553,24.275 270.878,24.275 271.203,24.625 271.203,24.978 271.203,25.33 271.854,25.682 272.182,25.682    272.507,26.033 273.16,26.033 273.486,25.682 273.486,25.33 274.139,25.682 274.467,26.384 274.467,26.738 274.139,26.738    273.811,26.738 273.486,27.087 273.16,27.439 272.832,27.439 272.507,27.439 272.507,27.791 272.507,28.142 272.507,28.495    272.182,28.844 271.854,28.844 271.203,28.495 270.878,28.142 270.225,27.791 269.903,27.791 269.246,27.791 268.921,28.495    268.599,28.844 268.599,29.197 268.271,29.548 268.271,29.899 268.599,30.251 268.921,30.604 268.921,30.955 268.599,31.306    268.271,31.306 268.271,31.658 267.946,32.008 267.62,32.361 267.946,32.715 267.62,33.065 267.62,33.416 267.62,33.766    267.62,34.118 268.271,34.47 268.599,34.822 268.921,35.525 268.271,35.879 267.946,36.228 267.292,36.228 266.967,36.228    266.314,36.228 265.663,35.879 265.013,35.525 264.685,35.173 264.357,34.822 264.031,35.525 263.706,35.879 263.381,36.228    262.731,36.581 262.731,36.93 262.731,37.285 262.731,37.635 263.053,37.986 263.706,38.339 264.357,38.692 264.685,39.042    264.685,39.392 264.357,39.392 264.031,39.747 263.706,39.747 263.053,39.747 262.731,40.095 261.752,40.095 260.774,40.8    260.12,41.152 259.795,40.8 259.47,40.8 259.145,41.152 258.166,41.504 257.513,41.152 257.188,40.8 256.537,40.449    256.212,40.449 256.212,40.095 256.537,39.747 256.865,39.392 257.513,39.392 258.166,39.042 258.491,38.692 258.491,38.339    257.841,38.692 257.513,38.692 257.188,38.692 256.865,38.692 256.865,38.339 257.188,38.339 257.513,37.635 258.166,37.285    257.513,36.93 257.188,36.93 256.537,37.285 256.865,37.635 256.537,37.986 255.884,37.986 255.559,37.635 255.559,37.285    255.234,36.93 254.58,36.93 254.255,36.93 253.93,37.285 253.605,37.285 252.951,36.93 252.626,36.93 252.301,36.581    251.973,36.93 251.648,36.93 251.32,36.93 250.997,36.581 250.669,36.581 250.669,36.228 250.997,35.879 250.669,35.525    250.019,35.525 250.019,35.173 249.365,35.173 249.04,35.173 248.387,34.822 248.065,34.822 247.737,34.822 248.065,33.766    247.737,33.065 247.737,32.361 248.065,32.008 248.065,31.306 248.065,30.955 248.065,30.604 248.387,30.251 248.715,29.899    248.387,29.197 248.387,28.844 248.387,28.495 248.065,27.791 248.065,27.439 247.737,27.087 247.086,27.791 246.758,28.142    246.758,28.495 246.758,29.197 246.433,29.548 246.105,29.548 246.105,29.197 246.105,28.142 246.105,27.439 246.105,26.738    246.433,26.384 246.433,25.682 247.086,25.33 247.411,24.978 247.411,24.275 247.737,23.221 247.737,22.518 248.065,21.815    248.065,21.461 248.387,20.758 248.387,20.053 248.387,19.703 248.387,18.649 248.387,17.946 248.715,17.595 248.715,16.892    248.715,16.186 248.715,15.484 248.715,15.133 249.04,14.429   " id="upazila_200" area="upazlia" name="durgapur" bengali="দুর্গাপুর" parent="netrokona"></polygon><polygon points="269.249,14.076 269.249,13.727 269.249,13.373 269.574,13.023 269.9,12.672 270.553,12.319    271.206,12.319 271.531,11.967 272.179,11.616 272.179,11.967 272.507,12.319 272.835,12.672 273.483,12.672 273.814,12.319    274.139,12.319 274.139,13.023 274.464,13.373 275.115,13.373 275.443,13.373 275.443,13.727 275.115,14.428 276.093,14.781    276.746,14.428 277.072,14.428 277.4,15.131 277.719,15.131 279.026,15.131 279.351,15.131 280.007,15.131 280.655,15.484    281.308,15.834 281.961,15.834 282.612,15.484 283.265,15.834 283.59,15.484 284.24,15.484 284.894,15.131 285.544,14.428    286.848,14.781 287.501,14.428 287.826,14.781 288.155,14.781 288.805,15.131 289.133,15.131 290.106,15.131 290.762,15.131    291.74,15.131 292.716,14.781 293.366,14.781 294.02,14.428 294.67,14.076 295.649,14.076 296.302,14.076 296.627,13.727    296.952,13.727 296.627,14.076 297.281,15.131 297.606,15.484 297.606,15.834 297.281,16.539 296.627,16.188 296.302,16.539    296.302,16.888 295.323,16.888 295.649,17.593 295.323,18.65 295.323,19 295.323,19.35 295.649,20.756 295.649,21.11    295.323,21.815 294.67,22.517 294.998,22.87 295.323,23.219 296.302,23.922 296.952,24.625 297.281,24.976 297.606,25.331    297.606,25.679 297.606,27.087 297.606,27.438 297.931,27.792 297.606,28.141 297.281,28.495 296.952,28.141 296.302,28.141    295.974,28.495 295.649,28.495 294.67,27.438 294.345,27.438 294.02,27.087 293.695,27.087 293.366,27.087 293.041,27.087    292.716,27.087 292.066,27.438 292.716,27.792 292.716,28.495 292.716,29.198 292.388,29.548 292.388,29.898 292.388,30.955    292.066,31.305 292.388,31.659 292.716,31.659 292.388,32.361 292.716,32.715 293.041,32.715 294.345,32.715 294.67,32.715    294.998,32.715 295.323,32.715 295.323,33.063 295.649,33.063 295.974,33.416 296.302,33.416 296.627,33.416 296.627,33.766    296.302,34.12 295.649,34.47 295.323,34.47 294.67,34.47 294.345,34.47 294.02,34.47 293.695,34.82 293.695,35.173 293.366,34.82    293.041,35.173 292.716,35.525 292.388,35.879 292.388,36.226 292.716,36.581 293.041,37.284 293.041,37.635 293.041,37.985    294.345,38.69 294.345,39.042 294.345,39.744 294.345,40.095 294.02,40.447 293.695,40.447 293.366,40.802 293.366,41.15    294.02,41.504 293.041,41.853 292.716,41.853 292.066,41.853 291.409,42.206 291.087,42.557 290.762,42.557 290.437,42.206    289.781,42.206 289.455,42.206 289.133,42.557 288.805,42.557 288.155,42.908 287.501,42.908 287.173,42.908 286.848,42.908    286.198,43.611 285.872,43.611 285.544,43.611 285.219,43.611 284.569,44.314 284.24,44.314 283.912,44.669 283.265,45.019    282.94,45.019 282.612,45.019 282.286,44.669 281.633,44.669 281.308,45.019 280.655,45.369 280.332,45.722 280.007,45.369    280.655,44.669 280.98,44.314 281.308,43.965 281.308,43.611 281.308,43.263 280.655,43.263 280.332,43.263 280.332,42.557    280.655,42.206 280.98,41.853 281.308,41.504 281.308,40.802 281.308,40.095 281.308,39.393 281.308,38.69 281.308,38.339    281.308,37.985 280.98,37.985 280.655,38.69 280.655,39.042 280.332,39.393 280.007,39.744 279.679,39.744 279.679,39.393    279.351,39.042 279.351,38.69 279.026,38.69 278.7,39.042 278.7,39.393 278.047,39.393 277.719,39.744 277.719,40.095    277.072,40.095 276.746,40.447 276.418,40.447 276.093,40.802 275.768,40.447 275.443,40.095 275.768,39.744 275.768,39.393    275.443,39.042 275.115,39.393 274.786,39.744 274.786,40.095 274.139,40.095 273.814,40.095 273.157,40.095 272.835,40.447    272.507,40.447 272.179,40.095 271.854,39.744 271.531,39.393 271.206,39.042 270.878,38.69 270.553,38.69 270.553,39.042    270.553,39.393 270.225,39.744 269.9,39.393 269.574,39.393 269.574,38.69 269.9,38.339 270.225,37.985 270.225,37.635    269.574,37.635 269.574,37.284 269.9,36.93 269.574,36.581 269.249,36.581 268.921,36.581 268.596,35.879 268.921,35.525    268.596,34.82 268.271,34.47 267.62,34.12 267.62,33.766 267.62,33.416 267.62,33.063 267.946,32.715 267.62,32.361    267.946,32.008 268.271,31.659 268.271,31.305 268.596,31.305 268.921,30.955 268.921,30.603 268.596,30.251 268.271,29.898    268.271,29.548 268.596,29.198 268.596,28.844 268.921,28.495 269.249,27.792 269.9,27.792 270.225,27.792 270.878,28.141    271.206,28.495 271.854,28.844 272.179,28.844 272.507,28.495 272.507,28.141 272.507,27.792 272.507,27.438 272.835,27.438    273.157,27.438 273.483,27.087 273.814,26.738 274.139,26.738 274.464,26.738 274.464,26.382 274.139,25.679 273.483,25.331    273.483,25.679 273.157,26.033 272.507,26.033 272.179,25.679 271.854,25.679 271.206,25.331 271.206,24.976 271.206,24.625    270.878,24.273 270.553,24.273 270.553,23.922 270.553,22.87 270.553,22.517 270.553,21.815 270.225,21.461 269.574,21.461    269.249,21.461 268.921,21.11 268.921,20.756 269.574,20.407 269.9,20.407 269.9,20.053 270.225,19.703 270.225,19.35 269.9,19    269.249,19 268.921,19 268.596,19 267.946,18.65 267.62,18.296 267.62,17.946 267.62,17.593 267.946,17.241 268.271,16.888    268.271,16.188 268.596,15.834 268.921,15.834 269.249,15.834 269.574,15.834 269.574,15.484 269.249,15.131   " id="upazila_202" area="upazlia" name="kalmakanda" bengali="কলমাকান্দা" parent="netrokona"></polygon><polygon points="270.225,39.744 270.553,39.393 270.553,39.042 270.553,38.69 270.878,38.69 271.206,39.042    271.531,39.393 271.854,39.744 272.182,40.095 272.507,40.449 272.835,40.449 273.157,40.095 273.811,40.095 274.139,40.095    274.786,40.095 274.786,39.744 275.115,39.393 275.44,39.042 275.768,39.393 275.768,39.744 275.44,40.095 275.768,40.449    276.093,40.802 276.418,40.449 276.746,40.449 277.072,40.095 277.719,40.095 277.719,39.744 278.05,39.393 278.7,39.393    278.7,39.042 279.026,38.69 279.351,38.69 279.351,39.042 279.679,39.393 279.679,39.744 280.004,39.744 280.332,39.393    280.655,39.042 280.655,38.69 280.98,37.986 281.308,37.986 281.308,38.339 281.308,38.69 281.308,39.393 281.308,40.095    281.308,40.802 281.308,41.502 280.98,41.854 280.655,42.206 280.332,42.557 280.332,43.263 280.655,43.263 281.308,43.263    281.308,43.611 281.308,43.962 280.98,44.316 280.655,44.667 280.004,45.369 280.332,45.724 280.655,45.369 281.308,45.019    281.633,44.667 282.286,44.667 282.612,45.019 282.94,45.019 283.265,45.019 283.915,44.667 284.24,44.316 284.566,44.316    285.219,43.611 285.544,43.611 285.872,43.611 286.198,43.611 286.848,42.908 287.173,42.908 287.501,42.908 288.155,42.908    288.805,42.557 289.133,42.557 289.455,42.206 289.781,42.206 290.434,42.206 290.759,42.557 291.087,42.557 291.412,42.206    292.066,41.854 292.716,41.854 293.041,41.854 294.02,41.502 294.02,41.854 294.02,42.206 293.695,42.557 293.695,42.908    294.02,42.908 294.345,43.263 294.345,43.611 294.67,43.611 295.321,43.611 295.649,43.263 295.974,43.611 296.302,43.611    296.627,43.962 296.627,44.667 297.281,45.019 297.606,45.369 297.606,45.724 297.281,46.424 296.952,47.129 296.952,47.479    296.627,47.479 296.302,47.479 296.302,47.83 295.974,48.185 295.649,48.185 295.321,47.83 294.67,47.83 294.345,47.83    294.345,48.535 294.345,48.886 294.67,48.535 295.321,48.535 294.998,49.237 294.998,49.59 295.321,49.94 295.321,50.293    295.321,50.644 295.321,50.995 295.321,51.697 295.321,52.05 295.649,52.05 295.974,52.402 296.302,52.402 296.627,52.402    296.952,51.697 297.281,51.697 297.606,52.05 297.931,51.697 298.585,51.697 298.906,52.05 299.232,52.05 299.56,52.05    299.888,52.05 300.214,52.05 300.537,52.402 300.537,53.105 300.537,53.457 300.865,53.807 301.189,54.161 301.514,54.509    301.843,55.214 300.537,55.917 300.214,55.568 299.888,55.917 299.888,56.272 299.888,56.622 299.56,56.622 299.232,56.622    298.585,56.622 298.585,56.973 298.257,57.325 297.931,57.675 297.606,58.028 297.606,58.379 297.281,58.379 297.281,58.028    296.952,57.675 296.627,57.325 296.302,57.325 295.974,57.325 295.649,58.028 295.649,58.379 294.998,58.379 294.998,58.731    294.67,58.731 294.345,58.379 293.695,58.028 293.366,57.675 293.366,58.028 293.366,58.731 293.041,59.081 292.716,59.081    292.388,59.081 291.74,59.081 291.412,59.434 291.087,59.434 290.759,59.434 290.759,59.784 290.434,60.138 289.781,60.138    289.133,60.138 288.805,59.784 288.477,59.434 288.155,59.784 287.501,59.784 287.501,60.138 287.501,60.489 287.173,60.489    286.848,60.839 286.848,61.194 286.523,61.543 286.198,61.194 285.872,60.839 285.544,60.489 285.219,60.839 284.894,60.839    284.24,61.194 283.265,61.543 282.612,61.543 282.286,61.895 281.961,61.895 281.961,61.543 282.286,61.194 281.961,60.839    281.633,60.839 281.308,60.839 281.308,60.489 281.308,60.138 281.308,59.784 280.98,59.784 280.655,59.784 280.332,60.138    280.004,60.489 279.679,60.489 279.351,60.489 278.7,60.839 278.375,60.839 278.375,61.194 278.05,61.543 277.719,61.543    277.072,61.543 276.418,61.543 275.768,61.543 275.44,61.194 276.093,60.138 276.418,59.784 276.746,59.434 276.746,59.081    276.746,58.731 277.072,58.028 277.072,57.325 277.072,56.973 276.418,56.622 276.093,56.272 275.768,55.917 276.093,55.568    276.418,55.214 276.418,54.864 276.746,54.509 277.072,53.807 277.072,53.457 277.719,53.105 278.05,52.402 278.05,52.05    278.05,51.347 278.375,50.995 278.7,50.644 279.026,50.995 279.679,50.995 280.004,50.644 280.004,50.293 279.679,49.94    279.351,49.94 279.026,49.94 279.026,49.59 279.026,49.237 279.026,48.535 279.026,47.83 278.7,47.479 278.05,46.776    277.4,46.776 277.072,46.776 277.072,47.479 276.746,47.83 276.418,47.83 276.093,47.83 275.768,47.83 275.44,47.479    275.115,47.129 275.115,46.776 275.115,46.073 275.115,45.724 275.115,45.019 274.786,44.667 274.464,44.316 274.139,44.316    273.811,44.316 273.811,44.667 273.486,45.019 273.157,45.019 273.157,44.667 272.835,44.316 272.182,44.316 271.854,44.316    271.531,44.667 271.206,44.667 270.878,44.667 270.878,44.316 271.206,43.962 271.531,43.962 271.854,43.962 271.854,43.611    271.854,43.263 271.854,42.908 271.531,42.557 270.878,42.557 270.553,42.557 270.225,42.206 269.903,41.854 269.903,41.502    269.903,41.15 270.225,40.802 270.225,40.095   " id="upazila_199" area="upazlia" name="barhatta" bengali="বারহাট্টা" parent="netrokona"></polygon><polygon points="291.412,59.437 291.74,59.081 292.388,59.081 292.713,59.081 293.041,59.081 293.369,58.731    293.369,58.028 293.369,57.678 293.695,58.028 294.345,58.379 294.673,58.731 294.998,58.731 294.998,58.379 295.649,58.379    295.649,58.028 295.974,57.324 296.302,57.324 296.627,57.324 296.952,57.678 297.281,58.028 297.281,58.379 297.606,58.379    297.606,58.028 297.931,57.678 298.257,57.324 298.58,56.974 298.58,56.622 299.235,56.622 299.56,56.622 299.888,56.622    299.888,56.271 299.888,55.915 300.214,55.568 300.537,55.915 301.843,55.216 302.166,55.568 302.491,55.568 302.491,55.216    303.146,55.216 303.146,54.862 303.797,54.862 304.123,54.862 304.123,55.216 304.448,55.568 304.123,55.915 303.797,55.915    304.448,56.271 304.775,56.271 305.1,56.271 305.428,56.622 305.754,56.622 305.754,56.271 305.754,55.915 306.077,55.568    306.406,55.216 306.732,54.862 306.732,54.513 307.057,53.809 307.383,53.455 308.034,53.105 308.361,53.105 308.361,53.455    308.686,53.809 309.014,53.809 309.34,54.161 309.663,54.161 309.99,53.809 310.64,53.809 310.969,53.809 310.969,54.161    311.294,54.513 311.62,54.161 311.947,53.809 312.6,54.161 312.6,54.513 312.923,54.862 313.246,55.216 313.574,55.216    313.901,55.568 313.901,55.915 314.226,55.915 314.554,55.915 315.531,56.622 316.183,57.678 316.509,58.379 316.509,58.731    316.183,59.081 315.855,59.437 316.183,59.784 316.509,60.14 317.16,60.839 317.16,61.543 317.16,61.896 317.487,62.247    318.786,61.896 318.786,62.247 319.115,62.952 319.115,63.3 318.786,63.654 318.14,63.654 318.14,64.004 317.815,64.358    317.815,65.061 317.487,65.413 317.487,65.762 317.487,66.116 317.16,66.819 317.16,67.521 318.14,68.926 317.815,69.28    317.16,70.334 316.509,69.982 316.183,70.334 316.183,70.684 315.531,71.387 315.531,72.091 315.206,72.446 315.206,72.091    314.88,72.091 314.554,72.091 314.226,71.741 313.901,71.387 313.574,71.039 313.246,71.039 313.246,71.741 313.246,72.091    313.574,72.794 313.246,72.794 312.923,73.148 312.6,73.499 312.6,73.849 312.272,73.849 311.947,74.203 311.62,74.203    310.64,73.849 310.315,73.148 309.99,73.148 309.663,73.499 309.34,73.849 309.014,74.203 308.686,74.553 308.361,74.203    307.706,74.203 307.057,74.203 306.406,73.849 305.754,73.849 305.1,73.849 304.448,73.499 303.797,73.849 303.146,73.849    303.146,74.203 302.821,74.553 302.821,75.257 303.146,75.607 303.146,75.96 303.146,76.311 302.821,76.662 302.491,77.368    301.843,77.716 301.514,77.716 301.189,78.068 300.865,78.068 300.537,77.716 299.888,77.716 299.888,77.368 299.56,76.662    299.235,76.662 298.906,75.96 297.931,75.607 298.257,74.905 298.257,74.553 298.58,74.203 298.58,73.499 298.257,72.794    298.257,72.446 298.257,72.091 298.257,71.741 297.931,71.741 297.281,72.091 296.952,72.091 296.627,72.446 295.974,72.446    295.649,72.794 295.321,72.794 294.998,72.794 294.998,73.148 294.345,73.148 294.02,73.499 294.02,73.849 293.695,73.499    293.041,73.148 292.713,73.148 292.066,72.794 292.066,72.091 292.388,71.741 292.713,71.039 292.713,70.684 292.388,69.982    292.066,69.629 291.74,69.28 291.087,68.926 290.434,68.576 290.106,68.576 289.781,67.874 289.781,67.168 289.781,66.465    289.781,66.116 290.106,65.413 290.434,65.061 290.759,64.708 291.087,64.358 291.74,64.004 291.74,64.358 292.388,64.358    293.041,64.358 293.369,64.358 294.02,64.004 294.02,63.654 294.02,63.3 293.695,62.952 293.695,62.599 294.02,62.247    293.695,61.896 293.695,61.543 293.695,60.839 293.369,60.839 293.041,61.193 292.713,61.193 292.388,60.839 292.388,60.489    292.388,60.14 292.388,59.784 292.066,59.784   " id="upazila_205" area="upazlia" name="mohongonj" bengali="মোহনগঞ্জ" parent="netrokona"></polygon><polygon points="321.723,64.004 322.377,63.654 322.7,63.3 323.03,62.951 323.352,63.3 323.68,63.654    324.006,64.004 324.332,64.356 324.656,64.356 324.981,64.356 325.309,65.412 325.309,66.466 325.309,67.17 324.981,67.521    324.332,68.224 324.006,68.576 324.006,69.279 323.68,69.629 323.68,69.982 323.03,70.334 323.68,70.684 324.006,70.684    324.332,70.684 324.656,71.037 324.981,71.389 324.981,71.741 324.981,72.091 324.656,72.091 324.332,72.443 324.332,72.794    324.006,72.443 323.68,72.443 323.68,72.794 323.352,72.794 323.03,73.496 323.352,74.203 323.03,74.203 322.7,74.203    322.049,74.553 321.723,74.203 321.401,73.85 321.073,74.203 320.746,74.553 320.094,74.905 320.094,75.257 320.42,75.607    320.746,75.607 321.401,75.607 322.049,75.607 322.049,75.959 322.049,76.313 322.049,76.662 322.377,77.014 322.7,76.313    323.03,76.313 323.03,76.662 323.03,77.014 323.03,77.717 322.377,77.717 322.049,77.365 321.723,77.365 321.401,77.365    321.401,78.07 321.723,78.42 322.049,78.771 322.049,79.125 321.723,79.475 321.401,79.826 320.746,80.18 321.073,80.18    321.401,80.18 321.723,80.18 322.377,80.18 323.03,80.531 323.03,81.232 323.352,81.586 324.332,80.882 324.656,80.18    324.981,80.18 325.963,80.18 326.613,80.531 327.266,81.232 328.24,82.288 328.57,82.288 328.57,81.938 328.895,81.586    329.22,82.288 329.546,82.288 329.872,82.288 329.872,81.938 330.524,81.586 330.849,81.232 331.177,81.232 331.503,80.531    331.826,80.18 331.826,80.531 332.156,80.882 332.478,81.232 332.478,81.586 332.156,81.938 332.478,82.64 332.156,82.993    331.503,82.993 331.503,83.343 331.177,83.694 331.177,84.045 331.503,84.398 332.156,84.398 332.478,84.75 333.132,85.101    333.455,84.75 333.781,85.101 333.781,85.452 333.781,85.804 333.781,86.156 334.107,86.859 333.781,87.21 333.455,87.561    332.806,87.915 332.478,87.915 332.156,87.915 331.826,87.21 331.503,87.561 331.177,87.915 331.177,88.265 331.503,88.616    331.826,88.616 332.478,88.968 332.806,90.025 331.826,91.078 331.503,91.078 331.177,91.078 331.177,90.728 330.849,90.728    330.524,90.728 329.872,91.078 329.546,91.078 329.22,91.781 329.22,92.485 329.22,93.538 328.895,93.892 327.912,93.538    326.286,92.835 325.963,92.485 325.309,92.485 324.981,92.485 324.656,92.835 324.332,93.189 324.006,93.538 323.352,93.538    323.03,93.538 322.377,93.189 322.049,92.835 321.401,92.835 320.746,92.835 320.094,92.835 319.769,92.485 319.441,92.485    319.115,92.485 318.786,93.538 318.786,94.24 319.115,94.595 319.769,94.946 319.769,95.296 319.441,96.002 318.786,96.353    318.466,97.057 317.815,97.057 317.484,97.406 316.837,97.406 316.511,97.057 316.183,97.057 315.531,97.057 315.855,97.406    315.855,97.759 315.855,98.11 315.855,98.462 315.206,98.462 314.88,98.11 314.554,98.462 314.226,98.462 313.574,98.11    313.246,98.11 313.246,97.406 312.923,97.406 312.275,97.406 311.947,97.057 311.294,96.703 310.643,96.353 310.315,96.002    309.663,96.002 309.014,96.002 308.686,96.002 308.034,96.353 307.057,96.353 306.406,96.353 306.08,96.353 306.406,95.648    306.406,95.296 306.732,94.595 307.383,94.595 307.706,94.24 307.706,93.892 307.383,93.892 307.057,93.538 307.383,93.189    307.057,92.835 306.732,92.485 307.057,92.135 307.383,91.781 307.706,91.078 307.383,90.728 307.706,90.728 308.034,90.373    308.361,90.025 308.686,89.671 309.663,88.968 310.315,88.616 310.315,88.265 310.315,87.915 309.99,87.561 310.315,87.21    310.643,86.859 310.969,86.156 310.969,85.452 311.294,85.101 311.294,84.75 311.294,84.398 309.99,83.694 309.99,83.343    309.663,83.694 309.34,84.045 309.014,84.045 308.686,84.045 308.361,84.398 308.034,84.398 307.706,84.398 307.706,84.045    307.383,84.045 306.732,83.694 307.057,83.694 307.383,83.343 307.706,83.343 307.706,82.993 308.034,82.64 308.361,82.288    308.361,81.938 308.361,81.586 307.706,81.232 307.383,80.882 307.057,80.531 306.732,80.18 306.406,80.18 306.08,79.826    306.08,79.475 306.08,79.125 305.754,79.125 305.428,78.42 304.775,78.07 304.12,77.717 303.471,78.07 303.146,78.07    302.491,78.07 301.843,77.717 302.491,77.365 302.821,76.662 303.146,76.313 303.146,75.959 303.146,75.607 302.821,75.257    302.821,74.553 303.146,74.203 303.146,73.85 303.797,73.85 304.448,73.496 305.1,73.85 305.754,73.85 306.406,73.85    307.057,74.203 307.706,74.203 308.361,74.203 308.686,74.553 309.014,74.203 309.34,73.85 309.663,73.496 309.99,73.148    310.315,73.148 310.643,73.85 311.617,74.203 311.947,74.203 312.275,73.85 312.597,73.85 312.597,73.496 312.923,73.148    313.246,72.794 313.574,72.794 313.246,72.091 313.246,71.741 313.246,71.037 313.574,71.037 313.901,71.389 314.226,71.741    314.554,72.091 314.88,72.091 315.206,72.091 315.206,72.443 315.531,72.091 315.531,71.389 316.183,70.684 316.183,70.334    316.511,69.982 317.157,70.334 317.815,69.279 318.14,68.927 318.466,68.927 318.786,69.279 319.115,69.279 319.115,69.982    319.441,70.334 319.769,70.334 320.746,69.982 321.401,69.982 321.401,69.629 321.073,69.279 321.073,68.927 320.746,68.576    320.42,68.576 320.094,68.224 319.769,67.872 320.094,67.521 321.073,67.17 321.401,66.818 321.723,66.466 321.723,65.762    321.401,65.412 321.073,65.061 321.401,65.061 321.723,64.709   " id="upazila_201" area="upazlia" name="khaliajuri" bengali="খালিয়াজুরী" parent="netrokona"></polygon><polygon points="299.888,77.716 300.537,77.716 300.865,78.07 301.189,78.07 301.514,77.716 301.843,77.716    302.491,78.07 303.146,78.07 303.471,78.07 304.123,77.716 304.775,78.07 305.428,78.423 305.754,79.125 306.077,79.125    306.077,79.474 306.077,79.829 306.406,80.178 306.732,80.178 307.057,80.531 307.383,80.882 307.706,81.234 308.361,81.586    308.361,81.936 308.361,82.291 308.034,82.64 307.706,82.993 307.706,83.343 307.383,83.343 307.057,83.695 306.732,83.695    307.383,84.048 307.706,84.048 307.706,84.397 308.034,84.397 308.361,84.397 308.686,84.048 309.014,84.048 309.34,84.048    309.663,83.695 309.99,83.343 309.99,83.695 311.294,84.397 311.294,84.75 311.294,85.101 310.969,85.452 310.969,86.157    310.64,86.858 310.315,87.21 309.99,87.561 310.315,87.915 310.315,88.265 310.315,88.616 309.663,88.969 308.686,89.671    308.361,90.023 308.034,90.375 307.706,90.728 307.383,90.728 307.706,91.078 307.383,91.782 307.057,92.135 306.732,92.483    307.057,92.837 307.383,93.189 307.057,93.538 307.383,93.892 307.706,93.892 307.706,94.24 307.383,94.595 306.732,94.595    306.077,94.595 306.077,94.24 305.754,94.595 305.1,94.945 304.775,95.299 304.448,95.649 304.123,96.002 304.448,97.057    304.448,97.405 304.123,97.759 303.471,97.759 303.146,97.405 302.821,97.405 302.166,97.759 301.843,98.112 301.514,97.759    301.189,97.759 300.865,98.112 300.214,98.462 299.888,98.462 299.56,98.112 299.235,98.112 298.58,98.112 298.257,98.462    297.931,98.814 297.281,98.462 296.952,97.759 296.627,97.405 296.302,97.057 295.974,97.057 295.649,97.057 295.649,97.405    294.998,97.405 294.998,97.759 294.673,98.112 294.345,98.112 293.695,97.759 293.369,98.112 292.713,98.112 292.388,98.112    292.066,97.759 292.066,97.057 292.066,96.706 291.74,96.353 291.412,96.353 291.087,96.353 290.759,96.353 290.434,96.353    289.781,96.706 289.455,96.002 289.455,95.649 289.133,94.945 289.133,94.595 288.805,94.595 288.805,94.24 288.477,94.24    288.152,94.24 287.826,94.24 288.477,93.538 288.477,92.837 288.477,91.782 288.477,91.432 288.152,91.078 287.826,90.728    287.501,90.023 286.848,90.023 286.523,89.671 286.523,88.969 286.523,88.616 286.523,88.265 286.523,87.561 286.523,87.21    285.872,86.157 285.544,85.804 285.219,85.101 284.894,84.75 284.566,84.75 284.24,84.397 284.566,83.695 284.566,82.993    284.566,81.936 284.566,81.586 283.915,81.234 283.587,81.234 282.94,81.586 282.615,81.586 282.286,81.234 282.615,80.531    282.286,80.531 281.633,80.178 281.308,79.829 280.98,79.474 280.98,79.125 281.633,78.773 281.958,79.125 282.286,79.125    282.94,78.773 283.265,78.07 283.587,78.07 283.587,78.423 283.915,78.423 284.24,78.07 284.24,77.716 284.566,77.368    284.894,77.013 284.566,76.662 284.566,76.313 284.894,76.313 285.219,76.662 285.544,76.662 285.872,77.013 286.198,77.013    286.848,77.013 287.173,77.013 287.173,76.313 287.501,76.313 287.826,76.313 287.826,76.662 288.152,77.013 288.805,76.662    289.455,76.662 289.781,76.662 290.434,76.662 290.759,77.013 291.087,77.368 291.087,77.716 291.087,78.07 291.412,78.423    291.74,78.773 292.066,79.125 292.713,79.125 293.041,79.125 293.695,79.474 294.02,79.829 294.673,80.178 294.998,80.178    295.321,80.178 295.649,79.829 296.627,79.474 296.952,79.474 297.281,79.125 297.606,79.125 297.606,78.773 297.931,78.423    298.257,78.423 298.906,78.423 299.235,78.423 299.56,78.07   " id="upazila_204" area="upazlia" name="madan" bengali="মদন" parent="netrokona"></polygon><polygon points="261.752,69.279 262.077,69.982 262.406,69.982 263.053,69.982 263.381,69.982 263.706,69.629    264.357,69.279 264.685,69.279 265.013,68.575 265.663,68.224 266.314,67.872 266.639,67.872 267.292,67.872 267.62,67.872    268.271,67.872 268.599,67.872 268.921,67.872 269.246,68.224 269.574,68.575 269.903,68.927 270.225,69.279 269.574,69.629    269.574,69.982 269.903,70.334 269.574,70.334 269.246,70.334 269.246,70.684 269.246,71.037 269.246,71.389 269.574,71.389    269.903,71.037 270.225,70.684 270.225,71.037 270.553,71.389 270.878,71.741 270.878,72.091 271.531,72.443 271.854,72.443    272.182,72.443 272.507,72.091 272.835,71.741 273.486,71.741 273.811,72.091 273.486,72.443 273.486,73.148 273.486,73.849    273.486,74.203 273.811,74.203 274.467,73.849 274.139,74.203 274.139,74.553 274.467,74.903 275.768,74.903 276.093,75.257    276.746,75.607 277.072,75.959 277.722,75.959 278.05,75.959 278.375,75.959 279.029,75.959 279.351,75.959 279.679,76.311    280.329,76.662 280.655,76.662 280.655,77.014 281.308,77.014 281.961,77.365 281.961,78.07 281.633,78.771 280.98,79.125    280.98,79.475 281.308,79.826 281.633,80.178 282.286,80.531 282.612,80.531 282.286,81.232 282.612,81.583 282.94,81.583    283.59,81.232 283.915,81.232 284.566,81.583 284.566,81.938 284.566,82.993 284.566,83.694 284.24,84.398 284.566,84.75    284.894,84.75 285.219,85.101 285.544,85.804 285.872,86.156 286.523,87.21 286.523,87.561 286.523,88.265 286.523,88.616    286.523,88.968 286.523,89.671 286.848,90.025 287.501,90.025 287.826,90.726 288.155,91.078 288.477,91.43 288.477,91.781    288.477,92.835 288.477,93.538 287.826,94.24 288.155,94.24 288.477,94.24 288.805,94.24 288.805,94.595 289.133,94.595    289.133,94.946 289.455,95.648 289.455,96.002 289.781,96.703 289.455,97.055 289.781,97.406 289.781,97.759 289.781,98.11    289.455,98.462 289.133,98.814 288.805,99.164 288.805,99.516 288.477,99.516 288.155,99.164 287.826,98.814 287.501,98.814    287.173,98.814 286.848,98.814 286.198,98.462 285.544,98.462 285.219,98.814 284.894,99.164 284.566,99.516 284.24,99.516    283.59,99.516 282.612,99.516 282.612,99.164 282.286,98.814 281.633,98.814 281.308,98.814 280.655,99.164 280.655,99.516    280.98,99.87 280.655,99.87 280.329,100.22 280.329,100.572 280.004,100.572 279.679,100.921 279.351,101.275 279.029,101.275    278.375,100.921 278.05,100.921 277.722,100.921 277.072,100.22 276.418,100.572 276.093,100.572 276.093,100.921    275.768,101.275 275.443,100.572 275.115,100.572 274.786,100.572 275.115,100.921 275.115,101.275 274.467,101.625    274.139,101.625 273.811,101.625 273.486,101.978 273.16,101.625 273.486,101.275 273.486,100.921 273.16,100.921    272.835,100.921 272.507,100.921 272.835,100.572 273.16,100.22 273.16,99.87 273.16,99.516 273.486,99.164 273.486,98.814    273.16,98.462 273.16,98.11 273.16,97.759 272.835,97.406 272.507,97.406 271.854,97.055 271.531,96.353 271.203,96.002    270.878,96.002 270.553,96.353 270.878,96.703 270.878,97.055 270.553,97.055 269.903,97.406 269.246,97.055 268.599,97.055    268.271,97.055 268.271,96.353 268.599,96.002 268.599,95.296 268.599,94.24 268.599,93.892 268.599,93.538 267.946,93.188    267.62,93.538 267.292,93.188 266.967,93.188 266.639,93.188 266.314,93.188 265.989,92.485 265.989,92.135 265.663,91.43    265.663,91.078 265.338,91.078 264.685,91.078 264.357,91.078 264.031,90.726 263.381,91.078 263.053,90.726 262.731,90.373    262.731,90.025 262.406,90.025 262.077,89.671 262.077,88.968 261.427,88.968 261.427,88.616 261.099,88.265 260.774,87.914    260.448,87.561 260.448,86.859 260.448,86.156 260.774,85.452 261.099,85.101 261.427,84.398 261.099,83.694 260.12,83.343    259.795,82.993 260.12,82.64 259.795,82.288 259.795,81.938 260.12,81.232 260.448,80.882 260.774,80.531 261.099,80.178    261.427,79.475 261.752,79.125 262.406,79.125 263.053,79.125 263.381,78.771 263.381,78.42 263.381,77.365 263.381,77.014    262.731,77.014 262.406,76.662 262.406,75.959 262.406,75.607 262.077,75.257 261.752,75.257 261.099,75.257 260.448,74.903    259.795,74.553 259.795,74.203 260.12,74.203 260.12,73.849 259.795,72.794 259.795,72.443 260.12,72.443 260.774,72.091    261.099,72.443 261.427,72.443 261.427,72.794 261.752,73.148 262.077,73.148 262.731,73.148 263.053,72.794 263.381,72.443    263.381,72.091 263.381,71.741 263.053,71.037 262.731,71.037 262.077,70.684 261.752,70.334 261.099,69.982 261.099,69.629    261.427,69.629   " id="upazila_203" area="upazlia" name="kendua" bengali="কেন্দুয়া" parent="netrokona"></polygon><polygon points="275.768,61.543 276.418,61.543 277.072,61.543 277.719,61.543 278.05,61.543 278.375,61.193    278.375,60.839 278.7,60.839 279.351,60.488 279.679,60.488 280.004,60.488 280.332,60.138 280.655,59.786 280.98,59.786    281.308,59.786 281.308,60.138 281.308,60.488 281.308,60.839 281.633,60.839 281.958,60.839 282.286,61.193 281.958,61.543    281.958,61.895 282.286,61.895 282.615,61.543 283.265,61.543 284.24,61.193 284.894,60.839 285.219,60.839 285.544,60.488    285.872,60.839 286.198,61.193 286.523,61.543 286.848,61.193 286.848,60.839 287.176,60.488 287.501,60.488 287.501,60.138    287.501,59.786 288.152,59.786 288.48,59.434 288.805,59.786 289.133,60.138 289.781,60.138 290.434,60.138 290.759,59.786    290.759,59.434 291.087,59.434 291.412,59.434 292.066,59.786 292.388,59.786 292.388,60.138 292.388,60.488 292.388,60.839    292.713,61.193 293.041,61.193 293.369,60.839 293.695,60.839 293.695,61.543 293.695,61.895 294.02,62.249 293.695,62.599    293.695,62.951 294.02,63.3 294.02,63.654 294.02,64.004 293.369,64.356 293.041,64.356 292.388,64.356 291.74,64.356    291.74,64.004 291.087,64.356 290.759,64.708 290.434,65.061 290.106,65.412 289.781,66.116 289.781,66.466 289.781,67.168    289.781,67.872 290.106,68.575 290.434,68.575 291.087,68.927 291.74,69.279 292.066,69.629 292.388,69.982 292.713,70.684    292.713,71.037 292.388,71.741 292.066,72.091 292.066,72.794 292.713,73.148 293.041,73.148 293.695,73.496 294.02,73.849    294.02,73.496 294.345,73.148 294.998,73.148 294.998,72.794 295.321,72.794 295.649,72.794 295.974,72.443 296.627,72.443    296.952,72.091 297.281,72.091 297.931,71.741 298.257,71.741 298.257,72.091 298.257,72.443 298.257,72.794 298.58,73.496    298.58,74.203 298.257,74.553 298.257,74.903 297.931,75.607 298.906,75.959 299.235,76.662 299.56,76.662 299.888,77.365    299.888,77.717 299.56,78.07 299.235,78.42 298.906,78.42 298.257,78.42 297.931,78.42 297.606,78.771 297.606,79.125    297.281,79.125 296.952,79.475 296.627,79.475 295.649,79.826 295.321,80.178 294.998,80.178 294.673,80.178 294.02,79.826    293.695,79.475 293.041,79.125 292.713,79.125 292.066,79.125 291.74,78.771 291.412,78.42 291.087,78.07 291.087,77.717    291.087,77.365 290.759,77.014 290.434,76.662 289.781,76.662 289.455,76.662 288.805,76.662 288.152,77.014 287.826,76.662    287.826,76.311 287.501,76.311 287.176,76.311 287.176,77.014 286.848,77.014 286.198,77.014 285.872,77.014 285.544,76.662    285.219,76.662 284.894,76.311 284.566,76.311 284.566,76.662 284.894,77.014 284.566,77.365 284.24,77.717 284.24,78.07    283.915,78.42 283.59,78.42 283.59,78.07 283.265,78.07 282.94,78.771 282.286,79.125 281.958,79.125 281.633,78.771    281.958,78.07 281.958,77.365 281.308,77.014 280.655,77.014 280.655,76.662 280.332,76.662 279.679,76.311 279.351,75.959    279.026,75.959 278.375,75.959 278.05,75.959 277.719,75.959 277.072,75.959 276.746,75.607 276.093,75.257 275.768,74.903    274.464,74.903 274.139,74.553 274.139,74.203 274.464,73.849 273.811,74.203 273.486,74.203 273.486,73.849 273.486,73.148    273.486,72.443 273.811,72.091 273.486,71.741 272.832,71.741 272.507,72.091 272.182,72.443 271.854,72.443 271.531,72.443    270.878,72.091 270.878,71.741 270.553,71.389 270.225,71.037 270.225,70.684 269.9,71.037 269.574,71.389 269.249,71.389    269.249,71.037 269.249,70.684 269.249,70.334 269.574,70.334 269.9,70.334 269.574,69.982 269.574,69.629 270.225,69.279    270.553,69.279 270.878,69.629 270.878,69.982 270.878,70.334 271.203,70.334 271.531,69.982 271.854,69.982 272.507,70.334    272.832,69.982 272.832,69.629 272.507,69.279 272.832,68.927 273.16,68.927 273.811,68.575 274.139,68.224 273.811,67.521    273.811,67.168 273.486,67.168 273.16,67.168 272.182,66.116 271.854,65.762 271.531,65.762 271.531,65.412 271.854,65.061    271.854,64.708 271.854,64.356 272.507,64.356 273.16,64.356 273.486,64.356 273.811,64.004 273.811,63.3 273.811,62.951    274.139,62.249 274.464,62.249 274.786,62.249 275.115,61.895   " id="upazila_198" area="upazlia" name="atpara" bengali="আটপাড়া" parent="netrokona"></polygon><polygon points="268.921,35.525 268.599,35.878 268.921,36.581 269.246,36.581 269.574,36.581 269.903,36.93    269.574,37.284 269.574,37.635 270.225,37.635 270.225,37.986 269.903,38.338 269.574,38.69 269.574,39.393 269.903,39.393    270.225,39.744 270.225,40.095 270.225,40.8 269.903,41.15 269.903,41.504 269.903,41.854 270.225,42.206 270.553,42.557    270.878,42.557 271.531,42.557 271.854,42.91 271.854,43.262 271.854,43.611 271.854,43.962 271.531,43.962 271.206,43.962    270.878,44.316 270.878,44.667 271.206,44.667 271.531,44.667 271.854,44.316 272.182,44.316 272.835,44.316 273.157,44.667    273.157,45.019 273.486,45.019 273.811,44.667 273.811,44.316 274.139,44.316 274.464,44.316 274.786,44.667 275.115,45.019    275.115,45.722 275.115,46.073 275.115,46.777 275.115,47.129 275.44,47.479 275.768,47.83 276.093,47.83 276.418,47.83    276.746,47.83 277.074,47.479 277.074,46.777 277.4,46.777 278.05,46.777 278.7,47.479 279.026,47.83 279.026,48.535    279.026,49.238 279.026,49.59 279.026,49.94 279.351,49.94 279.679,49.94 280.004,50.293 280.004,50.644 279.679,50.995    279.026,50.995 278.7,50.644 278.375,50.995 278.05,51.347 278.05,52.05 278.05,52.402 277.719,53.105 277.074,53.457    277.074,53.807 276.746,54.513 276.418,54.864 276.418,55.214 276.093,55.567 275.768,55.917 276.093,56.271 276.418,56.622    277.074,56.974 277.074,57.325 277.074,58.027 276.746,58.731 276.746,59.081 276.746,59.434 276.418,59.786 276.093,60.138    275.44,61.193 275.768,61.543 275.115,61.895 274.786,62.249 274.464,62.249 274.139,62.249 273.811,62.951 273.811,63.3    273.811,64.004 273.486,64.356 273.157,64.356 272.507,64.356 271.854,64.356 271.854,64.709 271.854,65.061 271.531,65.412    271.531,65.762 271.854,65.762 272.182,66.116 273.157,67.168 273.486,67.168 273.811,67.168 273.811,67.521 274.139,68.224    273.811,68.576 273.157,68.927 272.835,68.927 272.507,69.279 272.835,69.629 272.835,69.982 272.507,70.334 271.854,69.982    271.531,69.982 271.206,70.334 270.878,70.334 270.878,69.982 270.878,69.629 270.553,69.279 270.225,69.279 269.903,68.927    269.574,68.576 269.246,68.224 268.921,67.872 268.599,67.872 268.271,67.872 267.62,67.872 267.292,67.872 266.642,67.872    266.314,67.872 265.663,68.224 265.013,68.576 264.685,69.279 264.357,69.279 263.709,69.629 263.381,69.982 263.053,69.982    262.406,69.982 262.08,69.982 261.752,69.279 262.08,68.927 262.08,68.576 261.752,68.576 261.427,68.576 261.427,68.224    260.774,68.224 260.448,68.224 260.12,68.576 259.795,68.224 259.47,68.224 258.817,68.224 258.166,68.224 257.841,68.224    257.516,68.576 257.188,68.576 257.188,67.872 256.537,68.224 255.887,67.521 255.887,67.168 255.559,66.818 254.906,66.466    254.58,66.466 254.255,66.818 254.255,67.168 253.93,67.168 253.605,66.466 253.605,66.116 253.93,65.762 253.93,65.412    253.93,65.061 254.255,64.356 254.255,64.004 254.58,64.004 255.231,63.654 255.231,63.3 255.231,62.951 255.231,62.599    254.906,62.249 254.906,61.895 254.58,61.543 254.58,60.842 254.906,60.488 254.906,60.138 254.58,59.434 254.58,59.081    254.255,58.731 254.255,58.027 253.93,57.675 253.605,57.325 253.605,56.974 253.605,56.271 253.28,55.917 253.605,55.567    253.605,55.214 253.605,54.864 253.93,54.161 253.93,53.457 253.93,53.105 254.255,52.752 254.58,52.402 254.58,52.05    254.58,51.347 254.906,50.644 255.231,50.644 255.559,50.644 255.887,50.293 256.212,49.94 256.212,49.59 256.865,49.59    257.188,49.59 257.516,48.886 257.841,48.886 258.491,48.886 258.491,48.535 258.491,48.183 258.491,47.83 258.817,47.129    258.817,46.777 258.817,46.424 258.491,45.722 257.841,45.722 258.491,45.372 258.817,45.019 259.148,44.667 259.47,44.667    259.47,44.316 260.12,43.962 260.774,43.962 261.099,44.316 261.752,43.962 262.08,43.611 262.731,43.611 263.381,43.962    263.709,43.611 264.685,43.611 264.685,42.91 264.685,42.206 264.031,42.206 263.709,41.504 263.381,42.206 262.731,41.854    262.731,41.504 261.752,40.095 262.731,40.095 263.053,39.744 263.709,39.744 264.031,39.744 264.357,39.393 264.685,39.393    264.685,39.042 264.357,38.69 263.709,38.338 263.053,37.986 262.731,37.635 262.731,37.284 262.731,36.93 262.731,36.581    263.381,36.228 263.709,35.878 264.031,35.525 264.357,34.82 264.685,35.173 265.013,35.525 265.663,35.878 266.314,36.228    266.967,36.228 267.292,36.228 267.946,36.228 268.271,35.878   " id="upazila_206" area="upazlia" name="netrokonasadar" bengali="নেত্রকোণা-সদর" parent="netrokona"></polygon><polygon points="233.071,35.878 232.745,35.173 232.417,35.173 231.764,35.173 231.114,34.82 231.114,34.47    230.785,34.118 230.785,33.766 230.785,33.415 231.114,33.415 231.114,33.063 230.785,32.715 229.81,32.361 229.159,32.361    228.834,32.361 228.506,32.361 228.181,32.361 228.181,32.008 228.181,31.306 228.181,30.954 228.181,30.603 228.834,30.603    230.463,30.251 230.785,30.251 231.439,30.251 231.764,30.251 232.092,30.603 232.417,30.603 232.745,30.603 232.745,30.954    233.071,30.954 233.399,30.954 234.046,30.603 234.371,29.898 234.699,29.898 235.678,30.251 236.003,29.898 236.654,29.898    237.632,30.251 237.96,29.898 237.96,29.548 237.96,28.845 238.282,28.845 238.939,28.845 239.589,28.845 239.911,28.845    240.24,29.197 239.589,29.548 239.264,29.898 239.589,30.251 239.911,29.898 240.24,29.898 240.565,30.251 240.893,30.954    240.893,31.306 241.218,31.658 241.543,31.658 242.197,32.008 241.871,32.361 241.871,32.715 242.197,33.063 242.847,33.415    242.522,33.766 243.825,33.766 244.154,33.415 245.129,33.766 245.129,34.47 245.782,34.47 246.105,34.47 246.105,34.118    246.105,33.415 246.433,33.063 246.758,33.063 246.758,33.415 247.086,34.118 246.758,34.47 247.737,34.82 248.062,34.82    248.387,34.82 249.037,35.173 249.365,35.173 250.019,35.173 250.019,35.525 250.669,35.525 250.997,35.878 250.669,36.226    250.669,36.581 250.997,36.581 251.32,36.93 251.648,36.93 251.973,36.93 252.301,36.581 252.626,36.93 252.951,36.93    253.605,37.284 253.93,37.284 254.255,36.93 254.58,36.93 255.234,36.93 255.559,37.284 255.559,37.633 255.884,37.986    256.537,37.986 256.865,37.633 256.537,37.284 257.188,36.93 257.513,36.93 258.166,37.284 257.513,37.633 257.188,38.338    256.865,38.338 256.865,38.69 257.188,38.69 257.513,38.69 257.841,38.69 258.491,38.338 258.491,38.69 258.166,39.042    257.513,39.393 256.865,39.393 256.537,39.744 256.212,40.095 256.212,40.449 256.537,40.449 257.188,40.8 257.513,41.15    258.166,41.502 259.148,41.15 259.47,40.8 259.795,40.8 260.12,41.15 260.774,40.8 261.752,40.095 262.731,41.502 262.731,41.854    263.381,42.206 263.709,41.502 264.031,42.206 264.685,42.206 264.685,42.908 264.685,43.611 263.709,43.611 263.381,43.962    262.731,43.611 262.08,43.611 261.752,43.962 261.099,44.316 260.774,43.962 260.12,43.962 259.47,44.316 259.47,44.667    259.148,44.667 258.82,45.019 258.491,45.369 257.841,45.722 258.491,45.722 258.82,46.424 258.82,46.777 258.82,47.129    258.491,47.83 258.491,48.183 258.491,48.535 258.491,48.886 257.841,48.886 257.513,48.886 257.188,49.59 256.865,49.59    256.212,49.59 256.212,49.94 255.884,50.293 255.559,50.643 255.234,50.643 254.906,50.643 254.58,51.347 254.58,52.05    254.58,52.402 254.255,52.752 253.93,53.104 253.93,53.457 253.93,54.161 253.605,54.864 253.605,55.214 253.605,55.567    253.28,55.917 253.605,56.271 253.605,56.973 253.605,57.325 253.93,57.675 254.255,58.027 254.255,58.731 254.58,59.081    254.58,59.434 254.906,60.138 254.906,60.488 254.58,60.839 254.58,61.543 254.906,61.895 254.906,62.247 255.234,62.599    255.234,62.951 255.234,63.3 255.234,63.654 254.58,64.004 254.255,64.004 254.255,64.356 253.93,65.061 253.93,65.412    253.93,65.762 253.605,66.114 253.605,66.466 253.93,67.168 254.255,67.168 254.255,66.818 254.58,66.466 254.906,66.466    255.559,66.818 255.884,67.168 255.884,67.521 256.537,68.224 256.212,68.575 255.884,68.927 255.559,68.927 255.234,69.279    254.58,69.629 253.93,69.629 253.605,69.629 252.951,69.629 252.626,68.927 252.301,68.575 251.973,68.575 251.648,68.927    251.32,68.927 250.997,68.927 250.669,68.927 250.344,68.575 250.344,68.224 250.019,67.872 249.694,67.872 249.365,67.521    249.037,67.521 249.037,67.168 248.715,66.818 248.387,66.466 248.062,66.466 247.737,66.466 247.411,66.818 247.086,67.168    247.086,66.818 246.758,66.818 246.433,66.466 246.105,66.466 245.454,66.466 244.804,66.466 244.804,66.114 244.804,65.412    244.476,65.412 244.154,65.412 244.154,65.762 243.825,65.762 243.5,66.114 243.175,66.466 242.847,66.818 242.522,66.466    242.197,66.114 242.197,65.762 242.522,65.412 243.175,65.412 243.5,65.061 244.154,65.061 244.476,64.708 244.476,64.356    244.476,64.004 244.804,63.654 244.804,63.3 245.129,63.3 245.454,63.3 245.782,62.951 245.782,62.599 245.454,62.247    245.129,62.247 244.476,62.247 244.154,62.247 243.825,62.599 243.5,62.599 243.175,62.247 242.847,62.599 242.522,62.247    241.871,61.895 241.871,61.543 242.197,61.543 242.522,61.543 242.847,61.193 242.847,60.839 242.847,60.488 242.847,60.138    243.175,60.138 243.5,60.138 243.175,59.786 243.175,59.434 242.847,59.081 242.847,58.379 242.847,57.675 243.5,57.675    243.175,57.325 242.847,56.973 242.847,56.271 242.847,55.917 242.522,55.567 242.197,55.567 241.543,55.567 241.218,55.567    240.893,55.917 240.565,55.567 240.24,55.567 239.589,55.567 239.264,55.567 238.939,55.567 238.611,54.864 238.282,54.513    238.611,54.161 238.939,53.807 239.264,53.807 239.264,53.104 239.264,52.752 239.264,52.402 239.264,52.05 238.939,51.347    238.611,51.347 238.611,50.643 238.611,50.293 238.611,49.59 238.611,48.886 238.939,48.886 239.264,48.886 239.589,48.886    239.589,48.183 239.589,47.83 239.264,47.83 238.939,47.83 238.611,47.479 238.282,47.479 237.632,47.479 237.632,47.129    237.96,46.777 237.96,46.424 237.96,46.073 237.632,46.073 237.307,46.424 236.979,46.777 236.331,47.129 236.003,47.129    236.003,46.073 235.678,45.369 235.678,44.667 235.678,43.962 236.331,42.908 236.979,42.557 236.979,42.206 236.654,42.206    236.003,42.206 235.678,42.206 235.678,41.854 235.35,41.502 235.35,41.15 235.028,41.15 234.699,41.15 234.699,40.8    234.699,40.095 234.699,39.744 234.699,39.393 234.699,38.69 234.699,38.338 234.371,38.338 234.046,38.338 233.399,38.338    233.071,38.338 233.071,37.986 233.399,37.284 234.046,36.93 234.371,36.581 234.699,36.226 234.371,35.878 234.046,35.878   " id="upazila_207" area="upazlia" name="purbadhala" bengali="পূর্বধলা" parent="netrokona"></polygon></svg>