<svg enable-background="new -106.403 -201.859 629.266 880.536" height="880.536px" id="district_41" viewBox="-106.403 -201.859 629.266 880.536" width="629.266px" x="0px" xml:space="preserve" xmlns="http://www.w3.org/2000/svg" y="0px"><polygon points="236.331,227.149 236.656,226.973 236.979,226.795 237.307,226.444 237.307,225.741    237.635,225.39 237.96,225.39 237.96,225.037 237.96,224.336 237.96,224.334 238.121,224.158 238.282,223.984 238.939,223.632    239.586,223.984 240.568,223.632 241.218,223.632 241.871,222.928 242.115,222.403 242.197,222.226 242.522,221.874    242.847,221.523 243.011,221.171 243.172,220.821 243.5,220.466 244.154,220.466 244.476,220.466 244.804,219.764    244.154,219.413 244.154,219.06 244.476,218.712 244.804,218.358 245.132,218.006 245.78,218.358 246.433,218.006    246.758,218.006 246.758,217.303 246.433,216.952 246.105,216.952 245.78,216.249 245.78,215.545 245.78,214.138 245.78,213.436    246.105,212.38 246.433,212.38 246.433,211.678 246.433,211.326 246.105,210.975 246.105,210.624 246.105,210.27 246.758,209.568    247.411,209.218 248.062,208.865 247.737,208.512 247.408,208.162 247.086,207.458 246.758,207.108 246.433,206.402    246.433,206.052 246.433,205.701 247.086,205.35 247.408,205.35 247.411,205.35 247.737,205.35 248.062,204.998 248.223,204.822    248.387,204.645 248.387,203.943 248.712,203.591 248.876,202.888 249.037,202.184 248.876,202.009 248.712,201.834    248.712,201.482 248.712,201.481 248.062,201.131 248.062,200.779 247.737,200.427 247.411,200.779 247.086,201.482    246.758,201.834 246.105,201.834 245.454,201.131 245.78,200.427 245.132,200.427 244.804,200.427 244.154,200.427    243.172,200.779 242.847,200.779 242.197,200.427 242.522,199.373 242.197,198.669 242.197,198.315 241.543,197.614    240.568,196.208 239.911,196.208 239.264,195.503 239.264,195.153 238.939,194.449 238.608,194.097 238.282,193.747    237.635,193.747 237.307,193.394 236.654,193.394 236.654,193.043 236.654,192.691 236.654,191.988 236.331,191.636    236.006,191.286 235.678,191.636 235.35,191.636 235.025,192.691 235.35,193.394 235.35,193.747 235.35,194.449 234.699,194.449    234.371,194.097 233.718,194.097 233.071,194.097 232.092,194.097 232.092,194.8 232.092,195.153 232.092,195.855    232.092,196.208 232.092,196.911 232.092,197.614 231.439,197.967 231.114,198.315 231.114,199.373 231.114,199.722    230.463,200.077 229.81,200.427 229.159,201.482 228.506,201.834 227.853,202.184 227.853,202.888 228.181,203.239    228.506,203.591 228.831,203.943 229.159,204.295 229.485,204.645 229.81,205.35 229.485,205.701 229.159,206.052    229.159,206.402 228.831,206.756 228.506,207.108 228.831,207.458 229.159,207.458 229.485,207.811 229.81,208.162    229.81,208.512 230.138,208.512 230.138,208.865 230.785,209.568 231.114,209.568 231.114,209.92 231.439,210.27 231.767,210.27    231.767,210.624 231.767,211.326 231.767,211.678 231.114,212.029 230.785,212.732 230.785,213.436 231.439,213.786    231.114,214.49 230.785,215.191 230.463,215.191 229.81,215.896 229.485,215.896 229.159,216.249 229.485,216.6 229.81,216.952    229.81,217.303 230.138,217.656 230.463,217.656 230.785,218.358 230.785,219.06 231.114,220.115 231.439,220.466    231.767,220.466 231.439,221.171 231.439,221.873 231.767,222.226 232.092,222.226 232.417,222.578 232.417,223.28    232.417,223.984 232.745,224.334 233.071,224.688 233.399,225.037 233.399,226.094 233.718,226.444 234.046,226.795    234.371,226.795 234.699,227.149 234.699,227.5 235.025,227.852 235.35,227.5   " id="upazila_457" area="upazlia" name="rupganj" bengali="রূপগঞ্জ" parent="narayanganj"></polygon><polygon points="246.105,219.414 246.105,219.764 246.758,219.764 247.086,220.115 247.411,220.466    248.065,220.466 248.39,220.82 248.715,220.82 249.037,221.171 248.715,221.525 249.694,222.225 250.344,222.225 250.669,222.225    251,222.577 251.323,223.28 251.648,223.632 251.973,223.632 252.301,223.632 252.626,223.632 252.951,223.632 252.951,223.983    252.951,224.688 253.28,225.037 253.605,225.037 253.933,224.688 254.255,224.688 254.58,225.037 254.255,225.39 254.255,225.741    254.255,226.094 254.906,225.741 255.231,225.741 255.231,226.094 254.906,226.444 254.906,226.797 255.231,226.797    255.559,227.147 255.887,227.498 255.559,228.201 255.887,228.201 256.212,228.554 256.537,228.904 256.863,229.258    257.188,229.61 257.513,229.958 257.513,230.664 257.188,231.016 256.537,231.368 256.212,232.069 256.212,232.421    255.559,232.774 256.537,232.422 259.47,233.125 260.774,233.125 262.08,233.831 263.056,234.179 264.36,234.179 265.013,234.179    265.663,233.125 265.989,232.069 266.314,231.015 266.314,230.664 266.314,229.958 266.314,229.257 265.663,228.554    265.013,227.852 264.357,227.147 264.031,226.444 263.706,225.741 263.706,225.037 263.706,224.336 263.381,223.28    263.706,222.225 264.031,221.525 264.357,221.171 265.013,220.115 265.663,219.413 266.314,218.709 266.967,218.009    267.62,217.656 267.946,217.302 268.271,216.952 267.292,216.6 266.639,216.249 266.314,215.896 265.663,215.545 265.338,215.191    264.688,214.845 264.357,214.49 264.031,214.138 263.053,213.786 262.731,213.436 262.731,212.732 262.406,212.38    262.077,212.029 261.427,211.678 261.099,211.326 260.448,210.975 260.12,210.624 259.47,210.27 259.145,210.27 258.82,210.27    258.494,209.92 258.166,209.568 257.841,209.92 258.166,209.92 258.166,210.27 258.166,210.624 258.494,210.975 258.82,211.678    258.82,212.029 259.145,212.38 259.145,212.732 259.145,213.436 259.145,213.786 259.145,214.845 258.82,215.191 258.166,214.845    257.841,214.845 257.841,214.138 257.513,214.138 256.865,214.138 255.884,214.49 255.884,214.138 255.884,213.436    255.234,213.786 254.906,213.786 254.255,213.786 253.933,213.786 253.605,213.083 253.277,212.029 252.951,211.678    252.626,210.975 252.301,210.624 252.301,209.92 252.301,209.218 252.951,208.512 253.277,208.162 253.933,208.162    254.906,208.162 255.559,207.811 255.559,207.458 255.559,207.108 255.234,206.756 254.58,206.756 253.933,206.756    253.933,206.052 254.255,205.701 254.58,204.998 254.255,204.645 253.933,204.295 253.605,204.295 253.605,203.591    253.277,203.239 252.951,203.239 252.626,203.591 251.97,203.591 251.323,203.591 251.323,203.943 250.997,204.295    250.669,204.645 250.344,204.998 250.019,205.701 250.019,206.052 250.019,206.756 250.019,207.108 250.019,207.458    250.019,208.162 249.365,208.512 248.712,208.865 248.065,208.865 247.737,208.512 248.062,208.865 247.411,209.218    246.758,209.568 246.105,210.27 246.105,210.624 246.105,210.975 246.433,211.326 246.433,211.678 246.433,212.38 246.105,212.38    245.78,213.436 245.78,214.138 245.78,215.545 245.78,216.249 246.105,216.952 246.433,216.952 246.758,217.303 246.758,218.006    246.433,218.006 245.78,218.358 245.132,218.006 244.804,218.358 244.476,218.712 244.154,219.06 244.154,219.413    244.804,219.764 245.78,219.414   " id="upazila_462" area="upazlia" name="araihazar" bengali="আড়াইহাজার" parent="narayanganj"></polygon><polygon points="244.154,250.706 244.154,250.355 243.5,249.65 242.847,248.949 242.522,248.595 242.197,248.243    242.197,247.191 242.197,247.188 241.871,245.782 241.871,245.431 241.871,245.431 242.032,245.077 242.197,244.727    242.522,244.028 243.011,243.766 243.172,243.674 243.175,243.674 243.825,243.674 243.825,243.674 244.315,243.323    244.804,242.969 244.804,242.969 245.78,242.969 246.758,243.32 247.737,243.32 248.39,243.32 248.39,243.32 249.037,242.622    249.53,242.267 249.541,242.259 250.019,241.913 250.669,241.563 250.781,241.445 251,241.211 251,241.211 250.997,241.211    251,241.208 251,240.86 251.97,237.71 251.97,237.698 251.973,237.692 252.301,236.64 252.626,235.938 252.951,235.938    252.951,235.936 252.951,235.587 252.951,235.233 252.951,234.535 252.626,233.828 252.951,233.125 253.605,232.774    254.255,232.422 254.906,232.774 255.559,232.774 256.212,232.421 256.212,232.069 256.537,231.368 257.188,231.016    257.513,230.664 257.513,229.958 257.188,229.61 256.863,229.258 256.537,228.904 256.212,228.554 255.887,228.201    255.559,228.201 255.887,227.498 255.559,227.147 255.231,226.797 254.906,226.797 254.906,226.444 255.231,226.094    255.231,225.741 254.906,225.741 254.255,226.094 254.255,225.741 254.255,225.39 254.58,225.037 254.255,224.688    253.933,224.688 253.605,225.037 253.28,225.037 252.951,224.688 252.951,223.983 252.951,223.632 252.626,223.632    252.301,223.632 251.973,223.632 251.648,223.632 251.323,223.28 251,222.577 250.669,222.225 250.344,222.225 249.694,222.225    248.715,221.525 249.037,221.171 248.715,220.82 248.39,220.82 248.065,220.466 247.411,220.466 247.086,220.115 246.758,219.764    246.105,219.764 246.105,219.414 245.78,219.414 244.804,219.764 244.476,220.466 244.154,220.466 243.5,220.466 243.172,220.821    243.011,221.171 242.847,221.525 242.522,221.874 242.197,222.226 242.115,222.403 241.871,222.931 241.218,223.632    240.568,223.632 239.586,223.984 238.939,223.632 238.282,223.984 238.121,224.158 237.96,224.336 237.96,225.037 237.96,225.39    237.635,225.39 237.307,225.741 237.307,226.444 236.979,226.797 236.656,226.973 236.331,227.149 235.35,227.5 235.025,227.852    235.35,228.554 236.006,228.201 236.654,229.258 236.331,229.958 236.979,231.368 237.635,231.368 238.282,230.664    238.608,230.664 238.608,230.311 238.608,229.958 238.939,229.61 239.264,229.61 239.586,229.61 239.911,229.61 239.911,229.258    240.568,228.904 240.893,229.258 241.543,229.258 241.218,229.61 241.218,229.958 241.218,230.311 241.543,230.664    242.197,230.664 242.522,230.664 242.522,231.016 242.847,231.016 242.847,230.664 242.847,230.311 242.847,229.958    243.172,229.958 243.172,230.311 243.825,230.311 243.825,229.958 244.476,229.958 244.476,229.61 244.804,229.258    244.804,228.904 244.476,228.201 244.476,227.498 244.804,227.147 245.132,226.797 245.454,226.797 245.78,227.147    245.78,227.852 245.78,228.554 245.454,229.258 245.132,230.311 244.804,230.664 244.476,231.716 244.154,232.421    243.825,232.421 243.172,233.828 243.5,234.179 243.172,235.233 242.847,235.585 242.197,235.585 242.197,235.938    242.522,237.343 242.522,238.045 242.197,239.103 241.543,239.103 241.218,239.805 240.893,240.157 241.543,240.51    241.543,241.211 240.893,241.913 240.242,241.913 239.586,243.32 240.242,243.674 239.911,244.376 240.242,245.08    239.911,245.782 239.911,246.487 239.911,247.542 239.586,248.243 240.242,248.595 240.568,249.303 241.218,250.003    241.543,250.706 241.871,251.407 242.197,252.109 243.172,252.467 244.154,252.109 244.476,251.758 244.476,251.758   " id="upazila_464" area="upazlia" name="sonargaon" bengali="সোনারগাঁ" parent="narayanganj"></polygon><polygon points="237.307,247.191 236.006,246.135 235.35,246.487 235.025,245.782 234.699,245.08 235.025,244.727    234.699,243.32 234.699,242.267 234.699,241.917 234.699,241.211 234.046,240.512 234.699,239.805 235.025,239.103    235.678,239.454 236.331,238.045 235.678,237.698 236.006,236.291 236.654,235.936 236.654,234.882 236.979,234.534    236.331,234.179 237.307,233.125 237.307,232.774 237.96,232.422 237.632,231.368 238.282,230.664 238.611,230.664    238.611,230.312 238.611,229.958 238.939,229.61 239.264,229.61 239.586,229.61 239.911,229.61 239.911,229.257 240.568,228.907    240.893,229.257 241.543,229.257 241.218,229.61 241.218,229.958 241.218,230.312 241.543,230.664 242.197,230.664    242.519,230.664 242.519,231.016 242.847,231.016 242.847,230.664 242.847,230.312 242.847,229.958 243.175,229.958    243.175,230.312 243.825,230.312 243.825,229.958 244.476,229.958 244.476,229.61 244.804,229.257 244.804,228.907 244.476,228.2    244.476,227.5 244.804,227.149 245.129,226.795 245.454,226.795 245.78,227.149 245.78,227.852 245.78,228.554 245.454,229.257    245.129,230.312 244.804,230.664 244.476,231.716 244.154,232.422 243.825,232.422 243.175,233.831 243.5,234.179    243.175,235.235 242.847,235.587 242.197,235.587 242.197,235.936 242.519,237.345 242.519,238.045 242.197,239.103    241.543,239.103 241.218,239.805 240.893,240.158 241.543,240.512 241.543,241.211 240.893,241.917 240.24,241.917    239.586,243.32 240.24,243.674 239.911,244.376 240.24,245.08 239.911,245.782 239.911,246.487 239.911,247.542 239.586,248.243    238.611,247.542   " id="upazila_191" area="upazlia" name="narayanganjsadar" bengali="নারায়নগঞ্জ সদর" parent="narayanganj"></polygon><polygon points="234.699,227.5 235.025,227.852 235.35,228.554 236.006,228.201 236.654,229.257 236.331,229.958    236.979,231.368 237.632,231.368 237.96,232.422 237.307,232.774 237.307,233.125 236.331,234.179 236.979,234.534    236.654,234.882 236.654,235.938 236.006,236.291 235.678,237.698 236.331,238.045 235.678,239.454 235.025,239.103    234.699,239.805 234.046,240.512 234.699,241.211 234.699,241.913 234.699,242.267 234.699,243.32 235.025,244.727    234.699,245.08 235.025,245.782 235.35,246.487 236.006,246.135 237.307,247.191 236.654,247.191 236.006,246.837    234.699,246.837 234.046,247.191 233.071,247.191 232.417,247.542 232.092,247.542 232.092,248.243 231.439,248.949    230.785,248.949 230.463,248.595 229.813,249.303 229.156,250 228.831,250.706 227.531,251.057 226.877,251.758 226.552,251.758    225.573,251.407 225.248,250.706 225.248,250 224.917,250 224.595,249.303 224.27,248.243 224.27,247.542 224.27,246.837    224.27,245.431 224.27,244.727 224.27,244.028 224.27,243.32 223.945,242.622 223.945,241.913 224.595,241.211 224.917,240.859    225.573,239.805 225.899,239.805 226.552,239.454 227.205,239.454 227.853,239.103 228.831,238.753 229.485,238.399    229.485,238.045 229.485,237.698 229.156,237.345 228.831,236.64 228.506,236.64 227.853,235.938 227.853,235.587    227.531,235.587 227.205,234.882 226.877,234.179 226.552,233.831 226.877,232.774 227.531,232.422 227.853,232.069    228.181,231.716 228.181,231.016 228.831,231.016 229.156,231.016 229.485,230.664 229.813,230.311 230.785,229.958    231.439,229.61 232.092,229.257 232.417,228.907 232.745,228.554 233.399,228.554 234.046,227.852   " id="upazila_192" area="upazlia" name="bandar" bengali="বন্দর" parent="narayanganj"></polygon></svg>