<svg enable-background="new -106.403 -201.859 629.266 880.536" height="880.536px" id="district_41" viewBox="-106.403 -201.859 629.266 880.536" width="629.266px" x="0px" xml:space="preserve" xmlns="http://www.w3.org/2000/svg" y="0px"><polygon points="128.119,253.167 128.772,252.817 129.097,252.817 129.748,253.167 130.401,253.519    131.052,253.519 131.379,253.869 131.379,254.223 131.379,254.922 131.379,255.275 131.704,255.629 132.031,255.98    132.031,256.332 132.031,256.686 132.031,257.033 132.031,257.737 132.684,258.439 132.356,259.147 131.704,259.848    131.379,260.551 131.379,261.252 130.727,261.252 130.401,260.551 130.075,260.551 129.748,261.252 129.748,261.956    129.422,262.661 129.422,263.012 129.422,263.36 129.422,264.067 129.748,264.77 129.748,265.824 129.748,266.526 130.075,266.88    130.401,266.88 130.727,266.88 131.052,267.231 131.052,267.582 130.727,267.932 130.401,267.932 130.075,268.287    130.075,268.638 130.075,268.992 129.748,269.342 129.097,269.689 128.772,270.396 129.097,270.396 129.422,270.746    129.748,270.746 129.748,271.096 129.422,271.801 129.748,272.156 129.748,272.506 130.075,272.854 130.727,273.208    131.704,273.912 132.356,274.264 132.684,274.614 132.684,274.965 133.008,275.669 133.334,276.021 133.008,276.722    133.334,277.079 133.988,277.427 134.638,277.427 134.965,277.427 135.29,277.427 135.29,278.129 135.29,278.482 135.29,278.836    134.965,279.184 135.29,279.534 135.616,279.886 135.941,280.243 135.941,280.59 135.941,281.295 136.269,281.649    136.594,281.999 136.594,283.052 136.919,283.052 137.247,284.458 136.919,284.809 137.247,285.514 136.594,286.569    135.941,286.569 135.616,286.569 135.616,286.92 135.29,287.271 135.29,287.977 134.638,287.625 134.313,287.625 133.988,287.977    133.659,288.331 133.334,288.681 133.334,289.028 133.334,289.378 133.008,289.729 132.684,289.729 132.356,289.378    132.356,289.028 132.031,288.331 131.379,287.977 131.052,288.331 131.379,289.378 131.052,289.378 130.727,289.378    130.401,289.028 130.401,288.681 130.075,288.331 129.422,287.977 128.772,287.625 129.422,288.681 129.422,289.378    129.422,289.729 128.772,289.378 128.772,289.028 128.447,288.681 128.119,288.681 127.794,288.681 127.466,289.028    127.141,289.729 126.815,289.729 126.49,289.378 126.162,289.028 125.512,289.028 124.532,288.681 124.532,288.331    124.532,287.625 124.859,287.271 125.187,286.92 125.837,286.92 126.49,286.92 126.49,286.569 126.49,286.216 126.162,285.864    125.512,285.514 124.859,285.167 124.208,284.809 123.882,284.458 123.23,284.108 123.23,283.756 123.23,283.052 123.23,282.347    122.905,281.999 122.578,281.999 122.251,282.347 121.928,282.698 121.601,283.052 121.275,283.403 120.949,283.756    120.624,284.108 120.624,283.756 120.296,283.756 119.969,283.756 119.969,283.403 119.646,283.403 118.993,283.403    118.667,284.108 118.342,284.108 117.689,284.458 117.038,284.458 116.711,284.809 116.061,285.167 116.061,285.514    116.386,285.514 117.038,285.514 117.365,285.864 117.365,286.569 117.365,287.271 117.365,287.625 117.689,288.331    117.365,288.681 116.061,290.087 115.735,289.729 115.406,289.028 114.754,288.331 114.431,287.977 113.779,287.625    113.125,287.271 112.472,286.569 112.472,285.864 112.15,285.167 112.15,284.108 111.498,283.403 111.17,283.052 111.17,282.347    110.843,281.649 111.17,280.59 111.17,279.886 110.843,278.129 110.843,277.427 110.195,276.722 110.195,276.371 109.867,276.021    110.195,275.669 110.518,275.319 111.17,275.669 111.822,275.669 112.472,276.021 113.125,276.371 113.453,276.021    113.453,275.669 113.125,274.965 112.802,274.264 112.15,272.854 111.822,272.156 111.822,271.096 111.498,270.042    111.498,269.342 111.498,268.287 111.498,267.231 111.822,266.176 111.822,265.12 111.822,264.77 113.125,263.713    113.453,263.713 114.103,263.713 114.431,263.713 114.431,263.36 114.431,263.012 114.431,262.661 114.431,262.311    114.754,262.311 114.431,261.956 114.103,261.606 114.103,261.252 114.103,260.901 114.431,260.197 114.754,259.498    115.082,259.147 115.406,259.498 115.735,259.498 116.061,259.498 116.386,259.498 116.386,259.848 116.711,260.197    117.038,259.498 117.038,259.147 117.365,258.793 117.689,259.147 118.015,259.498 118.667,259.147 118.993,259.147    119.321,259.147 119.969,259.498 120.296,259.848 120.949,260.197 121.275,260.197 121.601,259.848 121.928,259.498    121.601,259.498 121.275,259.147 121.275,258.439 121.275,258.088 121.275,257.737 120.624,257.737 120.296,257.737    120.296,257.387 120.296,256.686 120.949,256.332 121.275,255.98 121.928,255.275 122.251,255.275 123.23,255.629    123.882,255.629 124.208,255.275 124.532,254.922 125.187,254.922 125.837,255.275 125.837,254.922 126.162,254.571    126.49,254.223 127.141,254.223 127.141,254.571 127.466,254.571 128.119,254.571 128.447,254.571 128.447,254.223   " id="upazila_127" area="upazlia" name="boalmari" bengali="বোয়ালমারী" parent="faridpur"></polygon><polygon points="144.089,257.737 144.414,258.088 143.438,258.439 144.414,259.147 144.742,260.197    144.089,260.901 143.438,261.606 142.785,262.308 142.134,263.012 142.46,263.713 143.438,263.713 144.414,264.067    145.068,263.713 144.742,265.12 144.742,265.824 145.068,266.526 144.414,267.231 144.414,267.932 144.414,269.689    145.068,270.396 145.393,270.746 146.697,271.096 146.697,271.801 146.697,272.506 146.697,273.208 146.371,273.558    145.068,272.857 144.742,272.857 145.393,273.558 145.393,274.614 145.393,275.673 145.068,276.021 144.742,277.427    144.089,277.777 143.764,278.836 143.438,279.534 144.414,279.184 146.045,279.184 147.022,279.886 148.653,280.593    148.979,281.645 149.304,283.052 148.979,283.403 148.653,283.756 148.653,284.461 148,284.812 147.675,284.461 147.349,284.108    147.349,283.756 147.022,283.052 147.022,282.698 147.022,282.347 146.371,282.347 146.045,282.347 145.393,282.347    145.068,282.347 144.742,282.698 144.414,283.052 144.089,283.403 143.764,283.403 143.113,283.052 142.785,282.698    142.785,282.347 142.46,282.002 142.46,281.645 142.134,281.295 141.809,281.295 141.482,281.645 141.156,282.347 140.83,283.052    140.18,283.403 139.527,283.756 139.201,284.461 138.876,285.163 138.549,285.864 137.571,286.566 136.919,286.566    136.594,286.566 137.245,285.514 136.919,284.812 137.245,284.461 136.919,283.052 136.594,283.052 136.594,282.002    136.267,281.645 135.942,281.295 135.942,280.593 135.942,280.24 135.616,279.886 135.29,279.534 134.963,279.184 135.29,278.836    135.29,278.482 135.29,278.132 135.29,277.427 134.963,277.427 134.638,277.427 133.987,277.427 133.334,277.076 133.008,276.722    133.334,276.021 133.008,275.673 132.683,274.965 132.683,274.614 132.355,274.264 131.704,273.912 130.727,273.208    130.073,272.857 129.748,272.506 129.748,272.156 129.422,271.801 129.748,271.096 129.748,270.746 129.422,270.746    129.097,270.396 128.77,270.396 129.097,269.689 129.748,269.342 130.073,268.992 130.073,268.638 130.073,268.287    130.401,267.932 130.727,267.932 131.052,267.582 131.052,267.231 130.727,266.877 130.401,266.877 130.073,266.877    129.748,266.526 129.748,265.824 129.748,264.77 129.422,264.067 129.422,263.36 129.422,263.012 129.422,262.661    129.748,261.956 129.748,261.255 130.073,260.547 130.401,260.547 130.727,261.255 131.379,261.255 131.379,260.547    131.704,259.848 132.355,259.147 132.683,258.439 133.659,258.793 134.313,259.147 134.638,259.147 134.963,259.848    135.29,259.848 135.942,259.498 135.942,258.793 135.942,258.439 136.594,257.737 136.919,257.033 137.245,257.033    137.898,257.033 138.223,257.387 138.549,257.387 139.201,257.737 139.527,257.387 140.18,257.387 140.83,257.737    141.482,257.387 142.134,257.033 142.785,257.033 143.438,257.737 144.089,258.088   " id="upazila_467" area="upazlia" name="saltha" bengali="সালথা" parent="faridpur"></polygon><polygon points="116.061,290.084 117.365,288.681 117.689,288.331 117.365,287.625 117.365,287.271    117.365,286.566 117.365,285.864 117.036,285.514 116.385,285.514 116.061,285.514 116.061,285.163 116.713,284.812    117.036,284.461 117.689,284.461 118.342,284.108 118.665,284.108 118.993,283.403 119.646,283.403 119.969,283.403    119.969,283.756 120.299,283.756 120.624,283.756 120.624,284.108 120.948,283.756 121.275,283.403 121.6,283.052    121.928,282.698 122.251,282.347 122.578,282.002 122.905,282.002 123.229,282.347 123.229,283.052 123.229,283.756    123.229,284.108 123.882,284.461 124.208,284.812 124.859,285.163 125.511,285.514 126.161,285.864 126.49,286.216    126.49,286.566 126.49,286.92 125.837,286.92 125.187,286.92 124.859,287.271 124.532,287.625 124.532,288.331 124.532,288.681    125.511,289.028 126.161,289.028 126.49,289.378 126.815,289.732 127.141,289.732 127.468,289.028 127.794,288.681    128.119,288.681 128.445,288.681 128.772,289.028 128.772,289.378 129.422,289.732 129.75,289.732 130.073,290.084    130.726,290.084 131.054,290.789 131.379,291.14 131.379,291.49 131.054,292.195 130.726,292.546 130.401,293.248    130.401,293.601 130.401,293.953 130.073,294.303 129.097,294.303 128.772,294.654 128.772,295.011 129.097,295.709    129.422,296.061 129.097,296.414 128.119,296.768 127.468,297.116 127.141,297.116 127.141,298.522 127.141,298.873    126.815,298.873 126.161,299.227 125.511,299.577 125.187,300.282 124.859,300.984 124.208,301.338 123.882,301.338    122.578,302.39 121.928,302.04 121.928,301.338 121.6,300.633 121.6,299.932 121.6,299.577 121.6,299.227 121.6,298.522    121.928,297.82 122.251,297.469 122.251,297.116 121.6,296.768 121.275,296.768 120.948,296.768 119.969,296.768 119.646,297.116    118.993,297.116 118.342,297.469 117.689,297.469 116.713,297.82 116.061,297.82 115.406,298.175 114.754,298.175    114.101,298.175 113.779,297.82 113.779,297.469 113.779,296.768 114.101,296.414 114.101,296.061 114.432,295.358    115.082,294.654 115.406,294.303 116.061,293.601 116.385,292.896 116.713,292.195 116.385,291.847 116.385,291.49    116.061,290.789   " id="upazila_125" area="upazlia" name="alfadanga" bengali="আলফাডাঙ্গা" parent="faridpur"></polygon><polygon points="155.824,236.994 156.15,236.994 157.128,237.698 158.432,238.045 159.408,238.4 160.387,238.751    161.365,239.103 162.341,239.103 163.647,239.454 164.623,239.454 165.601,239.454 166.58,239.454 166.905,239.454    170.819,239.454 171.792,239.454 172.448,239.805 172.773,240.859 172.773,241.563 172.773,241.917 172.773,242.267    171.792,242.969 171.792,243.323 171.469,243.674 172.122,244.376 172.773,245.08 173.426,245.431 173.751,246.135    173.751,246.487 173.426,246.841 173.426,247.191 173.426,247.539 174.076,247.539 175.055,247.889 175.706,248.243    176.357,248.243 177.01,248.945 177.335,249.653 177.989,250.003 177.66,250.355 177.335,250.706 176.684,251.057    176.031,251.057 175.38,250.706 174.728,250.706 174.076,250.706 172.773,250.706 172.122,250.355 171.469,250.355    170.49,250.355 169.513,250.003 168.863,250.003 168.208,250.003 167.884,250.355 167.231,250.003 166.905,250.003    166.58,250.003 165.929,250.355 165.601,250.003 164.95,249.653 163.972,248.945 163.647,248.595 163.32,248.595 162.668,248.945    162.341,249.299 162.016,249.653 161.691,250.003 161.037,250.355 160.712,250.706 160.387,251.407 159.734,251.758    159.083,252.111 158.757,252.467 158.105,252.813 157.453,253.167 157.128,253.167 156.476,252.813 156.15,252.467    156.15,252.111 156.15,251.758 156.15,251.407 155.824,250.706 155.499,250.355 154.521,250.003 154.521,249.653 154.194,247.539    154.194,247.191 153.868,246.841 153.217,246.135 152.89,245.431 152.565,244.727 152.24,244.024 152.24,243.674 151.913,243.323    151.586,243.323 151.586,242.619 151.586,241.211 151.913,240.859 153.217,239.454 154.194,238.751 155.171,238.045    155.499,237.698   " id="upazila_128" area="upazlia" name="charbhadrasan" bengali="চরভদ্রাসন" parent="faridpur"></polygon><polygon points="120.624,242.622 120.948,243.674 121.276,244.024 121.276,244.376 121.276,244.727    121.276,245.431 120.948,246.135 121.276,246.487 121.926,246.487 122.578,246.487 123.229,246.135 123.882,245.782    124.207,245.782 124.532,245.431 124.859,245.782 125.187,246.135 125.837,247.188 125.837,247.542 125.511,247.893    124.859,248.595 124.532,248.945 124.532,249.303 124.207,249.65 123.882,250.355 123.555,250.703 123.555,251.06    123.555,251.407 123.882,251.407 124.859,251.758 125.511,251.758 126.162,251.407 126.49,251.758 126.815,252.109    127.14,252.817 127.468,253.167 127.793,253.519 128.118,253.167 128.445,254.223 128.445,254.571 128.118,254.571    127.468,254.571 127.14,254.571 127.14,254.223 126.49,254.223 126.162,254.571 125.837,254.925 125.837,255.275 125.187,254.925    124.532,254.925 124.207,255.275 123.882,255.629 123.229,255.629 122.251,255.275 121.926,255.275 121.276,255.98    120.948,256.332 120.296,256.686 120.296,257.387 120.296,257.737 120.624,257.737 121.276,257.737 121.276,258.088    121.276,258.439 121.276,259.147 121.6,259.498 121.926,259.498 121.6,259.848 121.276,260.197 120.948,260.197 120.296,259.848    119.969,259.498 119.319,259.147 118.993,259.147 118.665,259.147 118.015,259.498 117.69,259.147 117.364,258.79    117.036,259.147 117.036,259.498 116.713,260.197 116.385,259.848 116.385,259.498 116.061,259.498 115.733,259.498    115.406,259.498 115.081,259.147 114.754,259.498 114.431,260.197 114.103,260.901 114.103,261.252 114.103,261.606    114.431,261.956 114.754,262.311 114.431,262.311 114.431,262.661 114.431,263.012 114.431,263.36 114.431,263.71 114.103,263.71    113.452,263.71 113.127,263.71 111.822,264.77 111.822,264.419 111.822,264.067 111.498,263.36 110.845,262.661 109.866,262.311    108.564,261.252 107.584,260.551 106.606,260.197 105.955,259.848 104.977,259.147 104.324,258.79 103.348,258.79    103.021,258.088 102.372,258.088 101.719,257.737 101.067,257.737 100.413,257.737 99.438,258.088 98.458,258.439 97.809,258.79    97.481,259.147 96.829,259.147 96.504,259.147 96.179,259.147 95.851,258.79 96.179,258.088 96.504,257.033 97.156,256.686    97.809,255.98 98.458,255.98 97.809,255.629 99.112,254.925 99.763,254.925 100.413,254.571 101.392,254.571 102.042,254.571    102.372,254.223 102.372,253.869 102.372,253.519 102.042,253.167 101.719,253.167 101.067,253.167 100.413,253.167    99.763,252.817 99.438,252.817 98.784,252.109 98.458,251.758 98.133,251.06 98.133,250.355 98.133,249.65 98.133,248.945    97.809,247.893 98.784,246.487 99.438,246.135 99.763,245.782 100.413,246.135 100.74,246.487 101.067,246.837 101.719,247.542    102.696,247.893 103.021,248.243 103.674,248.595 104.324,248.945 104.653,248.945 104.977,248.595 105.303,248.243    105.303,247.542 105.303,247.188 104.001,246.837 104.001,246.135 104.653,245.782 105.303,245.431 105.955,245.08    106.281,245.08 106.935,244.727 106.606,244.376 106.606,244.024 106.935,243.674 107.584,243.674 108.238,243.674    108.888,244.024 109.216,244.024 109.866,244.376 110.518,244.376 110.845,244.376 110.845,243.674 110.518,243.323    110.518,242.622 110.518,242.267 110.845,242.267 111.498,242.622 111.822,242.969 112.472,243.323 113.127,244.024    113.452,244.727 113.779,245.08 114.103,245.08 115.081,245.08 115.406,245.08 115.733,245.431 116.061,245.431 116.385,245.782    116.385,245.431 116.385,245.08 116.713,244.727 117.036,244.727 117.69,245.08 118.015,244.727 118.342,244.376 118.665,243.674    118.665,243.323 118.993,242.622 119.319,242.622 119.644,242.622 119.969,242.622   " id="upazila_130" area="upazlia" name="madhukhali" bengali="মধুখালী" parent="faridpur"></polygon><polygon points="156.475,252.817 157.128,253.167 157.453,253.167 158.104,252.817 158.757,252.467    159.082,252.111 159.734,251.758 160.386,251.407 160.712,250.703 161.037,250.355 161.69,250.003 162.016,249.653    162.341,249.303 162.666,248.945 163.32,248.595 163.645,248.595 163.97,248.945 164.948,249.653 165.601,250.003    165.929,250.355 166.579,250.003 166.905,250.003 167.231,250.003 167.883,250.355 168.208,250.003 168.862,250.003    169.513,250.003 170.49,250.355 171.469,250.355 172.12,250.355 172.773,250.703 174.076,250.703 174.727,250.703 175.38,250.703    176.031,251.06 176.684,251.06 177.334,250.703 177.66,250.355 177.988,250.003 177.334,249.653 177.009,248.945 177.334,248.945    177.66,248.243 177.988,248.595 178.313,248.243 178.964,247.893 178.964,247.191 178.964,246.837 178.964,246.487    179.289,246.135 180.268,247.191 180.593,247.893 180.918,248.243 180.918,248.945 181.246,249.653 181.897,250.355    182.55,251.06 183.2,252.111 183.528,252.111 184.179,252.111 184.504,251.758 184.831,252.467 185.156,253.167 185.81,253.519    187.114,254.223 188.09,254.925 188.417,254.571 188.742,254.223 189.394,254.223 189.721,254.223 190.699,257.737    190.046,258.793 189.394,258.793 189.069,259.147 188.742,258.793 188.417,259.147 188.09,259.498 188.09,260.197    187.765,260.901 187.765,261.606 187.439,261.956 186.785,262.311 186.46,262.311 186.135,261.956 185.81,261.606    185.156,261.255 184.504,261.956 184.179,262.311 183.528,263.012 182.875,263.36 181.897,263.713 181.572,263.713    180.918,263.713 180.918,264.067 180.593,264.419 180.268,265.12 180.268,265.824 180.268,266.176 180.593,266.877    180.918,267.231 180.593,267.932 180.268,268.287 178.964,269.342 178.313,269.689 178.313,270.042 179.289,270.042    180.268,270.042 180.593,270.396 180.593,270.746 179.943,271.096 179.289,271.801 178.964,272.156 178.964,272.857    178.964,274.614 179.616,274.965 179.616,275.319 179.289,275.673 178.639,276.021 177.334,275.673 176.357,275.319    175.38,275.319 174.402,274.965 173.749,274.965 173.424,274.965 173.098,274.614 173.098,274.264 173.098,273.912    173.424,273.208 173.749,272.857 174.076,272.506 174.076,272.156 174.076,271.801 174.402,271.096 174.076,270.746    173.749,270.396 173.749,270.042 174.076,269.342 174.076,268.638 174.402,267.932 174.402,267.231 174.402,266.877    174.402,266.526 173.749,266.176 173.424,266.176 173.098,266.176 172.446,266.526 172.12,266.526 171.792,266.176    171.792,265.824 172.446,265.824 172.773,265.477 172.446,265.12 172.12,264.419 171.792,264.419 171.141,264.77 171.141,265.12    170.817,265.477 170.817,265.824 170.49,266.526 170.163,266.526 169.837,266.877 169.187,266.877 168.862,266.526    168.533,265.824 167.883,265.477 167.556,265.824 167.231,265.824 166.905,265.477 166.579,265.477 166.252,265.12    165.929,264.77 165.601,264.419 165.274,264.067 164.623,263.713 163.97,263.36 163.645,263.713 162.993,263.713 162.666,264.067    162.016,264.419 161.69,264.419 161.037,264.067 160.712,264.067 160.386,264.77 160.061,265.12 159.407,265.477 159.082,265.477    158.757,265.824 157.779,264.419 157.453,264.067 157.128,264.067 156.801,264.067 156.475,263.36 156.15,263.012 156.15,262.311    155.823,261.606 155.171,260.901 154.846,260.197 154.519,259.498 154.846,259.147 154.846,258.793 155.497,258.088    155.497,257.387 155.497,256.686 155.823,256.332 155.497,255.98 155.497,255.275 155.497,254.925 155.497,254.223    155.823,253.519   " id="upazila_132" area="upazlia" name="sadarpur" bengali="সদরপুর" parent="faridpur"></polygon><polygon points="158.757,265.824 159.082,265.477 159.408,265.477 160.061,265.12 160.386,264.77 160.712,264.067    161.037,264.067 161.69,264.419 162.016,264.419 162.666,264.067 162.994,263.713 163.645,263.713 163.97,263.36 164.623,263.713    165.274,264.067 165.601,264.419 165.929,264.77 166.252,265.12 166.579,265.477 166.905,265.477 167.231,265.824    167.556,265.824 167.884,265.477 168.533,265.824 168.862,266.526 169.187,266.877 169.837,266.877 170.165,266.526    170.49,266.526 170.817,265.824 170.817,265.477 171.141,265.12 171.141,264.77 171.792,264.419 172.12,264.419 172.446,265.12    172.773,265.477 172.446,265.824 171.792,265.824 171.792,266.176 172.12,266.526 172.446,266.526 173.098,266.176    173.424,266.176 173.751,266.176 174.402,266.526 174.402,266.877 174.402,267.231 174.402,267.932 174.076,268.638    174.076,269.342 173.751,270.042 173.751,270.396 174.076,270.746 174.402,271.096 174.076,271.801 174.076,272.156    174.076,272.506 173.751,272.857 173.424,273.208 173.098,273.912 173.098,274.264 173.098,274.614 173.424,274.965    173.751,274.965 174.402,274.965 175.38,275.319 176.357,275.319 177.335,275.673 178.639,276.021 177.988,277.079    177.988,277.777 177.988,278.482 177.988,278.836 177.66,279.534 177.335,279.534 177.335,280.243 177.66,280.59 177.988,280.243    178.313,280.59 178.639,280.944 178.639,281.295 178.964,281.295 179.289,281.295 179.289,281.645 179.289,281.999    179.289,282.347 179.616,282.698 179.289,283.052 178.964,283.052 178.964,283.403 178.639,283.403 178.313,283.756    178.313,284.458 178.313,285.167 178.313,285.514 177.988,286.216 177.66,286.566 177.335,286.92 176.357,286.92 176.357,286.566    176.031,286.566 175.705,286.92 175.055,286.92 174.727,286.566 174.402,286.216 174.076,285.514 173.751,284.812    173.098,284.108 172.446,283.403 172.446,283.052 172.12,282.698 171.469,282.347 171.141,281.999 170.817,281.645    170.49,281.645 170.165,281.645 169.837,281.999 170.165,282.698 170.49,283.403 170.49,284.458 170.49,284.812 170.165,285.514    169.837,286.216 169.513,286.566 169.187,286.92 169.187,287.625 168.862,288.327 168.862,289.028 168.862,289.378    168.862,289.732 168.533,289.732 168.208,289.378 168.208,289.028 167.884,288.681 167.884,288.327 167.231,287.977    166.579,287.625 166.579,286.92 166.905,286.92 167.231,286.566 167.556,286.216 167.884,285.864 168.533,285.167    168.862,284.458 168.862,283.756 168.208,283.756 167.884,283.756 167.884,284.458 167.231,284.812 166.579,284.812    165.929,284.458 165.274,284.108 164.297,283.756 163.97,283.052 162.994,283.052 162.994,282.698 162.994,282.347    162.994,281.999 162.994,281.645 162.666,280.944 162.341,280.59 162.016,280.243 161.365,280.243 160.386,279.886    160.061,279.534 159.734,279.184 159.408,279.184 159.082,279.184 158.757,279.886 158.432,279.534 158.104,279.184    157.779,279.184 157.779,278.836 157.779,278.132 157.779,277.777 157.128,277.777 157.128,278.132 156.801,278.482    156.475,279.184 156.15,279.886 155.824,280.243 155.824,279.886 155.497,279.534 155.497,279.184 155.497,278.482    155.171,278.482 154.846,278.132 154.846,277.777 154.519,277.427 154.519,276.722 154.193,276.021 154.193,275.319    154.519,274.965 154.846,274.965 155.171,274.965 155.497,275.319 155.824,275.319 156.15,275.319 156.801,275.319    157.128,274.965 157.128,274.614 157.128,274.264 156.801,273.912 156.475,273.912 155.824,273.558 155.171,273.208    154.846,272.857 154.846,272.156 155.171,271.801 155.171,271.45 155.497,271.45 156.15,271.45 156.475,271.45 156.475,271.096    156.475,270.746 156.15,270.042 156.15,269.689 156.475,268.992 157.128,268.287 157.779,267.932 158.104,267.932    158.757,268.287 159.082,268.287 159.408,268.287 160.061,267.932 160.061,267.582 159.734,266.877 159.408,266.526   " id="upazila_126" area="upazlia" name="bhanga" bengali="ভাঙ্গা" parent="faridpur"></polygon><polygon points="132.031,232.774 132.355,232.774 133.008,232.774 133.659,232.422 134.313,232.422    134.638,232.422 135.29,232.422 135.942,232.422 136.594,232.422 136.919,232.069 137.245,231.716 137.245,231.368    137.573,231.368 137.898,231.368 137.573,230.664 137.573,230.312 137.573,229.257 137.573,228.554 137.573,228.2    137.898,227.852 138.549,227.149 138.876,226.795 139.201,226.795 139.853,226.444 140.18,226.094 140.505,226.444    141.156,226.795 141.156,227.149 141.482,227.5 142.134,227.5 142.785,227.852 143.113,227.852 143.439,228.2 143.764,228.2    144.089,228.2 144.742,228.554 144.742,228.907 144.742,228.2 144.742,227.852 144.742,227.5 145.393,227.149 146.045,227.149    146.697,227.149 147.349,226.444 148,227.149 148.328,228.2 148.653,228.2 148.653,228.554 149.304,228.907 149.632,229.61    149.956,229.958 150.282,230.312 150.608,231.016 151.261,232.069 152.24,233.125 152.889,233.831 154.521,235.587    154.846,235.936 154.846,236.291 155.499,236.64 155.824,236.994 155.499,237.698 155.171,238.045 154.194,238.753    153.217,239.454 151.913,240.859 151.586,241.211 151.586,242.622 151.586,243.32 151.913,243.32 152.24,243.674 152.24,244.028    152.565,244.727 152.889,245.431 153.217,246.135 153.868,246.841 154.194,247.191 154.194,247.542 154.521,249.65    153.217,250.003 152.565,250.003 151.913,250.706 151.586,251.057 151.261,251.407 150.608,252.111 149.956,252.813    149.632,253.167 148.979,253.519 148,254.223 147.675,254.571 147.675,254.925 147.675,255.275 148,255.98 148,256.332    147.675,256.332 147.349,256.332 146.697,256.686 146.371,257.033 145.718,257.033 145.393,256.686 145.068,257.387    144.414,257.734 144.089,258.091 143.439,257.734 142.785,257.033 142.134,257.033 141.482,257.387 140.83,257.734    140.18,257.387 139.527,257.387 139.201,257.734 138.549,257.387 138.223,257.387 137.898,257.033 137.245,257.033    136.919,257.033 136.594,257.734 135.942,258.443 135.942,258.793 135.942,259.498 135.29,259.848 134.963,259.848    134.638,259.144 134.313,259.144 133.659,258.793 132.684,258.443 132.031,257.734 132.031,257.033 132.031,256.686    132.031,256.332 132.031,255.98 131.704,255.629 131.379,255.275 131.379,254.925 131.379,254.223 131.379,253.869    131.052,253.519 130.401,253.519 129.748,253.167 129.098,252.813 128.77,252.813 128.119,253.167 127.793,253.519    127.466,253.167 127.141,252.813 126.816,252.111 126.49,251.761 126.162,251.407 125.512,251.761 124.859,251.761    123.882,251.407 123.557,251.407 123.557,251.057 123.557,250.706 123.882,250.355 124.208,249.65 124.533,249.303    124.533,248.949 124.859,248.595 125.512,247.893 125.837,247.542 125.837,247.191 125.186,246.135 125.512,245.782    126.162,245.782 126.49,245.08 126.49,244.727 126.816,244.727 127.141,244.727 127.466,245.431 127.466,245.782 127.466,246.135    127.793,246.487 128.447,246.841 129.098,246.841 129.748,246.841 130.073,246.841 130.401,246.487 130.401,246.135    130.401,245.782 130.727,245.782 131.052,245.431 131.704,245.08 132.031,244.727 132.031,244.028 132.031,243.674    131.052,243.32 130.401,242.622 130.073,242.267 129.748,241.917 129.098,241.563 128.77,241.563 128.77,240.859 128.77,240.512    128.447,239.805 128.447,239.454 128.77,239.103 129.098,238.4 129.098,237.698 129.098,236.994 128.77,235.235 128.77,234.882    128.447,234.534 128.119,233.831 127.793,233.477 128.119,233.477 128.447,233.125 128.77,232.774 129.422,232.774    129.748,233.125 129.748,233.477 129.748,233.831 130.073,234.534 130.727,234.534 131.052,234.179 131.704,234.534    132.031,234.534 132.355,234.534 132.684,233.831 132.684,233.477 132.684,233.125   " id="upazila_129" area="upazlia" name="faridpur" bengali="ফরিদপুর সদর" parent="faridpur"></polygon><polygon points="149.304,283.052 148.979,281.649 148.653,280.59 147.022,279.888 146.043,279.184    144.414,279.184 143.439,279.534 143.763,278.836 144.091,277.777 144.741,277.427 145.067,276.021 145.393,275.669    145.393,274.614 145.393,273.558 144.741,272.854 145.067,272.854 146.373,273.558 146.697,273.208 146.697,272.506    146.697,271.801 146.697,271.096 145.393,270.746 145.067,270.396 144.414,269.689 144.414,267.932 144.414,267.231    145.067,266.523 144.741,265.824 144.741,265.12 145.067,263.713 144.414,264.067 143.439,263.713 142.459,263.713    142.134,263.012 142.785,262.311 143.439,261.603 144.091,260.901 144.741,260.197 144.414,259.144 143.439,258.443    144.414,258.088 144.091,257.734 144.414,257.734 145.067,257.387 145.393,256.682 145.718,257.033 146.373,257.033    146.697,256.682 147.347,256.332 147.675,256.332 148,256.332 148,255.98 147.675,255.275 147.675,254.922 147.675,254.571    148,254.223 148.979,253.519 149.631,253.167 149.956,252.817 150.607,252.111 151.261,251.407 151.588,251.057 151.911,250.706    152.565,250 153.217,250 154.519,249.65 154.519,250 155.499,250.355 155.823,250.706 156.151,251.407 156.151,251.758    156.151,252.111 156.151,252.467 156.475,252.817 155.823,253.519 155.499,254.223 155.499,254.922 155.499,255.275    155.499,255.98 155.823,256.332 155.499,256.682 155.499,257.387 155.499,258.088 154.846,258.793 154.846,259.144    154.519,259.498 154.846,260.197 155.171,260.901 155.823,261.603 156.151,262.311 156.151,263.012 156.475,263.363    156.801,264.067 157.126,264.067 157.453,264.067 157.78,264.419 158.757,265.824 159.407,266.523 159.734,266.877    160.062,267.582 160.062,267.932 159.407,268.287 159.082,268.287 158.757,268.287 158.104,267.932 157.78,267.932    157.126,268.287 156.475,268.992 156.151,269.689 156.151,270.043 156.475,270.746 156.475,271.096 156.475,271.45    156.151,271.45 155.499,271.45 155.171,271.45 155.171,271.801 154.846,272.156 154.846,272.854 155.171,273.208 155.823,273.558    156.475,273.912 156.801,273.912 157.126,274.264 157.126,274.614 157.126,274.968 156.801,275.319 156.151,275.319    155.823,275.319 155.499,275.319 155.171,274.968 154.846,274.968 154.519,274.968 154.193,275.319 154.193,276.021    154.519,276.722 154.519,277.427 154.846,277.777 154.846,278.132 155.171,278.482 155.499,278.482 155.499,279.184    155.499,279.534 155.823,279.888 155.823,280.243 156.151,279.888 156.475,279.184 156.801,278.482 157.126,278.132    157.126,277.777 157.78,277.777 157.78,278.132 157.78,278.836 157.78,279.184 158.104,279.184 158.433,279.534 158.757,279.888    158.757,280.59 158.757,280.941 158.757,281.295 158.757,281.649 159.082,282.347 159.082,281.999 159.407,281.649    159.407,281.295 159.734,281.295 160.386,281.999 160.712,282.347 160.712,282.698 160.712,283.403 160.386,283.756    160.062,284.108 159.407,284.108 159.407,284.458 159.082,285.167 158.433,284.812 158.104,284.812 157.453,284.812    156.475,284.812 156.151,284.812 155.823,285.167 155.823,285.514 155.823,286.569 155.499,286.569 155.171,286.569    154.519,286.92 154.193,286.569 153.54,286.569 152.889,286.216 152.565,285.864 152.889,285.514 153.217,284.812    153.217,284.458 153.54,284.108 153.54,283.756 153.87,283.403 154.193,283.403 154.193,283.052 153.87,282.698 153.54,282.698    153.217,282.698 153.217,282.347 152.565,281.999 152.565,281.649 151.911,281.649 151.261,281.999   " id="upazila_131" area="upazlia" name="nagarkanda" bengali="নগরকান্দা" parent="faridpur"></polygon></svg>