<svg enable-background="new -106.403 -201.859 629.266 880.536" height="880.536px" id="district_41" viewBox="-106.403 -201.859 629.266 880.536" width="629.266px" x="0px" xml:space="preserve" xmlns="http://www.w3.org/2000/svg" y="0px"><polygon points="31.317,32.008 31.642,31.658 32.294,31.658 32.622,32.008 32.946,32.361 33.274,33.063    33.598,33.766 33.926,34.118 34.249,34.47 34.902,35.525 35.555,35.879 35.555,36.581 35.555,37.635 35.555,38.339 35.555,38.69    35.88,38.69 36.206,38.69 36.206,39.042 35.88,39.042 35.88,39.393 36.206,39.393 36.531,39.393 36.859,39.393 36.859,39.042    37.184,38.69 37.51,39.393 37.51,40.095 37.51,40.447 37.834,40.802 38.489,41.15 39.139,40.802 39.466,41.15 40.117,41.15    40.445,41.502 41.095,41.502 41.748,41.502 42.399,41.502 43.052,41.502 43.377,41.502 43.377,42.206 43.052,43.263    43.052,43.611 42.399,43.611 41.748,43.611 41.42,43.962 41.748,44.314 42.073,45.019 41.748,45.369 42.073,45.724 42.399,46.073    42.399,46.424 41.748,46.776 41.42,47.129 41.42,47.479 41.095,47.83 41.095,48.183 41.095,48.535 41.095,49.237 41.42,49.237    41.42,49.94 41.42,50.644 41.748,50.644 42.073,50.644 42.399,51.347 42.399,51.697 42.399,52.049 42.724,52.049 43.052,52.402    43.052,52.752 42.724,53.457 42.399,54.161 42.073,54.509 41.748,54.509 41.42,54.509 41.095,54.161 40.77,53.807 40.117,54.161    39.791,54.864 40.445,55.214 40.445,55.568 40.77,55.917 41.095,56.272 41.42,55.917 41.748,55.917 41.748,56.272 41.095,56.622    39.791,56.973 39.139,56.973 38.814,56.622 38.489,56.973 38.489,57.325 38.162,57.325 37.51,57.325 37.51,57.675 37.184,58.028    36.859,58.379 36.531,57.675 36.206,57.675 35.88,57.675 35.228,58.028 34.902,58.028 34.902,58.379 34.577,58.731 34.249,58.731    33.598,58.731 32.946,58.731 32.622,58.731 32.294,59.081 31.969,59.434 31.969,59.784 31.642,59.784 31.317,59.784    30.991,59.434 30.991,59.081 31.317,58.731 30.663,58.731 30.338,58.731 29.363,58.731 29.034,58.731 28.384,58.379    28.384,58.028 28.058,57.325 28.058,56.973 28.058,56.622 28.384,56.622 28.709,56.272 29.034,55.917 29.363,55.917    29.363,55.568 29.688,55.214 30.013,54.509 30.338,54.161 30.338,53.807 30.338,53.457 30.013,53.105 29.688,52.402    29.688,52.049 29.363,51.697 29.363,50.644 29.688,49.94 29.688,48.886 29.688,47.83 29.688,47.129 29.363,46.424 29.363,46.073    29.363,45.724 29.688,45.019 30.013,44.667 29.688,43.962 29.688,43.611 29.688,42.908 29.363,42.206 29.688,41.854    30.338,41.854 30.663,41.854 30.991,41.15 30.991,40.095 30.663,39.744 30.338,39.042 30.338,38.69 30.663,37.635 30.663,37.284    30.991,36.93 31.317,36.581 31.317,36.226 31.317,35.879 31.642,35.879 31.317,35.525 30.991,35.525 30.663,35.525 30.338,35.525    30.663,35.173 31.317,35.173 31.642,34.82 31.642,34.47 31.317,34.118 30.991,33.766 30.991,33.416 30.991,33.063 30.991,32.715    31.317,32.361   " id="upazila_323" area="upazlia" name="akkelpur" bengali="আক্কেলপুর" parent="joypurhat"></polygon><polygon points="34.249,34.47 34.576,34.118 34.902,34.118 34.576,33.766 34.576,33.415 34.576,33.063    35.228,33.063 35.555,32.715 35.555,32.361 36.206,32.008 36.857,32.008 37.834,32.008 38.488,32.361 38.814,32.361    39.139,32.008 39.464,31.306 39.139,30.954 39.464,30.603 39.791,30.251 40.117,29.898 40.768,29.548 40.768,28.845    40.768,28.493 41.095,27.791 41.746,27.439 42.399,26.735 42.724,26.384 42.399,26.031 42.724,25.679 43.05,26.031 43.377,25.679    43.702,25.679 44.028,25.679 44.353,25.33 45.006,25.33 45.331,24.978 45.331,24.625 45.331,23.922 45.656,23.572 45.983,23.219    45.983,22.518 45.983,21.813 46.31,21.813 46.31,21.461 46.635,21.11 46.961,20.756 47.286,20.756 47.614,20.756 48.265,20.406    48.265,20.053 48.59,19.704 48.915,19.35 49.242,19.704 49.569,20.053 49.894,19.704 50.221,19.35 50.546,19 50.872,19    50.872,20.053 50.872,20.406 50.872,20.756 51.523,21.11 52.176,21.11 52.176,21.461 52.176,21.813 51.85,22.164 52.176,22.868    52.828,23.219 53.479,23.219 53.807,23.572 54.132,23.922 53.479,24.625 53.155,24.978 52.828,25.33 52.176,26.031 51.523,26.384    51.198,26.735 50.872,27.087 50.221,27.791 49.894,28.141 49.242,28.493 48.59,29.197 48.265,29.548 47.939,30.251 47.939,30.603    47.614,30.954 47.286,31.658 47.286,32.008 47.286,32.361 47.939,32.361 48.59,32.361 48.915,32.361 49.242,33.063 49.242,33.415    49.242,34.118 49.569,34.47 50.221,34.82 50.872,34.82 51.523,35.175 51.85,35.878 52.176,36.581 52.501,37.284 52.828,37.986    52.828,38.338 52.828,38.69 52.501,39.042 52.176,39.393 52.501,39.744 53.155,40.449 54.458,40.8 54.132,41.15 54.132,41.502    53.807,41.502 53.807,41.854 53.807,42.557 53.807,42.908 54.132,43.262 54.458,43.611 54.458,43.962 54.458,44.316    54.458,44.667 54.782,45.019 54.782,45.369 55.109,45.722 54.782,46.073 54.782,46.424 54.132,46.424 53.807,46.073    53.479,45.722 53.479,45.369 53.479,45.019 53.155,45.019 52.828,45.019 52.176,45.369 51.85,45.019 51.198,45.019 50.546,45.369    49.569,45.369 48.915,45.369 48.59,45.369 47.614,45.369 47.286,45.369 46.635,45.369 46.31,45.369 45.983,45.369 45.983,45.019    46.31,44.667 46.635,44.316 46.635,43.962 46.635,43.611 45.983,43.262 45.656,43.262 45.331,42.908 45.006,42.908 44.681,42.908    44.353,42.557 44.028,42.206 43.377,42.206 43.377,41.502 43.05,41.502 42.399,41.502 41.746,41.502 41.095,41.502 40.443,41.502    40.117,41.15 39.464,41.15 39.139,40.8 38.488,41.15 37.834,40.8 37.51,40.449 37.51,40.095 37.51,39.393 37.182,38.69    36.857,39.042 36.857,39.393 36.531,39.393 36.206,39.393 35.878,39.393 35.878,39.042 36.206,39.042 36.206,38.69 35.878,38.69    35.555,38.69 35.555,38.338 35.555,37.633 35.555,36.581 35.555,35.878 34.902,35.525   " id="upazila_326" area="upazlia" name="khetlal" bengali="ক্ষেতলাল" parent="joypurhat"></polygon><polygon points="50.546,17.593 50.872,17.593 51.199,17.241 51.199,16.539 50.872,16.186 51.199,15.836    51.525,16.186 51.525,15.836 51.525,15.483 51.85,15.131 51.85,14.781 51.525,14.076 51.85,13.022 52.176,13.022 52.503,13.022    52.828,13.374 53.479,13.726 53.808,13.726 54.132,13.374 54.783,12.672 54.783,12.319 55.112,11.969 56.089,11.616    56.089,11.969 56.089,12.319 56.089,12.672 56.414,13.022 56.74,13.022 57.066,13.374 57.066,13.726 57.393,13.726 57.718,13.374    58.043,13.374 58.043,13.726 58.697,13.726 58.697,14.076 59.022,14.429 59.347,15.131 59.347,15.483 59.347,15.836    59.022,15.836 59.022,16.186 59.022,16.539 59.347,17.241 59.675,17.241 60,17.241 60.651,16.888 60.977,17.241 60.977,17.944    60.977,18.296 61.304,18.649 61.954,19.35 62.281,20.053 62.606,20.756 62.933,21.461 62.933,21.813 63.259,22.518 63.259,23.219    63.584,23.572 63.909,23.922 64.237,23.572 64.563,23.572 64.888,23.922 65.213,23.572 65.538,23.572 65.538,23.922    65.538,24.273 65.866,24.273 66.192,24.273 66.517,24.273 66.844,24.625 67.169,24.625 66.844,25.33 66.517,25.33 66.192,25.679    65.866,26.031 65.538,26.384 64.888,26.735 64.888,27.087 64.237,27.439 64.237,27.791 63.584,27.791 63.259,28.141    63.259,28.493 63.259,28.845 63.584,29.548 63.259,29.898 63.259,30.603 62.933,30.603 62.606,30.954 62.281,32.008    62.281,32.715 62.281,33.063 62.281,33.415 61.954,34.118 61.629,34.47 61.304,34.82 60.977,35.175 60.651,35.175 60.325,35.175    60,34.82 59.675,34.82 59.675,34.47 59.347,34.47 59.022,33.768 58.697,33.768 58.369,33.768 58.369,34.118 58.697,34.47    59.022,34.82 59.022,35.175 58.697,35.525 58.043,35.878 57.718,36.226 57.718,36.581 57.393,36.93 57.066,37.284 56.74,37.635    56.414,37.635 56.089,37.986 56.089,38.338 56.74,38.338 57.066,38.338 57.066,38.69 56.414,38.69 55.762,38.69 55.112,38.69    55.112,39.042 55.112,39.744 55.436,39.744 55.762,40.095 55.762,40.449 55.762,40.8 55.112,40.449 54.783,40.449 54.458,40.449    54.458,40.8 53.155,40.449 52.503,39.744 52.176,39.393 52.503,39.042 52.828,38.69 52.828,38.338 52.828,37.986 52.503,37.284    52.176,36.581 51.85,35.878 51.525,35.175 50.872,34.82 50.222,34.82 49.569,34.47 49.243,34.118 49.243,33.415 49.243,33.063    48.917,32.361 48.59,32.361 47.94,32.361 47.286,32.361 47.286,32.008 47.286,31.658 47.615,30.954 47.94,30.603 47.94,30.253    48.265,29.548 48.59,29.197 49.243,28.493 49.894,28.141 50.222,27.791 50.872,27.087 51.199,26.735 51.525,26.384 52.176,26.031    52.828,25.33 53.155,24.978 53.479,24.625 54.132,23.922 53.808,23.572 53.479,23.219 52.828,23.219 52.176,22.868 51.85,22.164    52.176,21.813 52.176,21.461 52.176,21.11 51.525,21.11 50.872,20.756 50.872,20.406 50.872,20.053 50.872,19 51.199,19    51.525,19 51.85,18.649 52.176,18.296 52.176,17.944 51.85,17.944 51.525,18.296 51.199,18.649 50.872,18.649 50.222,18.649    50.222,18.296 50.222,17.944   " id="upazila_325" area="upazlia" name="kalai" bengali="কালাই" parent="joypurhat"></polygon><polygon points="18.932,14.076 18.932,13.023 19.258,12.672 19.258,12.319 19.583,11.616 20.234,11.266    20.562,11.266 21.212,11.616 21.212,11.967 21.539,11.967 21.865,11.967 22.191,11.616 22.191,11.266 22.191,10.913    21.865,10.913 21.865,10.562 21.865,10.209 22.191,10.209 22.191,9.858 21.865,9.155 21.539,9.155 21.212,9.506 20.887,9.155    20.562,8.806 20.562,8.452 20.562,8.102 20.562,7.398 20.562,7.046 20.562,6.693 20.887,6.693 21.212,6.693 21.539,7.046    21.865,7.046 21.539,7.748 21.212,7.748 21.212,8.102 21.539,8.452 21.865,8.452 22.516,8.452 23.168,8.806 23.822,8.806    23.822,9.155 23.822,9.858 24.147,10.209 24.472,10.562 24.797,10.913 25.125,10.562 25.776,10.209 26.429,9.858 26.429,10.209    26.429,10.913 26.101,11.266 25.776,11.616 25.45,12.319 25.776,12.672 26.101,13.023 26.429,13.023 26.429,12.672 26.754,12.672    26.754,13.023 26.429,13.373 26.429,14.076 26.754,14.076 27.079,14.076 27.079,13.727 27.406,13.373 27.731,13.727    28.058,13.727 28.058,14.076 28.058,14.428 27.731,14.781 27.731,15.484 28.058,16.539 28.058,16.888 27.406,17.241    27.406,17.593 27.731,17.946 28.058,18.296 28.058,17.946 28.383,17.946 28.709,17.946 29.362,18.296 29.688,18.296    30.013,17.946 30.338,17.946 30.663,18.296 30.991,18.296 31.317,18.296 31.642,17.946 31.642,17.593 31.642,17.241    31.317,16.539 31.317,16.188 31.317,15.834 31.967,15.484 31.967,15.131 32.294,14.781 32.622,14.428 32.946,14.076    33.273,14.076 33.598,14.428 33.926,14.781 34.249,14.781 34.577,15.131 34.902,15.131 35.555,15.131 35.88,15.131 36.206,15.131    36.531,15.131 36.857,15.484 37.184,15.484 37.51,15.484 38.162,15.484 38.489,15.131 38.814,14.781 39.466,14.781 39.791,14.781    40.117,15.484 40.443,15.131 40.77,14.781 40.77,15.131 40.77,15.484 41.095,15.834 41.42,15.834 41.748,15.834 42.073,15.834    42.073,16.539 41.748,16.888 41.748,17.241 41.748,17.593 42.073,17.946 42.399,17.946 42.724,17.946 42.724,18.296    43.052,18.296 43.052,17.946 43.052,17.593 43.702,17.241 44.354,17.241 44.681,16.888 44.681,16.539 45.657,16.888    45.983,16.888 46.31,16.888 46.31,16.539 46.636,15.834 47.286,15.834 47.286,16.188 47.286,16.539 47.614,16.539 47.94,16.888    48.59,17.241 48.917,17.241 48.917,16.888 49.569,16.888 50.222,16.888 50.546,17.241 50.546,17.593 50.222,17.946 50.222,18.296    50.222,18.65 50.872,18.65 51.198,18.65 51.525,18.296 51.85,17.946 52.176,17.946 52.176,18.296 51.85,18.65 51.525,19    51.198,19 50.872,19 50.546,19 50.222,19.35 49.894,19.703 49.569,20.053 49.243,19.703 48.917,19.35 48.59,19.703 48.265,20.053    48.265,20.407 47.614,20.756 47.286,20.756 46.961,20.756 46.636,21.11 46.31,21.461 46.31,21.815 45.983,21.815 45.983,22.517    45.983,23.219 45.657,23.572 45.332,23.922 45.332,24.625 45.332,24.976 45.006,25.331 44.354,25.331 44.028,25.679    43.702,25.679 43.377,25.679 43.052,26.033 42.724,25.679 42.399,26.033 42.724,26.382 42.399,26.738 41.748,27.438    41.095,27.792 40.77,28.495 40.77,28.844 40.77,29.548 40.117,29.898 39.791,30.251 39.466,30.603 39.139,30.955 39.466,31.305    39.139,32.008 38.814,32.361 38.489,32.361 37.834,32.008 36.857,32.008 36.206,32.008 35.555,32.361 35.555,32.715    35.228,33.063 34.577,33.063 34.577,33.416 34.577,33.766 34.902,34.12 34.577,34.12 34.249,34.47 33.926,34.12 33.598,33.766    33.273,33.063 32.946,32.361 32.622,32.008 32.294,31.659 31.642,31.659 31.317,32.008 30.991,31.659 30.338,31.659    30.013,31.659 29.688,31.659 29.034,32.008 29.034,32.361 28.709,32.008 28.383,31.659 27.731,31.659 27.079,31.305    26.754,30.955 26.101,30.955 25.776,30.603 25.125,30.603 24.472,30.603 24.147,30.603 23.822,30.603 23.494,30.603    23.168,30.955 22.843,31.305 23.168,31.305 23.494,32.008 23.494,32.361 23.494,32.715 23.168,32.715 22.843,33.063    23.168,33.416 23.494,34.12 23.494,34.47 23.168,34.47 22.843,34.47 22.516,33.766 22.191,33.416 22.191,33.063 21.539,32.715    21.539,32.361 21.539,32.008 21.539,31.659 21.865,31.305 21.539,30.955 21.539,30.603 21.212,30.251 20.887,30.251    20.562,29.548 20.562,29.198 20.234,28.495 19.908,28.141 20.234,27.438 20.234,26.738 20.887,25.679 21.212,24.273    21.212,23.219 21.212,22.517 20.887,21.815 20.887,21.11 20.562,20.756 19.908,20.053 19.583,19.703 19.258,19.703 19.258,19.35    18.932,19 19.258,18.65 19.583,17.946 19.583,17.593 19.258,17.241 18.932,17.241 18.932,16.888 18.605,16.888 18.932,16.188    18.932,15.484 18.932,14.781   " id="upazila_324" area="upazlia" name="joypurhatsadar" bengali="জয়পুরহাট-সদর" parent="joypurhat"></polygon><polygon points="30.338,-1.746 30.338,-1.04 30.663,-0.691 31.642,-0.337 31.967,0.012 32.294,-0.337    32.622,-0.691 32.622,-1.04 32.946,-0.691 33.598,-1.04 33.598,-1.394 33.598,-1.746 33.926,-1.746 34.249,-1.746 34.576,-1.394    34.576,-1.04 34.902,-1.04 35.555,-0.691 35.88,-0.691 36.206,-0.337 36.857,-0.337 37.51,-0.337 37.51,0.012 37.834,0.012    37.834,0.364 38.16,0.718 38.814,0.364 38.814,0.012 38.814,-0.337 38.814,-0.691 39.139,-0.691 39.466,-0.691 39.791,-0.691    40.117,-0.691 40.443,0.012 40.77,0.364 41.095,1.066 41.42,1.066 41.746,1.42 42.073,1.771 42.399,1.771 42.724,2.123    42.724,2.475 42.724,2.828 43.052,3.178 43.377,3.178 43.702,3.178 44.028,3.178 44.354,3.178 44.681,2.828 45.006,2.828    45.331,2.828 45.657,2.828 45.983,3.178 46.31,3.178 46.636,2.828 46.31,2.123 46.31,1.771 46.636,1.42 46.636,1.066 46.961,1.42    47.286,1.771 47.286,2.123 47.614,2.123 47.614,2.475 48.265,2.123 48.59,2.123 48.917,1.771 49.243,1.771 48.917,1.42    48.917,1.066 49.243,0.718 49.569,0.364 49.894,0.364 50.222,0.364 50.546,0.718 50.872,0.718 51.525,1.066 50.872,1.42    51.198,1.42 51.525,1.42 51.85,1.771 52.176,2.123 52.176,2.475 52.503,2.475 52.828,2.475 53.155,2.475 53.155,2.828    53.808,3.178 54.132,3.178 54.458,2.828 54.782,2.828 55.112,2.475 55.112,1.771 55.436,1.771 55.762,1.771 56.087,2.123    56.087,3.178 56.087,3.529 56.74,3.529 57.066,3.529 57.393,3.529 57.393,3.881 57.066,4.232 57.393,4.584 55.762,5.99    55.762,6.696 55.762,7.046 55.762,7.398 55.436,7.748 55.436,8.804 55.436,9.155 55.436,9.508 54.782,10.209 54.458,10.561    54.782,10.914 56.087,10.914 56.087,11.265 56.087,11.616 55.112,11.969 54.782,12.319 54.782,12.672 54.132,13.374    53.808,13.726 53.479,13.726 52.828,13.374 52.503,13.022 52.176,13.022 51.85,13.022 51.525,14.076 51.85,14.781 51.85,15.131    51.525,15.483 51.525,15.836 51.525,16.186 51.198,15.836 50.872,16.186 51.198,16.539 51.198,17.241 50.872,17.593    50.546,17.593 50.546,17.241 50.222,16.888 49.569,16.888 48.917,16.888 48.917,17.241 48.59,17.241 47.94,16.888 47.614,16.539    47.286,16.539 47.286,16.186 47.286,15.836 46.636,15.836 46.31,16.539 46.31,16.888 45.983,16.888 45.657,16.888 44.681,16.539    44.681,16.888 44.354,17.241 43.702,17.241 43.052,17.593 43.052,17.944 43.052,18.296 42.724,18.296 42.724,17.944    42.399,17.944 42.073,17.944 41.746,17.593 41.746,17.241 41.746,16.888 42.073,16.539 42.073,15.836 41.746,15.836 41.42,15.836    41.095,15.836 40.77,15.483 40.77,15.131 40.77,14.781 40.443,15.131 40.117,15.483 39.791,14.781 39.466,14.781 38.814,14.781    38.489,15.131 38.16,15.483 37.51,15.483 37.184,15.483 36.857,15.483 36.531,15.131 36.206,15.131 35.88,15.131 35.555,15.131    34.902,15.131 34.576,15.131 34.249,14.781 33.926,14.781 33.598,14.429 33.273,14.076 32.946,14.076 32.622,14.429    32.294,14.781 31.967,15.131 31.967,15.483 31.317,15.836 31.317,16.186 31.317,16.539 31.642,17.241 31.642,17.593    31.642,17.944 31.317,18.296 30.991,18.296 30.663,18.296 30.338,17.944 30.013,17.944 29.688,18.296 29.362,18.296    28.709,17.944 28.383,17.944 28.058,17.944 28.058,18.296 27.731,17.944 27.406,17.593 27.406,17.241 28.058,16.888    28.058,16.539 27.731,15.483 27.731,14.781 28.058,14.429 28.058,14.076 28.058,13.726 27.731,13.726 27.406,13.374    27.079,13.726 27.079,14.076 26.754,14.076 26.429,14.076 26.429,13.374 26.754,13.022 26.754,12.672 26.429,12.672    26.429,13.022 26.101,13.022 25.776,12.672 25.45,12.319 25.776,11.616 26.101,11.265 26.429,10.914 26.429,10.209 26.429,9.858    25.776,10.209 25.125,10.561 24.797,10.914 24.472,10.561 24.147,10.209 23.822,9.858 23.822,9.155 23.822,8.804 23.168,8.804    22.516,8.452 21.865,8.452 21.539,8.452 21.212,8.102 21.212,7.748 21.539,7.748 21.865,7.046 22.191,7.398 22.516,7.398    23.168,7.046 23.822,6.342 23.494,6.342 23.494,5.99 23.494,5.287 23.494,4.937 22.843,4.232 22.843,3.881 22.843,3.529    22.516,3.178 22.843,2.828 22.843,2.475 22.843,2.123 22.843,1.771 23.168,1.066 23.494,0.718 23.494,0.364 23.822,0.012    24.472,0.012 24.797,-0.337 25.45,-0.337 25.776,-0.337 26.101,-0.691 26.101,-1.04 26.754,-1.394 26.754,-1.746 27.079,-2.096    27.406,-2.446 27.731,-2.446 27.731,-2.096 28.058,-2.096 28.383,-2.096 28.383,-1.746 28.709,-1.746 29.034,-1.746    29.034,-2.096 29.362,-2.096 29.688,-2.096   " id="upazila_327" area="upazlia" name="panchbibi" bengali="পাঁচবিবি" parent="joypurhat"></polygon></svg>