<svg enable-background="new -106.403 -201.859 629.266 880.536" height="880.536px" id="district_41" viewBox="-106.403 -201.859 629.266 880.536" width="629.266px" x="0px" xml:space="preserve" xmlns="http://www.w3.org/2000/svg" y="0px"><polygon points="94.875,-107.576 95.2,-107.927 95.527,-107.927 95.852,-107.927 95.852,-108.278 96.179,-108.631    96.504,-108.981 96.83,-108.981 97.156,-108.631 97.481,-108.278 97.808,-108.278 98.459,-107.927 98.784,-108.278    99.113,-108.631 99.438,-108.981 100.088,-109.333 100.415,-109.333 100.415,-108.981 100.741,-108.981 101.067,-108.981    101.392,-108.631 101.719,-108.631 102.044,-108.278 102.698,-108.631 103.023,-108.981 103.348,-108.631 104.001,-108.278    104.326,-108.278 104.652,-107.927 104.326,-107.576 103.674,-107.576 103.348,-107.225 103.023,-106.873 103.023,-106.521    102.698,-106.521 102.698,-105.816 103.023,-105.465 103.348,-105.115 103.023,-104.411 103.023,-104.06 103.348,-103.708    104.001,-103.004 104.652,-103.004 104.977,-103.004 105.63,-103.004 105.63,-103.355 106.281,-103.708 106.607,-104.06    106.607,-104.764 107.259,-104.764 107.259,-104.411 107.259,-104.06 107.259,-103.355 107.585,-103.355 108.238,-103.355    108.238,-103.708 108.238,-104.06 107.91,-104.411 107.91,-105.115 108.238,-105.115 108.564,-104.764 108.889,-104.764    109.214,-104.764 109.214,-104.411 109.539,-104.411 109.539,-104.764 109.539,-105.115 109.539,-105.465 109.539,-105.816    109.214,-106.521 109.539,-106.873 109.867,-107.225 109.214,-107.927 108.889,-108.278 108.564,-108.631 108.564,-109.333    108.564,-109.686 108.564,-110.741 108.238,-111.442 108.564,-111.796 108.889,-111.442 109.214,-111.442 109.214,-111.796    109.214,-112.146 108.889,-112.499 108.889,-112.849 109.214,-112.849 109.539,-113.554 109.867,-113.554 109.867,-113.202    110.195,-113.202 110.845,-113.554 111.17,-113.554 111.498,-113.202 112.149,-112.499 112.802,-112.146 113.127,-112.146    113.453,-111.796 113.453,-111.442 113.453,-111.092 113.453,-110.741 113.453,-110.39 113.453,-109.686 113.453,-109.333    113.453,-108.981 113.779,-108.631 113.779,-108.278 114.103,-107.576 114.103,-106.873 113.779,-106.521 113.453,-106.521    113.453,-106.169 113.127,-106.169 113.453,-105.816 113.779,-105.816 113.779,-105.465 113.779,-105.115 113.779,-104.764    113.779,-104.411 114.103,-104.06 114.431,-104.06 114.756,-104.06 114.756,-103.708 115.082,-103.708 115.082,-103.355    115.082,-103.004 114.756,-102.654 115.082,-101.598 114.756,-101.247 115.406,-100.192 115.406,-99.841 115.733,-99.489    116.061,-99.137 116.386,-98.787 116.711,-98.787 116.711,-99.137 117.038,-99.137 117.365,-99.137 117.365,-98.787    117.365,-98.434 117.038,-98.082 117.365,-97.732 117.365,-98.082 117.69,-98.082 118.015,-98.082 118.342,-97.732    118.667,-97.027 118.667,-96.677 118.342,-96.677 118.015,-96.325 118.342,-96.325 118.342,-95.975 118.342,-95.622    118.015,-95.622 117.69,-95.27 117.365,-95.27 117.038,-95.27 116.711,-95.27 116.386,-94.919 116.711,-94.567 117.038,-94.567    117.365,-94.567 117.365,-94.214 117.69,-94.214 117.69,-93.16 117.365,-92.81 117.038,-92.81 117.038,-92.457 116.711,-92.457    116.386,-92.105 116.386,-91.753 116.711,-91.401 117.038,-91.753 117.365,-91.753 117.69,-91.401 117.69,-91.05 117.038,-90.699    116.711,-90.699 116.386,-90.699 115.733,-90.347 115.406,-89.995 115.082,-89.995 114.756,-89.995 114.431,-89.995    114.103,-89.995 113.779,-89.645 113.453,-89.645 113.127,-90.347 113.127,-90.699 113.127,-91.05 113.127,-91.401    112.802,-91.753 113.127,-92.105 113.453,-92.457 113.779,-93.16 113.779,-93.511 114.103,-93.865 113.779,-94.214    113.453,-94.214 113.127,-94.567 112.474,-94.214 112.149,-93.511 112.149,-93.16 111.822,-92.81 112.149,-92.81 112.149,-92.457    111.822,-92.105 111.822,-91.753 111.498,-91.401 111.17,-91.05 110.845,-90.699 110.518,-90.347 109.867,-89.995    109.539,-90.347 109.214,-90.347 108.889,-90.699 108.564,-91.05 108.238,-91.401 108.564,-91.753 108.238,-91.753    107.91,-91.753 107.585,-91.401 106.934,-91.401 106.607,-91.401 106.281,-91.401 105.955,-91.401 105.305,-91.753    104.652,-91.753 104.001,-91.753 103.674,-91.753 103.674,-92.457 103.674,-92.81 103.023,-93.16 102.698,-93.16 102.37,-93.511    102.044,-93.865 102.044,-94.567 102.044,-94.919 102.044,-95.27 101.719,-95.622 101.392,-95.622 101.067,-95.622    100.415,-95.622 100.088,-95.975 100.088,-96.325 100.088,-96.677 100.088,-97.38 100.088,-97.732 99.763,-98.082 99.438,-98.434    99.438,-99.137 99.438,-99.489 99.438,-99.841 98.784,-100.192 98.459,-100.544 97.808,-100.894 97.481,-100.894 97.156,-101.247    96.83,-101.247 97.156,-101.598 97.808,-101.598 97.808,-101.949 98.134,-102.302 98.459,-102.302 98.134,-102.654    97.808,-102.654 97.808,-103.004 98.134,-103.355 98.459,-103.355 98.459,-103.708 98.134,-103.708 97.808,-103.708    97.481,-103.708 97.156,-103.004 96.83,-102.654 96.504,-102.654 96.179,-102.654 95.852,-102.654 95.527,-102.654 95.2,-103.004    95.2,-103.355 95.2,-103.708 94.875,-104.06 94.875,-104.411 94.55,-105.115 94.875,-105.115 94.875,-105.465 94.875,-105.816    94.55,-106.169 95.2,-106.521 95.527,-106.873 95.852,-107.225 95.527,-107.225   " id="upazila_331" area="upazlia" name="phulbari" bengali="ফুলবাড়ী" parent="kurigram"></polygon><polygon points="109.867,-89.996 110.52,-90.347 110.845,-90.701 111.168,-91.052 111.498,-91.403    111.822,-91.755 111.822,-92.107 112.15,-92.457 112.15,-92.812 111.822,-92.812 112.15,-93.162 112.15,-93.513 112.472,-94.216    113.127,-94.569 113.452,-94.216 113.779,-94.216 114.103,-93.865 113.779,-93.513 113.779,-93.162 113.452,-92.457    113.127,-92.107 112.802,-91.755 113.127,-91.403 113.127,-91.052 113.127,-90.701 113.127,-90.347 113.452,-89.645    113.779,-89.645 114.103,-89.996 114.432,-89.996 114.754,-89.996 115.082,-89.996 115.406,-89.996 115.733,-90.347    116.385,-90.701 116.713,-90.701 117.036,-90.701 117.689,-91.052 117.689,-91.403 117.365,-91.755 117.036,-91.755    116.713,-91.403 116.385,-91.755 116.385,-92.107 116.713,-92.457 117.036,-92.457 117.036,-92.812 117.365,-92.812    117.689,-93.162 118.342,-93.162 118.995,-93.162 119.319,-93.513 119.319,-93.865 119.319,-94.216 119.646,-94.569    120.296,-94.569 120.296,-94.919 120.296,-95.27 120.624,-95.27 120.948,-95.27 120.948,-94.919 120.948,-94.569 120.948,-93.865    121.275,-93.865 121.275,-94.216 121.6,-94.919 121.928,-94.569 121.928,-94.216 122.578,-94.216 122.578,-93.865    122.578,-93.513 122.251,-93.162 122.251,-92.812 122.578,-92.812 123.229,-92.812 123.229,-92.457 123.229,-92.107    122.905,-91.755 122.578,-91.755 122.251,-91.755 121.928,-91.403 121.6,-91.052 121.6,-90.701 121.928,-90.347 122.251,-89.996    122.578,-89.996 123.229,-89.996 123.557,-90.347 123.557,-90.701 123.882,-90.701 124.532,-90.701 125.187,-90.701    125.511,-90.701 126.162,-90.701 126.49,-90.701 127.793,-90.347 128.119,-90.347 128.445,-89.996 128.772,-89.645    129.097,-89.291 129.42,-89.291 129.75,-88.942 129.75,-88.59 130.073,-88.237 130.073,-87.887 130.401,-87.887 130.726,-87.887    131.054,-87.887 131.379,-87.533 131.702,-87.184 132.031,-86.832 132.031,-86.48 132.355,-86.128 132.355,-85.776    132.684,-85.425 133.006,-85.425 133.336,-85.425 133.987,-85.425 134.313,-85.776 134.638,-85.776 134.965,-85.776    135.616,-85.776 136.269,-86.128 136.269,-85.776 136.594,-85.776 136.919,-85.425 137.247,-85.776 137.571,-86.128    137.898,-86.48 138.549,-86.48 138.876,-86.832 139.528,-86.832 139.852,-86.832 140.18,-86.832 140.831,-86.48 141.481,-86.48    141.81,-86.48 142.46,-86.48 143.113,-86.48 143.113,-86.128 143.439,-85.425 143.439,-84.724 143.439,-84.368 143.439,-84.019    143.113,-84.019 142.46,-83.317 142.134,-82.965 141.81,-82.612 141.481,-81.558 140.831,-80.855 140.505,-80.855    140.505,-80.502 140.505,-80.15 140.505,-79.801 140.505,-79.447 140.505,-79.097 140.18,-78.746 140.18,-78.394 139.528,-78.043    139.199,-77.69 138.876,-77.34 138.876,-76.988 138.876,-76.284 138.549,-75.934 138.223,-75.581 137.898,-75.581    137.571,-74.877 137.571,-74.175 137.571,-73.821 137.247,-73.821 136.919,-73.821 136.594,-73.821 136.269,-73.471    135.942,-73.471 135.616,-73.471 135.288,-73.471 134.638,-73.471 134.313,-73.471 133.987,-73.471 133.659,-73.471    133.006,-73.471 132.684,-73.821 132.355,-73.821 132.031,-74.175 131.702,-74.175 131.379,-73.821 131.054,-74.175    130.726,-74.175 130.726,-74.523 130.726,-74.877 130.401,-74.877 130.073,-74.877 129.75,-74.523 129.097,-74.877    128.772,-74.877 128.772,-75.228 128.445,-75.581 128.119,-75.934 127.793,-75.934 127.14,-75.934 126.815,-75.934    126.162,-75.581 125.511,-75.228 124.208,-75.228 123.557,-74.877 122.905,-74.523 122.905,-74.175 123.229,-73.821    123.229,-73.471 123.229,-73.12 123.229,-72.768 123.229,-72.416 123.229,-72.064 123.229,-71.713 122.905,-71.361    122.578,-71.361 121.928,-71.01 121.6,-70.659 121.275,-70.659 120.624,-70.659 120.296,-71.01 119.969,-71.01 119.969,-71.361    119.646,-71.361 119.319,-71.361 118.665,-71.713 118.342,-71.713 118.342,-72.064 118.342,-72.768 118.015,-73.12    117.689,-73.12 117.689,-72.768 117.365,-72.768 117.036,-73.12 116.713,-73.12 116.713,-72.768 116.713,-72.416 116.385,-72.416    116.385,-72.768 116.061,-72.768 116.061,-72.416 115.733,-72.064 115.406,-72.416 115.406,-72.768 115.406,-73.12    115.733,-73.471 116.385,-73.471 116.061,-73.821 115.733,-73.821 115.406,-73.821 115.082,-73.821 114.754,-73.471    114.754,-73.12 114.432,-72.768 114.103,-72.416 113.452,-72.768 113.779,-73.12 114.103,-73.12 113.779,-73.471 113.452,-74.175    113.127,-74.523 112.802,-74.523 112.802,-74.877 112.802,-75.228 112.802,-75.581 112.472,-75.581 112.15,-75.228    111.822,-75.228 111.498,-74.877 111.168,-75.228 110.845,-75.228 110.845,-75.934 110.845,-76.284 110.845,-76.636    111.168,-76.988 111.168,-77.34 111.168,-77.69 111.168,-78.394 110.845,-78.746 110.845,-79.097 110.52,-79.097 110.193,-79.097    109.867,-79.097 109.539,-79.447 109.867,-79.801 109.867,-80.15 109.539,-80.15 109.539,-80.502 108.888,-80.502    108.564,-80.855 108.888,-80.855 109.214,-81.206 109.214,-81.558 109.214,-81.909 108.564,-82.261 108.238,-82.261    107.909,-82.612 107.909,-82.965 108.238,-83.668 108.238,-84.019 108.238,-84.368 107.909,-84.724 107.585,-85.072    107.585,-85.425 107.585,-85.776 107.909,-85.776 108.238,-85.776 108.564,-85.425 108.888,-85.425 108.888,-85.776    108.888,-86.128 108.888,-86.48 109.214,-86.832 109.539,-87.184 109.867,-87.533 109.867,-87.887 109.539,-87.887    109.214,-87.887 108.888,-88.237 109.214,-88.59 109.214,-88.942 109.539,-89.291 109.867,-89.645   " id="upazila_332" area="upazlia" name="kurigramsadar" bengali="কুড়িগ্রাম-সদর" parent="kurigram"></polygon><polygon points="115.406,-43.584 115.733,-44.639 115.733,-44.991 115.733,-45.694 116.06,-46.045    116.386,-46.397 116.711,-46.397 116.711,-46.75 117.036,-47.101 117.365,-47.101 118.015,-47.101 118.34,-47.452 118.34,-47.802    118.667,-48.155 118.667,-48.858 118.667,-49.209 118.667,-49.563 118.667,-49.912 118.015,-49.912 118.015,-49.563    117.69,-49.209 117.69,-48.858 117.365,-49.209 117.036,-49.209 116.711,-49.912 117.036,-50.266 117.365,-50.614 117.69,-50.614    118.015,-50.968 118.34,-50.968 118.34,-51.32 118.34,-51.669 118.667,-52.374 118.667,-52.726 118.993,-53.078 119.319,-53.078    119.644,-53.431 119.971,-53.781 119.644,-53.781 118.993,-54.132 118.667,-54.132 118.993,-54.132 118.993,-54.837    118.667,-55.188 118.993,-55.539 119.319,-55.188 119.644,-55.188 119.971,-54.837 119.971,-54.484 120.296,-54.484    120.296,-54.837 120.296,-55.188 120.622,-55.188 121.275,-55.188 121.6,-55.539 121.275,-55.89 121.6,-56.242 121.926,-56.242    122.253,-56.242 122.578,-56.593 122.578,-56.946 122.253,-57.296 122.578,-57.296 122.904,-57.296 123.229,-57.649    123.882,-57.649 124.533,-57.649 125.186,-57.649 125.837,-57.649 125.837,-57.296 126.49,-56.946 126.815,-56.946    127.141,-56.946 127.466,-56.593 127.466,-56.242 127.466,-55.89 127.793,-55.188 128.119,-54.837 128.447,-54.484    128.77,-54.132 129.097,-54.132 130.073,-53.078 130.727,-52.726 130.727,-52.374 131.052,-52.024 130.399,-51.669    130.399,-51.32 130.073,-50.968 130.073,-50.614 130.073,-50.266 130.073,-49.563 129.748,-49.563 129.422,-49.563    129.097,-49.912 128.77,-50.266 128.447,-49.912 128.119,-49.563 128.119,-49.209 128.119,-48.858 127.466,-49.209    127.141,-49.209 127.141,-49.563 126.815,-49.209 126.49,-48.506 126.49,-48.155 126.49,-47.802 126.162,-47.101 125.837,-46.75    125.511,-46.75 124.859,-46.397 124.533,-46.045 124.207,-45.694 124.207,-44.991 124.533,-44.288 124.859,-44.288    125.186,-44.288 125.511,-44.639 125.511,-44.991 125.837,-44.991 126.162,-44.991 126.49,-44.991 126.815,-45.342    127.141,-45.342 127.466,-45.342 127.793,-44.991 127.793,-44.639 127.466,-44.288 127.141,-43.936 126.815,-43.584    126.49,-42.881 126.162,-42.529 126.162,-41.474 126.49,-41.474 126.815,-41.827 127.466,-41.827 127.793,-41.827    128.119,-41.474 128.447,-41.124 128.447,-40.772 128.77,-40.772 129.097,-40.419 129.097,-39.717 128.77,-39.367 128.77,-39.014    128.447,-38.661 127.793,-37.96 127.466,-38.312 126.815,-38.312 126.49,-38.661 126.162,-39.014 125.511,-39.014    125.186,-39.367 124.533,-39.367 124.207,-39.717 123.882,-39.717 123.557,-39.717 122.904,-39.717 122.578,-39.367    121.926,-39.367 121.6,-39.717 120.949,-39.717 120.296,-39.717 119.971,-40.069 119.971,-40.419 119.644,-40.772    119.319,-40.772 118.993,-40.772 118.667,-41.124 118.015,-41.124 117.365,-41.474 116.711,-41.827 116.386,-42.529    116.386,-42.881 116.06,-43.234   " id="upazila_330" area="upazlia" name="chilmari" bengali="চিলমারী" parent="kurigram"></polygon><polygon points="135.942,-54.837 135.942,-55.539 135.942,-55.892 135.942,-56.244 135.942,-56.593    136.267,-57.298 135.942,-57.649 135.942,-58.001 135.616,-58.354 135.288,-58.704 135.288,-59.056 135.288,-59.406    135.288,-59.759 135.616,-60.111 135.616,-60.461 135.942,-60.461 135.942,-60.814 136.267,-60.814 136.594,-60.814    136.594,-61.166 136.594,-61.516 136.594,-61.868 136.267,-61.868 136.594,-62.22 136.919,-62.22 137.245,-62.22 137.571,-62.571    137.898,-62.22 138.223,-61.868 138.223,-61.516 137.898,-61.166 137.571,-61.166 137.571,-60.814 137.571,-60.461    137.898,-60.461 138.223,-60.461 138.549,-60.461 138.874,-60.461 139.201,-60.461 139.201,-60.111 139.527,-60.111    139.527,-59.759 139.201,-59.056 139.527,-58.354 139.852,-58.354 140.18,-58.354 140.505,-58.354 140.505,-58.704    140.18,-58.704 140.18,-59.056 140.505,-59.406 140.505,-59.759 140.18,-60.111 140.505,-60.461 140.505,-60.814 140.505,-61.166    140.83,-61.868 141.482,-62.923 141.482,-63.273 141.809,-63.977 141.809,-64.328 142.785,-65.383 143.113,-65.736    143.764,-65.736 144.089,-65.736 144.414,-65.736 144.741,-65.736 145.068,-65.383 145.393,-65.383 145.718,-65.033    145.718,-64.681 145.718,-64.328 145.393,-63.626 145.068,-63.273 145.068,-62.923 145.393,-62.22 145.393,-61.868    146.045,-61.166 146.045,-60.814 146.371,-60.461 146.697,-60.111 147.022,-59.056 147.022,-58.704 147.349,-58.354    147.675,-58.001 148,-58.001 148.327,-57.649 148.327,-57.298 148.653,-56.946 148.653,-56.593 148.653,-55.892 148.979,-55.539    148.979,-55.188 149.304,-54.837 149.631,-53.781 149.631,-53.079 149.956,-52.374 149.956,-51.32 149.956,-50.617    149.631,-49.911 148.979,-48.506 148.979,-48.155 148.653,-47.452 148.653,-47.101 148.653,-46.75 148.979,-46.398    148.653,-45.694 148.327,-45.344 148.327,-44.989 148.653,-44.639 148.327,-44.288 148,-43.937 147.675,-43.584 147.675,-42.881    147.675,-42.179 147.675,-41.124 147.349,-40.772 147.022,-40.422 146.371,-40.422 146.045,-40.069 146.045,-39.717    146.045,-39.367 146.045,-39.016 146.045,-38.663 146.371,-37.607 146.697,-37.257 146.697,-36.903 146.697,-36.201    146.697,-35.498 146.371,-35.146 146.045,-34.795 146.045,-34.442 146.045,-34.091 146.045,-33.39 145.393,-33.037    145.393,-32.334 145.718,-32.334 145.718,-31.631 145.393,-30.928 145.393,-30.577 145.718,-29.874 145.718,-29.169    145.718,-28.817 145.068,-28.466 144.741,-27.762 144.414,-27.06 144.089,-26.708 143.764,-26.356 143.438,-25.652    143.113,-24.95 142.785,-24.247 142.785,-23.545 142.459,-22.49 142.459,-22.138 142.134,-22.138 141.482,-22.138    141.156,-22.138 140.505,-22.138 140.18,-22.138 139.527,-22.49 138.874,-22.84 138.223,-23.193 137.898,-23.545 137.245,-23.895    136.919,-24.247 136.267,-24.247 135.616,-24.599 134.963,-24.599 134.638,-24.599 133.987,-24.95 133.659,-24.95    133.008,-25.302 132.355,-25.302 132.355,-25.652 132.683,-25.652 133.008,-26.356 133.334,-27.06 133.334,-27.412    133.659,-27.412 133.987,-27.762 133.659,-28.113 133.334,-28.113 133.008,-28.466 133.334,-28.817 133.334,-29.169    133.008,-29.169 133.334,-29.52 133.334,-29.874 133.008,-30.223 132.683,-30.223 132.683,-30.577 133.008,-31.279    133.008,-31.631 132.683,-32.334 132.355,-32.686 132.031,-32.686 131.704,-32.686 131.379,-32.686 131.052,-33.037    131.052,-33.39 130.727,-33.74 131.052,-33.74 131.379,-34.091 131.379,-34.442 131.052,-34.795 130.727,-35.146 130.399,-35.498    130.727,-35.85 130.727,-36.201 131.379,-36.555 131.704,-36.555 132.031,-36.555 132.683,-36.903 132.683,-37.257    133.008,-37.257 133.334,-37.257 133.659,-37.257 133.659,-36.903 133.987,-36.555 134.313,-36.555 134.638,-36.555    134.963,-36.555 135.288,-36.555 135.942,-36.555 136.267,-36.555 136.594,-36.201 136.919,-36.201 137.571,-36.201    137.571,-36.555 137.571,-36.903 137.571,-37.257 137.571,-37.607 137.571,-37.96 137.571,-38.663 137.898,-39.016    138.549,-39.717 138.874,-40.069 139.201,-40.069 139.527,-40.422 139.527,-41.124 139.201,-41.827 138.874,-41.827    138.549,-42.179 138.223,-42.179 137.898,-42.53 137.245,-42.53 136.594,-42.53 136.594,-42.881 136.594,-43.234 136.594,-43.584    136.919,-43.937 137.245,-44.639 137.571,-45.694 138.223,-46.045 138.223,-46.398 138.549,-47.101 138.549,-47.452    138.549,-47.804 138.549,-48.155 138.549,-48.506 138.874,-48.858 138.874,-49.211 138.874,-49.563 138.874,-49.911    138.549,-49.911 138.549,-50.266 138.223,-50.617 138.223,-50.968 137.898,-51.32 137.571,-51.671 137.571,-52.024    136.919,-52.374 136.919,-52.726 136.919,-53.431 136.919,-53.781 136.594,-54.486   " id="upazila_335" area="upazlia" name="rowmari" bengali="রৌমারী" parent="kurigram"></polygon><polygon points="105.955,-91.403 106.281,-91.403 106.607,-91.403 106.934,-91.403 107.584,-91.403    107.91,-91.755 108.238,-91.755 108.563,-91.755 108.238,-91.403 108.563,-91.052 108.888,-90.701 109.214,-90.347    109.539,-90.347 109.866,-89.995 109.866,-89.645 109.539,-89.291 109.214,-88.942 109.214,-88.59 108.888,-88.237    109.214,-87.887 109.539,-87.887 109.866,-87.887 109.866,-87.533 109.539,-87.184 109.214,-86.832 108.888,-86.48    108.888,-86.128 108.888,-85.776 108.888,-85.425 108.563,-85.425 108.238,-85.776 107.91,-85.776 107.584,-85.776    107.584,-85.425 107.584,-85.072 107.91,-84.724 108.238,-84.368 108.238,-84.019 108.238,-83.668 107.91,-82.965 107.91,-82.612    108.238,-82.261 108.563,-82.261 109.214,-81.909 109.214,-81.558 109.214,-81.206 108.888,-80.855 108.563,-80.855    108.888,-80.502 109.539,-80.502 109.539,-80.15 109.866,-80.15 109.866,-79.801 109.539,-79.447 109.866,-79.097    110.193,-79.097 110.518,-79.097 110.845,-79.097 110.845,-78.746 111.168,-78.394 111.168,-77.69 111.168,-77.34    111.168,-76.985 110.845,-76.636 110.845,-76.281 110.845,-75.934 110.845,-75.228 111.168,-75.228 111.498,-74.877    111.822,-75.228 112.149,-75.228 112.472,-75.581 112.802,-75.581 112.802,-75.228 112.802,-74.877 112.802,-74.523    113.127,-74.523 113.452,-74.175 113.778,-73.471 114.103,-73.12 113.778,-73.12 113.452,-72.768 114.103,-72.416    114.431,-72.063 114.754,-71.713 115.082,-71.358 115.082,-71.01 115.082,-70.659 115.082,-70.306 114.754,-69.956    114.431,-69.602 114.103,-69.602 113.778,-69.253 113.127,-69.253 112.472,-69.253 111.822,-68.901 111.498,-68.548    111.498,-68.198 111.168,-67.844 110.845,-67.495 110.518,-67.844 110.193,-67.844 109.539,-67.844 109.539,-67.495    109.539,-67.141 109.539,-66.792 109.214,-66.792 108.888,-66.792 108.563,-66.792 107.91,-66.439 107.584,-66.087    106.934,-66.087 106.607,-66.087 106.281,-66.439 105.955,-66.792 105.303,-67.495 104.977,-67.495 104.652,-67.495    104.652,-67.141 104.326,-67.141 103.999,-67.141 103.674,-66.792 103.348,-66.792 102.696,-67.141 102.37,-67.495    101.717,-67.495 101.392,-67.495 101.067,-67.141 100.413,-66.792 100.088,-66.439 99.438,-66.087 99.112,-66.439 98.784,-66.792    98.459,-66.792 97.808,-66.439 97.481,-66.439 97.156,-66.439 96.829,-66.439 96.504,-66.439 96.179,-66.792 96.179,-67.141    95.851,-67.844 95.851,-68.198 95.851,-68.548 96.179,-68.548 96.504,-68.901 96.829,-68.901 97.156,-68.901 97.481,-68.901    97.481,-69.253 97.808,-69.602 98.133,-70.306 98.133,-70.659 98.133,-71.01 97.808,-71.358 97.156,-71.358 97.156,-71.713    96.829,-71.713 96.504,-72.063 96.179,-72.063 95.851,-72.416 95.526,-72.416 95.2,-72.416 94.875,-72.416 94.875,-72.768    94.875,-73.12 94.875,-73.471 94.875,-73.821 94.547,-74.175 94.22,-74.523 93.897,-74.877 93.57,-75.581 93.244,-75.934    93.244,-76.281 92.916,-76.636 92.593,-76.985 92.266,-76.636 91.941,-76.636 91.615,-76.636 91.941,-76.985 92.266,-77.69    92.266,-78.394 92.266,-78.746 91.941,-79.097 91.615,-79.447 91.615,-79.801 91.615,-80.15 91.941,-80.15 92.266,-80.502    92.266,-80.855 91.941,-80.855 91.615,-81.206 91.941,-81.558 92.266,-81.558 92.593,-81.558 92.916,-81.558 92.916,-81.206    93.57,-81.206 93.897,-81.206 94.22,-81.206 94.22,-81.558 94.22,-81.909 94.547,-81.909 94.875,-82.261 95.2,-82.261    95.526,-81.909 96.179,-81.558 96.504,-81.206 96.829,-80.855 97.156,-80.855 97.808,-80.855 98.133,-80.855 98.459,-80.855    98.784,-80.855 99.112,-80.855 99.438,-80.502 99.438,-81.206 99.763,-81.558 99.763,-81.909 99.763,-82.261 100.088,-82.612    100.413,-82.261 101.067,-82.261 101.392,-82.261 101.717,-82.612 101.717,-82.965 102.044,-83.317 102.044,-83.668    102.044,-84.368 101.717,-85.072 101.717,-85.425 101.717,-85.776 101.717,-86.128 101.717,-86.832 101.717,-87.184    101.717,-87.533 102.044,-87.887 102.37,-88.237 102.696,-88.237 103.023,-88.237 103.023,-87.887 103.348,-87.533    103.999,-87.533 104.326,-87.533 104.652,-87.887 104.977,-87.887 105.303,-88.59 105.303,-88.942 105.63,-89.291 105.63,-89.645    105.63,-90.347 105.63,-90.701 105.63,-91.052   " id="upazila_334" area="upazlia" name="rajarhat" bengali="রাজারহাট" parent="kurigram"></polygon><polygon points="111.17,-113.555 110.845,-113.903 110.518,-113.903 110.518,-114.258 110.193,-114.258    110.193,-114.606 110.518,-114.606 110.845,-114.606 111.17,-114.606 111.498,-114.606 111.822,-114.959 112.15,-115.311    112.472,-115.311 113.127,-115.664 113.127,-116.015 112.802,-116.366 112.472,-116.366 112.15,-116.721 111.822,-117.069    112.15,-117.421 112.472,-117.421 112.802,-117.421 112.802,-117.069 113.127,-116.721 113.453,-116.721 113.779,-116.721    113.779,-116.366 113.779,-116.015 113.779,-115.664 114.101,-116.015 114.432,-116.015 114.432,-116.366 114.754,-116.366    115.082,-116.721 115.082,-117.069 115.406,-117.069 115.735,-117.069 116.061,-117.069 116.061,-116.721 116.385,-117.069    117.036,-117.069 117.365,-117.069 117.689,-117.069 118.342,-116.721 118.665,-117.069 118.342,-117.421 118.342,-117.771    118.342,-118.123 118.665,-118.123 118.665,-117.771 118.993,-117.771 119.319,-117.771 119.319,-117.421 119.646,-117.069    119.646,-116.721 119.969,-116.721 120.299,-116.721 120.299,-117.069 120.624,-117.069 120.624,-117.421 120.624,-117.771    120.624,-118.478 120.948,-118.478 120.948,-118.123 121.275,-118.123 121.6,-117.771 121.928,-117.421 121.6,-117.069    122.251,-117.069 122.251,-116.721 122.578,-116.721 122.251,-116.721 121.6,-116.721 121.6,-116.366 121.928,-116.015    121.6,-116.015 121.275,-116.015 120.948,-115.664 121.275,-115.664 121.275,-115.311 121.6,-114.959 121.6,-115.311    121.928,-114.959 121.928,-114.606 121.6,-114.606 121.275,-114.258 121.275,-113.903 121.275,-113.555 121.6,-113.555    121.928,-113.555 122.251,-113.903 122.578,-113.903 122.905,-113.555 122.905,-113.903 123.229,-113.903 123.229,-114.258    123.557,-114.606 123.882,-114.959 124.532,-114.959 124.859,-114.959 125.187,-114.606 125.511,-114.606 125.837,-114.258    125.837,-113.903 125.837,-113.2 126.161,-112.849 126.815,-112.849 126.815,-113.2 126.815,-113.555 126.815,-113.903    127.141,-113.903 127.468,-113.903 127.794,-113.555 128.119,-113.2 128.119,-112.849 127.794,-112.499 127.794,-112.145    128.119,-112.145 128.445,-112.145 128.772,-112.145 128.772,-112.499 129.097,-112.849 129.422,-113.2 129.75,-113.2    130.075,-113.2 130.401,-113.2 130.726,-113.2 131.054,-113.2 131.379,-113.2 131.704,-113.2 132.031,-113.2 132.355,-113.2    132.355,-113.555 132.684,-113.903 133.006,-114.258 133.334,-114.258 133.334,-114.606 133.334,-114.959 133.334,-115.664    133.659,-116.015 133.988,-116.015 134.313,-115.664 134.64,-115.664 134.64,-115.311 134.64,-114.959 134.64,-114.606    134.64,-114.258 134.313,-113.903 133.988,-113.555 133.988,-113.2 134.313,-112.849 134.313,-112.499 134.64,-112.499    134.965,-112.849 135.288,-113.2 135.288,-112.849 135.616,-113.2 135.942,-113.555 136.269,-113.903 136.594,-113.903    136.919,-113.555 136.919,-113.2 137.247,-113.2 137.571,-112.849 137.571,-113.2 137.571,-113.555 137.898,-113.903    138.223,-113.903 138.551,-113.903 138.551,-113.555 138.551,-113.2 138.551,-112.849 138.223,-112.499 138.223,-112.145    137.898,-112.145 137.571,-111.794 137.571,-111.442 137.571,-111.092 137.247,-111.092 136.919,-110.74 136.919,-110.389    137.247,-110.389 137.571,-110.389 137.898,-110.74 138.223,-111.092 138.551,-111.794 138.876,-112.145 138.876,-112.499    139.201,-112.849 139.201,-113.2 139.201,-113.903 139.528,-114.258 139.852,-114.258 140.18,-113.903 140.18,-113.555    140.503,-112.849 140.831,-112.145 141.156,-111.794 141.156,-111.442 140.831,-111.092 140.831,-110.74 140.831,-110.389    141.156,-110.037 141.482,-109.333 141.482,-108.981 141.482,-108.632 141.156,-107.927 141.156,-107.576 140.831,-107.225    140.503,-107.225 140.503,-106.873 140.831,-106.169 141.156,-105.816 141.482,-105.465 142.134,-105.115 142.46,-105.115    142.784,-105.115 143.114,-105.115 143.439,-105.115 143.439,-105.465 143.439,-105.816 143.114,-106.169 143.114,-106.521    143.114,-106.873 142.784,-107.225 142.784,-107.576 142.784,-107.927 142.784,-108.278 143.114,-108.632 143.114,-108.981    143.114,-109.333 143.439,-109.684 143.764,-109.333 144.089,-109.333 144.089,-108.981 144.414,-108.632 144.742,-108.632    144.742,-108.278 144.742,-107.927 144.742,-107.225 145.067,-106.873 145.067,-106.169 145.395,-106.169 145.718,-105.816    146.045,-105.816 146.371,-105.816 147.024,-105.465 147.347,-105.115 147.675,-104.764 148,-104.764 148.328,-104.411    148.328,-104.06 148,-103.71 147.347,-103.355 147.024,-103.355 146.697,-103.004 146.045,-103.004 145.718,-103.355    145.067,-103.355 144.742,-103.355 144.089,-103.004 143.764,-102.654 144.089,-102.302 144.414,-101.949 144.742,-101.598    144.742,-101.247 144.742,-100.894 144.742,-100.544 145.067,-100.544 145.067,-100.192 144.742,-100.192 144.414,-100.192    144.089,-100.544 143.764,-100.544 143.439,-100.894 142.784,-100.894 142.46,-100.894 142.134,-100.894 141.81,-100.192    141.81,-99.841 142.134,-99.489 142.46,-99.489 142.784,-99.489 143.439,-99.489 144.089,-99.489 144.089,-99.137    144.089,-98.789 144.414,-98.789 144.742,-98.789 145.067,-99.137 145.395,-99.137 145.718,-99.137 146.371,-99.489    147.024,-99.489 147.675,-99.489 148.653,-99.841 149.631,-99.841 150.282,-99.489 150.282,-99.137 149.956,-98.789    149.956,-98.434 149.306,-97.379 149.306,-97.027 149.306,-96.677 148.978,-96.323 148.653,-95.971 148.328,-95.268 148,-94.917    147.675,-94.567 147.024,-93.865 146.697,-93.511 146.371,-93.162 146.045,-92.81 145.395,-92.457 145.067,-91.753    145.067,-91.401 144.742,-90.701 144.414,-90.347 144.089,-89.645 143.439,-89.292 143.114,-88.941 143.114,-88.589    143.114,-88.239 143.114,-87.887 143.439,-87.533 143.439,-86.832 143.114,-86.479 142.46,-86.479 141.81,-86.479    141.482,-86.479 140.831,-86.479 140.18,-86.832 139.852,-86.832 139.528,-86.832 138.876,-86.832 138.551,-86.479    137.898,-86.479 137.571,-86.127 137.247,-85.778 136.919,-85.425 136.594,-85.778 136.269,-85.778 136.269,-86.127    135.616,-85.778 134.965,-85.778 134.64,-85.778 134.313,-85.778 133.988,-85.425 133.334,-85.425 133.006,-85.425    132.684,-85.425 132.355,-85.778 132.355,-86.127 132.031,-86.479 132.031,-86.832 131.704,-87.184 131.379,-87.533    131.054,-87.887 130.726,-87.887 130.401,-87.887 130.075,-87.887 130.075,-88.239 129.75,-88.589 129.75,-88.941    129.422,-89.292 129.097,-89.292 128.772,-89.645 128.445,-89.995 128.119,-90.347 127.794,-90.347 126.49,-90.701    126.161,-90.701 125.511,-90.701 125.187,-90.701 124.532,-90.701 123.882,-90.701 123.557,-90.701 123.557,-90.347    123.229,-89.995 122.578,-89.995 122.251,-89.995 121.928,-90.347 121.6,-90.701 121.6,-91.05 121.928,-91.401 122.251,-91.753    122.578,-91.753 122.905,-91.753 123.229,-92.105 123.229,-92.457 123.229,-92.81 122.578,-92.81 122.251,-92.81 122.251,-93.162    122.578,-93.511 122.578,-93.865 122.578,-94.214 121.928,-94.214 121.928,-94.567 121.6,-94.917 121.275,-94.214    121.275,-93.865 120.948,-93.865 120.948,-94.567 120.948,-94.917 120.948,-95.268 120.624,-95.268 120.299,-95.268    120.299,-94.917 120.299,-94.567 119.646,-94.567 119.319,-94.214 119.319,-93.865 119.319,-93.511 118.993,-93.162    118.342,-93.162 117.689,-93.162 117.689,-94.214 117.365,-94.214 117.365,-94.567 117.036,-94.567 116.713,-94.567    116.385,-94.917 116.713,-95.268 117.036,-95.268 117.365,-95.268 117.689,-95.268 118.017,-95.622 118.342,-95.622    118.342,-95.971 118.342,-96.323 118.017,-96.323 118.342,-96.677 118.665,-96.677 118.665,-97.027 118.342,-97.729    118.017,-98.082 117.689,-98.082 117.365,-98.082 117.365,-97.729 117.036,-98.082 117.365,-98.434 117.365,-98.789    117.365,-99.137 117.036,-99.137 116.713,-99.137 116.713,-98.789 116.385,-98.789 116.061,-99.137 115.735,-99.489    115.406,-99.841 115.406,-100.192 114.754,-101.247 115.082,-101.598 114.754,-102.654 115.082,-103.004 115.082,-103.355    115.082,-103.71 114.754,-103.71 114.754,-104.06 114.432,-104.06 114.101,-104.06 113.779,-104.411 113.779,-104.764    113.779,-105.115 113.779,-105.465 113.779,-105.816 113.453,-105.816 113.127,-106.169 113.453,-106.169 113.453,-106.521    113.779,-106.521 114.101,-106.873 114.101,-107.576 113.779,-108.278 113.779,-108.632 113.453,-108.981 113.453,-109.333    113.453,-109.684 113.453,-110.389 113.453,-110.74 113.453,-111.092 113.453,-111.442 113.453,-111.794 113.127,-112.145    112.802,-112.145 112.15,-112.499 111.498,-113.2   " id="upazila_333" area="upazlia" name="nageshwari" bengali="নাগেশ্বরী" parent="kurigram"></polygon><polygon points="131.052,-52.024 131.052,-51.669 131.379,-51.669 131.704,-52.024 131.379,-52.372    131.379,-52.729 131.379,-53.079 131.704,-53.079 131.704,-53.431 132.355,-53.431 132.683,-53.781 133.334,-54.135    133.659,-54.486 133.987,-54.486 134.313,-54.835 134.638,-54.835 135.288,-54.835 135.942,-54.835 136.594,-54.486    136.919,-53.781 136.919,-53.431 136.919,-52.729 136.919,-52.372 137.571,-52.024 137.571,-51.669 137.898,-51.321    138.223,-50.968 138.223,-50.617 138.549,-50.268 138.549,-49.911 138.874,-49.911 138.874,-49.563 138.874,-49.211    138.874,-48.859 138.549,-48.506 138.549,-48.155 138.549,-47.804 138.549,-47.452 138.549,-47.101 138.223,-46.398    138.223,-46.045 137.571,-45.694 137.245,-44.639 136.919,-43.937 136.594,-43.584 136.594,-43.234 136.594,-42.881    136.594,-42.529 137.245,-42.529 137.898,-42.529 138.223,-42.179 138.549,-42.179 138.874,-41.826 139.201,-41.826    139.527,-41.125 139.527,-40.422 139.201,-40.069 138.874,-40.069 138.549,-39.719 137.898,-39.016 137.571,-38.663    137.571,-37.96 137.571,-37.606 137.571,-37.259 137.571,-36.903 137.571,-36.555 137.571,-36.201 136.919,-36.201    136.594,-36.201 136.267,-36.555 135.942,-36.555 135.288,-36.555 134.963,-36.555 134.638,-36.555 134.313,-36.555    133.987,-36.555 133.659,-36.903 133.659,-37.259 133.334,-37.259 133.008,-37.259 132.683,-37.259 132.683,-36.903    132.031,-36.555 131.704,-36.555 131.379,-36.555 130.727,-36.201 130.727,-35.85 130.399,-35.498 130.727,-35.146    131.052,-34.795 131.379,-34.44 131.379,-34.091 131.052,-33.738 130.727,-33.738 131.052,-33.391 131.052,-33.037    131.379,-32.685 131.704,-32.685 132.031,-32.685 132.355,-32.685 132.683,-32.334 133.008,-31.631 133.008,-31.279    132.683,-30.577 132.683,-30.223 133.008,-30.223 133.334,-29.874 133.334,-29.52 133.008,-29.169 133.334,-29.169    133.334,-28.815 133.008,-28.466 133.334,-28.115 133.659,-28.115 133.987,-27.762 133.659,-27.412 133.334,-27.412    133.334,-27.059 133.008,-26.356 132.683,-25.654 132.355,-25.654 132.355,-25.302 133.008,-25.302 133.659,-24.95    133.987,-24.95 134.638,-24.598 134.313,-24.598 134.313,-24.247 134.638,-23.894 134.963,-23.894 134.963,-23.545    135.288,-23.193 135.288,-22.84 134.963,-22.49 134.963,-22.137 135.288,-22.137 135.616,-22.137 135.616,-21.787    135.942,-21.787 136.267,-21.787 136.267,-21.435 136.267,-21.083 136.267,-20.733 136.267,-20.026 135.942,-19.327    135.942,-18.971 135.942,-18.271 135.616,-17.918 135.288,-17.567 133.334,-17.214 133.008,-17.214 132.355,-17.214    131.704,-17.214 131.379,-17.214 131.052,-16.863 130.727,-16.161 130.399,-16.512 130.727,-16.512 131.052,-16.863    131.052,-17.214 131.379,-17.567 131.704,-18.271 131.704,-18.621 131.379,-18.621 131.052,-18.621 130.727,-18.621    130.399,-18.971 130.399,-19.675 130.073,-19.675 129.748,-19.675 129.422,-19.675 128.77,-19.675 127.793,-19.327    126.815,-19.327 126.162,-18.971 125.837,-19.327 125.511,-19.675 125.186,-19.327 124.859,-19.327 124.859,-19.675    124.533,-19.675 124.207,-20.026 124.533,-20.38 124.859,-20.733 125.186,-21.083 125.186,-21.787 125.186,-22.137    124.859,-22.84 124.533,-22.84 124.207,-22.84 123.557,-22.49 123.229,-22.49 123.229,-22.84 123.557,-23.193 123.882,-23.545    124.207,-23.894 124.533,-24.247 124.533,-24.598 124.859,-25.302 125.186,-26.356 125.511,-27.412 125.511,-28.115    125.837,-28.815 125.837,-29.169 125.511,-29.52 124.859,-29.52 124.207,-29.52 124.207,-29.169 123.882,-29.169 123.229,-29.169    122.904,-29.169 122.578,-29.169 122.578,-29.52 122.578,-29.874 122.578,-30.577 121.926,-31.279 121.6,-31.631 120.949,-31.631    120.949,-32.334 120.949,-32.685 121.275,-33.037 121.6,-33.037 122.253,-33.037 122.904,-33.037 124.207,-33.037    124.533,-33.391 124.859,-34.091 124.533,-34.44 123.882,-34.795 123.229,-35.146 122.904,-35.498 122.904,-35.85    122.904,-36.201 122.578,-36.555 122.578,-36.903 122.578,-37.259 122.904,-37.606 123.229,-37.96 123.557,-37.96    123.882,-38.312 123.882,-38.663 124.207,-38.663 124.533,-39.364 125.186,-39.364 125.511,-39.016 126.162,-39.016    126.49,-38.663 126.815,-38.312 127.466,-38.312 127.793,-37.96 128.447,-38.663 128.77,-39.016 128.77,-39.364 129.097,-39.719    129.097,-40.422 128.77,-40.772 128.447,-40.772 128.447,-41.125 128.119,-41.476 127.793,-41.826 127.466,-41.826    126.815,-41.826 126.49,-41.476 126.162,-41.476 126.162,-42.529 126.49,-42.881 126.815,-43.584 127.141,-43.937    127.466,-44.288 127.793,-44.639 127.793,-44.991 127.466,-45.344 127.141,-45.344 126.815,-45.344 126.49,-44.991    126.162,-44.991 125.837,-44.991 125.511,-44.991 125.511,-44.639 125.186,-44.288 124.859,-44.288 124.533,-44.288    124.207,-44.991 124.207,-45.694 124.533,-46.045 124.859,-46.398 125.511,-46.747 125.837,-46.747 126.162,-47.101    126.49,-47.804 126.49,-48.155 126.49,-48.506 126.815,-49.211 127.141,-49.563 127.141,-49.211 127.466,-49.211 128.119,-48.859    128.119,-49.211 128.119,-49.563 128.447,-49.911 128.77,-50.268 129.097,-49.911 129.422,-49.563 129.748,-49.563    130.073,-49.563 130.073,-50.268 130.073,-50.617 130.073,-50.968 130.399,-51.321 130.399,-51.669   " id="upazila_329" area="upazlia" name="charrajibpur" bengali="চর-রাজিবপুর" parent="kurigram"></polygon><polygon points="117.69,-117.069 118.015,-117.069 118.015,-117.422 118.015,-117.772 117.69,-118.123    117.365,-118.478 117.036,-118.478 116.711,-118.827 116.386,-119.179 116.061,-119.179 116.061,-119.53 115.733,-119.882    115.733,-120.235 116.386,-120.586 116.386,-120.936 116.711,-121.289 116.386,-121.64 116.061,-121.64 115.733,-121.991    116.061,-122.343 116.386,-122.695 116.061,-122.695 115.733,-123.046 115.733,-123.397 115.406,-123.75 114.756,-124.102    114.431,-123.75 114.431,-123.397 114.431,-123.046 114.431,-122.695 113.779,-122.695 113.452,-123.046 113.452,-123.397    113.127,-123.046 113.452,-122.695 113.452,-122.343 113.452,-121.991 113.127,-121.991 112.802,-121.991 112.474,-121.64    112.802,-121.289 112.474,-120.936 112.149,-121.289 111.822,-121.64 111.822,-121.991 111.17,-122.343 110.518,-122.343    110.518,-122.695 110.518,-123.046 110.845,-123.046 111.17,-123.046 111.498,-123.046 111.498,-123.397 111.17,-123.397    110.845,-123.75 110.518,-123.75 110.518,-124.102 110.845,-124.102 111.17,-124.102 111.17,-124.453 111.498,-124.453    111.822,-124.102 111.822,-123.75 112.149,-123.75 112.474,-123.75 112.802,-123.75 113.127,-123.75 113.452,-123.75    113.779,-123.75 113.779,-124.102 114.103,-124.102 114.431,-124.453 115.082,-125.156 115.406,-125.156 115.406,-125.508    115.082,-126.211 115.082,-126.562 114.756,-126.914 114.431,-126.562 114.431,-125.858 114.103,-125.508 113.779,-125.508    113.452,-125.858 113.127,-126.562 112.802,-126.562 112.474,-126.211 112.474,-125.858 112.149,-125.156 111.822,-125.156    111.822,-125.508 111.822,-125.858 111.822,-126.211 112.149,-126.211 112.149,-126.562 111.822,-126.562 111.498,-126.562    111.498,-126.914 111.17,-127.266 110.845,-127.617 110.845,-127.968 110.845,-128.32 110.518,-128.32 110.845,-128.673    110.845,-129.375 110.845,-129.726 110.845,-130.079 110.845,-130.431 110.518,-130.781 110.195,-131.134 110.518,-131.485    110.845,-131.485 111.17,-131.485 111.498,-131.134 111.498,-130.781 111.822,-131.134 112.149,-131.134 112.149,-130.781    112.149,-130.431 112.474,-130.431 112.802,-130.431 112.802,-130.781 112.802,-131.134 112.474,-131.134 112.474,-131.485    112.474,-131.835 112.802,-131.835 113.127,-131.835 113.127,-132.19 113.452,-132.19 113.779,-132.54 113.452,-132.54    113.127,-132.54 112.802,-132.54 112.802,-132.891 112.802,-133.243 113.452,-133.243 113.127,-133.596 113.452,-133.946    113.452,-134.298 114.103,-134.298 114.431,-133.946 114.103,-133.596 114.103,-133.243 114.431,-133.243 114.756,-133.596    115.082,-133.946 115.406,-134.298 115.733,-134.298 116.061,-133.946 116.061,-133.596 115.406,-133.596 115.406,-133.243    115.733,-133.243 116.061,-133.243 116.061,-132.891 116.386,-132.891 116.386,-132.54 116.711,-132.19 117.036,-132.19    117.69,-132.19 118.015,-132.19 118.015,-132.54 118.015,-132.891 118.342,-132.891 118.667,-133.243 118.993,-133.596    118.993,-133.946 118.993,-134.298 118.342,-134.65 118.015,-134.65 117.69,-134.298 117.365,-134.65 117.036,-134.65    116.711,-134.65 116.386,-134.298 116.061,-134.298 116.061,-134.65 115.733,-134.65 115.406,-134.65 115.082,-135.001    114.756,-135.353 115.082,-135.704 115.406,-135.704 115.733,-135.704 115.733,-136.056 115.406,-136.056 115.406,-136.408    115.406,-136.758 115.733,-136.758 116.061,-136.408 116.061,-136.056 116.386,-135.704 116.386,-135.353 117.036,-135.353    117.365,-135.001 117.69,-135.353 117.69,-135.704 118.015,-135.704 118.015,-136.056 117.69,-136.408 117.365,-136.408    116.711,-137.111 116.711,-137.462 116.711,-138.167 116.386,-138.518 116.061,-138.868 115.733,-138.868 115.733,-139.219    116.061,-139.923 116.061,-140.275 116.061,-140.627 116.061,-141.329 116.061,-141.68 116.711,-141.329 117.036,-141.329    117.365,-140.978 117.69,-140.275 118.342,-140.275 118.667,-139.923 118.993,-139.923 119.319,-139.923 119.971,-140.275    120.296,-140.275 120.949,-140.275 120.949,-140.627 120.949,-140.978 120.949,-141.329 121.275,-141.68 121.275,-142.034    121.928,-142.736 122.253,-142.385 122.253,-142.034 122.253,-141.68 122.253,-141.329 122.578,-141.329 122.904,-141.68    122.904,-141.329 122.904,-140.978 122.578,-140.978 122.253,-140.978 122.253,-140.627 121.928,-140.627 122.253,-140.627    122.578,-140.627 122.904,-140.627 123.23,-140.627 123.557,-140.275 123.23,-140.275 123.23,-139.923 122.904,-139.923    122.578,-139.923 122.253,-140.275 121.928,-140.275 121.928,-139.923 121.928,-139.571 122.253,-139.219 122.578,-138.868    122.904,-138.868 123.23,-138.868 123.557,-138.868 123.557,-138.518 123.23,-138.518 122.904,-138.167 122.578,-138.167    122.253,-138.518 121.6,-138.518 121.275,-138.518 121.275,-137.813 121.275,-137.462 121.928,-137.111 122.253,-137.111    122.578,-137.111 122.578,-136.758 122.578,-136.408 122.578,-136.056 122.578,-135.704 122.578,-135.353 123.23,-134.65    123.557,-134.298 123.882,-133.596 124.533,-133.596 124.859,-133.243 125.186,-133.243 124.859,-132.891 124.533,-132.891    123.882,-132.54 123.557,-132.891 122.904,-132.54 122.253,-132.19 122.253,-131.835 122.253,-131.485 122.578,-131.485    122.904,-131.134 123.23,-131.485 123.557,-131.485 123.882,-131.485 124.207,-131.485 124.533,-131.134 124.859,-130.781    125.186,-130.431 125.512,-130.431 125.837,-130.431 126.162,-130.781 126.49,-131.485 126.49,-132.19 126.49,-132.54    126.816,-132.54 127.141,-132.54 127.141,-132.19 127.466,-132.19 127.793,-131.485 127.466,-131.134 127.466,-130.781    127.793,-130.781 128.119,-130.781 128.77,-131.134 129.097,-131.134 129.748,-131.134 130.401,-131.134 131.052,-131.134    131.379,-130.781 132.031,-130.079 132.355,-129.023 132.355,-128.673 132.355,-128.32 133.008,-127.968 133.334,-127.968    133.988,-127.266 133.988,-126.914 133.988,-126.211 133.659,-125.858 133.008,-125.156 132.683,-124.453 132.355,-124.102    132.683,-123.75 133.008,-123.75 133.659,-124.102 133.988,-123.75 134.313,-123.75 134.638,-123.397 134.963,-123.397    135.29,-123.397 135.942,-123.75 136.269,-123.397 136.594,-123.046 136.594,-122.695 136.269,-122.343 136.269,-121.991    136.594,-121.991 136.269,-121.64 136.269,-120.936 136.269,-120.235 136.594,-119.882 136.594,-120.235 136.919,-120.586    137.245,-120.936 137.573,-120.936 137.573,-120.586 137.898,-120.235 137.898,-119.882 137.898,-119.53 137.573,-119.179    137.573,-118.827 137.898,-118.827 137.898,-118.478 138.223,-118.123 138.223,-117.422 138.223,-117.069 138.549,-116.718    138.549,-116.366 138.223,-116.366 137.573,-116.366 137.245,-116.366 136.919,-116.366 136.594,-116.014 136.594,-115.664    136.594,-115.311 136.919,-115.311 136.919,-114.959 136.594,-114.609 136.269,-114.609 135.942,-114.258 135.616,-114.258    135.29,-113.554 134.963,-113.202 135.29,-113.202 134.963,-112.849 134.638,-112.499 134.313,-112.499 134.313,-112.849    133.988,-113.202 133.988,-113.554 134.313,-113.903 134.638,-114.258 134.638,-114.609 134.638,-114.959 134.638,-115.311    134.638,-115.664 134.313,-115.664 133.988,-116.014 133.659,-116.014 133.334,-115.664 133.334,-114.959 133.334,-114.609    133.334,-114.258 133.008,-114.258 132.683,-113.903 132.355,-113.554 132.355,-113.202 132.031,-113.202 131.704,-113.202    131.379,-113.202 131.052,-113.202 130.727,-113.202 130.401,-113.202 130.073,-113.202 129.748,-113.202 129.422,-113.202    129.097,-112.849 128.77,-112.499 128.77,-112.146 128.447,-112.146 128.119,-112.146 127.793,-112.146 127.793,-112.499    128.119,-112.849 128.119,-113.202 127.793,-113.554 127.466,-113.903 127.141,-113.903 126.816,-113.903 126.816,-113.554    126.816,-113.202 126.816,-112.849 126.162,-112.849 125.837,-113.202 125.837,-113.903 125.837,-114.258 125.512,-114.609    125.186,-114.609 124.859,-114.959 124.533,-114.959 123.882,-114.959 123.557,-114.609 123.23,-114.258 123.23,-113.903    122.904,-113.903 122.904,-113.554 122.578,-113.903 122.253,-113.903 121.928,-113.554 121.6,-113.554 121.275,-113.554    121.275,-113.903 121.275,-114.258 121.6,-114.609 121.928,-114.609 121.928,-114.959 121.6,-115.311 121.6,-114.959    121.275,-115.311 121.275,-115.664 120.949,-115.664 121.275,-116.014 121.6,-116.014 121.928,-116.014 121.6,-116.366    121.6,-116.718 122.253,-116.718 122.578,-116.718 122.253,-116.718 122.253,-117.069 121.6,-117.069 121.928,-117.422    121.6,-117.772 121.275,-118.123 120.949,-118.123 120.949,-118.478 120.622,-118.478 120.622,-117.772 120.622,-117.422    120.622,-117.069 120.296,-117.069 120.296,-116.718 119.971,-116.718 119.646,-116.718 119.646,-117.069 119.319,-117.422    119.319,-117.772 118.993,-117.772 118.667,-117.772 118.667,-118.123 118.342,-118.123 118.342,-117.772 118.342,-117.422    118.667,-117.069 118.342,-116.718   " id="upazila_328" area="upazlia" name="bhurungamari" bengali="ভুরুঙ্গামারী" parent="kurigram"></polygon><polygon points="114.103,-72.416 114.431,-72.768 114.756,-73.12 114.756,-73.471 115.082,-73.821    115.406,-73.821 115.733,-73.821 116.061,-73.821 116.386,-73.471 115.733,-73.471 115.406,-73.12 115.406,-72.768    115.406,-72.416 115.733,-72.064 116.061,-72.416 116.061,-72.768 116.386,-72.768 116.386,-72.416 116.711,-72.416    116.711,-72.768 116.711,-73.12 117.036,-73.12 117.365,-72.768 117.69,-72.768 117.69,-73.12 118.015,-73.12 118.34,-72.768    118.34,-72.064 118.34,-71.712 118.667,-71.712 119.319,-71.361 119.646,-71.361 119.971,-71.361 119.971,-71.01 120.296,-71.01    120.622,-70.658 121.275,-70.658 121.6,-70.658 121.926,-71.01 122.578,-71.361 122.904,-71.361 123.23,-71.712 123.23,-72.064    123.23,-72.416 123.23,-72.768 123.23,-73.12 123.23,-73.471 123.23,-73.821 122.904,-74.175 122.904,-74.525 123.557,-74.877    124.207,-75.23 125.511,-75.23 126.162,-75.581 126.816,-75.933 127.141,-75.933 127.793,-75.933 128.119,-75.933    128.447,-75.581 128.77,-75.23 128.77,-74.877 129.097,-74.877 129.748,-74.525 130.073,-74.877 130.401,-74.877 130.727,-74.877    130.727,-74.525 130.727,-74.175 131.052,-74.175 131.379,-73.821 131.704,-74.175 132.031,-74.175 132.355,-73.821    132.683,-73.821 133.008,-73.471 133.659,-73.471 133.988,-73.471 134.313,-73.471 134.638,-73.471 135.29,-73.471    135.616,-73.471 135.942,-73.471 136.267,-73.471 136.594,-73.821 136.919,-73.821 137.245,-73.821 137.573,-73.821    137.573,-74.175 137.573,-74.877 137.898,-75.581 138.223,-75.581 138.549,-75.933 138.876,-76.282 138.876,-76.988    138.876,-77.338 139.201,-77.69 139.527,-78.043 140.18,-78.393 140.18,-78.745 140.505,-79.097 140.505,-79.448 140.505,-79.8    140.505,-80.15 140.505,-80.502 140.505,-80.855 140.83,-80.855 141.156,-80.502 141.482,-80.15 141.809,-80.15 142.134,-80.15    142.134,-79.8 142.134,-79.448 142.46,-79.097 142.46,-78.745 142.46,-78.393 142.46,-78.043 142.785,-77.69 142.785,-77.338    143.113,-76.988 143.113,-76.282 143.113,-75.933 143.438,-75.581 143.764,-74.877 144.089,-74.175 144.089,-72.768    144.089,-72.416 144.089,-72.064 143.764,-71.361 143.438,-71.01 143.113,-70.306 142.785,-69.956 142.46,-69.251    142.134,-69.251 142.134,-68.9 142.134,-68.548 142.46,-67.844 142.785,-67.143 142.785,-66.438 143.113,-65.734 142.785,-65.383    141.809,-64.328 141.809,-63.977 141.482,-63.273 141.482,-62.923 140.83,-61.868 140.505,-61.166 140.505,-60.814    140.505,-60.461 140.18,-60.111 140.505,-59.759 140.505,-59.406 140.18,-59.056 140.18,-58.704 140.505,-58.704 140.505,-58.35    140.18,-58.35 139.852,-58.35 139.527,-58.35 139.201,-59.056 139.527,-59.759 139.527,-60.111 139.201,-60.111 139.201,-60.461    138.876,-60.461 138.549,-60.461 138.223,-60.461 137.898,-60.461 137.573,-60.461 137.573,-60.814 137.573,-61.166    137.898,-61.166 138.223,-61.516 138.223,-61.868 137.898,-62.22 137.573,-62.571 137.245,-62.22 136.919,-62.22 136.594,-62.22    136.267,-61.868 136.594,-61.868 136.594,-61.516 136.594,-61.166 136.594,-60.814 136.267,-60.814 135.942,-60.814    135.942,-60.461 135.616,-60.461 135.616,-60.111 135.29,-59.759 135.29,-59.406 135.29,-59.056 135.29,-58.704 135.616,-58.35    135.942,-58.001 135.942,-57.649 136.267,-57.296 135.942,-56.593 135.942,-56.242 135.942,-55.89 135.942,-55.539    135.942,-54.837 135.29,-54.837 134.638,-54.837 134.313,-54.837 133.988,-54.484 133.659,-54.484 133.334,-54.132    132.683,-53.781 132.355,-53.431 131.704,-53.431 131.704,-53.078 131.379,-53.078 131.379,-52.726 131.379,-52.374    131.704,-52.024 131.379,-51.669 131.052,-51.669 131.052,-52.024 130.727,-52.374 130.727,-52.726 130.073,-53.078    129.097,-54.132 128.77,-54.132 128.447,-54.484 128.119,-54.837 127.793,-55.188 127.466,-55.89 127.466,-56.242    127.466,-56.593 127.141,-56.946 126.816,-56.946 126.49,-56.946 125.837,-57.296 125.837,-57.649 125.186,-57.649    124.533,-57.649 123.882,-57.649 123.23,-57.649 122.904,-57.296 122.578,-57.296 122.253,-57.296 122.578,-56.946    122.578,-56.593 122.253,-56.242 121.926,-56.242 121.6,-56.242 121.275,-55.89 121.6,-55.539 121.275,-55.188 120.622,-55.188    120.296,-55.188 120.296,-54.837 120.296,-54.484 119.971,-54.484 119.971,-54.837 119.646,-55.188 119.319,-55.188    118.993,-55.539 118.667,-55.188 118.993,-54.837 118.993,-54.132 118.667,-54.132 118.993,-54.132 119.646,-53.781    119.971,-53.781 119.646,-53.431 119.319,-53.078 118.993,-53.078 118.667,-52.726 118.667,-52.374 118.34,-51.669 118.34,-51.32    118.34,-50.968 118.015,-50.968 117.69,-50.617 117.365,-50.617 117.036,-50.266 116.711,-49.912 117.036,-49.209    117.365,-49.209 117.69,-48.858 117.69,-49.209 118.015,-49.563 118.015,-49.912 118.667,-49.912 118.667,-49.563    118.667,-49.209 118.667,-48.858 118.667,-48.155 118.34,-47.802 118.34,-47.452 118.015,-47.101 117.365,-47.101    117.036,-47.101 116.711,-46.75 116.711,-46.397 116.386,-46.397 116.061,-46.045 115.733,-45.694 115.733,-44.991    115.733,-44.639 115.406,-43.584 114.756,-43.936 114.431,-44.288 113.779,-44.639 113.452,-44.639 112.802,-44.639    112.474,-44.639 112.149,-44.288 111.822,-43.936 111.498,-43.584 111.17,-43.234 110.845,-43.234 110.518,-43.234    109.866,-43.234 109.539,-43.584 109.214,-44.288 108.563,-44.991 108.238,-45.342 107.91,-45.694 107.585,-46.397    107.259,-46.75 106.607,-47.101 105.955,-47.101 105.305,-47.452 104.652,-47.452 104.001,-47.802 103.674,-47.802    103.023,-48.155 103.023,-48.506 102.696,-49.209 102.37,-49.563 102.37,-49.912 102.696,-49.912 103.023,-49.563    103.348,-49.563 103.674,-49.912 103.674,-50.617 104.001,-50.617 104.652,-50.617 104.652,-50.968 104.326,-51.32    104.326,-51.669 104.652,-52.374 104.652,-52.726 104.652,-53.078 104.652,-53.431 104.652,-54.132 104.326,-54.837    104.001,-54.837 103.348,-55.188 103.348,-55.539 102.37,-55.539 102.37,-56.242 102.044,-56.242 102.044,-56.593 102.37,-56.946    102.044,-56.946 101.719,-56.946 101.392,-56.946 101.067,-56.593 101.067,-56.242 100.741,-56.242 100.413,-56.242    100.413,-56.593 100.413,-56.946 100.413,-57.649 100.088,-57.649 99.763,-57.649 99.763,-58.001 99.763,-58.35 99.763,-59.056    100.088,-59.759 100.413,-60.461 100.413,-61.166 100.741,-61.516 100.413,-61.868 100.088,-62.22 100.088,-62.571    99.763,-62.923 99.763,-63.626 99.763,-64.328 99.763,-65.033 99.763,-65.383 99.438,-65.734 99.438,-66.087 100.088,-66.438    100.413,-66.79 101.067,-67.143 101.392,-67.495 101.719,-67.495 102.37,-67.495 102.696,-67.143 103.348,-66.79 103.674,-66.79    104.001,-67.143 104.326,-67.143 104.652,-67.143 104.652,-67.495 104.977,-67.495 105.305,-67.495 105.955,-66.79    106.281,-66.438 106.607,-66.087 106.934,-66.087 107.585,-66.087 107.91,-66.438 108.563,-66.79 108.889,-66.79 109.214,-66.79    109.539,-66.79 109.539,-67.143 109.539,-67.495 109.539,-67.844 110.195,-67.844 110.518,-67.844 110.845,-67.495    111.17,-67.844 111.498,-68.195 111.498,-68.548 111.822,-68.9 112.474,-69.251 113.127,-69.251 113.779,-69.251 114.103,-69.602    114.431,-69.602 114.756,-69.956 115.082,-70.306 115.082,-70.658 115.082,-71.01 115.082,-71.361 114.756,-71.712    114.431,-72.064   " id="upazila_336" area="upazlia" name="ulipur" bengali="উলিপুর" parent="kurigram"></polygon></svg>