<svg enable-background="new -106.403 -201.859 629.266 880.536" height="880.536px" id="district_41" viewBox="-106.403 -201.859 629.266 880.536" width="629.266px" x="0px" xml:space="preserve" xmlns="http://www.w3.org/2000/svg" y="0px"><polygon points="32.622,-144.142 32.946,-144.142 33.274,-144.495 33.926,-144.495 34.249,-144.843    34.577,-144.843 34.577,-144.495 34.902,-144.142 34.902,-143.792 35.228,-144.142 35.555,-144.142 35.88,-144.142    35.88,-143.792 36.206,-143.792 36.206,-143.438 36.531,-143.086 36.859,-142.737 37.184,-142.737 37.51,-142.737 37.51,-142.385    37.834,-142.385 38.162,-142.385 38.489,-142.385 38.489,-142.034 38.814,-142.034 39.139,-141.68 39.466,-141.331    39.466,-140.976 39.466,-140.625 39.466,-140.275 39.791,-139.922 40.117,-139.571 40.445,-139.571 40.77,-139.922    40.77,-140.625 40.77,-141.331 41.095,-141.68 41.095,-142.034 41.42,-142.385 41.42,-142.737 41.748,-142.737 41.748,-142.385    42.073,-142.034 42.399,-142.385 42.399,-142.737 42.724,-142.737 43.052,-142.737 43.702,-142.737 44.029,-142.737    44.354,-143.086 44.354,-143.438 44.354,-143.792 44.029,-143.792 43.377,-143.792 43.052,-143.792 43.052,-144.142    43.377,-144.495 43.377,-144.843 43.702,-144.843 44.029,-145.549 44.029,-145.9 44.354,-145.9 45.006,-145.9 45.006,-145.549    45.332,-145.549 45.657,-145.197 45.657,-144.843 45.657,-144.495 45.983,-144.495 46.311,-144.142 46.311,-143.792    46.636,-143.792 46.961,-143.792 46.961,-144.142 47.286,-144.843 47.94,-144.495 47.94,-144.142 47.94,-143.792 48.265,-143.438    48.265,-143.086 48.59,-143.086 48.917,-142.737 49.243,-142.737 49.243,-142.034 49.243,-141.68 49.243,-141.331    49.569,-140.625 49.243,-139.922 49.569,-139.571 49.896,-139.219 50.222,-138.87 50.546,-138.515 50.222,-138.165    49.896,-138.165 49.896,-137.814 49.569,-137.462 49.243,-137.462 49.243,-137.111 49.243,-136.758 48.917,-136.41    48.59,-135.703 48.59,-135.353 48.265,-134.65 48.265,-134.298 48.917,-133.947 49.243,-133.243 49.243,-132.893 49.569,-132.893    49.896,-132.893 50.222,-132.893 50.546,-132.54 50.872,-132.19 51.199,-131.835 51.199,-131.485 50.872,-131.485    50.546,-131.485 50.222,-131.131 50.222,-130.783 50.546,-130.431 50.872,-130.078 50.872,-129.728 51.199,-129.023    51.199,-128.321 51.85,-127.968 52.176,-127.616 52.503,-127.266 52.828,-126.914 53.155,-126.914 53.48,-127.266    53.808,-127.266 54.132,-127.266 54.132,-126.914 54.458,-126.562 54.783,-126.562 55.112,-126.562 55.436,-126.562    55.762,-126.562 56.089,-126.21 56.089,-125.859 56.414,-126.21 56.74,-126.21 57.066,-126.21 57.393,-126.562 57.718,-126.562    58.043,-126.562 58.371,-126.562 58.697,-126.21 59.347,-126.21 59.675,-126.21 60,-126.21 60.325,-126.21 60.651,-126.21    60.977,-125.859 60.977,-125.506 61.304,-125.154 61.629,-124.806 61.955,-124.453 62.281,-124.453 62.606,-124.102    62.933,-123.749 62.933,-123.399 63.584,-123.399 63.909,-123.046 63.909,-122.693 64.237,-121.991 64.237,-121.642    64.563,-121.642 64.888,-121.642 65.213,-121.642 65.866,-121.642 66.192,-121.642 66.192,-121.287 66.192,-120.938    65.54,-120.586 65.213,-119.882 64.888,-119.53 64.888,-119.181 64.888,-118.478 64.888,-117.771 64.888,-117.421    65.213,-117.421 65.866,-117.069 66.192,-117.069 66.844,-117.069 67.495,-117.069 67.821,-117.421 68.148,-117.771    68.148,-117.421 68.148,-117.069 68.473,-116.721 67.821,-115.664 67.821,-115.311 68.148,-115.311 67.821,-114.606    67.821,-114.258 67.821,-113.903 67.821,-113.555 67.821,-113.2 68.148,-112.849 68.473,-112.849 68.473,-112.499    68.148,-112.499 68.148,-112.145 68.148,-111.796 67.821,-111.796 67.495,-111.796 67.495,-112.145 67.169,-112.145    66.844,-112.145 66.517,-111.796 66.192,-111.796 65.866,-111.796 65.866,-112.145 65.54,-112.499 65.54,-112.849    65.213,-112.849 64.888,-112.849 64.563,-112.849 64.563,-112.499 64.237,-112.145 64.563,-111.796 64.563,-111.442    64.563,-111.094 64.563,-110.74 64.237,-110.74 63.909,-110.74 63.909,-111.094 63.584,-111.094 63.259,-111.094 62.933,-111.094    62.606,-111.094 62.606,-111.442 62.606,-111.796 62.606,-112.145 62.606,-112.499 62.281,-112.499 61.955,-113.2    61.955,-113.555 61.629,-113.903 61.304,-114.258 60.977,-114.258 60.325,-114.606 60,-114.606 59.675,-114.606 59.675,-114.961    59.675,-115.311 59.347,-115.311 59.347,-115.664 59.675,-116.015 59.347,-116.366 59.347,-116.721 59.022,-116.721    58.697,-116.721 58.371,-116.721 58.043,-116.366 58.043,-116.015 57.718,-115.664 57.393,-115.664 57.393,-116.015    57.066,-116.015 57.066,-116.366 56.74,-116.366 56.414,-116.366 56.089,-116.721 55.762,-116.721 55.762,-116.366    55.436,-116.366 55.112,-116.366 54.783,-116.366 54.458,-116.366 54.458,-116.015 54.458,-115.664 54.458,-115.311    54.132,-115.311 53.808,-114.961 53.808,-114.606 53.48,-114.606 53.155,-114.606 52.828,-114.606 52.828,-114.258    52.503,-114.258 52.176,-114.258 52.176,-113.903 51.85,-113.903 51.85,-113.555 52.176,-113.2 52.176,-112.849 52.176,-112.499    52.176,-112.145 52.176,-111.796 51.85,-111.796 51.525,-111.442 51.199,-111.442 50.872,-111.442 49.896,-111.442    49.243,-111.796 48.917,-111.796 48.59,-111.796 48.59,-111.442 48.265,-111.094 48.59,-110.74 48.59,-110.389 48.59,-110.039    48.59,-109.684 48.917,-109.334 49.243,-108.981 49.243,-108.632 49.243,-108.278 49.569,-107.927 49.243,-107.927    48.917,-107.927 48.917,-107.576 48.917,-107.225 48.917,-106.874 48.59,-106.874 48.265,-106.874 47.94,-106.521    47.615,-106.521 47.615,-106.17 47.286,-106.17 46.961,-106.17 46.636,-106.521 46.311,-106.17 45.983,-106.521 45.657,-106.874    45.657,-107.225 45.332,-107.576 45.332,-108.278 45.006,-108.632 45.006,-108.981 44.681,-109.684 44.681,-110.039    44.354,-110.389 44.354,-110.74 44.029,-111.094 44.029,-111.442 44.029,-111.796 44.029,-112.145 43.702,-112.145    43.377,-112.499 43.052,-113.2 43.052,-113.555 43.052,-113.903 43.052,-114.258 43.052,-114.961 43.052,-115.311    42.724,-115.664 42.724,-116.366 42.724,-116.721 42.724,-117.069 42.724,-117.771 42.724,-118.123 42.724,-118.478    43.052,-118.826 43.377,-119.181 43.702,-119.53 43.377,-119.53 43.377,-119.882 43.377,-120.233 43.052,-120.938    42.724,-121.287 42.399,-121.642 42.399,-121.991 42.399,-122.693 42.399,-123.046 42.399,-123.399 42.724,-124.102    42.724,-124.453 42.399,-124.453 42.073,-124.806 42.399,-124.806 42.724,-124.806 43.052,-125.154 43.377,-125.154    43.702,-125.506 43.702,-125.859 43.702,-126.21 43.702,-126.914 43.377,-127.266 43.377,-127.968 43.377,-128.321    43.377,-128.671 43.377,-129.375 43.052,-130.078 42.724,-130.431 42.399,-130.783 42.073,-130.783 41.748,-131.131    41.748,-131.485 41.748,-131.835 41.748,-132.19 41.42,-132.54 41.42,-132.893 41.095,-132.893 40.77,-133.243 40.445,-133.243    40.117,-133.243 39.466,-133.243 39.139,-133.243 38.489,-132.893 38.162,-132.893 38.162,-133.243 37.834,-133.592    37.51,-133.947 37.184,-133.947 36.859,-134.298 36.531,-133.947 36.206,-133.947 35.88,-133.947 35.228,-134.298    34.902,-134.298 34.902,-134.65 35.228,-134.65 34.902,-135.001 34.577,-135.001 34.249,-135.353 34.249,-135.703    34.249,-136.056 33.926,-136.41 33.598,-136.758 33.274,-136.758 33.274,-137.111 33.274,-137.462 33.274,-137.814    33.598,-137.814 34.249,-137.814 34.577,-138.165 34.902,-138.515 34.902,-138.87 34.902,-139.219 34.902,-139.571    34.902,-140.275 35.228,-140.625 35.228,-140.976 34.902,-141.331 34.577,-141.68 34.249,-141.68 33.926,-142.034    33.274,-142.034 33.274,-142.385 32.946,-142.737 32.622,-142.737 32.622,-143.086 32.294,-143.438   " id="upazila_338" area="upazlia" name="hatibandha" bengali="হাতীবান্ধা" parent="lalmonirhat"></polygon><path d="M32.622-150.824l-0.328-0.352H31.97v-0.35v-0.353l-0.327-0.351l-0.325-0.352h-0.324h-0.326v0.352v0.351    v0.353l-0.327,0.35h-0.324h-0.325v-0.35v-0.704h-0.324h-0.328l-0.325-0.352h-0.324h-0.325v-0.35v-0.353v-0.701v-0.352v-0.352    v-0.352h0.325l0.324,0.352l0.652,0.352h0.325v-0.352v-0.352l-0.325-0.35v-0.353h0.325l0.325-0.352h0.324v-0.703l-0.649-0.351    h-0.324l-0.328-0.35h-0.325l-0.324,0.35v-0.35l-0.325-0.352v-0.35l-0.328-0.351h0.328h0.325v0.351h0.324v-0.351l-0.324-0.351    v-0.704h-0.325h-0.328l-0.324,0.353l-0.325-0.353l-0.325-0.351h-0.325h-0.327H25.78l-0.325,0.351v-0.351h-0.325l-0.327,0.351    l0.327,0.353v0.352v0.351v0.351l-0.327,0.353v0.351v0.352l-0.324,0.35l-0.33-0.354l-0.324-0.351h-0.325v-0.351v-0.353l0.325-0.351    h0.324l0.326-0.351l-0.326-0.352l-0.324,0.352H23.17l-0.324-0.352l0.324-0.354v-0.351v-0.351l0.653-0.351l0.324-0.353h0.326    v-0.351v-0.351h-0.326l-0.324-0.352h-0.325l-0.328,0.352v0.702l-0.324,0.353l-0.325-0.353h-0.651h-0.653l-0.324-0.351    l-0.325-0.351v-0.352h-0.328l-0.324,0.352l-0.325,0.351h-0.324v-0.351v-0.352h-0.326h-0.327l-0.324-0.352v-0.35l-0.325-0.354    h0.325v-0.352h0.651h0.326l0.324-0.353l-0.324-0.351h-0.653H18.28h-0.324v-0.352l0.324-0.351h0.325l0.327-0.352l0.325-1.056    v-0.702v-0.352l-0.325-0.352h-0.327H18.28l-0.324,0.352v-0.352l-0.326-0.352h-0.324v-0.351h0.324h0.326h0.649h0.327h0.325h0.325    h0.325h0.324l0.328-0.351v-0.352v-0.351v-0.351h-0.328l-0.324-0.352v-0.352v-0.35h0.324h0.653v-0.352v-0.351h-0.653v-0.35h0.328    h0.325h0.324l0.327,0.35l0.325,0.351l0.325,0.353h0.327l0.324-0.353v-0.701v-0.351h0.325l0.328-0.353v-0.351h-0.328l0.328-0.351    v-0.351l-0.328-0.353h-0.325v-0.351h0.325h0.328l0.324-0.352v-0.351h0.325l0.326,0.351H24.8h0.325v-0.351H24.8l-0.326-0.353v-0.35    v-0.351H24.8l0.325,0.351h0.325v0.35l0.325,0.353h0.325l0.327,0.351h0.325l0.325,0.352l0.324-0.352l0.325,0.352l0.328,0.351    l-0.329,0.353l0.328,0.701h-0.653v0.351v0.353h0.325l0.328,0.351v0.35l-0.328,0.351l0.328,0.353l0.324,0.352l0.325,0.351h0.324    v0.353l0.328,0.351l0.649,0.35v-0.35l-0.324-0.351l-0.325-0.704h0.325h0.324h0.325h0.326l0.326,0.351v0.353v0.701h0.325h0.65    h0.325h0.327h0.325h0.327v0.354v0.351h0.322l0.652,0.351l0.327,0.352v0.352l0.323,0.352v0.351v0.351h0.327h0.327v-0.351v-0.351    h0.323h0.326h0.325h0.328h0.322l0.327,0.351h0.324v0.351l0.326-0.351h0.327h0.325h0.325h0.325h0.324l0.328,0.351h0.325v0.353    h0.324v-0.353h0.325l0.327-0.351h0.325h0.325v0.351l-0.325,0.353h-0.325v0.351h0.325h0.325h0.325l0.326-0.351h0.325v0.351v0.351    h-0.325l-0.326,0.351l0.326,0.352v0.351l-0.326,0.352v0.351v0.351l0.326,0.353l-0.326,0.351v0.352h-0.325h-0.325h-0.325h-0.327    v0.352l0.327,0.352h0.325l0.325-0.352l0.325,0.352h0.326l0.325,0.351h0.325v0.353v0.351v0.35v0.352h0.327v0.354v0.351v0.351v0.703    v0.352v0.351l-0.327,0.351h-0.65v0.354v0.349h-0.326l-0.325,0.352h-0.325h-0.325l0.325,0.352h0.325h0.325h0.326h0.325v-0.352    l0.325-0.352v-0.349h0.327v0.349v0.352h0.325h0.326l0.324-0.352h0.326h0.325v0.352v0.352h0.325v0.351v0.352l0.326-0.352h0.326    h0.324v-0.351h0.325h0.326l0.327-0.352v0.352v0.351h0.324h0.324h0.326l0.327-0.351v0.351l-0.327,0.703h-0.326v0.352h0.326v0.351    v0.35h-0.326h-0.324h-0.324v0.353l0.324,0.351h0.324v0.351v0.351h-0.324l-0.324,0.352h-0.327v0.351v0.352l-0.326,0.352h-0.649    v-0.703l-0.326-0.351v-0.352v-0.702l-0.326-0.351H45.32v-0.353l-0.324-0.35v-0.351l-0.327-0.704l-0.324,0.352v0.352v0.351    l-0.326,0.35v0.353h0.326l0.324,0.351h0.327v0.351l-0.327,0.351l-0.324,0.352l0.324,0.351l0.327,0.352l-0.327,0.352h-0.324v0.351    l-0.326,0.352v0.351h0.65v0.353v0.35h0.327v0.353h0.324l0.325,0.352l0.652,0.349l0.325,0.354h0.324l0.326,0.351v0.351H46.96v0.352    v0.703h-0.325v0.351l0.651,0.353l-0.326,0.702v0.351h-0.325H46.31v-0.351l-0.327-0.352h-0.325v-0.351v-0.353l-0.325-0.351h-0.325    v-0.35h-0.651H44.03v0.35l-0.324,0.704h-0.327v0.351l-0.325,0.352v0.351h0.325h0.651h0.326v0.352v0.352l-0.326,0.35h-0.324H43.05    h-0.325h-0.327v0.353l-0.325,0.351l-0.324-0.351v-0.353h-0.325v0.353l-0.327,0.351v0.352l-0.325,0.351v0.704v0.703l-0.325,0.352    h-0.324l-0.328-0.352l-0.325-0.353v-0.351v-0.351v-0.353l-0.324-0.351l-0.326-0.352H38.49v-0.351h-0.33h-0.325H37.51v-0.352    h-0.325H36.86l-0.326-0.35l-0.325-0.352v-0.352h0.325h0.326l0.325-0.351l-0.325-0.702l0.325-0.353v-0.351l0.325-0.35h0.325    l0.327,0.35h0.325h0.325l-0.325-0.35v-0.353v-0.352v-0.701v-0.354v-0.701l-0.325-0.353H37.51l0.325-0.35h0.327h0.325l0.325-0.353    v-0.351h-0.325l-0.325-0.352l0.325-0.351v-0.352v-0.352h-0.325h-0.327H37.51l-0.325-0.351H36.86h-0.326v0.351h-0.325v0.352    l0.325,0.352l-0.325,0.351H35.88h-0.323l-0.328,0.352l-0.326-0.352h-0.323l-0.326,0.352h-0.325l-0.327-0.352v-0.351h-0.324    l-0.325-0.352l0.325-0.352v-0.351v-0.352v-0.351l0.324-0.351l0.327-0.351l-0.327-0.353l-0.649-0.351l-0.325,0.351v0.353v0.351    h-0.328l0.328,0.702v0.352v0.351v0.356h-0.004V-150.824z M23.82-148.715l-0.652-0.704l-0.649-0.702l-0.979-0.702l-0.978-0.702    v-2.461l-1.631-1.406v-0.353l0.651-0.701l-0.325-0.705l0.325-0.35l0.979,0.35l0.649-0.35l0.652,0.35v1.055l-0.326,0.705    l0.326,1.055l0.978-0.704h0.653l0.324,1.056l0.325,0.351l-0.325,0.35h0.652h0.65h0.324v0.704l-0.65,0.352l0.326,0.351h0.324h0.652    h0.652l0.977-0.702l0.328,0.352v0.704v0.702l-0.328,0.702l-0.325-0.35l-0.324,0.35l-0.652,0.702l-1.304,0.353L23.82-148.715z" id="upazila_341" area="upazlia" name="patgram" bengali="পাটগ্রাম" parent="lalmonirhat"></path><polygon points="68.148,-115.311 68.471,-115.311 68.801,-115.311 69.126,-115.311 69.451,-114.961    70.102,-114.606 70.102,-114.961 70.43,-114.961 70.755,-115.311 71.08,-115.311 71.406,-114.961 71.732,-114.606 72.06,-114.258    72.384,-113.903 73.034,-113.555 73.364,-113.555 74.016,-113.555 74.016,-113.2 74.663,-112.849 74.663,-112.499    74.663,-112.145 74.994,-112.145 75.317,-112.145 75.645,-111.442 75.645,-111.094 75.645,-110.74 75.968,-111.094    75.968,-110.74 76.296,-110.389 76.621,-110.389 76.947,-110.389 77.275,-110.389 76.947,-110.039 76.947,-109.684    77.275,-109.684 77.599,-109.684 77.927,-109.684 78.25,-109.684 78.25,-109.334 78.578,-109.334 78.904,-109.334    79.556,-109.334 79.881,-109.334 80.207,-109.334 80.531,-109.334 80.86,-109.684 81.186,-109.334 80.531,-108.981    80.207,-108.632 80.207,-108.278 80.207,-107.576 79.881,-107.225 79.556,-106.874 78.904,-106.874 78.25,-106.521    77.599,-106.521 77.275,-106.17 76.621,-106.17 75.968,-106.17 75.645,-106.17 75.317,-106.17 75.317,-105.816 75.317,-105.465    74.994,-104.764 74.663,-103.71 74.663,-103.355 74.663,-103.004 74.341,-102.302 74.016,-101.95 73.689,-101.598    73.364,-100.894 73.034,-100.544 73.034,-100.19 72.712,-100.19 72.384,-99.84 72.06,-99.84 71.406,-99.84 71.406,-99.49    71.406,-99.137 71.406,-98.787 71.08,-98.787 70.755,-98.434 70.102,-98.434 69.777,-98.787 69.126,-98.787 68.801,-99.137    68.471,-98.787 68.148,-98.787 68.148,-98.434 68.148,-98.082 68.148,-97.379 68.148,-97.029 68.148,-96.677 68.148,-96.325    67.821,-95.622 67.821,-95.268 67.821,-94.917 67.821,-94.214 67.821,-92.457 67.495,-92.107 67.169,-92.107 66.519,-92.107    66.191,-91.753 65.866,-91.753 65.866,-92.107 65.866,-92.457 65.538,-92.81 65.866,-93.162 65.866,-93.511 65.866,-94.214    65.866,-94.569 65.538,-94.917 65.215,-94.917 64.888,-94.917 64.563,-94.917 64.238,-94.569 64.238,-94.214 64.238,-93.865    64.238,-93.511 63.908,-93.162 63.584,-93.162 63.258,-93.511 62.934,-93.865 62.606,-93.865 62.281,-94.214 61.955,-94.569    61.629,-94.917 61.304,-95.268 60.976,-95.622 60.976,-96.325 60.652,-96.325 60.325,-96.325 60,-96.677 59.675,-96.677    59.675,-97.029 59.347,-97.029 59.347,-97.379 59.675,-97.729 59.347,-98.082 59.022,-98.082 59.347,-98.434 59.022,-98.787    58.695,-98.787 58.371,-98.787 57.718,-99.137 57.718,-99.49 57.393,-99.84 56.74,-99.84 56.412,-100.19 56.089,-100.544    55.764,-100.894 55.112,-101.247 54.782,-101.598 54.458,-101.598 54.13,-101.598 53.808,-101.598 53.479,-101.598    53.155,-101.598 52.828,-101.598 52.501,-101.598 51.848,-101.598 51.198,-101.95 50.874,-102.302 50.221,-102.654    49.568,-103.004 49.243,-103.355 48.915,-103.71 48.265,-104.06 47.939,-104.413 47.615,-104.764 47.286,-105.117    46.635,-105.465 46.635,-105.816 46.311,-106.17 46.635,-106.521 46.961,-106.17 47.286,-106.17 47.615,-106.17 47.615,-106.521    47.939,-106.521 48.265,-106.874 48.592,-106.874 48.915,-106.874 48.915,-107.225 48.915,-107.576 48.915,-107.927    49.243,-107.927 49.568,-107.927 49.243,-108.278 49.243,-108.632 49.243,-108.981 48.915,-109.334 48.592,-109.684    48.592,-110.039 48.592,-110.389 48.592,-110.74 48.265,-111.094 48.592,-111.442 48.592,-111.796 48.915,-111.796    49.243,-111.796 49.896,-111.442 50.874,-111.442 51.198,-111.442 51.525,-111.442 51.848,-111.796 52.178,-111.796    52.178,-112.145 52.178,-112.499 52.178,-112.849 52.178,-113.2 51.848,-113.555 51.848,-113.903 52.178,-113.903    52.178,-114.258 52.501,-114.258 52.828,-114.258 52.828,-114.606 53.155,-114.606 53.479,-114.606 53.808,-114.606    53.808,-114.961 54.13,-115.311 54.458,-115.311 54.458,-115.664 54.458,-116.015 54.458,-116.366 54.782,-116.366    55.112,-116.366 55.436,-116.366 55.764,-116.366 55.764,-116.721 56.089,-116.721 56.412,-116.366 56.74,-116.366    57.066,-116.366 57.066,-116.015 57.393,-116.015 57.393,-115.664 57.718,-115.664 58.044,-116.015 58.044,-116.366    58.371,-116.721 58.695,-116.721 59.022,-116.721 59.347,-116.721 59.347,-116.366 59.675,-116.015 59.347,-115.664    59.347,-115.311 59.675,-115.311 59.675,-114.961 59.675,-114.606 60,-114.606 60.325,-114.606 60.976,-114.258 61.304,-114.258    61.629,-113.903 61.955,-113.555 61.955,-113.2 62.281,-112.499 62.606,-112.499 62.606,-112.145 62.606,-111.796    62.606,-111.442 62.606,-111.094 62.934,-111.094 63.258,-111.094 63.584,-111.094 63.908,-111.094 63.908,-110.74    64.238,-110.74 64.563,-110.74 64.563,-111.094 64.563,-111.442 64.563,-111.796 64.238,-112.145 64.563,-112.499    64.563,-112.849 64.888,-112.849 65.215,-112.849 65.538,-112.849 65.538,-112.499 65.866,-112.145 65.866,-111.796    66.191,-111.796 66.519,-111.796 66.844,-112.145 67.169,-112.145 67.495,-112.145 67.495,-111.796 67.821,-111.796    68.148,-111.796 68.148,-112.145 68.148,-112.499 68.471,-112.499 68.471,-112.849 68.148,-112.849 67.821,-113.2    67.821,-113.555 67.821,-113.903 67.821,-114.258 67.821,-114.606   " id="upazila_339" area="upazlia" name="lalmonirhatsadar" bengali="" parent="lalmonirhat"></polygon><polygon points="81.186,-109.334 81.838,-109.334 82.161,-109.686 82.49,-109.686 83.14,-109.334 83.467,-108.984    83.467,-109.334 83.79,-109.686 83.79,-110.389 83.14,-111.094 83.467,-111.094 83.79,-111.445 84.118,-111.796 84.771,-112.146    85.421,-112.5 85.421,-112.851 85.421,-113.555 85.421,-113.905 86.073,-113.905 86.4,-113.905 86.725,-114.258 87.376,-114.258    87.701,-114.609 88.03,-114.609 88.354,-114.258 88.682,-113.905 89.007,-113.202 89.007,-112.851 89.007,-112.146    88.682,-111.445 88.354,-111.094 88.03,-110.389 88.354,-109.686 88.682,-109.686 89.007,-109.334 89.658,-108.984    90.312,-108.984 90.962,-108.984 91.286,-108.631 91.615,-108.279 91.941,-108.279 90.962,-107.927 90.636,-107.927    90.312,-107.927 89.983,-107.577 89.658,-107.577 89.658,-107.225 89.658,-106.874 89.658,-106.521 89.658,-106.169    89.333,-105.819 89.333,-105.465 89.333,-104.764 89.333,-104.413 89.333,-104.06 89.333,-103.357 89.007,-103.357    89.007,-103.006 89.007,-102.654 89.007,-102.302 89.333,-101.95 89.333,-100.896 89.333,-100.192 89.333,-99.49 89.333,-99.138    89.007,-98.787 89.007,-98.435 89.007,-98.083 88.682,-97.732 88.354,-97.38 88.03,-97.029 88.03,-96.678 87.701,-96.325    87.376,-96.325 87.053,-95.975 87.376,-95.975 87.053,-95.622 87.053,-95.27 86.725,-94.919 86.4,-94.919 86.4,-94.569    86.4,-94.214 86.4,-93.865 86.073,-93.513 85.421,-93.513 85.094,-93.16 84.771,-93.16 84.444,-92.81 84.118,-92.81    83.79,-92.457 83.467,-92.457 83.14,-92.457 82.814,-92.457 82.814,-92.105 83.14,-91.753 83.14,-91.403 82.814,-91.052    82.814,-90.701 82.49,-90.701 82.161,-90.701 81.838,-90.701 81.51,-90.701 81.51,-90.347 81.51,-89.996 81.186,-89.996    81.186,-89.645 80.531,-89.645 80.207,-89.645 79.557,-89.645 79.228,-89.645 78.577,-89.645 77.927,-89.645 77.599,-89.996    77.599,-90.347 77.275,-90.701 76.947,-91.052 76.947,-90.701 76.947,-90.347 77.275,-89.996 77.275,-89.645 77.275,-88.942    76.947,-88.237 77.275,-88.237 77.275,-87.887 77.275,-87.533 75.968,-87.533 75.645,-87.184 75.317,-85.425 74.994,-85.776    74.664,-86.128 74.341,-86.48 74.014,-86.48 73.363,-86.48 73.034,-86.832 72.712,-87.533 72.384,-87.533 71.731,-87.533    71.731,-87.887 71.406,-88.237 71.081,-88.59 70.755,-88.942 70.43,-89.645 70.102,-89.996 69.778,-90.347 69.778,-90.701    70.102,-91.052 69.449,-91.753 69.126,-92.105 68.799,-92.105 68.471,-92.457 67.821,-92.457 67.821,-94.214 67.821,-94.919    67.821,-95.27 67.821,-95.622 68.148,-96.325 68.148,-96.678 68.148,-97.029 68.148,-97.38 68.148,-98.083 68.148,-98.435    68.148,-98.787 68.471,-98.787 68.799,-99.138 69.126,-98.787 69.778,-98.787 70.102,-98.435 70.755,-98.435 71.081,-98.787    71.406,-98.787 71.406,-99.138 71.406,-99.49 71.406,-99.841 72.06,-99.841 72.384,-99.841 72.712,-100.192 73.034,-100.192    73.034,-100.544 73.363,-100.896 73.689,-101.598 74.014,-101.95 74.341,-102.302 74.664,-103.006 74.664,-103.357    74.664,-103.708 74.994,-104.764 75.317,-105.465 75.317,-105.819 75.317,-106.169 75.645,-106.169 75.968,-106.169    76.621,-106.169 77.275,-106.169 77.599,-106.521 78.252,-106.521 78.904,-106.874 79.557,-106.874 79.881,-107.225    80.207,-107.577 80.207,-108.279 80.207,-108.631 80.531,-108.984   " id="upazila_337" area="upazlia" name="aditmari" bengali="আদিতমারী" parent="lalmonirhat"></polygon><polygon points="91.941,-108.279 92.265,-107.927 92.916,-107.927 93.246,-107.577 93.569,-107.577    93.897,-107.577 94.22,-107.577 94.875,-107.577 95.527,-107.225 95.851,-107.225 95.527,-106.874 95.2,-106.521 94.547,-106.17    94.875,-105.819 94.875,-105.465 94.875,-105.115 94.547,-105.115 94.875,-104.413 94.875,-104.057 95.2,-103.708 95.2,-103.357    95.2,-103.004 95.527,-102.654 95.851,-102.654 96.179,-102.654 96.504,-102.654 96.829,-102.654 97.156,-103.004    97.481,-103.708 97.809,-103.708 98.133,-103.708 98.458,-103.708 98.458,-103.357 98.133,-103.357 97.809,-103.004    97.809,-102.654 98.133,-102.654 98.458,-102.301 98.133,-102.301 97.809,-101.95 97.809,-101.598 97.156,-101.598    96.829,-101.247 97.156,-101.247 97.481,-100.896 97.809,-100.896 98.458,-100.544 98.784,-100.192 99.438,-99.84 99.438,-99.49    99.438,-99.137 99.438,-98.435 99.763,-98.082 100.09,-97.732 100.09,-97.379 100.09,-96.678 100.09,-96.325 100.09,-95.975    100.413,-95.622 101.067,-95.622 101.392,-95.622 101.719,-95.622 102.042,-95.27 102.042,-94.917 102.042,-94.569    102.042,-93.865 102.372,-93.513 102.696,-93.162 103.021,-93.162 103.674,-92.812 103.674,-92.457 103.674,-91.755    104.001,-91.755 104.653,-91.755 105.303,-91.755 105.955,-91.403 105.63,-91.052 105.63,-90.701 105.63,-90.347 105.63,-89.645    105.63,-89.291 105.303,-88.942 105.303,-88.59 104.977,-87.887 104.653,-87.887 104.324,-87.533 104.001,-87.533    103.348,-87.533 103.021,-87.887 103.021,-88.237 102.696,-88.237 102.372,-88.237 102.042,-87.887 101.719,-87.533    101.719,-87.184 101.719,-86.832 101.719,-86.128 101.719,-85.776 101.719,-85.425 101.719,-85.072 102.042,-84.368    102.042,-83.668 102.042,-83.317 101.719,-82.965 101.719,-82.612 101.392,-82.261 101.067,-82.261 100.413,-82.261    100.09,-82.612 99.763,-82.261 99.763,-81.908 99.763,-81.558 99.438,-81.206 99.438,-80.502 99.112,-80.855 98.784,-80.855    98.458,-80.855 98.133,-80.855 97.809,-80.855 97.156,-80.855 96.829,-80.855 96.504,-81.206 96.179,-81.558 95.527,-81.908    95.2,-82.261 94.875,-82.261 94.547,-81.908 94.22,-81.908 94.22,-81.558 94.22,-81.206 93.897,-81.206 93.569,-81.206    92.916,-81.206 92.916,-81.558 92.594,-81.558 92.265,-81.558 91.941,-81.558 91.615,-81.206 91.941,-80.855 92.265,-80.855    92.265,-80.502 91.941,-80.15 91.615,-80.15 91.615,-79.801 91.615,-79.447 91.941,-79.097 92.265,-78.746 92.265,-78.394    92.265,-77.69 91.615,-77.69 91.615,-77.34 91.287,-77.69 90.961,-77.69 90.636,-77.34 90.312,-77.34 89.983,-77.34    89.658,-77.34 89.332,-77.34 88.68,-77.69 88.03,-77.69 88.03,-78.043 88.03,-78.746 87.703,-78.746 87.376,-78.746    87.051,-78.746 86.725,-78.746 86.398,-78.746 86.073,-78.394 85.749,-78.394 85.094,-78.746 84.769,-78.746 84.444,-79.097    83.79,-79.097 82.814,-79.097 82.161,-79.447 81.51,-79.801 80.858,-80.15 80.532,-80.502 80.206,-81.908 79.881,-82.261    79.556,-82.261 79.228,-82.261 78.904,-82.261 78.252,-82.612 77.599,-82.965 77.275,-83.317 76.948,-83.668 76.948,-84.019    76.948,-84.368 76.295,-84.368 75.968,-84.724 75.317,-85.425 75.643,-87.184 75.968,-87.533 77.275,-87.533 77.275,-87.887    77.275,-88.237 76.948,-88.237 77.275,-88.942 77.275,-89.645 77.275,-89.995 76.948,-90.347 76.948,-90.701 76.948,-91.052    77.275,-90.701 77.599,-90.347 77.599,-89.995 77.925,-89.645 78.577,-89.645 79.228,-89.645 79.556,-89.645 80.206,-89.645    80.532,-89.645 81.186,-89.645 81.186,-89.995 81.51,-89.995 81.51,-90.347 81.51,-90.701 81.838,-90.701 82.161,-90.701    82.489,-90.701 82.814,-90.701 82.814,-91.052 83.14,-91.403 83.14,-91.755 82.814,-92.107 82.814,-92.457 83.14,-92.457    83.467,-92.457 83.79,-92.457 84.118,-92.812 84.444,-92.812 84.769,-93.162 85.094,-93.162 85.421,-93.513 86.073,-93.513    86.398,-93.865 86.398,-94.214 86.398,-94.569 86.398,-94.917 86.725,-94.917 87.051,-95.27 87.051,-95.622 87.376,-95.975    87.051,-95.975 87.376,-96.325 87.703,-96.325 88.03,-96.678 88.03,-97.029 88.354,-97.379 88.68,-97.732 89.008,-98.082    89.008,-98.435 89.008,-98.787 89.332,-99.137 89.332,-99.49 89.332,-100.192 89.332,-100.896 89.332,-101.95 89.008,-102.301    89.008,-102.654 89.008,-103.004 89.008,-103.357 89.332,-103.357 89.332,-104.057 89.332,-104.413 89.332,-104.762    89.332,-105.465 89.332,-105.819 89.658,-106.17 89.658,-106.521 89.658,-106.874 89.658,-107.225 89.658,-107.577    89.983,-107.577 90.312,-107.927 90.636,-107.927 90.961,-107.927   " id="upazila_340" area="upazlia" name="kaliganj" bengali="কালীগঞ্জ" parent="lalmonirhat"></polygon></svg>