<svg enable-background="new -106.403 -201.859 629.266 880.536" height="880.536px" id="district_41" viewBox="-106.403 -201.859 629.266 880.536" width="629.266px" x="0px" xml:space="preserve" xmlns="http://www.w3.org/2000/svg" y="0px"><path d="M188.09,367.085v-0.351v-0.354v-0.354l0.328-1.053h0.651l0.651-0.351l0.324,0.351l0.327-0.351h0.65    l0.325-0.35v-0.351v-0.354h0.326l0.65,0.354v0.701l0.65,0.351l0.652,0.357h0.649l-0.324,0.347v0.351l-0.325,0.354l0.325,0.705    h0.324v0.351h0.653h0.324h0.327l-0.327,0.35l0.327,0.354l0.324,0.354l0.326-0.354l0.979,0.354l0.325-0.354v-0.354h0.652    l0.978,0.354l1.305,0.354v0.347l0.326,0.705l0.649,0.35l0.651,0.354l0.652,0.701l0.324,0.354l-0.65,0.354v0.347v0.705v0.354    l0.65,0.701h-0.324v0.354v0.354v0.351l-0.326,0.347l-0.979,0.354h-0.324l-0.325,0.351h-0.652h-0.325h-0.651h-0.326l-0.324,0.354    h-0.325l-0.327,0.351l-0.325,0.354l-0.325,0.701v0.354l-0.324,0.351l0.324,0.701h0.325v0.354l0.325,0.354v0.35l-0.325,0.351    l-0.325,0.354v0.351v0.351l-0.651,0.354l-0.325,0.701v0.354l-0.65,1.76l-0.651-0.354l-0.653,0.354h-0.649l-0.652,0.347    l-0.65,0.351h-0.649h-0.327H190.7l-0.652-0.698v0.347l-0.324,0.351l-0.328,0.708l0.328,0.701l0.324,1.056v1.407v1.056h-0.652    h-0.322h-0.327v0.351l-0.325,0.351l-0.328-0.351v-0.351v-1.056v-0.354l-0.322-0.351h-0.327h-0.652h-0.325h-0.324h-0.326h-0.327    h-0.324h-0.325h-0.325v-0.351v-0.354v-0.348l-0.325-0.354l0.325-0.353l-0.325-0.351l-0.327-0.351h-0.324l-0.326,0.351v0.351    l0.326,0.353l-0.326,0.354v0.348v0.354l-0.325,0.351h-0.324h-0.328v-0.351h-0.649v0.351l-0.325,0.351v0.704h-0.327l-0.325,0.354    l-0.324-0.354v-0.704v-0.351l-0.327-0.705l-0.325-0.348h-0.326v-0.707v-0.351v-0.351v-0.708h-0.324h-0.327v-0.351v-0.347    l0.327-0.708v-0.35l0.324-0.705l0.651-0.354h0.327l-0.327-0.702l0.651-0.35l0.325-0.351h0.652h0.325h0.652l0.324-0.354    l0.325-0.351h0.326h0.324l0.327-0.351l0.325-0.704l0.325-0.705v-0.35l0.325-0.354l0.324-0.351v-0.701l0.327-0.708v-0.351    l0.326-0.351l0.649-0.354v-0.351v-0.351v-0.354v-0.705l0.328-0.35h0.324l0.327-0.354v-0.351h0.65l0.651-0.351l0.323-0.351    l0.328-0.351l0.324-0.353l0.327-0.351l0.65-0.351l-0.325-0.354l-0.325-0.354h-0.327l-0.324-0.701l-0.328-0.351l-0.323,0.351v0.351    l-0.326,0.351h-0.325h-0.328v-0.701l-0.322-0.351L188.09,367.085z M194.937,385.019l0.325,1.056v0.701v0.354l-0.651,0.701v0.354    l0.326,0.351v0.351v0.354v0.35l0.325,0.354l-0.325,0.351v0.351L194.611,391v0.701v0.351v0.354l-0.326,0.35v0.354h-0.325h-0.649    v0.352l-0.652-0.706l-0.65-0.35l-0.979-0.354l-0.325-1.403l-0.325-1.055v-2.109l-0.327-1.055v-0.351v-0.354l0.652,0.354h0.65    h0.979l0.65-0.354l0.979-0.704h0.979l0,0h-0.003V385.019z" id="upazila_22" area="upazlia" name="jhalakathisadar" bengali="ঝালকাঠি-সদর" parent="jhalakathi"></path><path d="M202.433,375.171v1.406l0.65,0.357v0.351l0.325,0.35l0.651,0.351l-0.325,0.354l0.325,0.351l0.65,0.35    h0.325l0.327-0.701v-0.354h0.652h0.65v0.705l0.324,0.35l0.65,0.351l0.654-0.351l0.323,0.351h0.326l0.325,0.354l-0.325,0.354v0.351    l-0.326,0.351v0.353h-0.323l-0.327-0.353l-0.65-0.351l-0.327-0.351h-0.652l-0.649,0.351l-0.325,0.704l-0.652,0.701l-0.324,0.702    v1.058l-0.326,0.351l-0.325,0.705l-0.651-0.351h-0.65h-0.979l-0.649,0.351l-0.979,0.35l-0.652,0.702h-0.325l-0.652-0.351    l-0.65-0.351l-1.629-0.35h-0.327l0.653-1.757v-0.357l0.324-0.702l0.651-0.35v-0.351v-0.354l0.325-0.35l0.326-0.351v-0.354    l-0.326-0.354v-0.351h-0.325l-0.326-0.701l0.326-0.354v-0.351l0.325-0.701l0.326-0.353l0.324-0.354h0.327l0.325-0.351h0.324h0.653    h0.324h0.652l0.325-0.35h0.325L202.433,375.171z M213.19,382.552l0.322,0.354l0.652,0.354l0.652-0.354l0.325,0.704h0.324    l0.325,0.351l0.328,0.704l0.324,0.351h0.325l-0.979,1.056h-0.325l-0.324-0.354l-0.649-0.351h-0.328l-0.325,0.351v0.354    l-0.649,0.354v0.35h-0.325h-0.652h-0.324h-0.325v0.704h0.325h0.324h0.652h0.325l0.322,0.348h0.652l0.652-0.348l0.649,0.348    l0.653,0.354l-0.328,0.704l-0.325,0.352l0.653,0.354l0.649,0.35h0.325l0.327-0.35h0.652l0.325,0.35v0.354v0.351h-0.649v0.351    l-0.328,0.35h-0.327h-0.325h-0.325h-0.324h-0.325l-0.328-0.701h-0.324l-0.325-0.351v-0.354v-0.357h-0.324l-0.328-0.351    l-0.652-0.704v0.35h-0.322l-0.325,0.354v0.351h-0.327l-0.325,0.354v0.351l0.325,0.351h0.327l0.325,0.353l0.322,0.348l0.327,0.354    l0.325,0.351l0.328,0.705v0.354l0.324,0.35v0.354v0.351l-0.324,0.701v0.354l-0.653,0.352h-0.327l-0.322-0.352v-0.354l-0.325-0.35    h-0.327h-0.325h-0.324l-0.325-0.351l-0.652-0.351h-0.979h-0.325l-0.326,0.351l-0.651,0.351h-0.65h-0.327l-0.322,0.35v0.354v0.352    v0.35v0.354l-0.65,0.705h-0.329l-0.649-0.705h-0.653h-0.324l-0.651,0.354l-0.324,0.351l0.324,0.351l0.326,0.35v0.354l-0.326,0.702    v0.354l-0.651,0.354l-0.65,0.35h-0.325l-0.324,0.351l-0.327,0.354l-0.326,0.701l-0.649,0.705h-0.652l-0.325,0.351H199.5    l-0.652,0.351l-0.325,0.354l-0.651,0.351l-0.65,0.354l-0.327,0.35l-0.649,0.351l-0.653,0.351l-0.976,0.354l-1.306,0.705    l0.326-1.057v-0.705l0.649-0.7v-0.351l-0.325-0.354l-0.978-0.354h-0.652l-0.325-0.351h-0.324v-0.35v-0.354v-0.702l-0.327-0.704    v-0.702v-0.354v-0.354l0.327-0.702l0.324-0.354v-0.7l0.325-0.351v-0.354v-0.354l0.652-0.701v-0.7l0.325-0.706v-0.35h0.65h0.325    v-0.354l0.327-0.354v-0.351v-0.351v-0.704l0.325-0.351v-0.351l0.325-0.354l-0.325-0.35v-0.354v-0.352v-0.353l-0.325-0.351v-0.351    l0.65-0.701v-0.351v-0.705l-0.325-1.056l0.325,0.35h1.304h0.651l0.651,0.354l0.324,0.354h0.327h0.325l0.652-0.354l1.305-0.704    l0.649-0.351h0.652h0.978l0.651,0.351l0.65-0.701l0.325-1.056l0.325-0.705l0.327-1.056l0.325-0.701l0.649-0.351l0.652,0.705    l0.65,1.053h0.654h0.322l0.652-0.354l1.956,1.056l0.652,0.704l0.979,0.351l0.646-0.351l0.328-0.35h-0.328l-0.321-0.354v-0.353    h0.012V382.552z" id="upazila_24" area="upazlia" name="nalchity" bengali="নলছিটি" parent="jhalakathi"></path><path d="M190.698,401.543v-1.052l0.327-1.41l0.325-0.352v0.352v0.707l0.325,0.701v0.706v0.35v0.351H192    l-0.978,0.351L190.698,401.543z M180.593,389.942l0.325-0.354h0.328v-0.704l0.324-0.352v-0.35h0.65v0.35h0.327h0.325l0.324-0.35    v-0.357v-0.348l0.325-0.351l-0.325-0.351v-0.354l0.325-0.354h0.327l0.325,0.354l0.325,0.354l-0.325,0.351l0.325,0.351v0.348v0.357    v0.35h0.327h0.324h0.325h0.326h0.326h0.325h0.324h0.653h0.325l0.324,0.352v0.35v1.059v0.351l0.325,0.35l0.327-0.35v-0.351h0.326    h0.324h0.652l0.65,1.757l0.651,0.701h0.978l0.652,1.057l-0.652,0.701l-0.325,1.407l-0.324,1.056l-0.325,0.701l-0.325,1.056    l-0.652,1.411l0.325,1.403v1.057h0.652l1.304,0.353h0.979v0.351v0.354v0.348H193.3l-0.653,0.351l-0.327,0.707l-0.324,0.702v0.354    v0.705l-0.65,0.697h-0.325v-0.351l-0.327-0.347l-0.324-0.351l-0.65-0.354l-0.328,0.354h-0.324v-0.354l-0.326-0.705l-0.326-0.351    h-0.326l-0.323,0.351h-0.326l-0.652-0.704v-0.354l-0.325-0.351l-1.305,0.705l-0.324,0.353l-0.327,0.351l-0.324,0.351l-0.326,0.354    v0.354l-0.327,0.351H183.2l-0.979,0.347l0.327-0.697v-0.354l-0.327-0.354l-0.325-0.351h-0.325l-0.324,0.351l-0.328,0.354    l0.328,0.354h-0.328h-0.325l-0.324-0.354h-0.326h-0.324v-0.354l-0.327,0.354h-0.325h-0.325h-0.325l-0.652,0.354v0.351h-0.325    l-0.324,0.347h-0.325h-0.328v-0.347l0.328-0.351h-0.328l-0.649-0.354h-0.325v-0.354v-0.702v-0.353l0.325-0.354v-0.351h-0.325    l-0.326,0.351h-0.326l-0.324,0.354v0.353l-0.327-0.353l0.327-0.705l0.324-0.702v-1.056l-0.324-0.705v-1.403v-1.411v-0.7v-0.354    l-0.327-0.701l-0.325-0.352v-0.707v-0.351v-0.351v-0.351v-0.354h-0.324l-0.326-0.35l0.65-0.702v-0.708l0.325-0.35v-0.351    l0.327-0.354h0.324l0.326,0.354l0.651,0.351l0.325,0.35h0.324h0.653h0.324l0.325-0.35h0.328l0.324-0.705h0.325l0.325-0.354    l0.325-0.347h0.327l0.324-0.354L180.593,389.942z" id="upazila_25" area="upazlia" name="rajapur" bengali="রাজাপুর" parent="jhalakathi"></path><path d="M191.351,408.222l0.327,0.703l-0.979,0.352v0.704l-0.325,1.406v0.352v0.704v1.053v0.354v0.352    l-0.652,0.354l0.324-0.354v-0.705l-0.651-1.053v-0.704l0.327-1.053l0.652-1.054l0.325-0.708L191.351,408.222z M182.224,407.166    l0.979-0.347h0.324l0.325-0.354v-0.351l0.328-0.354l0.324-0.351l0.325-0.354l0.324-0.351L186.46,404l0.325,0.351v0.353    l0.651,0.705h0.328l0.322-0.354h0.327l0.324,0.354l0.328,0.705v0.351h0.323l0.326-0.351l0.653,0.351l0.324,0.354l0.325,0.347    v0.351v0.354l-0.325,0.354l-0.324,0.7l-0.653,0.708l-0.326,1.054v0.7v1.057v1.053l0.326,0.705l-0.649,0.704l-0.328,0.354h-0.324    l-0.327,0.351l-0.65,0.354l-1.305,1.403l-0.979,0.705l-0.649,1.056l-0.324,0.704l-0.979,0.348l-0.325,0.705l-0.327,1.41    l-0.65,1.049l-0.651,1.058l-0.65,0.703l-0.652,0.354l-0.979,0.701l-0.649,0.705v0.704v0.351v0.352h-0.328l-0.649-0.352    l-0.65-0.705h-0.327l-0.324,0.354v0.351l-0.326,0.352l-0.325-0.352l-0.324-0.351l-0.327-0.354l-0.325-0.35h-0.325l-0.979-0.354    l-0.649-0.352h-0.655v-0.701h-0.322l-0.327-0.354l-0.324-0.351V424.4v-0.352l-0.326-0.354l-0.325,0.354v0.704v0.351h-0.327    l-0.649-0.351h-0.324l-0.328-0.354h-0.326v-0.352v-0.354l0.326-0.7v-0.352l0.328-1.057l0.324-0.352l0.325-0.353h0.651l0.325-0.354    l0.326-0.352v-0.701h-0.326v-0.351v-0.354l-0.325-0.351v-0.354l0.325-0.351l-0.325-0.354h-0.327l-0.324-0.351v-0.354v-0.347    v-0.351l0.324-0.354v-0.705v-0.35v-0.354v-0.704h0.652v-0.351h0.65v0.351h0.327l0.65,0.354h0.327l0.324,0.351h0.325l0.328-0.351    h0.649v-0.704l0.325-0.352l-0.325-0.35h-0.325l-0.324-0.708l0.324-0.701h0.325l0.325-0.351h0.325v0.351v0.701l0.327,0.354    l0.324,0.354h0.325h0.326v0.35v0.352v0.351h0.324v0.354v0.351h0.652v-0.351h0.325h0.649l0.653-0.354h0.324h0.653v-0.351    l0.324-0.352l0.325-0.703v-0.354v-0.351v-0.351l0.326,0.351h0.651v-0.351l0.324-0.351h0.327l0.325-0.354l0.324-0.351l0.328-0.705    v-0.351l-0.652-0.705v-0.353v-0.699h0.004V407.166z" id="upazila_23" area="upazlia" name="kathalia" bengali="কাঠালিয়া" parent="jhalakathi"></path></svg>