<svg enable-background="new -106.403 -201.859 629.266 880.536" height="880.536px" id="district_41" viewBox="-106.403 -201.859 629.266 880.536" width="629.266px" x="0px" xml:space="preserve" xmlns="http://www.w3.org/2000/svg" y="0px"><polygon points="385.608,342.477 386.259,342.123 386.259,341.418 386.259,341.066 386.582,340.716    386.907,340.362 386.582,340.362 386.582,340.008 386.582,339.661 387.234,339.661 387.562,339.661 387.562,339.312    387.562,338.959 387.562,338.605 387.89,338.605 387.89,338.254 388.216,338.254 388.216,337.904 388.539,337.904    388.863,337.553 389.191,337.198 389.191,336.844 389.516,336.844 389.844,336.497 390.17,336.146 389.844,335.796    389.844,335.442 389.844,335.087 389.844,334.737 390.17,335.087 390.493,335.442 390.493,335.796 391.151,335.796    391.473,335.796 391.151,335.442 391.473,335.442 391.799,335.442 391.799,336.146 392.45,336.146 393.102,336.146    393.427,335.796 393.759,335.796 393.759,335.442 393.759,335.087 394.082,335.087 394.082,335.442 394.082,336.146    394.406,336.497 394.734,336.497 395.385,335.796 395.056,335.796 395.056,335.442 395.385,335.442 395.385,335.087    395.713,334.737 396.033,334.389 396.36,334.737 397.016,334.737 397.662,335.087 398.32,335.442 398.645,335.796    398.645,336.146 398.97,336.497 398.97,337.553 399.296,337.904 399.622,338.605 399.948,339.312 399.948,340.008    400.274,340.716 400.274,341.066 400.274,341.769 400.274,342.477 400.602,342.824 400.925,342.824 400.925,343.174    400.925,343.526 400.925,343.879 400.925,344.23 400.602,344.581 400.602,344.935 400.602,345.641 400.602,346.338    400.274,346.689 399.948,347.042 399.948,347.397 399.948,347.749 400.274,348.099 400.925,348.449 400.602,348.803    400.602,349.154 400.274,349.505 400.274,349.856 400.274,350.207 400.274,350.561 400.274,351.263 400.602,351.263    401.576,351.613 402.228,351.967 402.228,352.321 402.553,352.321 402.885,351.967 403.21,351.967 403.21,352.321 403.21,352.672    403.533,352.672 403.857,353.019 404.182,353.728 404.51,353.728 404.51,354.078 404.51,354.426 404.51,354.78 404.182,355.133    404.51,355.485 404.51,356.183 404.839,356.537 404.839,356.887 405.159,356.887 405.159,357.241 405.489,357.241    405.489,357.593 405.489,357.943 405.159,358.648 405.489,358.998 405.489,359.35 405.817,359.7 405.817,360.405 406.142,360.755    406.468,361.106 406.468,361.461 406.468,362.166 406.788,362.513 406.788,362.863 407.115,363.215 407.446,363.215    407.771,363.569 408.096,363.923 408.422,364.624 408.422,364.975 408.748,365.677 408.748,366.027 409.076,366.027    409.4,366.027 409.4,365.332 409.4,364.975 409.722,364.624 410.051,364.273 410.379,363.923 410.379,363.569 410.702,363.215    411.029,362.863 411.354,362.863 411.682,362.863 412.01,362.863 412.331,362.863 412.983,363.215 413.311,363.215    413.965,363.215 413.965,363.569 413.639,363.923 413.639,364.624 413.639,364.975 413.965,365.332 413.965,364.975    414.288,364.975 414.615,364.624 414.943,364.273 414.943,364.624 415.265,364.624 415.594,364.975 415.594,365.332    415.914,365.332 415.914,365.677 416.242,365.677 416.572,365.677 416.897,365.332 417.222,364.975 417.548,364.975    417.548,365.332 417.222,366.027 417.222,366.381 417.222,366.735 416.897,367.085 416.572,367.438 416.572,367.788    416.897,367.788 417.222,367.788 417.548,367.788 417.876,367.438 418.199,367.438 418.526,367.085 418.526,366.735    418.851,366.735 419.177,366.381 419.505,366.381 419.831,366.381 420.156,366.735 420.48,366.735 420.805,366.735    420.805,367.085 421.134,367.438 421.134,367.788 421.457,368.142 421.134,368.142 420.805,368.142 420.48,368.142    420.156,368.496 420.48,368.843 420.805,369.195 421.457,369.195 421.782,369.195 421.457,369.545 421.134,369.899 420.805,370.6    420.48,371.306 420.48,371.66 420.156,372.007 420.156,372.708 420.156,373.062 420.156,373.417 420.156,374.118 420.48,374.469    420.48,375.171 420.805,375.875 421.134,376.226 421.457,376.576 422.109,376.576 422.765,376.933 423.414,376.933    423.74,376.576 423.74,376.226 424.066,376.226 424.394,376.226 424.719,376.576 425.045,376.576 425.368,376.226    425.698,375.875 426.348,376.576 426.674,376.576 426.674,377.282 426.348,377.632 426.674,377.986 426.674,378.337    426.348,378.337 426.348,378.688 426.997,379.039 427.652,379.39 427.977,379.39 428.302,380.097 428.631,380.445 428.302,381.15    427.325,381.15 426.348,381.15 426.023,381.15 426.023,380.798 426.023,380.445 426.023,380.097 425.698,380.097 425.698,379.743    425.368,380.097 425.045,380.097 425.045,380.445 424.394,380.798 424.066,381.15 423.74,381.5 423.414,381.854 424.066,382.202    424.394,382.552 424.719,382.552 424.394,383.261 424.066,383.962 423.74,384.313 423.74,384.667 424.066,385.019    424.394,385.366 424.066,386.07 423.414,386.07 422.765,386.424 422.437,386.774 422.437,387.126 422.765,387.828    422.765,388.182 422.437,388.182 421.782,387.828 421.457,387.828 421.457,388.182 421.134,388.532 421.134,388.884    421.134,389.588 420.805,390.292 419.831,390.998 419.505,391.699 419.505,392.4 419.177,393.106 419.177,393.807    419.177,394.158 418.851,394.861 418.526,395.213 418.199,395.213 417.876,395.213 417.548,394.861 417.548,393.807    417.876,393.456 417.876,393.106 417.876,392.75 417.222,393.106 417.222,393.456 416.897,393.807 416.572,394.158    416.242,394.508 415.594,394.861 415.265,394.861 414.943,394.861 414.943,394.508 414.943,394.158 414.615,394.158    414.288,393.807 413.965,393.807 413.965,393.456 413.639,393.456 413.639,393.106 413.311,393.106 412.983,393.106    412.983,392.75 412.983,392.4 412.656,392.047 412.331,391.699 412.01,391.345 411.682,391.345 411.354,391.345 411.354,390.998    411.354,390.644 411.682,390.292 411.682,389.942 411.682,389.588 411.682,389.234 411.682,388.884 411.354,388.532    411.029,388.182 411.029,387.828 410.702,387.828 410.702,387.481 410.379,387.126 410.051,386.774 409.722,386.774    409.722,386.424 409.722,386.07 409.4,386.07 409.4,385.72 409.076,385.72 409.076,385.366 408.748,385.366 408.422,385.019    408.422,384.667 408.096,384.667 408.096,384.313 407.771,384.313 407.446,384.313 407.115,384.313 406.788,384.667    406.788,385.019 406.468,385.366 406.468,385.72 406.142,386.07 405.817,386.424 405.489,386.774 405.159,386.774    405.159,387.481 405.159,387.828 404.839,388.182 404.51,388.182 404.182,388.884 403.857,388.884 403.533,389.234    403.21,389.234 402.885,389.588 402.553,389.234 402.228,388.532 401.576,388.532 401.248,388.532 400.925,388.182    400.602,387.828 400.274,387.828 400.274,388.182 399.622,388.182 399.296,388.182 398.97,388.182 398.645,387.828    398.32,387.126 397.99,386.774 397.662,386.424 397.342,386.07 396.033,385.366 395.713,385.366 395.385,385.366 395.056,385.366    394.082,385.366 393.759,385.019 393.427,383.962 393.427,383.261 393.102,382.202 392.777,381.5 392.45,381.15 391.799,380.798    391.473,380.097 391.473,379.743 391.151,378.688 391.151,377.986 390.493,377.282 389.844,376.226 389.516,374.469    389.191,373.417 388.216,371.306 387.562,369.899 386.907,369.195 386.259,367.788 385.933,366.735 385.933,365.677    385.933,364.975 385.608,363.923 385.933,363.569 386.259,363.215 386.582,362.863 387.234,362.513 386.907,362.166    386.582,361.106 385.933,360.405 385.933,358.998 385.608,357.943 385.608,357.593 385.281,356.887 385.608,356.537    385.608,355.835 385.281,355.485 385.608,354.78 385.608,354.426 385.933,353.728 386.259,353.371 386.259,353.019    386.582,352.672 386.907,352.321 386.907,351.613 386.907,351.263 386.907,350.561 387.234,349.856 386.907,349.505    386.907,349.154 386.907,348.449 387.234,347.749 387.234,347.397 387.562,347.042 387.234,346.689 386.907,346.338    386.582,345.991 386.582,345.641 386.582,345.285 386.259,344.581 386.259,344.23 386.259,343.879 386.259,343.526    386.259,343.174 385.933,343.174   " id="upazila_60" area="upazlia" name="fatikchhari" bengali="ফটিকছড়ি" parent="chittagong"></polygon><path d="M361.161,359.35v-0.351v-0.35v-0.354l0.325-0.351h0.328v0.351v0.354l-0.328,0.35L361.161,359.35z     M365.724,352.321v-0.354l-0.325-0.354l-0.328-0.351l-0.325-0.701l-0.323-0.357l-0.325-0.351l0.325-0.698l0.323-0.708l0.325-0.701    l1.304-0.708h0.653v0.354v0.354v0.351l-0.325,0.351v0.708v0.348v0.35v0.351v0.708v0.351l-0.328,0.351l-0.326,0.708h-0.324V352.321    z M380.39,337.553h0.653l0.323-0.708h0.328v-0.347l0.328-0.351h0.325v0.698l0.325,0.351l0.651-0.351l0.325-0.347v0.347h0.653    v0.351h-0.331l-0.328,0.357l0.328,0.351l0.328,0.35h-0.328l-0.328,0.351v0.354v0.354v0.351l0.328,0.347l0.328,0.354l0.648-0.701    h0.328h0.328v0.347h-0.328l-0.328,0.354l0.328,0.354l0.328,0.701l-0.328,0.708l0.328,0.351l0.325,0.701h0.322v0.351v0.354v0.354    v0.351l0.328,0.701v0.357v0.351l0.326,0.347l0.325,0.354l0.325,0.351l-0.325,0.354v0.351l-0.325,0.705v0.705v0.35l0.325,0.351    l-0.325,0.704v0.705v0.351v0.708l-0.326,0.35l-0.328,0.348v0.354l-0.322,0.354l-0.325,0.701v0.351l-0.328,0.708l0.328,0.35v0.702    l-0.328,0.35l0.328,0.705v0.353l0.325,1.056v1.404l0.65,0.704l0.326,1.056l0.325,0.351l-0.651,0.35l-0.328,0.351l-0.322,0.354    l-0.325,0.354l0.325,1.053v0.702v1.056l0.322,1.056l0.654,1.403l0.65,0.704l0.653,1.41l0.976,2.108l0.325,1.056l0.328,1.757    h-0.979l-0.32,0.351v0.354l-0.328,0.351h-0.325h-0.328v0.354h-0.325V378v0.35l-0.325-0.35l-0.326,0.35h-0.328h-0.647h-0.328    l-0.328-0.35h-0.323h-0.325h-0.328h-0.328l-0.325,0.35l0.653,0.705v0.351l0.328,0.351l0.325-0.351l0.323-0.351l0.328,0.351    l0.328,0.351l-0.656,0.354h-0.648l-0.328,0.354h-0.653l-0.324,0.351h-0.649v-0.351l-0.328-0.708v-0.351v-0.351h-0.325    l-0.328-0.354h-0.323l-0.325-0.351l-0.328-0.701L379.41,378l-0.979,0.35l-0.328,0.351l-1.301,0.354h-0.325l-0.325-0.705    l-0.328-0.35l-0.328-0.351l-0.323-0.354l-0.325-0.35v-0.705l-0.328-0.354l-0.325-0.35l-0.653-0.351l-0.323-0.35l-0.328-0.351    l-0.325-0.354l-0.328-0.354l-0.65-0.351l-0.323-0.351h-0.328v-0.354h-0.325l-0.325-0.354l-0.328-0.351l-0.324-0.347l-0.327-0.354    l-0.325-0.354L368,369.909v-0.353h-0.328l-0.649-0.702l-0.328-0.351h-0.328l-0.325-0.351v-0.354v-0.35h-0.324l-0.324-0.354h-0.328    v-0.351l-0.325-0.704v-0.354v-0.347l-0.325-0.354v-0.354l-0.324-0.35l-0.655-0.351l-0.325-0.708l-0.325-0.351v-0.351l-0.325-0.701    v-0.354v-0.357l0.325-0.354v-0.705l0.325-0.351l0.325-0.354l0.328-0.698l0.327-0.357h0.324l0.325-0.351h0.325h0.328l0.324-0.35    l0.324-0.351l0.325-0.357l0.328-0.35v-0.351v-0.347v-0.354v-0.354v-0.351v-0.35l0.328-0.354v-0.351v-0.354l0.325-0.351    l0.325-0.701l0.327-0.708l0.324-0.701v-0.354l0.325-0.704l0.325-0.698v-0.354v-0.354v-0.351v-0.351v-0.707l-0.325-0.351    l0.325-0.35l0.328-0.351h0.324l0.328,0.351l0.652,0.35h0.325v-0.35l0.328,0.35v-0.35h0.321l0.327-0.351l0.325-0.351h0.653    l0.325-0.354h0.328l0.323-0.35l0.328-0.354l0.322-0.351v-0.354h-0.322v-0.351v-0.351l0.322-0.351l0.328-0.354h0.325v-0.701    l-0.325-0.354h-0.328l-0.322-0.354v-0.35h-0.328h-0.323h-0.328l0.328-0.705v-0.347l0.323,0.347h0.65l0.328,0.354h0.325v-0.354    h0.327l0.324-0.347v-0.354l0.328-0.354l-0.328-0.351l0.328-0.351l0.325,0.351l0.325,0.351l0.328,0.354l0.648-0.354v-0.351    l0.325,0.351l0.328,0.354l0.328,0.354l0.325,0.347v-0.347v-0.354v-0.354l0.323-0.351l0.653-0.351l0.325-0.354v-0.326h0.001v-0.001    H380.39z M360.835,357.593h-0.325l0.325-0.708v-0.35v-0.698l0.326-0.354l0.653-0.354l0.325-0.701h0.976h0.653h0.653h0.324h0.979    l0.325,0.351l0.328,0.351v0.354l0.324,0.354l-0.324,0.348v0.351l-0.328,0.35l-0.325,0.357h-0.325h-0.328h-0.648h-0.325    l-0.656,0.351h-0.325h-0.323l-0.325-0.351l-0.653,0.351h-0.328h-0.325h-0.327V357.593z" id="upazila_62" area="upazlia" name="mirsharai" bengali="মীরসরাই" parent="chittagong"></path><polygon points="398.97,412.09 399.296,412.443 399.296,412.795 399.296,413.146 399.296,413.496 399.619,413.847    399.948,413.847 399.948,414.197 400.277,414.552 400.602,415.257 400.602,415.607 400.602,415.958 400.925,416.309    400.925,416.659 400.925,417.011 401.248,417.715 401.248,418.066 401.576,418.42 401.906,418.771 401.906,419.125    402.228,419.125 402.228,419.826 402.228,420.177 402.556,421.232 402.556,421.583 402.556,422.285 402.882,422.285    403.21,421.935 403.533,421.935 403.857,421.935 404.182,421.583 404.51,421.583 404.839,421.583 405.489,421.583    405.489,421.232 405.814,420.879 405.814,420.526 406.468,420.177 406.788,419.826 407.446,419.826 407.771,419.125    407.771,418.42 407.771,417.715 407.115,417.011 406.788,416.659 406.788,415.961 406.788,415.958 406.468,415.607    406.468,414.552 406.142,414.197 406.142,413.847 405.814,413.496 405.814,413.146 405.814,412.795 405.814,412.443    405.814,411.739 405.632,411.146 405.489,410.684 405.162,410.329 404.51,409.631 404.182,408.926 403.857,408.575    403.533,408.222 403.21,407.517 403.21,407.166 403.21,406.817 403.857,406.464 404.182,406.464 404.51,406.113 404.839,405.763    404.839,405.409 404.839,404.707 404.182,404.353 403.857,404.353 403.533,404.353 403.533,404.002 403.533,403.301    403.533,402.95 403.533,402.596 403.21,401.895 403.21,401.541 402.882,401.541 402.882,401.19 402.556,400.839 402.556,400.487    402.556,400.134 402.228,399.787 402.228,399.433 401.906,399.082 401.576,398.728 401.248,398.376 401.248,398.026    400.925,397.672 400.925,397.325 400.602,396.975 400.602,396.975 400.277,396.975 399.784,397.236 399.621,397.325    399.619,397.325 399.296,396.975 399.296,396.971 399.296,396.619 398.97,396.269 398.97,395.564 398.645,395.21 398.645,394.861    398.317,394.161 398.317,393.807 397.99,393.456 397.99,393.106 397.662,392.75 397.662,392.4 397.662,392.05 397.342,392.05    397.016,392.05 396.691,392.05 396.691,392.047 396.691,391.699 396.36,391.345 396.36,390.644 396.36,389.938 396.36,389.588    396.033,388.886 396.033,388.182 395.713,387.828 395.385,387.126 395.385,386.774 395.056,386.424 394.734,386.07    394.082,385.366 393.756,385.019 393.427,383.962 393.427,383.261 393.102,382.202 392.777,381.5 392.45,381.15 391.802,380.798    391.473,380.097 391.473,379.743 391.151,378.688 391.151,377.986 390.493,377.285 389.844,376.226 388.863,376.226    388.539,376.576 388.539,376.93 388.216,377.285 387.887,377.285 387.562,377.285 387.562,377.635 387.237,377.635    387.237,377.986 387.237,378.337 386.907,377.986 386.582,378.337 386.259,378.337 385.608,378.337 385.281,378.337    384.956,377.986 384.63,377.986 384.302,377.986 383.976,377.986 383.651,377.986 383.324,378.337 383.976,379.039    383.976,379.39 384.302,379.743 384.63,379.39 384.956,379.039 385.281,379.39 385.608,379.743 384.956,380.097 384.302,380.097    383.976,380.445 383.324,380.445 383.001,380.798 382.347,380.798 382.347,380.445 382.022,379.743 382.022,379.39    382.022,379.039 381.697,379.039 381.367,378.688 381.044,378.688 380.719,378.337 380.393,377.635 379.413,377.986    378.433,378.337 378.108,378.688 376.807,379.039 377.133,379.743 377.461,380.097 377.781,381.15 378.433,381.852    378.764,382.202 379.09,382.906 379.74,383.608 380.068,383.962 380.393,384.667 380.719,385.019 380.719,385.366 381.044,385.72    381.367,386.07 381.697,386.424 382.022,387.126 382.673,387.828 383.001,388.182 383.324,388.528 383.976,388.886    383.976,389.238 384.63,389.938 384.956,390.292 385.281,390.995 385.608,391.345 385.933,391.699 386.582,392.05 386.582,392.4    386.907,392.4 387.237,392.75 387.237,393.106 387.237,393.456 387.562,393.807 387.887,394.161 388.539,394.861 388.863,395.564    389.191,395.915 389.519,396.269 389.844,396.619 389.844,396.975 390.17,397.325 390.493,398.026 390.823,398.376    391.151,398.728 391.473,399.433 391.802,399.787 392.45,400.134 392.45,400.487 392.777,400.839 392.777,401.19 393.102,401.541    393.427,401.895 393.756,402.245 393.756,402.596 394.082,402.596 394.407,402.95 394.734,403.301 395.056,403.655    395.056,404.002 395.056,404.353 395.713,405.409 396.033,406.113 396.36,406.464 396.691,406.817 397.016,407.166    397.016,407.871 397.342,408.222 397.342,408.575 397.662,408.926 397.662,409.277 397.99,409.277 397.99,409.631    398.317,410.329 398.317,410.684 398.645,411.037 398.696,411.146 398.97,411.739   " id="upazila_70" area="upazlia" name="sitakunda" bengali="সীতাকুন্ড" parent="chittagong"></polygon><polygon points="395.059,386.424 395.385,386.774 395.385,387.126 395.713,387.828 396.033,388.182    396.033,388.886 396.363,389.588 396.363,389.938 396.363,390.644 396.363,391.345 396.691,391.699 396.691,392.047    397.016,392.047 397.342,392.047 397.662,392.047 397.662,392.05 397.662,392.4 397.662,392.75 397.99,393.106 397.99,393.456    398.32,393.807 398.32,394.161 398.645,394.861 398.645,395.21 398.97,395.564 398.97,396.269 399.296,396.619 399.296,396.971    399.621,397.325 399.784,397.236 400.274,396.971 400.599,396.971 400.602,396.975 400.602,396.975 400.925,397.325    400.925,397.672 401.248,398.026 401.248,398.376 401.576,398.728 401.906,399.082 402.228,399.433 402.228,399.787    402.556,400.134 402.556,400.487 402.556,400.839 402.882,401.19 402.882,401.541 403.21,401.541 403.21,401.895 403.533,402.596    403.533,402.95 403.533,403.301 403.533,404.002 403.533,404.353 403.857,404.353 404.182,404.353 404.185,404.353    404.839,404.707 404.839,405.409 404.839,405.763 404.51,406.113 404.185,406.464 404.182,406.464 403.857,406.464    403.21,406.817 403.21,407.166 403.21,407.517 403.533,408.222 403.857,408.575 404.185,408.926 404.51,409.631 405.162,410.329    405.489,410.684 405.634,411.146 405.817,411.735 405.817,412.443 405.817,412.795 405.817,413.146 405.817,413.496    406.142,413.847 406.142,414.197 406.468,414.552 406.468,415.607 406.788,415.958 406.788,415.961 406.788,416.659    407.116,417.011 407.771,417.715 407.771,418.42 407.771,419.125 407.446,419.826 407.771,420.177 408.422,420.177    408.422,420.526 408.748,420.879 409.073,420.879 409.4,420.879 409.722,420.526 410.379,420.177 410.702,419.826    411.029,419.476 411.354,419.476 411.682,419.476 412.01,419.125 412.01,418.771 412.01,418.42 412.01,418.066 412.331,417.715    412.656,417.715 412.986,417.364 413.311,417.364 413.636,417.364 413.965,417.011 414.288,417.011 414.615,417.011    414.943,417.011 414.943,417.364 414.943,417.715 415.265,418.066 415.594,418.066 415.594,417.715 416.572,417.715    417.222,418.066 417.551,417.715 417.876,418.066 418.526,417.715 418.851,417.364 418.851,417.011 418.851,416.659    418.851,416.309 418.526,415.961 418.526,415.607 418.851,415.257 419.177,414.902 419.177,414.552 419.177,413.847    418.851,413.496 418.526,413.146 418.199,412.795 417.876,412.443 417.551,412.09 417.222,411.735 417.222,411.385    417.112,411.146 416.897,410.684 416.572,410.329 416.572,409.981 416.572,409.631 416.572,409.277 416.897,409.277    417.222,409.277 417.551,409.277 417.876,409.277 418.199,409.277 418.526,409.277 418.526,409.631 418.526,409.981    418.199,410.329 418.199,410.684 418.199,411.037 418.526,411.037 418.851,411.037 418.851,411.034 418.851,410.684    418.851,410.329 418.851,409.981 418.851,409.631 418.851,409.277 419.177,409.277 418.851,408.926 418.526,408.926    418.199,408.926 417.876,408.926 417.222,408.926 416.897,408.926 416.572,408.926 416.572,408.575 416.572,408.222    416.897,408.222 416.897,407.871 417.222,407.871 417.551,407.871 417.876,407.517 418.199,407.517 418.526,407.871    418.851,407.871 419.177,407.517 419.177,407.166 419.505,406.815 419.505,406.464 419.505,406.113 419.505,405.763    419.177,405.763 419.177,405.409 418.851,405.409 418.851,405.058 418.851,404.707 418.526,404.707 418.199,404.353    418.199,404.002 418.526,403.655 418.851,403.301 418.526,403.301 418.199,403.301 418.199,403.655 417.876,403.655    417.551,403.655 417.222,403.301 416.897,403.301 416.897,403.655 416.572,403.655 416.242,403.655 415.914,403.655    415.594,403.655 415.594,404.002 415.265,404.002 414.943,403.655 414.943,403.301 414.943,402.95 414.943,402.596    415.265,402.596 415.265,402.245 415.594,402.245 415.594,401.895 415.265,401.895 414.943,401.895 414.943,401.543    414.943,401.541 414.615,401.541 414.943,401.19 415.265,400.839 415.594,400.839 415.914,400.839 416.242,400.839    416.242,400.487 415.914,400.487 415.594,400.487 415.265,400.487 414.943,400.487 414.943,400.137 414.943,400.134    414.615,400.134 414.615,399.787 414.288,399.787 414.288,399.433 414.288,399.082 414.288,398.728 414.615,398.728    414.615,399.082 414.943,399.082 414.943,399.433 415.265,399.433 415.265,399.082 414.943,398.728 414.943,398.376    414.943,398.026 414.943,397.672 414.615,397.672 414.288,397.672 414.615,397.325 414.943,397.325 414.943,396.975    414.943,396.971 414.615,396.619 414.943,396.269 414.615,396.269 414.615,395.915 414.943,395.564 414.943,395.213    414.943,394.861 414.615,394.508 414.288,394.508 414.288,394.161 413.965,394.161 413.965,393.807 413.636,393.807    413.311,393.456 412.986,393.456 412.656,393.106 412.656,392.75 412.656,392.4 412.331,392.047 412.01,392.047 412.01,391.699    411.682,391.699 411.354,391.345 411.029,391.345 411.029,390.995 411.029,390.644 411.354,390.292 411.354,389.938    411.354,389.588 411.682,389.588 411.682,389.238 411.354,388.886 411.029,388.528 410.702,388.182 410.702,387.828    410.379,387.481 410.051,387.481 410.051,387.126 409.722,387.126 409.722,386.774 409.4,386.774 409.4,386.424 409.4,386.07    409.073,385.72 408.748,385.72 408.748,385.366 408.422,385.366 408.422,385.019 408.096,384.667 407.771,384.316    407.446,384.316 407.116,384.316 406.788,384.667 406.788,385.019 406.465,385.366 406.465,385.72 406.142,386.07    405.817,386.424 405.489,386.774 405.159,386.774 405.159,387.481 405.159,387.828 404.839,388.182 404.51,388.182    404.185,388.886 403.857,388.886 403.533,389.238 403.21,389.238 402.882,389.588 402.556,389.238 402.228,388.528    401.576,388.528 401.248,388.528 400.925,388.182 400.599,387.828 400.274,387.828 400.274,388.182 399.622,388.182    399.296,388.182 398.97,388.182 398.645,387.828 398.32,387.126 397.99,386.774 397.662,386.424 397.342,386.07 396.033,385.366    395.71,385.366 395.385,385.366 395.059,385.366 394.082,385.366 394.734,386.07   " id="upazila_67" area="upazlia" name="hathazari" bengali="হাটহাজারী" parent="chittagong"></polygon><polygon points="415.265,395.915 415.265,396.269 414.943,396.619 414.943,396.971 414.943,396.975    415.265,396.975 415.265,397.325 414.943,397.325 414.943,397.672 415.265,398.026 415.265,398.376 415.265,398.728    415.265,399.082 415.594,399.082 415.594,399.433 415.265,399.433 414.943,399.433 414.615,399.082 414.288,399.082    414.288,399.433 414.615,399.433 414.943,399.787 414.943,400.134 414.943,400.137 415.265,400.137 415.265,400.487    415.594,400.487 415.914,400.487 416.242,400.487 416.572,400.487 416.572,400.839 416.242,400.839 415.914,401.19    415.594,401.19 415.265,401.19 414.943,401.543 415.265,401.543 415.594,401.895 415.914,401.895 415.914,402.245    415.914,402.596 415.594,402.596 415.265,402.596 415.265,402.95 415.265,403.301 415.265,403.655 415.594,403.655    415.914,403.301 416.572,403.301 416.897,403.301 417.222,403.301 417.876,403.301 418.199,403.301 418.526,403.301    418.526,402.95 418.851,402.95 419.177,402.95 419.505,403.301 419.177,403.301 419.177,403.655 418.851,403.655 418.526,404.002    418.526,404.353 418.851,404.353 419.177,404.353 419.177,404.707 419.177,405.058 419.177,405.409 419.505,405.409    419.831,405.76 419.831,406.113 419.831,406.467 419.831,406.817 419.831,407.166 419.505,407.517 419.505,407.871    419.177,407.871 419.177,408.222 418.851,408.222 418.526,407.871 418.199,407.871 417.876,407.871 417.548,408.222    417.222,408.222 416.897,408.575 417.548,408.575 417.876,408.575 418.199,408.575 418.851,408.575 419.177,408.575    419.505,408.926 419.505,409.277 419.177,409.631 419.177,409.981 419.177,410.329 419.177,410.684 418.851,411.034    418.851,411.037 418.851,411.146 418.851,411.388 418.526,411.388 418.199,411.388 417.876,411.388 417.876,411.146    417.876,411.034 417.876,410.684 417.876,410.329 417.876,409.981 418.199,409.981 418.199,409.631 417.876,409.631    417.548,409.631 417.222,409.631 416.897,409.631 416.897,409.981 417.222,410.684 417.222,411.034 417.324,411.146    417.548,411.388 417.876,411.739 418.199,412.09 418.199,412.443 418.526,412.443 418.851,412.795 419.177,413.146    419.505,413.146 419.831,413.146 420.156,413.496 420.48,413.847 420.48,414.197 420.48,414.552 420.48,414.902 420.156,414.902    420.156,415.257 420.48,415.257 420.48,415.607 420.805,415.607 420.805,415.958 421.134,415.958 421.457,415.958    421.782,415.607 422.437,415.607 422.765,415.257 423.252,414.992 423.414,414.902 424.066,414.902 424.719,414.552    425.368,414.552 426.023,414.197 426.674,414.197 427.325,414.197 427.977,414.197 428.631,414.197 428.954,414.197    429.609,414.552 430.26,414.552 430.588,414.552 431.235,414.902 431.235,414.197 431.235,413.847 431.235,413.496    431.235,413.146 431.235,412.795 431.235,412.09 431.563,412.09 431.891,412.09 432.217,412.443 432.864,412.443 432.864,412.09    433.195,411.739 433.52,411.739 433.845,411.739 433.845,411.034 433.845,410.684 433.52,410.329 433.195,409.631 432.54,408.926    432.864,408.575 433.195,408.575 433.52,408.222 433.195,408.222 432.864,407.871 432.54,407.517 432.54,407.166 432.54,406.817    432.864,406.113 432.864,405.76 432.864,405.409 433.195,405.409 433.52,405.409 433.845,404.707 433.195,404.707    432.864,405.058 432.54,405.058 432.217,404.707 431.891,404.707 431.891,404.353 432.217,404.002 432.217,403.655    432.217,403.301 432.217,402.95 432.54,402.95 432.54,402.596 432.864,402.245 432.54,401.895 432.54,401.543 432.217,401.19    432.217,400.487 432.217,400.137 432.217,399.787 432.217,399.082 431.891,398.376 431.891,397.672 431.891,396.619    431.563,395.564 430.908,394.861 430.908,394.508 430.908,394.158 430.908,393.807 431.235,393.807 430.908,393.456    430.588,392.75 430.26,392.05 430.588,391.699 430.26,391.342 429.931,391.342 429.609,390.292 429.281,389.938 429.281,389.588    428.954,389.238 428.631,388.884 428.631,388.532 428.954,388.532 428.954,388.182 428.631,387.481 428.302,387.126    427.977,386.774 427.977,386.421 428.302,386.421 428.302,386.07 427.977,385.72 427.652,385.369 427.977,385.016    427.977,384.667 427.977,384.316 427.977,383.962 427.977,383.612 427.652,382.556 427.652,382.202 427.977,381.854    427.977,381.5 428.302,381.15 427.325,381.15 426.348,381.15 426.023,381.15 426.023,380.798 426.023,380.448 426.023,380.097    425.698,380.097 425.698,379.74 425.368,380.097 425.045,380.097 425.045,380.448 424.394,380.798 424.066,381.15 423.74,381.5    423.414,381.854 424.066,382.202 424.394,382.556 424.719,382.556 424.394,383.261 424.066,383.962 423.74,384.316    423.74,384.667 424.066,385.016 424.394,385.369 424.066,386.07 423.414,386.07 422.765,386.421 422.437,386.774 422.437,387.126    422.765,387.828 422.765,388.182 422.437,388.182 421.782,387.828 421.457,387.828 421.457,388.182 421.134,388.532    421.134,388.884 421.134,389.588 420.805,390.292 419.831,390.995 419.505,391.699 419.505,392.4 419.177,393.106    419.177,393.807 419.177,394.158 418.851,394.861 418.526,395.213 418.199,395.213 417.876,395.213 417.548,394.861    417.548,393.807 417.876,393.456 417.876,393.106 417.876,392.75 417.222,393.106 417.222,393.456 416.897,393.807    416.572,394.158 416.242,394.508 415.594,394.861 415.265,394.861 415.265,395.213 415.265,395.564 414.943,395.564    414.943,395.915   " id="upazila_69" area="upazlia" name="raozan" bengali="রাউজান" parent="chittagong"></polygon><polygon points="433.845,404.707 434.171,404.707 434.494,405.058 434.823,405.058 435.149,405.058 435.8,404.353    435.8,404.002 436.123,403.655 436.451,403.301 437.103,402.95 437.431,402.95 437.757,402.95 438.406,402.596 438.406,402.245    438.08,401.541 438.406,401.541 438.732,401.541 438.406,401.19 438.406,400.491 438.406,400.134 438.732,399.787    439.057,399.433 439.057,398.376 438.732,397.675 438.732,396.971 438.732,396.619 437.757,395.915 437.757,395.213    437.757,394.861 438.08,394.161 438.08,393.807 438.08,393.456 438.08,393.106 437.757,392.75 437.757,392.4 437.431,392.047    437.103,391.699 436.778,391.345 436.778,390.995 436.778,390.644 437.103,390.644 437.103,390.292 437.431,389.938    437.431,389.588 437.757,388.886 437.757,388.528 438.08,388.182 438.406,388.182 438.732,387.828 439.057,387.828    439.711,387.828 440.037,387.828 440.037,387.126 440.364,386.424 441.343,386.07 441.666,386.424 441.343,386.774    441.343,387.126 441.666,387.481 441.991,387.828 442.318,387.828 442.643,387.481 442.971,387.126 443.297,387.481    443.62,387.481 443.948,387.126 444.278,387.126 444.6,387.126 444.926,386.774 445.254,387.126 445.254,387.481 445.577,387.828    445.904,387.481 446.229,387.481 446.557,387.481 446.557,387.828 446.557,388.182 446.557,388.528 446.229,388.886    446.229,389.238 445.904,389.588 445.904,389.938 445.904,390.292 446.229,390.292 446.229,389.938 446.557,390.292    446.557,390.644 446.885,390.644 447.211,390.995 447.531,390.995 447.858,390.995 448.186,391.345 448.511,391.699    448.84,392.047 449.163,392.4 449.49,393.106 449.49,393.807 449.163,393.807 449.163,394.161 448.84,394.508 448.84,394.861    449.163,394.861 449.49,394.861 449.818,394.861 449.818,395.213 449.818,395.564 449.818,395.915 450.143,396.269    449.818,396.619 449.49,396.619 449.49,396.971 449.818,396.971 449.818,397.325 450.143,398.026 450.143,398.376    450.466,398.376 450.789,398.728 451.117,398.728 451.117,399.082 451.447,399.433 451.447,399.787 451.447,400.134    451.772,400.491 451.772,400.839 451.447,401.19 451.447,401.541 451.447,401.895 451.447,402.245 451.772,402.596    451.772,402.95 451.772,403.301 452.094,403.655 452.423,403.655 452.423,404.002 452.751,404.353 452.751,404.707    452.751,405.058 453.074,405.409 453.074,405.763 453.074,406.113 453.074,406.464 453.074,406.815 453.074,407.166    453.398,407.517 453.398,407.871 453.074,408.222 453.074,408.575 453.074,408.926 453.398,408.926 453.726,409.277    454.052,409.631 454.052,409.981 453.726,410.329 454.052,410.329 454.052,410.684 454.052,411.385 453.726,411.385    453.726,411.735 453.398,411.735 453.074,412.09 452.423,412.09 452.423,412.443 452.094,412.795 451.772,412.795    451.447,412.795 451.117,412.795 450.789,413.146 450.789,413.496 451.117,413.847 451.117,414.197 450.789,414.552    450.466,414.902 449.818,415.257 449.49,415.607 449.163,415.961 448.84,415.961 448.84,416.309 448.84,416.659 449.163,416.659    449.163,417.011 449.49,417.364 449.49,417.715 449.818,417.715 450.143,418.066 450.466,418.42 450.789,418.771 450.789,419.476    451.117,419.826 451.447,420.177 451.772,420.177 452.094,420.526 452.423,420.526 453.074,420.177 453.398,420.177    453.726,420.177 453.726,420.526 453.726,421.232 453.726,421.583 453.726,421.935 453.398,421.935 453.074,421.935    453.074,422.288 452.751,422.643 453.074,422.643 453.074,422.99 453.726,422.99 454.052,422.99 454.38,422.99 454.38,423.341    454.703,423.341 454.703,423.691 454.703,424.045 454.703,424.396 454.703,424.747 454.38,425.101 454.38,425.452    454.703,425.452 455.031,425.452 455.031,425.806 455.031,426.153 455.358,426.858 455.031,427.209 455.031,427.562    455.358,427.91 455.358,428.615 455.358,428.97 455.358,429.32 455.358,429.668 455.031,429.668 455.031,430.021 454.703,430.021    454.052,430.021 454.052,429.668 453.726,429.668 453.398,429.668 452.751,429.668 452.423,429.668 451.772,430.021    451.117,430.372 450.789,430.727 450.466,430.727 450.466,431.074 450.143,431.074 449.49,431.074 449.163,431.074    448.511,430.727 448.186,430.372 447.531,430.021 447.211,429.32 447.211,428.97 446.885,428.265 446.557,427.91 446.557,427.562    446.557,427.209 445.904,426.153 445.577,425.452 445.254,425.101 445.254,424.396 445.254,423.691 444.926,423.341 444.6,422.99    444.6,422.288 444.278,421.935 444.278,421.583 443.948,421.583 443.62,421.583 442.971,422.288 442.643,422.288 441.991,422.288    441.666,422.288 441.343,421.935 441.017,421.583 440.692,421.232 440.364,420.879 440.037,420.879 440.037,420.526    440.037,420.177 440.037,419.826 440.037,419.125 439.711,418.771 439.711,418.42 439.711,418.066 439.385,418.066    439.385,417.715 439.057,417.715 438.732,417.364 438.732,417.011 438.406,416.659 438.406,416.309 438.406,415.961    438.406,415.607 438.406,415.257 438.406,414.902 438.406,414.552 438.406,414.197 438.406,413.847 438.08,413.847    437.757,413.847 437.431,414.197 437.103,414.197 436.778,414.552 436.451,414.902 435.8,415.257 435.474,415.257    435.149,415.607 434.494,415.607 434.171,415.607 433.52,415.607 433.192,415.257 432.54,415.257 432.217,414.902    431.563,414.902 431.238,414.902 431.238,414.197 431.238,413.847 431.238,413.496 431.238,413.146 431.238,412.795    431.238,412.09 431.563,412.09 431.891,412.09 432.217,412.443 432.864,412.443 432.864,412.09 433.192,411.735 433.52,411.735    433.845,411.735 433.845,411.037 433.845,410.684 433.52,410.329 433.192,409.631 432.54,408.926 432.864,408.575    433.192,408.575 433.52,408.222 433.192,408.222 432.864,407.871 432.54,407.517 432.54,407.166 432.54,406.815 432.864,406.113    432.864,405.763 432.864,405.409 433.192,405.409 433.52,405.409   " id="upazila_63" area="upazlia" name="rangunia" bengali="রাঙ্গুনিয়া" parent="chittagong"></polygon><polygon points="449.16,431.077 449.49,431.077 450.143,431.077 450.466,431.077 450.466,430.727 450.789,430.727    451.117,430.372 451.772,430.021 452.426,429.668 452.751,429.668 453.401,429.668 453.726,429.668 454.052,429.668    454.052,430.021 454.703,430.021 455.031,430.021 454.703,431.428 454.38,431.778 454.052,431.778 453.726,431.778    453.401,431.778 453.401,432.133 453.401,432.486 453.401,433.186 453.401,433.89 453.401,434.241 453.074,434.945    453.074,435.296 453.726,435.65 453.726,436.348 453.726,436.699 453.726,437.407 453.401,437.758 453.074,438.461    453.074,438.812 452.751,439.165 452.751,439.866 453.074,440.571 453.401,440.571 453.726,441.273 453.726,441.978    453.726,442.328 453.726,443.029 454.052,443.38 454.38,443.734 454.703,444.437 455.031,445.14 455.355,445.492 455.683,446.546    456.011,446.546 456.332,446.546 456.332,446.898 456.332,447.251 456.332,447.603 456.332,447.953 455.355,447.603    455.031,447.603 454.703,447.603 454.38,447.603 454.052,447.251 454.052,446.898 453.726,446.546 453.401,446.197    453.074,446.197 452.751,446.197 452.426,446.546 452.426,447.251 452.751,447.603 452.751,447.953 453.074,448.304    453.401,449.009 453.074,449.361 453.074,449.71 453.401,450.062 453.401,450.419 453.401,450.767 453.074,450.767    452.426,451.117 452.097,450.767 451.772,450.767 451.117,451.117 450.466,451.117 450.466,451.47 450.466,451.818    450.466,452.523 450.789,453.228 450.789,453.58 450.789,453.933 451.117,454.285 451.117,454.634 450.789,455.339    450.789,455.687 451.117,455.687 451.447,456.746 451.447,457.097 451.117,457.097 450.789,457.097 450.143,456.392    450.143,456.039 450.143,455.339 449.818,454.285 449.16,454.285 449.16,453.933 448.84,453.58 448.511,452.875 448.511,452.523    448.186,452.173 447.858,452.523 446.885,452.173 446.885,452.523 446.557,452.875 446.229,452.875 445.577,452.875    444.597,452.875 444.278,452.523 443.948,452.523 442.971,453.228 442.971,453.933 442.971,454.285 442.646,454.285    442.646,454.634 442.318,454.634 441.991,454.982 441.663,454.982 441.343,454.982 441.017,454.634 441.017,453.933    441.017,453.58 441.017,453.228 441.017,452.875 441.343,452.523 441.343,452.173 441.343,451.818 441.343,451.47    440.692,451.117 440.364,451.117 439.711,450.767 439.385,450.767 439.06,450.419 438.732,450.419 438.406,451.117    438.085,451.117 438.732,451.818 438.732,452.173 438.732,452.523 438.732,452.875 438.406,453.228 438.406,453.58    438.406,453.933 438.406,454.285 438.085,454.634 437.431,454.634 437.103,454.634 436.778,454.982 436.123,454.982    435.474,454.982 435.149,454.982 434.823,454.982 434.494,454.285 434.494,453.933 434.171,453.58 433.845,453.58    433.845,453.228 433.195,453.228 433.195,452.875 433.195,452.523 433.195,452.173 433.195,451.818 432.865,451.117    432.865,450.767 432.54,450.419 432.217,450.419 432.217,450.062 431.891,449.71 431.238,449.361 430.908,449.361    430.585,449.361 429.931,449.009 429.609,448.656 428.954,448.656 427.652,449.009 427.652,447.953 427.977,447.953    428.631,447.953 428.954,447.953 428.954,447.603 428.631,447.603 428.631,446.898 428.631,446.546 428.631,446.197    428.631,445.843 428.954,445.492 429.281,445.492 429.281,445.14 429.281,444.791 429.281,444.437 430.26,443.029    431.891,443.029 432.217,443.029 433.52,443.38 433.845,443.38 434.494,443.734 434.494,443.38 435.149,443.38 435.474,443.029    435.8,443.029 436.123,442.679 436.123,442.328 436.451,441.978 436.778,441.626 437.103,441.273 437.431,440.921    437.431,440.571 437.431,440.217 437.757,439.866 438.085,439.866 437.757,439.866 437.757,439.516 437.431,439.165    437.757,439.165 437.757,438.812 438.406,439.165 438.732,439.165 439.385,439.165 439.711,439.165 439.711,439.516    439.385,439.866 439.711,440.217 440.364,440.217 440.692,440.217 441.017,440.217 441.663,440.571 441.991,440.571    441.991,441.273 441.991,441.626 442.318,441.626 442.971,441.626 443.297,441.273 443.297,440.921 443.297,440.217    442.971,439.866 442.971,439.516 443.297,439.165 443.297,438.461 443.62,437.758 443.62,437.407 443.62,437.054 443.62,436.348    443.62,435.65 443.297,435.296 443.297,434.945 443.297,434.595 443.297,434.241 443.62,434.241 443.948,434.595 444.278,434.945    444.597,434.945 445.254,434.945 445.577,434.945 445.577,435.296 445.904,435.296 446.557,435.65 447.211,435.296    447.858,434.945 447.858,434.595 448.186,434.241 448.186,433.536 448.511,433.186 448.84,432.486   " id="upazila_59" area="upazlia" name="chandanaish" bengali="চন্দনাইশ" parent="chittagong"></polygon><polygon points="427.652,450.062 427.652,449.71 427.652,449.005 428.954,448.656 429.609,448.656    429.931,449.005 430.585,449.361 430.911,449.361 431.238,449.361 431.891,449.71 432.217,450.062 432.217,450.416    432.54,450.416 432.864,450.767 432.864,451.121 433.195,451.818 433.195,452.173 433.195,452.523 433.195,452.875    433.195,453.228 433.845,453.228 433.845,453.582 434.171,453.582 434.494,453.929 434.494,454.285 434.823,454.986    435.149,454.986 435.474,454.986 436.123,454.986 436.778,454.986 437.103,454.634 437.431,454.634 438.085,454.634    438.406,454.285 438.406,453.929 438.406,453.582 438.406,453.228 438.732,452.875 438.732,452.523 438.732,452.173    438.732,451.818 438.085,451.121 438.406,451.121 438.732,450.416 439.057,450.416 439.385,450.767 439.711,450.767    440.364,451.121 440.692,451.121 441.343,451.47 441.343,451.818 441.343,452.173 441.343,452.523 441.017,452.875    441.017,453.228 441.017,453.582 441.017,453.929 441.017,454.634 441.343,454.986 441.666,454.986 441.991,454.986    442.318,454.634 442.643,454.634 442.643,454.285 442.971,454.285 442.971,453.929 442.971,453.228 443.948,452.523    444.278,452.523 444.6,452.875 445.577,452.875 446.229,452.875 446.557,452.875 446.885,452.523 446.885,452.173    447.858,452.523 448.186,452.173 448.511,452.523 448.511,452.875 448.84,453.582 449.163,453.929 449.163,454.285    449.818,454.285 450.143,455.335 450.143,456.041 450.143,456.392 450.789,457.097 451.117,457.097 451.447,457.097    451.447,456.746 451.117,455.687 450.789,455.687 450.789,455.335 451.117,454.634 451.117,454.285 450.789,453.929    450.789,453.582 450.789,453.228 450.466,452.523 450.466,451.818 450.466,451.47 450.466,451.121 451.117,451.121    451.772,450.767 452.094,450.767 452.426,451.121 453.074,450.767 453.401,450.767 453.401,450.416 453.401,450.062    453.074,449.71 453.074,449.361 453.401,449.005 453.074,448.308 452.751,447.953 452.751,447.603 452.426,447.251    452.426,446.546 452.751,446.197 453.074,446.197 453.401,446.197 453.726,446.546 454.052,446.898 454.052,447.251    454.38,447.603 454.703,447.603 455.031,447.603 455.358,447.603 456.332,447.953 455.683,448.308 455.358,449.005    455.031,449.71 455.358,449.71 455.683,449.71 456.011,449.71 456.011,450.416 456.011,450.767 456.332,451.818 456.984,451.818    456.984,452.523 456.984,452.875 456.657,453.582 456.332,453.929 455.683,454.634 456.011,454.986 456.332,455.687    456.984,456.041 457.312,456.041 456.984,457.097 456.984,457.447 456.657,457.8 456.332,457.8 456.011,457.8 455.683,458.152    455.358,458.851 455.031,458.851 455.031,459.205 454.703,459.205 454.052,458.851 453.726,458.851 453.726,459.205    453.401,459.91 453.726,459.91 454.052,459.91 454.38,460.261 455.031,460.261 455.358,460.261 455.683,460.261 456.011,460.611    455.683,461.316 455.358,461.316 455.031,462.017 454.703,462.017 454.703,462.369 454.703,462.722 455.031,462.722    455.358,462.722 455.683,462.722 456.011,462.722 456.011,463.072 456.332,463.072 456.984,463.072 457.312,463.423    457.312,464.128 456.984,464.828 456.657,465.531 456.332,465.886 456.332,466.236 456.011,466.236 456.011,466.589    455.358,466.941 455.031,466.941 454.703,466.941 454.38,466.941 454.052,466.589 453.726,466.236 453.401,465.886    453.074,465.531 452.751,465.531 452.426,465.531 452.094,465.531 451.772,465.531 451.117,465.531 450.789,465.183    450.466,465.183 450.466,464.828 449.818,464.828 449.49,464.828 449.163,465.183 448.84,465.531 448.511,466.236 448.84,466.236    449.163,466.589 449.163,466.941 448.84,466.941 448.511,467.292 448.186,467.292 447.858,467.994 447.531,468.347    447.531,468.695 447.211,469.048 447.211,469.404 446.885,469.753 446.557,469.753 445.904,470.103 445.577,470.455    444.926,470.81 444.278,470.81 444.278,471.158 444.278,471.511 444.278,471.861 444.6,472.566 444.6,472.917 444.6,473.619    444.278,473.619 443.948,473.619 443.62,473.619 443.297,473.271 443.297,472.917 442.971,472.212 442.643,472.212    442.318,472.212 441.991,471.861 441.991,471.158 441.666,470.81 441.343,470.81 441.017,470.81 440.692,471.158 440.364,471.158    439.711,471.511 439.385,471.511 438.732,471.861 438.732,472.212 438.406,472.566 438.732,472.917 438.406,473.271    438.085,473.271 437.757,473.619 437.431,473.619 436.778,473.972 436.451,473.972 436.123,473.972 435.149,474.324    434.494,473.972 434.171,473.972 434.171,473.619 434.171,472.917 434.171,472.212 434.171,471.861 433.845,471.511    433.52,471.158 433.52,470.81 433.52,470.455 433.195,470.103 432.864,470.103 432.54,469.753 432.54,469.404 432.864,469.048    432.864,468.695 432.864,468.347 432.217,467.994 432.54,467.642 432.217,467.292 432.217,466.941 432.54,466.589 432.54,465.886    432.54,465.531 432.864,465.531 433.195,464.828 433.195,464.478 433.52,464.128 433.195,463.775 432.864,463.775    432.217,464.128 431.563,464.128 431.238,464.128 430.911,464.478 430.585,464.478 429.931,464.478 429.609,464.828    429.281,464.828 428.954,464.478 428.954,464.128 428.954,463.775 428.954,463.072 428.631,462.369 428.954,462.017    428.631,461.316 428.631,460.964 428.631,460.611 428.954,460.261 429.281,460.261 429.931,459.91 430.26,459.556    430.911,459.556 430.911,459.205 430.911,458.851 431.238,458.851 431.238,459.205 431.891,459.556 432.217,459.91 432.54,459.91    432.54,460.261 432.864,460.611 432.864,460.964 433.52,461.316 433.845,461.316 434.171,461.316 434.171,460.964    434.171,460.611 434.171,460.261 433.845,459.91 434.171,459.556 433.845,459.205 433.845,458.851 433.52,458.503 433.52,458.152    432.864,458.152 432.864,457.8 432.864,457.447 432.54,457.447 432.217,457.447 431.563,457.8 431.563,457.447 431.563,457.097    431.563,456.746 431.238,456.041 430.911,455.687 430.911,455.335 430.585,454.986 430.911,454.634 430.585,454.285    430.26,454.634 429.931,454.986 429.281,454.986 428.954,454.986 428.631,454.634 428.631,453.929 428.954,453.582    428.631,453.228 428.631,452.875 428.631,452.523 428.954,452.523 429.281,452.173 429.281,451.818 428.954,451.818    428.631,451.818 428.302,451.818 427.652,451.818 427.325,451.818 426.997,451.818 426.677,451.47 426.997,451.121    427.325,450.767 427.652,450.416   " id="upazila_65" area="upazlia" name="satkania" bengali="সাতকানিয়া" parent="chittagong"></polygon><polygon points="435.149,474.324 436.123,473.972 436.451,473.972 436.778,473.972 437.431,473.619    437.757,473.619 438.08,473.271 438.406,473.271 438.732,472.917 438.406,472.566 438.732,472.212 438.732,471.861    439.385,471.511 439.711,471.511 440.364,471.16 440.692,471.16 441.017,470.806 441.343,470.806 441.666,470.806 441.991,471.16    441.991,471.861 442.318,472.212 442.643,472.212 442.971,472.212 443.297,472.917 443.297,473.271 443.62,473.619    443.948,473.619 444.278,473.619 444.6,473.619 444.6,472.917 444.6,472.566 444.278,471.861 444.278,471.511 444.278,471.16    444.278,470.806 444.926,470.806 445.577,470.455 445.904,470.107 446.557,469.753 446.885,469.753 447.211,469.404    447.211,469.048 447.531,468.699 447.531,468.347 447.858,467.994 448.186,467.292 448.511,467.292 448.84,466.941    449.163,466.941 449.163,466.589 448.84,466.236 448.511,466.236 448.84,465.531 449.163,465.183 449.49,464.83 449.818,464.83    450.466,464.83 450.466,465.183 450.789,465.183 451.117,465.531 451.772,465.531 452.094,465.531 452.423,465.531    452.751,465.531 453.074,465.531 453.398,465.882 453.726,466.236 454.052,466.589 454.38,466.941 454.703,466.941    455.031,466.941 455.358,466.941 456.009,466.589 456.657,466.589 456.657,466.941 456.657,467.292 456.657,467.994    456.984,467.994 457.312,468.347 457.64,469.048 458.289,469.048 458.944,469.048 459.594,469.048 459.92,469.404    460.243,470.107 460.898,469.753 461.223,470.107 461.223,470.455 460.898,470.806 460.898,471.16 461.549,471.511    461.877,471.511 462.2,471.511 462.527,471.511 462.527,471.861 462.2,471.861 461.877,472.212 461.223,472.566 461.223,473.271    460.898,473.619 460.898,473.972 460.898,474.324 461.223,474.675 461.877,474.675 461.877,475.029 461.877,475.378    462.2,476.435 461.877,476.785 461.549,477.136 461.223,477.484 460.573,477.837 460.243,478.193 459.92,478.542 459.594,479.248    459.92,479.599 459.92,479.953 459.594,479.953 459.266,479.953 458.944,479.953 458.615,480.3 458.289,480.3 458.615,480.65    459.266,481.001 458.944,481.001 459.266,481.001 458.944,481.355 458.615,481.355 458.289,481.355 457.966,481.355    457.64,481.355 457.312,481.355 456.984,481.355 456.657,481.001 456.009,481.001 455.683,480.65 455.358,481.355    456.009,481.707 455.683,482.056 456.009,482.408 456.009,482.761 456.009,483.466 456.009,483.814 456.332,484.167    456.984,484.871 456.657,485.574 456.332,485.574 456.009,485.574 455.683,485.574 455.031,485.574 454.703,485.574    454.38,485.574 454.052,485.574 453.726,485.929 453.398,485.929 452.751,485.929 452.423,486.279 452.094,486.279    451.772,486.279 451.447,486.279 451.117,486.279 450.789,486.279 450.789,485.929 450.466,485.574 450.143,485.574    450.143,485.22 449.818,484.871 449.818,484.519 449.818,484.167 449.49,483.814 449.818,483.466 449.818,483.117    450.143,482.761 450.143,482.408 449.49,482.056 449.49,482.408 449.163,482.761 448.84,482.761 448.84,483.117 448.511,483.466    448.186,483.466 447.858,483.466 447.531,483.466 447.211,483.117 446.885,483.117 446.557,483.117 446.229,483.117    445.904,483.466 445.577,483.466 445.254,483.814 444.926,483.814 444.6,483.814 444.278,484.167 443.948,484.167    443.948,484.519 443.297,485.22 442.971,485.22 442.643,485.574 442.318,485.574 442.318,485.929 441.991,485.929    441.666,485.929 441.343,486.279 441.343,486.63 441.017,486.63 440.692,486.63 440.364,486.63 440.364,486.279 440.037,486.279    440.037,485.929 439.711,485.929 439.385,485.929 439.385,485.22 439.057,485.22 438.732,484.519 438.406,484.519 438.08,484.167    438.08,483.814 438.08,483.466 437.757,483.117 437.757,482.761 437.757,482.408 437.431,482.056 437.103,481.707    436.778,481.355 436.778,481.001 436.778,480.65 436.451,480.3 436.451,479.953 436.451,479.599 436.451,479.248 436.451,478.894    436.451,478.542 436.451,478.193 436.451,477.837 436.123,477.484 436.123,476.785 436.123,476.435 436.123,476.082    435.8,476.082 435.8,475.728 435.474,475.378   " id="upazila_61" area="upazlia" name="lohagara" bengali="লোহাগাড়া" parent="chittagong"></polygon><path d="M415.594,458.152V457.8v-0.354v-0.352v-0.705l0.325-0.354v-0.352v-0.354l-0.325-0.35v-0.35l0.325-0.354    l0.323-0.35l0.328,0.35l0.328,0.354l0.325,0.352l0.325,0.352h0.328l0.648,0.705v0.352l0.325,0.354h0.325h0.656l0.323-0.354    l0.325-0.352v-0.352v-0.354l0.328-0.352v-0.352v-0.354l-0.328-0.35l-0.325-0.352h-0.651l-0.328-0.352h-0.65l-0.325-0.354    l-0.323-0.354l0.323-0.352l0.325-0.354l0.325,0.354l0.653-0.354l0.651,0.354h0.325h0.328h0.325l0.653,0.352l0.323-0.352    l0.653-0.354h0.328l0.325-0.348l0.328-0.354l0.32-0.352l0.328-0.705v-0.35v-0.355h0.325h0.325h0.652l0.327,0.355l0.325,0.35h0.328    h0.977v0.354l-0.327,0.352l-0.325,0.352l-0.325,0.354l0.325,0.348h0.325h0.327h0.652h0.325h0.328h0.325v0.355l-0.325,0.35h-0.328    v0.355v0.354l0.328,0.352l-0.328,0.35v0.705l0.328,0.352h0.325h0.648l0.325-0.352l0.328-0.354l0.325,0.354l-0.325,0.352    l0.325,0.35v0.355l0.328,0.35l0.324,0.705v0.354v0.352v0.354l0.652-0.354h0.325h0.325v0.354v0.352h0.652v0.35l0.327,0.352v0.35    l0.325,0.355l-0.325,0.35l0.325,0.354v0.352v0.35v0.355h-0.325h-0.327l-0.652-0.355v-0.35l-0.325-0.352v-0.354h-0.325l-0.325-0.35    l-0.651-0.355v-0.35h-0.328v0.35v0.355h-0.653l-0.325,0.35l-0.648,0.354h-0.325l-0.328,0.352v0.35v0.355l0.328,0.701l-0.328,0.354    l0.328,0.701v0.709v0.35v0.352l0.325,0.35h0.324l0.324-0.35h0.653h0.325l0.328-0.352h0.324h0.652l0.65-0.35h0.327l0.325,0.35    l-0.325,0.352v0.35l-0.327,0.705h-0.325v0.352v0.709l-0.325,0.35v0.35l0.325,0.355l-0.325,0.35l0.65,0.352v0.352v0.352    l-0.325,0.354v0.354l0.325,0.352h0.327l0.324,0.352v0.354v0.352l0.328,0.352l0.325,0.35v0.352v0.709v0.701v0.354h0.325    l0.656,0.352l0.324,1.055l0.321,0.352v0.354h0.328v0.352v0.354v0.701l0.328,0.352v0.354v0.352v0.352v0.354v0.352v0.354v0.352    l0.325,0.352v0.352v0.354l0.324,0.35l0.328,0.352l0.324,0.354v0.355v0.352l0.328,0.35v0.348v0.354l0.325,0.355h0.325l0.324,0.701    h0.324v0.705v0.701l0.328,0.705l-0.328,0.352l-0.324,0.354v0.352l-0.324,0.352l-0.325-0.352h-0.325h-0.328h-0.324l-0.328,0.352    h-0.324h-0.325l-0.328-0.352h-0.328h-0.321h-0.324l-0.328-0.352h-0.328h-0.325h-0.325h-0.328l-0.324,0.352h-0.327l-0.325,0.352    h-0.325h-0.325h-0.327h-0.325l-0.327-0.352h-0.325v0.352l-0.328,0.354l-0.325,0.705v0.348v0.354v0.354l-0.321,0.352h-0.327h-0.325    l-0.328-0.352v-0.354v-0.354h-0.325l-0.328,0.354v0.354h-0.324v0.352l-0.327-0.352h-0.325h-0.325v0.352v0.352l-0.328,0.35h-0.325    h-0.324h-0.327h-0.325h-0.328H424.4l-0.328,0.354l-0.321,0.354l0.321,0.352v1.053l-0.321,0.705h-0.327h-0.325v-0.352h-0.325    l0.325-1.406h-0.653l-0.328-0.352l-0.325-1.76h0.325h0.328l0.328-0.354l-0.328-1.402h-0.653h-0.323v-0.705l-0.328-0.703v-0.352    h0.328l0.323-0.354v-0.703l-0.323-0.35v-0.707h-0.328h-0.322l0.322-0.701v-0.355l-0.322-0.354l-0.328-0.348v-0.35l-0.648-0.705    h-0.328l-0.328,0.354l-0.325-0.354l-0.325-0.354v-0.352v-0.35v-0.705v-0.352v0.352h-0.325v-0.352h-0.326v-0.352v-0.352v-0.354    v-0.703v-0.705v-0.701v-0.703v-0.352l-0.325-0.354v-0.352l0.325-0.354v-0.352v-0.344h-0.325h-0.325h-0.328v-0.352h-0.328    l-0.325-0.352l-0.324-0.352l-0.327-0.35h-0.325v-0.354v-0.355v-0.701v-0.354v-0.699v-0.705v-0.352v-0.354l-0.325-0.705v-0.35    v-0.352l0.325-0.355h0.325v-0.35v-0.352l0.327-0.707v-0.352v-1.402v-0.705v-0.354L415.6,462.4v-0.705v-0.352v-0.354v-0.701v-0.705    v-0.354v-0.352v-0.35v-0.357h-0.002v-0.02H415.594z M412.656,458.851l1.957-0.352l0.328,0.352v0.354v0.705h0.322l-0.322,0.705    v0.703v0.701v2.111v0.701v0.354l-0.328,0.701l-0.325,0.355l-0.651,0.354h-0.328v-0.354l0.328-0.355v-0.35l0.325-0.354v-0.703    l-0.325-0.701v-0.354v-1.057v-1.053h-0.328l-0.325-0.705l0.325-0.352v-0.354l-0.325-0.352v-0.354L412.656,458.851z" id="upazila_58" area="upazlia" name="banshkhali" bengali="বাঁশখালী" parent="chittagong"></path><polygon points="430.585,441.273 430.26,440.921 429.931,440.921 429.931,440.571 430.26,440.217 429.931,439.866    429.609,439.866 429.281,440.217 428.954,440.217 428.631,440.217 427.652,440.217 427.325,439.866 427.325,439.516    427.325,439.161 426.997,439.161 426.997,438.812 426.677,438.812 426.348,438.812 426.348,439.161 425.698,439.161    425.698,438.812 425.368,438.812 425.045,439.161 424.719,439.161 424.391,439.161 424.066,439.161 424.066,439.866    423.742,439.516 423.411,439.516 423.411,439.161 423.091,439.161 423.091,439.165 423.091,439.516 422.765,439.516    422.762,439.516 422.437,439.516 422.109,439.516 421.782,439.516 421.457,439.516 421.457,439.165 421.457,439.161    421.782,438.812 422.109,438.461 421.782,438.461 421.457,438.461 421.134,438.109 420.483,437.758 420.156,437.758    419.505,437.758 419.177,437.758 419.177,438.109 419.505,438.461 419.505,438.812 419.177,439.161 419.177,439.165    419.177,439.516 418.851,439.866 418.851,440.217 418.526,440.217 418.526,440.571 418.199,440.921 417.876,440.217    417.871,440.217 417.548,440.217 416.897,440.217 416.572,440.571 416.242,440.921 415.919,440.571 415.594,440.217    415.265,439.866 415.265,439.516 414.615,439.161 413.636,439.161 413.311,438.812 413.311,439.516 412.656,439.866    412.331,440.571 412.01,440.921 411.682,441.273 411.029,441.626 410.702,441.978 410.379,442.328 409.722,442.679 409.4,443.029    409.073,443.384 408.748,443.734 408.422,444.085 408.096,444.437 408.422,444.791 408.422,445.14 408.748,445.14    409.073,445.492 409.073,445.576 409.073,446.197 409.4,446.546 409.4,447.251 409.4,447.603 409.4,447.953 409.722,448.656    410.051,449.361 410.051,449.71 410.051,450.062 410.379,450.767 410.702,451.47 410.702,452.523 411.029,453.228    411.354,454.285 411.682,455.687 412.01,457.097 412.331,458.152 412.656,458.851 414.615,458.5 415.594,458.5 415.594,458.152    415.594,457.8 415.594,457.447 415.594,457.097 415.594,456.392 415.919,456.041 415.919,455.687 415.919,455.335    415.594,454.986 415.594,454.634 415.919,454.285 416.242,453.929 416.572,454.285 416.897,454.634 417.222,454.986    417.548,455.335 417.876,455.335 418.526,456.041 418.526,456.392 418.851,456.746 419.177,456.746 419.828,456.746    420.156,456.392 420.483,456.041 420.483,455.687 420.483,455.335 420.808,454.986 420.808,454.634 420.808,454.285    420.483,453.929 420.156,453.582 419.505,453.582 419.177,453.228 418.526,453.228 418.199,452.875 417.876,452.523    418.199,452.173 418.526,451.818 418.851,452.173 419.505,451.818 420.156,452.173 420.483,452.173 420.808,452.173    421.134,452.173 421.782,452.523 422.109,452.173 422.765,451.818 423.091,451.818 423.411,451.47 423.742,451.121    424.066,450.767 424.391,450.062 424.391,449.71 424.391,449.361 424.719,449.361 425.045,449.361 425.698,449.361    426.023,449.71 426.348,450.062 426.677,450.062 427.652,450.062 427.652,449.71 427.652,449.005 427.652,447.953    427.977,447.953 428.631,447.953 428.954,447.953 428.954,447.603 428.631,447.603 428.631,446.898 428.631,446.546    428.631,446.197 428.631,445.843 428.954,445.492 429.281,445.492 429.281,445.14 429.281,444.791 429.281,444.437    430.26,443.029 430.585,441.978 430.908,441.626   " id="upazila_483" area="upazlia" name="anwara" bengali="আনোয়ারা" parent="chittagong"></polygon><polygon points="448.511,430.727 448.186,430.372 447.531,430.021 447.211,429.32 447.211,428.97 446.883,428.265    446.554,427.914 446.554,427.56 446.554,427.209 445.906,426.156 445.577,425.452 445.251,425.098 445.251,424.396    445.251,423.691 444.926,423.341 444.6,422.993 444.6,422.285 444.278,421.935 444.278,421.583 443.948,421.583 443.62,421.583    442.971,422.285 442.646,422.285 441.991,422.285 441.663,422.285 441.345,421.935 441.017,421.583 440.689,421.232    440.364,420.879 440.037,420.879 440.037,420.526 440.037,420.177 440.037,419.826 440.037,419.125 439.714,418.771    439.714,418.42 439.714,418.069 439.385,418.069 439.385,417.715 439.057,417.715 438.732,417.361 438.732,417.011    438.406,416.659 438.406,416.312 438.406,415.958 438.406,415.607 438.406,415.257 438.406,414.902 438.406,414.552    438.406,414.197 438.406,413.847 438.085,413.847 437.757,414.197 437.431,414.197 437.431,414.552 437.103,414.902    436.778,415.257 436.451,415.257 436.123,415.607 435.474,415.607 435.474,415.958 435.474,416.312 435.152,416.659    434.823,417.011 434.823,417.361 434.823,417.715 435.149,417.715 435.152,417.715 435.474,417.715 435.474,418.069    435.474,418.42 435.474,418.771 435.797,419.476 435.797,419.826 436.123,420.526 436.451,420.879 436.451,421.232    436.778,421.935 436.778,422.285 436.778,422.993 437.103,422.993 437.103,423.341 437.431,424.396 437.431,424.747    437.431,425.098 436.778,425.452 436.451,425.452 435.474,425.452 435.152,425.452 435.149,425.452 434.823,425.452    434.171,425.452 433.845,425.452 433.195,425.452 433.192,425.452 432.54,425.452 432.217,425.452 431.238,425.452    430.908,425.098 430.588,425.098 430.26,425.098 429.609,425.452 429.282,425.806 428.957,426.156 428.954,426.156    428.302,426.156 427.652,426.156 426.997,426.156 426.677,426.156 426.348,426.504 426.023,426.504 425.368,426.858    425.045,426.858 424.719,426.858 424.066,426.858 423.414,426.858 423.091,426.858 422.437,427.209 421.782,427.209    421.457,427.209 420.808,427.209 420.483,427.56 420.156,428.265 419.831,428.615 419.831,428.97 419.505,429.32 419.177,429.668    418.851,430.021 418.526,430.021 418.199,430.021 418.199,429.668 417.871,429.32 417.871,428.97 417.548,428.97 417.222,428.97    416.897,428.615 416.572,428.615 416.569,428.615 415.919,428.615 415.594,428.615 414.615,428.97 413.965,428.97 413.636,428.97    412.656,428.97 412.331,429.32 412.008,429.668 411.354,429.668 410.702,430.372 410.379,430.727 409.725,431.077 409.4,431.428    408.748,432.133 408.748,432.483 408.422,432.834 408.422,433.536 408.422,433.89 408.422,434.595 409.073,434.945 409.4,435.296    410.379,435.296 410.702,435.65 412.331,435.65 412.983,435.65 413.311,435.998 413.636,436.348 413.636,436.699 413.965,437.054    413.965,437.407 413.636,437.758 413.636,438.109 413.636,438.461 413.311,438.812 413.636,439.165 414.615,439.165    415.265,439.516 415.265,439.866 415.594,440.217 415.919,440.571 416.242,440.921 416.569,440.571 416.897,440.217    417.548,440.217 417.871,440.217 418.199,440.921 418.526,440.571 418.526,440.217 418.851,440.217 418.851,439.866    419.177,439.516 419.177,439.165 419.505,438.812 419.505,438.461 419.177,438.109 419.177,437.758 419.505,437.758    420.156,437.758 420.483,437.758 421.134,438.109 421.457,438.461 421.782,438.461 422.109,438.461 421.782,438.812    421.457,439.165 421.457,439.516 421.782,439.516 422.109,439.516 422.437,439.516 422.762,439.516 423.091,439.516    423.091,439.165 423.252,439.165 423.414,439.165 423.414,439.516 423.74,439.516 424.066,439.866 424.066,439.165    424.394,439.165 424.719,439.165 425.045,439.165 425.368,438.812 425.698,438.812 425.698,439.165 426.348,439.165    426.348,438.812 426.677,438.812 426.997,438.812 426.997,439.165 427.323,439.165 427.323,439.516 427.323,439.866    427.652,440.217 428.631,440.217 428.957,440.217 429.282,440.217 429.609,439.866 429.931,439.866 430.26,440.217    429.931,440.571 429.931,440.921 430.26,440.921 430.588,441.273 430.908,441.626 430.588,441.978 430.26,443.029    431.891,443.029 432.217,443.029 433.52,443.384 433.845,443.384 434.494,443.734 434.494,443.384 435.152,443.384    435.474,443.029 435.797,443.029 436.123,442.679 436.123,442.328 436.451,441.978 436.778,441.626 437.103,441.273    437.431,440.921 437.431,440.571 437.431,440.217 437.757,439.866 437.757,439.516 437.431,439.165 437.757,439.165    437.757,438.812 438.406,439.165 438.732,439.165 439.385,439.165 439.714,439.165 439.714,439.516 439.385,439.866    439.714,440.217 440.364,440.217 440.689,440.217 441.017,440.217 441.663,440.571 441.991,440.571 441.991,441.273    441.991,441.626 442.318,441.626 442.971,441.626 443.297,441.273 443.297,440.921 443.297,440.217 442.971,439.866    442.971,439.516 443.297,439.165 443.297,438.461 443.62,437.758 443.62,437.407 443.62,437.054 443.62,436.348 443.62,435.65    443.297,435.296 443.297,434.945 443.297,434.595 443.297,434.241 443.62,434.241 443.948,434.595 444.278,434.945 444.6,434.945    445.251,434.945 445.577,434.945 445.577,435.296 445.906,435.296 446.554,435.65 447.211,435.296 447.858,434.945    447.858,434.595 448.186,434.241 448.186,433.536 448.511,433.186 448.84,432.483 449.16,431.077   " id="upazila_68" area="upazlia" name="patiya" bengali="পটিয়া" parent="chittagong"></polygon><polygon points="422.765,415.958 422.765,416.312 422.437,416.312 422.109,417.011 421.782,417.361    421.457,417.715 421.134,418.069 420.805,418.771 420.805,419.125 420.48,419.826 420.156,420.177 420.156,420.879    420.156,421.232 420.156,421.935 420.156,422.285 420.156,423.691 420.156,424.045 420.156,424.747 419.831,425.098    419.505,425.452 419.505,425.806 419.177,426.156 418.851,426.504 418.526,427.209 418.526,427.56 418.199,427.56    417.876,427.914 417.548,427.914 417.222,428.265 416.897,428.265 416.572,428.615 416.897,428.615 417.222,428.97    417.548,428.97 417.871,428.97 417.876,428.97 417.876,429.32 418.199,429.668 418.199,430.021 418.526,430.021 418.851,430.021    419.177,429.668 419.505,429.32 419.831,428.97 419.831,428.615 420.156,428.265 420.48,427.56 420.805,427.209 420.808,427.209    421.457,427.209 421.782,427.209 422.437,427.209 423.091,426.858 423.414,426.858 424.066,426.858 424.719,426.858    425.045,426.858 425.368,426.858 426.023,426.504 426.348,426.504 426.674,426.156 426.677,426.156 426.997,426.156    427.652,426.156 428.302,426.156 428.954,426.156 429.281,425.806 429.609,425.452 430.26,425.098 430.588,425.098    430.908,425.098 431.238,425.452 432.217,425.452 432.54,425.452 433.192,425.452 433.195,425.452 433.845,425.452    434.171,425.452 434.823,425.452 435.149,425.452 435.152,425.452 435.474,425.452 436.451,425.452 436.778,425.452    437.428,425.098 437.428,424.747 437.428,424.396 437.103,423.341 437.103,422.993 436.778,422.993 436.778,422.285    436.778,421.935 436.451,421.232 436.451,420.879 436.123,420.526 435.797,419.826 435.797,419.476 435.474,418.771    435.474,418.42 435.474,418.069 435.474,417.715 435.152,417.715 435.149,417.715 434.823,417.715 434.823,417.361    434.823,417.011 435.149,416.659 435.474,416.312 435.474,415.958 435.474,415.607 434.823,415.958 434.494,415.958    433.845,415.958 433.52,415.958 433.195,415.958 432.864,415.958 432.217,415.958 431.891,415.958 431.563,415.958    431.235,415.958 430.908,415.958 430.588,415.607 430.26,415.257 429.931,414.902 429.281,414.552 428.954,414.552    428.302,414.552 427.977,414.552 427.325,414.552 426.674,414.552 426.348,414.552 425.698,414.902 425.045,414.902    424.394,415.257 423.74,415.257 423.414,415.607 423.252,415.784 423.091,415.958   " id="upazila_66" area="upazlia" name="boalkhali" bengali="বোয়ালখালী" parent="chittagong"></polygon><path d="M370.284,425.098l-0.323-0.351h-0.979l-0.65-0.351l-0.651-0.354l-0.325-0.354l-0.328-0.352l-0.653-0.699    l-0.323-0.354l-0.65-0.702l-0.325-0.351l-0.328-1.058l-0.328-0.698l-0.323-0.354l-0.325-0.354v-0.35l-0.328-0.351l-0.325-0.708    l-0.328-0.351l-0.32-0.701l-0.328-0.351l-0.325-0.354l-0.325-0.351l-0.328-0.354l-1.307-2.108l-0.322-0.354l-0.325-0.701    l-0.328-0.704l-0.651-1.053l-0.325-0.705l-0.653-1.76l-0.328-1.05v-0.353v-0.705l-0.32-0.351v-0.708v-1.052v-0.705l0.32-1.056    l0.328-0.705l0.325-1.05l0.328-0.353v-0.351l0.325-0.704v-0.354l0.328-0.352l0.323-0.701l0.328-0.705l0.647-0.704l0.328-0.351    l0.979-1.057l0.328-0.35h0.65l0.327-1.057v-0.351l0.321-0.35l0.653-0.354l0.653-0.702l0.651-1.056h0.328h0.325h0.322l0.328,0.354    l0.323,0.35l0.328,0.351v0.347l0.325,0.354l0.328,0.705l0.653,0.705l0.323,0.354l0.65,0.702l0.328,0.35l0.328,0.705l0.325,0.705    l0.651,0.704v0.351l0.328,0.354l0.325,0.7v0.354l0.322,0.702l0.328,0.354v0.35l0.323,0.354l0.328,0.699l0.325,0.708l0.325,0.7    l0.328,0.354l0.651,0.705l0.322,0.701l0.653,0.704l0.328,0.705l0.324,0.351l0.652,0.708l0.328,0.35l0.325,0.348l0.325,0.351    l0.323,0.708l0.325,0.7l0.328,0.354v1.053l0.328,0.351v1.057l0.325,1.058l0.325,1.05v1.409v0.702l0.327,1.053l-0.327,0.351v0.357    v0.351v1.056v0.351l-0.325,0.701l-0.653,0.35l-0.328,0.708l-0.325,0.352l-0.648,0.701l-0.653,0.355l-0.652,0.352l-0.652,0.348    l-0.653,0.352l-0.648,0.354l-0.653,0.354l-0.65,0.35h-0.651l-0.978,0.351h-0.659v-0.002L370.284,425.098L370.284,425.098z     M348.449,388.532h-0.328l0.328-0.351h0.325v-0.357l0.325-0.348v-0.35l0.328-0.351h0.328h0.323l0.325-0.354h0.328l0.65-0.354    l0.328-0.351l0.323,0.351l0.325,0.354v0.705l-0.325,0.35l-1.304,0.348l-1.632,0.708h-0.325H348.449L348.449,388.532z" id="upazila_64" area="upazlia" name="sandwip" bengali="সন্দ্বীপ" parent="chittagong"></path><polygon points="408.748,445.14 408.422,445.14 408.422,444.791 408.096,444.437 408.422,444.085 408.748,443.734    409.073,443.384 409.4,443.029 409.722,442.679 410.379,442.328 410.702,441.978 411.029,441.626 411.682,441.273 412.01,440.921    412.331,440.571 412.656,439.866 413.311,439.516 413.311,438.812 413.636,438.461 413.636,438.109 413.636,437.758    413.965,437.407 413.965,437.054 413.636,436.699 413.636,436.348 413.311,435.998 412.983,435.65 412.331,435.65 410.702,435.65    410.379,435.296 409.4,435.296 409.073,434.945 408.422,434.595 408.422,433.89 408.422,433.536 408.422,432.834 408.748,432.483    408.748,432.133 409.4,431.428 409.725,431.077 410.379,430.727 410.702,430.372 411.354,429.668 412.008,429.668 412.331,429.32    412.656,428.97 413.636,428.97 413.965,428.97 414.615,428.97 415.594,428.615 415.919,428.615 416.569,428.615 416.572,428.615    416.897,428.265 417.222,428.265 417.548,427.914 417.876,427.914 418.199,427.56 418.526,427.56 418.526,427.209    418.851,426.504 419.177,426.156 419.505,425.806 419.505,425.452 419.831,425.098 420.156,424.747 420.156,424.045    420.156,423.691 420.156,422.285 420.156,421.935 420.156,421.232 420.156,420.879 420.156,420.177 420.48,419.826    420.805,419.125 420.805,418.771 421.134,418.069 421.457,417.715 421.782,417.361 422.109,417.011 422.437,416.312    422.765,416.312 422.765,415.958 423.091,415.958 423.252,415.784 423.252,414.992 422.765,415.257 422.437,415.607    421.782,415.607 421.457,415.958 421.134,415.958 420.805,415.958 420.805,415.607 420.48,415.607 420.48,415.257    420.156,415.257 420.156,414.902 420.48,414.902 420.48,414.552 420.48,414.197 420.48,413.847 420.156,413.496 419.831,413.146    419.505,413.146 419.177,413.146 418.851,412.795 418.526,412.443 418.199,412.443 418.199,412.09 417.876,411.739    417.548,411.388 417.324,411.146 417.112,411.146 417.222,411.385 417.222,411.735 417.551,412.09 417.876,412.443    418.199,412.795 418.526,413.146 418.851,413.496 419.177,413.847 419.177,414.552 419.177,414.902 418.851,415.257    418.526,415.607 418.526,415.961 418.851,416.309 418.851,416.659 418.851,417.011 418.851,417.364 418.526,417.715    417.876,418.066 417.551,417.715 417.222,418.066 416.572,417.715 415.594,417.715 415.594,418.066 415.265,418.066    414.943,417.715 414.943,417.364 414.943,417.011 414.615,417.011 414.288,417.011 413.965,417.011 413.636,417.364    413.311,417.364 412.986,417.364 412.656,417.715 412.331,417.715 412.01,418.066 412.01,418.42 412.01,418.771 412.01,419.125    411.682,419.476 411.354,419.476 411.029,419.476 410.702,419.826 410.379,420.177 409.722,420.526 409.4,420.879    409.073,420.879 408.748,420.879 408.422,420.526 408.422,420.177 407.771,420.177 407.446,419.826 406.788,419.826    406.468,420.177 405.814,420.526 405.814,420.879 405.489,421.232 405.489,421.583 404.839,421.583 404.51,421.583    404.182,421.583 403.857,421.935 403.533,421.935 403.21,421.935 402.882,422.285 402.556,422.285 402.178,424.54    402.178,424.744 402.178,425.098 402.178,425.8 402.178,426.153 402.178,426.854 402.178,427.56 402.501,428.262 402.827,428.966    402.827,429.664 403.156,430.019 403.156,430.724 403.156,431.074 403.156,431.428 403.156,431.775 403.156,432.13    403.482,432.831 403.81,433.179 403.81,433.536 403.81,433.887 403.81,434.592 403.81,434.942 403.81,435.293 403.482,435.644    403.482,435.995 403.81,436.696 403.81,437.407 403.81,437.755 404.133,438.457 404.133,438.808 404.461,439.161 404.461,439.509    404.461,439.863 404.781,440.214 405.111,440.567 405.111,440.919 405.436,440.919 405.761,441.273 405.761,441.623    406.413,441.97 406.744,442.326 406.744,442.675 406.744,443.027 407.065,443.027 407.065,443.38 407.065,443.732    407.393,443.732 407.719,443.732 408.047,444.08 407.719,444.437 408.047,444.791 408.047,445.14 408.367,445.14 408.694,445.488    408.694,445.576 409.073,445.576 409.073,445.492   " id="upazila_482" area="upazlia" name="chittagong" bengali="চট্টগ্রাম" parent="chittagong"></polygon></svg>