<svg enable-background="new -106.403 -201.859 629.266 880.536" height="880.536px" id="district_41" viewBox="-106.403 -201.859 629.266 880.536" width="629.266px" x="0px" xml:space="preserve" xmlns="http://www.w3.org/2000/svg" y="0px"><polygon points="333.135,102.33 333.455,100.923 334.435,100.573 334.76,101.275 336.389,100.923 336.389,99.87    337.038,99.518 337.038,98.814 338.021,98.814 338.021,98.112 338.672,97.406 338.021,96.706 338.672,96.002 339.323,95.649    339.65,96.353 339.65,96.706 339.323,97.057 339.975,97.406 339.975,98.112 340.629,98.112 340.955,98.462 341.604,98.112    341.281,97.406 341.281,96.706 341.604,96.002 342.258,96.002 342.581,94.946 342.906,94.242 341.932,93.892 342.258,93.538    342.581,92.485 343.233,92.485 343.561,92.135 343.561,91.432 343.233,90.728 343.233,90.025 343.561,89.321 343.889,89.671    344.538,90.025 345.19,88.969 345.844,89.671 346.822,88.616 347.147,89.671 348.121,90.025 348.449,90.025 349.429,90.375    350.078,90.728 350.406,91.078 350.406,91.782 350.078,92.135 349.429,92.837 349.101,93.189 348.776,93.892 348.449,93.538    348.121,93.189 347.801,93.189 347.801,93.538 348.121,94.242 348.776,94.595 349.755,94.595 350.406,94.595 351.055,94.946    351.712,95.299 351.712,95.649 352.032,94.946 352.032,94.595 352.362,94.595 353.015,94.946 353.664,95.299 353.664,95.649    354.969,96.706 355.295,96.353 355.621,96.706 356.598,97.406 356.273,97.759 356.921,98.814 357.247,98.814 357.575,99.518    357.902,100.22 357.575,100.22 357.247,100.573 356.921,101.275 356.598,101.979 355.948,102.682 354.969,103.034 353.99,102.682    353.341,102.682 352.687,102.682 352.362,102.682 351.712,103.034 350.733,103.034 350.406,102.682 349.755,102.682    349.429,103.034 349.429,103.737 349.755,104.087 349.755,104.44 349.429,104.44 348.776,105.142 348.449,105.142    348.449,105.846 347.801,105.846 347.472,105.142 347.147,104.791 346.492,104.791 346.169,104.791 345.515,105.142    344.866,105.142 344.538,105.142 344.215,105.142 343.561,104.44 343.233,104.44 343.233,105.142 343.233,105.846    343.561,106.199 343.889,106.548 344.215,106.901 344.538,107.252 345.19,107.955 345.515,108.308 345.844,108.658    345.844,109.362 345.515,109.714 344.866,110.067 344.866,110.415 344.866,110.769 344.866,111.12 344.215,111.471    343.889,111.471 343.561,111.12 343.233,110.769 342.581,110.769 342.258,111.12 341.932,111.823 341.604,112.527    341.604,113.229 341.932,113.934 342.258,114.284 342.581,114.635 342.581,114.989 342.581,115.691 341.604,115.691    340.955,116.044 340.303,116.044 339.975,115.691 339.65,115.337 339.65,114.989 339.65,113.934 339.323,113.581 338.998,113.581    338.672,113.229 338.346,112.878 338.021,112.878 338.021,113.581 338.021,113.934 338.021,114.284 337.696,114.635    337.038,114.635 336.718,114.635 335.74,113.934 334.76,114.284 333.455,114.284 333.135,114.284 332.478,114.284    331.826,114.635 331.503,114.635 331.177,114.635 330.846,114.635 330.524,114.635 330.198,114.635 330.198,114.989    330.524,115.691 330.846,116.044 331.503,116.044 331.503,116.395 331.177,116.746 330.524,116.746 330.198,116.395    329.872,116.395 329.546,115.691 329.22,115.691 328.895,115.691 328.57,116.395 328.24,117.096 328.24,117.45 327.912,117.801    327.592,118.151 327.266,118.151 326.941,118.504 326.615,118.855 326.283,118.855 326.283,118.504 325.963,117.801    325.963,117.45 326.283,116.746 326.941,116.395 327.592,116.395 327.912,116.044 327.266,115.691 326.615,115.691    326.283,115.691 325.635,115.337 325.309,115.337 324.656,114.989 324.332,114.989 323.68,115.337 323.03,115.691 322.7,116.044    322.052,116.395 321.723,115.691 321.723,114.989 322.7,113.934 323.352,113.581 323.68,113.229 324.006,112.527 324.656,112.176    325.309,112.176 325.635,112.878 325.635,113.581 325.635,114.284 325.963,114.284 326.283,113.934 326.941,113.229    327.592,112.527 327.912,111.823 328.57,111.12 329.546,110.067 329.872,109.714 330.524,109.011 330.524,108.658    330.846,107.252 331.177,106.901 331.503,106.199 331.826,105.142 331.826,104.791 332.153,104.44 332.153,104.087    332.478,103.384 332.809,103.034 333.135,103.034 333.135,102.682   " id="upazila_415" area="upazlia" name="ajmiriganj" bengali="আজমিরীগঞ্জ" parent="habiganj"></polygon><polygon points="353.015,83.343 353.988,83.694 353.988,84.398 353.988,85.452 354.316,86.156 354.969,86.156    355.618,86.156 356.276,86.507 355.618,87.561 355.295,88.265 355.295,88.968 355.295,89.321 355.618,89.671 355.618,90.025    355.618,90.373 355.618,90.728 355.949,90.728 356.276,90.728 356.924,90.728 357.247,90.373 357.902,90.728 358.227,90.728    358.881,90.728 359.207,91.078 359.532,91.43 360.181,91.781 360.51,92.135 360.838,92.485 361.161,93.538 361.488,93.892    361.813,93.892 362.469,93.538 363.115,93.189 363.442,92.485 363.442,92.135 363.442,91.781 363.442,91.078 363.115,90.025    363.442,89.671 364.744,90.025 365.402,90.373 365.724,90.025 366.373,90.025 367.678,90.728 368.01,91.43 367.678,91.43    367.031,91.43 366.704,91.781 366.373,92.135 366.373,92.485 366.373,92.835 366.05,93.189 365.724,93.189 365.073,93.892    365.073,94.24 364.421,95.296 364.095,96.002 363.77,96.703 363.77,97.057 364.095,97.406 364.744,97.759 365.073,98.11    365.073,98.814 365.402,99.164 365.073,99.516 364.744,99.87 364.095,99.87 363.442,99.87 363.115,99.516 362.787,99.87    362.787,100.572 362.787,100.923 362.469,101.275 362.469,101.978 362.469,102.33 362.787,103.032 363.115,103.383    363.442,104.087 363.77,104.439 364.421,104.439 364.744,104.087 365.073,103.737 365.402,104.087 366.05,104.087    366.704,103.737 367.031,103.737 367.353,103.737 367.678,104.087 368.335,104.087 368.335,104.791 368.656,105.142    368.656,105.493 368.335,105.493 368.01,105.493 367.678,105.845 368.01,106.199 368.335,106.548 368.656,106.901    368.656,107.252 368.335,107.605 367.678,107.955 367.678,107.605 367.031,107.955 367.031,108.307 367.031,108.658    366.704,109.011 366.373,109.362 366.05,109.712 366.05,110.067 366.373,110.415 366.704,110.415 366.704,110.769 366.373,111.12    366.05,111.12 365.724,110.769 365.073,110.769 364.744,110.769 364.744,111.12 364.421,111.471 364.744,111.471 365.073,111.471    365.724,111.823 366.05,112.174 365.724,112.527 365.402,112.878 365.073,113.229 365.073,113.581 365.402,113.581    365.073,113.934 364.744,114.284 364.421,114.284 364.421,114.635 364.744,114.986 365.073,114.986 365.402,114.635    366.05,114.284 366.373,114.284 366.704,114.635 366.373,114.986 366.373,115.338 366.05,115.338 365.402,115.691    365.073,116.395 365.402,116.746 364.421,117.801 364.095,117.801 364.095,118.151 364.095,118.853 363.77,119.207    364.095,119.559 363.77,120.262 363.115,120.614 362.787,120.964 362.469,121.314 362.469,121.668 363.115,121.668    363.442,121.668 364.095,121.668 364.095,122.371 364.095,122.722 363.442,123.073 363.115,123.073 362.787,123.073    362.787,122.371 362.469,122.371 362.141,122.371 361.813,122.722 361.813,123.073 362.141,123.425 363.115,123.777    363.77,124.482 364.095,124.832 364.095,125.184 363.115,125.184 362.469,125.184 362.141,124.832 361.488,124.129    361.161,124.129 360.51,124.129 360.181,124.482 360.51,125.184 360.181,125.886 359.207,126.941 358.881,126.941 358.881,126.59    358.881,126.237 358.881,125.886 358.555,126.237 358.227,126.237 357.902,126.941 357.575,126.941 357.247,126.941    356.924,127.646 356.598,127.996 356.598,128.349 355.949,127.996 355.618,127.996 355.295,127.646 355.295,127.292    354.969,126.941 354.644,127.292 354.644,127.646 354.644,127.996 354.969,127.996 355.295,128.349 354.316,128.349    353.988,128.349 354.316,127.996 353.664,127.292 353.015,126.941 352.687,127.292 352.032,126.941 352.032,127.292    352.687,127.646 352.687,127.996 353.015,128.349 352.687,128.349 352.362,128.349 351.712,127.996 351.384,128.349    350.406,127.996 349.755,128.349 349.427,127.996 349.101,127.996 348.776,127.996 348.121,128.349 347.801,128.349    347.801,128.699 346.822,129.051 346.492,129.403 345.844,129.756 346.492,130.458 346.492,130.81 346.492,131.16    346.169,131.513 345.844,131.16 345.518,131.16 344.865,131.16 344.538,130.81 344.215,131.16 343.889,131.513 343.233,131.513    342.906,131.866 342.258,131.866 341.607,131.866 341.281,131.513 340.955,131.513 340.629,131.866 340.303,132.216    339.975,132.567 339.323,132.917 338.998,132.917 338.672,132.567 338.672,132.216 338.346,132.216 338.024,132.567    338.024,132.917 337.693,132.917 337.693,133.623 337.041,133.623 336.389,133.623 336.067,133.271 336.389,133.271    336.389,132.567 336.067,132.216 335.74,131.866 335.412,132.216 334.763,132.216 333.781,131.866 334.107,131.513    333.781,131.513 334.107,131.16 334.435,131.16 334.435,130.458 334.107,130.106 334.763,129.756 335.74,129.403 336.067,129.403    335.74,129.051 335.412,128.349 334.763,127.646 334.435,127.292 334.435,126.941 334.435,126.59 334.107,126.237    333.781,125.886 333.455,125.184 333.132,125.184 332.806,125.184 332.478,125.536 332.156,125.536 331.503,125.184    330.849,124.832 331.177,124.129 331.177,123.073 330.849,122.722 331.503,122.371 331.826,122.722 332.156,122.722    332.478,122.722 332.806,122.722 333.132,122.722 333.455,122.722 333.781,122.722 333.781,122.019 334.107,121.668    334.107,120.964 334.107,120.614 334.107,120.262 334.107,119.207 333.781,118.151 333.455,117.801 333.455,117.447    333.132,116.746 332.806,116.395 332.806,115.691 332.478,115.338 332.156,114.986 331.826,114.635 332.478,114.284    333.132,114.284 333.455,114.284 334.763,114.284 335.74,113.934 336.718,114.635 337.041,114.635 337.693,114.635    338.024,114.284 338.024,113.934 338.024,113.581 338.024,112.878 338.346,112.878 338.672,113.229 338.998,113.581    339.323,113.581 339.65,113.934 339.65,114.986 339.65,115.338 339.975,115.691 340.303,116.042 340.955,116.042 341.607,115.691    342.581,115.691 342.581,114.986 342.581,114.635 342.258,114.284 341.932,113.934 341.607,113.229 341.607,112.527    341.932,111.823 342.258,111.12 342.581,110.769 343.233,110.769 343.561,111.12 343.889,111.471 344.215,111.471 344.865,111.12    344.865,110.769 344.865,110.415 344.865,110.067 345.518,109.712 345.844,109.362 345.844,108.658 345.518,108.307    345.19,107.955 344.538,107.252 344.215,106.901 343.889,106.548 343.561,106.199 343.233,105.845 343.233,105.142    343.233,104.439 343.561,104.439 344.215,105.142 344.538,105.142 344.865,105.142 345.518,105.142 346.169,104.791    346.492,104.791 347.147,104.791 347.472,105.142 347.801,105.845 348.449,105.845 348.449,105.142 348.776,105.142    349.427,104.439 349.755,104.439 349.755,104.087 349.427,103.737 349.427,103.032 349.755,102.682 350.406,102.682    350.733,103.032 351.712,103.032 352.362,102.682 352.687,102.682 353.341,102.682 353.988,102.682 354.969,103.032    355.949,102.682 356.598,101.978 356.924,101.275 357.247,100.572 357.575,100.22 357.902,100.22 357.575,99.516 357.247,98.814    356.924,98.814 356.276,97.759 356.598,97.406 355.618,96.703 355.295,96.353 354.969,96.703 353.664,95.648 353.664,95.296    353.015,94.946 352.362,94.595 352.032,94.595 352.032,94.946 351.712,95.648 351.712,95.296 351.055,94.946 350.406,94.595    349.755,94.595 348.776,94.595 348.121,94.24 347.801,93.538 347.801,93.189 348.121,93.189 348.449,93.538 348.776,93.892    349.101,93.189 349.427,92.835 350.081,92.135 350.406,91.781 350.406,91.078 350.081,90.728 349.427,90.373 348.449,90.025    348.121,90.025 347.147,89.671 346.822,88.616 347.147,88.265 346.822,87.561 347.147,87.21 347.472,86.507 347.801,86.156    348.121,86.859 348.121,87.561 348.449,87.915 349.101,87.915 349.101,87.21 349.427,86.859 349.755,85.804 350.733,85.804    350.733,85.101 350.406,85.101 350.081,84.75 349.755,84.75 349.427,84.048 349.755,83.694 350.733,83.694 351.055,84.75    351.712,84.398 352.687,84.398   " id="upazila_417" area="upazlia" name="baniachong" bengali="বানিয়াচং" parent="habiganj"></polygon><polygon points="356.276,86.508 356.598,86.508 356.924,87.212 358.227,86.508 357.902,85.804 358.881,85.101    359.532,85.101 359.532,85.804 359.204,86.508 359.532,87.212 359.532,87.561 360.181,86.508 360.51,86.156 360.838,86.508    361.161,87.212 360.51,87.561 361.161,88.969 361.816,88.969 362.469,87.212 363.115,87.561 363.77,87.561 364.095,87.915    364.744,88.265 365.073,87.561 365.724,86.858 366.373,86.508 366.701,87.212 367.353,87.561 368.01,87.212 368.335,86.508    368.982,86.858 369.31,86.508 369.964,86.508 369.964,87.561 370.942,87.915 371.593,87.915 371.916,87.212 372.571,87.212    372.896,87.212 373.221,87.561 373.221,87.915 372.896,88.265 373.221,88.616 373.547,88.969 373.873,88.265 374.198,87.561    374.525,87.915 374.85,88.265 375.176,88.969 374.525,88.969 374.525,89.318 374.525,90.025 375.176,90.025 375.504,89.671    376.156,89.318 376.482,88.616 375.827,87.915 376.482,86.858 376.807,86.508 376.807,87.561 377.133,88.265 377.456,88.969    377.456,87.915 377.456,87.561 377.781,87.212 378.108,87.212 378.436,87.561 378.436,88.265 379.09,89.318 379.74,90.025    380.39,90.375 380.719,90.025 380.068,89.671 379.413,88.265 379.74,87.561 379.74,86.858 380.39,86.508 380.719,86.508    381.367,86.508 381.697,86.508 381.697,86.858 381.697,87.212 382.025,87.915 382.025,88.616 382.347,88.616 383.324,88.969    383.976,88.969 384.302,88.616 384.953,88.616 385.281,87.915 384.302,87.915 383.976,87.561 383.324,87.561 382.673,87.561    382.347,87.212 382.673,86.508 383.976,86.508 384.302,86.156 384.63,85.804 385.281,86.156 384.953,86.858 385.608,87.561    385.933,88.265 386.582,87.915 386.91,88.265 387.237,88.265 387.237,87.915 387.562,87.212 387.887,86.508 388.216,86.508    389.191,86.508 389.191,85.804 389.844,85.452 390.823,85.452 390.493,86.156 389.844,86.858 389.516,87.212 390.17,87.561    389.844,88.616 389.516,88.969 388.539,88.265 388.216,88.616 387.887,88.969 388.216,89.671 388.539,89.671 389.516,89.318    389.516,89.671 389.191,90.375 389.516,90.375 389.844,90.375 389.844,91.432 390.493,91.432 391.151,92.135 391.802,91.432    393.102,92.135 392.78,92.837 393.427,92.837 394.082,93.536 394.734,93.536 395.056,94.24 395.056,94.945 394.407,94.945    394.082,96 394.734,96.354 395.056,95.649 396.691,96.354 396.363,96.703 396.033,97.405 395.713,98.112 394.734,98.112    394.407,97.76 393.427,98.46 393.102,99.164 393.427,99.518 393.427,99.867 393.102,100.573 392.45,100.921 392.122,100.221    391.802,99.867 391.802,99.518 391.473,98.814 390.823,99.164 390.493,98.814 389.844,98.814 389.191,98.814 388.863,98.112    388.216,98.112 387.562,98.112 386.91,97.76 386.91,97.405 387.237,97.405 387.562,97.405 387.887,97.405 388.539,97.057    388.863,97.057 389.191,96.703 388.863,96.354 388.216,95.649 387.887,95.649 386.91,96 386.582,96.703 386.259,97.057    385.933,97.405 384.953,98.46 384.302,99.164 384.302,99.867 384.63,99.867 384.953,99.518 385.933,99.164 386.259,98.814    386.91,99.164 387.237,99.518 387.887,99.867 387.887,100.573 387.887,100.921 387.562,101.625 387.562,101.979 387.562,102.329    388.216,102.329 388.539,102.329 388.863,102.682 388.863,103.034 388.863,103.384 389.191,104.087 389.516,104.44    389.844,104.44 390.17,104.44 390.17,104.79 389.844,105.142 389.516,105.142 388.539,104.79 387.562,105.495 387.237,106.199    387.237,106.547 387.562,106.547 388.216,106.903 388.539,107.25 388.216,107.957 387.887,107.957 387.562,108.658    387.562,109.01 386.582,109.363 385.933,109.712 386.259,110.067 385.933,110.77 385.933,111.12 385.281,111.47 384.953,111.824    383.651,111.824 383.001,112.174 382.673,112.174 383.001,112.878 383.001,113.23 383.001,113.932 383.324,113.932    383.651,114.284 383.976,114.635 383.651,115.337 383.651,115.693 384.302,116.393 384.63,116.746 384.63,117.45 384.63,117.799    383.976,118.504 383.651,118.504 383.001,118.853 383.001,119.207 383.001,120.261 383.001,120.965 382.673,122.372    381.044,122.018 380.39,122.018 379.09,121.668 377.781,121.314 377.133,120.965 376.807,120.614 376.807,119.912    376.807,119.207 376.807,118.504 376.807,117.799 376.482,117.45 375.827,117.45 375.176,117.45 374.85,117.799 374.85,118.151    374.525,117.799 374.198,117.799 373.547,117.45 373.221,117.096 372.896,116.746 372.896,116.044 372.896,115.337    371.916,115.337 371.267,115.337 370.942,115.693 370.942,116.044 370.942,116.393 370.614,116.393 370.287,116.746    370.287,117.096 369.964,117.096 369.31,117.45 368.982,117.096 368.982,116.746 368.656,117.096 368.01,117.096 367.681,117.45    367.353,117.799 366.701,118.151 365.724,118.151 364.744,118.504 364.095,118.853 364.095,118.151 364.095,117.799    364.421,117.799 365.402,116.746 365.073,116.393 365.402,115.693 366.05,115.337 366.373,115.337 366.373,114.989    366.701,114.635 366.373,114.284 366.05,114.284 365.402,114.635 365.073,114.989 364.744,114.989 364.421,114.635    364.421,114.284 364.744,114.284 365.073,113.932 365.402,113.581 365.073,113.581 365.073,113.23 365.402,112.878    365.724,112.527 366.05,112.174 365.724,111.824 365.073,111.47 364.744,111.47 364.421,111.47 364.744,111.12 364.744,110.77    365.073,110.77 365.724,110.77 366.05,111.12 366.373,111.12 366.701,110.77 366.701,110.417 366.373,110.417 366.05,110.067    366.05,109.712 366.373,109.363 366.701,109.01 367.031,108.658 367.031,108.308 367.031,107.957 367.681,107.605    367.681,107.957 368.335,107.605 368.656,107.25 368.656,106.903 368.335,106.547 368.01,106.199 367.681,105.845 368.01,105.495    368.335,105.495 368.656,105.495 368.656,105.142 368.335,104.79 368.335,104.087 367.681,104.087 367.353,103.737    367.031,103.737 366.701,103.737 366.05,104.087 365.402,104.087 365.073,103.737 364.744,104.087 364.421,104.44 363.77,104.44    363.442,104.087 363.115,103.384 362.79,103.034 362.469,102.329 362.469,101.979 362.469,101.275 362.79,100.921 362.79,100.573    362.79,99.867 363.115,99.518 363.442,99.867 364.095,99.867 364.744,99.867 365.073,99.518 365.402,99.164 365.073,98.814    365.073,98.112 364.744,97.76 364.095,97.405 363.77,97.057 363.77,96.703 364.095,96 364.421,95.299 365.073,94.24    365.073,93.893 365.724,93.189 366.05,93.189 366.373,92.837 366.373,92.485 366.373,92.135 366.701,91.781 367.031,91.432    367.681,91.432 368.01,91.432 367.681,90.728 366.373,90.025 365.724,90.025 365.402,90.375 364.744,90.025 363.442,89.671    363.115,90.025 363.442,91.078 363.442,91.781 363.442,92.135 363.442,92.485 363.115,93.189 362.469,93.536 361.816,93.893    361.488,93.893 361.161,93.536 360.838,92.485 360.51,92.135 360.181,91.781 359.532,91.432 359.204,91.078 358.881,90.728    358.227,90.728 357.902,90.728 357.247,90.375 356.924,90.728 356.276,90.728 355.948,90.728 355.618,90.728 355.618,90.375    355.618,90.025 355.618,89.671 355.295,89.318 355.295,88.969 355.295,88.265 355.618,87.561   " id="upazila_422" area="upazlia" name="nabiganj" bengali="নবীগঞ্জ" parent="habiganj"></polygon><polygon points="366.701,118.151 367.356,117.801 367.681,117.447 368.01,117.096 368.656,117.096    368.982,116.746 368.982,117.096 369.31,117.447 369.964,117.096 370.284,117.096 370.284,116.746 370.614,116.395    370.942,116.395 370.942,116.042 370.942,115.691 371.267,115.338 371.916,115.338 372.896,115.338 372.896,116.042    372.896,116.746 373.219,117.096 373.55,117.447 374.198,117.801 374.525,117.801 374.85,118.151 374.85,117.801 375.176,117.447    375.827,117.447 376.482,117.447 376.807,117.801 376.807,118.503 376.807,119.207 376.807,119.909 376.807,120.614    377.135,120.964 377.781,121.314 379.09,121.668 380.39,122.019 381.044,122.019 382.673,122.371 382.347,122.723    383.001,123.425 383.324,123.777 383.001,124.129 382.673,124.129 382.673,124.832 383.001,125.536 383.001,125.886    383.001,126.237 383.001,126.59 383.324,126.941 383.651,127.292 383.651,127.646 383.651,128.349 383.976,129.051    383.976,129.403 383.651,130.106 383.001,130.458 383.001,130.81 383.001,131.513 383.001,131.866 383.001,132.567    382.673,133.271 383.001,133.623 383.324,134.324 383.976,134.678 383.976,135.38 383.976,135.733 383.651,136.436    383.651,137.139 383.651,137.841 383.976,138.544 383.976,139.247 383.976,139.951 384.304,141.005 384.304,142.061    384.63,143.467 383.651,143.467 383.001,143.818 382.347,143.467 381.697,143.467 381.044,143.467 380.39,143.467 379.74,143.467    379.413,143.114 378.764,143.467 378.111,143.467 377.456,143.467 377.135,143.818 376.482,143.818 375.827,143.467    375.176,143.467 374.525,143.818 374.198,144.169 373.873,144.521 373.219,144.521 372.896,144.521 372.896,144.873    372.896,145.576 372.896,145.928 373.219,146.279 373.219,146.632 372.896,146.981 372.896,147.336 372.571,146.981    372.241,146.981 371.916,146.279 371.59,145.928 371.267,145.928 370.942,145.576 370.614,145.576 370.284,145.226    369.964,145.226 369.964,145.576 370.284,145.928 370.614,146.279 370.284,146.632 370.284,146.279 369.964,146.632    369.31,146.279 368.656,145.576 368.656,145.226 368.335,145.226 368.01,145.226 368.01,145.576 367.356,145.576 367.028,145.226    367.356,144.521 367.681,144.169 368.01,143.467 368.335,142.762 368.335,142.412 368.335,142.061 368.01,141.708    367.356,141.357 367.028,141.357 366.701,140.653 366.701,140.303 366.701,139.951 366.05,139.601 366.05,139.247    365.721,138.896 365.721,138.193 365.402,137.841 365.073,137.139 365.073,136.436 365.073,135.733 365.073,135.38    365.402,135.027 365.721,134.678 366.05,133.974 366.373,133.974 366.701,133.271 367.028,132.917 367.028,132.567    367.356,132.216 367.356,131.866 367.356,131.16 367.356,130.81 367.356,130.458 367.356,130.106 367.681,130.106 368.01,129.756    368.01,129.403 367.681,129.051 367.681,128.699 368.01,127.996 368.335,127.646 368.335,127.292 368.335,126.941    368.335,126.237 368.335,125.184 368.656,124.832 368.335,124.482 368.335,123.777 368.335,123.425 368.656,122.723    368.982,122.371 369.31,121.668 368.982,121.314 368.982,120.614 368.335,120.262 368.01,119.909 367.356,119.559    367.028,119.559   " id="upazila_416" area="upazlia" name="bahubal" bengali="বাহুবল" parent="habiganj"></polygon><polygon points="364.095,118.853 364.747,118.504 365.721,118.151 366.701,118.151 367.028,119.559    367.353,119.559 368.01,119.912 368.335,120.261 368.982,120.614 368.982,121.314 369.31,121.668 368.982,122.372    368.656,122.722 368.335,123.427 368.335,123.777 368.335,124.479 368.656,124.833 368.335,125.184 368.335,126.237    368.335,126.939 368.335,127.294 368.335,127.646 368.01,127.996 367.681,128.699 367.681,129.053 368.01,129.401 368.01,129.756    367.681,130.106 367.353,130.106 367.353,130.459 367.353,130.81 367.353,131.159 367.353,131.863 367.353,132.216    367.028,132.567 367.028,132.92 366.701,133.271 366.373,133.976 366.05,133.976 365.721,134.678 365.402,135.026    365.073,135.381 365.073,135.733 365.073,136.437 365.073,137.139 365.402,137.842 365.721,138.193 365.721,138.896    366.05,139.247 366.05,139.601 366.701,139.95 366.701,140.304 366.701,140.654 367.028,141.357 367.353,141.357 368.01,141.708    368.335,142.063 368.335,142.411 368.335,142.765 368.01,143.466 367.681,144.169 367.353,144.524 367.028,145.226    366.373,145.578 365.721,145.226 365.073,145.226 364.421,145.226 362.787,145.578 362.469,145.578 362.469,146.279    362.469,146.631 362.787,147.335 362.469,147.688 361.816,148.038 361.488,148.038 361.161,147.688 360.51,147.688    360.184,148.038 359.531,147.688 358.227,147.688 357.575,147.688 356.921,148.038 356.273,148.038 355.621,148.038    354.969,148.038 353.664,148.391 352.687,148.391 352.687,147.688 352.359,147.335 351.712,146.631 350.733,146.631    350.078,146.631 349.755,146.631 348.776,146.983 348.449,146.631 348.121,146.983 347.472,146.983 347.147,146.279    346.822,145.929 346.169,145.578 346.492,145.226 347.147,144.871 347.472,144.524 347.472,143.818 347.147,143.116    347.147,142.411 347.147,141.708 347.147,141.357 347.472,141.005 347.472,140.304 347.472,139.95 347.798,139.247    347.798,138.542 347.798,138.193 347.798,137.488 347.472,136.785 347.472,135.026 347.472,134.324 347.472,133.976    347.472,133.621 347.147,133.271 346.822,133.271 346.169,133.271 345.518,133.271 344.866,133.271 344.538,132.567    344.215,132.216 343.889,131.514 344.215,131.159 344.538,130.81 344.866,131.159 345.518,131.159 345.844,131.159    346.169,131.514 346.492,131.159 346.492,130.81 346.492,130.459 345.844,129.756 346.492,129.401 346.822,129.053    347.798,128.699 347.798,128.349 348.121,128.349 348.776,127.996 349.101,127.996 349.427,127.996 349.755,128.349    350.406,127.996 351.384,128.349 351.712,127.996 352.359,128.349 352.687,128.349 353.015,128.349 352.687,127.996    352.687,127.646 352.032,127.294 352.032,126.939 352.687,127.294 353.015,126.939 353.664,127.294 354.319,127.996    353.988,128.349 354.319,128.349 355.295,128.349 354.969,127.996 354.644,127.996 354.644,127.646 354.644,127.294    354.969,126.939 355.295,127.294 355.295,127.646 355.621,127.996 355.948,127.996 356.598,128.349 356.598,127.996    356.921,127.646 357.247,126.939 357.575,126.939 357.902,126.939 358.227,126.237 358.555,126.237 358.884,125.886    358.884,126.237 358.884,126.59 358.884,126.939 359.207,126.939 360.184,125.886 360.51,125.184 360.184,124.479 360.51,124.129    361.161,124.129 361.488,124.129 362.141,124.833 362.469,125.184 363.114,125.184 364.095,125.184 364.095,124.833    363.77,124.479 363.114,123.777 362.141,123.427 361.816,123.073 361.816,122.722 362.141,122.372 362.469,122.372    362.787,122.372 362.787,123.073 363.114,123.073 363.445,123.073 364.095,122.722 364.095,122.372 364.095,121.668    363.445,121.668 363.114,121.668 362.469,121.668 362.469,121.314 362.787,120.965 363.114,120.614 363.77,120.261    364.095,119.559 363.77,119.207   " id="upazila_419" area="upazlia" name="habiganjsadar" bengali="হবিগঞ্জ-সদর" parent="habiganj"></polygon><polygon points="334.107,130.106 334.435,130.458 334.435,131.16 334.107,131.16 333.781,131.513 334.107,131.513    333.781,131.863 334.763,132.216 335.412,132.216 335.739,131.863 336.067,132.216 336.389,132.567 336.389,133.269    336.067,133.269 336.389,133.623 337.038,133.623 337.696,133.623 337.696,132.917 338.021,132.917 338.021,132.567    338.346,132.216 338.672,132.216 338.672,132.567 338.998,132.917 339.323,132.917 339.975,132.567 340.301,132.216    340.629,131.863 340.955,131.513 341.281,131.513 341.604,131.863 342.258,131.863 342.906,131.863 343.233,131.513    343.889,131.513 344.215,132.216 344.538,132.567 344.866,133.269 345.518,133.269 346.169,133.269 346.822,133.269    347.147,133.269 347.472,133.623 347.472,133.974 347.472,134.324 347.472,135.027 347.472,136.785 347.798,137.49    347.798,138.192 347.798,138.544 347.798,139.247 347.472,139.951 347.472,140.303 347.472,141.004 347.147,141.357    347.147,141.708 347.147,142.412 347.147,143.114 347.472,143.818 347.472,144.521 347.147,144.871 346.492,145.226    346.169,145.576 345.844,145.928 345.19,146.279 344.538,146.279 344.215,145.928 343.561,145.928 342.906,145.928    342.581,146.279 342.258,146.632 341.604,146.981 341.281,147.335 340.955,148.038 340.301,149.092 339.975,149.795    339.975,150.147 339.65,151.202 339.975,151.555 340.629,151.905 340.301,152.256 339.975,152.256 339.65,152.256    339.323,152.256 338.998,152.256 338.346,152.256 338.021,152.256 337.696,152.256 337.038,152.256 336.067,152.256    335.412,151.905 334.435,151.555 333.781,151.202 333.135,151.202 332.478,150.849 331.503,150.849 330.524,150.849    329.872,150.849 328.895,150.499 328.24,150.499 327.592,149.795 327.266,149.445 326.613,148.741 325.963,147.688    325.309,146.632 325.309,146.279 325.635,146.279 326.283,145.928 326.613,145.576 327.266,145.226 327.592,144.521    327.912,143.818 328.24,143.466 328.24,142.762 327.912,142.412 326.941,142.412 326.283,142.762 325.635,143.114    324.981,143.466 323.68,143.818 323.352,144.169 323.03,143.818 323.03,143.466 323.03,142.762 323.352,142.061 323.352,141.357    324.009,139.951 324.656,138.896 324.656,138.544 324.981,138.192 325.635,138.192 326.283,138.192 326.941,138.192    328.24,138.192 328.895,138.192 329.872,138.544 330.524,138.896 331.503,138.896 332.153,139.247 333.135,139.247    333.455,138.896 333.455,138.544 333.781,138.192 333.781,137.49 333.455,136.785 333.135,136.083 332.809,135.027    332.153,134.324 331.503,133.269 330.524,132.216 331.177,131.513 330.846,131.16 331.826,131.16 332.478,131.16 332.809,131.513      " id="upazila_420" area="upazlia" name="lakhai" bengali="লাখাই" parent="habiganj"></polygon><polygon points="345.19,146.279 345.844,145.929 346.169,145.576 346.822,145.929 347.147,146.279    347.475,146.983 348.121,146.983 348.449,146.632 348.776,146.983 349.755,146.632 350.078,146.632 350.733,146.632    351.707,146.632 352.362,147.336 352.687,147.688 352.687,148.391 352.362,149.092 352.687,149.445 352.035,151.202    352.035,151.555 352.362,152.61 352.362,153.312 352.035,154.016 352.035,155.422 352.035,155.772 351.707,156.125    352.035,156.477 352.035,157.18 352.035,157.532 352.362,158.585 352.362,159.29 353.015,160.344 353.015,161.046    353.341,161.398 353.664,162.103 354.319,163.157 354.969,163.86 355.295,164.915 355.621,165.97 355.948,167.024 356.273,168.08    356.924,169.135 355.948,169.135 355.621,169.135 355.295,169.135 354.969,169.135 354.319,169.135 353.664,169.487    353.341,169.487 352.687,169.135 352.362,169.487 352.362,169.837 352.362,170.891 352.362,171.597 352.362,172.299    352.362,173.354 352.687,174.056 353.015,174.408 353.664,175.111 353.988,175.814 354.969,177.222 354.969,177.924    354.969,178.626 354.969,179.331 354.644,180.386 354.319,181.091 353.988,181.792 353.015,182.496 352.362,183.55    352.035,184.253 352.035,185.306 352.035,185.659 352.362,186.012 352.362,186.713 352.362,187.066 352.687,187.418    352.687,188.472 352.687,188.823 352.362,188.472 352.035,188.472 351.384,188.12 351.055,187.769 350.078,187.418    349.755,187.418 349.429,187.418 349.101,187.418 348.449,187.418 348.121,187.418 347.147,187.418 346.822,186.713    346.822,186.363 346.492,186.363 346.169,186.363 345.844,186.012 345.19,186.012 344.538,186.363 342.906,185.659    342.581,185.306 342.258,185.306 341.932,184.957 341.607,184.957 341.607,184.605 341.607,184.253 341.932,183.902    342.258,183.55 341.932,182.847 341.607,182.496 341.932,182.496 342.258,182.496 342.906,182.847 343.233,182.847    343.561,182.143 343.561,181.792 343.233,181.091 343.561,180.737 343.889,180.386 343.889,179.682 343.889,179.331    343.889,178.979 343.561,178.626 343.233,178.275 342.906,177.924 342.906,177.572 342.906,176.869 342.581,176.517    342.258,176.517 341.932,176.166 341.607,176.166 341.281,176.166 340.952,176.166 340.629,176.166 340.303,176.166    340.303,175.814 340.303,175.463 340.303,175.111 340.303,174.408 340.303,174.056 340.303,173.354 340.629,173.002    340.952,172.299 340.952,171.947 340.952,171.597 340.952,170.891 340.303,170.891 339.65,170.891 339.65,171.244    339.323,171.597 338.672,171.244 338.021,170.891 337.696,170.541 337.696,169.837 338.021,169.135 338.346,168.431    338.672,168.431 339.65,168.431 339.975,168.431 340.303,168.431 340.629,168.08 340.952,167.729 340.629,167.377    340.303,167.377 339.975,167.729 339.65,167.377 339.65,167.024 339.323,167.024 338.998,167.024 338.672,167.024    338.021,166.674 338.021,165.97 338.021,165.268 338.346,164.915 338.021,164.213 337.366,164.213 337.041,164.213    337.041,163.86 337.041,163.51 337.366,163.51 338.021,162.806 338.021,162.454 338.021,161.75 338.346,161.75 338.998,161.046    338.998,160.344 338.998,159.993 338.998,159.64 338.998,158.939 339.323,158.585 339.975,158.585 340.303,157.883    340.629,157.883 341.281,157.883 341.932,157.532 342.258,157.18 342.581,156.828 342.906,156.828 343.561,157.18    343.889,157.532 344.215,157.532 344.215,156.828 343.889,156.477 344.215,155.772 343.889,155.422 343.889,155.07    343.233,155.07 342.906,155.422 342.581,155.422 342.258,155.422 341.607,155.772 341.281,155.772 340.952,156.125    340.303,156.477 339.65,156.477 339.323,156.477 338.998,156.125 338.672,155.422 338.998,155.07 339.65,154.367 339.975,154.016    339.975,153.665 339.975,152.959 340.303,152.959 340.952,153.312 340.952,153.665 341.607,153.665 341.932,153.312    341.932,152.959 341.932,152.258 342.258,151.905 342.906,152.258 342.906,152.61 343.233,152.258 343.561,151.555    344.215,151.202 344.866,151.202 345.19,151.555 345.515,151.202 345.515,150.849 345.515,150.148 345.844,149.445    346.169,149.092 345.844,148.742 345.844,148.038 345.515,147.688 345.515,147.336 345.515,146.632   " id="upazila_421" area="upazlia" name="madhabpur" bengali="মাধবপুর" parent="habiganj"></polygon><polygon points="367.031,145.226 367.353,145.576 368.01,145.576 368.01,145.226 368.335,145.226 368.656,145.226    368.656,145.576 369.31,146.279 369.964,146.632 370.287,146.279 370.287,146.632 370.614,146.279 370.287,145.929    369.964,145.576 369.964,145.226 370.287,145.226 370.614,145.576 370.942,145.576 371.267,145.929 371.593,145.929    371.916,146.279 372.241,146.981 372.571,146.981 372.896,147.336 372.896,146.981 373.221,146.632 373.221,146.279    372.896,145.929 372.896,145.576 372.896,144.873 372.896,144.521 373.221,144.521 373.873,144.521 374.198,144.169    374.525,143.818 375.176,143.467 375.827,143.467 376.482,143.818 377.133,143.818 377.456,143.467 378.108,143.467    378.764,143.467 379.413,143.114 379.74,143.467 380.39,143.467 381.044,143.467 381.697,143.467 382.347,143.467    383.001,143.818 383.651,143.467 384.63,143.467 384.63,143.818 384.63,144.521 384.63,145.226 384.63,145.576 384.953,145.929    385.281,146.632 384.953,148.39 384.953,148.742 384.953,149.445 385.281,149.797 385.281,150.499 385.281,150.849    385.608,151.555 385.933,151.905 385.933,152.61 386.582,154.016 386.91,154.367 387.237,154.716 387.237,155.772    387.562,156.125 388.216,156.125 388.216,156.477 388.539,156.828 388.863,157.532 388.863,158.234 389.191,159.29    389.191,159.64 388.863,160.344 388.863,161.046 389.191,161.398 389.191,162.103 389.191,162.453 388.863,162.806    388.539,163.157 388.216,163.86 387.562,164.915 387.887,165.268 388.216,165.618 388.216,166.321 388.539,167.377    388.539,168.08 388.539,168.781 388.216,169.487 387.887,169.837 387.562,170.188 386.91,170.541 386.582,170.541    386.259,170.891 385.933,170.891 385.281,170.891 384.953,171.244 384.302,171.594 383.976,171.244 383.651,170.891    383.324,170.891 382.673,170.891 382.347,171.244 382.022,171.244 382.022,171.947 382.673,172.299 382.673,172.648    382.347,172.648 382.347,173.002 382.347,173.705 382.022,173.705 381.367,174.056 380.719,174.056 380.068,173.705    379.74,173.705 379.09,173.705 378.764,173.705 378.436,173.705 377.781,173.705 377.456,173.705 376.807,173.705    376.807,174.056 376.482,174.056 376.156,173.705 375.827,173.705 375.504,174.056 375.176,174.056 374.85,173.705    374.198,173.705 374.198,173.354 372.571,173.002 372.241,173.002 371.916,172.648 371.593,172.648 370.942,172.648    370.287,172.648 368.656,172.299 368.335,171.947 368.335,171.594 368.01,171.244 368.01,170.891 367.353,171.244    367.031,171.244 366.701,171.244 366.373,170.891 365.724,170.541 364.744,170.541 364.421,170.891 363.77,170.891    363.442,170.891 363.115,170.891 362.787,170.541 362.469,170.541 362.141,170.541 361.816,170.891 361.488,170.891    361.161,170.541 361.161,170.188 360.838,170.188 360.51,170.188 360.181,170.541 359.856,170.188 359.856,169.837    359.856,169.487 359.532,169.487 358.881,169.487 358.555,169.135 357.902,169.135 356.924,169.135 356.276,168.08    355.948,167.024 355.618,165.97 355.295,164.915 354.969,163.86 354.316,163.157 353.664,162.103 353.344,161.398    353.015,161.046 353.015,160.344 352.362,159.29 352.362,158.585 352.035,157.532 352.035,157.18 352.035,156.477    351.712,156.125 352.035,155.772 352.035,155.422 352.035,154.016 352.362,153.312 352.362,152.61 352.035,151.555    352.035,151.202 352.687,149.445 352.362,149.092 352.687,148.39 353.664,148.39 354.969,148.038 355.618,148.038    356.276,148.038 356.924,148.038 357.575,147.688 358.227,147.688 359.532,147.688 360.181,148.038 360.51,147.688    361.161,147.688 361.488,148.038 361.816,148.038 362.469,147.688 362.787,147.336 362.469,146.632 362.469,146.279    362.469,145.576 362.787,145.576 364.421,145.226 365.073,145.226 365.724,145.226 366.373,145.576   " id="upazila_418" area="upazlia" name="chunarughat" bengali="চুনারুঘাট" parent="habiganj"></polygon></svg>