<svg enable-background="new -106.403 -201.859 629.266 880.536" height="880.536px" id="district_41" viewBox="-106.403 -201.859 629.266 880.536" width="629.266px" x="0px" xml:space="preserve" xmlns="http://www.w3.org/2000/svg" y="0px"><polygon points="193.632,248.243 193.957,247.893 193.957,247.542 193.957,246.841 194.283,246.135    193.957,245.782 194.609,245.08 194.937,244.727 195.912,244.028 196.24,243.674 196.566,243.32 196.891,242.267 196.891,241.917    196.891,241.563 197.869,240.512 198.195,239.805 198.52,238.753 198.845,239.805 198.845,240.512 198.845,240.859 199.5,240.859    200.149,241.563 200.476,241.563 200.802,241.211 201.127,241.211 201.454,241.211 201.454,241.563 201.454,241.917    201.454,242.267 201.781,242.622 202.105,242.622 202.758,242.969 202.758,242.622 203.083,242.622 203.737,242.267    204.063,242.267 204.387,242.622 205.038,242.622 205.366,242.969 205.691,242.969 206.017,242.969 206.344,242.267    206.669,241.917 206.994,242.267 207.646,242.267 207.971,242.622 207.971,242.969 208.299,243.32 208.626,243.674    208.951,244.028 209.277,244.376 208.951,244.727 209.602,244.727 209.602,245.431 209.602,245.782 209.928,246.135    210.255,246.135 210.578,245.782 210.907,245.782 210.907,244.727 211.233,244.376 211.561,244.376 211.883,244.376    212.211,244.727 212.211,245.08 212.536,245.431 212.862,245.782 213.19,246.135 212.862,246.841 212.536,246.841    212.211,246.841 211.883,246.841 211.561,246.841 211.561,247.191 211.561,247.542 211.233,247.893 210.907,248.243    210.907,248.949 210.578,248.949 210.255,249.303 210.255,249.65 210.578,249.65 210.907,249.65 210.907,250 211.233,250.355    211.561,250.355 211.883,250.706 212.536,251.057 212.862,251.057 213.19,251.057 213.512,251.057 213.84,251.407 214.49,251.407    214.819,251.407 214.819,251.761 215.469,252.111 215.794,252.467 215.794,252.817 215.469,253.167 215.144,253.167    214.819,253.519 214.819,254.223 214.819,254.922 214.165,254.922 213.84,254.922 213.512,254.922 213.512,255.275    213.512,255.629 213.19,256.332 213.19,256.686 212.862,257.387 212.536,257.734 212.536,258.088 212.211,258.088    212.211,258.443 212.862,258.793 213.19,258.793 213.19,259.144 212.536,259.498 212.211,259.498 211.561,259.498    211.233,259.144 210.907,259.144 210.907,258.793 210.578,258.443 210.255,258.443 209.928,258.443 209.277,258.443    208.951,258.793 208.299,259.498 207.971,259.144 207.971,258.793 207.646,258.443 207.321,258.793 206.994,259.144    206.994,259.498 206.669,259.498 206.344,259.498 206.017,259.498 206.017,259.144 205.691,259.144 205.366,259.498    205.038,259.498 204.387,259.848 203.737,259.498 203.408,259.498 202.758,259.144 202.431,259.144 201.781,259.144    201.127,259.498 200.476,259.144 200.149,259.144 199.5,259.144 199.172,258.793 198.845,259.144 198.195,259.498    197.541,260.197 197.218,260.901 197.218,261.252 197.541,261.606 198.52,261.606 199.5,262.311 200.149,263.012 200.802,263.713    201.127,264.067 199.823,263.363 199.5,263.363 199.172,263.363 198.845,263.713 198.52,264.067 198.195,264.067 198.195,264.419    198.195,264.77 197.541,264.77 196.891,263.363 196.566,263.012 196.24,263.012 195.589,263.363 195.261,263.363 194.937,263.012    194.609,262.311 194.283,262.311 193.632,262.661 193.307,262.661 192.979,262.311 192.979,261.252 192.979,260.551    192.979,260.197 193.307,259.848 192.979,259.848 192.655,259.498 192.326,258.793 192.326,258.443 192.003,258.088    191.676,257.734 190.699,257.734 189.721,254.223 190.046,253.869 190.046,253.519 190.374,252.817 190.699,252.111    190.699,251.407 190.374,250.706 190.374,250.355 190.699,249.65 191.026,249.303 191.35,249.303 191.676,249.303    192.003,249.303 192.655,249.303 192.979,248.949   " id="upazila_177" area="upazlia" name="sreenagar" bengali="শ্রীনগর" parent="munshiganj"></polygon><polygon points="198.522,238.751 198.845,239.102 199.5,238.751 199.5,238.047 199.5,237.343 199.5,236.64    199.5,235.938 199.823,235.587 200.151,235.587 200.476,235.587 201.127,235.587 202.105,235.938 202.433,235.587    202.758,235.233 202.758,234.179 203.408,234.179 204.063,233.828 204.713,233.125 205.691,233.477 206.669,234.179    207.648,234.882 208.299,235.233 209.277,235.938 209.93,236.64 210.255,236.994 211.561,237.698 212.211,237.698    212.536,237.698 213.512,237.698 214.165,237.698 214.493,236.994 215.144,236.64 215.144,236.291 215.794,235.938    216.445,235.938 217.098,235.938 218.405,235.938 219.052,236.291 219.38,236.994 220.031,237.698 220.684,237.698 221.012,238.4    221.662,238.751 222.313,239.454 222.641,240.157 222.966,240.51 223.291,241.211 223.616,241.563 223.945,241.913    223.945,242.622 224.27,243.323 224.27,244.024 224.27,244.727 224.27,245.431 224.27,246.837 224.27,247.542 224.27,248.243    224.595,249.303 224.917,250.003 225.245,250.003 225.245,250.706 225.573,251.407 224.917,252.109 224.27,252.467    223.945,253.167 223.291,253.869 222.966,254.223 222.313,254.223 221.662,254.223 221.337,254.223 221.337,254.571    221.337,254.925 221.337,255.629 221.337,255.98 221.012,255.98 221.012,255.629 221.012,254.571 220.684,254.223    220.356,254.223 219.708,254.571 219.38,254.571 219.052,254.925 219.052,255.629 219.052,256.332 218.73,257.387 218.73,257.737    218.405,257.737 218.405,258.088 218.076,258.088 217.751,258.088 217.098,257.737 216.773,257.737 216.445,257.737    216.122,257.737 215.469,257.737 215.144,257.737 214.819,257.387 215.144,257.033 215.144,256.686 215.469,256.332    215.794,255.98 216.122,255.629 216.122,255.275 215.794,254.925 214.819,254.223 214.819,253.519 215.144,253.167    215.469,253.167 215.794,252.817 215.794,252.467 215.469,252.109 214.819,251.758 214.819,251.407 214.493,251.407    213.84,251.407 213.512,251.06 213.19,251.06 212.862,251.06 212.536,251.06 211.883,250.706 211.561,250.355 211.233,250.355    210.907,250.003 210.907,249.65 210.578,249.65 210.255,249.65 210.255,249.303 210.578,248.945 210.907,248.945 210.907,248.243    211.233,247.893 211.561,247.542 211.561,247.188 211.561,246.837 211.883,246.837 212.211,246.837 212.536,246.837    212.862,246.837 213.19,246.135 212.862,245.782 212.536,245.431 212.211,245.08 212.211,244.727 211.883,244.376    211.561,244.376 211.233,244.376 210.907,244.727 210.907,245.782 210.578,245.782 210.255,246.135 209.93,246.135    209.602,245.782 209.602,245.431 209.602,244.727 208.951,244.727 209.277,244.376 208.951,244.024 208.626,243.674    208.299,243.323 207.971,242.969 207.971,242.622 207.648,242.267 206.995,242.267 206.669,241.913 206.344,242.267    206.017,242.969 205.691,242.969 205.368,242.969 205.037,242.622 204.387,242.622 204.063,242.267 203.734,242.267    203.084,242.622 202.758,242.622 202.758,242.969 202.105,242.622 201.781,242.622 201.452,242.267 201.452,241.913    201.452,241.563 201.452,241.211 201.127,241.211 200.804,241.211 200.476,241.563 200.151,241.563 199.5,240.859    198.845,240.859 198.845,240.51 198.845,239.805   " id="upazila_176" area="upazlia" name="sirajdikhan" bengali="সিরাজদিখান" parent="munshiganj"></polygon><polygon points="237.307,247.191 238.611,247.542 239.586,248.243 240.24,248.595 240.568,249.303    241.218,250.003 241.543,250.706 241.871,251.407 242.197,252.111 243.175,252.467 244.154,252.111 244.476,252.467    244.476,252.813 244.476,253.167 244.476,254.223 244.476,255.275 244.154,256.686 244.154,257.387 244.476,258.091    244.804,259.144 244.804,260.197 245.454,260.901 245.129,261.252 244.804,261.956 244.476,262.661 244.476,263.363    244.154,264.067 244.154,264.416 243.825,265.474 243.5,266.176 243.175,266.526 242.847,267.231 242.847,267.932    242.519,268.287 241.871,268.638 241.871,269.339 241.218,270.043 240.893,270.746 240.24,271.801 239.586,272.506    239.264,273.558 238.939,274.264 238.611,275.319 238.611,275.669 238.611,276.018 238.611,276.722 238.282,276.722    237.632,276.722 236.979,276.371 236.006,276.018 235.678,275.669 235.025,275.319 234.374,275.319 234.374,274.968    233.399,273.912 233.399,273.208 233.399,272.506 233.399,271.801 232.745,271.45 232.417,271.096 231.764,270.043    232.417,269.689 232.417,268.287 231.764,267.932 232.092,267.231 232.092,266.526 233.071,266.526 233.399,265.824    233.399,265.12 233.071,264.77 233.399,264.067 234.046,263.012 234.699,263.363 234.699,262.661 234.699,261.956    234.046,261.606 234.046,260.901 234.046,259.848 234.046,259.495 234.046,259.144 233.399,259.144 233.071,258.793    232.745,258.443 232.417,258.091 232.417,257.734 232.092,258.091 231.439,258.091 231.114,257.734 230.785,258.091    230.463,257.734 230.785,257.033 230.463,256.686 230.463,255.98 230.138,255.629 230.138,255.275 230.138,254.925    230.138,254.571 230.138,253.869 230.463,253.519 230.463,253.167 230.785,252.467 230.785,252.111 231.114,251.407    231.114,251.057 231.114,250.706 230.463,250.706 230.138,250.706 229.813,250.706 229.485,250.706 229.156,250.355    229.485,250.355 229.813,250.355 230.138,250.003 230.463,250.003 229.813,249.303 230.463,248.595 230.785,248.949    231.439,248.949 232.092,248.243 232.092,247.542 232.417,247.542 233.071,247.191 234.046,247.191 234.699,246.841    236.006,246.841 236.654,247.191   " id="upazila_175" area="upazlia" name="munshiganj" bengali="মুন্সিগঞ্জ সদর" parent="munshiganj"></polygon><polygon points="260.774,259.144 261.427,258.793 261.427,258.443 261.591,258.268 261.752,258.088    261.755,258.088 262.08,258.088 262.08,257.387 262.08,256.686 261.752,256.332 261.591,256.155 261.427,255.98 261.099,255.626    260.774,255.275 260.448,254.571 260.281,254.395 260.12,254.221 259.795,253.519 259.47,252.813 259.145,252.467    259.145,251.761 259.145,251.407 258.82,251.057 258.82,250.706 258.494,250.003 258.163,250.003 257.513,249.65 257.188,248.945    256.537,248.945 255.559,248.243 254.906,248.243 254.58,248.945 253.933,248.595 253.605,248.595 253.277,247.893    253.605,247.539 253.605,247.191 253.605,246.487 253.933,246.135 254.255,245.782 254.58,245.782 254.906,245.782    255.559,245.782 255.887,245.782 256.212,245.782 256.212,245.431 255.887,244.727 255.887,244.376 255.559,243.674    255.231,243.323 255.231,242.969 254.906,242.267 254.58,241.917 254.255,241.563 253.933,241.563 253.277,241.563    252.951,241.563 252.301,241.917 251.97,241.563 251.323,241.563 251,241.211 250.781,241.445 250.669,241.563 250.019,241.917    249.541,242.259 249.53,242.267 249.037,242.622 248.39,243.32 248.39,243.32 248.387,243.323 247.74,243.323 246.758,243.323    245.78,242.969 244.804,242.969 244.315,243.323 243.825,243.674 243.825,243.674 243.175,243.674 243.011,243.766    242.522,244.028 242.197,244.727 242.032,245.077 241.871,245.431 241.871,245.782 242.197,247.188 242.197,247.191    242.197,248.243 242.522,248.595 242.847,248.945 243.5,249.65 244.154,250.355 244.154,250.706 244.476,251.758 244.476,251.758    244.476,251.761 244.154,252.111 244.476,252.467 244.476,252.813 244.476,253.167 244.476,254.221 244.476,255.275    244.154,256.686 244.154,257.387 244.476,258.088 244.804,259.144 244.804,260.197 245.454,260.901 245.78,260.547    246.433,260.547 247.086,260.197 247.74,260.197 248.065,259.848 248.387,260.197 249.037,260.197 249.694,260.197    250.344,259.848 250.669,259.495 250.997,258.793 251.648,258.443 251.97,258.443 252.951,258.088 253.605,258.443    253.933,258.793 254.255,258.793 254.906,259.144 255.231,259.495 255.887,259.848 256.537,260.197 257.513,260.197    257.841,260.197 258.494,260.197 259.145,260.197 259.795,259.495   " id="upazila_461" area="upazlia" name="gajaria" bengali="গজারিয়া" parent="munshiganj"></polygon><polygon points="225.573,251.407 226.552,251.758 226.877,251.758 227.531,251.06 228.831,250.703    229.159,250.003 229.81,249.303 230.463,250.003 230.138,250.003 229.81,250.355 229.485,250.355 229.159,250.355    229.485,250.703 229.81,250.703 230.138,250.703 230.463,250.703 231.114,250.703 231.114,251.06 231.114,251.407    230.785,252.111 230.785,252.467 230.463,253.167 230.463,253.519 230.138,253.869 230.138,254.571 230.138,254.925    230.138,255.275 230.138,255.626 230.463,255.98 230.463,256.686 230.785,257.033 230.463,257.737 230.785,258.088    231.114,257.737 231.439,258.088 232.092,258.088 232.417,257.737 232.417,258.088 232.745,258.439 233.071,258.793    233.396,259.147 234.046,259.147 234.046,259.498 234.046,259.848 234.046,260.901 234.046,261.606 234.699,261.956    234.699,262.661 234.699,263.36 234.046,263.012 233.396,264.067 233.071,264.77 233.396,265.12 233.396,265.824 233.071,266.526    232.092,266.526 232.092,267.231 231.764,267.932 232.417,268.287 232.417,269.689 231.764,270.042 232.417,271.096    232.745,271.45 233.396,271.801 233.396,272.506 232.417,272.156 231.439,271.801 230.785,271.801 229.81,271.45 228.831,271.096    227.853,270.746 226.877,270.396 225.573,270.396 224.27,270.396 222.966,270.396 222.641,270.042 222.313,269.689    221.988,269.342 221.988,268.638 222.313,267.932 222.641,267.582 223.616,267.231 224.27,267.231 224.27,266.526    223.945,266.526 223.616,266.176 223.945,265.477 224.595,265.12 224.595,264.419 224.595,264.067 223.945,263.713    223.291,263.713 222.966,263.713 222.641,263.713 221.988,263.713 221.337,263.012 221.012,263.012 220.359,263.36    219.705,264.067 219.38,264.419 219.055,264.067 219.38,263.713 219.055,263.36 219.055,262.661 219.38,262.311 220.031,261.956    220.031,261.606 220.359,261.255 220.684,260.901 221.012,260.547 221.012,259.848 221.012,259.498 221.662,259.147    221.662,258.793 221.988,258.439 221.988,257.387 221.988,257.033 221.988,256.686 222.313,256.686 222.313,256.332    222.313,255.98 222.313,255.626 222.641,255.275 222.966,254.223 223.291,253.869 223.945,253.167 224.27,252.467 224.92,252.111      " id="upazila_178" area="upazlia" name="tongibari" bengali="টংগীবাড়ি" parent="munshiganj"></polygon><polygon points="214.819,254.223 215.794,254.925 216.122,255.275 216.122,255.629 215.794,255.98    215.469,256.332 215.144,256.686 215.144,257.033 214.819,257.387 215.144,257.737 215.469,257.737 216.122,257.737    216.445,257.737 216.773,257.737 217.098,257.737 217.751,258.088 218.076,258.088 218.405,258.088 218.405,257.737    218.73,257.737 218.73,257.387 219.055,256.332 219.055,255.629 219.055,254.925 219.38,254.571 219.705,254.571 220.359,254.223    220.684,254.223 221.012,254.571 221.012,255.629 221.012,255.98 221.337,255.98 221.337,255.629 221.337,254.925    221.337,254.571 221.337,254.223 221.662,254.223 222.313,254.223 222.966,254.223 222.641,255.275 222.313,255.629    222.313,255.98 222.313,256.332 222.313,256.686 221.988,256.686 221.988,257.033 221.988,257.387 221.988,258.439    221.662,258.79 221.662,259.147 221.012,259.498 221.012,259.848 221.012,260.551 220.684,260.901 220.359,261.252    220.031,261.606 220.031,261.956 219.38,262.311 219.055,262.661 219.055,263.36 219.38,263.71 219.055,264.067 219.38,264.419    219.705,264.067 220.359,263.36 221.012,263.012 221.337,263.012 221.988,263.71 222.641,263.71 222.966,263.71 223.291,263.71    223.945,263.71 224.595,264.067 224.595,264.419 224.595,265.12 223.945,265.477 223.616,266.176 223.945,266.526 224.27,266.526    224.27,267.231 223.616,267.231 222.641,267.582 222.313,267.932 221.988,268.638 221.988,269.342 222.313,269.689    222.641,270.042 222.966,270.398 222.313,270.746 221.988,271.096 221.012,271.096 220.359,271.45 220.031,271.45    219.055,271.096 218.405,271.096 217.751,270.746 216.773,270.042 215.794,269.689 214.819,268.992 214.165,268.638    213.512,268.287 212.536,268.287 211.558,268.287 210.578,267.932 209.603,267.932 208.951,267.231 208.301,267.231    207.646,266.526 206.995,265.824 206.669,265.477 206.342,265.477 205.691,265.824 205.366,266.176 204.387,266.526    203.737,266.176 203.083,265.824 200.802,264.067 201.129,264.067 200.802,263.71 200.151,263.012 199.498,262.311    198.52,261.606 197.543,261.606 197.216,261.252 197.216,260.901 197.543,260.197 198.195,259.498 198.847,259.147    199.172,258.79 199.498,259.147 200.151,259.147 200.476,259.147 201.129,259.498 201.78,259.147 202.433,259.147    202.758,259.147 203.409,259.498 203.737,259.498 204.387,259.848 205.038,259.498 205.366,259.498 205.691,259.147    206.019,259.147 206.019,259.498 206.342,259.498 206.669,259.498 206.995,259.498 206.995,259.147 207.323,258.79    207.646,258.439 207.971,258.79 207.971,259.147 208.301,259.498 208.951,258.79 209.275,258.439 209.928,258.439    210.255,258.439 210.578,258.439 210.907,258.79 210.907,259.147 211.233,259.147 211.558,259.498 212.211,259.498    212.536,259.498 213.19,259.147 213.19,258.79 212.862,258.79 212.211,258.439 212.211,258.088 212.536,258.088 212.536,257.737    212.862,257.387 213.19,256.686 213.19,256.332 213.512,255.629 213.512,255.275 213.512,254.925 213.837,254.925    214.165,254.925 214.819,254.925   " id="upazila_174" area="upazlia" name="louhajanj" bengali="লৌহজং" parent="munshiganj"></polygon></svg>