<svg enable-background="new -106.403 -201.859 629.266 880.536" height="880.536px" id="district_41" viewBox="-106.403 -201.859 629.266 880.536" width="629.266px" x="0px" xml:space="preserve" xmlns="http://www.w3.org/2000/svg" y="0px"><polygon points="325.309,146.632 325.963,147.688 326.613,148.742 327.266,149.445 327.592,149.797    328.24,150.499 328.895,150.499 329.872,150.849 330.524,150.849 331.503,150.849 332.478,150.849 333.132,151.202    333.781,151.202 334.435,151.555 335.412,151.905 336.067,152.256 337.041,152.256 337.693,152.256 338.021,152.256    338.346,152.256 338.998,152.256 339.323,152.256 339.65,152.256 339.975,152.256 340.301,152.256 340.629,151.905    339.975,151.555 339.65,151.202 339.975,150.148 339.975,149.797 340.301,149.092 340.955,148.038 341.281,147.336    341.604,146.981 342.258,146.632 342.581,146.279 342.906,145.928 343.561,145.928 344.215,145.928 344.538,146.279    345.19,146.279 345.518,146.632 345.518,147.336 345.518,147.688 345.844,148.038 345.844,148.742 346.169,149.092    345.844,149.445 345.518,150.148 345.518,150.849 345.518,151.202 345.19,151.555 344.865,151.202 344.215,151.202    343.561,151.555 343.233,152.256 342.906,152.61 342.906,152.256 342.258,151.905 341.932,152.256 341.932,152.959    341.932,153.312 341.604,153.663 340.955,153.663 340.955,153.312 340.301,152.959 339.975,152.959 339.975,153.663    339.975,154.016 339.65,154.367 338.998,155.07 338.672,155.422 338.998,156.125 339.323,156.477 339.65,156.477 340.301,156.477    340.955,156.125 341.281,155.772 341.604,155.772 342.258,155.422 342.581,155.422 342.906,155.422 343.233,155.07    343.889,155.07 343.889,155.422 344.215,155.772 343.889,156.477 344.215,156.828 344.215,157.532 343.889,157.532    343.561,157.18 342.906,156.828 342.581,156.828 342.258,157.18 341.932,157.532 341.281,157.883 340.629,157.883    340.301,157.883 339.975,158.585 339.323,158.585 338.998,158.937 338.998,159.64 338.998,159.992 338.998,160.344    338.998,161.046 338.346,161.75 338.021,161.75 338.021,162.453 338.021,162.806 337.366,163.51 337.041,163.51 337.041,163.858    337.041,164.213 337.366,164.213 338.021,164.213 338.346,164.915 338.021,165.267 338.021,165.97 338.021,166.674    338.672,167.024 338.998,167.024 339.323,167.024 339.65,167.024 339.65,167.377 339.975,167.727 340.301,167.377    340.629,167.377 340.955,167.727 340.629,168.08 340.301,168.431 339.975,168.431 339.65,168.431 338.672,168.431    338.346,168.431 338.021,169.134 337.693,169.837 337.693,170.541 338.021,170.891 338.021,171.594 337.693,171.594    337.366,171.947 337.041,172.299 337.041,172.648 337.041,173.001 336.718,173.001 336.389,173.354 336.389,173.705    336.067,174.056 335.74,174.408 335.412,174.408 335.412,174.056 335.412,173.705 335.089,173.354 334.763,172.299    334.435,171.594 334.435,171.244 334.435,170.891 334.107,170.541 333.455,170.188 333.132,170.188 332.478,169.837    332.156,169.837 331.826,169.837 331.177,169.487 330.524,169.134 329.872,169.134 329.546,169.487 329.22,169.487    328.895,169.837 328.24,170.188 327.912,169.837 327.592,170.188 327.592,170.541 327.592,170.891 327.912,170.891    328.57,171.244 328.895,171.594 328.57,171.947 327.912,171.594 327.592,171.947 327.266,172.299 327.266,173.001    326.613,173.354 326.286,173.354 325.963,173.001 325.635,173.001 325.635,172.648 325.635,171.947 324.981,171.947    324.656,171.594 324.332,171.594 324.006,171.244 323.68,171.244 323.352,170.891 323.352,170.541 323.352,169.837    323.352,169.487 323.03,169.134 323.03,168.781 322.7,168.431 322.7,168.08 322.049,167.727 321.401,167.377 321.073,167.024    320.746,166.321 320.746,165.97 320.746,165.618 320.42,165.267 320.094,165.267 319.441,165.267 319.115,165.267    318.786,165.267 318.466,164.915 318.14,164.562 317.484,164.562 317.157,164.562 317.157,164.915 316.509,164.915    316.509,164.213 316.183,163.858 316.183,163.51 316.183,163.157 316.509,162.806 316.837,162.453 316.837,162.103    317.157,161.75 317.484,161.398 317.157,161.398 317.484,160.694 317.815,160.694 317.484,160.344 317.157,160.344    316.509,160.694 316.183,161.046 315.855,161.046 315.531,160.694 315.206,160.344 314.88,160.344 314.554,160.694    313.901,160.694 313.901,160.344 313.574,159.992 313.246,159.992 312.923,159.64 312.597,159.29 311.947,159.29 311.617,159.29    311.617,158.937 310.969,158.937 310.643,159.29 310.643,159.64 310.643,159.992 310.643,160.694 311.294,161.046    310.969,161.398 310.969,161.75 310.643,161.75 310.315,161.75 309.663,161.398 309.34,161.046 309.34,160.694 309.014,160.344    308.686,159.992 308.031,159.64 307.383,159.992 306.732,159.992 306.732,159.64 306.732,159.29 306.732,158.937 306.08,158.937    305.754,158.937 305.428,158.937 305.1,158.937 304.775,158.585 304.448,158.234 304.775,157.883 305.1,157.532 305.428,156.828    305.428,156.477 305.754,156.125 306.08,155.422 306.406,155.07 307.706,154.716 309.663,154.716 310.315,154.716    310.969,154.716 311.294,154.716 311.947,154.716 312.275,154.716 312.275,155.07 312.597,155.422 313.246,155.422    313.574,155.422 313.901,155.422 313.901,155.07 314.226,155.07 313.901,154.716 313.901,154.367 313.574,154.367    313.246,154.367 312.923,154.016 312.597,154.016 312.597,153.663 312.275,153.663 311.947,153.312 311.947,152.959    312.275,152.959 312.597,152.61 312.597,152.256 312.597,151.555 312.923,151.202 312.597,150.849 312.275,150.849    312.275,150.499 312.597,150.499 313.246,150.148 313.574,150.148 314.226,150.148 314.554,150.499 315.206,150.849    315.855,150.849 317.157,150.849 318.14,150.499 318.786,150.499 319.115,150.499 319.769,150.499 320.094,150.148    320.42,150.148 320.746,150.148 321.401,149.797 321.723,149.445 321.723,149.092 322.7,148.742 323.03,148.39 323.352,148.038    324.006,147.688 324.656,147.688   " id="upazila_49" area="upazlia" name="nasirnagar" bengali="নাসিরনগর" parent="brahmanbaria"></polygon><polygon points="298.906,161.75 299.888,161.398 299.888,161.046 300.537,160.694 300.865,160.694    301.514,160.344 302.166,159.993 302.491,159.64 302.821,159.64 303.471,158.939 304.12,158.586 304.448,158.234 304.775,158.586    305.1,158.939 305.428,158.939 305.754,158.939 306.08,158.939 306.732,158.939 306.732,159.29 306.732,159.64 306.732,159.993    307.383,159.993 308.034,159.64 308.686,159.993 309.011,160.344 309.34,160.694 309.34,161.046 309.663,161.398 310.315,161.75    310.643,161.75 310.969,161.75 310.969,161.398 311.294,161.046 310.643,160.694 310.643,159.993 310.643,159.64 310.643,159.29    310.969,158.939 311.62,158.939 311.62,159.29 311.947,159.29 312.597,159.29 312.923,159.64 313.246,159.993 313.574,159.993    313.904,160.344 313.904,160.694 314.554,160.694 314.88,160.344 315.206,160.344 315.531,160.694 315.855,161.046    316.183,161.046 316.509,160.694 317.157,160.344 317.487,160.344 317.815,160.694 317.487,160.694 317.157,161.398    317.487,161.398 317.157,161.75 316.837,162.103 316.837,162.454 316.509,162.806 316.183,163.157 316.183,163.51 316.183,163.86    316.509,164.213 316.509,164.915 317.157,164.915 317.157,164.562 317.487,164.562 318.14,164.562 318.466,164.915    318.786,165.268 319.115,165.268 319.441,165.268 320.094,165.268 320.42,165.268 320.746,165.618 320.746,165.97    320.746,166.322 321.073,167.024 321.401,167.377 322.049,167.729 322.7,168.08 322.7,168.431 323.03,168.781 323.03,169.135    323.352,169.487 323.352,169.837 323.352,170.541 323.352,170.891 323.68,171.244 324.006,171.244 324.332,171.597    324.656,171.597 324.981,171.947 325.635,171.947 325.635,172.648 325.635,173.002 325.963,173.002 326.286,173.354    326.613,173.354 327.269,173.002 327.269,172.299 327.592,171.947 327.912,171.597 328.57,171.947 328.895,171.597    328.57,171.244 327.912,170.891 327.592,170.891 327.592,170.541 327.592,170.19 327.912,169.837 328.24,170.19 328.895,169.837    329.22,169.487 329.546,169.487 329.872,169.135 330.524,169.135 331.177,169.487 331.829,169.837 332.156,169.837    332.478,169.837 333.132,170.19 333.455,170.19 334.107,170.541 334.435,170.891 334.435,171.244 334.435,171.597 334.76,172.299    335.089,173.354 334.435,173.354 333.781,173.354 333.781,173.705 333.781,174.058 333.455,175.111 333.132,175.111    333.132,175.463 333.132,176.166 333.132,176.517 332.478,176.517 332.156,176.869 332.156,177.222 331.829,177.572    331.503,177.572 331.177,177.925 330.849,178.275 330.524,178.275 330.198,178.626 330.198,179.331 329.872,179.331    329.546,179.331 328.895,179.331 328.57,178.979 328.24,179.331 327.592,179.331 327.269,179.682 327.269,180.033    326.938,180.033 326.613,180.386 326.613,180.737 326.938,180.737 327.269,180.737 327.269,181.091 327.269,181.439    326.938,181.792 326.938,182.496 326.938,182.847 326.938,183.2 326.938,183.55 326.613,183.902 326.613,184.253 326.286,184.253    325.963,184.605 325.963,184.957 325.635,185.306 325.309,185.659 324.981,186.012 324.656,186.012 324.656,185.659    324.981,185.306 324.981,184.605 324.981,184.253 324.981,183.902 324.981,183.55 324.981,182.847 324.656,182.847    324.656,182.496 324.332,182.496 324.006,182.143 323.68,181.792 323.68,181.439 323.352,181.091 323.03,180.737 322.7,180.033    322.7,179.682 323.03,178.979 323.03,178.626 323.03,178.275 322.7,177.925 322.377,177.925 322.049,177.925 321.723,177.925    321.073,177.572 320.746,177.572 320.42,177.572 319.769,177.925 319.441,177.925 318.786,177.572 318.466,177.572    317.815,177.572 317.157,177.572 316.837,177.572 316.837,177.925 316.509,178.275 316.509,178.626 316.183,178.979    315.855,178.626 315.531,178.275 315.206,178.275 314.88,178.275 314.226,178.275 313.574,178.275 313.246,178.626    312.923,178.979 312.597,178.979 312.275,178.979 312.275,178.626 312.597,178.275 312.923,177.925 313.246,177.572    313.246,177.222 313.246,176.869 313.246,176.517 313.246,176.166 313.246,175.814 313.904,175.814 314.226,175.814    314.226,175.463 314.226,175.111 314.226,174.76 314.226,174.408 313.904,174.058 313.574,174.058 313.246,174.408    312.923,174.408 312.597,174.408 312.597,174.058 312.275,173.705 311.947,173.354 311.62,173.354 311.294,173.002    310.969,173.354 310.643,173.354 310.643,173.705 310.315,174.058 309.99,173.705 309.663,173.705 309.011,173.705    308.034,173.705 308.361,173.002 308.686,172.648 308.686,171.947 308.686,171.244 308.686,170.541 308.034,169.837    307.383,169.135 307.057,168.781 306.406,168.08 305.754,167.729 305.428,167.377 304.775,167.024 304.12,167.024    303.471,166.674 303.146,166.674 302.491,166.322 301.843,165.97 301.189,165.618 300.537,164.562 299.888,164.213    299.888,163.86 299.232,163.51 298.906,162.806 298.906,162.454   " id="upazila_50" area="upazlia" name="sarail" bengali="সরাইল" parent="brahmanbaria"></polygon><polygon points="312.275,178.979 311.62,179.682 310.315,178.979 309.99,180.033 309.99,182.142 309.014,182.847    307.706,182.847 308.034,184.604 308.361,185.306 307.706,185.659 307.057,186.363 306.732,187.769 306.406,188.47    305.754,188.47 303.797,188.823 303.471,189.877 302.491,189.877 302.166,189.877 301.843,189.877 301.517,189.877    301.189,189.877 300.865,190.231 300.537,190.58 300.214,190.933 299.888,190.933 299.56,190.933 299.888,190.231    299.232,190.231 299.232,189.877 298.906,189.877 298.257,189.526 297.606,189.526 297.606,189.176 297.606,188.47    297.281,188.12 297.281,187.418 297.281,186.713 296.952,186.363 296.952,185.659 296.952,184.957 296.952,184.253    297.281,183.549 297.606,183.199 297.931,182.496 298.257,181.792 298.585,181.091 299.232,180.386 299.56,179.329    300.214,178.979 301.189,178.274 301.843,177.924 302.821,177.572 303.471,177.222 304.12,176.868 304.775,176.517    305.428,176.166 306.08,175.814 306.732,175.111 307.383,174.76 308.034,174.056 308.034,173.705 309.014,173.705    309.663,173.705 309.99,173.705 310.315,174.056 310.643,173.705 310.643,173.354 310.969,173.354 311.294,173.001    311.62,173.354 311.947,173.354 312.275,173.705 312.597,174.056 312.597,174.406 312.923,174.406 313.246,174.406    313.574,174.056 313.901,174.056 314.226,174.406 314.226,174.76 314.226,175.111 314.226,175.462 314.226,175.814    313.901,175.814 313.246,175.814 313.246,176.166 313.246,176.517 313.246,176.868 313.246,177.222 313.246,177.572    312.923,177.924 312.597,178.274 312.275,178.626   " id="upazila_452" area="upazlia" name="ashuganj" bengali="আশুগঞ্জ" parent="brahmanbaria"></polygon><polygon points="302.491,189.877 302.821,189.877 302.491,190.933 302.491,191.286 302.821,191.634    302.821,191.989 302.491,192.337 302.491,193.394 302.166,193.394 301.843,193.394 301.517,193.747 300.865,193.747    300.214,193.394 299.888,193.747 299.56,194.095 299.56,195.153 299.56,195.502 300.214,196.208 300.537,196.208 300.865,196.557    301.189,196.911 301.189,196.557 301.517,196.208 301.517,195.855 301.517,195.502 301.843,195.153 301.843,194.8 302.491,194.8    302.821,194.8 303.146,195.153 303.471,195.153 303.797,195.502 304.12,195.502 304.448,195.855 304.775,195.502 305.1,195.502    305.1,195.153 305.428,194.8 305.754,194.45 306.08,194.095 306.406,193.394 306.732,193.394 307.057,193.041 307.706,193.041    308.034,193.041 308.361,193.041 308.686,192.689 309.34,192.689 309.663,192.689 309.99,192.689 310.315,192.337    310.643,192.337 310.969,191.989 311.294,191.989 311.947,191.989 312.275,191.989 312.597,192.337 312.923,192.337    312.923,192.689 312.597,193.041 312.923,193.394 312.597,193.747 312.597,194.45 312.597,194.8 312.597,195.153 312.597,195.502    312.597,196.208 312.597,196.557 312.597,197.262 312.597,197.614 312.275,198.315 312.597,198.67 312.597,199.019    312.597,199.373 312.597,200.077 312.923,200.426 312.275,200.778 312.275,201.132 312.275,201.481 312.275,202.184    312.597,202.537 313.246,202.537 313.246,202.886 313.246,203.238 313.574,203.593 313.574,203.942 313.246,204.999    313.574,204.999 313.574,205.348 313.901,205.348 314.554,205.348 314.226,206.052 313.901,206.402 313.901,206.756    313.901,207.46 313.574,207.809 313.246,207.46 312.597,207.46 312.597,207.809 312.275,208.159 311.62,208.159 311.294,208.159    310.643,208.159 310.315,208.512 310.315,208.865 310.643,209.218 310.643,209.566 310.643,209.92 310.969,210.27 311.294,210.27    311.62,210.27 311.947,210.622 312.275,210.622 312.597,210.622 312.923,210.622 313.246,210.622 313.246,210.975    312.923,211.326 312.923,211.678 312.597,212.027 312.275,212.38 312.275,212.732 311.947,212.732 311.62,212.732    311.294,213.083 310.969,213.083 310.643,213.436 310.315,213.436 309.99,213.786 309.663,213.786 309.34,214.138 309.34,214.49    309.014,214.49 308.686,214.49 308.361,214.49 308.034,214.49 308.034,214.138 307.383,214.138 307.057,214.49 307.383,214.845    307.383,215.193 307.383,215.545 307.057,215.896 306.732,215.545 306.406,215.545 306.08,215.193 305.428,215.193 305.1,215.193    304.775,215.545 304.12,215.545 303.471,215.896 303.146,215.896 302.821,215.896 302.166,215.896 301.517,215.545    301.189,215.545 300.865,215.545 300.865,215.896 301.189,216.249 301.517,216.601 301.189,216.601 300.214,216.601    299.888,216.601 299.232,216.952 298.906,216.952 298.257,216.952 297.931,217.302 297.281,217.302 296.952,217.656    296.302,217.656 295.974,217.656 295.974,218.009 295.974,218.358 295.323,218.709 294.67,218.358 294.345,218.358    293.695,218.358 293.041,218.709 292.391,218.709 291.74,218.709 291.412,219.06 290.762,219.414 290.434,219.414    289.781,219.764 289.455,219.414 289.133,219.414 288.805,219.414 288.155,219.414 288.155,219.764 287.829,220.466    287.173,220.466 287.173,220.82 286.523,220.82 286.523,221.171 286.198,221.523 285.219,221.171 285.219,220.466    285.219,220.115 285.219,219.764 285.219,219.06 285.544,219.06 285.544,218.709 285.544,218.358 285.219,218.009    285.219,217.656 284.566,216.952 284.894,216.952 285.544,216.249 285.872,216.249 286.523,216.249 286.523,215.896    286.523,215.545 286.523,215.193 286.198,214.49 285.544,214.49 285.544,214.138 285.219,213.436 285.219,213.083    284.894,213.083 284.894,212.732 284.24,212.732 284.24,213.083 283.59,212.732 283.59,212.027 282.94,211.678 283.265,211.326    283.265,210.622 283.59,210.27 283.915,209.92 283.915,209.566 283.59,209.218 282.94,209.218 282.612,209.218 282.286,209.566    281.961,209.92 281.636,209.92 281.308,210.27 280.98,210.622 280.332,210.622 280.332,210.975 280.004,210.975 279.679,210.975    279.679,210.622 280.004,210.27 280.332,209.92 280.332,209.566 280.332,208.865 280.332,208.512 280.332,208.159    280.332,207.809 280.004,207.46 280.004,207.105 279.679,206.756 279.679,206.402 279.026,206.052 278.7,205.7 279.026,205.348    279.351,204.999 280.004,204.645 280.655,204.999 280.655,204.645 280.98,204.645 281.636,204.295 282.286,203.942    282.612,203.942 282.94,203.942 283.59,204.645 283.915,204.999 284.24,205.348 284.24,205.7 284.894,206.052 285.219,206.756    286.198,206.756 286.848,206.756 287.498,206.402 288.155,206.402 288.805,206.052 288.805,205.348 289.133,204.999    289.781,204.295 290.106,203.593 290.106,203.238 290.106,202.886 290.106,202.184 290.434,201.481 290.434,201.132    290.434,200.778 290.762,200.077 290.762,199.722 291.087,199.373 291.412,199.019 292.066,198.67 292.716,198.315    293.366,197.964 294.02,197.262 294.345,196.911 294.345,196.208 294.345,195.502 294.02,195.153 294.02,194.45 293.695,193.747    294.02,193.394 294.02,193.041 294.345,192.689 294.67,192.337 295.323,191.634 296.302,191.286 296.952,190.933 297.281,190.58    297.281,190.231 297.606,189.528 298.257,189.528 298.906,189.877 299.232,189.877 299.232,190.231 299.888,190.231    299.56,190.933 299.888,190.933 300.214,190.933 300.537,190.58 300.865,190.231 301.189,189.877 301.517,189.877    301.843,189.877 302.166,189.877   " id="upazila_48" area="upazlia" name="nabinagar" bengali="নবীনগর" parent="brahmanbaria"></polygon><polygon points="286.198,214.488 285.544,214.488 285.544,214.138 285.219,213.436 285.219,213.083    284.894,213.083 284.894,212.732 284.24,212.732 284.24,213.083 283.59,212.732 283.59,212.027 282.94,211.678 283.265,211.326    283.265,210.622 283.59,210.27 283.912,209.92 283.912,209.566 283.59,209.215 282.94,209.215 282.612,209.215 282.286,209.566    281.958,209.92 281.633,209.92 281.308,210.27 280.98,210.622 280.332,210.622 280.332,210.975 280.007,210.975 279.679,210.975    279.679,210.622 280.007,210.27 280.332,209.92 280.332,209.566 280.332,208.865 280.332,208.514 280.332,208.159    280.332,207.809 280.007,207.458 280.007,207.105 279.679,206.756 279.679,206.402 279.026,206.054 278.7,205.7 278.7,205.7    278.7,205.701 276.418,205.701 275.115,205.701 274.464,205.701 273.811,205.35 272.832,205.35 272.182,205.35 271.531,204.998    270.483,205.449 269.9,205.701 269.683,205.817 269.249,206.054 268.596,206.402 267.946,207.105 267.702,207.634 267.62,207.811    267.62,208.512 267.837,208.748 267.946,208.865 268.271,209.215 268.435,209.568 268.596,209.92 268.921,210.27 269.249,210.622    269.249,210.624 269.249,210.975 269.249,210.975 269.249,211.678 269.574,212.378 269.574,212.38 269.574,213.436    269.574,214.138 269.249,215.193 269.085,215.544 268.921,215.896 268.271,216.952 267.946,217.302 267.62,217.656    266.967,218.009 266.314,218.709 265.663,219.413 265.013,220.115 264.357,221.171 264.031,221.525 263.706,222.225    263.381,223.28 263.706,224.336 263.706,225.037 263.706,225.741 264.031,226.444 264.357,227.147 265.013,227.852    265.663,228.554 266.314,229.257 266.314,229.958 266.314,230.664 266.967,230.311 267.62,229.958 267.946,229.61 267.946,229.61    268.274,229.785 268.596,229.958 268.921,229.61 269.249,229.958 269.249,230.664 269.9,231.015 270.553,231.368 270.878,231.368    271.203,231.015 271.637,230.781 271.854,230.664 271.854,230.664 272.507,230.664 272.182,229.958 272.182,229.61    271.531,228.904 271.531,228.554 271.203,228.201 270.878,227.853 270.878,227.852 271.203,226.797 270.553,226.094    270.556,226.094 270.553,226.091 270.878,226.091 270.878,225.39 270.878,225.037 270.878,224.688 271.203,224.334    271.854,224.334 272.182,224.334 272.615,224.1 272.832,223.983 272.944,223.75 273.157,223.28 273.483,222.931 273.486,222.931    273.811,222.931 274.139,222.578 274.139,222.577 274.786,222.577 275.115,222.931 275.115,223.28 275.443,223.632    275.443,223.983 275.768,224.158 276.093,224.334 276.418,224.688 276.746,224.688 277.072,224.688 277.719,225.037    278.375,224.688 278.7,225.39 279.026,225.39 279.679,225.39 279.679,225.39 280.004,225.39 280.007,225.39 280.332,225.741    280.655,225.741 280.98,226.091 281.308,226.268 281.633,226.444 281.958,226.444 282.122,226.268 282.286,226.091    282.615,226.091 283.265,226.091 283.587,226.091 283.912,226.268 284.24,226.444 284.894,226.444 284.894,226.091    285.383,225.831 285.544,225.741 285.872,225.39 285.872,225.037 285.544,224.688 285.544,224.336 285.872,223.983    285.872,223.28 285.872,222.931 286.198,222.577 286.198,222.225 286.198,221.525 285.219,221.171 285.219,220.466    285.219,220.115 285.219,219.764 285.219,219.06 285.544,219.06 285.544,218.709 285.544,218.358 285.219,218.009    285.219,217.656 284.569,216.952 284.894,216.952 285.544,216.249 285.872,216.249 286.523,216.249 286.523,215.896    286.523,215.545 286.523,215.193   " id="upazila_456" area="upazlia" name="bancharampur" bengali="বাঞ্ছারামপুর" parent="brahmanbaria"></polygon><polygon points="314.554,205.348 314.88,204.999 315.531,204.999 316.183,204.999 316.837,205.348    317.157,206.054 317.815,206.054 317.815,205.7 318.466,205.7 319.115,205.7 319.115,204.999 319.441,204.999 320.094,204.999    320.42,204.999 320.746,205.348 320.42,206.402 320.42,206.756 320.42,207.105 320.42,207.809 320.094,208.159 320.094,208.512    319.441,208.512 319.115,208.159 318.786,208.159 318.466,208.512 318.466,208.865 318.14,209.218 318.14,209.566 318.14,209.921    317.815,210.27 317.815,210.975 317.815,211.326 317.815,211.678 317.815,212.027 317.815,212.732 318.14,213.083    318.466,212.732 318.786,212.378 318.786,212.027 319.441,212.027 319.769,212.027 320.094,212.027 320.42,212.378    321.073,212.378 321.401,212.378 322.049,212.378 322.377,212.732 322.7,212.378 323.03,212.378 323.352,212.027 323.68,211.678    324.006,211.678 324.006,212.027 324.332,212.027 324.656,212.027 324.981,211.678 325.635,211.326 325.963,211.326    325.963,211.678 325.963,212.027 325.963,212.378 325.635,212.732 325.635,213.083 325.635,213.436 325.635,213.786    325.635,214.138 326.286,214.49 326.938,214.138 327.266,213.786 327.592,213.786 327.912,213.786 328.24,213.786 328.57,214.138    328.895,214.138 329.22,214.138 329.22,214.49 329.22,214.845 329.22,215.193 328.895,215.545 328.24,215.545 327.912,215.545    327.592,215.896 327.592,216.249 327.266,216.601 327.266,216.952 327.592,217.302 327.912,217.656 328.57,217.656    328.895,217.302 329.546,217.302 329.872,217.302 330.524,216.952 330.849,216.601 331.177,216.249 331.177,215.896    331.503,215.896 331.826,215.545 332.156,215.193 332.806,215.193 332.478,215.896 332.806,216.249 333.132,216.601    333.132,217.302 333.132,218.009 333.132,218.358 333.132,219.06 332.806,220.115 332.478,220.466 332.478,221.171    332.478,221.523 332.156,222.225 331.826,222.931 331.826,223.28 331.503,223.632 331.177,223.28 330.849,222.931    330.524,222.577 330.2,221.874 329.872,221.874 329.22,221.523 328.57,221.523 327.912,221.523 327.266,221.523 326.613,221.874    325.963,221.874 325.309,221.874 324.656,221.523 324.006,221.874 323.352,222.577 323.352,222.931 323.03,223.632    323.03,224.336 322.7,225.037 322.377,225.741 322.377,226.797 322.377,227.852 322.377,228.904 322.377,229.61 322.377,229.958    322.7,230.664 323.352,230.664 324.006,230.664 324.656,230.664 325.309,230.311 325.635,230.311 326.286,230.664    326.613,230.664 327.592,230.664 327.912,230.311 328.57,230.311 329.22,230.664 329.22,231.016 329.872,231.016 329.546,231.716    329.546,232.422 329.546,232.774 329.546,233.477 329.22,233.828 329.22,234.535 329.22,235.233 329.546,235.585 329.872,235.585    329.546,235.938 329.22,236.291 328.895,236.64 328.57,236.992 328.24,236.992 327.912,236.992 327.912,236.64 327.912,235.938    327.266,235.585 326.613,235.585 325.963,235.585 325.309,235.585 324.981,235.233 324.656,234.882 324.006,234.535    323.68,234.535 323.03,233.477 322.049,233.125 321.723,233.477 321.073,233.477 320.746,233.477 320.42,233.828 320.42,234.179    320.42,234.882 320.094,234.882 319.441,234.535 319.115,234.535 319.115,233.828 318.466,233.477 318.14,233.125 318.14,232.422    318.14,231.716 317.815,231.368 317.815,231.016 317.484,230.311 317.815,229.958 317.484,229.61 317.157,229.958    316.511,229.958 316.183,229.958 316.183,229.61 316.511,229.258 316.511,228.554 316.183,228.201 315.855,228.201    315.531,228.201 315.206,228.554 314.554,228.201 314.554,227.852 315.206,227.5 314.88,226.797 314.88,226.444 314.554,226.444    313.901,226.444 313.901,227.147 313.246,227.147 312.597,226.797 312.597,226.444 312.597,226.094 312.923,226.094    313.246,225.741 313.246,225.39 313.246,225.037 312.923,224.688 312.597,224.688 312.275,225.037 311.947,225.39    311.947,225.741 311.62,226.094 311.294,225.741 311.294,225.39 311.294,224.688 311.294,223.983 311.294,224.336    311.294,223.983 311.294,223.632 310.969,223.28 310.315,223.28 309.663,222.931 309.34,222.931 309.014,222.577 309.34,222.225    309.663,221.874 309.99,221.523 309.99,221.171 310.315,220.82 310.315,220.466 309.99,220.466 309.663,220.466 309.34,220.82    309.34,220.466 309.34,219.764 309.34,219.414 309.014,219.06 308.686,219.414 308.686,220.115 308.361,220.466 308.034,220.115    307.706,219.764 307.057,219.764 307.057,219.414 307.383,219.06 308.034,219.06 308.034,218.709 308.034,218.009    307.383,217.656 307.383,218.009 307.057,218.358 306.732,218.009 306.406,217.656 306.406,216.952 306.732,216.601    306.732,216.249 306.406,215.545 306.732,215.545 307.057,215.896 307.383,215.545 307.383,215.193 307.383,214.845    307.057,214.49 307.383,214.138 308.034,214.138 308.034,214.49 308.361,214.49 308.686,214.49 309.014,214.49 309.34,214.49    309.34,214.138 309.663,213.786 309.99,213.786 310.315,213.436 310.643,213.436 310.969,213.083 311.294,213.083 311.62,212.732    311.947,212.732 312.275,212.732 312.275,212.378 312.597,212.027 312.923,211.678 312.923,211.326 313.246,210.975    313.246,210.622 312.923,210.622 312.597,210.622 312.275,210.622 311.947,210.622 311.62,210.27 311.294,210.27 310.969,210.27    310.643,209.921 310.643,209.566 310.643,209.218 310.315,208.865 310.315,208.512 310.643,208.159 311.294,208.159    311.62,208.159 312.275,208.159 312.597,207.809 312.597,207.46 313.246,207.46 313.574,207.809 313.901,207.46 313.901,206.756    313.901,206.402 314.226,206.054   " id="upazila_47" area="upazlia" name="kasba" bengali="কসবা" parent="brahmanbaria"></polygon><polygon points="320.42,206.402 321.073,206.755 321.073,207.108 321.401,207.458 322.049,207.108    322.377,207.458 322.7,207.458 323.03,207.458 323.03,207.108 323.03,206.402 323.68,206.755 323.68,206.402 324.006,206.052    324.006,205.7 324.006,204.998 323.352,204.645 323.352,204.293 324.006,204.293 324.329,203.942 324.656,203.942    324.981,204.645 324.981,204.998 324.981,205.348 324.981,205.7 324.981,206.052 325.309,206.402 325.309,206.755    325.963,207.108 326.286,207.108 326.613,207.108 326.613,207.809 327.266,207.458 327.592,207.458 327.592,207.108    327.912,206.402 327.592,206.052 327.912,205.7 328.24,205.348 328.57,204.998 328.57,204.645 328.895,204.293 328.895,203.942    329.22,203.593 328.895,203.239 328.895,202.536 328.24,202.184 328.24,201.832 328.57,201.832 328.895,201.481 329.22,201.131    329.872,201.481 330.524,201.131 330.524,200.779 330.524,200.426 330.849,199.371 331.177,199.371 331.503,199.371    331.826,199.371 332.478,199.371 332.806,199.019 333.135,199.019 333.781,198.669 334.107,198.669 334.76,198.669    335.089,197.964 335.089,198.315 335.089,198.669 334.435,199.019 334.107,199.371 333.455,199.371 333.135,199.722    332.806,200.075 332.806,200.426 332.806,200.779 332.806,201.832 332.806,202.536 333.455,202.886 333.781,203.239    333.781,203.942 334.107,204.293 334.435,204.998 334.435,205.348 334.76,206.052 335.412,207.108 335.74,207.458    336.067,208.159 336.389,208.865 335.74,209.215 335.412,209.92 335.089,210.622 334.76,210.975 334.435,211.677 333.781,212.38    333.455,213.083 333.455,213.435 333.135,214.488 332.806,215.193 332.156,215.193 331.826,215.545 331.503,215.896    331.177,215.896 331.177,216.249 330.849,216.601 330.524,216.952 329.872,217.303 329.546,217.303 328.895,217.303    328.57,217.656 327.912,217.656 327.592,217.303 327.266,216.952 327.266,216.601 327.592,216.249 327.592,215.896    327.912,215.545 328.24,215.545 328.895,215.545 329.22,215.193 329.22,214.845 329.22,214.488 329.22,214.138 328.895,214.138    328.57,214.138 328.24,213.786 327.912,213.786 327.592,213.786 327.266,213.786 326.938,214.138 326.286,214.488    325.635,214.138 325.635,213.786 325.635,213.435 325.635,213.083 325.635,212.732 325.963,212.38 325.963,212.027    325.963,211.677 325.963,211.326 325.635,211.326 324.981,211.677 324.656,212.027 324.329,212.027 324.006,212.027    324.006,211.677 323.68,211.677 323.352,212.027 323.03,212.38 322.7,212.38 322.377,212.732 322.049,212.38 321.401,212.38    321.073,212.38 320.42,212.38 320.094,212.027 319.769,212.027 319.441,212.027 318.786,212.027 318.786,212.38 318.466,212.732    318.14,213.083 317.815,212.732 317.815,212.027 317.815,211.677 317.815,211.326 317.815,210.975 317.815,210.27 318.14,209.92    318.14,209.566 318.14,209.215 318.466,208.865 318.466,208.514 318.786,208.159 319.115,208.159 319.441,208.514    320.094,208.514 320.094,208.159 320.42,207.809 320.42,207.108 320.42,206.755   " id="upazila_45" area="upazlia" name="akhaura" bengali="আখাউড়া" parent="brahmanbaria"></polygon><polygon points="330.524,200.075 330.2,200.075 329.872,199.019 329.546,197.613 328.57,197.262 327.266,196.911    326.283,196.208 324.332,195.151 323.68,194.8 322.377,193.747 322.052,192.689 322.052,191.636 322.052,189.877 321.723,189.176    320.746,189.176 319.444,188.823 318.786,188.12 318.786,186.713 318.786,185.306 317.815,184.956 317.487,184.956    318.14,183.902 318.786,183.549 320.094,184.253 320.746,184.604 322.052,183.902 321.723,182.847 321.723,181.088    321.398,181.088 320.746,179.681 322.052,179.329 322.7,177.924 323.03,178.275 323.03,178.625 323.03,178.979 322.7,179.681    322.7,180.033 323.03,180.737 323.352,181.088 323.68,181.439 323.68,181.792 324.006,182.142 324.332,182.494 324.656,182.494    324.656,182.847 324.981,182.847 324.981,183.549 324.981,183.902 324.981,184.253 324.981,184.604 324.981,185.306    324.656,185.659 324.656,186.011 324.981,186.011 325.309,185.659 325.635,185.306 325.963,184.956 325.963,184.604    326.283,184.253 326.615,184.253 326.615,183.902 326.941,183.549 326.941,183.199 326.941,182.847 326.941,182.494    326.941,181.792 327.266,181.439 327.266,181.088 327.266,180.737 326.941,180.737 326.615,180.737 326.615,180.386    326.941,180.033 327.266,180.033 327.266,179.681 327.592,179.329 328.24,179.329 328.57,178.979 328.895,179.329    329.546,179.329 329.872,179.329 330.2,179.329 330.2,178.625 330.524,178.275 330.846,178.275 331.177,177.924 331.503,177.572    331.826,177.572 332.153,177.219 332.153,176.868 332.478,176.517 333.135,176.517 333.135,176.166 333.135,175.462    333.135,175.111 333.455,175.111 333.781,174.058 333.781,173.705 333.781,173.354 334.435,173.354 335.089,173.354    335.412,173.705 335.412,174.058 335.412,174.406 335.74,174.406 336.067,174.058 336.389,173.705 336.389,173.354    336.718,173.001 337.038,173.001 337.038,172.648 337.038,172.299 337.369,171.945 337.696,171.594 338.021,171.594    338.021,170.891 338.675,171.244 339.323,171.594 339.65,171.244 339.65,170.891 340.303,170.891 340.955,170.891    340.955,171.594 340.955,171.945 340.955,172.299 340.629,173.001 340.303,173.354 340.303,174.058 340.303,174.406    340.303,175.111 340.303,175.462 340.303,175.814 340.303,176.166 340.629,176.166 340.955,176.166 341.281,176.166    341.604,176.166 341.932,176.166 342.258,176.517 342.581,176.517 342.906,176.868 342.906,177.572 342.906,177.924    343.233,178.275 343.561,178.625 343.889,178.979 343.889,179.329 343.889,179.681 343.889,180.386 343.561,180.737    343.233,181.088 343.561,181.792 343.561,182.142 343.233,182.847 342.906,182.847 342.258,182.494 341.932,182.494    341.604,182.494 341.932,182.847 342.258,183.549 341.932,183.902 341.604,184.253 341.604,184.604 341.604,184.956    341.932,184.956 342.258,185.306 342.581,185.306 342.906,185.659 342.906,186.011 342.581,186.363 342.581,186.713    342.258,187.416 342.258,187.768 341.932,188.47 341.932,188.823 341.932,189.176 341.604,189.526 340.955,189.877    340.629,189.877 339.975,189.526 339.975,188.823 339.975,188.47 339.975,188.12 339.975,187.768 339.65,187.768 339.65,188.12    339.323,188.823 338.998,189.176 338.675,189.526 338.346,190.228 338.021,190.58 338.021,191.286 337.696,191.636    337.696,191.988 337.369,192.689 337.369,193.394 338.021,193.747 338.346,193.747 338.346,194.095 338.675,194.8    338.998,195.502 338.998,195.855 338.675,196.208 338.346,195.855 337.696,195.855 337.038,196.208 336.067,195.855    335.74,195.855 335.412,195.855 334.763,195.855 333.781,195.502 333.455,195.502 333.135,195.855 333.781,196.208    334.435,196.557 334.763,196.911 334.763,197.262 335.089,197.613 335.089,197.964 334.763,198.67 334.107,198.67 333.781,198.67    333.135,199.019 332.809,199.019 332.478,199.371 331.826,199.371 331.503,199.371 331.177,199.371 330.846,199.371   " id="upazila_451" area="upazlia" name="bijoynagar" bengali="বিজয়নগর" parent="brahmanbaria"></polygon><polygon points="302.491,189.877 303.471,189.877 303.797,188.823 305.754,188.47 306.406,188.47 306.732,187.768    307.057,186.363 307.706,185.659 308.361,185.304 308.034,184.605 307.706,182.848 309.014,182.848 309.99,182.143    309.99,180.032 310.315,178.979 311.62,179.682 312.275,178.979 312.597,178.979 312.923,178.979 313.246,178.625    313.574,178.275 314.226,178.275 314.88,178.275 315.206,178.275 315.531,178.275 315.855,178.625 316.183,178.979    316.511,178.625 316.511,178.275 316.837,177.924 316.837,177.571 317.157,177.571 317.815,177.571 318.466,177.571    318.786,177.571 319.441,177.924 319.769,177.924 320.42,177.571 320.746,177.571 321.073,177.571 321.723,177.924    322.049,177.924 322.377,177.924 322.7,177.924 322.049,179.329 320.746,179.682 321.401,181.088 321.723,181.088    321.723,182.848 322.049,183.902 320.746,184.605 320.094,184.253 318.786,183.549 318.14,183.902 317.484,184.956    317.815,184.956 318.786,185.304 318.786,186.712 318.786,188.12 319.441,188.823 320.746,189.174 321.723,189.174    322.049,189.877 322.049,191.634 322.049,192.689 322.377,193.747 323.68,194.8 324.332,195.153 326.286,196.208 327.269,196.911    328.57,197.262 329.546,197.614 329.872,199.019 330.2,200.077 330.524,200.077 330.524,200.426 330.524,200.778 330.524,201.132    329.872,201.481 329.22,201.132 328.895,201.481 328.57,201.834 328.24,201.834 328.24,202.184 328.895,202.537 328.895,203.238    329.22,203.593 328.895,203.942 328.895,204.295 328.57,204.645 328.57,204.999 328.24,205.348 327.912,205.7 327.592,206.052    327.912,206.402 327.592,207.105 327.592,207.46 327.269,207.46 326.613,207.809 326.613,207.105 326.286,207.105    325.963,207.105 325.309,206.756 325.309,206.402 324.981,206.052 324.981,205.7 324.981,205.348 324.981,204.999    324.981,204.645 324.656,203.942 324.332,203.942 324.006,204.295 323.352,204.295 323.352,204.645 324.006,204.999    324.006,205.7 324.006,206.052 323.68,206.402 323.68,206.756 323.03,206.402 323.03,207.105 323.03,207.46 322.7,207.46    322.377,207.46 322.049,207.105 321.401,207.46 321.073,207.105 321.073,206.756 320.42,206.402 320.746,205.348 320.42,204.999    320.094,204.999 319.441,204.999 319.115,204.999 319.115,205.7 318.466,205.7 317.815,205.7 317.815,206.052 317.157,206.052    316.837,205.348 316.183,204.999 315.531,204.999 314.88,204.999 314.554,205.348 313.901,205.348 313.574,205.348    313.574,204.999 313.246,204.999 313.574,203.942 313.574,203.593 313.246,203.238 313.246,202.886 313.246,202.537    312.597,202.537 312.275,202.184 312.275,201.481 312.275,201.132 312.275,200.778 312.923,200.426 312.597,200.077    312.597,199.373 312.597,199.019 312.597,198.67 312.275,198.315 312.597,197.614 312.597,197.262 312.597,196.557    312.597,196.208 312.597,195.502 312.597,195.153 312.597,194.8 312.597,194.45 312.597,193.747 312.923,193.394 312.597,193.041    312.923,192.689 312.923,192.337 312.597,192.337 312.275,191.989 311.947,191.989 311.294,191.989 310.969,191.989    310.643,192.337 310.315,192.337 309.99,192.689 309.663,192.689 309.34,192.689 308.686,192.689 308.361,193.041    308.034,193.041 307.706,193.041 307.057,193.041 306.732,193.394 306.406,193.394 306.08,194.095 305.754,194.45 305.428,194.8    305.1,195.153 305.1,195.502 304.775,195.502 304.448,195.855 304.12,195.502 303.797,195.502 303.471,195.153 303.146,195.153    302.821,194.8 302.491,194.8 301.843,194.8 301.843,195.153 301.517,195.502 301.517,195.855 301.517,196.208 301.189,196.557    301.189,196.911 300.865,196.557 300.537,196.208 300.214,196.208 299.56,195.502 299.56,195.153 299.56,194.095 299.888,193.747    300.214,193.394 300.865,193.747 301.517,193.747 301.843,193.394 302.166,193.394 302.491,193.394 302.491,192.337    302.821,191.989 302.821,191.634 302.491,191.286 302.491,190.933 302.821,189.877   " id="upazila_46" area="upazlia" name="sadar" bengali="ব্রাহ্মণবাড়িয়া-সদর" parent="brahmanbaria"></polygon></svg>