<svg enable-background="new -106.403 -201.859 629.266 880.536" height="880.536px" id="district_41" viewBox="-106.403 -201.859 629.266 880.536" width="629.266px" x="0px" xml:space="preserve" xmlns="http://www.w3.org/2000/svg" y="0px"><polygon points="158.432,-4.908 158.757,-4.908 159.083,-4.908 159.408,-5.26 159.734,-5.615 160.387,-5.963    160.712,-5.963 161.365,-5.963 162.016,-5.615 162.668,-5.26 162.668,-4.558 162.994,-4.205 162.994,-3.503 162.994,-3.151    163.32,-2.799 163.972,-2.446 164.623,-2.446 165.276,-2.446 165.601,-2.446 165.929,-2.799 166.254,-2.799 167.231,-2.096    166.905,-1.393 166.58,-1.039 165.929,-1.039 165.601,-0.691 165.276,-0.336 164.948,0.364 164.948,0.718 164.623,1.421    164.623,1.771 164.297,2.475 163.645,2.475 162.994,2.475 162.341,2.828 162.016,3.178 161.691,3.883 161.691,4.584    162.016,4.938 162.668,5.289 162.994,5.99 163.32,6.344 163.32,7.046 163.32,7.75 163.32,8.452 163.645,8.452 164.297,8.806    164.623,9.508 164.948,10.21 164.948,10.914 164.948,11.265 165.601,11.969 165.929,12.319 166.254,12.673 166.254,13.023    165.929,13.374 165.601,13.726 165.276,13.726 164.948,14.079 164.623,14.079 164.297,14.079 164.297,13.726 163.972,13.726    163.645,13.726 162.994,13.374 162.668,13.374 162.341,13.374 162.016,13.374 162.341,13.726 162.668,14.429 163.32,14.781    163.972,15.484 164.297,15.836 164.623,16.54 164.948,16.892 165.276,17.241 165.601,17.593 165.929,17.946 166.254,17.946    166.58,18.297 166.905,18.297 167.231,18.649 167.558,19.353 168.863,20.053 169.187,20.407 169.513,21.11 169.513,21.815    169.838,22.518 169.838,23.572 170.165,24.275 170.49,24.627 171.142,25.33 171.792,25.682 171.469,26.384 171.142,26.384    170.817,26.033 170.165,25.682 169.513,26.033 169.187,26.384 168.863,26.735 168.863,27.088 168.533,27.791 168.208,28.495    167.884,28.495 167.231,28.845 167.231,29.197 166.905,29.549 166.58,29.549 166.254,29.899 165.601,29.549 165.276,29.197    164.623,28.845 163.972,28.845 163.645,28.845 163.32,29.197 163.32,29.549 163.32,29.899 162.668,30.251 162.341,29.899    161.691,29.549 161.037,29.549 160.712,29.197 160.061,28.845 159.408,28.495 159.083,29.197 158.432,29.549 158.105,29.549    157.779,29.549 157.453,29.549 157.128,29.549 156.803,29.549 156.475,29.549 156.15,29.197 155.824,29.197 155.499,28.845    154.846,29.197 154.521,28.845 153.868,28.495 153.868,27.791 154.194,27.439 154.194,26.735 153.868,26.384 153.868,25.682    153.54,25.33 153.217,24.627 152.565,24.275 152.24,23.221 151.913,22.518 151.913,21.815 151.261,21.461 151.261,20.758    151.261,20.053 151.261,19.353 150.936,19.353 151.261,19 151.586,18.649 151.586,18.297 151.913,17.946 151.913,17.241    151.913,16.892 151.586,16.54 151.586,16.186 151.913,15.133 152.24,14.079 152.565,13.726 152.889,13.374 153.217,13.023    152.889,12.673 152.24,12.319 151.913,11.969 151.586,11.617 151.261,11.969 150.608,11.969 149.956,11.617 149.956,11.265    149.956,10.562 149.956,9.858 150.282,9.156 150.608,8.452 150.936,7.046 151.586,5.641 151.913,4.938 151.913,3.883    152.565,1.069 153.217,0.364 153.54,0.364 154.194,0.364 154.521,0.364 155.171,0.014 155.499,-0.336 155.824,-1.039    155.824,-1.393 156.15,-2.096 156.475,-2.799 157.128,-3.853 157.779,-4.205   " id="upazila_222" area="upazlia" name="sreebordi" bengali="শ্রীবরদী" parent="sherpur"></polygon><polygon points="167.231,-2.096 168.208,-1.746 168.533,-1.393 169.837,-0.691 170.49,-0.337 171.141,-0.337    171.792,-0.337 172.446,0.014 173.098,0.014 173.424,0.014 173.751,0.718 174.402,1.421 175.055,1.771 175.705,2.123    176.357,2.828 177.009,3.178 177.66,3.178 178.639,3.529 179.289,3.883 180.268,4.937 180.92,5.289 181.572,5.641 182.875,5.289    183.2,6.344 183.2,6.696 183.2,7.398 183.528,7.75 183.853,8.102 183.853,8.804 183.853,9.508 183.528,10.21 183.528,10.562    183.2,10.914 182.875,11.265 182.875,11.617 182.55,11.969 182.224,11.969 182.55,12.319 182.55,12.672 181.897,12.672    181.572,12.672 181.246,13.023 180.92,13.726 180.268,14.079 180.268,14.429 180.92,14.781 181.246,15.131 181.246,15.836    181.246,16.186 181.572,16.186 181.897,16.186 182.224,16.539 182.224,16.892 181.572,16.892 181.246,17.241 180.92,17.241    180.593,17.593 180.268,17.593 179.943,17.946 179.616,18.297 179.289,18.297 178.964,18.297 178.313,18.297 177.988,18.297    177.66,18.297 177.009,18.297 176.684,18.649 177.009,19 177.66,19.353 177.009,19.704 176.684,19.704 176.357,19.704    176.031,20.053 176.684,20.406 177.334,20.758 177.334,21.11 177.334,21.813 177.009,22.518 177.66,23.221 178.313,23.221    178.639,23.221 178.639,23.922 178.313,24.273 178.639,24.627 178.964,24.978 178.964,25.33 178.964,25.679 178.313,26.033    177.988,26.384 177.66,26.384 177.334,27.088 177.334,27.439 177.009,27.439 176.684,27.439 176.684,27.088 176.684,26.735    176.357,26.384 175.705,26.384 175.705,25.679 175.38,25.33 175.055,24.978 174.402,24.978 174.402,25.33 174.076,25.679    173.424,26.033 173.098,26.033 172.773,26.033 172.446,25.679 172.12,25.679 171.792,25.679 171.141,25.33 170.49,24.627    170.163,24.273 169.837,23.572 169.837,22.518 169.513,21.813 169.513,21.11 169.187,20.406 168.862,20.053 167.556,19.353    167.231,18.649 166.905,18.297 166.579,18.297 166.252,17.946 165.929,17.946 165.601,17.593 165.274,17.241 164.948,16.892    164.623,16.539 164.297,15.836 163.97,15.484 163.32,14.781 162.666,14.429 162.341,13.726 162.016,13.374 162.341,13.374    162.666,13.374 162.994,13.374 163.645,13.726 163.97,13.726 164.297,13.726 164.297,14.079 164.623,14.079 164.948,14.079    165.274,13.726 165.601,13.726 165.929,13.374 166.252,13.023 166.252,12.672 165.929,12.319 165.601,11.969 164.948,11.265    164.948,10.914 164.948,10.21 164.623,9.508 164.297,8.804 163.645,8.452 163.32,8.452 163.32,7.75 163.32,7.046 163.32,6.344    162.994,5.99 162.666,5.289 162.016,4.937 161.69,4.584 161.69,3.883 162.016,3.178 162.341,2.828 162.994,2.475 163.645,2.475    164.297,2.475 164.623,1.771 164.623,1.421 164.948,0.718 164.948,0.364 165.274,-0.337 165.601,-0.691 165.929,-1.039    166.579,-1.039 166.905,-1.393   " id="upazila_218" area="upazlia" name="jhenaigati" bengali="ঝিনাইগাতী" parent="sherpur"></polygon><polygon points="182.875,5.289 183.529,5.641 184.831,5.641 186.135,5.641 186.785,5.641 187.765,5.641    189.069,5.641 190.046,5.992 190.374,6.344 191.026,6.696 191.35,6.696 191.676,7.046 192.326,7.398 192.655,7.398 193.307,7.75    194.282,7.75 194.609,8.102 194.937,8.102 195.589,8.102 195.912,8.102 196.24,8.452 196.24,8.806 196.565,8.806 197.218,8.452    197.541,8.452 198.195,8.452 198.52,8.452 198.845,8.806 199.5,8.806 200.151,8.806 200.476,8.806 200.802,9.155 201.127,9.155    201.781,9.155 201.781,9.858 201.781,10.21 201.781,10.914 201.781,11.617 201.454,12.319 201.454,12.673 201.127,13.374    201.127,14.076 201.454,14.429 201.781,14.781 201.454,15.484 201.781,15.836 201.781,16.186 202.431,16.186 202.431,16.54    202.431,16.892 202.105,18.297 201.781,19.003 201.781,19.353 201.781,20.407 201.781,21.11 201.454,22.163 201.127,23.221    201.454,23.572 202.105,24.275 202.431,24.275 203.083,24.275 203.408,24.625 203.734,24.978 204.063,25.682 204.387,26.033    204.713,26.033 205.038,26.033 205.691,25.682 206.017,25.33 206.344,24.978 206.669,25.33 206.994,25.682 207.321,25.682    207.321,26.033 207.321,26.384 206.994,26.738 206.669,26.738 206.017,26.384 205.691,26.738 205.038,26.738 204.713,27.087    204.387,27.439 204.713,27.791 204.713,28.495 204.387,28.845 204.063,28.845 204.063,29.548 204.063,29.899 203.408,29.899    203.083,30.251 202.758,30.604 202.105,30.604 201.454,30.955 201.454,30.604 201.127,30.604 200.802,30.604 200.802,30.251    200.802,29.899 200.476,29.548 200.802,29.197 200.476,28.495 200.476,28.845 200.151,28.845 199.823,29.548 199.823,29.899    199.5,30.251 199.172,30.604 198.845,30.955 198.52,30.955 197.869,30.955 197.869,31.306 197.541,32.008 197.541,32.361    197.541,33.065 197.218,33.768 196.891,33.768 196.565,34.118 196.24,34.118 196.24,34.47 196.24,34.822 195.912,35.173    195.261,35.173 194.937,35.173 194.609,35.525 194.282,35.173 193.957,34.822 193.632,34.118 193.957,34.118 194.282,34.118    194.609,34.118 194.937,34.118 194.609,33.768 194.609,33.416 193.957,33.416 193.632,33.768 193.307,33.768 192.655,33.768    192.326,33.768 192.326,34.118 192.003,34.118 191.676,34.118 191.35,34.822 191.026,35.173 190.374,35.173 189.721,35.173    189.069,35.173 188.417,34.822 188.09,34.822 187.765,34.47 187.765,34.118 187.765,33.416 187.439,33.416 187.114,33.416    186.785,33.768 186.785,34.118 186.785,34.822 186.46,34.822 186.135,34.822 185.81,34.822 185.156,34.47 184.831,34.47    184.179,34.47 183.853,34.118 183.529,33.416 183.2,33.065 182.875,33.065 182.55,33.416 182.222,33.416 182.222,33.065    181.897,32.715 181.572,32.715 181.248,32.715 180.918,32.715 180.918,32.361 180.918,32.008 181.248,31.658 181.572,30.955    181.572,30.604 181.572,29.899 181.572,29.548 181.248,29.899 180.918,29.899 180.593,29.899 179.943,29.899 179.616,29.899    179.289,29.899 179.289,29.548 178.966,29.548 178.638,29.197 177.988,28.845 177.66,28.845 177.009,28.845 176.685,28.495    175.705,27.439 175.705,26.384 176.357,26.384 176.685,26.738 176.685,27.087 176.685,27.439 177.009,27.439 177.334,27.439    177.334,27.087 177.66,26.384 177.988,26.384 178.314,26.033 178.966,25.682 178.966,25.33 178.966,24.978 178.638,24.625    178.314,24.275 178.638,23.922 178.638,23.221 178.314,23.221 177.66,23.221 177.009,22.518 177.334,21.815 177.334,21.11    177.334,20.758 176.685,20.407 176.031,20.053 176.357,19.703 176.685,19.703 177.009,19.703 177.66,19.353 177.009,19.003    176.685,18.649 177.009,18.297 177.66,18.297 177.988,18.297 178.314,18.297 178.966,18.297 179.289,18.297 179.616,18.297    179.943,17.946 180.268,17.595 180.593,17.595 180.918,17.241 181.248,17.241 181.572,16.892 182.222,16.892 182.222,16.54    181.897,16.186 181.572,16.186 181.248,16.186 181.248,15.836 181.248,15.133 180.918,14.781 180.268,14.429 180.268,14.076    180.918,13.727 181.248,13.023 181.572,12.673 181.897,12.673 182.55,12.673 182.55,12.319 182.222,11.969 182.55,11.969    182.875,11.617 182.875,11.266 183.2,10.914 183.529,10.562 183.529,10.21 183.853,9.508 183.853,8.806 183.853,8.102    183.529,7.75 183.2,7.398 183.2,6.696 183.2,6.344   " id="upazila_220" area="upazlia" name="nalitabari" bengali="নালিতাবাড়ী" parent="sherpur"></polygon><polygon points="171.792,25.679 172.12,25.679 172.446,25.679 172.773,26.033 173.098,26.033 173.424,26.033    174.076,25.679 174.402,25.331 174.402,24.976 175.055,24.976 175.38,25.331 175.705,25.679 175.705,26.384 175.705,27.438    176.684,28.495 177.009,28.844 177.66,28.844 177.988,28.844 178.639,29.198 178.964,29.548 179.289,29.548 179.289,29.898    179.616,29.898 179.943,29.898 180.593,29.898 180.92,29.898 181.246,29.898 181.572,29.548 181.572,29.898 181.572,30.603    181.572,30.955 181.246,31.659 180.92,32.008 180.92,32.361 180.92,32.715 181.246,32.715 181.572,32.715 181.897,32.715    182.224,33.063 182.224,33.416 182.55,33.416 182.875,33.063 183.2,33.063 183.528,33.416 183.2,34.47 183.2,34.82    183.528,35.173 183.528,35.879 182.875,36.226 182.55,36.226 181.897,36.582 181.572,36.93 181.572,37.635 181.246,37.985    181.246,38.339 181.897,38.69 181.897,39.042 181.897,39.393 182.224,40.095 182.875,40.447 182.875,40.802 183.2,41.504    183.2,41.854 183.528,41.854 183.853,42.206 184.179,42.557 183.528,42.557 182.55,42.557 181.572,42.557 181.246,42.557    181.246,42.908 181.246,43.611 181.897,43.965 182.224,44.669 182.55,45.019 182.55,45.724 182.55,46.427 182.224,46.776    182.224,47.479 181.572,47.83 181.246,47.83 181.572,48.887 181.572,49.237 181.897,49.94 181.897,50.293 181.572,50.644    180.593,50.995 179.616,50.995 178.964,50.995 178.313,51.348 177.988,51.348 177.335,51.348 176.684,51.348 176.031,51.348    175.705,50.995 175.055,51.348 174.402,50.995 173.751,50.995 173.098,50.995 172.773,50.644 172.12,50.644 171.792,50.293    171.469,50.293 170.817,50.644 170.165,50.644 169.837,50.995 169.837,50.644 170.165,49.94 170.165,49.591 169.837,49.591    169.513,49.591 169.187,50.293 168.862,50.644 168.533,50.644 168.208,50.644 167.884,50.644 166.905,50.293 166.58,50.293    165.601,50.293 165.276,49.591 164.948,49.237 164.623,49.237 163.97,49.237 163.645,49.237 162.666,49.94 162.016,49.94    161.691,49.94 161.365,49.591 161.365,49.237 161.037,49.237 160.386,49.237 159.734,48.887 159.408,48.887 159.082,48.535    158.757,48.535 158.104,47.83 157.779,47.479 157.779,46.776 157.779,45.724 157.453,45.019 157.453,44.669 156.801,43.965    156.475,43.965 155.824,43.611 155.171,43.611 154.846,43.611 154.193,43.611 153.868,43.965 153.54,44.314 153.215,44.314    152.889,44.669 152.565,44.669 151.911,43.965 152.24,43.263 152.24,42.557 152.24,41.854 152.24,41.15 152.24,40.447    152.24,39.747 151.586,39.747 150.607,39.393 150.607,39.042 150.607,38.339 150.607,37.635 150.282,37.284 150.282,36.582    150.607,36.226 150.935,35.879 150.607,35.525 150.282,35.525 149.631,35.525 148.979,35.173 148.979,34.47 149.304,34.12    149.304,33.416 149.956,33.063 150.607,33.063 151.586,33.063 152.24,33.063 152.565,32.715 152.24,32.361 152.565,31.659    152.889,30.955 153.54,30.603 153.868,30.253 154.846,29.198 155.497,28.844 155.824,29.198 156.15,29.198 156.475,29.548    156.801,29.548 157.128,29.548 157.453,29.548 157.779,29.548 158.104,29.548 158.432,29.548 159.082,29.198 159.408,28.495    160.061,28.844 160.712,29.198 161.037,29.548 161.691,29.548 162.341,29.898 162.666,30.253 163.32,29.898 163.32,29.548    163.32,29.198 163.645,28.844 163.97,28.844 164.623,28.844 165.276,29.198 165.601,29.548 166.252,29.898 166.58,29.548    166.905,29.548 167.231,29.198 167.231,28.844 167.884,28.495 168.208,28.495 168.533,27.792 168.862,27.087 168.862,26.738    169.187,26.384 169.513,26.033 170.165,25.679 170.817,26.033 171.141,26.384 171.469,26.384   " id="upazila_221" area="upazlia" name="sherpursadar" bengali="শেরপুর-সদর" parent="sherpur"></polygon><polygon points="183.528,33.416 183.853,34.12 184.181,34.47 184.831,34.47 185.156,34.47 185.81,34.82    186.135,34.82 186.46,34.82 186.786,34.82 186.786,34.12 186.786,33.766 187.114,33.416 187.439,33.416 187.765,33.416    187.765,34.12 187.765,34.47 188.09,34.82 188.417,34.82 189.071,35.173 189.721,35.173 190.374,35.173 191.025,35.173    191.35,34.82 191.678,34.12 192.003,34.12 192.326,34.12 192.326,33.766 192.655,33.766 193.307,33.766 193.632,33.766    193.958,33.416 194.609,33.416 194.609,33.766 194.936,34.12 194.609,34.12 194.283,34.12 193.958,34.12 193.632,34.12    193.958,34.82 194.283,35.173 194.609,35.525 194.936,35.173 195.262,35.173 195.912,35.173 196.24,34.82 196.24,34.47    196.24,34.12 196.566,34.12 196.891,33.766 197.216,33.766 197.543,33.063 198.195,33.416 198.52,33.766 198.195,34.12    198.195,34.47 198.195,34.82 198.52,35.173 198.52,35.525 198.847,35.879 198.847,36.226 198.847,36.581 198.847,36.93    199.172,37.985 198.847,38.339 198.847,39.042 198.847,39.393 198.52,39.747 198.195,40.095 198.195,40.447 198.195,40.802    197.869,41.15 197.543,41.504 197.543,41.853 197.216,42.206 197.216,42.557 197.216,42.908 197.543,43.263 197.543,43.611    197.869,43.965 198.195,43.611 198.52,43.263 198.847,42.908 199.172,43.263 199.172,43.611 199.172,43.965 199.498,43.965    200.151,44.314 200.476,44.314 200.802,44.669 201.129,45.019 201.454,45.369 201.454,45.722 201.454,46.073 201.129,46.427    200.802,46.427 199.825,46.073 199.498,46.073 199.172,46.073 198.847,46.073 198.52,46.427 198.195,46.427 197.869,46.776    198.195,47.129 198.195,47.83 198.52,48.183 198.847,48.535 199.172,48.887 199.498,48.887 199.825,49.237 199.498,49.94    199.498,50.293 198.847,51.697 198.847,52.402 198.847,53.105 198.847,53.457 198.52,54.513 198.195,54.864 197.869,55.214    197.543,55.568 196.891,55.568 196.24,55.915 195.587,55.568 194.283,54.864 193.632,54.513 193.307,54.513 192.655,54.161    192.326,54.161 192.003,54.513 191.678,54.513 191.025,54.513 190.699,54.513 190.046,54.513 189.721,54.161 189.071,53.809    188.417,53.457 187.765,53.105 186.786,52.752 186.46,52.752 186.135,52.402 186.46,51.697 186.46,51.348 185.81,51.348    185.156,51.348 184.831,52.049 184.506,52.402 184.181,52.049 183.853,51.697 183.202,52.049 182.875,51.697 182.55,51.348    182.224,51.348 181.899,51.348 181.572,51.348 180.595,50.995 181.572,50.644 181.899,50.293 181.899,49.94 181.572,49.237    181.572,48.887 181.246,47.83 181.572,47.83 182.224,47.479 182.224,46.776 182.55,46.427 182.55,45.722 182.55,45.019    182.224,44.669 181.899,43.965 181.246,43.611 181.246,42.908 181.246,42.557 181.572,42.557 182.55,42.557 183.528,42.557    184.181,42.557 183.853,42.206 183.528,41.853 183.202,41.853 183.202,41.504 182.875,40.802 182.875,40.447 182.224,40.095    181.899,39.393 181.899,39.042 181.899,38.69 181.246,38.339 181.246,37.985 181.572,37.635 181.572,36.93 181.899,36.581    182.55,36.226 182.875,36.226 183.528,35.879 183.528,35.173 183.202,34.82 183.202,34.47   " id="upazila_219" area="upazlia" name="nokla" bengali="নকলা" parent="sherpur"></polygon></svg>